<?xml version="1.0" encoding="UTF-8" standalone="no"?>
<svg width="50px" height="43px" viewBox="0 0 50 43" version="1.1" xmlns="http://www.w3.org/2000/svg" xmlns:xlink="http://www.w3.org/1999/xlink" xmlns:sketch="http://www.bohemiancoding.com/sketch/ns">
    <!-- Generator: Sketch 3.2.2 (9983) - http://www.bohemiancoding.com/sketch -->
    <title>Shape</title>
    <desc>Created with Sketch.</desc>
    <defs></defs>
    <g id="Page-1" stroke="none" stroke-width="1" fill="none" fill-rule="evenodd" sketch:type="MSPage">
        <g id="6_block" sketch:type="MSLayerGroup" transform="translate(-695.000000, -427.000000)" fill="#C7A95F">
            <g id="gifts-+-gifts-2" transform="translate(620.000000, 348.000000)" sketch:type="MSShapeGroup">
                <g id="gifts">
                    <g id="1">
                        <g id="briefcase" transform="translate(75.000000, 79.000000)">
                            <path d="M22.5,22.7647059 L27.5,22.7647059 L27.5,27.8235294 L50,27.8235294 C50,27.8235294 49.6275,16.5448824 49.5,13.0163529 C49.375,9.66235294 48.1875,7.58823529 44.5,7.58823529 L36.48,7.58823529 C35.2375,5.21564706 33.9,2.66852941 33.4875,1.88188235 C32.66,0.306058824 32.3775,0 30.54,0 L19.4575,0 C17.62,0 17.34,0.306058824 16.51,1.88188235 C16.0975,2.66852941 14.76,5.21564706 13.52,7.58823529 L5.4975,7.58823529 C1.8075,7.58823529 0.635,9.66235294 0.4975,13.0163529 C0.3625,16.3728824 0,27.8235294 0,27.8235294 L22.5,27.8235294 L22.5,22.7647059 L22.5,22.7647059 Z M19.1225,4.84635294 C19.6975,3.75364706 19.8925,3.54117647 21.165,3.54117647 L28.8325,3.54117647 C30.105,3.54117647 30.3025,3.75364706 30.8725,4.84635294 C31.0875,5.25105882 31.6675,6.364 32.31,7.58823529 L17.685,7.58823529 C18.3275,6.364 18.9075,5.25105882 19.1225,4.84635294 L19.1225,4.84635294 Z M27.5,35.4117647 L22.5,35.4117647 L22.5,30.3529412 L1.25,30.3529412 C1.25,30.3529412 1.56,34.8982941 1.7475,38.7556471 C1.825,40.3567647 2.2925,43 6.2475,43 L43.75,43 C47.705,43 48.1625,40.3517059 48.25,38.7556471 C48.4675,34.7895294 48.75,30.3529412 48.75,30.3529412 L27.5,30.3529412 L27.5,35.4117647 L27.5,35.4117647 Z" id="Shape"></path>
                        </g>
                    </g>
                </g>
            </g>
        </g>
    </g>
</svg>