<?xml version="1.0" encoding="UTF-8" standalone="no"?>
<svg width="50px" height="38px" viewBox="0 0 50 38" version="1.1" xmlns="http://www.w3.org/2000/svg" xmlns:xlink="http://www.w3.org/1999/xlink" xmlns:sketch="http://www.bohemiancoding.com/sketch/ns">
    <!-- Generator: Sketch 3.2.2 (9983) - http://www.bohemiancoding.com/sketch -->
    <title>Shape</title>
    <desc>Created with Sketch.</desc>
    <defs></defs>
    <g id="Page-1" stroke="none" stroke-width="1" fill="none" fill-rule="evenodd" sketch:type="MSPage">
        <g id="6_block" sketch:type="MSLayerGroup" transform="translate(-935.000000, -429.000000)" fill="#C7A95F">
            <g id="gifts-+-gifts-2" transform="translate(620.000000, 348.000000)" sketch:type="MSShapeGroup">
                <g id="gifts">
                    <g id="2" transform="translate(240.000000, 0.000000)">
                        <g id="graduation-cap" transform="translate(75.000000, 81.000000)">
                            <path d="M8.25739678,24.5947795 C9.41738228,29.2923568 10.8923638,31.3473906 15.8123023,33.499926 C20.7347408,35.6499613 23.0722116,38 25.0021875,38 C26.9296634,38 29.122136,35.9449662 34.0420745,33.7899308 C38.9645129,31.6373954 37.6495294,30.9823846 38.8095149,26.2848073 L25.0021875,32.9999178 L8.25739678,24.5947795 L8.25739678,24.5947795 Z M48.7793903,12.339578 L27.9671504,0.684386256 C26.3371708,-0.228128752 23.6672042,-0.228128752 22.0372245,0.684386256 L1.22248472,12.339578 C-0.407494906,13.252093 -0.407494906,14.7471176 1.22248472,15.6596326 L22.0347246,27.3148243 C23.6647042,28.2273393 26.3346708,28.2273393 27.9646504,27.3148243 L41.4194823,19.7797003 L26.8296646,16.3621441 C26.2671717,16.4996464 25.6496794,16.5771477 25.0021875,16.5771477 C22.3722203,16.5771477 20.242247,15.3121268 20.242247,13.7496011 C20.242247,12.1820754 22.3747203,10.9170546 25.0021875,10.9170546 C27.042162,10.9170546 28.7771403,11.6845672 29.4521318,12.7520847 L44.9069387,17.8246682 L48.7793903,15.6571325 C50.4068699,14.7471176 50.4068699,13.252093 48.7793903,12.339578 L48.7793903,12.339578 Z M42.4194698,34.4249412 C42.2569718,35.387457 45.6269297,36.9699831 45.9469257,34.1574368 C47.3944076,21.4772282 44.9069387,17.8296683 44.9069387,17.8296683 L41.4194823,19.7822004 C41.4194823,19.7797003 44.3769453,22.5947466 42.4194698,34.4249412 L42.4194698,34.4249412 Z" id="Shape"></path>
                        </g>
                    </g>
                </g>
            </g>
        </g>
    </g>
</svg>