<?xml version="1.0" encoding="UTF-8" standalone="no"?>
<svg width="51px" height="47px" viewBox="0 0 51 47" version="1.1" xmlns="http://www.w3.org/2000/svg" xmlns:xlink="http://www.w3.org/1999/xlink" xmlns:sketch="http://www.bohemiancoding.com/sketch/ns">
    <!-- Generator: Sketch 3.2.2 (9983) - http://www.bohemiancoding.com/sketch -->
    <title>Shape</title>
    <desc>Created with Sketch.</desc>
    <defs></defs>
    <g id="Page-1" stroke="none" stroke-width="1" fill="none" fill-rule="evenodd" sketch:type="MSPage">
        <g id="6_block" sketch:type="MSLayerGroup" transform="translate(-1175.000000, -425.000000)" fill="#C7A95F">
            <g id="gifts-+-gifts-2" transform="translate(620.000000, 348.000000)" sketch:type="MSShapeGroup">
                <g id="gifts">
                    <g id="3" transform="translate(480.000000, 0.000000)">
                        <g id="open-book" transform="translate(75.000000, 77.000000)">
                            <path d="M26.5655098,11.5878924 L27.6882006,15.0391116 C28.6170636,14.2436446 29.7900993,13.5312485 31.3155491,13.0378576 C32.800723,12.5545358 34.1122071,12.2826674 35.297829,12.1265947 L34.2154141,8.79620588 C33.017206,8.96989963 31.6956529,9.24932001 30.2381687,9.72257254 C28.7832017,10.1958251 27.5824763,10.8553579 26.5655098,11.5878924 L26.5655098,11.5878924 Z M28.8989949,18.7747859 L30.0216857,22.2260052 C30.9505487,21.4305381 32.1235844,20.718142 33.6490342,20.2247511 C35.1342082,19.7414294 36.4456923,19.4695609 37.6313142,19.3134882 L36.5488993,15.9830994 C35.3506911,16.1567932 34.0291381,16.4362135 32.5716538,16.9094661 C31.1166868,17.3802013 29.9184787,18.0397341 28.8989949,18.7747859 L28.8989949,18.7747859 Z M31.2349973,25.9591621 L32.3576881,29.4103814 C33.2865511,28.6149144 34.4595868,27.9025183 35.9850366,27.4091273 C37.4702106,26.9258056 38.7816946,26.6539371 39.9673165,26.4978645 L38.8849016,23.1674756 C37.6866935,23.3411694 36.3651405,23.6205897 34.9076562,24.0938423 C33.450172,24.5645775 32.2519639,25.2266276 31.2349973,25.9591621 L31.2349973,25.9591621 Z M13.4582205,31.4267392 L14.5406354,34.7571281 C15.5903262,34.1882181 16.8111895,33.6369293 18.2963634,33.1561248 C19.8218132,32.6602166 21.1886767,32.5469381 22.4070228,32.6451128 L21.284332,29.1938935 C20.0282272,29.1989281 18.6714328,29.3701046 17.218983,29.8408398 C15.7614988,30.3140923 14.5280492,30.8628639 13.4582205,31.4267392 L13.4582205,31.4267392 Z M8.78873303,17.0554695 L9.87114793,20.3858583 C10.9208387,19.8169484 12.141702,19.2681768 13.6268759,18.7848551 C15.1523257,18.2889469 16.5191892,18.1756683 17.7375353,18.273843 L16.6173617,14.8201065 C15.361257,14.8276584 14.0044625,14.9963175 12.5494955,15.4695701 C11.0920112,15.9428226 9.85856171,16.4915941 8.78873303,17.0554695 L8.78873303,17.0554695 Z M11.1222182,24.242363 L12.2046331,27.5727519 C13.2543238,27.0038419 14.4751871,26.452553 15.960361,25.9717486 C17.4858109,25.4758404 18.8526743,25.3625618 20.0710204,25.4607366 L18.9508468,22.007 C17.6947421,22.0120346 16.3379476,22.183211 14.8854979,22.6539463 C13.4280136,23.1271988 12.1920468,23.6784877 11.1222182,24.242363 L11.1222182,24.242363 Z M27.7460972,2.05739189 C23.4088859,3.46708029 21.1433663,6.46770273 20.0609514,8.4991644 C17.9917769,7.49224412 14.3971525,6.39721831 10.0599412,7.80690671 C3.70893475,9.87109329 0.069,14.4198557 0.069,14.4198557 L10.377114,46.1051197 C10.6942867,47.079315 12.0032535,47.3058721 12.5872541,46.4650937 C13.8433589,44.6551545 16.2624303,42.2914091 20.7859177,40.8213055 C25.1105428,39.4166517 28.259615,40.9572397 29.9864443,42.2763053 C30.6711347,42.7999038 31.6528598,42.4273433 31.9045842,41.6016687 C32.5389297,39.519861 34.1877244,36.4663753 38.4745909,35.074308 C43.0031127,33.6016871 46.3510472,34.095078 48.4328079,34.8225779 C49.4019469,35.1598962 50.3207409,34.2133911 50.0060854,33.2391957 L39.7155922,1.53631065 C39.7155922,1.53631065 34.0971037,-0.00427738719 27.7460972,2.05739189 L27.7460972,2.05739189 Z M27.4616486,36.9119375 C25.4000258,36.2977161 22.6763679,36.0107438 19.5549854,37.0226987 C16.4059132,38.0447228 14.2008075,39.4116171 12.760944,40.5569889 L4.59248737,15.4292932 C5.4936607,14.5280996 7.58045594,12.8062659 11.2933908,11.6004789 C14.7898426,10.4651763 17.6569835,11.4368543 19.5474337,12.5520185 L27.4616486,36.9119375 L27.4616486,36.9119375 Z M44.8155284,30.1429159 C42.9754231,30.0623623 40.3876963,30.2536771 37.2386241,31.2782185 C34.1172416,32.2926907 32.0833085,34.1278029 30.7768589,35.8345328 L22.8626439,11.4746138 C23.7336103,9.46077327 25.4805776,6.98878398 28.9795467,5.85348136 C32.6899643,4.64769432 35.3909671,4.81383617 36.649589,5.01270292 L44.8155284,30.1429159 L44.8155284,30.1429159 Z" id="Shape"></path>
                        </g>
                    </g>
                </g>
            </g>
        </g>
    </g>
</svg>