<?xml version="1.0" encoding="UTF-8" standalone="no"?>
<svg width="50px" height="40px" viewBox="0 0 50 40" version="1.1" xmlns="http://www.w3.org/2000/svg" xmlns:xlink="http://www.w3.org/1999/xlink" xmlns:sketch="http://www.bohemiancoding.com/sketch/ns">
    <!-- Generator: Sketch 3.2.2 (9983) - http://www.bohemiancoding.com/sketch -->
    <title>Shape</title>
    <desc>Created with Sketch.</desc>
    <defs></defs>
    <g id="Page-1" stroke="none" stroke-width="1" fill="none" fill-rule="evenodd" sketch:type="MSPage">
        <g id="6_block" sketch:type="MSLayerGroup" transform="translate(-935.000000, -790.000000)" fill="#C7A95F">
            <g id="gifts-+-gifts-2" transform="translate(620.000000, 348.000000)" sketch:type="MSShapeGroup">
                <g id="gifts-2" transform="translate(0.000000, 362.000000)">
                    <g id="2" transform="translate(240.000000, 0.000000)">
                        <g id="language" transform="translate(75.000000, 80.000000)">
                            <path d="M49.3818162,22.1851445 C47.8218337,17.8054056 43.4668826,15.1909042 37.7294471,15.1909042 C37.5044496,15.1909042 37.289452,15.1960357 37.0744545,15.2062987 L37.0344549,9.91315207 C37.0344549,9.91315207 45.5593591,8.40448981 45.8468559,8.35574052 C46.1343527,8.30699123 46.1793521,8.05041602 46.1193528,7.76305178 C46.0618535,7.4782533 45.7018575,5.49749265 45.6493581,5.2588777 C45.5818589,4.92276417 45.394361,4.93302718 45.1318639,4.97921072 C44.8718668,5.02539426 37.0069552,6.16202245 37.0069552,6.16202245 C37.0069552,6.16202245 36.9769555,1.15110854 36.9744556,0.830389527 C36.9719556,0.509670511 36.8019575,0.425000691 36.489461,0.430132195 C36.1769645,0.435263699 34.1894869,0.466052725 33.9269898,0.471184229 C33.6644928,0.476315734 33.5169944,0.596906084 33.5219944,0.850915544 C33.5269943,1.10749076 33.6044934,6.77010571 33.6044934,6.77010571 C33.6044934,6.77010571 25.9520794,8.12225708 25.7445818,8.16330911 C25.5345841,8.19922964 25.3195865,8.29929398 25.367086,8.53021167 C25.4145855,8.76112936 25.8420807,11.3371445 25.8870802,11.5372732 C25.9320796,11.7425333 26.0670781,11.8682552 26.3570749,11.8118086 C26.6445716,11.7630594 33.6669927,10.5186696 33.6669927,10.5186696 L33.7544918,15.6963574 C31.062022,16.4173337 29.2520423,17.8105371 28.1145551,19.0395324 C26.1945767,21.1100944 25.097089,23.8811067 25.097089,26.641856 C25.097089,30.7111388 27.5245618,33.1306431 30.9170236,33.5565579 C38.8219348,34.549504 43.7143798,25.7053564 45.3393616,21.4590367 C48.0818308,25.3230594 45.9793544,32.6303214 40.1044204,36.8022344 C39.9969216,36.8766412 39.8594232,37.1332164 40.0219213,37.3333451 C40.1844195,37.5334737 41.3744061,39.031873 41.5694039,39.2730537 C41.7694017,39.5193659 42.0843982,39.4244331 42.2093968,39.332066 C48.4843262,34.8933148 51.3617939,27.7476951 49.3818162,22.1851445 L49.3818162,22.1851445 Z M30.9170236,30.3647623 C28.5020508,30.0543063 28.5570502,28.0196648 28.5570502,26.6367245 C28.5570502,24.6533981 29.374541,22.5828361 30.7470255,21.1049629 C31.5845161,20.1966866 32.6220045,19.5116308 33.819491,19.0549269 L34.0244887,30.0286488 C33.0619995,30.3647623 32.0270112,30.5033129 30.9170236,30.3647623 L30.9170236,30.3647623 Z M36.9844555,28.9459014 L37.0994542,18.4032259 C37.3094518,18.3929629 37.5144495,18.3775683 37.7294471,18.3775683 C39.6619254,18.3775683 41.4644051,18.7496024 42.4418941,19.3038049 C43.4193832,19.8605731 39.8844229,26.2646904 36.9844555,28.9459014 L36.9844555,28.9459014 Z M14.6097069,9.27171403 C14.5347077,9.03053333 14.3522098,8.89967998 14.1197124,8.89967998 L9.24476715,8.89967998 C9.01226976,8.89967998 8.83227179,9.03053333 8.7597726,9.26914828 C7.72978417,12.6020603 0.0598703556,37.4667642 0.0198708051,37.5976175 C-0.0226287174,37.7284709 -0.00762888595,37.7926147 0.174869063,37.7926147 L4.50732038,37.7926147 C4.69481828,37.7926147 4.7548176,37.7336024 4.79231718,37.6078806 C4.82981676,37.4770272 7.31228887,29.094715 7.31228887,29.094715 L16.0521907,29.094715 C16.0521907,29.094715 18.5321628,37.479593 18.5721623,37.6078806 C18.6121619,37.7336024 18.6696613,37.7926147 18.8546592,37.7926147 L23.1896105,37.7926147 C23.3696084,37.7926147 23.3846083,37.7284709 23.3446087,37.5976175 C23.3096091,37.4693299 15.6371953,12.6046261 14.6097069,9.27171403 L14.6097069,9.27171403 Z M8.06478041,25.482136 L11.6822398,12.0119373 L15.2996991,25.482136 L8.06478041,25.482136 L8.06478041,25.482136 Z" id="Shape"></path>
                        </g>
                    </g>
                </g>
            </g>
        </g>
    </g>
</svg>