<?xml version="1.0" encoding="UTF-8" standalone="no"?>
<svg width="41px" height="41px" viewBox="0 0 41 41" version="1.1" xmlns="http://www.w3.org/2000/svg" xmlns:xlink="http://www.w3.org/1999/xlink" xmlns:sketch="http://www.bohemiancoding.com/sketch/ns">
    <!-- Generator: Sketch 3.2.2 (9983) - http://www.bohemiancoding.com/sketch -->
    <title>Shape</title>
    <desc>Created with Sketch.</desc>
    <defs></defs>
    <g id="Page-1" stroke="none" stroke-width="1" fill="none" fill-rule="evenodd" sketch:type="MSPage">
        <g id="6_block" sketch:type="MSLayerGroup" transform="translate(-1180.000000, -790.000000)" fill="#C7A95F">
            <g id="gifts-+-gifts-2" transform="translate(620.000000, 348.000000)" sketch:type="MSShapeGroup">
                <g id="gifts-2" transform="translate(0.000000, 362.000000)">
                    <g id="4" transform="translate(480.000000, 0.000000)">
                        <g id="edit" transform="translate(80.000000, 80.000000)">
                            <path d="M37.3839961,3.015475 C34.1067318,-0.264356287 31.6453744,0.226595589 31.6453744,0.226595589 L17.890864,13.9823398 L2.4954487,29.3768633 L0.2,40.2005338 L11.0249724,37.9048792 L26.4203877,22.5149016 L40.1748981,8.75915738 C40.1726254,8.75915738 40.665806,6.29757921 37.3839961,3.015475 L37.3839961,3.015475 Z M10.3817922,36.6047659 L6.69089255,37.4002898 C6.336348,36.7343227 5.90680364,36.0683555 5.12271473,35.2819234 C4.33635309,34.4954912 3.6704457,34.0704541 3.00453831,33.7113319 L3.79999082,30.0223741 L4.86816992,28.9563721 C4.86816992,28.9563721 6.87498299,28.9972847 9.14315902,31.2656642 C11.4090623,33.5294979 11.452244,35.5410368 11.452244,35.5410368 L10.3817922,36.6047659 L10.3817922,36.6047659 Z" id="Shape"></path>
                        </g>
                    </g>
                </g>
            </g>
        </g>
    </g>
</svg>