<svg width="35" height="31" viewBox="0 0 35 31" xmlns="http://www.w3.org/2000/svg" xmlns:sketch="http://www.bohemiancoding.com/sketch/ns"><title>Shape</title><desc>Created with Sketch.</desc><path d="M15.75 16.412h3.5v3.647h15.75s-.261-8.131-.35-10.675c-.088-2.418-.919-3.913-3.5-3.913h-5.614l-2.095-4.114c-.579-1.136-.777-1.357-2.063-1.357h-7.758c-1.286 0-1.482.221-2.063 1.357-.289.567-1.225 2.403-2.093 4.114h-5.616c-2.583 0-3.404 1.495-3.5 3.913-.095 2.42-.348 10.675-.348 10.675h15.75v-3.647zm-2.364-12.918c.402-.788.539-.941 1.43-.941h5.367c.891 0 1.029.153 1.428.941l1.006 1.977h-10.237l1.006-1.977zm5.864 22.036h-3.5v-3.647h-14.875s.217 3.277.348 6.058c.054 1.154.382 3.06 3.15 3.06h26.252c2.769 0 3.089-1.909 3.15-3.06.152-2.859.35-6.058.35-6.058h-14.875v3.647z" sketch:type="MSShapeGroup" fill="#C7A95F"/></svg>