<svg width="33" height="30" viewBox="0 0 33 30" xmlns="http://www.w3.org/2000/svg" xmlns:sketch="http://www.bohemiancoding.com/sketch/ns"><title>Shape</title><desc>Created with Sketch.</desc><path d="M13.302 6.651c0-3.673-2.978-6.651-6.651-6.651-3.673 0-6.651 2.978-6.651 6.651 0 3.673 2.978 6.651 6.651 6.651 1.73 0 3.291-.678 4.476-1.759l3.293 3.041.022.016-.007.005-3.309 3.052c-1.182-1.081-2.743-1.759-4.474-1.759-3.673 0-6.651 2.978-6.651 6.651 0 3.673 2.978 6.651 6.651 6.651 3.673 0 6.651-2.978 6.651-6.651 0-.535-.079-1.049-.2-1.547l5.126-3.589 7.439 5.525c3.987 2.792 6.777-1.195 6.777-1.195l-19.342-13.546c.119-.497.2-1.011.2-1.547zm-6.651 3.244c-1.792 0-3.244-1.453-3.244-3.244 0-1.792 1.453-3.244 3.244-3.244 1.792 0 3.244 1.453 3.244 3.244 0 1.792-1.453 3.244-3.244 3.244zm0 15.898c-1.792 0-3.244-1.453-3.244-3.244 0-1.792 1.453-3.244 3.244-3.244 1.792 0 3.244 1.453 3.244 3.244 0 1.792-1.453 3.244-3.244 3.244zm25.793-18.335s-2.79-3.987-6.777-1.195l-5.777 4.029 4.243 2.97 8.311-5.804z" sketch:type="MSShapeGroup" fill="#C7A95F"/></svg>