<svg width="26" height="30" viewBox="0 0 26 30" xmlns="http://www.w3.org/2000/svg" xmlns:sketch="http://www.bohemiancoding.com/sketch/ns"><title>Shape</title><desc>Created with Sketch.</desc><path d="M25.35 26.274c-.089.273-.303.576-.652.678-.253.074-8.607 2.494-8.864 2.561-.736.196-1.247.052-1.582-.245-.511-.45-6.419-4.47-13.872-4.849-.797-.039-.406-3.06 1.871-3.06 1.561 0 6.123 1.134 6.673.582.425-.427.618-2.947-1.156-7.345l-3.568-8.841c-.339-.839.069-1.793.907-2.131.839-.339 1.796.067 2.131.907 0 0 2.809 6.96 3.115 7.715.303.753.676 1.038 1.082.881.362-.138.438-.38.218-1.112l-3.209-9.454c-.292-.856.166-1.785 1.023-2.077.858-.293 1.79.166 2.078 1.023l3.052 8.99c.27.79.555 1.205 1.007 1.013.271-.114.253-.53.18-.892l-2.142-8.581c-.22-.88.315-1.768 1.194-1.987.878-.218 1.764.314 1.986 1.194l1.976 7.908c.289 1.162.554 1.581 1.013 1.466.469-.114.447-.5.383-.819-.149-.745-1.368-6.788-1.368-6.788-.162-.808.361-1.592 1.167-1.753.805-.162 1.59.361 1.75 1.165l1.487 7.389.002.002v.002l.891 4.431c.194.836.417 1.623.706 2.395 1.702 4.531.814 8.726.524 9.635z" sketch:type="MSShapeGroup" fill="#C7A95F"/></svg>