<svg width="30" height="30" viewBox="0 0 30 30" xmlns="http://www.w3.org/2000/svg" xmlns:sketch="http://www.bohemiancoding.com/sketch/ns"><title>Shape 3</title><desc>Created with Sketch.</desc><path d="M18.947 19.38s12.313-8.684 10.947-18.622c-.03-.216-.103-.363-.195-.457-.094-.094-.239-.167-.459-.196-9.937-1.365-18.618 10.947-18.618 10.947-7.532-.881-6.984.586-10.42 8.653-.658 1.538.408 2.068 1.577 1.635l3.747-1.382 4.518 4.514-1.383 3.749c-.433 1.169.096 2.235 1.636 1.579 8.066-3.437 9.534-2.888 8.652-10.419zm1.76-10.085c-1.043-1.045-1.043-2.734 0-3.779 1.043-1.042 2.733-1.042 3.778 0 1.043 1.042 1.043 2.733 0 3.779-1.045 1.042-2.737 1.042-3.778 0z" sketch:type="MSShapeGroup" fill="#C7A95F"/></svg>