<?xml version="1.0" encoding="UTF-8" standalone="no"?>
<svg width="227px" height="49px" viewBox="0 0 227 49" version="1.1" xmlns="http://www.w3.org/2000/svg" xmlns:xlink="http://www.w3.org/1999/xlink" xmlns:sketch="http://www.bohemiancoding.com/sketch/ns">
    <!-- Generator: Sketch 3.2.2 (9983) - http://www.bohemiancoding.com/sketch -->
    <title>Imported Layers</title>
    <desc>Created with Sketch.</desc>
    <defs></defs>
    <g id="Page-1" stroke="none" stroke-width="1" fill="none" fill-rule="evenodd" sketch:type="MSPage">
        <g id="О-чемпионате-(дизайн)" sketch:type="MSArtboardGroup" transform="translate(-702.000000, -3801.000000)">
            <g id="4_block" sketch:type="MSLayerGroup" transform="translate(-1.000000, 3657.000000)">
                <g id="logos" transform="translate(471.000000, 121.000000)" sketch:type="MSShapeGroup">
                    <g id="1" transform="translate(72.000000, 0.000000)">
                        <g id="Imported-Layers" transform="translate(160.000000, 23.000000)">
                            <path d="M80.3367367,28.3323765 L78.9799089,32.1411176 L78.9029013,32.1411176 C78.6603848,31.2481647 78.2540835,29.9828118 77.6173342,28.3738824 L70.3567823,10.1020706 L63.2577165,10.1020706 L63.2577165,39.1515765 L67.9396633,39.1515765 L67.9396633,21.2942471 C67.9396633,20.1914588 67.9161013,18.8598118 67.8701266,17.3350471 C67.8459899,16.5637294 67.758638,15.9457529 67.7373747,15.4753529 L67.840243,15.4753529 C68.078162,16.5694941 68.3252759,17.4036471 68.5040025,17.9610941 L77.2104582,39.1515765 L80.4861544,39.1515765 L89.1282456,17.7697059 C89.3242127,17.2820118 89.5322481,16.3308353 89.723043,15.4753529 L89.8259114,15.4753529 C89.7126987,17.5915765 89.6167266,19.5250588 89.6040835,20.6924118 L89.6040835,39.1515765 L94.5986582,39.1515765 L94.5986582,10.1020706 L87.7811873,10.1020706 L80.3367367,28.3323765" id="Fill-1" fill="#6D6E6C"></path>
                            <path d="M99.3012937,18.3340706 L104.18323,18.3340706 L104.18323,39.1515765 L99.3012937,39.1515765 L99.3012937,18.3340706 Z" id="Fill-2" fill="#6D6E6C"></path>
                            <path d="M101.792547,9.48697647 C100.98799,9.48697647 100.2886,9.76252941 99.7127671,10.3049882 C99.1340608,10.8497529 98.8415468,11.5374824 98.8415468,12.3474235 C98.8415468,13.1446824 99.1311873,13.818 99.7029975,14.3495059 C100.271934,14.8787059 100.975347,15.1467647 101.792547,15.1467647 C102.609747,15.1467647 103.316033,14.8787059 103.891291,14.3500824 C104.470572,13.818 104.764235,13.1446824 104.764235,12.3474235 C104.764235,11.5657294 104.478043,10.8860706 103.914853,10.3274706 C103.351663,9.76944706 102.637906,9.48697647 101.792547,9.48697647" id="Fill-3" fill="#6D6E6C"></path>
                            <path d="M121.465689,18.1253882 C120.526656,17.9305412 119.609461,17.8325412 118.737666,17.8325412 C116.497549,17.8325412 114.499949,18.3138941 112.80061,19.2639176 C111.098397,20.2150941 109.781223,21.5744118 108.886441,23.3026706 C107.993382,25.0263176 107.540532,27.0387765 107.540532,29.2847059 C107.540532,31.2516235 107.980165,33.0559765 108.847362,34.6476118 C109.715709,36.2415529 110.944957,37.4878824 112.500625,38.3525882 C114.05457,39.2155647 115.849881,39.6536824 117.837137,39.6536824 C120.157134,39.6536824 122.138643,39.1890471 123.725919,38.2713059 L123.790284,38.2332588 L123.790284,33.7477412 L123.585696,33.8982 C122.865043,34.4239412 122.061635,34.8430353 121.197311,35.1451059 C120.334137,35.4466 119.547395,35.5999412 118.857775,35.5999412 C116.942354,35.5999412 115.405076,34.9986824 114.288466,33.8128824 C113.169557,32.6265059 112.602919,30.9610824 112.602919,28.8633059 C112.602919,26.7522706 113.193694,25.0424588 114.359152,23.7817176 C115.522311,22.5238588 117.062463,21.8862824 118.937656,21.8862824 C120.543322,21.8862824 122.107035,22.4310471 123.585696,23.5073176 L123.790284,23.6566235 L123.790284,18.9295647 L123.72477,18.8926706 C123.167901,18.5802235 122.40817,18.3219647 121.465689,18.1253882" id="Fill-4" fill="#6D6E6C"></path>
                            <path d="M137.551081,17.9726235 C136.325281,17.9726235 135.227061,18.3675059 134.286304,19.1468941 C133.460484,19.8300118 132.864537,20.7679294 132.407663,21.9387412 L132.355942,21.9387412 L132.355942,18.3340706 L127.47458,18.3340706 L127.47458,39.1515765 L132.355942,39.1515765 L132.355942,28.5018588 C132.355942,26.6911647 132.765691,25.2038706 133.573122,24.0809059 C134.370208,22.9706235 135.432797,22.4079882 136.730433,22.4079882 C137.170641,22.4079882 137.664294,22.4806235 138.198749,22.6241647 C138.727458,22.7671294 139.110197,22.9227765 139.336623,23.0859176 L139.541785,23.2346471 L139.541785,18.2977529 L139.463053,18.2643176 C139.009053,18.0706235 138.365408,17.9726235 137.551081,17.9726235" id="Fill-5" fill="#6D6E6C"></path>
                            <path d="M150.81018,17.8325412 C147.387365,17.8325412 144.669111,18.8384824 142.731853,20.8221176 C140.794595,22.8051765 139.813035,25.5514824 139.813035,28.9837882 C139.813035,32.2437294 140.771608,34.8649412 142.662316,36.7747882 C144.553025,38.6846353 147.126458,39.6536824 150.30963,39.6536824 C153.626129,39.6536824 156.290937,38.6344824 158.228195,36.6226 C160.164304,34.6130235 161.146438,31.8943882 161.146438,28.5422118 C161.146438,25.2303882 160.22522,22.589 158.408646,20.6929882 C156.590347,18.7946706 154.03358,17.8325412 150.81018,17.8325412 L150.81018,17.8325412 Z M154.691592,33.8613059 C153.774397,35.0154 152.394582,35.5999412 150.589501,35.5999412 C148.796489,35.5999412 147.381618,35.0044471 146.385691,33.8290235 C145.383443,32.6472588 144.874848,30.9633882 144.874848,28.8229529 C144.874848,26.6162235 145.383443,24.8879647 146.385691,23.6866 C147.382767,22.4921529 148.783846,21.8862824 150.549848,21.8862824 C152.26298,21.8862824 153.627278,22.4650588 154.604241,23.6076235 C155.586375,24.7553765 156.084625,26.4698 156.084625,28.7024706 C156.084625,30.9639647 155.615684,32.6997176 154.691592,33.8613059 L154.691592,33.8613059 Z" id="Fill-6" fill="#6D6E6C"></path>
                            <path d="M171.972901,26.9361647 C170.433899,26.3153059 169.447742,25.8016706 169.04259,25.4073647 C168.650656,25.0263176 168.451241,24.4873176 168.451241,23.8042 C168.451241,23.1983294 168.697205,22.7129412 169.202352,22.3209412 C169.709797,21.9254824 170.417233,21.7254471 171.304544,21.7254471 C172.129215,21.7254471 172.971127,21.8551529 173.808441,22.1111059 C174.64518,22.3670588 175.380775,22.7094824 175.995111,23.128 L176.1974,23.2657765 L176.1974,18.7393294 L176.118668,18.7053176 C175.55318,18.4620471 174.806666,18.2539412 173.899815,18.0850353 C172.995263,17.9172824 172.176339,17.8325412 171.464306,17.8325412 C169.136838,17.8325412 167.211073,18.4297647 165.739309,19.6074941 C164.260073,20.7915647 163.509537,22.3457294 163.509537,24.2256 C163.509537,25.2032941 163.671597,26.0714588 163.990547,26.8064588 C164.310646,27.5454941 164.807747,28.1969059 165.468058,28.7422471 C166.120899,29.2835529 167.132342,29.8502235 168.471354,30.4278471 C169.59601,30.8924824 170.435623,31.2856353 170.969504,31.5957765 C171.490742,31.899 171.860838,32.2039529 172.068873,32.5014118 C172.272886,32.7925294 172.375754,33.1891412 172.375754,33.6814471 C172.375754,35.0811176 171.331554,35.7602 169.183387,35.7602 C168.385727,35.7602 167.477152,35.5936 166.481225,35.2650118 C165.484724,34.9358471 164.553737,34.4625647 163.714699,33.8572706 L163.509537,33.7096941 L163.509537,38.4828706 L163.584246,38.5174588 C164.28421,38.8414353 165.1652,39.1146824 166.204803,39.3297059 C167.24383,39.5453059 168.185162,39.6536824 169.002362,39.6536824 C171.52982,39.6536824 173.563051,39.053 175.047458,37.8689294 C176.540486,36.6773647 177.297919,35.0863059 177.297919,33.1395647 C177.297919,31.7370118 176.891043,30.5333412 176.087061,29.5631412 C175.2894,28.6004353 173.904987,27.7167059 171.972901,26.9361647" id="Fill-7" fill="#6D6E6C"></path>
                            <path d="M190.424266,17.8325412 C187.001451,17.8325412 184.284347,18.8384824 182.346514,20.8221176 C180.40983,22.8051765 179.427696,25.5514824 179.427696,28.9837882 C179.427696,32.2437294 180.386268,34.8649412 182.277552,36.7747882 C184.168261,38.6846353 186.740544,39.6536824 189.924291,39.6536824 C193.24079,39.6536824 195.905597,38.6344824 197.842856,36.6226 C199.779539,34.6130235 200.761673,31.8943882 200.761673,28.5422118 C200.761673,25.2303882 199.839881,22.589 198.022732,20.6929882 C196.205008,18.7946706 193.648241,17.8325412 190.424266,17.8325412 L190.424266,17.8325412 Z M194.306253,33.8613059 C193.389633,35.0154 192.008668,35.5999412 190.204737,35.5999412 C188.411724,35.5999412 186.996853,35.0044471 185.999777,33.8290235 C184.997529,32.6472588 184.489509,30.9633882 184.489509,28.8229529 C184.489509,26.6162235 184.998104,24.8879647 186.000352,23.6866 C186.997428,22.4921529 188.397932,21.8862824 190.164509,21.8862824 C191.877641,21.8862824 193.242514,22.4650588 194.219476,23.6076235 C195.20161,24.7553765 195.699286,26.4698 195.699286,28.7024706 C195.699286,30.9639647 195.230344,32.6997176 194.306253,33.8613059 L194.306253,33.8613059 Z" id="Fill-8" fill="#6D6E6C"></path>
                            <path d="M226.790815,22.3272824 L226.790815,18.3340706 L221.846813,18.3340706 L221.846813,12.1243294 L221.680154,12.1756353 L217.036711,13.6018235 L216.945337,13.6300706 L216.945337,18.3340706 L209.62042,18.3340706 L209.62042,15.7134353 C209.62042,14.4936235 209.892246,13.5597412 210.429575,12.9371529 C210.962306,12.3203294 211.723187,12.0078824 212.692678,12.0078824 C213.390919,12.0078824 214.114446,12.1733294 214.84257,12.4996118 L215.02417,12.5803176 L215.02417,8.37381176 L214.939116,8.34383529 C214.26099,8.09883529 213.337473,7.97431765 212.192704,7.97431765 C210.750823,7.97431765 209.43997,8.2908 208.298648,8.91338824 C207.155028,9.53885882 206.255073,10.4306588 205.625795,11.564 C204.997091,12.6961882 204.678716,14.0042 204.678716,15.4522941 L204.678716,18.3340706 L201.236362,18.3340706 L201.236362,22.3272824 L204.678716,22.3272824 L204.678716,39.1515765 L209.62042,39.1515765 L209.62042,22.3272824 L216.945337,22.3272824 L216.945337,33.0190824 C216.945337,37.4215882 219.015347,39.6536824 223.099048,39.6536824 C223.770278,39.6536824 224.476565,39.5747059 225.197218,39.4202118 C225.932238,39.2611059 226.431638,39.1025765 226.725876,38.9336706 L226.790815,38.8967765 L226.790815,34.8637882 L226.589676,34.9986824 C226.321873,35.1779647 225.987408,35.3243882 225.596048,35.4339176 C225.20239,35.5440235 224.874246,35.5999412 224.619661,35.5999412 C223.662813,35.5999412 222.955377,35.3416824 222.515744,34.8315059 C222.072089,34.3161412 221.846813,33.4168471 221.846813,32.1555294 L221.846813,22.3272824 L226.790815,22.3272824" id="Fill-9" fill="#6D6E6C"></path>
                            <path d="M0.443655696,0.398917647 L23.4085848,0.398917647 L23.4085848,23.4352588 L0.443655696,23.4352588 L0.443655696,0.398917647 Z" id="Fill-10" fill="#E15D29"></path>
                            <path d="M25.7992684,0.398917647 L48.7636228,0.398917647 L48.7636228,23.4346824 L25.7992684,23.4346824 L25.7992684,0.398917647 Z" id="Fill-11" fill="#84BF41"></path>
                            <path d="M0.443655696,25.8426 L23.4080101,25.8426 L23.4080101,48.8783647 L0.443655696,48.8783647 L0.443655696,25.8426 Z" id="Fill-12" fill="#00A3DB"></path>
                            <path d="M25.7992684,25.8426 L48.7636228,25.8426 L48.7636228,48.8783647 L25.7992684,48.8783647 L25.7992684,25.8426 Z" id="Fill-13" fill="#F6BC25"></path>
                        </g>
                    </g>
                </g>
            </g>
        </g>
    </g>
</svg>