<?xml version="1.0" encoding="UTF-8" standalone="no"?>
<svg width="180px" height="57px" viewBox="0 0 180 57" version="1.1" xmlns="http://www.w3.org/2000/svg" xmlns:xlink="http://www.w3.org/1999/xlink" xmlns:sketch="http://www.bohemiancoding.com/sketch/ns">
    <!-- Generator: Sketch 3.2.2 (9983) - http://www.bohemiancoding.com/sketch -->
    <title>Coca-Cola</title>
    <desc>Created with Sketch.</desc>
    <defs>
        <path id="path-1" d="M0.0259615385,0.269653846 L179.827356,0.269653846 L179.827356,57 L0.0259615385,57"></path>
    </defs>
    <g id="III-Игры-Дизайнеров" stroke="none" stroke-width="1" fill="none" fill-rule="evenodd" sketch:type="MSPage">
        <g id="О-чемпионате-(дизайн)" sketch:type="MSArtboardGroup" transform="translate(-470.000000, -1469.000000)">
            <g id="3_block" sketch:type="MSLayerGroup" transform="translate(-1.000000, 1280.000000)">
                <g id="logos" transform="translate(471.000000, 184.000000)">
                    <g id="Coca-Cola" transform="translate(0.000000, 5.000000)">
                        <mask id="mask-2" sketch:name="Clip 2" fill="white">
                            <use xlink:href="#path-1"></use>
                        </mask>
                        <g id="Clip-2"></g>
                        <path d="M175.339904,7.70464615 C171.240577,11.5788923 166.419087,14.7222231 160.87976,15.5645077 C158.829231,15.789 156.169904,15.9582462 154.119808,15.2834538 C155.172548,13.7685692 156.500913,12.1962462 157.721538,10.7366077 C166.253365,11.8033846 173.787837,7.53627692 179.662067,1.75340769 L179.827788,1.80865385 C178.775481,3.99833077 177.003173,5.96395385 175.339904,7.70464615" id="Fill-1" fill="#D9252A" sketch:type="MSShapeGroup" mask="url(#mask-2)"></path>
                        <path d="M91.0674519,19.3265077 L90.568125,19.608 L86.1901442,19.4396308 C85.6925481,19.1020154 86.3017788,18.7095923 86.4116827,18.3167308 L88.4068269,15.0598385 L89.071875,14.8353462 L93.1725,14.9471538 C93.5048077,15.0598385 93.3382212,15.4527 93.2283173,15.6210692 L91.0674519,19.3265077" id="Fill-3" fill="#D9252A" sketch:type="MSShapeGroup" mask="url(#mask-2)"></path>
                        <path d="M77.270625,57 C73.3361538,54.7550769 69.1251923,53.2954385 64.6373077,53.0143846 C62.0883173,53.1257538 59.2628365,53.5186154 57.4900962,55.8214154 C57.2127404,56.1011538 56.9358173,56.7198231 56.4923077,56.4387692 C51.1182692,48.8020846 41.7539423,50.4866538 34.3851923,51.8906077 C28.2907212,53.2388769 21.808125,55.2593077 15.5470673,55.8766615 C10.1176442,56.3265231 4.41043269,54.4735846 1.64033654,49.4211923 C-1.51788462,43.0196538 0.421009615,35.0466692 2.96956731,29.0393077 C7.29173077,19.2703846 14.9927885,10.6800462 23.7474519,4.78536923 C27.9030288,2.3142 32.50125,0.0127153846 37.3772596,0.292892308 C38.5961538,0.518261538 39.8146154,1.13473846 40.5354808,2.3142 C41.9759135,5.06554615 40.4251442,8.09750769 38.7623077,10.1740615 C37.9315385,10.9045385 36.93375,11.6902615 35.7702404,11.2974 C35.3821154,11.1294692 35.1060577,10.7366077 34.9948558,10.3437462 C34.5513462,8.60305385 35.7702404,7.08685385 36.9895673,6.18844615 C37.5992308,5.79558462 38.43,5.68421538 39.0946154,5.68421538 C39.4827404,5.12166923 39.5376923,4.27982308 39.2053846,3.66203077 C38.3746154,2.37076154 36.8783654,2.59569231 35.7152885,2.82018462 C30.1742308,4.50431538 25.9078846,8.88323077 21.808125,13.3191462 C15.2701442,20.8979538 9.72995192,29.4330462 7.84600962,39.2585308 C7.29173077,43.3572692 7.56865385,47.7923077 10.7822596,50.5432154 C18.0406731,55.9893462 27.5707212,51.4981846 35.2722115,50.0937923 C46.1864423,47.6805 58.5982212,43.8628154 69.1251923,50.2634769 C72.1726442,52.0589769 74.998125,54.0807231 77.5479808,56.6637 C77.6029327,56.8886308 77.3809615,56.9434385 77.270625,57" id="Fill-4" fill="#D9252A" sketch:type="MSShapeGroup" mask="url(#mask-2)"></path>
                        <path d="M37.0449519,27.075 C37.0999038,26.8491923 37.3772596,26.5694538 37.0999038,26.3445231 C35.1060577,25.7837308 33.1109135,24.6603923 32.0581731,22.6952077 C32.0023558,22.4702769 31.78125,22.5272769 31.6704808,22.6386462 C29.6203846,25.5022385 27.7373077,28.3101462 26.5171154,31.5100385 C26.0744712,32.9696769 25.2432692,34.9353 26.4621635,36.3379385 C27.0164423,37.0131692 28.0691827,36.8439231 28.78875,36.6189923 C31.1162019,35.4404077 33.0001442,33.0266769 34.5513462,31.0058077 L37.0449519,27.075 L37.0449519,27.075 Z M39.4827404,22.2457846 C40.0361538,20.6182154 40.7570192,18.2036077 39.4827404,16.7439692 C38.5961538,16.0700538 37.1557212,16.4629154 36.3240865,17.0250231 C34.8845192,18.0918 33.3882692,19.8877385 33.8313462,21.9660462 C34.2744231,23.4256846 35.7152885,24.3227769 37.0449519,24.7156385 C37.4875962,24.7156385 37.9864904,25.0532538 38.3746154,24.7156385 L39.4827404,22.2457846 L39.4827404,22.2457846 Z M76.7717308,17.9791154 C76.6613942,17.5296923 76.3282212,17.0807077 75.8847115,16.9684615 C73.3919712,17.0807077 71.67375,19.4396308 70.1225481,21.1794462 C66.9089423,25.4456769 63.4184135,29.7141 61.9779808,34.8234923 C61.8118269,35.6087769 61.5902885,36.6755538 62.3656731,37.1802231 C62.6984135,37.4060308 63.196875,37.4060308 63.585,37.2933462 C66.0781731,35.9450769 67.4078365,33.4186615 68.9594712,31.2289846 C71.67375,26.8491923 74.2227404,22.4141538 76.7717308,17.9791154 L76.7717308,17.9791154 Z M72.1726442,35.4404077 C72.0614423,35.9450769 71.7291346,36.5076231 72.0614423,37.0131692 C72.2834135,37.5174 72.8926442,37.2933462 73.2807692,37.1802231 C76.5497596,35.3281615 78.8767788,31.6784077 81.1484135,28.6464462 C81.4257692,28.4215154 81.9791827,28.3662692 82.3110577,28.5894462 C82.5901442,28.9836231 82.1466346,29.3199231 82.035,29.6575385 C78.9871154,33.9246462 75.7739423,38.4162462 71.4522115,41.3916462 C70.1225481,42.2339308 68.4601442,43.0762154 66.8539904,42.5154231 C65.9115865,41.9528769 65.3019231,40.8861 65.4685096,39.7627615 L65.5792788,38.1347538 L65.3019231,38.1913154 C63.0307212,40.2687462 60.5925,43.1323385 57.2127404,42.4018615 C55.9380288,42.009 55.1630769,40.6611692 55.1068269,39.3703385 C54.9411058,37.6292077 55.5507692,36.1700077 55.8822115,34.6538077 L55.8276923,34.5985615 C52.1151923,38.0238231 47.6826923,42.9639692 42.1425,42.0655615 C40.7570192,41.7283846 39.6484615,40.6611692 38.9838462,39.3703385 C37.4875962,35.2163538 39.4827404,30.9488077 41.4220673,27.5796692 C41.8097596,27.075 42.0317308,26.5128923 42.2532692,26.0073462 L42.1974519,25.8951 C41.2005288,26.1765923 40.0919712,26.4563308 39.0946154,26.6255769 C37.1557212,29.6014154 35.4379327,32.8578692 32.9451923,35.4404077 C30.2858654,38.1913154 27.4037019,41.3355231 23.5812981,42.009 C22.2507692,42.2904923 20.9219712,41.8410692 19.9791346,40.8308538 C17.9848558,37.6292077 19.591875,33.4186615 20.8103365,30.3305769 C23.8024038,24.0430385 28.8999519,17.7541846 35.1060577,14.7787846 C36.7680288,14.1048692 38.7069231,13.5993231 40.4251442,14.6108538 C41.8655769,15.7328769 42.1974519,17.9225538 41.7539423,19.7763692 C41.4765865,21.5166231 40.6453846,23.0315077 40.0919712,24.6603923 C40.4251442,24.9971308 40.9231731,24.6042692 41.36625,24.5477077 C46.4637981,22.6386462 49.2901442,16.9123385 54.4980288,15.0037154 C55.9380288,14.3293615 58.1547115,14.1048692 59.5951442,14.9471538 C60.5925,15.5092615 61.2017308,16.6312846 61.2571154,17.7541846 C61.3129327,20.5050923 59.7063462,23.4813692 57.2127404,24.4920231 C56.548125,24.5477077 55.9380288,24.4359 55.6615385,23.8185462 C55.1630769,22.3589077 56.1046154,21.0110769 56.9916346,20.1122308 C57.65625,19.4396308 58.4870192,19.1585769 59.4848077,19.2138231 C59.8729327,18.8775231 59.7612981,18.3719769 59.7612981,17.9225538 C59.5951442,17.5296923 59.3736058,17.0250231 58.8747115,16.9123385 C57.7665865,16.6874077 56.548125,17.1368308 55.6615385,17.8673077 C50.7863942,21.6284308 47.295,27.2433692 45.2453365,32.9144308 C44.8018269,34.2057 44.6352404,36.0016385 45.3556731,37.2367846 C45.8545673,38.0238231 46.6299519,38.3596846 47.5723558,38.3596846 C49.2901442,38.2478769 50.7863942,37.0688538 52.0598077,36.1147615 C59.3177885,29.8259077 63.196875,20.2819154 71.5080288,15.3961385 C73.2253846,14.6669769 75.4416346,13.9921846 76.9932692,15.4527 C77.270625,15.7328769 77.4367788,16.2384231 77.8244712,16.1818615 C78.3233654,15.7328769 78.4337019,14.9471538 79.09875,14.7222231 L83.4209135,14.7222231 C83.8086058,14.6669769 83.8626923,15.1716462 83.7532212,15.4527 L72.1726442,35.4404077 L72.1726442,35.4404077 Z" id="Fill-5" fill="#D9252A" sketch:type="MSShapeGroup" mask="url(#mask-2)"></path>
                        <path d="M126.471202,7.53627692 C126.527019,6.8058 126.858894,5.57109231 126.194712,5.12166923 C121.041779,7.64808462 116.941154,12.3646154 114.503798,17.4731308 C114.004904,18.7095923 113.284471,20.5616538 114.392163,21.6849923 C114.835673,22.0212923 115.501154,22.0774154 116.055865,21.9660462 C118.161346,21.2908154 119.878702,19.4396308 121.373654,17.8673077 C124.089663,14.8905923 125.695385,11.3539615 126.471202,7.53627692 L126.471202,7.53627692 Z M148.744904,13.1499 C144.035048,10.6800462 139.658365,7.42315385 134.892692,5.29003846 C132.843462,4.56087692 130.406106,3.66203077 128.300625,4.33594615 L128.022837,4.61612308 C128.410529,8.322 126.970529,11.5788923 125.473846,14.6669769 C123.036058,18.4846615 120.099375,22.5272769 115.666875,23.5370538 C114.558317,23.5936154 113.505577,23.4256846 112.896346,22.3589077 C111.622067,20.1122308 112.840529,17.5862538 113.83875,15.5645077 C116.222019,10.8484154 120.486635,6.4695 125.141106,3.88696154 C125.363942,3.77383846 125.363942,3.54934615 125.196923,3.43753846 C123.590337,2.87543077 121.928365,3.32485385 120.542885,3.99833077 C112.233029,7.98438462 106.02649,15.4527 100.375529,22.8078923 C95.5540385,29.7697846 91.1773558,37.0688538 90.2358173,45.7153154 C90.0687981,48.1860462 90.7338462,50.7677077 92.8951442,52.0037308 C95.8313942,53.7435462 99.2115865,51.5543077 101.59399,49.5891231 C106.192644,45.4903846 109.683606,40.3253077 110.403173,34.1495769 C110.403173,33.0823615 110.45899,31.7915308 109.40625,31.2289846 C107.522308,30.7247538 105.804952,32.4650077 104.752212,33.9812077 C103.368029,35.8332692 102.425625,38.0238231 102.0375,40.3253077 C101.316635,40.9426615 100.320144,41.1110308 99.5992788,41.5600154 C97.9918269,42.5154231 96.6072115,43.8062538 95.3325,45.1540846 C95.1663462,45.2093308 94.9448077,45.2093308 94.9448077,45.0414 C95.2217308,42.4588615 96.0533654,39.9890077 97.1061058,37.6857692 C99.1553365,33.1389231 103.368029,29.0393077 108.242308,28.5894462 C109.461202,28.5346385 110.791298,29.1519923 111.345577,30.3305769 C112.508654,32.6899385 111.789087,35.8898308 111.068221,38.2478769 C108.353942,45.4342615 102.812885,52.3970308 95.8863462,55.7087308 C92.3958173,57.0565615 88.4626442,57.2810538 85.5809135,54.3609 C81.9233654,50.6559 82.2565385,44.3670462 83.8626923,39.8193231 C86.1901442,32.2405154 90.6793269,25.3908692 95.6656731,19.1020154 C102.25774,11.2974 110.127115,4.1667 119.822885,1.47235385 C122.204856,0.911123077 125.25274,0.741876923 127.080433,2.76362308 C128.244375,2.65181538 129.241298,2.03314615 130.350288,1.80865385 C134.616202,0.405576923 139.102788,1.41579231 142.816154,3.32485385 C146.251731,4.95373846 149.520721,6.97416923 152.789279,8.88323077 C151.570817,10.4555538 150.129952,11.8033846 148.744904,13.1499 L148.744904,13.1499 Z" id="Fill-6" fill="#D9252A" sketch:type="MSShapeGroup" mask="url(#mask-2)"></path>
                        <path d="M161.322404,31.7915308 C160.38,31.3986692 159.493413,31.9029 158.774279,32.4088846 C154.5075,35.7205846 151.681587,40.2121846 148.910192,44.7051 C147.969952,46.6137231 146.860962,48.6341538 146.916779,50.8242692 C146.972596,51.1614462 147.194135,51.5543077 147.52601,51.6665538 C148.85524,52.1721 149.909279,50.8242692 150.849952,50.0937923 C155.172548,44.8734692 158.108365,38.6977385 161.710096,33.0823615 C161.987452,32.6333769 161.654712,32.0712692 161.322404,31.7915308 L161.322404,31.7915308 Z M126.359567,41.5600154 C124.421538,40.7747308 122.371442,39.3703385 121.485288,37.2933462 L121.317837,37.2367846 C119.102452,40.0442538 117.106875,43.1875846 115.888413,46.5006 C115.556106,47.8484308 114.89149,49.5325615 115.778077,50.8242692 C116.166202,51.3298154 116.887067,51.5543077 117.550385,51.4416231 C119.989038,50.7124615 121.706394,48.4662231 123.368798,46.4457923 C124.365721,44.8169077 125.751202,43.4133923 126.359567,41.5600154 L126.359567,41.5600154 Z M129.463702,34.9353 C129.629423,33.5883462 129.906779,31.7915308 128.632067,30.9488077 C127.800865,30.6681923 126.748558,30.8926846 126.08351,31.3986692 C124.310337,32.4088846 122.925721,34.2609462 123.312981,36.5076231 C123.590337,37.9102615 124.752981,39.2019692 126.08351,39.8193231 C126.471202,39.9324462 126.914279,40.2687462 127.301971,39.9890077 C128.244375,38.4162462 128.964375,36.7321154 129.463702,34.9353 L129.463702,34.9353 Z M160.935144,43.8628154 C159.605048,46.1077385 158.053413,48.1860462 157.166394,50.6559 C157.112308,50.9926385 157.112308,51.4416231 157.277596,51.7231154 C157.609904,52.1155385 158.108365,52.0037308 158.440673,51.7783615 C161.710096,49.9258615 164.203269,46.1647385 166.419087,43.0196538 C166.75226,42.7947231 167.306538,42.7947231 167.583029,42.9078462 C167.859952,43.3011462 167.417308,43.7501308 167.251587,44.1429923 C163.815577,49.0278923 159.937356,54.6419538 154.285096,56.8316308 C153.39851,57.0565615 152.014327,57.1692462 151.293462,56.2142769 C150.296538,55.1475 150.572596,53.5747385 150.795865,52.2273462 L150.740048,52.1721 C148.744904,54.0807231 146.69524,56.1581538 144.146683,56.8316308 C143.037692,57.0565615 141.597692,56.8316308 140.82101,55.8214154 C139.769567,54.4170231 140.046058,52.3400308 140.267596,50.7124615 L140.101875,50.7677077 C137.995962,53.1257538 135.779712,55.5403615 132.954231,56.4940154 C131.679952,56.8886308 130.350288,56.3826462 129.518654,55.4285538 C127.857115,53.3506846 128.743702,50.3182846 129.297115,48.0163615 C129.795144,45.8271231 130.681731,43.7501308 131.347212,41.6165769 L131.12524,41.5034538 C130.0725,41.7849462 129.020192,41.7283846 127.911635,41.8967538 C124.808798,47.1749538 120.82024,53.0143846 115.223798,55.8766615 C113.949519,56.4940154 112.120962,57 110.735481,56.3265231 C108.796587,55.2593077 108.629567,53.0143846 108.852404,50.9926385 C109.295048,47.5121308 110.847115,44.4788538 112.508654,41.5034538 C115.72226,36.6189923 119.767067,31.3986692 125.196923,29.2085538 C126.471202,28.6464462 128.244375,28.3662692 129.629423,29.0393077 C131.403029,30.2753308 131.292692,32.4088846 131.014904,34.3740692 C130.571827,36.4510615 129.740625,38.3596846 128.798221,40.2121846 C128.909856,40.6611692 129.463702,40.4366769 129.795144,40.4366769 C130.571827,40.2687462 131.457981,40.1560615 132.178846,39.7075154 C138.660144,26.5694538 147.304904,13.5427615 159.438462,4.33594615 C161.48899,2.98855385 163.703942,1.41579231 166.364135,1.69684615 C166.862163,1.92177692 167.527212,2.37076154 167.638846,2.98855385 C168.082356,5.62765385 166.640625,7.70464615 165.533365,9.8382 C165.145673,10.0626923 164.758413,10.2306231 164.36899,10.0626923 C164.037548,9.8382 164.36899,9.50146154 164.424808,9.22040769 C165.20149,7.53627692 166.364135,5.90739231 166.253365,3.94352308 C166.087212,3.60590769 165.865673,3.43753846 165.533365,3.4941 C162.707452,4.44775385 160.989231,6.63786923 158.774279,8.65961538 C151.95851,15.4527 147.083365,23.7054231 142.206923,31.7915308 C141.431106,33.1941692 140.600337,34.4858769 140.046058,35.9450769 C141.155048,35.6087769 142.095288,34.5424385 143.09351,33.8680846 C149.298317,28.6464462 155.172548,22.5272769 160.214279,16.0700538 C160.547452,15.789 161.045048,15.7328769 161.48899,15.789 C161.821731,16.0700538 161.433173,16.4076692 161.322404,16.6312846 C154.839808,25.2781846 147.083365,33.1941692 138.439471,39.0340385 C136.887837,42.2904923 135.447404,45.6587538 134.838606,49.3085077 C134.726538,50.1503538 134.726538,50.9926385 135.225433,51.6099923 C135.55774,51.8906077 135.946731,52.1155385 136.444327,51.9471692 C139.215288,50.7677077 140.544519,47.7370615 142.372644,45.5469462 C146.141827,39.8193231 150.51851,33.3072923 156.556731,29.8824692 C157.88726,29.1519923 159.937356,28.7025692 161.322404,29.5448538 C161.876683,29.8824692 162.208125,30.4432615 162.763269,30.8926846 C163.649856,30.5002615 163.483269,28.9275 164.758413,29.1519923 L168.857308,29.2085538 C169.135529,29.2085538 169.135529,29.7141 169.023029,29.8824692 L160.935144,43.8628154 L160.935144,43.8628154 Z" id="Fill-7" fill="#D9252A" sketch:type="MSShapeGroup" mask="url(#mask-2)"></path>
                    </g>
                </g>
            </g>
        </g>
    </g>
</svg>