<?xml version="1.0" encoding="UTF-8" standalone="no"?>
<svg width="167px" height="49px" viewBox="0 0 167 49" version="1.1" xmlns="http://www.w3.org/2000/svg" xmlns:xlink="http://www.w3.org/1999/xlink" xmlns:sketch="http://www.bohemiancoding.com/sketch/ns">
    <!-- Generator: Sketch 3.2.2 (9983) - http://www.bohemiancoding.com/sketch -->
    <title>Imported Layers</title>
    <desc>Created with Sketch.</desc>
    <defs></defs>
    <g id="Page-1" stroke="none" stroke-width="1" fill="none" fill-rule="evenodd" sketch:type="MSPage">
        <g id="О-чемпионате-(дизайн)" sketch:type="MSArtboardGroup" transform="translate(-800.000000, -4116.000000)">
            <g id="4_block" sketch:type="MSLayerGroup" transform="translate(-1.000000, 3657.000000)">
                <g id="logos" transform="translate(477.000000, 121.000000)" sketch:type="MSShapeGroup">
                    <g id="3" transform="translate(324.000000, 327.000000)">
                        <g id="Imported-Layers" transform="translate(0.000000, 11.000000)">
                            <path d="M91.1065806,0.0965 L91.1065806,26.2959286 C91.1589677,27.7803929 91.3414194,29.2630357 91.6593548,30.7475 L88.9189677,30.7475 C88.5540645,29.9151071 87.9019355,27.8696429 87.7646452,26.7622143 C86.9914839,28.1574286 86.091871,29.2521071 85.0621935,29.9497143 C84.3594839,30.4305714 83.6007742,30.7438571 82.7824516,30.8968571 L82.7824516,29.12825 C84.1156129,29.0244286 85.2663226,28.274 86.2363871,26.9589286 C87.2805161,25.5345714 87.8061935,23.4581429 87.8061935,20.7187143 C87.8061935,18.1322857 87.2461935,16.0941071 86.128,14.6096429 C85.2139355,13.3856429 84.0993548,12.7353929 82.7824516,12.6570714 L82.7824516,10.8247143 C84.8996129,11.17625 86.7205161,12.8501429 87.7646452,14.6533571 L87.7646452,0.0928571429 L91.1065806,0.0965 L91.1065806,0.0965 Z M82.7824516,30.8968571 C82.3976774,30.9678929 81.9966452,31.0025 81.5829677,31.0025 C79.427871,31.0025 77.5852903,30.0881429 76.0642581,28.2630714 C74.5450323,26.4416429 73.7827097,23.9808929 73.7827097,20.981 C73.7827097,16.3600357 76.7741935,10.7573214 81.9713548,10.7573214 C82.2459355,10.7573214 82.5187097,10.7791786 82.7824516,10.8247143 L82.7824516,12.6570714 C82.6939355,12.6534286 82.6054194,12.6497857 82.5187097,12.6497857 C78.3403871,12.6497857 77.7587097,17.3891429 77.7587097,20.6003214 C77.7587097,23.7167857 78.195871,25.9626071 79.0738065,27.2321429 C79.9535484,28.5053214 81.0789677,29.1428214 82.4554839,29.1428214 C82.563871,29.1428214 82.6740645,29.1391786 82.7824516,29.12825 L82.7824516,30.8968571 L82.7824516,30.8968571 Z" id="Fill-1" fill="#1A1918"></path>
                            <path d="M9.67716129,10.9358214 C9.968,10.89575 10.2606452,10.8775357 10.564129,10.8775357 C12.7896774,10.8775357 14.6701935,11.7572857 16.2129032,13.5149643 C17.7538065,15.2726429 18.5233548,17.5876786 18.5233548,20.45825 C18.5233548,23.5747143 17.6941935,26.2176071 16.0394839,28.1282857 C14.3883871,30.04625 12.3308387,30.9988571 9.89032258,30.9988571 L9.67716129,30.9988571 L9.67716129,29.6728571 L9.78735484,29.6765 C11.1710968,29.6765 12.2784516,29.0499286 13.1148387,27.7949643 C14.1661935,26.2103214 14.691871,23.8351786 14.691871,20.9063214 C14.691871,18.0175357 14.2258065,15.9265357 13.308129,14.6242143 C12.3633548,13.3018571 11.0193548,12.668 9.67716129,12.6935 L9.67716129,10.9358214 L9.67716129,10.9358214 Z M4.72387097,0.0983214286 L4.72387097,14.2471786 C5.52232258,13.1160714 6.40748387,12.27275 7.38116129,11.7135714 C8.09290323,11.3055714 8.86245161,11.0451071 9.67716129,10.9358214 L9.67716129,12.6935 C8.35122581,12.7208214 7.03251613,13.3929286 6.1003871,14.6843214 C5.14116129,16.034 4.66425806,18.2415714 4.66425806,21.338 C4.66425806,24.2796071 5.13393548,26.5035714 6.08232258,27.7731071 C7.0036129,29.0116786 8.20670968,29.6437143 9.67716129,29.6728571 L9.67716129,30.9988571 C8.59870968,30.9715357 7.62141935,30.7438571 6.73264516,30.30125 C5.78245161,29.8440714 4.94967742,29.0681429 3.94709677,27.9607143 C3.73574194,28.7621429 3.37625806,30.2265714 3.12877419,30.7402143 L0.948387097,30.7402143 C1.31870968,29.1701429 1.344,26.5236071 1.344,25.6875714 L1.344,0.10925 L4.72387097,0.0983214286 L4.72387097,0.0983214286 Z" id="Fill-2" fill="#1A1918"></path>
                            <path d="M133.056,10.7045 C133.243871,11.5678571 133.399226,13.3728929 133.377548,14.4602857 C134.235613,13.0741786 135.236387,12.45125 136.394323,11.75 C137.548645,11.0596786 138.84929,10.7117857 140.307097,10.7117857 C141.566194,10.7117857 142.617548,10.9631429 143.468387,11.4585714 C144.319226,11.9521786 145.003871,12.7426786 145.515097,13.8173214 C146.029935,14.8956071 146.286452,16.1050357 146.286452,17.4346786 L146.286452,30.7402143 L142.984258,30.7402143 L142.984258,18.7588571 C142.984258,16.9829643 142.709677,15.6587857 142.173161,14.7990714 C140.496774,12.09425 136.746581,12.1671071 134.913032,14.4001786 C133.892387,15.6423929 133.377548,17.2525357 133.377548,19.2378929 L133.377548,30.722 L130.035613,30.7147143 L130.035613,14.4602857 C130.035613,13.8136786 129.856774,11.6898929 129.630968,10.7536786 L133.056,10.7045" id="Fill-3" fill="#1A1918"></path>
                            <path d="M158.183742,25.1648214 C160.506839,25.1648214 162.446968,25.9862857 164.031226,27.6055357 C165.635355,29.2484643 166.415742,31.2101429 166.415742,33.5361071 C166.415742,35.8383929 165.615484,37.8219286 164.005935,39.4411786 C162.380129,41.0604286 160.459871,41.8818929 158.183742,41.8818929 C155.954581,41.8818929 154.034323,41.0604286 152.430194,39.4411786 C150.824258,37.8219286 150.020387,35.8383929 150.020387,33.5361071 C150.020387,31.2101429 150.802581,29.2484643 152.408516,27.6055357 C153.992774,25.9862857 155.909419,25.1648214 158.183742,25.1648214" id="Fill-4" fill="#1EB1B1"></path>
                            <path d="M97.1076129,25.60925 C97.7850323,30.35225 106.177806,30.6892143 106.251871,25.7276429 C106.259097,25.1648214 106.121806,24.6712143 105.847226,24.2504643 C105.567226,23.82425 105.173419,23.6075 104.671226,23.3998571 C102.120516,22.3470714 99.0369032,22.5073571 96.5855484,21.1176071 C95.0229677,20.2415 94.1016774,18.5621429 94.1287742,16.748 C94.1757419,13.5076786 96.7445161,11.2545714 99.7576774,10.6680714 C102.79071,10.0742857 106.410839,11.4257857 107.839742,13.7991071 L105.440774,15.5094286 C104.174452,11.7991786 100.180387,10.5751786 97.2972903,13.2545 C96.020129,14.44025 95.7166452,16.3108571 97.1527742,17.4674643 C99.1633548,19.1431786 102.805161,18.7406429 105.218581,19.6805 C107.373677,20.48375 108.598452,22.31975 108.564129,24.6639286 C108.538839,26.3250714 107.875871,27.7330357 106.569806,28.8896429 C104.485161,30.7292857 100.483871,31.1955714 97.9403871,30.17375 C96.4229677,29.5653929 95.331871,28.4087857 94.5388387,27.0263214 L97.1076129,25.60925" id="Fill-5" fill="#1A1918"></path>
                            <path d="M118.922323,10.4586071 C121.409806,10.4731786 123.501677,11.4112143 125.199742,13.2872857 C126.910452,15.1688214 127.768516,17.6514286 127.768516,20.7369286 C127.768516,22.8661786 127.387355,24.6785 126.617806,26.1757143 C125.851871,27.6765714 124.760774,28.8586786 123.346323,29.7293214 C121.973419,30.5762857 120.499355,31.0097857 118.922323,31.0352857 L118.922323,29.5653929 C120.454194,29.5471786 121.695226,28.8331786 122.645419,27.4270357 C123.611871,26.0081429 124.094194,23.6785357 124.094194,20.4473214 C124.094194,17.4456071 123.619097,15.2744643 122.661677,13.9375357 C121.727742,12.6188214 120.48129,11.9448929 118.922323,11.9285 L118.922323,10.4586071 L118.922323,10.4586071 Z M118.859097,10.4586071 L118.922323,10.4586071 L118.922323,11.9285 L118.859097,11.9285 C117.366968,11.9285 116.145806,12.6279286 115.186581,14.0304286 C114.229161,15.4311071 113.746839,17.6441429 113.746839,20.6713571 C113.746839,23.7568571 114.225548,26.0081429 115.179355,27.4270357 C116.127742,28.8513929 117.359742,29.5653929 118.859097,29.5653929 L118.922323,29.5653929 L118.922323,31.0352857 L118.763355,31.0389286 C116.339097,31.0389286 114.286968,30.0808571 112.603355,28.1774643 C110.919742,26.2686071 110.074323,23.79875 110.074323,20.7569643 C110.074323,17.7024286 110.919742,15.2252857 112.610581,13.3146071 C114.299613,11.4112143 116.386065,10.4586071 118.859097,10.4586071 L118.859097,10.4586071 Z" id="Fill-6" fill="#1A1918"></path>
                            <path d="M127.103742,46.7724286 L127.103742,45.9728214 C127.195871,45.9801071 127.291613,45.9873929 127.392774,45.9873929 C127.643871,45.9873929 127.866065,45.9655357 128.061161,45.9236429 C128.254452,45.8835714 128.424258,45.8380357 128.565161,45.7833929 C128.709677,45.7342143 128.82529,45.6886786 128.917419,45.6486071 C129.009548,45.6067143 129.076387,45.5848571 129.125161,45.5848571 C129.150452,45.5848571 129.179355,45.5921429 129.195613,45.6067143 C129.21729,45.6212857 129.235355,45.6376786 129.246194,45.6668214 C129.260645,45.6959643 129.269677,45.7342143 129.27329,45.7833929 C129.276903,45.83075 129.284129,45.8908571 129.284129,45.9618929 C129.284129,46.0147143 129.280516,46.0584286 129.276903,46.0930357 C129.27329,46.1331071 129.269677,46.1640714 129.264258,46.1968571 C129.257032,46.226 129.246194,46.2496786 129.231742,46.2751786 C129.21729,46.3006786 129.199226,46.3207143 129.182968,46.3425714 C129.157677,46.3644286 129.094452,46.3990357 128.987871,46.4500357 C128.88671,46.4992143 128.747613,46.54475 128.579613,46.59575 C128.413419,46.6412857 128.218323,46.685 127.999742,46.7196071 C127.777548,46.7596786 127.540903,46.7760714 127.295226,46.7760714 L127.103742,46.7724286 L127.103742,46.7724286 Z M127.103742,44.0548571 L127.103742,43.3445 L128.532645,43.3445 C128.547097,42.8308571 128.435097,42.4301429 128.198452,42.1387143 C127.961806,41.8454643 127.613161,41.69975 127.147097,41.69975 L127.103742,41.69975 L127.103742,40.9383929 L127.188645,40.9383929 C127.602323,40.9383929 127.950968,41.0057857 128.243613,41.1423929 C128.532645,41.2735357 128.772903,41.4556786 128.960774,41.6833571 C129.150452,41.9073929 129.284129,42.1733214 129.372645,42.4756786 C129.461161,42.7816786 129.50271,43.1095357 129.50271,43.4537857 L129.50271,43.6322857 C129.50271,43.7852857 129.468387,43.8945714 129.39071,43.9601429 C129.316645,44.0238929 129.228129,44.0548571 129.132387,44.0548571 L127.103742,44.0548571 L127.103742,44.0548571 Z M127.103742,40.9383929 L127.103742,41.69975 C126.881548,41.7070357 126.688258,41.7543929 126.518452,41.8381786 C126.339613,41.9274286 126.189677,42.0494643 126.070452,42.1988214 C125.947613,42.3481786 125.855484,42.5212143 125.788645,42.7179286 C125.725419,42.9164643 125.685677,43.12775 125.678452,43.3445 L127.103742,43.3445 L127.103742,44.0548571 L125.678452,44.0548571 C125.678452,44.3499286 125.707355,44.6176786 125.763355,44.8526429 C125.822968,45.09125 125.922323,45.2897857 126.059613,45.461 C126.19329,45.6285714 126.373935,45.7597143 126.588903,45.8526071 C126.740645,45.9127143 126.910452,45.9509643 127.103742,45.9728214 L127.103742,46.7724286 C126.747871,46.7596786 126.433548,46.69775 126.155355,46.59575 C125.826581,46.4700714 125.555613,46.28975 125.333419,46.0511429 C125.111226,45.8088929 124.941419,45.5101786 124.829419,45.1477143 C124.715613,44.78525 124.659613,44.3645 124.659613,43.8854643 C124.659613,43.4301071 124.719226,43.0202857 124.834839,42.6541786 C124.952258,42.2917143 125.122065,41.9820714 125.340645,41.7288929 C125.562839,41.4720714 125.826581,41.2808214 126.140903,41.1423929 C126.429935,41.0167143 126.751484,40.9493214 127.103742,40.9383929 L127.103742,40.9383929 Z M121.24,48.8197143 L121.24,48.07475 L121.294194,48.07475 C121.586839,48.07475 121.828903,48.0474286 122.027613,47.9891429 C122.228129,47.9326786 122.383484,47.858 122.506323,47.7614643 C122.627355,47.66675 122.715871,47.5592857 122.764645,47.4390714 C122.817032,47.3133929 122.845935,47.1895357 122.845935,47.05475 C122.845935,46.8270714 122.753806,46.6522143 122.567742,46.5283571 C122.383484,46.4026786 122.128774,46.3352857 121.816258,46.328 L121.24,46.3079643 L121.24,45.5283929 L122.016774,45.5593571 C122.276903,45.5666429 122.517161,45.6067143 122.732129,45.6704643 C122.952516,45.7342143 123.142194,45.8271071 123.301161,45.9473214 C123.463742,46.0693571 123.586581,46.2150714 123.67871,46.3935714 C123.767226,46.5666071 123.812387,46.7706071 123.812387,47.0019286 C123.812387,47.246 123.76,47.4773214 123.660645,47.6977143 C123.557677,47.9181071 123.402323,48.1111786 123.194581,48.27875 C122.983226,48.4445 122.719484,48.5774643 122.394323,48.6758214 C122.069161,48.7687143 121.688,48.8197143 121.247226,48.8197143 L121.24,48.8197143 L121.24,48.8197143 Z M121.24,44.75975 L121.24,44.0093214 C121.435097,44.0093214 121.599484,43.9801786 121.738581,43.9164286 C121.879484,43.8563214 121.995097,43.7707143 122.087226,43.66325 C122.179355,43.5576071 122.246194,43.4319286 122.291355,43.2862143 C122.338323,43.1477857 122.358194,43.0020714 122.358194,42.8454286 C122.358194,42.4866071 122.260645,42.2024643 122.065548,41.9984643 C121.868645,41.7999286 121.592258,41.6961071 121.24,41.6961071 L121.24,40.9529643 C121.402581,40.9529643 121.55071,40.96025 121.688,40.9784643 C121.82529,40.9966786 121.957161,41.0203571 122.08,41.0531429 L123.671484,41.0531429 C123.738323,41.0531429 123.787097,41.0841071 123.819613,41.1496786 C123.855742,41.2134286 123.868387,41.3154286 123.868387,41.4483929 C123.868387,41.5868214 123.850323,41.6851786 123.816,41.7471071 C123.776258,41.8072143 123.727484,41.8381786 123.671484,41.8381786 L122.916387,41.8381786 C123.050065,41.9784286 123.149419,42.1350714 123.201806,42.3044643 C123.257806,42.4756786 123.283097,42.6578214 123.283097,42.8417857 C123.283097,43.1477857 123.237935,43.4191786 123.138581,43.6577857 C123.039226,43.8909286 122.901935,44.0912857 122.719484,44.2552143 C122.538839,44.4173214 122.323871,44.543 122.072774,44.6286071 C121.823484,44.7142143 121.543484,44.75975 121.24,44.75975 L121.24,44.75975 Z M121.24,40.9529643 L121.24,41.6961071 L121.221935,41.6961071 C121.035871,41.6961071 120.87329,41.7288929 120.736,41.789 C120.59871,41.85275 120.48129,41.9383571 120.389161,42.0494643 C120.298839,42.15875 120.232,42.2880714 120.185032,42.4301429 C120.139871,42.5758571 120.118194,42.7252143 120.118194,42.8818571 C120.118194,43.2333929 120.217548,43.5066071 120.410839,43.7069643 C120.609548,43.9091429 120.884129,44.0093214 121.24,44.0093214 L121.24,44.75975 C121.025032,44.75975 120.820903,44.7306071 120.629419,44.6705 C120.436129,44.6176786 120.288,44.543 120.181419,44.4573929 C120.114581,44.5284286 120.054968,44.60675 120.009806,44.6996429 C119.966452,44.7888929 119.941161,44.8945357 119.941161,45.0129286 C119.941161,45.1513571 120.006194,45.2642857 120.132645,45.3535357 C120.259097,45.4464286 120.428903,45.4956071 120.636645,45.5028929 L121.24,45.5283929 L121.24,46.3079643 L120.450581,46.2824643 C120.325935,46.379 120.224774,46.4737143 120.147097,46.5629643 C120.065806,46.6522143 120.002581,46.7341786 119.952,46.8161429 C119.906839,46.8981071 119.874323,46.9764286 119.858065,47.05475 C119.84,47.1330714 119.832774,47.2150357 119.832774,47.297 C119.832774,47.552 119.959226,47.7487143 120.217548,47.8762143 C120.463226,48.0037143 120.806452,48.0674643 121.24,48.07475 L121.24,48.8197143 C120.81729,48.8197143 120.457806,48.7796429 120.161548,48.7086071 C119.86529,48.6375714 119.617806,48.5373929 119.426323,48.4098929 C119.236645,48.2860357 119.099355,48.1366786 119.010839,47.9618214 C118.925935,47.7833214 118.882581,47.5957143 118.882581,47.3880714 C118.882581,47.2605714 118.897032,47.1330714 118.929548,47.0146786 C118.962065,46.8908214 119.007226,46.7760714 119.070452,46.6667857 C119.13729,46.5520357 119.218581,46.4500357 119.314323,46.3498571 C119.410065,46.2460357 119.518452,46.1513214 119.64129,46.0511429 C119.451613,45.9509643 119.314323,45.83075 119.218581,45.6813929 C119.126452,45.5320357 119.08129,45.3681071 119.08129,45.19325 C119.08129,44.9546429 119.130065,44.7415357 119.229419,44.5539286 C119.325161,44.3608571 119.448,44.1932857 119.592516,44.0439286 C119.469677,43.8982143 119.373935,43.7342857 119.303484,43.5539643 C119.233032,43.3681786 119.196903,43.1477857 119.196903,42.8891429 C119.196903,42.5867857 119.251097,42.31175 119.352258,42.0731429 C119.451613,41.8363571 119.592516,41.6323571 119.773161,41.4647857 C119.952,41.3026786 120.166968,41.1733571 120.418065,41.0841071 C120.669161,40.9966786 120.943742,40.9529643 121.24,40.9529643 L121.24,40.9529643 Z M115.546065,46.74875 L115.546065,46.0019643 C115.724903,45.9764643 115.89471,45.9163571 116.053677,45.8198214 C116.268645,45.6923214 116.498065,45.4919643 116.73471,45.2260357 L116.73471,44.0985714 L115.909161,44.0985714 C115.779097,44.0985714 115.658065,44.1022143 115.546065,44.1131429 L115.546065,43.4118929 C115.694194,43.4009643 115.849548,43.3936786 116.008516,43.3936786 L116.73471,43.3936786 L116.73471,42.9802143 C116.73471,42.7780357 116.713032,42.5958929 116.671484,42.4410714 C116.626323,42.2807857 116.557677,42.1514643 116.463742,42.0494643 C116.368,41.942 116.245161,41.8636786 116.093419,41.8108571 C115.94529,41.7616786 115.761032,41.7325357 115.546065,41.7325357 L115.546065,40.9383929 L115.616516,40.9383929 C115.994065,40.9383929 116.319226,40.98575 116.582968,41.0713571 C116.848516,41.1551429 117.063484,41.2844643 117.226065,41.4520357 C117.390452,41.6177857 117.511484,41.8254286 117.585548,42.0731429 C117.659613,42.3226786 117.693935,42.6104643 117.693935,42.9419643 L117.693935,46.5247143 C117.693935,46.57025 117.679484,46.6066786 117.648774,46.6267143 C117.616258,46.6522143 117.57471,46.6704286 117.522323,46.685 C117.464516,46.6941071 117.383226,46.7013929 117.282065,46.7013929 C117.179097,46.7013929 117.097806,46.6941071 117.038194,46.685 C116.978581,46.6704286 116.931613,46.6522143 116.904516,46.6267143 C116.875613,46.6066786 116.864774,46.57025 116.864774,46.5247143 L116.864774,45.9910357 C116.631742,46.23875 116.378839,46.4318214 116.093419,46.57025 C115.92,46.6558571 115.735742,46.7159643 115.546065,46.74875 L115.546065,46.74875 Z M115.546065,40.9383929 L115.546065,41.7325357 L115.531613,41.7325357 C115.287742,41.7325357 115.08,41.7616786 114.890323,41.8181429 C114.698839,41.8746071 114.532645,41.9383571 114.391742,42.00575 C114.247226,42.0731429 114.131613,42.1387143 114.032258,42.1951786 C113.936516,42.2516429 113.866065,42.2807857 113.820903,42.2807857 C113.788387,42.2807857 113.76129,42.2735 113.739613,42.2589286 C113.714323,42.2407143 113.692645,42.2170357 113.676387,42.18425 C113.661935,42.1551071 113.647484,42.1132143 113.636645,42.0640357 C113.629419,42.0166786 113.625806,41.9602143 113.625806,41.90375 C113.625806,41.8035714 113.633032,41.72525 113.647484,41.6687857 C113.661935,41.6123214 113.692645,41.5576786 113.746839,41.5048571 C113.799226,41.4556786 113.891355,41.39375 114.017806,41.3263571 C114.147871,41.2589643 114.296,41.1952143 114.462194,41.13875 C114.632,41.0804643 114.816258,41.0349286 115.013161,40.9966786 C115.190194,40.9638929 115.365419,40.9420357 115.546065,40.9383929 L115.546065,40.9383929 Z M115.546065,43.4118929 L115.546065,44.1131429 C115.428645,44.12225 115.320258,44.1404643 115.21729,44.1659643 C115.024,44.2115 114.861419,44.27525 114.734968,44.3645 C114.603097,44.45375 114.509161,44.5612143 114.447742,44.6850714 C114.388129,44.8089286 114.361032,44.9528214 114.361032,45.1112857 C114.361032,45.3899643 114.444129,45.6067143 114.617548,45.7706429 C114.794581,45.9345714 115.038452,46.0147143 115.347355,46.0147143 C115.416,46.0147143 115.482839,46.0110714 115.546065,46.0019643 L115.546065,46.74875 C115.432258,46.7669643 115.316645,46.7760714 115.195613,46.7760714 C114.917419,46.7760714 114.668129,46.7414643 114.442323,46.6667857 C114.220129,46.59575 114.028645,46.4882857 113.869677,46.3535 C113.71071,46.2150714 113.587871,46.0438571 113.499355,45.8453214 C113.414452,45.6413214 113.36929,45.4136429 113.36929,45.1622857 C113.36929,44.8599286 113.428903,44.6031071 113.548129,44.3790714 C113.672774,44.1623214 113.844387,43.9765357 114.070194,43.8308214 C114.296,43.6851071 114.576,43.5758214 114.902968,43.5047857 C115.101677,43.4610714 115.316645,43.4301071 115.546065,43.4118929 L115.546065,43.4118929 Z M107.144258,48.8197143 L107.144258,48.07475 L107.202065,48.07475 C107.49471,48.07475 107.738581,48.0474286 107.935484,47.9891429 C108.132387,47.9326786 108.291355,47.858 108.416,47.7614643 C108.535226,47.66675 108.620129,47.5592857 108.672516,47.4390714 C108.724903,47.3133929 108.753806,47.1895357 108.753806,47.05475 C108.753806,46.8270714 108.658065,46.6522143 108.475613,46.5283571 C108.291355,46.4026786 108.038452,46.3352857 107.724129,46.328 L107.144258,46.3079643 L107.144258,45.5283929 L107.921032,45.5593571 C108.182968,45.5666429 108.421419,45.6067143 108.641806,45.6704643 C108.860387,45.7342143 109.050065,45.8271071 109.209032,45.9473214 C109.368,46.0693571 109.494452,46.2150714 109.582968,46.3935714 C109.675097,46.5666071 109.716645,46.7706071 109.716645,47.0019286 C109.716645,47.246 109.667871,47.4773214 109.564903,47.6977143 C109.463742,47.9181071 109.308387,48.1111786 109.098839,48.27875 C108.891097,48.4445 108.627355,48.5774643 108.302194,48.6758214 C107.977032,48.7687143 107.595871,48.8197143 107.155097,48.8197143 L107.144258,48.8197143 L107.144258,48.8197143 Z M107.144258,44.75975 L107.144258,44.0093214 L107.147871,44.0093214 C107.342968,44.0093214 107.509161,43.9801786 107.646452,43.9164286 C107.787355,43.8563214 107.902968,43.7707143 107.995097,43.66325 C108.087226,43.5576071 108.154065,43.4319286 108.199226,43.2862143 C108.242581,43.1477857 108.267871,43.0020714 108.267871,42.8454286 C108.267871,42.4866071 108.168516,42.2024643 107.969806,41.9984643 C107.776516,41.7999286 107.501935,41.6961071 107.144258,41.6961071 L107.144258,40.9529643 L107.147871,40.9529643 C107.306839,40.9529643 107.458581,40.96025 107.595871,40.9784643 C107.734968,40.9966786 107.865032,41.0203571 107.984258,41.0531429 L109.579355,41.0531429 C109.642581,41.0531429 109.693161,41.0841071 109.727484,41.1496786 C109.76,41.2134286 109.776258,41.3154286 109.776258,41.4483929 C109.776258,41.5868214 109.76,41.6851786 109.720258,41.7471071 C109.685935,41.8072143 109.635355,41.8381786 109.579355,41.8381786 L108.824258,41.8381786 C108.957935,41.9784286 109.053677,42.1350714 109.109677,42.3044643 C109.163871,42.4756786 109.190968,42.6578214 109.190968,42.8417857 C109.190968,43.1477857 109.142194,43.4191786 109.042839,43.6577857 C108.947097,43.8909286 108.809806,44.0912857 108.627355,44.2552143 C108.44671,44.4173214 108.231742,44.543 107.980645,44.6286071 C107.731355,44.7142143 107.451355,44.75975 107.147871,44.75975 L107.144258,44.75975 L107.144258,44.75975 Z M107.144258,40.9529643 L107.144258,41.6961071 L107.131613,41.6961071 C106.943742,41.6961071 106.781161,41.7288929 106.643871,41.789 C106.502968,41.85275 106.389161,41.9383571 106.298839,42.0494643 C106.20671,42.15875 106.139871,42.2880714 106.092903,42.4301429 C106.047742,42.5758571 106.022452,42.7252143 106.022452,42.8818571 C106.022452,43.2333929 106.125419,43.5066071 106.31871,43.7069643 C106.517419,43.9091429 106.792,44.0093214 107.144258,44.0093214 L107.144258,44.75975 C106.932903,44.75975 106.728774,44.7306071 106.539097,44.6705 C106.344,44.6176786 106.192258,44.543 106.091097,44.4573929 C106.018839,44.5284286 105.962839,44.60675 105.917677,44.6996429 C105.87071,44.7888929 105.850839,44.8945357 105.850839,45.0129286 C105.850839,45.1513571 105.914065,45.2642857 106.040516,45.3535357 C106.166968,45.4464286 106.336774,45.4956071 106.544516,45.5028929 L107.144258,45.5283929 L107.144258,46.3079643 L106.358452,46.2824643 C106.235613,46.379 106.132645,46.4737143 106.051355,46.5629643 C105.973677,46.6522143 105.906839,46.7341786 105.861677,46.8161429 C105.81471,46.8981071 105.784,46.9764286 105.765935,47.05475 C105.747871,47.1330714 105.737032,47.2150357 105.737032,47.297 C105.737032,47.552 105.867097,47.7487143 106.125419,47.8762143 C106.372903,48.0037143 106.71071,48.0674643 107.144258,48.07475 L107.144258,48.8197143 C106.725161,48.8197143 106.365677,48.7796429 106.069419,48.7086071 C105.769548,48.6375714 105.525677,48.5373929 105.334194,48.4098929 C105.144516,48.2860357 105.003613,48.1366786 104.91871,47.9618214 C104.833806,47.7833214 104.788645,47.5957143 104.788645,47.3880714 C104.788645,47.2605714 104.80671,47.1330714 104.837419,47.0146786 C104.866323,46.8908214 104.915097,46.7760714 104.978323,46.6667857 C105.045161,46.5520357 105.126452,46.4500357 105.222194,46.3498571 C105.314323,46.2460357 105.426323,46.1513214 105.550968,46.0511429 C105.359484,45.9509643 105.218581,45.83075 105.126452,45.6813929 C105.034323,45.5320357 104.989161,45.3681071 104.989161,45.19325 C104.989161,44.9546429 105.037935,44.7415357 105.133677,44.5539286 C105.233032,44.3608571 105.355871,44.1932857 105.496774,44.0439286 C105.377548,43.8982143 105.281806,43.7342857 105.211355,43.5539643 C105.140903,43.3681786 105.106581,43.1477857 105.106581,42.8891429 C105.106581,42.5867857 105.158968,42.31175 105.258323,42.0731429 C105.359484,41.8363571 105.500387,41.6323571 105.681032,41.4647857 C105.858065,41.3026786 106.073032,41.1733571 106.325935,41.0841071 C106.577032,40.9966786 106.851613,40.9529643 107.144258,40.9529643 L107.144258,40.9529643 Z M92.1362581,46.7560357 L92.1362581,45.9400357 C92.2211613,45.9309286 92.3024516,45.9163571 92.380129,45.8908571 C92.4993548,45.85625 92.6221935,45.7943214 92.7468387,45.7123571 C92.8696774,45.6322143 93.0033548,45.52475 93.1388387,45.3936071 C93.276129,45.2606429 93.4206452,45.1003571 93.5723871,44.9054643 L93.5723871,42.7816786 C93.3104516,42.4538214 93.0575484,42.2061071 92.8136774,42.0348929 C92.5950968,41.8818929 92.3692903,41.7962857 92.1362581,41.7817143 L92.1362581,40.9456786 C92.380129,40.9675357 92.6059355,41.0312857 92.8136774,41.1423929 C93.0665806,41.2808214 93.3212903,41.4793571 93.5723871,41.7434643 L93.5723871,38.6543214 C93.5723871,38.6306429 93.5796129,38.6015 93.5922581,38.576 C93.6067097,38.5523214 93.632,38.5304643 93.6699355,38.5195357 C93.7096774,38.5049643 93.7584516,38.4922143 93.8180645,38.4812857 C93.8794839,38.474 93.9571613,38.4667143 94.0510968,38.4667143 C94.1504516,38.4667143 94.228129,38.474 94.2913548,38.4812857 C94.3509677,38.4922143 94.4051613,38.5049643 94.435871,38.5195357 C94.472,38.5304643 94.5009032,38.5523214 94.5171613,38.576 C94.5352258,38.6015 94.5424516,38.6306429 94.5424516,38.6543214 L94.5424516,46.5174286 C94.5424516,46.5483929 94.5388387,46.5775357 94.5243871,46.5993929 C94.5099355,46.6230714 94.4864516,46.6412857 94.4539355,46.6558571 C94.4196129,46.6704286 94.3762581,46.6813571 94.3202581,46.6886429 C94.2642581,46.69775 94.1992258,46.7013929 94.1215484,46.7013929 C94.0420645,46.7013929 93.9716129,46.69775 93.9174194,46.6886429 C93.8614194,46.6813571 93.8180645,46.6704286 93.780129,46.6558571 C93.7476129,46.6412857 93.7205161,46.6230714 93.7060645,46.5993929 C93.688,46.5775357 93.6807742,46.5483929 93.6807742,46.5174286 L93.6807742,45.8161786 C93.4061935,46.1185357 93.1171613,46.3535 92.8209032,46.5247143 C92.6059355,46.6449286 92.3765161,46.72325 92.1362581,46.7560357 L92.1362581,46.7560357 Z M97.2936774,46.5174286 C97.2936774,46.5483929 97.2864516,46.5775357 97.2701935,46.59575 C97.2557419,46.6194286 97.2268387,46.6376429 97.196129,46.6522143 C97.1563871,46.6704286 97.1112258,46.6813571 97.048,46.6886429 C96.9829677,46.69775 96.9034839,46.7013929 96.8077419,46.7013929 C96.7156129,46.7013929 96.6379355,46.69775 96.5710968,46.6886429 C96.5114839,46.6813571 96.4609032,46.6704286 96.4229677,46.6522143 C96.3868387,46.6376429 96.3597419,46.6194286 96.3489032,46.59575 C96.3344516,46.5775357 96.3272258,46.5483929 96.3272258,46.5174286 L96.3272258,41.2061429 C96.3272258,41.177 96.3344516,41.1533214 96.3489032,41.1278214 C96.3597419,41.1059643 96.3868387,41.0841071 96.4229677,41.0713571 C96.4609032,41.0567857 96.5114839,41.0422143 96.5710968,41.0349286 C96.6379355,41.0276429 96.7156129,41.024 96.8077419,41.024 C96.9034839,41.024 96.9829677,41.0276429 97.048,41.0349286 C97.1112258,41.0422143 97.1563871,41.0567857 97.196129,41.0713571 C97.2268387,41.0841071 97.2557419,41.1059643 97.2701935,41.1278214 C97.2864516,41.1533214 97.2936774,41.177 97.2936774,41.2061429 L97.2936774,46.5174286 L97.2936774,46.5174286 Z M97.403871,39.4083929 C97.403871,39.6397143 97.3605161,39.7963571 97.2774194,39.8783214 C97.1889032,39.9602857 97.0335484,40.0003571 96.804129,40.0003571 C96.5747097,40.0003571 96.4193548,39.9602857 96.3380645,39.8783214 C96.2531613,39.8 96.2116129,39.647 96.2116129,39.4229643 C96.2116129,39.1952857 96.2531613,39.0386429 96.3380645,38.9566786 C96.4229677,38.8765357 96.5819355,38.8328214 96.8113548,38.8328214 C97.0407742,38.8328214 97.196129,38.8728929 97.2774194,38.9530357 C97.3605161,39.035 97.403871,39.188 97.403871,39.4083929 L97.403871,39.4083929 Z M103.612645,46.5174286 C103.612645,46.5483929 103.605419,46.5775357 103.592774,46.59575 C103.57471,46.6194286 103.549419,46.6376429 103.515097,46.6522143 C103.478968,46.6704286 103.430194,46.6813571 103.370581,46.6886429 C103.305548,46.69775 103.227871,46.7013929 103.137548,46.7013929 C103.038194,46.7013929 102.956903,46.69775 102.893677,46.6886429 C102.834065,46.6813571 102.783484,46.6704286 102.749161,46.6522143 C102.713032,46.6376429 102.689548,46.6194286 102.671484,46.59575 C102.657032,46.5775357 102.646194,46.5483929 102.646194,46.5174286 L102.646194,43.40825 C102.646194,43.10225 102.624516,42.86 102.579355,42.6742143 C102.534194,42.49025 102.463742,42.3336071 102.375226,42.1988214 C102.283097,42.0640357 102.171097,41.9602143 102.026581,41.8928214 C101.883871,41.8217857 101.719484,41.7853571 101.531613,41.7853571 C101.291355,41.7853571 101.047484,41.8709643 100.805419,42.0458214 C100.561548,42.2170357 100.306839,42.4720357 100.04671,42.8071786 L100.04671,46.5174286 C100.04671,46.5483929 100.035871,46.5775357 100.021419,46.59575 C100.003355,46.6194286 99.979871,46.6376429 99.9437419,46.6522143 C99.9094194,46.6704286 99.8588387,46.6813571 99.7992258,46.6886429 C99.736,46.69775 99.6547097,46.7013929 99.5553548,46.7013929 C99.4632258,46.7013929 99.3873548,46.69775 99.3223226,46.6886429 C99.2627097,46.6813571 99.2103226,46.6704286 99.1741935,46.6522143 C99.139871,46.6376429 99.1109677,46.6194286 99.100129,46.59575 C99.0874839,46.5775357 99.0802581,46.5483929 99.0802581,46.5174286 L99.0802581,41.2061429 C99.0802581,41.1733571 99.083871,41.1496786 99.0965161,41.1241786 C99.1073548,41.1059643 99.1326452,41.0841071 99.1669677,41.0677143 C99.2030968,41.0495 99.2446452,41.0385714 99.3024516,41.0312857 C99.3548387,41.0276429 99.4289032,41.024 99.5174194,41.024 C99.6023226,41.024 99.6763871,41.0276429 99.7323871,41.0312857 C99.7883871,41.0385714 99.8317419,41.0495 99.8624516,41.0677143 C99.8949677,41.0841071 99.9148387,41.1059643 99.9292903,41.1241786 C99.9437419,41.1496786 99.9509677,41.1733571 99.9509677,41.2061429 L99.9509677,41.9110357 C100.247226,41.5758929 100.543484,41.33 100.839742,41.1733571 C101.132387,41.0167143 101.428645,40.9383929 101.728516,40.9383929 C102.082581,40.9383929 102.375226,41.0003214 102.615484,41.1205357 C102.853935,41.24075 103.052645,41.4010357 103.200774,41.6013929 C103.348903,41.8035714 103.455484,42.0385357 103.51871,42.3044643 C103.581935,42.5758571 103.612645,42.9000714 103.612645,43.2771071 L103.612645,46.5174286 L103.612645,46.5174286 Z M92.1362581,40.9456786 L92.1362581,41.7817143 L92.0513548,41.7780714 C91.803871,41.7780714 91.5925161,41.8381786 91.4227097,41.9565714 C91.2547097,42.0731429 91.1138065,42.2297857 91.0036129,42.4228571 C90.8970323,42.6141071 90.8193548,42.8345 90.7705806,43.07675 C90.7218065,43.3226429 90.6965161,43.5685357 90.6965161,43.8198929 C90.6965161,44.0876429 90.7181935,44.3499286 90.7597419,44.60675 C90.7994839,44.8599286 90.8735484,45.0876071 90.9710968,45.2861429 C91.0740645,45.4846786 91.2077419,45.6449643 91.3775484,45.7633571 C91.5437419,45.8835714 91.7550968,45.9436786 92.0098065,45.9436786 C92.0513548,45.9436786 92.0929032,45.9436786 92.1362581,45.9400357 L92.1362581,46.7560357 C92.0369032,46.7706071 91.9411613,46.7760714 91.84,46.7760714 C91.4516129,46.7760714 91.1228387,46.7013929 90.8482581,46.5483929 C90.5772903,46.3990357 90.3550968,46.1932143 90.1852903,45.9345714 C90.0154839,45.67775 89.8926452,45.3753929 89.8149677,45.0275 C89.7372903,44.6777857 89.6975484,44.3116786 89.6975484,43.9273571 C89.6975484,43.4683571 89.748129,43.0548929 89.8420645,42.6887857 C89.9414194,42.3226786 90.0859355,42.00575 90.2774194,41.75075 C90.4670968,41.4902857 90.7037419,41.29175 90.9855484,41.1496786 C91.2709677,41.0094286 91.596129,40.9383929 91.9664516,40.9383929 C92.0224516,40.9383929 92.0802581,40.9420357 92.1362581,40.9456786 L92.1362581,40.9456786 Z M79.8126452,46.74875 L79.8126452,46.0019643 C79.9914839,45.9764643 80.1576774,45.9163571 80.3202581,45.8198214 C80.5352258,45.6923214 80.7610323,45.4919643 81.0012903,45.2260357 L81.0012903,44.0985714 L80.1757419,44.0985714 C80.043871,44.0985714 79.9246452,44.1022143 79.8126452,44.1131429 L79.8126452,43.4118929 C79.9607742,43.4009643 80.116129,43.3936786 80.2732903,43.3936786 L81.0012903,43.3936786 L81.0012903,42.9802143 C81.0012903,42.7780357 80.976,42.5958929 80.9380645,42.4410714 C80.8910968,42.2807857 80.8242581,42.1514643 80.7285161,42.0494643 C80.6309677,41.942 80.5063226,41.8636786 80.3545806,41.8108571 C80.2064516,41.7616786 80.0276129,41.7325357 79.8126452,41.7325357 L79.8126452,40.9383929 L79.8830968,40.9383929 C80.2606452,40.9383929 80.5803871,40.98575 80.8495484,41.0713571 C81.1132903,41.1551429 81.3282581,41.2844643 81.4908387,41.4520357 C81.6534194,41.6177857 81.7744516,41.8254286 81.8485161,42.0731429 C81.9225806,42.3226786 81.9605161,42.6104643 81.9605161,42.9419643 L81.9605161,46.5247143 C81.9605161,46.57025 81.9460645,46.6066786 81.9117419,46.6267143 C81.8828387,46.6522143 81.8376774,46.6704286 81.7834839,46.685 C81.7274839,46.6941071 81.6498065,46.7013929 81.5450323,46.7013929 C81.4420645,46.7013929 81.3607742,46.6941071 81.3011613,46.685 C81.2415484,46.6704286 81.1981935,46.6522143 81.1710968,46.6267143 C81.1421935,46.6066786 81.1277419,46.57025 81.1277419,46.5247143 L81.1277419,45.9910357 C80.8983226,46.23875 80.6418065,46.4318214 80.3581935,46.57025 C80.1829677,46.6558571 80.0023226,46.7159643 79.8126452,46.74875 L79.8126452,46.74875 Z M88.2686452,46.5174286 C88.2686452,46.5483929 88.2614194,46.5775357 88.2451613,46.59575 C88.2307097,46.6194286 88.2054194,46.6376429 88.1710968,46.6522143 C88.1349677,46.6704286 88.0861935,46.6813571 88.0247742,46.6886429 C87.9615484,46.69775 87.8802581,46.7013929 87.7899355,46.7013929 C87.6941935,46.7013929 87.6129032,46.69775 87.5496774,46.6886429 C87.4864516,46.6813571 87.4394839,46.6704286 87.4051613,46.6522143 C87.3690323,46.6376429 87.3455484,46.6194286 87.3274839,46.59575 C87.3130323,46.5775357 87.3021935,46.5483929 87.3021935,46.5174286 L87.3021935,43.40825 C87.3021935,43.10225 87.2805161,42.86 87.2317419,42.6742143 C87.1865806,42.49025 87.1197419,42.3336071 87.0312258,42.1988214 C86.9390968,42.0640357 86.8216774,41.9602143 86.6807742,41.8928214 C86.5362581,41.8217857 86.3736774,41.7853571 86.1876129,41.7853571 C85.9437419,41.7853571 85.7034839,41.8709643 85.4614194,42.0458214 C85.2175484,42.2170357 84.9628387,42.4720357 84.6990968,42.8071786 L84.6990968,46.5174286 C84.6990968,46.5483929 84.691871,46.5775357 84.6774194,46.59575 C84.6593548,46.6194286 84.635871,46.6376429 84.5997419,46.6522143 C84.5636129,46.6704286 84.5148387,46.6813571 84.4552258,46.6886429 C84.392,46.69775 84.3107097,46.7013929 84.2113548,46.7013929 C84.1192258,46.7013929 84.0415484,46.69775 83.9783226,46.6886429 C83.9150968,46.6813571 83.8663226,46.6704286 83.8301935,46.6522143 C83.7922581,46.6376429 83.7669677,46.6194286 83.756129,46.59575 C83.7416774,46.5775357 83.7326452,46.5483929 83.7326452,46.5174286 L83.7326452,41.2061429 C83.7326452,41.1733571 83.7380645,41.1496786 83.7489032,41.1241786 C83.7633548,41.1059643 83.7886452,41.0841071 83.8193548,41.0677143 C83.8554839,41.0495 83.9006452,41.0385714 83.9584516,41.0312857 C84.0108387,41.0276429 84.0812903,41.024 84.1734194,41.024 C84.2583226,41.024 84.3323871,41.0276429 84.3883871,41.0312857 C84.4407742,41.0385714 84.4877419,41.0495 84.5184516,41.0677143 C84.5473548,41.0841071 84.5708387,41.1059643 84.5852903,41.1241786 C84.596129,41.1496786 84.6069677,41.1733571 84.6069677,41.2061429 L84.6069677,41.9110357 C84.8996129,41.5758929 85.195871,41.33 85.492129,41.1733571 C85.7847742,41.0167143 86.0846452,40.9383929 86.3845161,40.9383929 C86.7349677,40.9383929 87.0312258,41.0003214 87.2696774,41.1205357 C87.5099355,41.24075 87.7086452,41.4010357 87.8567742,41.6013929 C88.0012903,41.8035714 88.1060645,42.0385357 88.1710968,42.3044643 C88.2379355,42.5758571 88.2686452,42.9000714 88.2686452,43.2771071 L88.2686452,46.5174286 L88.2686452,46.5174286 Z M72.6067097,43.7889286 C72.6067097,44.2515714 72.5579355,44.6632143 72.4549677,45.0329643 C72.3610323,45.4045357 72.2129032,45.7123571 72.0178065,45.9728214 C71.828129,46.2332857 71.587871,46.4318214 71.3096774,46.57025 C71.0260645,46.7050357 70.7063226,46.7760714 70.3414194,46.7760714 C70.2781935,46.7760714 70.2149677,46.7760714 70.1589677,46.7706071 L70.1589677,45.9363929 L70.2402581,45.9400357 C70.4859355,45.9400357 70.691871,45.8799286 70.8652903,45.7633571 C71.0332903,45.6413214 71.1741935,45.4883214 71.2807742,45.2934286 C71.3873548,45.0985357 71.4668387,44.8799643 71.5174194,44.6395357 C71.5625806,44.3972857 71.587871,44.1513929 71.587871,43.9018571 C71.587871,43.6322857 71.5661935,43.3681786 71.5282581,43.1131786 C71.4849032,42.8563571 71.4144516,42.6286786 71.3150968,42.4337857 C71.2139355,42.2370714 71.0766452,42.0767857 70.9104516,41.9602143 C70.7406452,41.8381786 70.5329032,41.7780714 70.2818065,41.7780714 C70.2402581,41.7780714 70.1969032,41.7780714 70.1589677,41.7853571 L70.1589677,40.9638929 C70.2619355,40.9493214 70.3667097,40.9383929 70.4769032,40.9383929 C70.8580645,40.9383929 71.1850323,41.0167143 71.4578065,41.1697143 C71.7287742,41.3227143 71.9473548,41.5303571 72.1171613,41.789 C72.2869677,42.0458214 72.4098065,42.3481786 72.4874839,42.6924286 C72.5687742,43.0385 72.6067097,43.4046071 72.6067097,43.7889286 L72.6067097,43.7889286 Z M79.8126452,40.9383929 L79.8126452,41.7325357 L79.7945806,41.7325357 C79.5543226,41.7325357 79.3429677,41.7616786 79.1550968,41.8181429 C78.9654194,41.8746071 78.7992258,41.9383571 78.6547097,42.00575 C78.5138065,42.0731429 78.3927742,42.1387143 78.2988387,42.1951786 C78.2030968,42.2516429 78.1326452,42.2807857 78.0874839,42.2807857 C78.0549677,42.2807857 78.0260645,42.2735 78.0025806,42.2589286 C77.9772903,42.2407143 77.9592258,42.2170357 77.9411613,42.18425 C77.9249032,42.1551071 77.9104516,42.1132143 77.9032258,42.0640357 C77.896,42.0166786 77.8887742,41.9602143 77.8887742,41.90375 C77.8887742,41.8035714 77.8996129,41.72525 77.9140645,41.6687857 C77.9285161,41.6123214 77.9592258,41.5576786 78.0116129,41.5048571 C78.0658065,41.4556786 78.1543226,41.39375 78.2843871,41.3263571 C78.4108387,41.2589643 78.5589677,41.1952143 78.7287742,41.13875 C78.8949677,41.0804643 79.0774194,41.0349286 79.2797419,40.9966786 C79.4549677,40.9638929 79.632,40.9420357 79.8126452,40.9383929 L79.8126452,40.9383929 Z M79.8126452,43.4118929 L79.8126452,44.1131429 C79.6916129,44.12225 79.5832258,44.1404643 79.483871,44.1659643 C79.2905806,44.2115 79.128,44.27525 78.996129,44.3645 C78.8696774,44.45375 78.7739355,44.5612143 78.7143226,44.6850714 C78.6547097,44.8089286 78.6221935,44.9528214 78.6221935,45.1112857 C78.6221935,45.3899643 78.7107097,45.6067143 78.884129,45.7706429 C79.0575484,45.9345714 79.2996129,46.0147143 79.6139355,46.0147143 C79.6807742,46.0147143 79.7476129,46.0110714 79.8126452,46.0019643 L79.8126452,46.74875 C79.6988387,46.7669643 79.5796129,46.7760714 79.4621935,46.7760714 C79.184,46.7760714 78.9329032,46.7414643 78.7070968,46.6667857 C78.4849032,46.59575 78.2916129,46.4882857 78.1362581,46.3535 C77.9772903,46.2150714 77.8544516,46.0438571 77.7659355,45.8453214 C77.6810323,45.6413214 77.635871,45.4136429 77.635871,45.1622857 C77.635871,44.8599286 77.6954839,44.6031071 77.8147097,44.3790714 C77.9375484,44.1623214 78.1109677,43.9765357 78.3367742,43.8308214 C78.5625806,43.6851071 78.8407742,43.5758214 79.1659355,43.5047857 C79.3664516,43.4610714 79.5832258,43.4301071 79.8126452,43.4118929 L79.8126452,43.4118929 Z M77.1372903,41.5540357 C77.1372903,41.6396429 77.1336774,41.7143214 77.1300645,41.7707857 C77.1264516,41.8327143 77.1156129,41.87825 77.1101935,41.9110357 C77.0957419,41.9456429 77.0812903,41.9711429 77.0632258,41.9893571 C77.0451613,42.00575 77.0216774,42.0130357 76.9891613,42.0130357 C76.9584516,42.0130357 76.9187097,42.00575 76.8771613,41.9893571 C76.8301935,41.9711429 76.7814194,41.9529286 76.7254194,41.9347143 C76.664,41.9165 76.6043871,41.9001071 76.5339355,41.8855357 C76.4634839,41.8673214 76.3858065,41.8600357 76.3045161,41.8600357 C76.2051613,41.8600357 76.1148387,41.8818929 76.0190968,41.9201429 C75.9233548,41.9602143 75.8258065,42.0239643 75.7228387,42.1132143 C75.619871,42.2061071 75.5114839,42.3263214 75.3976774,42.4756786 C75.2856774,42.6250357 75.1610323,42.8071786 75.0237419,43.0239286 L75.0237419,46.5174286 C75.0237419,46.5483929 75.0165161,46.5775357 75.0002581,46.59575 C74.9858065,46.6194286 74.9569032,46.6376429 74.9261935,46.6522143 C74.8900645,46.6704286 74.8412903,46.6813571 74.7762581,46.6886429 C74.7130323,46.69775 74.6353548,46.7013929 74.5378065,46.7013929 C74.4456774,46.7013929 74.368,46.69775 74.3047742,46.6886429 C74.2415484,46.6813571 74.1909677,46.6704286 74.1566452,46.6522143 C74.1169032,46.6376429 74.0934194,46.6194286 74.0789677,46.59575 C74.0645161,46.5775357 74.0572903,46.5483929 74.0572903,46.5174286 L74.0572903,41.2061429 C74.0572903,41.1733571 74.0645161,41.1496786 74.0753548,41.1241786 C74.0861935,41.1059643 74.1096774,41.0841071 74.1458065,41.0677143 C74.180129,41.0495 74.2234839,41.0385714 74.2794839,41.0312857 C74.3354839,41.0276429 74.4059355,41.024 74.4980645,41.024 C74.5829677,41.024 74.6534194,41.0276429 74.7094194,41.0312857 C74.7672258,41.0385714 74.8123871,41.0495 74.8449032,41.0677143 C74.872,41.0841071 74.8972903,41.1059643 74.9117419,41.1241786 C74.9225806,41.1496786 74.9298065,41.1733571 74.9298065,41.2061429 L74.9298065,41.9784286 C75.0743226,41.7635 75.2116129,41.5941071 75.3344516,41.4575 C75.4645161,41.3263571 75.5855484,41.2207143 75.6975484,41.1423929 C75.8113548,41.0677143 75.9197419,41.0130714 76.0335484,40.98575 C76.1455484,40.9566071 76.2557419,40.9383929 76.3677419,40.9383929 C76.4219355,40.9383929 76.4779355,40.9420357 76.5411613,40.9493214 C76.6043871,40.9566071 76.6748387,40.9675357 76.7452903,40.9821071 C76.812129,41.0003214 76.8771613,41.0130714 76.9331613,41.0349286 C76.9927742,41.0567857 77.0325161,41.075 77.0523871,41.0913929 C77.0776774,41.11325 77.0957419,41.1314643 77.1029677,41.1496786 C77.1101935,41.1660714 77.1156129,41.1879286 77.1228387,41.2170714 C77.1264516,41.2443929 77.1300645,41.2881071 77.1336774,41.3372857 C77.1372903,41.3901071 77.1372903,41.4647857 77.1372903,41.5540357 L77.1372903,41.5540357 Z M70.1589677,46.7706071 C70.0596129,46.7633214 69.963871,46.74875 69.8771613,46.7268929 C69.7344516,46.6922857 69.5935484,46.6376429 69.459871,46.5629643 C69.3225806,46.4882857 69.1852903,46.3953929 69.048,46.2824643 C68.9089032,46.1677143 68.768,46.0292857 68.6162581,45.8653571 L68.6162581,46.5174286 C68.6162581,46.5483929 68.6054194,46.5775357 68.5927742,46.5993929 C68.5747097,46.6230714 68.5494194,46.6412857 68.5150968,46.6558571 C68.4825806,46.6704286 68.4374194,46.6813571 68.3832258,46.6886429 C68.3308387,46.69775 68.264,46.7013929 68.1827097,46.7013929 C68.1050323,46.7013929 68.0381935,46.69775 67.9858065,46.6886429 C67.928,46.6813571 67.8828387,46.6704286 67.8485161,46.6558571 C67.816,46.6412857 67.7907097,46.6230714 67.7762581,46.5993929 C67.7672258,46.5775357 67.76,46.5483929 67.76,46.5174286 L67.76,38.6342857 C67.76,38.6015 67.7672258,38.5741786 67.779871,38.5523214 C67.7943226,38.5268214 67.8196129,38.5049643 67.8575484,38.4922143 C67.8936774,38.4776429 67.9424516,38.4630714 68.0056774,38.4557857 C68.0707097,38.4485 68.1483871,38.4448571 68.2387097,38.4448571 C68.3380645,38.4448571 68.4157419,38.4485 68.4825806,38.4557857 C68.5421935,38.4630714 68.5927742,38.4776429 68.6270968,38.4922143 C68.6632258,38.5049643 68.6867097,38.5268214 68.7011613,38.5523214 C68.7192258,38.5741786 68.7264516,38.6015 68.7264516,38.6342857 L68.7264516,41.8145 C68.8818065,41.6542143 69.0335484,41.5157857 69.1816774,41.4083214 C69.3261935,41.2953929 69.4707097,41.2097857 69.6116129,41.13875 C69.7489032,41.0677143 69.8898065,41.0167143 70.0325161,40.9893929 L70.1589677,40.9638929 L70.1589677,41.7853571 C70.0740645,41.7926429 69.9963871,41.8072143 69.9150968,41.8327143 C69.795871,41.8673214 69.6712258,41.9237857 69.5483871,42.00575 C69.4219355,42.0913571 69.2900645,42.1988214 69.1563871,42.3263214 C69.0227097,42.4574643 68.8781935,42.61775 68.7264516,42.8181071 L68.7264516,44.93825 C68.9901935,45.2606429 69.2449032,45.5101786 69.4887742,45.6813929 C69.7037419,45.8343929 69.9295484,45.92 70.1589677,45.9363929 L70.1589677,46.7706071 L70.1589677,46.7706071 Z" id="Fill-7" fill="#1A1918"></path>
                            <path d="M135.512774,46.5174286 C135.512774,46.5483929 135.501935,46.5775357 135.487484,46.59575 C135.469419,46.6194286 135.447742,46.6376429 135.409806,46.6522143 C135.373677,46.6704286 135.324903,46.6813571 135.26529,46.6886429 C135.202065,46.69775 135.124387,46.7013929 135.032258,46.7013929 C134.932903,46.7013929 134.851613,46.69775 134.788387,46.6886429 C134.728774,46.6813571 134.68,46.6704286 134.643871,46.6522143 C134.609548,46.6376429 134.584258,46.6194286 134.566194,46.59575 C134.551742,46.5775357 134.544516,46.5483929 134.544516,46.5174286 L134.544516,43.40825 C134.544516,43.10225 134.521032,42.86 134.474065,42.6742143 C134.428903,42.49025 134.358452,42.3336071 134.269935,42.1988214 C134.177806,42.0640357 134.065806,41.9602143 133.92129,41.8928214 C133.780387,41.8217857 133.614194,41.7853571 133.426323,41.7853571 C133.184258,41.7853571 132.944,41.8709643 132.700129,42.0458214 C132.456258,42.2170357 132.206968,42.4720357 131.941419,42.8071786 L131.941419,46.5174286 C131.941419,46.5483929 131.930581,46.5775357 131.916129,46.59575 C131.903484,46.6194286 131.874581,46.6376429 131.842065,46.6522143 C131.804129,46.6704286 131.758968,46.6813571 131.693935,46.6886429 C131.63071,46.69775 131.549419,46.7013929 131.451871,46.7013929 C131.363355,46.7013929 131.282065,46.69775 131.218839,46.6886429 C131.157419,46.6813571 131.108645,46.6704286 131.07071,46.6522143 C131.034581,46.6376429 131.005677,46.6194286 130.996645,46.59575 C130.982194,46.5775357 130.974968,46.5483929 130.974968,46.5174286 L130.974968,41.2061429 C130.974968,41.1733571 130.978581,41.1496786 130.993032,41.1241786 C131.002065,41.1059643 131.027355,41.0841071 131.063484,41.0677143 C131.097806,41.0495 131.141161,41.0385714 131.197161,41.0312857 C131.249548,41.0276429 131.323613,41.024 131.412129,41.024 C131.500645,41.024 131.571097,41.0276429 131.627097,41.0312857 C131.683097,41.0385714 131.726452,41.0495 131.758968,41.0677143 C131.789677,41.0841071 131.814968,41.1059643 131.825806,41.1241786 C131.838452,41.1496786 131.845677,41.1733571 131.845677,41.2061429 L131.845677,41.9110357 C132.141935,41.5758929 132.438194,41.33 132.736258,41.1733571 C133.028903,41.0167143 133.325161,40.9383929 133.625032,40.9383929 C133.97729,40.9383929 134.269935,41.0003214 134.510194,41.1205357 C134.750452,41.24075 134.947355,41.4010357 135.095484,41.6013929 C135.243613,41.8035714 135.350194,42.0385357 135.413419,42.3044643 C135.480258,42.5758571 135.512774,42.9000714 135.512774,43.2771071 L135.512774,46.5174286 L135.512774,46.5174286 Z M141.058581,45.7068929 C141.058581,45.7779286 141.054968,45.8343929 141.051355,45.8835714 C141.047742,45.9309286 141.040516,45.9728214 141.03329,46.0056071 C141.022452,46.0402143 141.009806,46.073 140.995355,46.0930357 C140.980903,46.1221786 140.952,46.1586071 140.903226,46.2077857 C140.854452,46.2569643 140.769548,46.3188929 140.655742,46.3935714 C140.536516,46.4646071 140.406452,46.5283571 140.258323,46.5848214 C140.112,46.6412857 139.954839,46.6886429 139.781419,46.72325 C139.608,46.7596786 139.430968,46.7760714 139.248516,46.7760714 C138.870968,46.7760714 138.534968,46.7123214 138.242323,46.5884643 C137.949677,46.4609643 137.705806,46.2788214 137.508903,46.0365714 C137.312,45.7943214 137.160258,45.4956071 137.05729,45.1477143 C136.954323,44.7925357 136.901935,44.3863571 136.901935,43.9273571 C136.901935,43.4046071 136.965161,42.9528929 137.093419,42.5795 C137.219871,42.2024643 137.39329,41.8964643 137.615484,41.6542143 C137.834065,41.4156071 138.094194,41.2334643 138.390452,41.1205357 C138.690323,41.0021429 139.011871,40.9456786 139.360516,40.9456786 C139.52671,40.9456786 139.692903,40.9638929 139.848258,40.9966786 C140.007226,41.024 140.151742,41.0677143 140.285419,41.1168929 C140.415484,41.1660714 140.536516,41.228 140.639484,41.2953929 C140.740645,41.3627857 140.818323,41.4156071 140.86529,41.4647857 C140.914065,41.5121429 140.944774,41.5503929 140.959226,41.5795357 C140.97729,41.6050357 140.995355,41.636 141.006194,41.6760714 C141.015226,41.7143214 141.022452,41.7543929 141.026065,41.8035714 C141.03329,41.8491071 141.03329,41.9110357 141.03329,41.9784286 C141.03329,42.1314286 141.015226,42.2370714 140.980903,42.2971786 C140.944774,42.36275 140.903226,42.3937143 140.854452,42.3937143 C140.793032,42.3937143 140.726194,42.3591071 140.652129,42.2953571 C140.574452,42.2297857 140.480516,42.15875 140.359484,42.0804286 C140.247484,42.0021071 140.102968,41.9274286 139.936774,41.8636786 C139.770581,41.7999286 139.57729,41.7635 139.347871,41.7635 C138.885419,41.7635 138.527742,41.9456429 138.282065,42.3044643 C138.034581,42.6651071 137.911742,43.1878571 137.911742,43.8745357 C137.911742,44.2151429 137.942452,44.5138571 138.005677,44.7743214 C138.07071,45.0293214 138.164645,45.2478929 138.28929,45.4209286 C138.415742,45.5921429 138.567484,45.7232857 138.748129,45.80525 C138.930581,45.8908571 139.138323,45.9345714 139.371355,45.9345714 C139.593548,45.9345714 139.788645,45.8981429 139.958452,45.8271071 C140.122839,45.7560714 140.270968,45.67775 140.392,45.5921429 C140.514839,45.5065357 140.621419,45.4318571 140.706323,45.3644643 C140.791226,45.2970714 140.854452,45.2606429 140.899613,45.2606429 C140.928516,45.2606429 140.948387,45.2679286 140.970065,45.2825 C140.991742,45.3007143 141.006194,45.3262143 141.018839,45.3644643 C141.03329,45.4045357 141.044129,45.4464286 141.047742,45.5028929 C141.054968,45.563 141.058581,45.6285714 141.058581,45.7068929 L141.058581,45.7068929 Z M144.738323,46.6667857 L144.035613,48.6193571 C144.012129,48.6794643 143.95071,48.7304643 143.860387,48.7650714 C143.764645,48.7978571 143.616516,48.8124286 143.421419,48.8124286 C143.320258,48.8124286 143.238968,48.8087857 143.175742,48.7978571 C143.116129,48.7869286 143.065548,48.7723571 143.031226,48.7468571 C142.99871,48.7231786 142.980645,48.6940357 142.977032,48.6521429 C142.973419,48.6157143 142.984258,48.5665357 143.005935,48.5137143 L143.732129,46.6667857 C143.697806,46.6485714 143.661677,46.6230714 143.634581,46.5884643 C143.602065,46.5520357 143.580387,46.5174286 143.567742,46.4737143 L141.690839,41.4010357 C141.658323,41.3190714 141.643871,41.2516786 141.643871,41.2061429 C141.643871,41.1587857 141.658323,41.1205357 141.690839,41.0913929 C141.721548,41.0677143 141.770323,41.0458571 141.840774,41.0385714 C141.913032,41.0276429 142.003355,41.024 142.124387,41.024 C142.24,41.024 142.332129,41.0276429 142.398968,41.0312857 C142.465806,41.0385714 142.516387,41.0495 142.557935,41.0640714 C142.592258,41.0804643 142.621161,41.1023214 142.639226,41.1314643 C142.660903,41.1624286 142.677161,41.2025 142.695226,41.2516786 L144.201806,45.5138214 L144.219871,45.5138214 L145.670452,41.2298214 C145.693935,41.1551429 145.722839,41.1059643 145.755355,41.0841071 C145.786065,41.0640714 145.834839,41.0458571 145.903484,41.0385714 C145.970323,41.0276429 146.064258,41.024 146.192516,41.024 C146.300903,41.024 146.389419,41.0276429 146.459871,41.0385714 C146.530323,41.0458571 146.58271,41.0677143 146.615226,41.0913929 C146.647742,41.1205357 146.664,41.1587857 146.664,41.2061429 C146.664,41.2516786 146.651355,41.3117857 146.629677,41.3828214 L144.738323,46.6667857 L144.738323,46.6667857 Z" id="Fill-8" fill="#1A1918"></path>
                            <path d="M47.4536774,30.7292857 L47.4717419,27.2649286 C45.9091613,28.9005714 44.5868387,30.1063571 42.747871,30.6400357 L42.747871,29.1173214 C43.7811613,28.7894643 44.780129,28.1883929 45.4990968,27.44525 C46.667871,26.2431071 47.356129,24.5364286 47.356129,22.72775 L47.356129,19.13225 C45.9543226,19.28525 44.2833548,19.4491786 42.747871,19.9282143 L42.747871,18.49475 C44.1514839,18.2033214 45.6941935,17.9865714 47.356129,17.8007857 L47.356129,15.83 C47.356129,13.4748929 45.1215484,12.2691071 43.0025806,12.2691071 C42.9140645,12.2691071 42.8327742,12.2691071 42.747871,12.27275 L42.747871,10.6371071 C43.0802581,10.6188929 43.4252903,10.6043214 43.7847742,10.6043214 C47.3597419,10.6043214 50.736,11.9448929 50.736,15.7480357 L50.736,25.9480357 L50.7396129,30.7365714 L47.4536774,30.7292857 L47.4536774,30.7292857 Z M42.747871,30.6400357 C42.056,30.8422143 41.2900645,30.9533214 40.412129,30.9533214 C38.4683871,30.9533214 36.9870968,30.5325714 35.9772903,29.6965357 C32.7870968,26.4143214 34.7741935,21.6330714 37.9643871,20.1285714 C39.2794839,19.3908929 40.8926452,18.8790714 42.747871,18.49475 L42.747871,19.9282143 C40.2603871,20.7041429 38.1396129,22.3124643 38.1396129,26.0718929 C38.1396129,29.2630357 40.5187097,29.8295 42.747871,29.1173214 L42.747871,30.6400357 L42.747871,30.6400357 Z M42.747871,12.27275 C39.6082581,12.4075357 38.2425806,15.0540714 37.7349677,16.1323571 C36.736,15.2744643 36.5065806,14.9557143 35.5708387,14.10875 C36.5914839,13.0013214 38.2642581,10.9176071 42.747871,10.6371071 L42.747871,12.27275 L42.747871,12.27275 Z" id="Fill-9" fill="#1A1918"></path>
                            <path d="M24.8766452,10.7609643 L24.8766452,15.5950357 C26.2820645,10.3948571 31.5316129,9.62621429 34.7109677,11.2418214 L34.7109677,13.95575 C27.5267097,10.00325 25.1349677,16.1797143 25.1349677,19.4054643 L25.1349677,30.7365714 L21.7099355,30.7475 L21.7099355,10.7573214 L24.8766452,10.7609643" id="Fill-10" fill="#1A1918"></path>
                            <path d="M57.6926452,10.7045 C57.8805161,11.5678571 58.035871,13.3728929 58.0141935,14.4602857 C58.8722581,13.0741786 59.8766452,12.45125 61.0309677,11.75 C62.1852903,11.0596786 63.4877419,10.7117857 64.9437419,10.7117857 C66.2028387,10.7117857 67.2541935,10.9631429 68.1050323,11.4585714 C68.955871,11.9521786 69.6405161,12.7426786 70.1517419,13.8173214 C70.6701935,14.8956071 70.9285161,16.1050357 70.9285161,17.4346786 L70.9285161,30.7402143 L67.6227097,30.7402143 L67.6227097,18.7588571 C67.6227097,16.9829643 67.3463226,15.6587857 66.8134194,14.7990714 C65.1352258,12.09425 61.3832258,12.1671071 59.5496774,14.4001786 C58.5290323,15.6423929 58.0141935,17.2525357 58.0141935,19.2378929 L58.0141935,30.722 L54.6776774,30.7147143 L54.6776774,14.4602857 C54.6776774,13.8136786 54.5674839,11.6898929 54.3452903,10.7536786 L57.6926452,10.7045" id="Fill-11" fill="#1A1918"></path>
                            <path d="M50.9365161,0.0782857143 L46.3499355,6.70464286 L43.7432258,6.70464286 L47.8637419,0.0782857143 L50.9365161,0.0782857143" id="Fill-12" fill="#1A1918"></path>
                        </g>
                    </g>
                </g>
            </g>
        </g>
    </g>
</svg>