<?xml version="1.0" encoding="UTF-8" standalone="no"?>
<svg width="282px" height="49px" viewBox="0 0 282 49" version="1.1" xmlns="http://www.w3.org/2000/svg" xmlns:xlink="http://www.w3.org/1999/xlink" xmlns:sketch="http://www.bohemiancoding.com/sketch/ns">
    <!-- Generator: Sketch 3.2.2 (9983) - http://www.bohemiancoding.com/sketch -->
    <title>Imported Layers</title>
    <desc>Created with Sketch.</desc>
    <defs></defs>
    <g id="Page-1" stroke="none" stroke-width="1" fill="none" fill-rule="evenodd" sketch:type="MSPage">
        <g id="О-чемпионате-(дизайн)" sketch:type="MSArtboardGroup" transform="translate(-725.000000, -3965.000000)">
            <g id="4_block" sketch:type="MSLayerGroup" transform="translate(-1.000000, 3657.000000)">
                <g id="logos" transform="translate(477.000000, 121.000000)" sketch:type="MSShapeGroup">
                    <g id="2" transform="translate(0.000000, 174.000000)">
                        <g id="Imported-Layers" transform="translate(249.000000, 13.000000)">
                            <path d="M171.476224,26.6355263 L171.476224,37.3592105 L165.786502,37.3592105 L165.786502,14.8184211 L171.476224,14.8184211 L171.476224,24.7144737 L176.907498,14.5868421 L182.629525,15.05 L176.682648,25.2131579 L183.150297,37.1289474 L176.907498,37.8223684 L171.476224,26.6355263" id="Fill-1" fill="#1D8A9A"></path>
                            <path d="M191.880653,14.8184211 L196.818292,14.8184211 L203.773114,37.3592105 L197.795224,37.3592105 L196.849306,34.2486842 L190.547064,34.2486842 L189.636037,37.3592105 L184.402475,37.3592105 L191.880653,14.8184211 L191.880653,14.8184211 Z M195.616511,30.0460526 L193.663941,23.6236842 L191.779858,30.0460526 L195.616511,30.0460526 L195.616511,30.0460526 Z" id="Fill-2" fill="#1D8A9A"></path>
                            <path d="M223.501703,14.8184211 L223.501703,32.925 L226.165005,32.925 L226.165005,41.9934211 L220.963749,42.6552632 L220.963749,37.3592105 L209.717406,37.3592105 L209.717406,41.9934211 L204.514858,42.6552632 L204.514858,32.925 L206.141785,32.925 C207.017922,30.8078947 207.603306,28.7855263 207.958671,26.8 C208.640973,23.0276316 208.935603,17.6986842 208.935603,14.8184211 L223.501703,14.8184211 L223.501703,14.8184211 Z M217.779676,32.925 L217.779676,19.2539474 L214.136858,19.2539474 C213.877119,22.6302632 213.846105,24.5828947 213.325333,27.5960526 C212.93637,29.9789474 212.382,31.9960526 212.118384,32.925 L217.779676,32.925 L217.779676,32.925 Z" id="Fill-3" fill="#1D8A9A"></path>
                            <path d="M227.670461,14.8184211 L234.592977,14.8184211 C240.056557,14.8184211 243.533968,17.4986842 243.533968,22.3328947 C243.533968,27.1973684 240.574744,30.5092105 236.318114,30.5092105 L234.105804,30.5092105 L235.081443,26.3039474 L235.342475,26.3039474 C236.8699,26.3039474 237.811941,24.9815789 237.811941,22.5644737 C237.811941,20.1144737 236.05579,19.2223684 233.846064,19.2223684 L233.35889,19.2223684 L233.35889,37.3592105 L227.670461,37.3592105 L227.670461,14.8184211" id="Fill-4" fill="#1D8A9A"></path>
                            <path d="M254.08121,37.8223684 C248.130457,37.8223684 245.104037,32.6921053 245.104037,25.6434211 C245.104037,19.2223684 248.130457,14.3881579 254.08121,14.3881579 C260.057808,14.3881579 262.983434,19.2223684 262.983434,25.6434211 C262.983434,32.6921053 260.057808,37.8223684 254.08121,37.8223684 L254.08121,37.8223684 Z M254.08121,33.1565789 C256.256046,33.1565789 257.035265,29.6144737 257.035265,25.6434211 C257.035265,21.7355263 256.256046,19.0223684 254.08121,19.0223684 C251.835301,19.0223684 251.08968,21.7355263 251.08968,25.6434211 C251.08968,29.6144737 251.835301,33.1565789 254.08121,33.1565789 L254.08121,33.1565789 Z" id="Fill-5" fill="#1D8A9A"></path>
                            <path d="M264.483721,14.8184211 L272.41289,14.8184211 C277.390589,14.8184211 280.347228,16.7697368 280.347228,21.0078947 C280.347228,23.2565789 279.078251,24.9473684 277.354406,25.6434211 C279.110557,26.1065789 281.060543,27.5960526 281.060543,31.1710526 C281.060543,34.8776316 278.038,37.3592105 274.625201,37.3592105 L264.483721,37.3592105 L264.483721,14.8184211 L264.483721,14.8184211 Z M272.41289,32.925 C274.101845,32.925 275.14468,32.0631579 275.14468,30.5092105 C275.14468,28.7539474 274.136735,28.0894737 272.670046,28.0894737 L271.178804,28.0894737 L272.153151,24.3171053 L272.41289,24.3171053 C274.136735,24.3171053 274.625201,23.0276316 274.625201,21.6684211 C274.625201,20.3473684 273.908009,19.2223684 271.40753,19.2223684 L270.170858,19.2223684 L270.170858,32.925 L272.41289,32.925 L272.41289,32.925 Z" id="Fill-6" fill="#1D8A9A"></path>
                            <path d="M0.106155251,14.8184211 L0.106155251,22.4973684 L5.72092694,14.8184211 L0.106155251,14.8184211" id="Fill-7" fill="#1D8A9A"></path>
                            <path d="M10.9971324,25.2131579 L16.9465936,15.05 L11.2258584,14.5868421 L5.79587671,24.7144737 L5.79587671,18.4052632 C2.7410274,19.3486842 0.106155251,23.9210526 0.106155251,24.1763158 L0.106155251,37.3592105 L5.79587671,37.3592105 L5.79587671,26.6355263 L11.2258584,37.8223684 L17.4660731,37.1289474 L10.9971324,25.2131579" id="Fill-8" fill="#C62472"></path>
                            <path d="M73.0981872,32.8605263 L73.0981872,14.8184211 L67.3774521,14.8184211 L67.3774521,22.6263158 L73.0981872,32.8605263" id="Fill-9" fill="#1D8A9A"></path>
                            <path d="M88.5843607,24.4381579 L90.0678493,21.5671053 C90.0678493,21.5671053 91.671516,19.1644737 92.1134612,14.8184211 L89.3002603,14.8184211 L82.3441461,27.7605263 L82.3441461,14.8184211 L76.6208265,14.8184211 L76.6208265,37.3592105 L81.6269543,37.3592105 L88.5843607,24.4171053 L88.5843607,24.4381579" id="Fill-10" fill="#C62472"></path>
                            <path d="M88.5843607,26.5078947 L88.5843607,37.3592105 L94.3050959,37.3592105 L94.3050959,15.4657895 L88.5843607,26.5078947" id="Fill-11" fill="#1D8A9A"></path>
                            <path d="M102.88426,14.8184211 L97.8277352,14.8184211 L97.8277352,24.575 L102.88426,14.8184211" id="Fill-12" fill="#1D8A9A"></path>
                            <path d="M121.135822,29.1644737 L118.415662,37.3592105 L123.651808,37.3592105 L124.274667,35.225 L121.135822,29.1644737" id="Fill-13" fill="#1D8A9A"></path>
                            <path d="M130.836648,14.8184211 L125.892548,14.8184211 C125.892548,14.8184211 122.216132,25.9026316 122.101123,26.2447368 C121.23274,28.5776316 124.841959,34.2486842 124.841959,34.2486842 L130.868954,34.2486842 L131.810995,37.3592105 L137.788886,37.3592105 L130.836648,14.8184211 L130.836648,14.8184211 Z M125.79563,30.0460526 L127.684881,23.6236842 L129.632283,30.0460526 L125.79563,30.0460526 L125.79563,30.0460526 Z" id="Fill-14" fill="#C62472"></path>
                            <path d="M32.0735251,30.4986842 C32.0916164,30.4526316 32.1187534,30.3881579 32.1368447,30.3421053 L37.4027123,15.05 L32.2014566,14.5868421 L29.3947169,23.9328947 L32.0735251,30.4986842" id="Fill-15" fill="#1D8A9A"></path>
                            <path d="M28.9579406,25.3828947 L28.9476027,25.4092105 L24.4648311,14.5868421 L18.4817717,15.05 L26.1860913,31.3013158 C26.0258539,31.8013158 25.7312237,32.4276316 24.9507123,32.925 C24.3033014,33.3197368 23.6843196,33.3868421 23.0653379,33.3868421 C22.2861187,33.3868421 21.5068995,33.1894737 20.7574018,32.925 L20.7574018,37.3592105 C22.0250868,37.7236842 23.131242,37.8223684 23.8781553,37.8223684 C25.3086621,37.8223684 27.0958265,37.5578947 28.7550594,36.0684211 C29.1918356,35.6868421 29.5807991,35.2460526 29.9297032,34.7736842 C31.6910228,32.3907895 30.0602192,28.0776316 30.0602192,28.0776316 L28.9579406,25.3828947" id="Fill-16" fill="#C62472"></path>
                            <path d="M40.7341005,31.8986842 C40.7069635,31.8723684 40.677242,31.8592105 40.6475205,31.8315789 L39.1511096,36.4986842 C39.9626347,36.9973684 41.0028858,37.425 42.3390594,37.6565789 C42.5910457,37.6986842 42.8585388,37.6973684 43.1156941,37.7263158 L40.7341005,31.8986842" id="Fill-17" fill="#1D8A9A"></path>
                            <path d="M51.9933653,26.8 C51.4066895,26.1736842 50.6287626,25.7065789 49.6195251,25.4434211 C51.0190183,24.8144737 51.7969452,23.8223684 52.1859087,22.9289474 C52.5451507,22.1657895 52.6110548,21.4039474 52.6110548,20.6105263 C52.6110548,18.2289474 51.6341233,16.8368421 50.7566941,16.075 C49.0987534,14.6526316 46.8231233,14.3881579 45.1328767,14.3881579 C44.2231416,14.3881579 43.3444201,14.4539474 42.4669909,14.5868421 C41.167,14.8184211 40.160347,15.0828947 39.1511096,15.4802632 L40.3877808,19.9171053 C41.6541735,18.9881579 42.8585388,18.7907895 43.9944155,18.7907895 C44.6457032,18.7907895 45.4585205,18.8894737 46.0749178,19.3868421 C46.7598037,19.9486842 46.8877352,20.8092105 46.8877352,21.5723684 C46.8877352,22.0013158 46.8554292,22.4657895 46.4987717,22.9605263 C46.0103059,23.6236842 45.3616027,23.6552632 45.003653,23.6552632 L43.5382557,23.6552632 L42.5316027,28.0894737 L45.2633927,28.0894737 C45.9456941,28.0894737 46.4664658,28.2236842 46.952347,28.8513158 C47.3102968,29.3486842 47.4085068,29.7789474 47.4085068,30.3078947 C47.4085068,31.0697368 47.2146712,31.7657895 46.7274977,32.2947368 C46.1640822,32.9223684 45.4494749,33.15 44.6431187,33.1434211 C43.7178767,33.1368421 43.0304064,32.7526316 43.0304064,32.7526316 C43.0304064,32.7526316 42.3338904,34.6210526 43.8070411,37.8223684 L44.2231416,37.8223684 C46.4328676,37.8223684 48.8726119,37.3592105 50.6920822,36.0355263 C51.4415799,35.5052632 52.0256712,34.8421053 52.5128447,34.0828947 C53.1331187,33.0565789 53.390274,31.8986842 53.390274,30.7407895 C53.390274,28.6552632 52.5451507,27.4302632 51.9933653,26.8" id="Fill-18" fill="#C62472"></path>
                            <path id="Fill-19" fill="#FFFFFF"></path>
                            <path id="Fill-20" fill="#FFFFFF"></path>
                            <path d="M114.957635,32.925 L114.957635,14.8184211 L109.2369,14.8184211 L109.2369,32.925 L103.54847,32.925 L103.54847,17.3631579 C101.487352,17.9618421 97.8277352,26.6421053 97.8277352,26.6421053 L97.8277352,37.3592105 L112.423557,37.3592105 L112.423557,42.6552632 L117.624813,41.9934211 L117.624813,32.925 L114.957635,32.925" id="Fill-21" fill="#C62472"></path>
                            <path d="M71.7891507,32.7881579 C71.2438265,31.8 66.5504201,23.425 66.5504201,23.425 L61.4732192,23.425 L61.4732192,14.8184211 L55.752484,14.8184211 L55.752484,37.3592105 L61.4732192,37.3592105 L61.4732192,28.5223684 L67.1939543,28.5223684 L67.1939543,37.3592105 L72.917274,37.3592105 C72.917274,37.3592105 72.988347,35.4723684 71.7891507,32.7881579" id="Fill-22" fill="#C62472"></path>
                            <path d="M160.602046,2.50131579 C160.671826,2.31973684 160.895384,1.74210526 160.895384,1.74210526 L157.019963,0.314473684 L156.748594,1.08026316 L155.060932,0.455263158 C154.019388,1.58289474 152.360155,3.19342105 150.742274,3.45789474 C149.767927,3.61578947 148.811671,3.56578947 147.907105,3.33947368 L147.259694,5.16578947 L155.319379,8.14210526 L155.319379,8.15131579 L157.813397,9.06578947 L157.813397,9.06184211 L158.960904,9.48815789 L162.877676,10.9236842 L165.265731,4.225 L160.602046,2.50131579" id="Fill-23" fill="#C62472"></path>
                            <path d="M156.192932,9.52105263 L155.828521,9.38552632 L155.466694,9.25263158 L152.970091,8.33289474 C152.970091,8.33289474 154.412228,10.2960526 154.124059,10.9434211 C153.768694,11.7460526 154.598311,11.1184211 139.875849,46.8407895 C139.875849,46.8407895 140.373361,47.2986842 141.013018,47.7473684 C140.90447,48.0723684 141.113813,48.4447368 141.488562,48.5815789 C141.858142,48.7210526 142.250982,48.5710526 142.375037,48.2552632 C143.12195,48.3381579 143.753854,48.3381579 143.753854,48.3381579 C143.753854,48.3381579 155.992635,12.3697368 156.181301,11.6842105 C156.366091,11 158.685658,10.4381579 158.685658,10.4381579 L156.192932,9.52105263" id="Fill-24" fill="#C62472"></path>
                        </g>
                    </g>
                </g>
            </g>
        </g>
    </g>
</svg>