<svg width="33" height="70" viewBox="0 0 33 70" xmlns="http://www.w3.org/2000/svg" xmlns:sketch="http://www.bohemiancoding.com/sketch/ns"><title>yota</title><desc>Created with Sketch.</desc><g sketch:type="MSShapeGroup" fill="#00B6E0"><path d="M10.715 56.925c-.026-.049-.081-.081-.139-.081h-1.666l-.13.067-3.451 4.847-3.282-4.845-.131-.069h-1.744c-.058 0-.111.031-.138.081-.028.047-.025.11.008.157l4.323 6.431v5.921l.047.108.112.044h1.531l.11-.044.047-.108v-5.938l4.495-6.412c.032-.049.037-.109.009-.159"/><path d="M16.567 61.675c-.365-.453-.828-.817-1.384-1.094-.562-.28-1.205-.419-1.928-.418-.736 0-1.383.133-1.94.409-.548.27-1.012.632-1.383 1.083-.371.451-.645.964-.822 1.534-.178.569-.266 1.152-.266 1.751 0 .6.091 1.189.275 1.77.184.582.461 1.104.832 1.559.37.459.83.828 1.369 1.111l.075-.133-.07.137c.56.273 1.206.406 1.929.406.723 0 1.367-.138 1.928-.417.556-.275 1.019-.642 1.384-1.095.363-.449.638-.965.822-1.541.185-.573.275-1.16.275-1.76 0-.599-.09-1.187-.275-1.761-.184-.575-.459-1.091-.822-1.542m-5.954 3.265c0-.422.056-.835.168-1.237.111-.402.275-.758.495-1.074.218-.31.489-.558.821-.745.326-.184.707-.278 1.158-.278.449 0 .831.093 1.156.278.332.189.608.435.833.746.225.316.393.675.502 1.081.113.411.168.827.168 1.249 0 .42-.055.836-.168 1.246-.109.409-.277.766-.502 1.08-.226.313-.503.566-.834.759-.324.189-.705.285-1.155.285-.437 0-.812-.096-1.137-.285-.333-.193-.612-.443-.842-.748-.219-.32-.384-.682-.495-1.091-.112-.409-.168-.831-.168-1.266"/><path d="M23.923 67.904l-.106-.074-.127.029c-.17.13-.356.241-.564.336-.196.09-.403.135-.623.135-.24-.001-.418-.061-.559-.179-.113-.084-.205-.332-.203-.751v-5.535h2.257l.11-.044.047-.107v-1.175l-.047-.107-.11-.046h-2.24v-2.272l-.045-.107-.111-.046h-1.476l-.111.044-.046.108v2.272h-1.414l-.111.046-.047.107v1.175l.047.107.111.044h1.414v5.684c0 .733.192 1.306.605 1.687.406.375.983.555 1.698.554.537 0 .961-.062 1.28-.2.299-.128.599-.302.903-.52.062-.047.081-.131.041-.197l-.575-.97"/><path d="M31.813 60.968c-.602-.543-1.443-.806-2.491-.804-.782 0-1.44.115-1.973.357-.53.243-.987.617-1.372 1.121l-.029.115.065.102 1.035.707c.068.044.161.032.212-.032.229-.28.508-.506.841-.675.33-.169.687-.252 1.086-.254.588.002 1.006.152 1.296.44.277.273.438.752.443 1.458-.572.006-1.16.057-1.763.148-.664.103-1.274.278-1.824.526-.555.25-1.02.592-1.388 1.019-.377.44-.564 1.004-.563 1.665 0 .479.094.907.285 1.281.188.365.435.672.74.915.303.243.654.427 1.047.551.393.123.796.183 1.209.183.516 0 .993-.086 1.431-.263.333-.134.639-.317.915-.54l.045.461c.008.077.075.138.156.138h1.342l.11-.044.045-.109v-5.797c0-1.215-.287-2.116-.904-2.668m-.886 3.98v2.532c-.269.22-.574.411-.918.576-.355.17-.74.254-1.166.254-.189 0-.383-.026-.582-.079-.191-.05-.363-.133-.519-.252-.155-.118-.284-.265-.391-.449-.098-.171-.151-.386-.151-.651 0-.422.118-.735.35-.979.243-.253.551-.45.935-.584.389-.14.814-.233 1.276-.28.409-.044.798-.073 1.166-.089"/><path d="M28.362 17.089c2.775-2.745 4.488-6.554 4.486-10.718v-2.938c0-1.845-1.536-3.34-3.431-3.34-1.899 0-3.434 1.495-3.434 3.34v2.938c-.001 2.376-.966 4.49-2.52 6.035-1.56 1.54-3.659 2.469-6.005 2.47-2.347-.001-4.444-.93-6.006-2.47-1.552-1.544-2.517-3.658-2.517-6.035v-2.938c0-1.845-1.537-3.34-3.433-3.34-1.895 0-3.434 1.495-3.434 3.34v2.938c-.001 4.164 1.712 7.972 4.486 10.718 2.001 1.988 4.584 3.437 7.47 4.088v7.032c-2.886.651-5.47 2.101-7.47 4.09-2.774 2.745-4.487 6.551-4.486 10.718v2.937c0 1.844 1.538 3.339 3.434 3.339 1.895 0 3.433-1.496 3.433-3.339v-2.937c0-2.377.965-4.493 2.517-6.036 1.562-1.54 3.659-2.469 6.006-2.471 2.346.002 4.445.931 6.005 2.471 1.554 1.543 2.518 3.659 2.52 6.036v2.937c0 1.844 1.535 3.339 3.434 3.339 1.895 0 3.431-1.496 3.431-3.339v-2.937c.002-4.167-1.711-7.973-4.486-10.718-2-1.989-4.584-3.439-7.47-4.09v-7.032c2.886-.651 5.47-2.1 7.47-4.088"/><path d="M17.458 48.59c3.283 0 5.944-2.587 5.944-5.784 0-3.196-2.661-5.786-5.944-5.786s-5.944 2.59-5.944 5.786c0 3.196 2.661 5.784 5.944 5.784"/></g></svg>