<?xml version="1.0" encoding="UTF-8" standalone="no"?>
<svg width="99px" height="73px" viewBox="0 0 99 73" version="1.1" xmlns="http://www.w3.org/2000/svg" xmlns:xlink="http://www.w3.org/1999/xlink" xmlns:sketch="http://www.bohemiancoding.com/sketch/ns">
    <!-- Generator: Sketch 3.2.2 (9983) - http://www.bohemiancoding.com/sketch -->
    <title>Imported Layers</title>
    <desc>Created with Sketch.</desc>
    <defs></defs>
    <g id="Page-1" stroke="none" stroke-width="1" fill="none" fill-rule="evenodd" sketch:type="MSPage">
        <g id="О-чемпионате-(дизайн)" sketch:type="MSArtboardGroup" transform="translate(-1089.000000, -3952.000000)" fill="#DE4B4E">
            <g id="4_block" sketch:type="MSLayerGroup" transform="translate(-1.000000, 3657.000000)">
                <g id="logos" transform="translate(477.000000, 121.000000)" sketch:type="MSShapeGroup">
                    <g id="2" transform="translate(0.000000, 174.000000)">
                        <g id="Imported-Layers" transform="translate(613.000000, 0.000000)">
                            <path d="M0.755621302,30.3352879 L4.06410256,30.3352879 L4.06410256,36.7566187 C4.06410256,37.6216612 3.91282051,39.1018405 3.91282051,39.1018405 L3.95088757,39.1018405 C3.95088757,39.1018405 4.55581854,37.6601699 5.08500986,36.7566187 L8.82840237,30.3352879 L12.1749507,30.3352879 L12.1749507,44.0815007 L8.86646943,44.0815007 L8.86646943,37.6794243 C8.86646943,36.8143818 9.01755424,35.3334002 9.01755424,35.3334002 L8.97968442,35.3334002 C8.97968442,35.3334002 8.37475345,36.7758731 7.84556213,37.6794243 L4.08303748,44.0815007 L0.755621302,44.0815007 L0.755621302,30.3352879" id="Fill-2"></path>
                            <path d="M29.4532544,30.3968617 L32.7619329,30.3968617 L32.7619329,35.7024422 L34.1232742,35.7024422 L36.9211045,30.3968617 L40.4759369,30.3968617 L36.8268245,36.9714252 L36.8268245,37.0101345 L40.6836292,44.1430746 L36.9781065,44.1430746 L34.1232742,38.5673313 L32.7619329,38.5673313 L32.7619329,44.1430746 L29.4532544,44.1430746 L29.4532544,30.3968617" id="Fill-3"></path>
                            <path d="M90.1333333,30.4684639 L93.6118343,30.4684639 L98.2063116,44.2146767 L94.8037475,44.2146767 L93.9712032,41.3303327 L89.7550296,41.3303327 L88.9424063,44.2146767 L85.538856,44.2146767 L90.1333333,30.4684639 L90.1333333,30.4684639 Z M93.1964497,38.6389335 L92.439645,35.9669891 C92.1940828,35.1019467 91.8915187,33.602513 91.8915187,33.602513 L91.8536489,33.602513 C91.8536489,33.602513 91.5510848,35.1019467 91.3055227,35.9669891 L90.5307692,38.6389335 L93.1964497,38.6389335 L93.1964497,38.6389335 Z" id="Fill-4"></path>
                            <path d="M58.3357002,30.5272298 L63.9504931,30.5272298 C66.5783037,30.5272298 68.3554241,32.4877655 68.3554241,35.2561822 C68.3554241,38.0247994 66.5783037,40.0246461 63.9504931,40.0246461 L61.6443787,40.0246461 L61.6443787,44.2734427 L58.3357002,44.2734427 L58.3357002,30.5272298 L58.3357002,30.5272298 Z M63.2696252,37.1405026 C64.4228797,37.1405026 64.9907298,36.3526782 64.9907298,35.2561822 C64.9907298,34.160689 64.4228797,33.410571 63.3266272,33.410571 L61.6443787,33.410571 L61.6443787,37.1405026 L63.2696252,37.1405026 L63.2696252,37.1405026 Z" id="Fill-5"></path>
                            <path d="M4.62169625,0.793475696 L7.93037475,0.793475696 L7.93037475,14.5396885 L4.62169625,14.5396885 L4.62169625,0.793475696 Z" id="Fill-6"></path>
                            <path d="M57.6295858,0.793074563 L62.3378698,0.793074563 C63.7175542,0.793074563 64.3794872,0.888544125 64.9654832,1.11999764 C66.4970414,1.71588013 67.4615385,3.11884143 67.4615385,5.11888863 C67.4615385,6.57981359 66.7806706,8.17571968 65.4386588,8.86707173 L65.4386588,8.90578103 C65.4386588,8.90578103 65.6274162,9.15648891 65.9489152,9.73311704 L68.5767258,14.5390868 L64.8897436,14.5390868 L62.4885602,9.90560406 L60.9380671,9.90560406 L60.9380671,14.5390868 L57.6295858,14.5390868 L57.6295858,0.793074563 L57.6295858,0.793074563 Z M62.3757396,7.02146059 C63.4341223,7.02146059 64.0960552,6.4255781 64.0960552,5.33008495 C64.0960552,4.63773006 63.9252465,4.11886503 63.3021696,3.86915998 C62.9996055,3.73417886 62.6023669,3.67641576 62.0542406,3.67641576 L60.9380671,3.67641576 L60.9380671,7.02146059 L62.3757396,7.02146059 L62.3757396,7.02146059 Z" id="Fill-7"></path>
                            <path d="M89.7179487,0.793475696 L93.1972387,0.793475696 L97.790927,14.5396885 L94.3883629,14.5396885 L93.5558185,11.6553445 L89.339645,11.6553445 L88.5270217,14.5396885 L85.1234714,14.5396885 L89.7179487,0.793475696 L89.7179487,0.793475696 Z M92.7810651,8.96394526 L92.0242604,6.29200094 C91.7786982,5.42695847 91.4761341,3.92752478 91.4761341,3.92752478 L91.4382643,3.92752478 C91.4382643,3.92752478 91.1357002,5.42695847 90.8901381,6.29200094 L90.1153846,8.96394526 L92.7810651,8.96394526 L92.7810651,8.96394526 Z" id="Fill-8"></path>
                            <path d="M29.0228797,0.792472865 L32.3315582,0.792472865 L32.3315582,6.09825389 L33.6932939,6.09825389 L36.491716,0.792472865 L40.0459566,0.792472865 L36.3970414,7.3672369 L36.3970414,7.40574563 L40.2536489,14.5386857 L36.5477318,14.5386857 L33.6932939,8.96314299 L32.3315582,8.96314299 L32.3315582,14.5386857 L29.0228797,14.5386857 L29.0228797,0.792472865" id="Fill-9"></path>
                            <path d="M4.35996055,59.0443487 L7.66863905,59.0443487 L7.66863905,72.7905616 L4.35996055,72.7905616 L4.35996055,59.0443487 Z" id="Fill-10"></path>
                            <path d="M57.4986193,59.0433459 L62.2069034,59.0433459 C63.5865878,59.0433459 64.2485207,59.1388155 64.834714,59.370269 C66.366075,59.9661515 67.330572,61.3693134 67.330572,63.36916 C67.330572,64.8300849 66.6497041,66.425991 65.3069034,67.1175437 L65.3069034,67.1560524 C65.3069034,67.1560524 65.4964497,67.405958 65.8179487,67.9833884 L68.4457594,72.7895588 L64.7587771,72.7895588 L62.3575937,68.156076 L60.8071006,68.156076 L60.8071006,72.7895588 L57.4986193,72.7895588 L57.4986193,59.0433459 L57.4986193,59.0433459 Z M62.2447732,65.2719325 C63.3031558,65.2719325 63.9650888,64.6758495 63.9650888,63.5805569 C63.9650888,62.888202 63.7952663,62.369337 63.1712032,62.1196319 C62.8688363,61.9844502 62.4714004,61.9266871 61.9232742,61.9266871 L60.8071006,61.9266871 L60.8071006,65.2719325 L62.2447732,65.2719325 L62.2447732,65.2719325 Z" id="Fill-11"></path>
                            <path d="M89.5861933,59.0443487 L93.0654832,59.0443487 L97.6591716,72.790361 L94.2566075,72.790361 L93.4240631,69.9062176 L89.2078895,69.9062176 L88.395069,72.790361 L84.991716,72.790361 L89.5861933,59.0443487 L89.5861933,59.0443487 Z M92.6491124,67.2148183 L91.8925049,64.542874 C91.6469428,63.6778315 91.3443787,62.177395 91.3443787,62.177395 L91.3065089,62.177395 C91.3065089,62.177395 91.0039448,63.6778315 90.7583826,64.542874 L89.983432,67.2148183 L92.6491124,67.2148183 L92.6491124,67.2148183 Z" id="Fill-12"></path>
                            <path d="M29.0228797,59.0433459 L32.3315582,59.0433459 L32.3315582,64.3489264 L33.6932939,64.3489264 L36.491716,59.0433459 L40.0459566,59.0433459 L36.3970414,65.61811 L36.3970414,65.6566187 L40.2536489,72.7895588 L36.5477318,72.7895588 L33.6932939,67.214016 L32.3315582,67.214016 L32.3315582,72.7895588 L29.0228797,72.7895588 L29.0228797,59.0433459" id="Fill-13"></path>
                        </g>
                    </g>
                </g>
            </g>
        </g>
    </g>
</svg>