<?xml version="1.0" encoding="UTF-8" standalone="no"?>
<svg width="166px" height="60px" viewBox="0 0 166 60" version="1.1" xmlns="http://www.w3.org/2000/svg" xmlns:xlink="http://www.w3.org/1999/xlink" xmlns:sketch="http://www.bohemiancoding.com/sketch/ns">
    <!-- Generator: Sketch 3.2.2 (9983) - http://www.bohemiancoding.com/sketch -->
    <title>Imported Layers</title>
    <desc>Created with Sketch.</desc>
    <defs></defs>
    <g id="Page-1" stroke="none" stroke-width="1" fill="none" fill-rule="evenodd" sketch:type="MSPage">
        <g id="О-чемпионате-(дизайн)" sketch:type="MSArtboardGroup" transform="translate(-476.000000, -3959.000000)">
            <g id="4_block" sketch:type="MSLayerGroup" transform="translate(-1.000000, 3657.000000)">
                <g id="logos" transform="translate(477.000000, 121.000000)" sketch:type="MSShapeGroup">
                    <g id="2" transform="translate(0.000000, 174.000000)">
                        <g id="Imported-Layers" transform="translate(0.000000, 7.000000)">
                            <path d="M165.704496,9.72117647 C165.731574,4.65882353 161.641617,0.695294118 156.789943,0.695294118 L125.991645,0.695294118 L125.991645,29.2764706 L132.602213,29.2764706 L132.602213,5.72823529 L142.31027,5.72823529 L142.31027,29.2764706 L148.91966,29.2764706 L148.91966,5.72823529 L154.382355,5.72823529 C157.477489,5.75764706 159.079801,7.75294118 159.079801,10.3882353 L159.079801,29.2764706 L165.718624,29.2764706 C165.718624,29.2764706 165.697433,10.7329412 165.704496,9.72117647" id="Fill-1" fill="#000000"></path>
                            <path d="M113.340326,0.695294118 C113.220241,0.692941176 99.8342837,0.697647059 95.9032624,0.695294118 L95.9032624,5.72823529 L110.442979,5.72823529 C113.766511,5.72823529 115.152199,8.18117647 115.152199,11.7788235 L102.978865,11.7788235 C98.1271915,11.7788235 94.1561418,15.6223529 94.1561418,20.4 C94.1561418,25.1776471 98.0647943,29.2764706 102.92,29.2764706 L121.776894,29.2764706 C121.776894,29.2764706 121.772184,10.64 121.772184,9.62352941 C121.762766,4.50941176 118.163745,0.762352941 113.340326,0.695294118 M104.561163,24.0411765 L104.561163,24.0341176 C102.547972,23.92 100.946837,22.3729412 100.946837,20.4752941 C100.946837,18.6176471 102.482043,17.0964706 104.436369,16.9247059 L115.161617,16.9247059 L115.161617,24.0411765 L104.561163,24.0411765" id="Fill-2" fill="#000000"></path>
                            <path d="M53.5862128,5.72823529 L64.0677589,5.72823529 L64.0677589,0.695294118 L51.0514752,0.695294118 C45.6853191,0.695294118 40.1272624,4.60117647 40.1272624,14.9705882 C40.1272624,24.2941176 45.6853191,29.2764706 50.8466241,29.2764706 L64.0677589,29.2764706 L64.0677589,24.2211765 L52.5042695,24.2211765 C49.2690355,24.2211765 46.8379007,20.7141176 46.8379007,17.3576471 L64.0677589,17.3576471 L64.0677589,12.3376471 L46.8720426,12.3376471 C46.8720426,8.18117647 49.2690355,5.72823529 53.5862128,5.72823529" id="Fill-3" fill="#000000"></path>
                            <path d="M80.6430355,5.72823529 L91.1234043,5.72823529 L91.1234043,0.695294118 L78.1082979,0.695294118 C72.7421418,0.695294118 67.1840851,4.60117647 67.1840851,14.9705882 C67.1840851,24.2941176 72.7421418,29.2764706 77.9034468,29.2764706 L91.1234043,29.2764706 L91.1234043,24.2211765 L79.5610922,24.2211765 C76.3258582,24.2211765 73.8947234,20.7141176 73.8947234,17.3576471 L91.1234043,17.3576471 L91.1234043,12.3376471 L73.9276879,12.3376471 C73.9276879,8.18117647 76.3258582,5.72823529 80.6430355,5.72823529" id="Fill-4" fill="#000000"></path>
                            <path d="M10.0235745,0.695294118 L22.1356879,29.2764706 L28.2211773,29.2764706 L41.3563688,0.695294118 L34.0594326,0.695294118 L25.1884397,21.0329412 L17.2875461,0.695294118 L10.0235745,0.695294118" id="Fill-5" fill="#000000"></path>
                            <path d="M0.899460993,19.5411765 C0.899460993,19.5247059 0.905347518,21.2882353 0.905347518,21.2882353 L0.917120567,29.1329412 C0.892397163,33.0176471 2.37580142,36.6611765 5.09302128,39.3941176 C7.8255461,42.1411765 11.4598865,43.6541176 15.3320426,43.6541176 L165.715092,43.6588235 L165.715092,34.7388235 L16.4740284,34.7341176 C13.2564539,34.7341176 10.2343121,33.4764706 7.96329078,31.1952941 C5.70992908,28.9258824 4.47846809,25.8964706 4.49965957,22.6658824 C4.49965957,22.6635294 4.48553191,21.2364706 4.48553191,21.2364706 L4.482,19.5588235 L4.47846809,0.695294118 L0.895929078,0.695294118 L0.899460993,19.5411765 Z" id="Fill-6" fill="#54B948"></path>
                            <path d="M49.3585106,49.1729412 L51.749617,49.1729412 L51.749617,59.7635294 L49.3585106,59.7635294 L49.3585106,49.1729412 Z" id="Fill-7" fill="#000000"></path>
                            <path d="M55.8843121,51.1835294 L53.023461,51.1835294 L53.023461,49.1729412 L61.169234,49.1729412 L61.169234,51.1835294 L58.2754184,51.1835294 L58.2754184,59.7635294 L55.8843121,59.7635294 L55.8843121,51.1835294" id="Fill-8" fill="#000000"></path>
                            <path d="M67.6938582,49.1717647 L70.0837872,49.1717647 L70.0837872,55.8658824 C70.0837872,58.8835294 68.6368794,59.9352941 66.3258298,59.9352941 C65.7595461,59.9352941 65.0366809,59.8411765 64.5645816,59.6847059 L64.8318298,57.7517647 C65.1614752,57.8623529 65.5864823,57.94 66.0585816,57.94 C67.064,57.94 67.6938582,57.4847059 67.6938582,55.8505882 L67.6938582,49.1717647" id="Fill-9" fill="#000000"></path>
                            <path d="M74.4704255,49.1717647 L74.4704255,55.2541176 C74.4704255,57.0905882 75.1779858,58.0188235 76.3894326,58.0188235 C77.6479716,58.0188235 78.340227,57.1376471 78.340227,55.2541176 L78.340227,49.1717647 L80.730156,49.1717647 L80.730156,55.1117647 C80.730156,58.38 79.0783972,59.9352941 76.3105532,59.9352941 C73.6380709,59.9352941 72.0816738,58.4435294 72.0816738,55.08 L72.0816738,49.1717647 L74.4704255,49.1717647" id="Fill-10" fill="#000000"></path>
                            <path d="M82.8834468,57.2952941 C83.513305,57.6258824 84.5187234,57.9564706 85.5406241,57.9564706 C86.6425816,57.9564706 87.2241702,57.5 87.2241702,56.8094118 C87.2241702,56.1494118 86.721461,55.7717647 85.4464397,55.3305882 C83.6863688,54.7035294 82.5220142,53.7282353 82.5220142,52.1882353 C82.5220142,50.3823529 84.0478014,49.0141176 86.5319149,49.0141176 C87.7421844,49.0141176 88.6086809,49.2505882 89.2373617,49.5494118 L88.7028652,51.4658824 C88.2931631,51.2611765 87.5220284,50.9623529 86.5001277,50.9623529 C85.462922,50.9623529 84.9590355,51.4505882 84.9590355,51.9847059 C84.9590355,52.6611765 85.5406241,52.9588235 86.9251348,53.4776471 C88.7970496,54.1682353 89.6611915,55.1423529 89.6611915,56.6364706 C89.6611915,58.4117647 88.3084681,59.92 85.3993475,59.92 C84.189078,59.92 82.9941135,59.5894118 82.3960426,59.26 L82.8834468,57.2952941" id="Fill-11" fill="#000000"></path>
                            <path d="M93.3555745,51.1835294 L90.4935461,51.1835294 L90.4935461,49.1729412 L98.6393191,49.1729412 L98.6393191,51.1835294 L95.7455035,51.1835294 L95.7455035,59.7635294 L93.3555745,59.7635294 L93.3555745,51.1835294" id="Fill-12" fill="#000000"></path>
                            <path d="M104.220922,59.7635294 L101.706199,49.1717647 L104.268014,49.1717647 L105.070936,53.5247059 C105.306397,54.7976471 105.52773,56.1647059 105.699617,57.2494118 L105.732582,57.2494118 C105.904468,56.0870588 106.156411,54.8129412 106.424837,53.4941176 L107.319589,49.1717647 L109.867277,49.1717647 L110.716113,53.6352941 C110.952752,54.8764706 111.125816,56.0070588 111.282397,57.1858824 L111.314184,57.1858824 C111.471943,56.0070588 111.707404,54.7658824 111.926383,53.4941176 L112.791702,49.1717647 L115.229901,49.1717647 L112.493844,59.7635294 L109.899064,59.7635294 L109.003135,55.2058824 C108.798284,54.1388235 108.62522,53.1470588 108.499248,51.9376471 L108.467461,51.9376471 C108.279092,53.1317647 108.106028,54.1388235 107.854085,55.2223529 L106.847489,59.7635294 L104.220922,59.7635294" id="Fill-13" fill="#000000"></path>
                            <path d="M120.843291,59.9352941 C117.712837,59.9352941 115.857404,57.5635294 115.857404,54.5458824 C115.857404,51.3717647 117.902383,48.9988235 121.015177,48.9988235 C124.271603,48.9988235 126.048156,51.4352941 126.048156,54.3576471 C126.048156,57.8458824 123.957262,59.9352941 120.858596,59.9352941 L120.843291,59.9352941 L120.843291,59.9352941 Z M120.969262,58.0341176 C122.588057,58.0341176 123.515773,56.5094118 123.515773,54.4364706 C123.515773,52.5352941 122.618667,50.9011765 120.969262,50.9011765 C119.317504,50.9011765 118.389787,52.5035294 118.389787,54.4835294 C118.389787,56.48 119.349291,58.0341176 120.95278,58.0341176 L120.969262,58.0341176 L120.969262,58.0341176 Z" id="Fill-14" fill="#000000"></path>
                            <path d="M127.619858,49.3294118 C128.390993,49.1882353 129.52356,49.0941176 130.811532,49.0941176 C132.384411,49.0941176 133.485191,49.3294118 134.239844,49.9411765 C134.885007,50.4447059 135.229957,51.1835294 135.229957,52.1576471 C135.229957,53.4941176 134.271631,54.4211765 133.35922,54.7494118 L133.35922,54.7976471 C134.098567,55.0964706 134.507092,55.7870588 134.775518,56.7611765 C135.105163,57.9717647 135.419504,59.3541176 135.623177,59.7635294 L133.170851,59.7635294 C133.013092,59.4482353 132.747021,58.6 132.446809,57.2952941 C132.14895,55.96 131.692156,55.6141176 130.702043,55.5988235 L129.994482,55.5988235 L129.994482,59.7635294 L127.619858,59.7635294 L127.619858,49.3294118 L127.619858,49.3294118 Z M129.994482,53.8705882 L130.938681,53.8705882 C132.132468,53.8705882 132.840028,53.2729412 132.840028,52.3458824 C132.840028,51.3882353 132.17956,50.8847059 131.07878,50.8847059 C130.497191,50.8847059 130.168723,50.9164706 129.994482,50.9635294 L129.994482,53.8705882 L129.994482,53.8705882 Z" id="Fill-15" fill="#000000"></path>
                            <path d="M136.944113,49.1717647 L139.318738,49.1717647 L139.318738,53.8541176 L139.350525,53.8541176 C139.587163,53.4470588 139.837929,53.0682353 140.089872,52.6917647 L142.479801,49.1717647 L145.436014,49.1717647 L141.93,53.6823529 L145.609078,59.7635294 L142.825929,59.7635294 L140.215844,55.1905882 L139.318738,56.3047059 L139.318738,59.7635294 L136.944113,59.7635294 L136.944113,49.1717647" id="Fill-16" fill="#000000"></path>
                            <path d="M146.678071,57.2952941 C147.306752,57.6258824 148.314525,57.9564706 149.336426,57.9564706 C150.436028,57.9564706 151.017617,57.5 151.017617,56.8094118 C151.017617,56.1494118 150.516085,55.7717647 149.241064,55.3305882 C147.480993,54.7035294 146.316638,53.7282353 146.316638,52.1882353 C146.316638,50.3823529 147.841248,49.0141176 150.327716,49.0141176 C151.537986,49.0141176 152.402128,49.2505882 153.030809,49.5494118 L152.496312,51.4658824 C152.087787,51.2611765 151.316652,50.9623529 150.294752,50.9623529 C149.256369,50.9623529 148.75366,51.4505882 148.75366,51.9847059 C148.75366,52.6611765 149.336426,52.9588235 150.719759,53.4776471 C152.590496,54.1682353 153.455816,55.1423529 153.455816,56.6364706 C153.455816,58.4117647 152.103092,59.92 149.193972,59.92 C147.982525,59.92 146.78756,59.5894118 146.190667,59.26 L146.678071,57.2952941" id="Fill-17" fill="#000000"></path>
                            <path d="M156.14478,59.9352941 C155.311248,59.9352941 154.744965,59.3235294 154.744965,58.5058824 C154.744965,57.6576471 155.326553,57.0764706 156.160085,57.0764706 C156.993617,57.0764706 157.543418,57.6576471 157.559901,58.5058824 C157.559901,59.3235294 157.008922,59.9352941 156.160085,59.9352941 L156.14478,59.9352941 L156.14478,59.9352941 Z M155.264156,56.2905882 L154.918028,49.1717647 L157.402142,49.1717647 L157.056014,56.2905882 L155.264156,56.2905882 L155.264156,56.2905882 Z" id="Fill-18" fill="#000000"></path>
                            <path d="M160.510227,49.5564706 L159.443589,49.5564706 L159.443589,49.1729412 L162.040723,49.1729412 L162.040723,49.5564706 L160.968199,49.5564706 L160.968199,52.6752941 L160.510227,52.6752941 L160.510227,49.5564706" id="Fill-19" fill="#000000"></path>
                            <path d="M165.18766,51.1376471 C165.161759,50.6541176 165.131149,50.0552941 165.131149,49.6247059 L165.119376,49.6247059 C164.995759,50.0294118 164.854482,50.4764706 164.677887,50.9552941 L164.058624,52.6564706 L163.716028,52.6564706 L163.142681,50.9870588 C162.976681,50.4917647 162.840113,50.04 162.74122,49.6247059 L162.731801,49.6247059 C162.721206,50.0611765 162.695305,50.6482353 162.663518,51.1741176 L162.570511,52.6752941 L162.13844,52.6752941 L162.383319,49.1729412 L162.960199,49.1729412 L163.559447,50.8670588 C163.704255,51.2988235 163.818454,51.6882353 163.912638,52.0529412 L163.922057,52.0529412 C164.016241,51.6988235 164.142213,51.3082353 164.297617,50.8670588 L164.922766,49.1729412 L165.499645,49.1729412 L165.718624,52.6752941 L165.271248,52.6752941 L165.18766,51.1376471" id="Fill-20" fill="#000000"></path>
                        </g>
                    </g>
                </g>
            </g>
        </g>
    </g>
</svg>