<svg width="92" height="95" viewBox="0 0 92 95" xmlns="http://www.w3.org/2000/svg" xmlns:sketch="http://www.bohemiancoding.com/sketch/ns"><title>Imported Layers</title><desc>Created with Sketch.</desc><g sketch:type="MSShapeGroup" fill="none"><path d="M46.046 14.542h.233v5.76h-.233v-5.76z" fill="#7F5C39"/><path d="M70.096 62.782v-.002.002" fill="#7F5C39"/><path d="M76.109 45.27v-.006.007" fill="#7F5C39"/><path d="M49.105 16.319l.009.002-.009-.002" fill="#7F5C39"/><path d="M44.227 39.353s1.684-.046 2.299-.044c.517.001 2.226.047 2.226.047v2.711s-1.697-.035-2.264-.034c-.565.002-2.261.045-2.261.045v-2.725" fill="#7F5C39"/><path d="M44.227 48.262s1.684-.062 2.299-.062c.517.002 2.226.065 2.226.065v3.585s-1.697-.02-2.264-.017c-.565 0-2.261.028-2.261.028v-3.599" fill="#7F5C39"/><path d="M52.457 39.665s1.276.169 1.865.279c.564.108 1.841.379 1.841.379v2.649s-1.177-.239-1.851-.356c-.696-.122-1.854-.258-1.854-.258v-2.693" fill="#7F5C39"/><path d="M40.524 39.665s-1.276.169-1.868.279c-.56.108-1.836.379-1.836.379v2.649s1.176-.239 1.852-.356c.693-.122 1.852-.258 1.852-.258v-2.693" fill="#7F5C39"/><path d="M46.495 33.264c-.363 0-1.446.038-1.446.038v-2.363s1.067-.029 1.424-.029c.363 0 1.457.035 1.457.035v2.356s-1.077-.038-1.436-.038" fill="#7F5C39"/><path d="M45.049 33.707s1.081-.024 1.439-.024c.362 0 1.443.027 1.443.027v.581h-2.882v-.583" fill="#7F5C39"/><path d="M45.049 42.363s1.081-.022 1.439-.022c.362 0 1.443.017 1.443.017v.534h-2.882v-.528" fill="#7F5C39"/><path d="M52.457 48.463s1.397.139 1.865.198c.459.056 1.841.267 1.841.267v3.371s-1.39-.136-1.851-.173c-.465-.038-1.854-.126-1.854-.126v-3.537" fill="#7F5C39"/><path d="M40.524 48.463s-1.401.139-1.866.198c-.463.056-1.838.267-1.838.267v3.371s1.386-.136 1.852-.173c.46-.038 1.852-.126 1.852-.126v-3.537" fill="#7F5C39"/><path d="M52.252 42.673s1.085.144 1.447.199c.361.054 1.432.243 1.432.243v.506l-1.441-.244-1.438-.229v-.475" fill="#7F5C39"/><path d="M40.725 42.673s-1.09.144-1.451.199c-.358.054-1.431.243-1.431.243v.506l1.44-.244 1.441-.229v-.475" fill="#7F5C39"/><path d="M52.457 31.327s1.387.22 1.845.314c.47.095 1.86.431 1.86.431v2.361s-1.384-.337-1.851-.432c-.46-.093-1.854-.315-1.854-.315v-2.358" fill="#7F5C39"/><path d="M40.524 31.327s-1.387.22-1.848.314c-.467.095-1.857.431-1.857.431v2.361s1.384-.337 1.852-.432c.458-.093 1.852-.315 1.852-.315v-2.358" fill="#7F5C39"/><path d="M52.252 34.092s1.108.187 1.471.255c.355.065 1.409.284 1.409.284v.6l-1.441-.26-1.438-.277v-.602" fill="#7F5C39"/><path d="M40.725 34.092s-1.107.187-1.471.255c-.356.065-1.411.284-1.411.284v.6l1.44-.26 1.441-.277v-.602" fill="#7F5C39"/><path d="M75.093 38.263v28.131c-.397.51-.806 1.009-1.234 1.493v-30.153l1.234.528" fill="#7F5C39"/><path d="M78.387 39.676v21.681c-.388.719-.797 1.426-1.232 2.114v-24.324l1.232.529" fill="#7F5C39"/><path d="M81.679 41.087v11.466c-.322 1.435-.736 2.842-1.232 4.207v-16.2l1.232.527" fill="#7F5C39"/><path d="M32.044 27.899l1.913.598v1.547l-1.127.661-.377.165-.409-.201v-2.768" fill="#7F5C39"/><path d="M32.633 31.185s.448-.341.608-.441c.15-.096.626-.348.626-.348v.278s-.47.232-.618.323c-.159.096-.616.429-.616.429v-.241" fill="#7F5C39"/><path d="M44.227 66.728h4.525v.264h-4.525v-.264z" fill="#7F5C39"/><path d="M44.227 67.209h4.525v.391h-4.525v-.391z" fill="#7F5C39"/><path d="M44.227 67.858h4.525v.585h-4.525v-.585z" fill="#7F5C39"/><path d="M40.52 66.72l-3.702.138v.16l3.702-.113v-.186" fill="#7F5C39"/><path d="M40.52 67.2l-3.702.114v.289l3.702-.114v-.289" fill="#7F5C39"/><path d="M40.52 67.854l-3.702.115v.486l3.702-.078v-.522" fill="#7F5C39"/><path d="M52.461 66.72l3.701.138v.16l-3.701-.113v-.186" fill="#7F5C39"/><path d="M52.461 67.2l3.701.114v.289l-3.701-.114v-.289" fill="#7F5C39"/><path d="M52.461 67.854l3.701.115v.486l-3.701-.078v-.522" fill="#7F5C39"/><path d="M29.158 33.432l1.234-.53v.408l.107.158v.145l.057.076v.113l.06.154-.007 2.784-1.232.466.005-2.738-.061-.151v-.11l-.058-.073v-.143l-.104-.15v-.407" fill="#7F5C39"/><path d="M25.881 34.837l1.234-.528v.403l.102.145v.137l.06.067v.106l.059.149-.003 2.653-1.224.469-.006-2.621-.06-.136v-.105l-.058-.063v-.135l-.104-.14v-.402" fill="#7F5C39"/><path d="M22.588 36.251l1.236-.529v.398l.102.131v.131l.059.057v.099l.058.125v2.555l-1.236.465.005-2.51-.06-.123v-.096l-.057-.052v-.131l-.107-.125v-.397" fill="#7F5C39"/><path d="M19.294 37.662l1.236-.529v.395l.103.116v.127l.06.044v.094l.058.113-.002 2.458-1.234.466.005-2.414-.06-.108v-.091l-.061-.042v-.124l-.104-.113v-.393" fill="#7F5C39"/><path d="M16.002 39.074l1.234-.528v.39l.107.104v.119l.058.033v.089l.059.101-.001 2.329-1.234.467v-2.288l-.058-.093v-.088l-.058-.03v-.118l-.107-.097v-.39" fill="#7F5C39"/><path d="M12.71 40.485l1.234-.527v.386l.107.087v.116l.058.025v.081l.059.087-.007 2.207-1.232.466.005-2.164-.061-.082v-.081l-.058-.021v-.112l-.104-.084v-.386" fill="#7F5C39"/><path d="M29.388 41.907l1.234-.379-.018 3.141-1.211.338-.005-3.1" fill="#7F5C39"/><path d="M26.106 42.918l1.234-.38-.011 3.013-1.234.328.011-2.962" fill="#7F5C39"/><path d="M22.804 43.933l1.232-.381.007 2.884-1.236.331-.002-2.835" fill="#7F5C39"/><path d="M19.515 44.953l1.234-.38v2.754l-1.234.335v-2.709" fill="#7F5C39"/><path d="M16.229 45.966l1.225-.368.005 2.621-1.234.335.005-2.588" fill="#7F5C39"/><path d="M12.925 46.986l1.232-.383v2.488l-1.234.33.002-2.435" fill="#7F5C39"/><path d="M29.383 49.74l1.234-.26-.009 3.929-1.232.214.007-3.884" fill="#7F5C39"/><path d="M26.101 50.438l1.234-.262v3.809l-1.236.215.002-3.762" fill="#7F5C39"/><path d="M22.804 51.14l1.232-.26-.006 3.684-1.229.214.003-3.639" fill="#7F5C39"/><path d="M19.515 51.838l1.234-.262-.007 3.547-1.232.217.005-3.502" fill="#7F5C39"/><path d="M16.23 52.538l1.219-.253-.002 3.422-1.218.213.001-3.382" fill="#7F5C39"/><path d="M12.919 53.23l1.236-.262.006 3.296-1.232.217-.01-3.251" fill="#7F5C39"/><path d="M29.37 56.295l1.252-.176.002 2.936-1.243.148-.011-2.909" fill="#7F5C39"/><path d="M26.099 56.745l1.236-.171-.007 2.856-1.234.141.005-2.826" fill="#7F5C39"/><path d="M22.807 57.209l1.236-.173v2.772l-1.232.141-.005-2.74" fill="#7F5C39"/><path d="M19.515 57.665l1.234-.171v2.701l-1.234.142v-2.672" fill="#7F5C39"/><path d="M16.229 58.119l1.234-.173-.009 2.614-1.236.143.011-2.583" fill="#7F5C39"/><path d="M29.379 64.91l1.245-.049-.002 2.965-1.243.035v-2.952" fill="#7F5C39"/><path d="M26.099 65.088l1.234-.067v2.886l-1.238.028.005-2.847" fill="#7F5C39"/><path d="M22.807 65.252l1.232-.067.005 2.799-1.242.038.006-2.769" fill="#7F5C39"/><path d="M19.515 65.423l1.236-.064-.005 2.709-1.236.02.005-2.664" fill="#7F5C39"/><path d="M63.742 33.432l-1.234-.53v.408l-.107.158v.145l-.059.076v.113l-.058.154.002 2.784 1.238.466-.005-2.738.058-.151v-.11l.057-.073v-.143l.107-.15v-.407" fill="#7F5C39"/><path d="M67.019 34.837l-1.234-.528v.403l-.104.145v.137l-.058.067v.106l-.058.149.002 2.653 1.224.469.006-2.621.058-.136v-.105l.06-.063v-.135l.104-.14v-.402" fill="#7F5C39"/><path d="M70.31 36.251l-1.229-.529v.398l-.107.131v.131l-.059.057v.099l-.06.125.005 2.555 1.234.465-.005-2.51.058-.123v-.096l.061-.052v-.131l.102-.125v-.397" fill="#7F5C39"/><path d="M73.606 37.662l-1.236-.529v.395l-.103.116v.127l-.06.044v.094l-.058.113.002 2.458 1.236.466-.005-2.414.058-.108v-.091l.06-.042v-.124l.105-.113v-.393" fill="#7F5C39"/><path d="M76.899 39.074l-1.234-.528v.39l-.104.104v.119l-.06.033v.089l-.061.101.006 2.329 1.232.467v-2.288l.058-.093v-.088l.06-.03v-.118l.104-.097v-.39" fill="#7F5C39"/><path d="M80.192 40.485l-1.238-.527v.386l-.1.087v.116l-.061.025v.081l-.058.087.005 2.207 1.232.466-.002-2.164.059-.082v-.081l.058-.021v-.112l.107-.084v-.386" fill="#7F5C39"/><path d="M63.512 41.907l-1.234-.379.018 3.141 1.211.338.005-3.1" fill="#7F5C39"/><path d="M66.793 42.918l-1.232-.38.012 3.013 1.232.328-.012-2.962" fill="#7F5C39"/><path d="M70.098 43.933l-1.232-.381-.007 2.884 1.234.331.005-2.835" fill="#7F5C39"/><path d="M73.387 44.953l-1.236-.38v2.754l1.236.335v-2.709" fill="#7F5C39"/><path d="M76.675 45.966l-1.228-.368-.002 2.621 1.232.335-.001-2.588" fill="#7F5C39"/><path d="M79.978 46.986l-1.236-.383.002 2.488 1.234.33v-2.435" fill="#7F5C39"/><path d="M63.517 49.74l-1.234-.26.005 3.929 1.238.214-.009-3.884" fill="#7F5C39"/><path d="M66.799 50.438l-1.234-.262.002 3.809 1.234.215-.002-3.762" fill="#7F5C39"/><path d="M70.096 51.14l-1.232-.26.009 3.684 1.225.214-.002-3.639" fill="#7F5C39"/><path d="M73.387 51.838l-1.238-.262.007 3.547 1.236.217-.005-3.502" fill="#7F5C39"/><path d="M76.672 52.538l-1.218-.253v3.422l1.218.213v-3.382" fill="#7F5C39"/><path d="M79.981 53.23l-1.237-.262-.005 3.296 1.232.217.01-3.251" fill="#7F5C39"/><path d="M63.53 56.295l-1.252-.176v2.936l1.238.148.014-2.909" fill="#7F5C39"/><path d="M66.801 56.745l-1.234-.171.007 2.856 1.232.141-.005-2.826" fill="#7F5C39"/><path d="M70.094 57.209l-1.234-.173-.005 2.772 1.236.141.002-2.74" fill="#7F5C39"/><path d="M73.387 57.665l-1.236-.171v2.701l1.236.142v-2.672" fill="#7F5C39"/><path d="M76.675 58.119l-1.236-.173.008 2.614 1.236.143-.008-2.583" fill="#7F5C39"/><path d="M79.742 58.542c-.312.733-.651 1.454-1.012 2.16l.011-2.297 1 .137" fill="#7F5C39"/><path d="M63.521 64.91l-1.243-.049v2.965l1.243.035v-2.952" fill="#7F5C39"/><path d="M66.801 65.088l-1.234-.067v2.886l1.238.028-.005-2.847" fill="#7F5C39"/><path d="M70.094 65.252l-1.229-.067-.009 2.799 1.243.038-.005-2.769" fill="#7F5C39"/><path d="M73.387 65.423l-1.238-.064.005 2.709 1.238.02-.005-2.664" fill="#7F5C39"/><path d="M35.793 31.962c-.752.252-1.449.539-1.449.539v-3.264s.313-.45.855-.853c.651-.478 1.274-.745 2.031-1.064 1.325-.556 3.979-1.043 5.336-1.204 1.638-.193 4.955-.239 6.597-.092 1.244.112 3.743.422 4.937.791 1.513.473 2.514.835 3.307 1.385.89.611 1.211 1.199 1.211 1.199v3.102c.001 0-.947-.392-2.035-.713-.92-.273-1.947-.473-2.475-.587-1.216-.256-3.695-.523-4.937-.606-1.649-.113-4.969-.073-6.615.072-1.346.116-4.022.537-5.327.875-.31.082-.895.236-1.437.42" fill="#7F5C39"/><path d="M36.277 26.423c-1.092.521-1.641 1.015-2.099 1.542l-.033-2.955s.556-.645 1.233-1.113c.611-.423 1.006-.717 1.74-1.042 1.415-.633 4.082-1.235 5.455-1.423 2.071-.278 4.421-.258 6.608-.103 1.266.093 3.742.546 4.924.914 2.129.659 2.501 1.034 3.258 1.522 1.079.69 1.424 1.452 1.424 1.452v2.881c-.293-.346-.405-.659-1.539-1.358-.413-.255-1.194-.584-1.559-.722-.936-.352-1.95-.637-2.449-.745-1.218-.261-2.624-.423-4.025-.568-1.667-.17-4.157-.14-5.823.032-1.396.145-2.584.275-3.897.588-1.371.328-1.938.487-3.219 1.098" fill="#7F5C39"/><path d="M34.28 28.309s.547-.686.983-.992c.367-.26.893-.555 1.486-.81.851-.361 1.841-.659 2.721-.876 1.311-.317 3.138-.552 4.884-.686 1.314-.104 4.222-.021 5.084.071.862.094 2.61.272 4.111.647.465.119 2.14.542 3.307 1.148.356.187.906.585 1.28.959.347.346.534.675.534.675l.001.703s-.217-.368-.611-.759c-.337-.335-.8-.647-1.285-.897-.653-.339-2.111-.848-3.085-1.086-.932-.226-2.392-.463-3.421-.592-.753-.096-2.819-.205-3.575-.2-.788.003-2.359.013-3.156.102-.8.088-2.928.33-3.957.604-1.032.272-2.654.72-3.568 1.243-.362.208-.737.451-1.025.7-.439.387-.702.763-.702.763l-.007-.717" fill="#7F5C39"/><path d="M34.28 23.575s.489-.488.999-.831c.37-.253 1.049-.688 1.688-.949.86-.346 1.672-.684 2.552-.898 1.313-.319 3.089-.557 4.835-.69 1.314-.099 4.025-.063 5.084.073.857.107 2.529.276 4.244.721.463.119 1.969.64 3.137 1.249.358.184.844.519 1.288.912l.565.515-.001.869s-.329-.382-.671-.669c-.364-.307-.629-.469-1.17-.798-.572-.351-2.168-1.053-3.134-1.322-.988-.281-2.396-.55-3.425-.68-.753-.094-2.81-.23-3.566-.226-.789.004-2.368.051-3.165.128-.899.088-2.907.382-3.937.654-1.03.273-1.201.372-2.189.749-.53.199-1.404.728-1.73.929-.618.387-1.397 1.127-1.397 1.127l-.007-.863" fill="#7F5C39"/><path d="M51.79 18.073c-1.057 1.712-4.193-1.563-5.549 0v-3.534c1.248-1.71 4.457 1.711 5.549 0v3.534" fill="#7F5C39"/><path d="M73.79 71.277h-.002l-.247-.238h.009l.059.06.181.178" fill="#7F5C39"/><path d="M82.784 41.603l-.042-.461-.082-.602-.02-.18c-.07-.572-.163-1.133-.268-1.704l-.031-.161-.071-.38c-3.284-16.479-18.217-28.958-36.084-28.968h-.043c-18.061.01-33.116 12.76-36.195 29.499l-.019.15c-.186 1.013-.321 2.028-.414 3.06l-.04.452c-.062.882-.093 1.765-.093 2.668 0 1.434.082 2.849.247 4.233v.02l.153 1.073c.547 3.53 1.617 6.891 3.14 10.01.125.25.237.492.373.732 1.481 2.869 3.347 5.518 5.529 7.875.618.771.484 1.613-.032 2.105-.256.252-.905.891-1.493 1.464h.607l1.216-1.184.032-.028h54.022l.032.028.669.653.112-.482-.205-.199-.246-.232-.011-.02-.195-.23c-.256-.393-.332-.894-.112-1.405.07-.161.163-.321.277-.471l.358-.393c.434-.471.846-.953 1.238-1.443l.348-.453c.279-.35.556-.711.814-1.084.308-.42.607-.852.895-1.294.432-.663.844-1.334 1.236-2.015.237-.421.463-.833.683-1.265.328-.621.626-1.253.904-1.894.166-.372.321-.743.474-1.125.474-1.182.886-2.397 1.235-3.641.371-1.364.669-2.758.876-4.172.113-.753.206-1.514.268-2.278.083-.952.125-1.914.125-2.888v-.432c-.02-.992-.071-1.975-.167-2.939zm-63.435 29.44c.062-.101.125-.191.167-.303h.113l53.198.053.155.25h-53.634zm63.167-26.069c0 .922-.04 1.846-.113 2.758l-.37-.11v2.378l.113.029c-.122.853-.278 1.696-.464 2.526-.329 1.435-.742 2.84-1.235 4.204-.218.601-.453 1.193-.701 1.784-.319.732-.66 1.455-1.018 2.157v.021l-.341.631c-.392.722-.804 1.425-1.236 2.117-.44.701-.904 1.384-1.4 2.057l-.31-.021v.432c-.113.16-.225.312-.348.461-.392.503-.804 1.004-1.238 1.485-.214.252-.44.5-.667.753-.197.251-.34.502-.423.752h-.956v-32.54l-1.236-.529v33.069h-2.061v-33.953l-1.236-.521v34.474h-2.057v-35.358l-1.238-.531v35.889h-2.057v-36.773l-1.236-.529v37.302h-2.061v-36.49s-.762-.303-1.018-.391c-.257-.089-1.041-.332-1.041-.332v2.81l-1.018-.262v5.316l1.018.231v3.169l-1.018-.21v5.347l1.018.17v20.643h-.401v-.601l-3.708-.081v.682h-.409v-38.125s-1.362-.151-1.815-.191c-.474-.041-1.894-.122-1.894-.122v8.195l.825.031v3.231l-.825-.033v5.577l.825.021v21.415h-.413v-.682h-4.521v.682h-.412v-21.415l.813-.021v-5.577l-.813.033v-3.231l.813-.031v-8.195s-1.422.081-1.894.122c-.446.04-1.803.191-1.803.191v38.125h-.413v-.682l-3.705.081v.601h-.414v-20.643l1.03-.17v-5.347l-1.03.21v-3.169l1.03-.231v-5.316l-1.03.262v-2.81s-.771.243-1.028.332c-.26.088-1.022.391-1.022.391v36.49h-2.14v-37.302l-1.236.529v36.773h-2.06v-35.889l-1.236.531v35.358h-2.06v-34.474l-1.234.521v33.953h-2.061v-33.069l-1.226.529v32.54h-1.533c-.084-.251-.228-.502-.434-.752l-.091-.112v-30.792l-1.236.532v28.835c-.154-.179-.31-.37-.454-.56v-1.034l-.739.04h-.023c-.288-.39-.576-.792-.844-1.203v-25.196l-1.236.532v22.697c-.268-.461-.525-.922-.762-1.393h.031l.392-.051-.011-2.527-1.236.17v.742c-.163-.361-.319-.721-.473-1.094v-17.663l-1.226.534v13.669c-.442-1.493-.781-3.018-1.018-4.584l.062-.019.595-.159.011-2.378-.876.261-.07.021c-.084-.964-.125-1.946-.125-2.93l.009-.381.074-.03.988-.372v-2.096l-.062-.07v-.081l-.061-.011v-.109l-.104-.07v-.382l-.597.251-.082.04.04-.451 21.781-9.448v-.944l-21.708 9.791.019-.18.104-.04 21.511-9.751v-1.927l-21.246 9.972-.101.051.031-.161.104-.051 21.121-10.03v-.539l-21.04 10.189-.116.05c3.257-16.288 18.014-28.615 35.672-28.627h.043c17.548.012 32.223 12.178 35.599 28.317l-20.492-9.929v.539l20.576 9.771.032.17-20.71-9.721v1.927l20.986 9.51.031.18-21.089-9.51v.944l21.163 9.176.051.472-.085-.04v.382l-.101.07v.109l-.062.011v.081l-.06.07.009 2.096.483.192v.591z" fill="#7F5C39"/><path d="M60.849 28.047l-1.911.599v1.548l1.123.659.379.166.409-.202v-2.769" fill="#7F5C39"/><path d="M60.263 31.333s-.453-.338-.609-.44c-.153-.095-.629-.346-.629-.346v.276s.47.232.618.321c.162.097.62.431.62.431v-.243" fill="#7F5C39"/><path d="M32.864 79.135c.328.336.814.505 1.46.505l.33-.018.379-.054.388-.095c.128-.039.245-.086.349-.141l-.139-.507c-.221.068-.432.112-.632.13-.201.02-.365.03-.493.03-.242 0-.441-.04-.592-.117-.154-.081-.272-.187-.356-.323-.086-.136-.144-.292-.175-.468-.032-.176-.045-.365-.045-.567 0-.208.018-.403.058-.584.039-.184.1-.344.183-.482.082-.139.189-.245.323-.325.133-.078.294-.117.484-.117.129 0 .255.011.381.035.125.022.246.073.364.152l.272.572.302-.042-.005-1.319h-.308l-.142.223c-.181-.094-.35-.157-.505-.183-.155-.028-.311-.04-.47-.04-.344 0-.634.061-.878.187-.242.127-.439.291-.589.496-.151.203-.262.435-.332.696-.074.258-.109.52-.109.785 0 .709.166 1.233.497 1.57" fill="#7F5C39"/><path d="M36.687 75.835l.547.16v3.053l-.558.166.024.336h1.992l.025-.372-.563-.135v-3.025h1.681v3.03l-.532.166.032.336h1.985l.017-.372-.581-.135v-3.053l.581-.136-.024-.36-1.125.011-1.131.006-1.174-.006-1.169-.011-.026.341" fill="#7F5C39"/><path d="M42.803 75.99v3.065l-.54.159.031.336h2.022l.018-.365-.611-.135.007-3.008h.265l.367.003.369.003h.256l.284.658.304-.059-.011-1.131-.067-.035-.793.018-.786.004h-.322l-.423-.002-.442-.006-.37-.009-.036.359.479.142" fill="#7F5C39"/><path d="M49.552 76.708c.088-.211.197-.386.322-.524.126-.138.281-.246.472-.324l-.025-.367-1.524.007-.024.353.5.141-.086.209-.115.314-.129.36-.128.349-.107.293-.068.175h-.025l-.674-1.617-.094-.285-.056-.304h-1.35l-.044.352.467.161 1.041 2.315h.485l-.14.319c-.049.123-.111.226-.188.313-.078.086-.167.14-.267.159l-.666-.408c-.104.047-.195.115-.269.198-.075.085-.112.184-.112.298 0 .157.068.279.208.365.14.086.311.13.513.13.289 0 .531-.076.721-.226.188-.151.346-.374.472-.671l.888-2.087" fill="#7F5C39"/><path d="M52.136 75.501l-.913-.018-.098.047-.005 1.218.304.042.339-.831h.846v3.089l-.569.177.028.325h2.043l.018-.36-.599-.147v-3.083h.853l.339.831.304-.042-.014-1.218-.084-.047-.931.018-.928.004-.935-.004" fill="#7F5C39"/><path d="M59.58 75.925l.279-.064-.024-.36-.499.009-.43.001h-1.838l-.4-.001-.501-.009-.008.173-.016.173.29.074.286.081v.405c0 .279-.016.546-.049.8-.031.253-.083.489-.151.707-.069.219-.155.416-.257.595-.103.178-.228.33-.372.452l-.233.027-.228.032-.024.032-.025.033.067 1.543h.43l.137-.538.142-.54h2.928l.184 1.078h.483l.061-.769.058-.764-.04-.07-.264-.023-.256-.023-.005-1.498-.002-1.491.277-.065zm-1.192.101v2.972l-.433.003-.457.002h-.902c.135-.184.242-.383.327-.593.082-.209.145-.425.194-.646.049-.219.083-.443.104-.671.02-.228.032-.453.032-.672v-.395h1.135z" fill="#7F5C39"/><path d="M87.053 73.074c0 .096-.02.186-.058.271l-.044.068-.093.131c-8.736 12.806-23.848 21.28-41.031 21.309-16.859-.029-31.682-8.502-40.258-21.309l-.088-.131-.044-.068c-.035-.085-.056-.175-.056-.271 0-.257.144-.484.358-.603l.036-.023 3.028-2.103.899-.626 3.066-2.128h.009c1.233 1.991 2.654 3.863 4.235 5.59 7.068 7.73 17.358 12.607 28.814 12.634 11.681-.027 22.167-4.904 29.369-12.634 1.613-1.727 3.059-3.599 4.319-5.59h.009l3.121 2.128.92.626 3.087 2.103.034.023c.219.119.367.346.367.603" fill="#1D5B99"/><path d="M13.499 75.841c.067.106.107.231.107.363 0 .382-.316.692-.711.692-.195 0-.37-.075-.496-.196l-5.882-4.109c-.13-.118-.301-.187-.491-.187-.145 0-.282.041-.397.115l4.074-2.803 5.163 4.701-1.367 1.423" fill="#1D436B"/><path d="M78.777 75.84c-.069.105-.109.231-.109.365 0 .382.325.692.727.692.197 0 .374-.075.505-.196l5.994-4.11c.134-.117.308-.186.501-.186.149 0 .288.041.403.115l-4.149-2.803-5.264 4.701 1.392 1.422" fill="#1D436B"/><path d="M91.952 44.994c0 9.435-3.101 18.176-8.384 25.345l-.005.006c-1.405 1.906-2.967 3.702-4.661 5.371l-.04.036-.04.041.002.004c-.095.117-.151.263-.151.421 0 .083.016.165.046.237l.011.03.002.004.022.045.085.122-.462-.436-.523-.496-4.818-4.602-.002-.052c-.367-.351-.593-.836-.593-1.374 0-.447.158-.862.423-1.19l.12-.127.084-.091c5.792-6.179 9.315-14.345 9.315-23.295 0-19.295-16.366-34.938-36.559-34.939-19.808.001-35.867 15.644-35.867 34.939 0 8.95 3.456 17.115 9.138 23.295l.084.091.118.127c.261.328.414.742.414 1.19 0 .538-.22 1.023-.581 1.374l-.002.052-2.117 2.058-2.61 2.544h-.002l-.511.496-.451.436.082-.122.023-.045.001-.004.011-.03.044-.237c0-.158-.056-.304-.149-.421l.005-.004-.04-.041-.04-.036c-1.664-1.669-3.193-3.465-4.572-5.371l-.002-.006c-5.185-7.169-8.227-15.91-8.227-25.345 0-24.344 20.259-44.078 45.252-44.079 25.476.001 46.126 19.735 46.126 44.079" fill="#3B74AD"/><path d="M19.646 80.198l-.447.574.124.117.45-.314.482.345-1.225 1.626-.345-.115-.09.136.911.654.118-.141-.244-.284 1.225-1.625.483.345-.171.514.151.08.43-.588-.024-.049-.45-.308-.446-.315-.454-.328-.423-.317-.056-.007" fill="#fff"/><path d="M22.218 83.337l-.149-.018c-.091-.022-.191-.068-.305-.141l-.092-.064-.11-.091.538-.805.255.126c.164.105.272.22.325.346.051.129.026.27-.075.421l-.127.136-.175.083-.086.008m-.563-1.738l-.116.128.211.24-1.127 1.683-.341-.093-.086.142.944.601.11-.156-.261-.264.432-.647.179.149.14.095c.135.086.263.142.392.172l.223.027.128-.01c.111-.018.211-.057.299-.118.088-.059.162-.135.221-.224.071-.105.116-.208.13-.309.016-.098.009-.194-.024-.287-.033-.091-.086-.179-.162-.262-.077-.082-.17-.156-.279-.228l-.301-.183-.304-.187-.13-.086-.1-.064-.084-.056-.095-.063" fill="#fff"/><path d="M23.792 84.676l-.642-.365.381-.321.463-.394.018.011-.12.584-.1.485m.388-1.53l-.177.152-.179.145-1.58 1.236-.291-.072-.09.163.836.473.098-.161-.267-.241.432-.368.784.444-.105.55-.316-.077-.083.161.902.513.107-.157-.151-.171.407-2.46-.012-.021-.313-.109" fill="#fff"/><path d="M26.167 86.745l-.27-.13-.288-.136-.569-.278c.137-.072.267-.161.383-.265.119-.105.226-.215.326-.335.098-.116.186-.236.262-.36l.201-.352.14-.27.725.351-.908 1.775m-.232-2.63l-.088.157.265.225-.137.271c-.075.146-.159.286-.252.421-.095.137-.193.261-.299.373-.104.112-.217.208-.335.288-.117.08-.239.14-.363.178l-.251-.084-.016.007-.019.008-.188.414-.191.412.188.089.228-.262.228-.265 1.643.799-.196.653.205.099.465-.774-.002-.042-.256-.16.451-.887.45-.885.335.08.037-.085.042-.085-.274-.128-.237-.113-.237-.115-.272-.131-.26-.126-.204-.099-.201-.099-.26-.133" fill="#fff"/><path d="M28.13 85.175l-.074.151.271.222-.785 1.838-.354-.032-.058.157 1.043.422.04-.085.037-.088-.295-.21.065-.15c.268-.122.532-.25.791-.38l.783-.388-.576 1.35-.346-.031-.061.16 1.042.42.081-.171-.302-.213.785-1.838.367.057.031-.088.035-.086-1.039-.42-.035.081-.04.077.265.215-.061.142-1.575.772.574-1.348.363.055.033-.086.036-.086-1.041-.42" fill="#fff"/><path d="M30.885 86.28l-.057.156.284.2-.65 1.888-.361-.012-.049.17.643.203.64.207.177.059.264.087.265.089.179.057-.109.676.225.074.356-.845-.009-.041-.281-.117.639-1.865.363.029.053-.177-1.048-.342-.068.156.298.202-.646 1.882-.107-.035-.2-.066-.245-.077-.246-.077-.2-.067-.107-.034.65-1.882.347.023.058-.176-1.059-.344" fill="#fff"/><path d="M33.71 87.192l-.051.16.298.183-.512 1.927-.356.018-.034.16 1.094.277.025-.089.026-.093-.321-.168.042-.158c.246-.157.49-.319.729-.483l.717-.492-.377 1.416-.347.017-.035.165 1.092.276.054-.18-.33-.171.513-1.928.372.006.017-.091.023-.089-1.088-.273-.025.083-.026.083.293.177-.041.15-1.448.978.374-1.412.367.004.02-.087.024-.093-1.091-.273" fill="#fff"/><path d="M36.598 87.909l-.04.166.315.161-.372 1.956-.353.042-.024.165 1.111.2.018-.091.019-.094-.335-.146.032-.16c.237-.173.467-.352.691-.534l.683-.539-.273 1.438-.347.039-.023.17 1.11.199.042-.183-.341-.148.37-1.957.374-.019.009-.092.018-.091-1.106-.199-.018.085-.022.083.303.156-.026.152-1.376 1.077.272-1.436.366-.019.015-.089.014-.094-1.108-.199" fill="#fff"/><path d="M40.641 88.57l-.02.169.325.129-.172 1.983-.348.075-.008.167 1.127.093.011-.091.01-.097-.347-.113.014-.162c.217-.197.429-.394.635-.594l.625-.603-.128 1.458-.341.073-.007.169 1.123.093.025-.187-.355-.114.172-1.983.371-.055.002-.092.006-.092-1.121-.095-.009.086-.012.087.319.126-.014.155-1.26 1.202.128-1.456.362-.054.006-.091.007-.092-1.125-.095" fill="#fff"/><path d="M46.823 88.762l-.155.001-.084.143c-.117-.063-.228-.102-.325-.119l-.288-.024h-.005c-.214.001-.396.043-.544.124-.146.082-.265.189-.357.32-.093.129-.157.276-.197.44-.04.166-.059.329-.057.494.002.432.104.753.305.965.2.21.492.316.878.316h.01c.136-.002.28-.017.439-.045.16-.03.302-.075.432-.139l-.073-.241c-.134.043-.257.071-.381.086l-.339.02h-.007c-.168 0-.305-.027-.409-.081-.107-.054-.188-.128-.248-.222-.058-.093-.098-.198-.118-.32l-.033-.376c0-.142.014-.277.037-.403.025-.127.065-.237.125-.334.059-.094.137-.169.23-.224.093-.056.208-.085.345-.085h.014l.273.029c.084.019.163.053.236.101l.146.362.167-.02-.016-.767" fill="#fff"/><path d="M49.264 88.674l-.547.044-.549.038-.565.03-.532.022-.049.029.035.721.171.011.142-.521.598-.035.128 2.01-.341.129.023.16 1.13-.068-.005-.18-.372-.066-.13-2.01.598-.039.206.503.168-.034-.058-.719-.051-.023" fill="#fff"/><path d="M50.023 90.112l.108-.479.13-.585.018-.003.264.54.221.446-.742.082m.426-1.627l-.316.095-.049.225-.056.22-.507 1.911-.277.113.028.181.959-.105-.018-.188-.363-.039.119-.546.903-.102.252.504-.301.123.033.179 1.039-.116-.014-.189-.226-.05-1.183-2.208-.025-.009" fill="#fff"/><path d="M53.003 90.462l-.128-.01-.175-.965c.117-.041.237-.075.354-.094l.204-.02.107.007.226.076.149.147.075.209.005.203-.079.182c-.042.056-.104.105-.184.147-.081.043-.184.075-.311.096l-.188.02-.053.002m.611-2.397l-.237.046-.245.046-.237.043-.195.035-.605.103-.341.054.011.173.335.04.356 1.966-.319.159.042.162.272-.057.293-.051.412-.066.395-.062c.126-.022.237-.061.335-.119.095-.057.172-.128.232-.21.058-.083.1-.175.121-.275.023-.101.025-.208.005-.316-.044-.246-.166-.427-.367-.542-.133-.075-.295-.114-.485-.114l-.288.025-.23.053-.219.068-.127-.697.29-.05.262-.043.201-.032.116-.02.116.202.112.201.081-.028.079-.027-.062-.331-.062-.326-.044-.013" fill="#fff"/><path d="M56.654 87.393l-1.094.256.02.084.015.086.344.021.039.15-.808 1.528-.349-1.419.326-.165-.024-.086-.025-.091-1.094.256.032.166.352.025.479 1.934-.305.179.045.158 1.101-.256-.022-.089-.02-.095-.365-.001-.04-.158c.142-.253.279-.507.407-.76l.399-.764.349 1.424-.298.173.048.162 1.097-.256-.037-.184h-.372l-.479-1.934.332-.166-.026-.089-.025-.088" fill="#fff"/><path d="M59.425 86.545l-.298.102-.267.086-.247.077-.251.076-.277.086-.213.063-.214.063-.29.078.042.165.404-.014c.099.334.175.61.223.832.049.222.079.408.091.556.011.148.007.27-.011.363l-.082.252-.476-.034c-.071.092-.091.187-.06.285.027.078.082.129.167.152l.112.015.164-.027c.162-.05.274-.14.347-.274.071-.135.107-.307.111-.519.002-.211-.026-.455-.084-.737-.06-.281-.142-.592-.248-.936l.693-.213.615 1.894-.286.197.061.154 1.062-.326-.053-.18-.367.029-.62-1.906.316-.188-.062-.172" fill="#fff"/><path d="M61.188 88.259l-.367-.923c.109-.065.217-.118.332-.161.128-.047.244-.072.344-.072l.193.035c.137.06.235.162.291.308l.047.201-.042.196c-.028.063-.077.123-.144.179-.066.056-.157.106-.27.149l-.086.028-.1.025-.104.022-.093.013m-.485-2.195l-1.047.398.052.159.353-.023.739 1.856-.281.215.076.15.277-.112.259-.097.388-.141.377-.137c.122-.044.221-.105.304-.179.079-.077.142-.161.184-.256.042-.092.064-.19.066-.295 0-.105-.022-.209-.064-.313-.091-.233-.248-.388-.467-.462-.085-.029-.178-.043-.277-.043-.153 0-.32.035-.501.103l-.214.095-.2.108-.259-.648.312-.202-.076-.176" fill="#fff"/><path d="M64.256 84.547l-1.012.466.066.158.344-.047.358.739-1.047.482-.36-.739.284-.224-.086-.163-1.017.467.069.157.348-.05.872 1.797-.261.236.079.15 1.022-.469-.078-.172-.356.07-.408-.836 1.048-.482.405.837-.259.232.086.149 1.02-.469-.081-.171-.363.073-.872-1.798.287-.228-.088-.163" fill="#fff"/><path d="M66.143 86.119h-.017c-.109-.004-.211-.036-.306-.093s-.188-.139-.274-.246c-.086-.106-.169-.232-.248-.373-.062-.116-.11-.233-.151-.351-.035-.117-.054-.232-.049-.341.002-.109.032-.209.085-.302.054-.091.142-.168.261-.232.113-.057.219-.084.319-.084h.032c.11.007.217.04.314.101.098.06.191.143.277.245.086.106.164.223.235.352.065.118.116.236.153.358.037.12.053.236.046.345-.007.11-.035.211-.091.302-.053.093-.139.17-.26.232-.115.06-.223.088-.326.088m-.242-2.332l-.088.002c-.154.011-.316.06-.479.144-.188.097-.331.213-.429.349-.1.135-.162.279-.186.432-.025.152-.018.313.022.478.037.163.1.327.188.487.2.365.441.601.729.709.108.041.221.062.338.062.187 0 .383-.053.587-.159.188-.098.335-.214.434-.347.1-.134.161-.278.186-.433.024-.151.017-.312-.023-.477-.04-.167-.104-.331-.193-.494-.093-.173-.201-.319-.326-.435-.121-.118-.254-.204-.398-.256-.116-.043-.237-.062-.364-.062" fill="#fff"/><path d="M68.272 82.273l-.133.077.007.166c-.137.004-.251.025-.346.061l-.263.125c-.184.11-.318.235-.401.379-.082.145-.128.296-.137.453-.009.157.011.317.065.477.051.16.121.31.21.452.229.369.485.595.771.674l.255.036c.21 0 .437-.071.674-.21.112-.068.231-.155.354-.257.119-.105.217-.218.295-.337l-.188-.168c-.091.101-.184.189-.281.262l-.279.189c-.146.086-.282.133-.401.14h-.04c-.104 0-.2-.024-.29-.068-.098-.051-.188-.123-.27-.214-.081-.093-.158-.194-.227-.305-.075-.124-.135-.245-.181-.366-.046-.12-.068-.236-.068-.348 0-.11.026-.213.079-.308.049-.095.135-.177.251-.246l.261-.118.213-.032h.044l.314.236.133-.099-.418-.65" fill="#fff"/><path d="M70.459 80.911l-.058.006-.445.313-.453.309-.465.309-.448.285-.024.05.412.6.153-.075-.155-.518.492-.333 1.176 1.661-.223.278.104.128.93-.626-.098-.152-.354.13-1.18-1.658.494-.332.441.326.128-.113-.43-.588" fill="#fff"/><path d="M72.559 82.109l-.625-.781c.082-.092.172-.175.268-.245.167-.127.316-.19.454-.19l.051.002c.146.018.273.091.371.214l.103.179.02.199-.088.213c-.046.071-.118.145-.213.217l-.073.051-.088.053-.095.051-.084.038m-1.117-1.965l-.883.676.1.136.33-.12 1.255 1.571-.204.284.118.123.23-.184.218-.167.331-.243.322-.236c.102-.078.179-.165.235-.258.053-.094.091-.192.102-.295.012-.101.003-.201-.027-.303-.031-.098-.079-.192-.151-.279-.157-.198-.352-.303-.582-.312l-.035-.001c-.22 0-.453.093-.696.275l-.177.151-.158.162-.44-.551.242-.281-.129-.147" fill="#fff"/><path d="M13.767 66.312l-.164.208c.118.082.22.17.306.262l.226.268c.104.141.166.274.184.395.016.12.002.234-.044.339-.044.105-.116.203-.209.294-.091.092-.194.176-.307.255-.124.088-.248.16-.374.218-.125.056-.248.089-.367.097l-.06.003c-.098 0-.188-.018-.277-.054-.107-.044-.202-.125-.284-.236-.067-.086-.118-.172-.151-.254-.035-.082-.053-.167-.056-.258l.226-.341-.119-.126-.658.482.093.128.177-.021c.018.137.049.253.095.347l.158.257c.13.177.279.302.438.373.155.07.313.104.472.104l.027-.001c.17-.003.339-.04.502-.106.171-.067.323-.151.467-.252.377-.265.597-.547.658-.843.062-.296-.026-.605-.265-.929-.084-.11-.186-.222-.307-.337-.122-.113-.251-.203-.386-.272" fill="#fff"/><path d="M11.26 66.254l-.011-.017.403-.487.335-.403.415.644-.514.117-.627.146m1.099-2.358l-.18.095.056.231-1.608 2.086.002.027.235.249.242-.057.237-.047 2.082-.395.235.204.161-.109-.533-.835-.176.101.129.352-.585.137-.505-.785.374-.457.255.221.159-.109-.58-.905" fill="#fff"/><path d="M10.951 61.297l-.181.087.095.367-1.896.967-.254-.284-.171.096.543 1.013.166-.076-.066-.345.779-.398.563 1.047-.779.398-.253-.282-.172.097.547 1.014.164-.075-.069-.351 1.894-.969.265.258.158-.089-.547-1.018-.185.085.094.361-.882.45-.563-1.046.882-.448.261.254.158-.094-.55-1.018" fill="#fff"/><path d="M10.377 60.008l-.184.07.069.379-1.973.825-.235-.309-.178.081.467 1.062.169-.061-.044-.365 1.973-.825.244.279.16-.075-.468-1.06m-.542-1.239l-.142.018-.749 1.704-.696-.229c-.133-.046-.254-.102-.365-.163-.11-.062-.217-.14-.314-.231l-.188.081.37.841.179-.066-.028-.283 1.251.355.067-.029.855-1.671-.239-.326" fill="#fff"/><path d="M9.189 56.988l-.186.055.037.384-2.045.7-.209-.574.462-.347-.085-.156-.726.262-.009.056.202.524.195.53.193.545.172.517.044.039.735-.242-.035-.169-.581.009-.208-.574 2.045-.701.23.298.159-.067-.391-1.088" fill="#fff"/><path d="M7.813 55.481l-.293.085.303.995.293-.083-.303-.997" fill="#fff"/><path d="M7.86 52.246l-.193.041.002.378-2.087.503-.177-.334-.188.052.177.666.17.669.171.676.166.678.175-.035.02-.358 2.085-.502.193.31.17-.049-.279-1.105-.195.04.002.371-2.08.5-.293-1.152 2.078-.502.193.309.171-.054-.281-1.105" fill="#fff"/><path d="M7.458 49.96l-.755.022-.016.151.555.167.035.203.051.281.049.282.035.204-.979.154-.127-.95-.307.05.188.939-.874.14-.149-.873.463-.239-.053-.167-.737.133-.018.045.046.239.037.21.04.209.042.235.034.2.044.265.044.278.031.233.188-.006.044-.325 2.129-.335.164.325.172-.046-.046-.242-.049-.268-.046-.264-.035-.225-.044-.279-.035-.234-.036-.226-.037-.249-.046-.036" fill="#fff"/><path d="M5.303 47.554l-.771.085-.022.052.066.557.06.56.056.573.04.541.033.047.776-.062.007-.176-.567-.124-.06-.608 2.155-.205.151.342.172-.028-.115-1.149-.195.01-.058.383-2.155.204-.062-.606.53-.229-.04-.17" fill="#fff"/><path d="M6.353 45.097l-.036.149.53.232.009.205.014.285.012.285.007.208-.99.034-.002-.959-.312.011.065.957-.887.03-.031-.885.49-.179-.036-.172-.746.04-.023.043.014.244.014.211.011.213.008.24.007.202.011.267.007.283.005.234.186.017.084-.315 2.158-.073.119.345.177-.027-.012-.246-.016-.273-.011-.265-.009-.23-.006-.282-.006-.237-.003-.228-.007-.252-.04-.041-.753-.072" fill="#fff"/><path d="M5.771 44.112l-1.032-.028-.025-.287c.005-.201.053-.358.139-.474.085-.11.22-.167.404-.167h.024l.191.035.174.107c.05.051.091.124.119.211.028.089.042.203.037.341l-.009.113-.022.148m-.547-1.419c-.122 0-.229.019-.322.057-.098.041-.184.102-.25.179-.067.078-.116.173-.151.283-.032.113-.051.233-.056.369l-.002.361-.005.368-.007.16-.007.12-.005.107-.005.113.183.033.101-.315 2.161.056.102.346.179-.003.031-1.149-.204-.009-.095.371-.832-.021.04-.237.011-.173c.005-.165-.016-.31-.058-.435-.042-.126-.101-.23-.179-.315-.075-.087-.166-.15-.27-.196-.104-.044-.213-.067-.328-.071h-.033" fill="#fff"/><path d="M6.94 41.8l-1.05-.092c-.012-.127-.012-.253 0-.376.011-.122.036-.224.071-.308.037-.083.084-.149.142-.201.056-.053.121-.088.193-.107l.168-.02.069.003.212.052.167.129c.046.056.082.129.103.22.023.091.027.202.016.331l-.033.192-.058.176m-.465-1.547c-.223 0-.412.071-.563.215-.174.165-.277.412-.306.739l-.009.24.011.235-.755-.067.027-.3.026-.267.023-.205.011-.122.24-.056.237-.056-.005-.086-.006-.085-.36-.03-.356-.029-.027.04-.017.244-.018.256-.019.245-.016.201-.06.623-.037.352.181.035.135-.318 2.136.189.079.355.18.006.015-.284.027-.303.044-.423.044-.405c.011-.13.002-.25-.034-.361-.033-.109-.084-.207-.152-.287-.071-.08-.155-.147-.253-.196-.1-.051-.209-.081-.325-.091l-.1-.003" fill="#fff"/><path d="M5.11 37.471l-.146.919.204.039.144-.323.291.176.325.181.306.168.232.135-.002.014-1.207.303-.211.041-.137.009-.065-.003-.115.717.191.049.13-.262 1.668-.462.037-.236.248.151.198.158c.056.061.087.12.092.178l-.293.355.098.156.15.077.041.003c.068 0 .128-.029.186-.083.066-.066.109-.159.128-.281.027-.163-.005-.307-.091-.434-.086-.126-.219-.242-.395-.347l-1.346-.822c-.255-.152-.409-.337-.463-.553l-.202-.022" fill="#fff"/><path d="M6.63 36.788l-1.011-.218.033-.287c.042-.194.12-.341.228-.44.076-.067.174-.102.29-.102l.16.019.181.067.149.137c.04.06.067.137.077.231.011.092.002.205-.028.34l-.031.11-.049.141m-.443-1.512l-.146.014c-.107.022-.202.065-.281.13-.082.064-.149.148-.204.25-.052.105-.094.221-.124.351l-.075.356-.074.36-.037.156-.028.118-.027.104-.026.11.172.063.162-.288 2.111.45.031.359.178.031.252-1.125-.197-.046-.166.348-.815-.172.086-.228.044-.168c.036-.16.045-.305.027-.436s-.056-.247-.116-.345c-.06-.098-.135-.177-.228-.24-.091-.061-.195-.105-.307-.129l-.211-.023" fill="#fff"/><path d="M6.249 33.038l-.033.034-.062.239-.058.209-.056.212-.066.234-.056.196-.074.26-.079.27-.071.225.174.068.177-.273 2.08.564.009.358.175.04.318-1.109-.188-.057-.194.339-2.064-.56.051-.178.075-.258.076-.257.049-.172.521-.023.022-.172-.724-.187" fill="#fff"/><path d="M6.931 30.818l-.051.151.118.129c-.104.093-.181.183-.232.274l-.126.276c-.071.208-.092.395-.058.564.031.17.1.321.202.454.099.133.228.246.38.34.153.094.313.169.481.223.239.08.455.119.65.119.161 0 .307-.027.436-.083.284-.123.492-.373.625-.751.044-.128.079-.275.102-.437.026-.162.026-.317.007-.463l-.27-.012c0 .141-.014.273-.043.398l-.093.331c-.058.167-.133.289-.223.376-.093.084-.197.136-.31.162l-.193.02-.176-.013c-.128-.022-.259-.055-.391-.098-.144-.049-.277-.107-.399-.173-.119-.066-.217-.144-.295-.233-.075-.088-.126-.189-.15-.3-.025-.108-.014-.231.031-.361l.128-.266c.046-.076.109-.138.181-.193l.42-.018.035-.167-.785-.249" fill="#fff"/><path d="M7.587 29.405l-.455 1.065.162.074.237-.284 1.982.804-.036.365.169.061.454-1.067-.179-.081-.232.312-1.982-.802.065-.381-.184-.065m.468-1.118l-.358.844.171.077.186-.215.614 1.122.068.027 1.825-.569.074-.392-.113-.088-1.774.664-.316-.646c-.06-.124-.104-.244-.137-.368-.029-.12-.048-.245-.048-.379l-.191-.076" fill="#fff"/><path d="M9.598 25.271l-.532 1.023.082.043.081.045.252-.253.149.074.702 1.664-1.4-.692.088-.366-.088-.04-.088-.043-.536 1.025.16.086.256-.255 1.91.941-.065.36.164.072.535-1.03-.088-.045-.088-.048-.25.285-.155-.077c-.111-.283-.226-.561-.348-.836l-.352-.825 1.402.695-.062.349.167.072.534-1.024-.176-.096-.254.292-1.908-.946.091-.369-.091-.039-.091-.043" fill="#fff"/><path d="M10.37 22.708l-.18.06.051.231.005.176-.022.125-.036.08c-.028.045-.091.084-.184.117-.082.03-.17.044-.265.044l-.046-.001-.016.162-.015.159.001.004.002.002.069.002.124-.007.204-.052.188-.101.151-.166c.062-.094.093-.212.095-.35.002-.137-.042-.299-.126-.486m.97-.24l-.614.977.077.05.078.052.27-.232.142.086.563 1.71-1.338-.798.118-.357-.084-.047-.086-.049-.616.98.15.101.277-.238 1.826 1.09-.091.351.155.085.619-.984-.084-.052-.088-.054-.272.263-.146-.088c-.088-.291-.179-.577-.274-.858l-.286-.853 1.339.801-.088.345.16.086.616-.981-.169-.109-.274.268-1.825-1.088.121-.361-.088-.046-.086-.049" fill="#fff"/><path d="M13.575 19.515l-.044.019-.146.199-.132.175-.133.178-.151.193-.124.161-.166.213-.178.223-.152.184.139.126.265-.191 1.719 1.27-.127.338.146.098.716-.917-.155-.123-.307.249-1.706-1.263.116-.147.166-.212.168-.211.111-.142.492.163.086-.154-.604-.431" fill="#fff"/><path d="M15.915 20.201l-.124-.012c-.116-.021-.237-.067-.365-.14-.125-.072-.253-.162-.386-.273-.109-.091-.202-.183-.286-.285-.082-.103-.142-.207-.181-.315-.04-.106-.051-.215-.034-.325.016-.11.071-.219.164-.323.095-.108.197-.179.307-.214l.209-.031.137.012c.119.023.242.07.365.139.125.071.248.155.367.256.109.091.204.189.288.293.085.104.144.21.183.318.035.109.046.219.028.327-.018.11-.07.219-.164.324-.093.105-.192.176-.298.212l-.211.036m-.527-2.302h-.01c-.162.002-.315.039-.466.109-.147.07-.286.176-.412.318-.144.163-.239.33-.284.498-.044.168-.049.332-.011.492.036.158.104.312.206.457.102.147.228.283.377.408.335.279.662.42.981.42h.005c.321 0 .611-.147.866-.436.146-.167.244-.332.288-.5.044-.167.049-.33.012-.49-.035-.157-.105-.312-.208-.46-.104-.146-.228-.283-.381-.41-.16-.133-.321-.235-.49-.304-.159-.067-.316-.102-.474-.102" fill="#fff"/><path d="M16.986 15.725l-.111.116.049.163c-.135.041-.248.091-.335.151l-.232.197c-.158.157-.257.319-.302.485-.044.168-.051.332-.017.494.031.165.098.32.195.467.094.148.205.284.333.403.335.317.654.477.966.486l.026.001c.299 0 .587-.139.866-.418.098-.098.195-.214.288-.35.093-.138.163-.276.209-.416l-.237-.124c-.065.128-.137.24-.215.339l-.23.262c-.126.126-.248.208-.367.245l-.211.031-.142-.013c-.112-.027-.226-.077-.332-.149-.108-.073-.21-.158-.312-.253-.111-.103-.206-.211-.284-.321-.078-.109-.133-.222-.162-.334-.031-.113-.031-.224-.006-.334.026-.109.09-.215.188-.314l.232-.188c.075-.048.159-.08.252-.097l.383.157.107-.135-.6-.552" fill="#fff"/><path d="M19.114 13.916l-.709.622.134.156.319-.163.116.317.137.341.128.317.093.249-.014.01-1.13-.506-.193-.099-.159-.118-.552.487.116.152.27-.123 1.595.664.181-.159.096.27.052.246c.005.08-.01.145-.044.194l-.456.094-.029.182.071.151c.049.052.111.078.186.078l.04-.001c.093-.011.188-.056.281-.14.127-.11.195-.241.209-.392.016-.152-.011-.323-.079-.513l-.517-1.465c-.096-.274-.096-.513 0-.711l-.142-.14" fill="#fff"/><path d="M21.088 15.402c-.011-.161-.04-.318-.088-.474-.049-.156-.109-.304-.181-.447-.071-.141-.149-.276-.236-.401l-.254-.344-.202-.247.665-.516 1.327 1.626-.244.193-.263.204-.523.405m.144-3.133l-.244.2-.217.169-.215.169-.251.192-.235.183-.188.145-.188.144-.242.179.113.15.337-.144.203.247c.109.133.209.273.299.42.091.145.169.292.23.439.062.148.107.295.133.439.025.144.029.283.011.415l-.191.191-.002.02v.022l.32.358.316.358.175-.134-.158-.329-.157-.327 1.504-1.164.551.468.188-.147-.549-.772-.044-.015-.268.166-.665-.809-.662-.809.226-.273-.067-.073-.066-.078" fill="#fff"/><path d="M23.21 12.847l-.142-.495-.174-.606.016-.01.516.373.428.308-.644.43m-.395-1.714l-.026.002-.246.238.071.233.057.23.485 2.012-.202.236.12.155.835-.553-.111-.167-.354.139-.164-.564.787-.52.484.344-.217.258.117.15.904-.6-.103-.17-.235.062-2.203-1.484" fill="#fff"/><path d="M25.445 11.109l-.522-.869.238-.171c.16-.093.306-.137.439-.137l.049.001c.146.012.269.102.37.265l.071.177-.005.199c-.018.071-.058.14-.12.212-.061.07-.154.143-.277.211l-.103.054-.141.059m.341-1.556l-.228.032c-.115.031-.232.081-.349.147l-.318.19-.323.19-.142.081-.109.057-.095.052-.101.056.068.167.328-.081 1.092 1.815-.248.267.098.146 1.02-.582-.1-.171-.374.115-.421-.697.228-.094.154-.082c.146-.084.264-.176.348-.277.088-.102.149-.207.181-.317.036-.107.042-.215.027-.326-.018-.107-.053-.21-.113-.308-.068-.113-.146-.201-.235-.261-.088-.062-.186-.099-.288-.114l-.1-.006" fill="#fff"/><path d="M28.117 8.159l-.146.07-.007.173h-.056c-.117 0-.221.012-.31.04l-.286.112c-.2.099-.35.22-.448.365-.096.144-.157.298-.179.463-.022.165-.011.33.032.503.042.171.101.335.184.487.21.403.463.658.753.762.107.039.217.057.335.057.202 0 .418-.056.649-.171.124-.063.255-.143.388-.244.135-.099.246-.209.335-.328l-.184-.19c-.102.099-.206.183-.315.253l-.303.177c-.158.077-.297.114-.42.114h-.01c-.126-.001-.239-.032-.339-.092-.1-.06-.188-.143-.265-.244-.081-.104-.149-.217-.213-.337-.07-.134-.124-.264-.162-.395-.037-.129-.052-.251-.044-.368.009-.115.044-.221.107-.317.06-.095.153-.173.281-.238l.281-.105.171-.019.1.006.31.271.146-.095-.383-.708" fill="#fff"/><path d="M30.591 7.159l-.523.231-.53.228-.541.225-.518.207-.037.044.297.698.175-.048-.053-.563.576-.242.862 1.936-.29.245.079.151 1.088-.46-.068-.176-.39.063-.862-1.936.574-.242.386.421.155-.089-.32-.69-.059-.003" fill="#fff"/><path d="M32.511 8.952l-.702-1.913.077-.038.093-.039.086-.035.062-.023c.116-.039.217-.06.311-.06l.117.012c.119.024.204.104.253.235l.017.113-.042.152-.142.171c-.066.059-.163.112-.293.159l-.015.039.098.17c.144-.047.27-.073.377-.08l.051-.001.217.032c.076.028.137.066.184.12l.111.188c.053.146.044.283-.027.41-.07.126-.214.226-.428.302l-.091.029-.105.023-.113.021-.095.012m.093-2.447c-.111 0-.237.025-.383.074l-.388.14-.391.141-.218.073-.228.072.04.179.337-.018.725 1.976-.299.221.076.157.298-.112.288-.101.405-.135.392-.13c.116-.041.215-.095.302-.166.086-.071.155-.152.203-.243.051-.089.081-.186.09-.291.01-.104-.007-.212-.044-.319-.069-.182-.178-.313-.33-.39-.111-.056-.234-.084-.366-.084l-.163.013-.005-.013.128-.108.107-.155.053-.194-.032-.215-.091-.16c-.044-.059-.105-.108-.181-.147-.079-.039-.175-.061-.29-.066h-.033" fill="#fff"/><path d="M35.233 5.655l-.238.074-.209.062-.206.065-.237.068-.198.056-.264.075-.279.078-.232.06.028.181.335.001.607 2.019-.31.197.069.161.24-.075.269-.081.261-.075.226-.065.28-.077.231-.065.227-.06.251-.07.028-.049-.116-.726-.154.004-.1.555-.204.06-.279.086-.281.081-.204.059-.279-.926.953-.24-.088-.293-.932.299-.251-.831.868-.249.299.419.164-.075-.227-.697-.046-.009" fill="#fff"/><path d="M38.596 4.915l-1.145.239.032.176.356.033.184.836-1.184.246-.183-.837.344-.162-.049-.188-1.15.24.032.176.365.03.446 2.039-.327.177.048.171 1.156-.24-.035-.192-.383-.011-.209-.95 1.187-.245.206.947-.321.179.049.17 1.156-.239-.04-.194-.388-.01-.445-2.038.349-.163-.051-.188" fill="#fff"/><path d="M41.889 4.442l-1.161.158.016.177.356.056.122.849-1.201.162-.121-.848.356-.138-.035-.189-1.166.157.018.177.363.056.295 2.062-.339.157.034.173 1.169-.157-.02-.197-.381-.038-.137-.96 1.201-.161.137.96-.335.152.037.176 1.168-.158-.023-.196-.386-.039-.295-2.065.36-.138-.033-.191" fill="#fff"/><path d="M43.651 6.696h-.044l-.11-.008-.113-.011-.095-.015-.053-1.037c.128-.03.255-.047.381-.054l.073-.001.251.029c.088.024.164.061.226.109.06.047.104.107.135.175l.052.225-.025.214-.104.181c-.051.052-.119.097-.206.131-.084.034-.189.054-.316.06l-.049.002m-.104-2.373l-1.18.059.001.175.362.091.105 2.082-.352.124.023.172.31-.021.29-.014.437-.015.419-.013c.133-.008.254-.035.363-.083.107-.048.197-.113.268-.192.074-.081.129-.171.167-.275.035-.103.053-.213.047-.329-.014-.262-.118-.465-.311-.609-.172-.129-.405-.196-.691-.196l-.1.003-.246.024-.237.045-.035-.729.379-.099-.018-.199m2.419-.113l-1.181.057-.002.172.366.088.103 2.088-.354.125.016.176 1.184-.059-.002-.192-.389-.07-.104-2.09.381-.108-.018-.188" fill="#fff"/><path d="M46.478 4.225l-.014.178.345.122-.088 2.083-.361.093.002.175 1.183.048.007-.096.007-.099-.371-.105.009-.169c.218-.217.428-.433.636-.654l.625-.655-.067 1.531-.353.088v.179l1.181.048.018-.198-.379-.104.088-2.081.386-.073-.002-.097.002-.096-1.176-.047-.007.091-.009.091.339.118-.005.161-1.262 1.312.066-1.528.375-.071.001-.096.002-.098-1.18-.049m1.091-.767l-.152.067-.151.064-.002.002-.002.004.1.161.144.147.181.113.221.05h.023c.108 0 .221-.029.338-.091.125-.067.251-.182.378-.348l-.142-.12-.184.155-.155.091-.122.041-.077.009-.011-.002c-.056-.001-.119-.034-.195-.096-.075-.065-.139-.145-.191-.246" fill="#fff"/><path d="M50.959 4.496l-.046.183.27.126.488 1.619.243.035-.15.243-.162.197c-.062.053-.124.083-.181.091l-.367-.283-.16.094-.077.15c-.011.082.015.154.084.219.066.064.163.105.29.123l.107.007c.124 0 .236-.033.336-.098.132-.086.248-.215.353-.388l.83-1.321c.155-.249.344-.4.565-.455l.02-.196-.944-.134-.037.198.332.137-.177.288-.185.319-.168.298-.137.228-.016-.003-.319-1.172-.044-.204-.009-.197-.737-.104" fill="#fff"/><path d="M53.752 4.902l-.048.172.321.175-.46 2.035-.373.03-.031.176 1.152.249.051-.191-.344-.163.214-.947 1.183.256-.214.944-.367.031-.029.177 1.155.247.047-.191-.348-.165.463-2.037.388-.007.034-.189-1.143-.247-.049.171.314.175-.191.837-1.185-.255.193-.836.383-.009.035-.19-1.15-.247" fill="#fff"/><path d="M57.033 5.63l-.06.167.304.205-.629 1.991h-.374l-.044.17 1.134.338.032-.092.031-.095-.328-.191.049-.162c.268-.155.53-.31.786-.473l.776-.479-.463 1.464h-.364l-.046.171 1.127.339.069-.187-.337-.194.629-1.992.389.024.025-.093.026-.093-1.123-.338-.031.085-.032.086.297.199-.049.156-1.564.956.46-1.46.383.021.027-.091.028-.094-1.13-.338" fill="#fff"/><path d="M60.8 9.323c-.102 0-.219-.024-.352-.076l-.084-.035-.098-.051-.1-.056-.079-.053.756-1.89.085.022.098.029.088.029.064.021c.16.063.279.141.353.238.075.096.084.21.033.342l-.064.094-.134.091-.221.038h-.011c-.088 0-.193-.023-.316-.068l-.04.02-.04.191c.142.056.252.116.337.18.084.063.144.129.184.196.037.067.058.136.058.205l-.045.215c-.057.143-.154.24-.294.292l-.178.029m-.544-2.706l-.088.162.263.199-.784 1.956-.374-.025-.049.166.301.107.284.108.397.157.386.154c.112.041.226.065.339.066h.012c.107 0 .211-.018.304-.051.098-.036.186-.091.261-.163.081-.072.141-.162.184-.271.071-.179.076-.347.014-.505-.064-.157-.184-.286-.352-.39l.005-.015.088.008.079-.006.188-.05.169-.112.124-.181.037-.181c.007-.073-.007-.147-.04-.225-.033-.08-.088-.159-.172-.236-.083-.08-.204-.148-.366-.21l-.384-.143-.39-.145-.213-.082-.221-.093" fill="#fff"/><path d="M62.584 7.519l-.098.154.25.215-.899 1.911-.37-.05-.058.166.236.098.254.109.251.109.212.096.264.118.217.104.213.098.235.106.058-.017.4-.624-.121-.096-.45.357-.193-.086-.268-.114-.269-.119-.192-.085.414-.877.879.428.13-.276-.905-.371.37-.788.826.369-.058.507.174.048.298-.669-.028-.039-.23-.096-.2-.084-.198-.087-.225-.097-.188-.084-.253-.112-.259-.12-.219-.102" fill="#fff"/><path d="M65.634 10.352l-.111-.009c-.093-.014-.203-.055-.33-.12l-.1-.059-.126-.086.49-.888.277.109c.179.096.304.207.37.335.067.13.053.277-.04.446l-.118.152-.177.101-.135.019m-.698-1.767l-.111.145.242.231-1.021 1.854-.364-.066-.077.156 1.041.542.1-.17-.299-.252.395-.714.2.141.154.088c.149.077.288.125.423.144l.158.012.214-.027c.113-.028.213-.077.299-.148.086-.07.158-.155.211-.254.066-.115.102-.226.107-.334.008-.104-.009-.204-.05-.297-.042-.094-.105-.179-.194-.258-.087-.078-.191-.15-.313-.213l-.33-.168-.335-.166-.142-.078-.11-.06-.095-.052-.102-.056" fill="#fff"/><path d="M67.586 10.119c-.16 0-.313.031-.455.092-.154.066-.296.163-.423.286-.128.125-.239.26-.332.408-.24.386-.333.727-.274 1.024.06.296.264.549.614.757.12.073.257.137.416.197.155.061.313.095.464.107l.068-.253c-.139-.033-.268-.075-.386-.128l-.314-.162c-.153-.091-.262-.19-.323-.296-.065-.106-.095-.215-.095-.331 0-.113.026-.23.075-.348.049-.119.111-.235.184-.352.083-.127.169-.24.262-.339.093-.099.193-.176.298-.228.104-.052.213-.077.327-.077h.007c.117 0 .234.036.356.109l.237.178c.066.064.116.135.155.22l-.076.399.16.071.419-.689-.137-.083-.158.083c-.066-.119-.142-.212-.221-.283l-.248-.178c-.191-.115-.374-.177-.553-.181h-.044" fill="#fff"/><path d="M69.283 11.042l-.111.139.221.288-1.244 1.693-.355-.112-.096.144.963.672.06-.076.059-.081-.25-.284.102-.138c.303-.063.602-.134.899-.207l.893-.214-.915 1.245-.346-.113-.1.149.959.669.125-.156-.255-.288 1.243-1.693.363.141.053-.082.056-.08-.957-.667-.056.073-.06.072.218.279-.095.133-1.792.423.912-1.242.355.139.056-.078.057-.081-.961-.669" fill="#fff"/><path d="M71.883 12.898l-.506.573.122.129.492-.298.48.389-1.381 1.623-.355-.139-.102.139.911.736.13-.141-.235-.309 1.383-1.626.483.39-.211.527.151.092.49-.589-.025-.053-.449-.349-.448-.355-.451-.371-.421-.357-.058-.01" fill="#fff"/><path d="M74.029 14.629l-.144.117.169.281-1.482 1.531-.332-.162-.108.14.191.163.205.184.202.182.17.157.209.194.175.166.167.16.188.173.06.002.584-.466-.082-.127-.543.196-.157-.142-.215-.191-.214-.194-.155-.143.68-.701.693.678.214-.222-.737-.633.609-.63.66.606-.219.462.149.099.502-.541-.014-.046-.188-.161-.159-.144-.162-.143-.181-.163-.151-.14-.202-.182-.208-.194-.174-.166" fill="#fff"/><path d="M75.821 16.308l-.575.508.107.142.524-.235.428.444-1.581 1.443-.335-.182-.12.123.811.844.146-.126-.193-.334 1.582-1.444.43.446-.278.496.138.11.56-.524-.016-.056-.403-.4-.397-.41-.399-.423-.374-.405-.056-.018" fill="#fff"/><path d="M78.428 19.122l-.622.454.091.15.547-.188.383.484-1.715 1.29-.314-.211-.13.112.726.914.158-.11-.16-.352 1.715-1.292.383.484-.323.468.126.123.607-.473-.009-.056-.361-.434-.358-.443-.357-.457-.332-.439-.053-.022" fill="#fff"/><path d="M80.137 21.267l-.168.083.102.309-1.791 1.181-.287-.231-.136.114.146.201.16.224.155.219.13.191.161.233.134.199.128.192.144.209.058.013.675-.328-.053-.143-.573.075-.12-.17-.168-.235-.167-.235-.117-.17.819-.541.525.811.26-.17-.578-.775.735-.486.51.732-.318.404.122.129.611-.421-.005-.05-.144-.198-.126-.173-.127-.172-.137-.199-.117-.166-.155-.224-.16-.233-.13-.199" fill="#fff"/><path d="M81.585 23.38l-.177.073.071.296-.611 1.119-.741-.04-.221-.025-.197-.05-.181-.091-.179-.146-.171.105.095.162.158.262.16.264.098.162.175-.086-.077-.271.956.002-.454.816-.204-.184-.163.108.551.919.184-.091-.066-.317.658-1.208.593.044.204.023.195.043.193.073.184.127.17-.103-.093-.158-.151-.251-.153-.253-.093-.158-.175.086.083.288-.838-.01.272-.509.053-.092.078-.109.091-.107.102-.089-.076-.124-.115-.19-.113-.189-.074-.124" fill="#fff"/><path d="M83.002 25.756l-.168.072.058.353-1.921.917-.254-.265-.162.085.518 1.033.186-.08-.082-.363.893-.426.534 1.062-.895.424-.255-.261-.159.088.521 1.034.181-.083-.082-.369 1.922-.915.246.289.175-.093-.516-1.025-.167.072.056.347-.791.377-.532-1.06.788-.378.246.288.176-.092-.517-1.032" fill="#fff"/><path d="M83.204 30.943l-.15-.011c-.116-.02-.22-.06-.313-.124-.093-.065-.164-.163-.217-.291-.056-.129-.074-.249-.058-.356.016-.11.06-.212.133-.3.071-.093.169-.177.293-.252.121-.077.265-.146.428-.21.13-.052.259-.088.39-.114l.235-.024.135.009c.117.017.221.055.314.12.091.064.164.162.218.289.054.131.073.253.052.365-.017.113-.066.214-.142.307-.075.095-.172.179-.294.254-.12.076-.253.143-.401.201-.133.051-.265.091-.399.114l-.223.022m.583-2.098l-.177.011c-.183.023-.362.07-.543.139-.412.162-.691.382-.837.662-.146.278-.146.595 0 .951.084.201.193.36.326.477.133.116.279.193.441.235.105.028.217.042.332.042l.181-.012c.181-.022.365-.067.549-.139.195-.077.363-.171.502-.284.138-.113.242-.236.315-.376.073-.14.11-.289.112-.451.005-.162-.028-.329-.101-.504-.083-.2-.191-.359-.324-.474-.133-.115-.28-.193-.442-.236-.107-.027-.217-.042-.335-.042" fill="#fff"/><path d="M85.572 31.525l-.177.043.023.412c-.357.104-.654.182-.896.234-.235.052-.436.086-.595.097l-.179.009-.211-.018-.272-.082.033-.485c-.066-.05-.135-.074-.205-.074l-.1.015c-.086.028-.139.084-.164.17-.024.086-.019.18.016.283.053.161.153.279.297.351.144.072.33.108.558.109h.012c.227 0 .483-.03.778-.092.302-.063.639-.149 1.004-.258l.237.705-2.034.638-.211-.288-.168.064.358 1.079.193-.056-.031-.376 2.043-.644.201.321.187-.065-.111-.305-.093-.27-.086-.253-.085-.254-.095-.285-.068-.213-.069-.22-.088-.295" fill="#fff"/><path d="M85.072 36.426c-.113 0-.215-.014-.311-.043-.112-.035-.208-.091-.291-.168-.083-.075-.139-.181-.174-.316-.035-.136-.035-.255-.005-.36.032-.107.088-.199.174-.281.084-.08.194-.149.328-.207.133-.059.286-.109.454-.149.135-.033.27-.052.403-.061h.071c.107 0 .204.011.297.036.112.032.21.086.293.163.082.076.14.182.175.318.035.137.035.258 0 .367-.035.108-.098.203-.186.285-.086.083-.195.151-.328.21-.132.057-.272.107-.428.144-.137.033-.274.052-.413.06l-.059.001m.496-2.023c-.168 0-.337.022-.514.063-.43.104-.737.284-.923.54-.186.255-.23.569-.137.941.053.211.137.386.252.517.116.135.248.232.401.295.154.064.323.098.505.102h.04c.174 0 .346-.021.525-.064.204-.05.383-.12.539-.211.152-.093.274-.202.365-.33.093-.127.151-.271.179-.429.029-.161.018-.331-.028-.513-.053-.212-.137-.381-.253-.514-.115-.133-.25-.231-.403-.296-.155-.062-.322-.097-.504-.102h-.044" fill="#fff"/><path d="M87.108 37.042l-.186.012-.04.319-2.127.36-.167-.319-.175.036.201 1.133.197-.025.023-.387 2.113-.358.033.181.044.266.044.262.032.176-.459.24.058.167.736-.137.017-.046-.051-.24-.042-.213-.042-.213-.044-.24-.035-.199-.049-.264-.046-.278-.035-.233" fill="#fff"/><path d="M87.518 39.373l-.181.009-.074.353-2.128.214-.149-.335-.176.027.122 1.147.098-.007.101-.009.056-.37.174-.017c.25.178.5.352.753.519l.758.507-1.564.157-.142-.326-.181.027.121 1.144.202-.013.051-.379 2.129-.213.13.359.098-.017.098-.011-.12-1.14-.093.007-.093.003-.07.346-.167.015-1.515-1.026 1.559-.158.132.353.094-.012.1-.012-.121-1.143" fill="#fff"/><path d="M87.662 42.63l-.102.346-2.14.046-.117-.346-.179.012.026 1.153h.202l.084-.365.175-.003c.234.198.47.39.707.577l.713.566-1.572.034-.116-.338-.181.012.026 1.15.202.002.082-.371 2.14-.046.1.369.098-.009.1-.004-.027-1.146h-.093l-.093-.004-.1.339-.163.003-1.427-1.142 1.569-.034.1.361.095-.004.104-.004-.027-1.15-.184-.003" fill="#fff"/><path d="M85.138 46.891l-.105 1.15.099.011.102.011.125-.353.172.014c.213.223.423.44.641.651l.642.64-1.566-.137-.075-.346-.185-.009-.103 1.144.198.024.127-.36 2.131.187.056.376.101.003.098.007.104-1.142-.093-.009-.091-.014-.137.326-.167-.015-1.286-1.29 1.564.137.057.369.098.007.1.007.107-1.146-.181-.024-.142.334-2.131-.186-.079-.356-.178-.009" fill="#fff"/><path d="M86.685 53.334l-2.091-.41.062-.3.064-.32.133-.64c.111.116.239.219.379.307.142.087.286.163.434.229.149.064.297.117.448.159l.418.103.319.064-.166.809m-2.705-2.474l-.044.21.337.152.335.154-.379 1.835-.734-.014-.047.232.93.245.044-.017.098-.294 1.041.202 1.041.202.009.351.1.014.1.017.058-.305.053-.265.054-.264.062-.304.058-.289.049-.228.049-.23.067-.287-.187-.043-.163.323-.316-.063c-.174-.033-.341-.077-.508-.133-.166-.055-.321-.118-.467-.192-.146-.073-.277-.157-.392-.252-.115-.095-.208-.198-.281-.308l.018-.268-.011-.017-.015-.017-.479-.074-.479-.074" fill="#fff"/><path d="M84.075 53.913l-.323 1.111.095.027.098.03.191-.326.166.046c.164.257.332.51.502.756l.51.747-1.513-.421-.009-.355-.177-.04-.322 1.105.193.061.191-.333 2.058.571-.016.382.095.019.098.025.321-1.102-.088-.028-.088-.03-.197.294-.159-.043-1.017-1.501 1.511.418-.016.373.095.024.098.024.321-1.105-.17-.057-.204.302-2.057-.57-.009-.365-.175-.04" fill="#fff"/><path d="M83.32 56.85c-.102.098-.193.211-.274.342-.081.13-.149.271-.206.424-.053.147-.088.291-.1.43-.011.139-.002.267.033.386.036.118.094.222.178.312.084.089.193.158.33.205l.242.046h.017l.218-.036.214-.125c.071-.056.128-.128.181-.218l.014.004.011.217.075.193.133.156.179.104.209.035h.011c.075 0 .155-.02.237-.059.084-.042.168-.108.25-.205.083-.095.155-.231.22-.404l.06-.197.046-.236.009-.256-.045-.263-.553-.176-.07.161.352.263c.02.084.023.176.005.277l-.07.275c-.053.148-.132.249-.234.306l-.181.051-.126-.021-.151-.095-.098-.176c-.019-.076-.026-.168-.019-.278.006-.108.033-.241.077-.394l-.044-.049-.217-.019-.018.059-.02.06c-.093.25-.203.42-.332.514-.082.057-.168.087-.259.087l-.168-.031-.185-.109c-.052-.047-.093-.106-.117-.178-.025-.073-.034-.158-.027-.256.007-.098.034-.212.083-.339l.117-.264c.051-.107.129-.228.226-.365l-.21-.158" fill="#fff"/><path d="M83.995 60.807l-.64-.049-.53-.039.311-.697.389.346.476.421-.007.018m-1.507-2.033l-.404.904.184.083.226-.302.448.391-.381.849-.598-.039.042-.33-.183-.066-.436.977.179.091.167-.176 2.675.112.022-.018.076-.329-.186-.16-.176-.166-1.513-1.447.041-.302-.184-.072" fill="#fff"/><path d="M83.957 63.574l-.175.017-.2.063-.181.115-.142.171c-.053.099-.077.219-.068.358.006.136.059.297.159.478l.172-.073-.064-.228-.018-.173.014-.127.031-.082c.027-.046.084-.089.178-.129.088-.039.192-.059.307-.06l.005-.165.005-.158-.002-.004-.002-.003h-.018m-2.633-2.202l-.553 1.021.088.046.088.049.255-.279.152.081c.107.283.218.563.332.838l.339.832-1.39-.714.068-.35-.166-.075-.55 1.017.176.097.256-.285 1.894.971-.098.37.091.039.086.043.55-1.013-.081-.044-.079-.046-.254.249-.149-.075-.674-1.674 1.387.713-.093.361.086.044.091.043.551-1.017-.16-.088-.261.253-1.892-.973.069-.357-.162-.075" fill="#fff"/><path d="M79.848 64.073l-.633.972.166.11.274-.258.843.519-.652.996-.839-.518.098-.349-.161-.084-.634.971.168.107.279-.262 1.806 1.118-.124.358.17.096.629-.963-.149-.103-.274.228-.744-.46.651-.996.742.46-.124.353.172.097.632-.969-.151-.101-.279.233-1.806-1.117.098-.351-.158-.088" fill="#fff"/><path d="M79.211 68.867l-.609-.189-.509-.158.467-.61.663.942-.012.014m-.988-2.314l-.606.789.16.12.288-.242.344.481-.569.742-.574-.171.119-.313-.161-.104-.656.853.154.126.202-.131 2.581.705.022-.012.153-.302-.142-.198-.13-.2-1.134-1.748.11-.286-.161-.109" fill="#fff"/></g></svg>