<?xml version="1.0" encoding="UTF-8" standalone="no"?>
<svg width="94px" height="51px" viewBox="0 0 94 51" version="1.1" xmlns="http://www.w3.org/2000/svg" xmlns:xlink="http://www.w3.org/1999/xlink" xmlns:sketch="http://www.bohemiancoding.com/sketch/ns">
    <!-- Generator: Sketch 3.2.2 (9983) - http://www.bohemiancoding.com/sketch -->
    <title>Imported Layers</title>
    <desc>Created with Sketch.</desc>
    <defs>
        <path d="M88.8945297,0.145272727 L5.21115676,0.145272727 C2.40538378,0.145272727 0.129059459,2.45263636 0.129059459,5.29833333 L0.129059459,28.2483333 C0.129059459,31.0935152 1.98619459,32.6935758 5.21115676,33.4008788 L88.8945297,50.9768182 C91.7008108,50.9768182 93.9751027,48.6694545 93.9751027,45.8242727 L93.9751027,5.29833333 C93.9751027,2.45263636 91.7008108,0.145272727 88.8945297,0.145272727 L88.8945297,0.145272727 Z M5.00181622,7.12248485 C3.89312432,7.12248485 2.99377297,6.21015152 2.99377297,5.08609091 C2.99377297,3.961 3.89312432,3.04918182 5.00181622,3.04918182 C6.11152432,3.04918182 7.00985946,3.961 7.00985946,5.08609091 C7.00985946,6.21015152 6.11152432,7.12248485 5.00181622,7.12248485 L5.00181622,7.12248485 Z" id="path-1"></path>
        <path id="path-3" d="M28.764777,50.0867443 L23.402835,0.145272727 L4.08513978,0.145272727 L0.283644848,44.1048791 L28.764777,50.0867443"></path>
    </defs>
    <g id="Page-1" stroke="none" stroke-width="1" fill="none" fill-rule="evenodd" sketch:type="MSPage">
        <g id="О-чемпионате-(дизайн)" sketch:type="MSArtboardGroup" transform="translate(-1356.000000, -3953.000000)">
            <g id="4_block" sketch:type="MSLayerGroup" transform="translate(-1.000000, 3657.000000)">
                <g id="logos" transform="translate(471.000000, 121.000000)">
                    <g id="2" transform="translate(0.000000, 175.000000)">
                        <g id="Imported-Layers" transform="translate(886.000000, 0.000000)">
                            <g id="Group-5">
                                <mask id="mask-2" sketch:name="Clip 2" fill="white">
                                    <use xlink:href="#path-1"></use>
                                </mask>
                                <g id="Clip-2"></g>
                                <path d="M88.8945297,0.145272727 L5.21115676,0.145272727 C2.40538378,0.145272727 0.129059459,2.45263636 0.129059459,5.29833333 L0.129059459,28.2483333 C0.129059459,31.0935152 1.98619459,32.6935758 5.21115676,33.4008788 L88.8945297,50.9768182 C91.7008108,50.9768182 93.9751027,48.6694545 93.9751027,45.8242727 L93.9751027,5.29833333 C93.9751027,2.45263636 91.7008108,0.145272727 88.8945297,0.145272727 L88.8945297,0.145272727 Z M5.00181622,7.12248485 C3.89312432,7.12248485 2.99377297,6.21015152 2.99377297,5.08609091 C2.99377297,3.961 3.89312432,3.04918182 5.00181622,3.04918182 C6.11152432,3.04918182 7.00985946,3.961 7.00985946,5.08609091 C7.00985946,6.21015152 6.11152432,7.12248485 5.00181622,7.12248485 L5.00181622,7.12248485 Z" id="Fill-1" fill="#84BF41" sketch:type="MSShapeGroup" mask="url(#mask-2)"></path>
                                <path d="M75.1273405,27.6904242 L15.7615135,9.49887879 C13.7707459,8.88893939 11.6681946,10.0310303 11.0655784,12.0504242 L6.21263784,28.3307576 C5.61052973,30.3496364 6.58965405,31.8883939 8.72777297,33.0912727 L64.3767892,63.7525758 C66.368573,64.3625152 68.4690919,63.2193939 69.0712,61.2005152 L77.6414595,32.4509394 C78.2435676,30.4315455 77.1191243,28.3003636 75.1273405,27.6904242" id="Fill-3" fill="#0D8B42" sketch:type="MSShapeGroup" mask="url(#mask-2)"></path>
                                <path d="M94.9725189,58.6994545 L87.3829081,-11.9906667 C87.1288541,-14.3613939 85.1065838,-16.0830303 82.865827,-15.8362727 L64.8036,-13.8436667 C62.5633514,-13.5958788 61.4724432,-11.8881515 61.208227,-9.10272727 L54.9630703,63.1148182 C55.2186486,65.4865758 57.2409189,67.2056364 59.4806595,66.9588788 L91.3771459,63.4393636 C93.6179027,63.1910606 95.2280973,61.070697 94.9725189,58.6994545" id="Fill-4" fill="#572A79" sketch:type="MSShapeGroup" mask="url(#mask-2)"></path>
                            </g>
                            <g id="Group-8" transform="translate(55.891892, 0.000000)">
                                <mask id="mask-4" sketch:name="Clip 7" fill="white">
                                    <use xlink:href="#path-3"></use>
                                </mask>
                                <g id="Clip-7"></g>
                                <path d="M19.2354486,27.6904242 L-40.1303784,9.49887879 C-42.1211459,8.88893939 -44.2236973,10.0310303 -44.8263135,12.0504242 L-49.6792541,28.3307576 C-50.2813622,30.3496364 -49.3022378,31.8883939 -47.1641189,33.0912727 L8.4848973,63.7525758 C10.4766811,64.3625152 12.5772,63.2193939 13.1793081,61.2005152 L21.7495676,32.4509394 C22.3516757,30.4315455 21.2272324,28.3003636 19.2354486,27.6904242" id="Fill-6" fill="#1A1918" sketch:type="MSShapeGroup" mask="url(#mask-4)"></path>
                            </g>
                            <path d="M14.8281189,20.74 C14.3311892,20.8584848 12.8871459,20.9764545 12.0076108,20.9764545 C9.84916757,20.9764545 8.17393514,20.3871212 8.17393514,17.5264848 L8.17393514,8.67566667 C8.17393514,8.49124242 8.32331892,8.33927273 8.50572973,8.33927273 L10.1484432,8.33927273 C10.3308541,8.33927273 10.4802378,8.49124242 10.4802378,8.67566667 L10.4802378,17.5264848 C10.4802378,18.6371515 10.8125405,18.9735455 11.7754054,18.9735455 L14.8281189,18.9735455 C15.0110378,18.9735455 15.1604216,19.1244848 15.1604216,19.3099394 L15.1604216,20.3871212 C15.1604216,20.6225455 15.0776,20.6900303 14.8281189,20.74" id="Fill-9" fill="#FFFFFF" sketch:type="MSShapeGroup"></path>
                            <path d="M25.5989946,20.8414848 L23.8399243,20.8414848 C23.6910486,20.8414848 23.5574162,20.7070303 23.5243892,20.5550606 L22.7607027,17.3580303 L18.9437946,17.3580303 L18.1806162,20.5550606 C18.1470811,20.7070303 18.0139568,20.8414848 17.8655892,20.8414848 L16.1055027,20.8414848 C15.9403676,20.8414848 15.8067351,20.7235152 15.8067351,20.5550606 C15.8067351,20.5385758 15.8240108,20.5050909 15.8240108,20.4716061 L18.5454378,9.92078788 C18.9437946,8.35627273 20.1383568,8.20481818 20.8527568,8.20481818 C21.5661405,8.20481818 22.7607027,8.35627273 23.1595676,9.92078788 L25.8804865,20.4716061 C25.8804865,20.5050909 25.8972541,20.5385758 25.8972541,20.5550606 C25.8972541,20.7235152 25.7651459,20.8414848 25.5989946,20.8414848 L25.5989946,20.8414848 Z M21.1179892,10.4426364 C21.0681946,10.2412121 21.0189081,10.1737273 20.8527568,10.1737273 C20.6860973,10.1737273 20.6368108,10.2412121 20.5865081,10.4426364 L19.3919459,15.4401212 L22.3125514,15.4401212 L21.1179892,10.4426364 L21.1179892,10.4426364 Z" id="Fill-10" fill="#FFFFFF" sketch:type="MSShapeGroup"></path>
                            <path d="M31.1256865,20.9764545 C29.7812324,20.9764545 28.768573,20.8914545 28.2538595,20.7915152 C27.706627,20.6900303 27.4581622,20.5050909 27.4581622,19.8822727 L27.4581622,9.28148485 C27.4581622,8.67566667 27.6736,8.45724242 28.2040649,8.37327273 C28.6364649,8.30578788 29.6816432,8.20481818 30.9763027,8.20481818 C33.9802378,8.20481818 36.0873622,9.08006061 36.0873622,11.6202727 L36.0873622,11.9566667 C36.0873622,13.0678485 35.5726486,14.0605455 34.5610054,14.4979091 C35.5726486,14.9352727 36.1706919,15.7935152 36.1706919,17.0556364 L36.1706919,17.3415455 C36.1706919,20.0172424 34.2124432,20.9764545 31.1256865,20.9764545 L31.1256865,20.9764545 Z M33.8476216,11.7557576 C33.8476216,10.5770909 33.1001946,10.1397273 30.9763027,10.1397273 C30.5779459,10.1397273 30.113027,10.1572424 29.764973,10.1737273 L29.764973,13.5891818 L31.8715892,13.5891818 C33.4147135,13.5891818 33.8476216,12.8494242 33.8476216,11.9906667 L33.8476216,11.7557576 L33.8476216,11.7557576 Z M33.9131676,17.0891212 C33.9131676,16.1633939 33.4314811,15.3051515 31.8715892,15.3051515 L29.764973,15.3051515 L29.764973,19.0075455 C30.1628216,19.0075455 30.7766162,19.0410303 31.1256865,19.0410303 C33.2500865,19.0410303 33.9131676,18.4851818 33.9131676,17.3075455 L33.9131676,17.0891212 L33.9131676,17.0891212 Z" id="Fill-11" fill="#FFFFFF" sketch:type="MSShapeGroup"></path>
                            <path d="M45.2312757,20.74 C44.7013189,20.8244848 44.0534811,20.9764545 42.0784649,20.9764545 C39.9205297,20.9764545 38.2447892,20.3871212 38.2447892,17.5264848 L38.2447892,11.6537576 C38.2447892,8.79363636 39.9205297,8.20481818 42.0784649,8.20481818 C44.0534811,8.20481818 44.7013189,8.35627273 45.2312757,8.44075758 C45.4807568,8.47372727 45.5635784,8.55821212 45.5635784,8.79363636 L45.5635784,9.87030303 C45.5635784,10.0557576 45.4141946,10.2077273 45.2312757,10.2077273 L41.8462595,10.2077273 C40.8839027,10.2077273 40.5348324,10.5436061 40.5348324,11.6537576 L40.5348324,13.4722424 L45.0331135,13.4722424 C45.2155243,13.4722424 45.3649081,13.6226667 45.3649081,13.8081212 L45.3649081,15.0197576 C45.3649081,15.2041818 45.2155243,15.3561515 45.0331135,15.3561515 L40.5348324,15.3561515 L40.5348324,17.5264848 C40.5348324,18.6371515 40.8839027,18.9735455 41.8462595,18.9735455 L45.2312757,18.9735455 C45.4141946,18.9735455 45.5635784,19.1244848 45.5635784,19.3099394 L45.5635784,20.3871212 C45.5635784,20.6225455 45.4807568,20.7070303 45.2312757,20.74" id="Fill-12" fill="#FFFFFF" sketch:type="MSShapeGroup"></path>
                            <path d="M54.459027,20.74 C53.9610811,20.8584848 52.5175459,20.9764545 51.6375027,20.9764545 C49.4795676,20.9764545 47.8043351,20.3871212 47.8043351,17.5264848 L47.8043351,8.67566667 C47.8043351,8.49124242 47.9532108,8.33927273 48.1361297,8.33927273 L49.7788432,8.33927273 C49.9617622,8.33927273 50.1106378,8.49124242 50.1106378,8.67566667 L50.1106378,17.5264848 C50.1106378,18.6371515 50.4429405,18.9735455 51.4052973,18.9735455 L54.459027,18.9735455 C54.6419459,18.9735455 54.7908216,19.1244848 54.7908216,19.3099394 L54.7908216,20.3871212 C54.7908216,20.6225455 54.7090162,20.6900303 54.459027,20.74" id="Fill-13" fill="#FFFFFF" sketch:type="MSShapeGroup"></path>
                            <path d="M65.9996865,20.8167576 L65.8335351,20.8167576 C65.6684,20.8167576 65.5520432,20.6658182 65.5520432,20.4968485 L65.5520432,9.05533333 C65.5520432,8.97136364 65.5017405,8.93736364 65.4346703,8.93736364 C65.3523568,8.93736364 65.3188216,8.97136364 65.2700432,9.08933333 L62.3982162,15.2299394 C62.1655027,15.718303 61.9175459,15.8367879 61.5527243,15.8367879 C61.1863784,15.8367879 60.9374054,15.718303 60.7057081,15.2299394 L57.8348973,9.08933333 C57.7851027,8.97136364 57.7520757,8.93736364 57.6682378,8.93736364 C57.6016757,8.93736364 57.5518811,8.97136364 57.5518811,9.05533333 L57.5518811,20.4968485 C57.5518811,20.6658182 57.4360324,20.8167576 57.2703892,20.8167576 L57.1042378,20.8167576 C56.9375784,20.8167576 56.8217297,20.6658182 56.8217297,20.4968485 L56.8217297,9.05533333 C56.8217297,8.5 57.1540324,8.23057576 57.6682378,8.23057576 C58.0665946,8.23057576 58.2993081,8.46651515 58.4314162,8.75190909 L61.3362703,14.9275455 C61.4023243,15.079 61.4521189,15.147 61.5527243,15.147 C61.6512973,15.147 61.7010919,15.079 61.7676541,14.9275455 L64.672,8.75190909 C64.8041081,8.46651515 65.0368216,8.23057576 65.4346703,8.23057576 C65.9498919,8.23057576 66.2821946,8.5 66.2821946,9.05533333 L66.2821946,20.4968485 C66.2821946,20.6658182 66.1653297,20.8167576 65.9996865,20.8167576" id="Fill-14" fill="#FFFFFF" sketch:type="MSShapeGroup"></path>
                            <path d="M75.2269297,20.8167576 L70.9451027,20.8167576 C69.6829622,20.8167576 68.9375676,20.3459091 68.9375676,18.9323333 L68.9375676,10.1994848 C68.9375676,8.78590909 69.6829622,8.31506061 70.9451027,8.31506061 L75.2269297,8.31506061 C75.4093405,8.31506061 75.5419568,8.4330303 75.5419568,8.6009697 L75.5419568,8.73542424 C75.5419568,8.90387879 75.4093405,9.00433333 75.2269297,9.00433333 L70.9451027,9.00433333 C70.1483892,9.00433333 69.6661946,9.15630303 69.6661946,10.1994848 L69.6661946,13.9008485 L75.2269297,13.9008485 C75.4093405,13.9008485 75.5419568,14.0018182 75.5419568,14.1697576 L75.5419568,14.3387273 C75.5419568,14.5066667 75.4093405,14.6246364 75.2269297,14.6246364 L69.6661946,14.6246364 L69.6661946,18.9323333 C69.6661946,19.9760303 70.1483892,20.1259394 70.9451027,20.1259394 L75.2269297,20.1259394 C75.4093405,20.1259394 75.5419568,20.2274242 75.5419568,20.3958788 L75.5419568,20.5303333 C75.5419568,20.6987879 75.4093405,20.8167576 75.2269297,20.8167576" id="Fill-15" fill="#FFFFFF" sketch:type="MSShapeGroup"></path>
                            <path d="M85.1843243,20.9172121 L85.1675568,20.9172121 C84.9185838,20.9172121 84.7697081,20.9172121 84.6203243,20.7997576 C84.5207351,20.7157879 84.4038703,20.5808182 84.3215568,20.4133939 L78.7283027,9.05533333 C78.6952757,8.98784848 78.6617405,8.93736364 78.5951784,8.93736364 C78.5621514,8.93736364 78.5128649,8.97136364 78.5128649,9.05533333 L78.5128649,20.4968485 C78.5128649,20.6658182 78.396,20.8167576 78.2303568,20.8167576 L78.0647135,20.8167576 C77.8990703,20.8167576 77.7816973,20.6658182 77.7816973,20.4968485 L77.7816973,9.05533333 C77.7816973,8.55048485 78.114,8.23057576 78.5951784,8.23057576 C79.0600973,8.23057576 79.2430162,8.4330303 79.3918919,8.75190909 L84.9683784,20.0934848 C85.0014054,20.1604545 85.0344324,20.2104242 85.1009946,20.2104242 C85.1675568,20.2104242 85.1843243,20.1259394 85.1843243,20.0594848 L85.1843243,8.63445455 C85.1843243,8.46651515 85.2834054,8.31506061 85.4490486,8.31506061 L85.6487351,8.31506061 C85.8311459,8.31506061 85.9312432,8.46651515 85.9312432,8.63445455 L85.9312432,20.0594848 C85.9312432,20.597303 85.5989405,20.9172121 85.1843243,20.9172121" id="Fill-16" fill="#FFFFFF" sketch:type="MSShapeGroup"></path>
                            <path d="M40.1064973,29.0040606 L38.8326703,29.0040606 C38.7869405,29.0040606 38.7671243,28.9777879 38.7671243,28.9376061 L38.7671243,24.9621818 C38.7671243,24.922 38.7803351,24.8957273 38.826573,24.8957273 L40.0221514,24.8957273 C40.6913297,24.8957273 41.1252541,25.255303 41.1252541,25.9404545 C41.1252541,26.2474848 40.9469081,26.6008788 40.6389946,26.7667576 C40.6252757,26.7801515 40.6252757,26.8002424 40.6456,26.8136364 C41.0459892,26.9795152 41.2431351,27.3993636 41.2431351,27.812 C41.2431351,28.5110606 40.8092108,29.0040606 40.1064973,29.0040606 L40.1064973,29.0040606 Z M40.0145297,25.2614848 L39.2335676,25.2614848 C39.2005405,25.2614848 39.1873297,25.2681818 39.1873297,25.3083636 L39.1873297,26.5668788 C39.1873297,26.6075758 39.1939351,26.6209697 39.2335676,26.6209697 L40.0221514,26.6209697 C40.4545514,26.6209697 40.7111459,26.3273333 40.7111459,25.9347879 C40.7111459,25.5288485 40.4616649,25.2614848 40.0145297,25.2614848 L40.0145297,25.2614848 Z M40.0282486,26.9862121 L39.2335676,26.9862121 C39.2005405,26.9862121 39.1873297,27.0001212 39.1873297,27.0392727 L39.1873297,28.5847273 C39.1873297,28.617697 39.2071459,28.6310909 39.2396649,28.6310909 L40.0937946,28.6310909 C40.5536324,28.6310909 40.8229297,28.2854242 40.8229297,27.8248788 C40.8229297,27.3859697 40.5663351,26.9862121 40.0282486,26.9862121 L40.0282486,26.9862121 Z" id="Fill-17" fill="#FFFFFF" sketch:type="MSShapeGroup"></path>
                            <path d="M43.7064432,27.166 C43.6871351,27.1799091 43.6871351,27.2 43.6937405,27.2190606 C43.7064432,27.2391515 43.9889514,27.8655758 44.4686054,28.8912424 C44.5082378,28.9777879 44.4553946,29.0040606 44.4096649,29.0040606 L44.1535784,29.0040606 C44.0478919,29.0040606 44.0224865,28.9716061 43.9960649,28.8974242 L43.2796324,27.325697 C43.2598162,27.2860303 43.2405081,27.2592424 43.1744541,27.2592424 L42.3863784,27.2592424 C42.3472541,27.2592424 42.3340432,27.2793333 42.3340432,27.3133333 L42.3340432,28.9376061 C42.3340432,28.9777879 42.3147351,29.0040606 42.2756108,29.0040606 L41.9859892,29.0040606 C41.9468649,29.0040606 41.9209514,28.9839697 41.9209514,28.944303 L41.9209514,24.9688788 C41.9209514,24.922 41.9468649,24.8957273 41.9925946,24.8957273 L43.1617514,24.8957273 C43.9432216,24.8957273 44.3309081,25.3485455 44.3309081,26.0275152 C44.3309081,26.5205152 44.0224865,26.9398485 43.7064432,27.166 L43.7064432,27.166 Z M42.3929838,25.2614848 C42.3538595,25.2614848 42.3340432,25.2815758 42.3340432,25.3155758 L42.3340432,26.8404242 C42.3340432,26.8733939 42.3472541,26.8934848 42.3792649,26.8934848 L43.3451784,26.8934848 C43.3980216,26.8934848 43.4376541,26.8733939 43.4574703,26.86 C43.7262595,26.6936061 43.9035892,26.360303 43.9035892,26.0743939 C43.9035892,25.7014242 43.7526811,25.2614848 43.0896,25.2614848 L42.3929838,25.2614848 L42.3929838,25.2614848 Z" id="Fill-18" fill="#FFFFFF" sketch:type="MSShapeGroup"></path>
                            <path d="M47.1158486,29.0040606 C47.0701189,29.0040606 47.0497946,28.9906667 47.0365838,28.957697 L46.7871027,28.0453636 C46.7810054,28.0247576 46.7738919,28.0185758 46.7545838,28.0185758 L45.4202919,28.0185758 C45.3948865,28.0185758 45.3882811,28.0247576 45.3811676,28.0386667 C45.3420432,28.2246364 45.1850378,28.7717273 45.1382919,28.957697 C45.1321946,28.9906667 45.105773,29.0040606 45.0661405,29.0040606 L44.7973514,29.0040606 C44.7450162,29.0040606 44.7180865,28.9906667 44.7312973,28.923697 L45.7891784,24.9621818 C45.7952757,24.928697 45.8150919,24.8957273 45.867427,24.8957273 L46.3074486,24.8957273 C46.3531784,24.8957273 46.3735027,24.9086061 46.3867135,24.9549697 L47.4639027,28.9108182 C47.4766054,28.951 47.4832108,29.0040606 47.4171568,29.0040606 L47.1158486,29.0040606 L47.1158486,29.0040606 Z M45.8608216,26.2145152 L45.4863459,27.6121212 C45.4802486,27.6528182 45.4863459,27.659 45.5122595,27.659 L46.6494054,27.659 C46.6890378,27.659 46.6951351,27.6528182 46.6890378,27.6121212 L46.3145622,26.2212121 L46.1042054,25.3619394 C46.0976,25.3346364 46.0782919,25.3346364 46.0716865,25.3619394 L45.8608216,26.2145152 L45.8608216,26.2145152 Z" id="Fill-19" fill="#FFFFFF" sketch:type="MSShapeGroup"></path>
                            <path d="M48.2717946,24.8957273 C48.3571568,24.8957273 48.376973,24.9359091 48.41,24.9822727 L50.1177514,28.145303 C50.1243568,28.1581818 50.1370595,28.1653939 50.1370595,28.145303 L50.1370595,24.9621818 C50.1370595,24.922 50.1502703,24.8957273 50.1965081,24.8957273 L50.4785081,24.8957273 C50.5181405,24.8957273 50.5379568,24.922 50.5379568,24.9549697 L50.5379568,28.8974242 C50.5379568,28.9839697 50.4851135,29.0040606 50.4393838,29.0040606 L50.2356324,29.0040606 C50.1573838,29.0040606 50.1309622,28.9777879 50.1045405,28.923697 L48.3972973,25.7745758 C48.3906919,25.7606667 48.376973,25.7544848 48.376973,25.7745758 L48.376973,28.9376061 C48.376973,28.9777879 48.3637622,29.0040606 48.3119351,29.0040606 L48.0350162,29.0040606 C47.9964,29.0040606 47.9765838,28.9777879 47.9765838,28.9376061 L47.9765838,25.0219394 C47.9765838,24.9426061 47.9887784,24.8957273 48.0817622,24.8957273 L48.2717946,24.8957273" id="Fill-20" fill="#FFFFFF" sketch:type="MSShapeGroup"></path>
                            <path d="M52.5815676,29.0040606 L51.3859892,29.0040606 C51.3463568,29.0040606 51.3199351,28.9777879 51.3199351,28.9376061 L51.3199351,24.9621818 C51.3199351,24.922 51.3463568,24.8957273 51.3859892,24.8957273 L52.5876649,24.8957273 C53.3361081,24.8957273 53.7441189,25.3021818 53.7441189,26.0347273 L53.7441189,27.8248788 C53.7441189,28.5914242 53.3168,29.0040606 52.5815676,29.0040606 L52.5815676,29.0040606 Z M53.3168,26.0074242 C53.3168,25.5350303 53.0805297,25.2614848 52.5612432,25.2614848 L51.7929838,25.2614848 C51.7604649,25.2614848 51.7406486,25.2681818 51.7406486,25.3083636 L51.7406486,28.5847273 C51.7406486,28.617697 51.7538595,28.6310909 51.7929838,28.6310909 L52.5876649,28.6310909 C53.0536,28.6310909 53.3168,28.3647576 53.3168,27.8851515 L53.3168,26.0074242 L53.3168,26.0074242 Z" id="Fill-21" fill="#FFFFFF" sketch:type="MSShapeGroup"></path>
                            <path d="M58.0660865,29.0040606 L55.9376216,29.0040606 C55.8984973,29.0040606 55.8659784,28.9777879 55.8659784,28.9376061 L55.8659784,24.9621818 C55.8659784,24.922 55.8918919,24.8957273 55.9376216,24.8957273 L58.0132432,24.8957273 C58.0528757,24.8957273 58.0792973,24.922 58.0792973,24.9621818 L58.0792973,25.2017273 C58.0792973,25.2413939 58.0594811,25.2614848 58.0132432,25.2614848 L56.339027,25.2614848 C56.306,25.2614848 56.2861838,25.2681818 56.2861838,25.3083636 L56.2861838,26.6405455 C56.2861838,26.6735152 56.2988865,26.6869091 56.3324216,26.6869091 L57.7571568,26.6869091 C57.8033946,26.6869091 57.8227027,26.707 57.8227027,26.7538788 L57.8227027,27.0001212 C57.8227027,27.0392727 57.8033946,27.0593636 57.7642703,27.0593636 L56.339027,27.0593636 C56.306,27.0593636 56.2861838,27.0727576 56.2861838,27.1129394 L56.2861838,28.5847273 C56.2861838,28.617697 56.306,28.6310909 56.3324216,28.6310909 L58.0660865,28.6310909 C58.1052108,28.6310909 58.1316324,28.6511818 58.1316324,28.6913636 L58.1316324,28.9376061 C58.1316324,28.9777879 58.1113081,29.0040606 58.0660865,29.0040606" id="Fill-22" fill="#FFFFFF" sketch:type="MSShapeGroup"></path>
                            <path d="M59.0187892,24.8957273 C59.1041514,24.8957273 59.1239676,24.9359091 59.1564865,24.9822727 L60.8647459,28.145303 C60.8708432,28.1581818 60.8835459,28.1653939 60.8835459,28.145303 L60.8835459,24.9621818 C60.8835459,24.922 60.8972649,24.8957273 60.9429946,24.8957273 L61.2249946,24.8957273 C61.2651351,24.8957273 61.2849514,24.922 61.2849514,24.9549697 L61.2849514,28.8974242 C61.2849514,28.9839697 61.2316,29.0040606 61.1858703,29.0040606 L60.982627,29.0040606 C60.9038703,29.0040606 60.8769405,28.9777879 60.851027,28.923697 L59.1432757,25.7745758 C59.1376865,25.7606667 59.1239676,25.7544848 59.1239676,25.7745758 L59.1239676,28.9376061 C59.1239676,28.9777879 59.1102486,29.0040606 59.0579135,29.0040606 L58.7820108,29.0040606 C58.7433946,29.0040606 58.7235784,28.9777879 58.7235784,28.9376061 L58.7235784,25.0219394 C58.7235784,24.9426061 58.7362811,24.8957273 58.8287568,24.8957273 L59.0187892,24.8957273" id="Fill-23" fill="#FFFFFF" sketch:type="MSShapeGroup"></path>
                            <path d="M63.2553946,29.0442424 C62.5658919,29.0442424 62.0466054,28.645 62.0466054,27.9454242 L62.0466054,25.9404545 C62.0466054,25.2882727 62.5724973,24.8421515 63.2553946,24.8421515 C63.6618811,24.8421515 64.1024108,24.9951515 64.3127676,25.3284545 C64.3386811,25.3820303 64.3320757,25.4016061 64.2863459,25.4417879 L64.1024108,25.5880909 C64.0622703,25.6215758 64.0104432,25.6014848 63.9774162,25.5546061 C63.8072,25.3155758 63.510973,25.221303 63.262,25.221303 C62.7564324,25.221303 62.4668108,25.5618182 62.4668108,25.9811515 L62.4668108,27.9320303 C62.4668108,28.3786667 62.7955568,28.6779697 63.2553946,28.6779697 C63.6883027,28.6779697 63.9967243,28.4116364 63.9967243,27.9387273 L63.9967243,27.2128788 C63.9967243,27.1799091 63.990627,27.159303 63.9581081,27.159303 L63.4261189,27.159303 C63.3864865,27.159303 63.3600649,27.1459091 63.3600649,27.0995455 L63.3600649,26.8471212 C63.3600649,26.8069394 63.379373,26.7801515 63.4261189,26.7801515 L64.3584973,26.7801515 C64.3981297,26.7801515 64.4306486,26.8069394 64.4306486,26.8471212 L64.4306486,27.9454242 C64.4306486,28.5847273 63.9581081,29.0442424 63.2553946,29.0442424" id="Fill-24" fill="#FFFFFF" sketch:type="MSShapeGroup"></path>
                            <path d="M65.6267351,29.0040606 L65.3315243,29.0040606 C65.2918919,29.0040606 65.2659784,28.9839697 65.2659784,28.944303 L65.2659784,24.9549697 C65.2659784,24.915303 65.2852865,24.8957273 65.3315243,24.8957273 L65.6267351,24.8957273 C65.6668757,24.8957273 65.6927892,24.922 65.6927892,24.9549697 L65.6927892,28.9376061 C65.6927892,28.9777879 65.672973,29.0040606 65.6267351,29.0040606" id="Fill-25" fill="#FFFFFF" sketch:type="MSShapeGroup"></path>
                            <path d="M66.9010703,24.8957273 C66.9864324,24.8957273 67.0062486,24.9359091 67.0387676,24.9822727 L68.747027,28.145303 C68.7531243,28.1581818 68.765827,28.1653939 68.765827,28.145303 L68.765827,24.9621818 C68.765827,24.922 68.7800541,24.8957273 68.8252757,24.8957273 L69.1077838,24.8957273 C69.1479243,24.8957273 69.1672324,24.922 69.1672324,24.9549697 L69.1672324,28.8974242 C69.1672324,28.9839697 69.1138811,29.0040606 69.0681514,29.0040606 L68.8649081,29.0040606 C68.7861514,29.0040606 68.7592216,28.9777879 68.7338162,28.923697 L67.0260649,25.7745758 C67.0199676,25.7606667 67.0062486,25.7544848 67.0062486,25.7745758 L67.0062486,28.9376061 C67.0062486,28.9777879 66.9925297,29.0040606 66.9407027,29.0040606 L66.6648,29.0040606 C66.6256757,29.0040606 66.6058595,28.9777879 66.6058595,28.9376061 L66.6058595,25.0219394 C66.6058595,24.9426061 66.6185622,24.8957273 66.7110378,24.8957273 L66.9010703,24.8957273" id="Fill-26" fill="#FFFFFF" sketch:type="MSShapeGroup"></path>
                            <path d="M72.1432216,29.0040606 L70.0152649,29.0040606 C69.9756324,29.0040606 69.9426054,28.9777879 69.9426054,28.9376061 L69.9426054,24.9621818 C69.9426054,24.922 69.9695351,24.8957273 70.0152649,24.8957273 L72.0903784,24.8957273 C72.1300108,24.8957273 72.1559243,24.922 72.1559243,24.9621818 L72.1559243,25.2017273 C72.1559243,25.2413939 72.1366162,25.2614848 72.0903784,25.2614848 L70.4156541,25.2614848 C70.3831351,25.2614848 70.3628108,25.2681818 70.3628108,25.3083636 L70.3628108,26.6405455 C70.3628108,26.6735152 70.3760216,26.6869091 70.4090486,26.6869091 L71.8337838,26.6869091 C71.8795135,26.6869091 71.8998378,26.707 71.8998378,26.7538788 L71.8998378,27.0001212 C71.8998378,27.0392727 71.8795135,27.0593636 71.8408973,27.0593636 L70.4156541,27.0593636 C70.3831351,27.0593636 70.3628108,27.0727576 70.3628108,27.1129394 L70.3628108,28.5847273 C70.3628108,28.617697 70.3831351,28.6310909 70.4090486,28.6310909 L72.1432216,28.6310909 C72.1823459,28.6310909 72.2082595,28.6511818 72.2082595,28.6913636 L72.2082595,28.9376061 C72.2082595,28.9777879 72.1884432,29.0040606 72.1432216,29.0040606" id="Fill-27" fill="#FFFFFF" sketch:type="MSShapeGroup"></path>
                            <path d="M74.9998054,29.0040606 L72.8723568,29.0040606 C72.8327243,29.0040606 72.8002054,28.9777879 72.8002054,28.9376061 L72.8002054,24.9621818 C72.8002054,24.922 72.8261189,24.8957273 72.8723568,24.8957273 L74.9484865,24.8957273 C74.9876108,24.8957273 75.0135243,24.922 75.0135243,24.9621818 L75.0135243,25.2017273 C75.0135243,25.2413939 74.9937081,25.2614848 74.9484865,25.2614848 L73.2732541,25.2614848 C73.240227,25.2614848 73.2204108,25.2681818 73.2204108,25.3083636 L73.2204108,26.6405455 C73.2204108,26.6735152 73.2331135,26.6869091 73.2666486,26.6869091 L74.6913838,26.6869091 C74.7371135,26.6869091 74.7574378,26.707 74.7574378,26.7538788 L74.7574378,27.0001212 C74.7574378,27.0392727 74.7371135,27.0593636 74.6979892,27.0593636 L73.2732541,27.0593636 C73.240227,27.0593636 73.2204108,27.0727576 73.2204108,27.1129394 L73.2204108,28.5847273 C73.2204108,28.617697 73.240227,28.6310909 73.2666486,28.6310909 L74.9998054,28.6310909 C75.0399459,28.6310909 75.0658595,28.6511818 75.0658595,28.6913636 L75.0658595,28.9376061 C75.0658595,28.9777879 75.0465514,29.0040606 74.9998054,29.0040606" id="Fill-28" fill="#FFFFFF" sketch:type="MSShapeGroup"></path>
                            <path d="M77.4631135,27.166 C77.4443135,27.1799091 77.4443135,27.2 77.4509189,27.2190606 C77.4631135,27.2391515 77.7461297,27.8655758 78.2257838,28.8912424 C78.2649081,28.9777879 78.2120649,29.0040606 78.1663351,29.0040606 L77.9102486,29.0040606 C77.8050703,29.0040606 77.7791568,28.9716061 77.7532432,28.8974242 L77.0368108,27.325697 C77.0169946,27.2860303 76.9971784,27.2592424 76.9316324,27.2592424 L76.1435568,27.2592424 C76.1044324,27.2592424 76.0907135,27.2793333 76.0907135,27.3133333 L76.0907135,28.9376061 C76.0907135,28.9777879 76.0719135,29.0040606 76.0322811,29.0040606 L75.7431676,29.0040606 C75.7040432,29.0040606 75.6776216,28.9839697 75.6776216,28.944303 L75.6776216,24.9688788 C75.6776216,24.922 75.7040432,24.8957273 75.749773,24.8957273 L76.9184216,24.8957273 C77.7004,24.8957273 78.0880865,25.3485455 78.0880865,26.0275152 C78.0880865,26.5205152 77.7791568,26.9398485 77.4631135,27.166 L77.4631135,27.166 Z M76.1501622,25.2614848 C76.1105297,25.2614848 76.0907135,25.2815758 76.0907135,25.3155758 L76.0907135,26.8404242 C76.0907135,26.8733939 76.1044324,26.8934848 76.1369514,26.8934848 L77.1023568,26.8934848 C77.1546919,26.8934848 77.1943243,26.8733939 77.2141405,26.86 C77.4834378,26.6936061 77.6607676,26.360303 77.6607676,26.0743939 C77.6607676,25.7014242 77.5098595,25.2614848 76.8462703,25.2614848 L76.1501622,25.2614848 L76.1501622,25.2614848 Z" id="Fill-29" fill="#FFFFFF" sketch:type="MSShapeGroup"></path>
                            <path d="M79.2430162,29.0040606 L78.9478054,29.0040606 C78.9091892,29.0040606 78.8822595,28.9839697 78.8822595,28.944303 L78.8822595,24.9549697 C78.8822595,24.915303 78.9025838,24.8957273 78.9478054,24.8957273 L79.2430162,24.8957273 C79.2831568,24.8957273 79.3095784,24.922 79.3095784,24.9549697 L79.3095784,28.9376061 C79.3095784,28.9777879 79.2892541,29.0040606 79.2430162,29.0040606" id="Fill-30" fill="#FFFFFF" sketch:type="MSShapeGroup"></path>
                            <path d="M80.5183676,24.8957273 C80.6037297,24.8957273 80.6235459,24.9359091 80.6555568,24.9822727 L82.3638162,28.145303 C82.3704216,28.1581818 82.3831243,28.1653939 82.3831243,28.145303 L82.3831243,24.9621818 C82.3831243,24.922 82.3963351,24.8957273 82.4420649,24.8957273 L82.7250811,24.8957273 C82.7642054,24.8957273 82.7840216,24.922 82.7840216,24.9549697 L82.7840216,28.8974242 C82.7840216,28.9839697 82.7316865,29.0040606 82.6854486,29.0040606 L82.4816973,29.0040606 C82.4029405,29.0040606 82.377027,28.9777879 82.3506054,28.923697 L80.6433622,25.7745758 C80.6362486,25.7606667 80.6235459,25.7544848 80.6235459,25.7745758 L80.6235459,28.9376061 C80.6235459,28.9777879 80.609827,29.0040606 80.5574919,29.0040606 L80.2815892,29.0040606 C80.2424649,29.0040606 80.2226486,28.9777879 80.2226486,28.9376061 L80.2226486,25.0219394 C80.2226486,24.9426061 80.2353514,24.8957273 80.327827,24.8957273 L80.5183676,24.8957273" id="Fill-31" fill="#FFFFFF" sketch:type="MSShapeGroup"></path>
                            <path d="M84.754973,29.0442424 C84.0654703,29.0442424 83.5461838,28.645 83.5461838,27.9454242 L83.5461838,25.9404545 C83.5461838,25.2882727 84.0720757,24.8421515 84.754973,24.8421515 C85.1624757,24.8421515 85.6024973,24.9951515 85.8128541,25.3284545 C85.8392757,25.3820303 85.8326703,25.4016061 85.7859243,25.4417879 L85.6024973,25.5880909 C85.563373,25.6215758 85.5105297,25.6014848 85.4775027,25.5546061 C85.3072865,25.3155758 85.0105514,25.221303 84.7615784,25.221303 C84.2555027,25.221303 83.9668973,25.5618182 83.9668973,25.9811515 L83.9668973,27.9320303 C83.9668973,28.3786667 84.2951351,28.6779697 84.754973,28.6779697 C85.1878811,28.6779697 85.4973189,28.4116364 85.4973189,27.9387273 L85.4973189,27.2128788 C85.4973189,27.1799091 85.4907135,27.159303 85.4576865,27.159303 L84.9262054,27.159303 C84.886573,27.159303 84.8606595,27.1459091 84.8606595,27.0995455 L84.8606595,26.8471212 C84.8606595,26.8069394 84.8794595,26.7801515 84.9262054,26.7801515 L85.8585838,26.7801515 C85.8982162,26.7801515 85.9312432,26.8069394 85.9312432,26.8471212 L85.9312432,27.9454242 C85.9312432,28.5847273 85.4576865,29.0442424 84.754973,29.0442424" id="Fill-32" fill="#FFFFFF" sketch:type="MSShapeGroup"></path>
                            <path d="M57.5000541,33.6368182 C57.5000541,34.3559697 57.1128757,34.9087273 56.3115892,34.9087273 L56.2191135,34.9087273 C55.4579676,34.9087273 55.0570703,34.4425152 55.0570703,33.7563333 L55.0570703,32.2582727 C55.0570703,31.613303 55.5631459,31.1733636 56.2389297,31.1733636 L57.1128757,31.1733636 C57.1525081,31.1733636 57.1784216,31.1929394 57.1784216,31.2336364 L57.1784216,31.4664848 C57.1784216,31.5061515 57.1586054,31.5262424 57.1194811,31.5262424 L56.2389297,31.5262424 C55.7801081,31.5262424 55.4579676,31.8255455 55.4579676,32.2582727 L55.4579676,33.7496364 C55.4579676,34.1761818 55.6419027,34.5625455 56.2191135,34.5625455 L56.3115892,34.5625455 C56.9020108,34.5625455 57.1062703,34.1303333 57.1062703,33.7037879 L57.1062703,32.9439394 C57.1062703,32.9243636 57.1062703,32.8774848 57.0407243,32.8774848 L56.2719568,32.8774848 C56.2328324,32.8774848 56.2130162,32.8573939 56.2130162,32.8177273 L56.2130162,32.5982727 C56.2130162,32.5580909 56.2460432,32.5318182 56.2785622,32.5318182 L57.5656,32.5318182 C57.7764649,32.5318182 58.0193405,32.4849394 58.2556108,32.3180303 C58.275427,32.2979394 58.2947351,32.2917576 58.3150595,32.2917576 C58.3348757,32.2917576 58.3541838,32.3056667 58.374,32.3252424 L58.4532649,32.4509394 C58.4720649,32.4777273 58.4791784,32.4978182 58.4791784,32.5179091 C58.4791784,32.544697 58.4654595,32.5580909 58.4461514,32.5776667 C58.2622162,32.7641515 57.8481081,32.8573939 57.6057405,32.871303 C57.5335892,32.8774848 57.5000541,32.9042727 57.5000541,32.9707273 L57.5000541,33.6368182" id="Fill-33" fill="#FFFFFF" sketch:type="MSShapeGroup"></path>
                            <path d="M63.3402486,34.8685455 L63.0638378,34.8685455 C63.0115027,34.8685455 62.9977838,34.8422727 62.9977838,34.8087879 L62.9977838,31.8719091 C62.9977838,31.8456364 62.9855892,31.8533636 62.9723784,31.8657273 L62.5516649,33.0248182 C62.4464865,33.2911515 62.0262811,34.3827576 61.9343135,34.6423939 C61.9144973,34.6753636 61.8885838,34.7222424 61.828627,34.7222424 L61.6258919,34.7222424 C61.5664432,34.7222424 61.5405297,34.7155455 61.5136,34.6485758 C61.4155351,34.3693636 61.0019351,33.2772424 60.8967568,32.9980303 C60.8637297,32.9042727 60.5293946,31.9723636 60.4897622,31.8791212 C60.4831568,31.8657273 60.4699459,31.8595455 60.4699459,31.8791212 L60.4699459,34.8020909 C60.4699459,34.8422727 60.456227,34.8685455 60.4104973,34.8685455 L60.1351027,34.8685455 C60.0949622,34.8685455 60.0690486,34.8484545 60.0690486,34.8087879 L60.0690486,30.8673636 C60.0690486,30.8070909 60.0949622,30.7602121 60.1676216,30.7602121 L60.371373,30.7602121 C60.4633405,30.7602121 60.4760432,30.7736061 60.5024649,30.8400606 C60.653373,31.2537273 61.2509081,32.871303 61.4084216,33.2834242 L61.7107459,34.1432121 C61.7239568,34.17 61.7498703,34.17 61.7630811,34.1432121 C61.8616541,33.8629697 61.960227,33.5574848 62.0659135,33.2772424 L62.965773,30.8338788 C62.9977838,30.780303 63.0242054,30.7602121 63.0897514,30.7602121 L63.3011243,30.7602121 C63.3864865,30.7602121 63.3986811,30.8070909 63.3986811,30.8673636 L63.3986811,34.8020909 C63.3986811,34.8484545 63.379373,34.8685455 63.3402486,34.8685455" id="Fill-34" fill="#FFFFFF" sketch:type="MSShapeGroup"></path>
                            <path d="M66.236973,34.8685455 C66.1912432,34.8685455 66.171427,34.8551515 66.1577081,34.8216667 L65.9087351,33.9098485 C65.9021297,33.8897576 65.8955243,33.8830606 65.8757081,33.8830606 L64.5429405,33.8830606 C64.5160108,33.8830606 64.5099135,33.8897576 64.5022919,33.9031515 C64.4641838,34.0896364 64.3061622,34.6362121 64.2594162,34.8216667 C64.2533189,34.8551515 64.2268973,34.8685455 64.187773,34.8685455 L63.9179676,34.8685455 C63.8661405,34.8685455 63.8392108,34.8551515 63.8524216,34.788697 L64.9103027,30.8271818 C64.9169081,30.7931818 64.9362162,30.7602121 64.9885514,30.7602121 L65.428573,30.7602121 C65.4748108,30.7602121 65.494627,30.7736061 65.5078378,30.8204848 L66.5855351,34.7758182 C66.5982378,34.816 66.6048432,34.8685455 66.5387892,34.8685455 L66.236973,34.8685455 L66.236973,34.8685455 Z M64.9824541,32.079 L64.6079784,33.4771212 C64.601373,33.517303 64.6079784,33.524 64.6338919,33.524 L65.7710378,33.524 C65.8106703,33.524 65.8167676,33.517303 65.8106703,33.4771212 L65.4356865,32.085697 L65.2253297,31.2269394 C65.2187243,31.1996364 65.1994162,31.1996364 65.1928108,31.2269394 L64.9824541,32.079 L64.9824541,32.079 Z" id="Fill-35" fill="#FFFFFF" sketch:type="MSShapeGroup"></path>
                            <path d="M68.9040324,33.031 C68.8847243,33.0443939 68.8847243,33.0644848 68.8913297,33.0840606 C68.9040324,33.1041515 69.1860324,33.7300606 69.6656865,34.7557273 C69.705827,34.8422727 69.6524757,34.8685455 69.6062378,34.8685455 L69.3506595,34.8685455 C69.2454811,34.8685455 69.2190595,34.8355758 69.1931459,34.7619091 L68.4772216,33.190697 C68.4574054,33.1505152 68.4380973,33.1237273 68.3720432,33.1237273 L67.5844757,33.1237273 C67.5443351,33.1237273 67.5311243,33.1443333 67.5311243,33.177303 L67.5311243,34.8020909 C67.5311243,34.8422727 67.5118162,34.8685455 67.4721838,34.8685455 L67.1835784,34.8685455 C67.1439459,34.8685455 67.1175243,34.8484545 67.1175243,34.8087879 L67.1175243,30.8338788 C67.1175243,30.7864848 67.1439459,30.7602121 67.1896757,30.7602121 L68.3593405,30.7602121 C69.1403027,30.7602121 69.5279892,31.2130303 69.5279892,31.8925152 C69.5279892,32.3844848 69.2190595,32.8043333 68.9040324,33.031 L68.9040324,33.031 Z M67.590573,31.1264848 C67.5509405,31.1264848 67.5311243,31.1465758 67.5311243,31.1800606 L67.5311243,32.7049091 C67.5311243,32.7383939 67.5443351,32.7574545 67.5773622,32.7574545 L68.5432757,32.7574545 C68.5961189,32.7574545 68.6347351,32.7383939 68.6545514,32.7244848 C68.9233405,32.5580909 69.1006703,32.2247879 69.1006703,31.9388788 C69.1006703,31.5659091 68.9507784,31.1264848 68.2871892,31.1264848 L67.590573,31.1264848 L67.590573,31.1264848 Z" id="Fill-36" fill="#FFFFFF" sketch:type="MSShapeGroup"></path>
                            <path d="M72.6416757,30.7602121 C72.7133189,30.7602121 72.7199243,30.8070909 72.6935027,30.8400606 L71.3805514,32.3983939 C71.3470162,32.4447576 71.3673405,32.4586667 71.4130703,32.4586667 C71.4984324,32.4447576 71.5964973,32.4385758 71.6752541,32.4447576 C72.3586595,32.4777273 72.6081405,32.9377576 72.6543784,33.5301818 L72.7463459,34.8087879 C72.7463459,34.8551515 72.7270378,34.8685455 72.6868973,34.8685455 L72.4109946,34.8685455 C72.3713622,34.8685455 72.3520541,34.8551515 72.3520541,34.816 L72.2666919,33.6105455 C72.2473838,33.2571515 72.1615135,32.7780606 71.4857297,32.7780606 C70.8810811,32.7780606 70.6443027,33.184 70.6443027,33.6306364 L70.6443027,34.8087879 C70.6443027,34.8484545 70.6310919,34.8685455 70.598573,34.8685455 L70.2830378,34.8685455 C70.2439135,34.8685455 70.2235892,34.8484545 70.2235892,34.816 L70.2235892,30.8271818 C70.2235892,30.780303 70.2373081,30.7602121 70.2830378,30.7602121 L70.598573,30.7602121 C70.6310919,30.7602121 70.6443027,30.780303 70.6443027,30.8204848 L70.6443027,32.5910606 C70.6443027,32.6575152 70.6712324,32.6647273 70.7103568,32.6183636 L72.2412865,30.8070909 C72.2732973,30.7736061 72.2936216,30.7602121 72.3256324,30.7602121 L72.6416757,30.7602121" id="Fill-37" fill="#FFFFFF" sketch:type="MSShapeGroup"></path>
                            <path d="M75.4926703,34.8685455 L73.3652216,34.8685455 C73.3255892,34.8685455 73.2930703,34.8422727 73.2930703,34.8020909 L73.2930703,30.8271818 C73.2930703,30.7864848 73.3189838,30.7602121 73.3652216,30.7602121 L75.4403351,30.7602121 C75.4799676,30.7602121 75.5058811,30.7864848 75.5058811,30.8271818 L75.5058811,31.0662121 C75.5058811,31.1063939 75.486573,31.1264848 75.4403351,31.1264848 L73.7656108,31.1264848 C73.7330919,31.1264848 73.7132757,31.1331818 73.7132757,31.1733636 L73.7132757,32.5050303 C73.7132757,32.538 73.7259784,32.5519091 73.7590054,32.5519091 L75.1837405,32.5519091 C75.2299784,32.5519091 75.2497946,32.5714848 75.2497946,32.6183636 L75.2497946,32.8646061 C75.2497946,32.9042727 75.2299784,32.9243636 75.1913622,32.9243636 L73.7656108,32.9243636 C73.7330919,32.9243636 73.7132757,32.9377576 73.7132757,32.9779394 L73.7132757,34.4492121 C73.7132757,34.4832121 73.7330919,34.4955758 73.7590054,34.4955758 L75.4926703,34.4955758 C75.5317946,34.4955758 75.5582162,34.5161818 75.5582162,34.5558485 L75.5582162,34.8020909 C75.5582162,34.8422727 75.5384,34.8685455 75.4926703,34.8685455" id="Fill-38" fill="#FFFFFF" sketch:type="MSShapeGroup"></path>
                            <path d="M78.2918378,31.1264848 L77.3518378,31.1264848 C77.3193189,31.1264848 77.2995027,31.1331818 77.2995027,31.1733636 L77.2995027,34.8020909 C77.2995027,34.8422727 77.2862919,34.8685455 77.2405622,34.8685455 L76.9448432,34.8685455 C76.9052108,34.8685455 76.8792973,34.8484545 76.8792973,34.8087879 L76.8792973,31.1800606 C76.8792973,31.1403939 76.8660865,31.1264848 76.8259459,31.1264848 L75.9072865,31.1264848 C75.8676541,31.1264848 75.8478378,31.1197879 75.8478378,31.0662121 L75.8478378,30.8271818 C75.8478378,30.7864848 75.8676541,30.7602121 75.9072865,30.7602121 L78.2918378,30.7602121 C78.3304541,30.7602121 78.3502703,30.7864848 78.3502703,30.8204848 L78.3502703,31.0662121 C78.3502703,31.1063939 78.3304541,31.1264848 78.2918378,31.1264848" id="Fill-39" fill="#FFFFFF" sketch:type="MSShapeGroup"></path>
                            <path d="M79.2435243,34.8685455 L78.9488216,34.8685455 C78.9091892,34.8685455 78.8827676,34.8484545 78.8827676,34.8087879 L78.8827676,30.8204848 C78.8827676,30.780303 78.9025838,30.7602121 78.9488216,30.7602121 L79.2435243,30.7602121 C79.2836649,30.7602121 79.3095784,30.7864848 79.3095784,30.8204848 L79.3095784,34.8020909 C79.3095784,34.8422727 79.2897622,34.8685455 79.2435243,34.8685455" id="Fill-40" fill="#FFFFFF" sketch:type="MSShapeGroup"></path>
                            <path d="M80.5183676,30.7602121 C80.6037297,30.7602121 80.6235459,30.8003939 80.6560649,30.8472727 L82.3638162,34.0097879 C82.3704216,34.0231818 82.3826162,34.0303939 82.3826162,34.0097879 L82.3826162,30.8271818 C82.3826162,30.7864848 82.3968432,30.7602121 82.4420649,30.7602121 L82.7250811,30.7602121 C82.7642054,30.7602121 82.7840216,30.7864848 82.7840216,30.8204848 L82.7840216,34.7619091 C82.7840216,34.8484545 82.7311784,34.8685455 82.6854486,34.8685455 L82.4822054,34.8685455 C82.4029405,34.8685455 82.3765189,34.8422727 82.3500973,34.788697 L80.6433622,31.6395758 C80.6367568,31.6256667 80.6235459,31.6194848 80.6235459,31.6395758 L80.6235459,34.8020909 C80.6235459,34.8422727 80.6103351,34.8685455 80.5574919,34.8685455 L80.2815892,34.8685455 C80.2424649,34.8685455 80.2231568,34.8422727 80.2231568,34.8020909 L80.2231568,30.8864242 C80.2231568,30.8070909 80.2353514,30.7602121 80.327827,30.7602121 L80.5183676,30.7602121" id="Fill-41" fill="#FFFFFF" sketch:type="MSShapeGroup"></path>
                            <path d="M84.7554811,34.9087273 C84.0659784,34.9087273 83.5461838,34.5094848 83.5461838,33.8104242 L83.5461838,31.8054545 C83.5461838,31.1532727 84.0725838,30.7066364 84.7554811,30.7066364 C85.1624757,30.7066364 85.6024973,30.8601515 85.8128541,31.1929394 C85.8392757,31.2465152 85.8326703,31.2666061 85.7854162,31.3062727 L85.6024973,31.4530909 C85.5623568,31.4860606 85.5105297,31.4664848 85.4775027,31.4190909 C85.3072865,31.1800606 85.0115676,31.086303 84.7615784,31.086303 C84.2560108,31.086303 83.9668973,31.4268182 83.9668973,31.8456364 L83.9668973,33.7970303 C83.9668973,34.2426364 84.294627,34.5419394 84.7554811,34.5419394 C85.1883892,34.5419394 85.4968108,34.2766364 85.4968108,33.8032121 L85.4968108,33.0773636 C85.4968108,33.0443939 85.4902054,33.0248182 85.4581946,33.0248182 L84.9262054,33.0248182 C84.886573,33.0248182 84.8606595,33.0109091 84.8606595,32.9645455 L84.8606595,32.7116061 C84.8606595,32.6709091 84.8799676,32.6451515 84.9262054,32.6451515 L85.8585838,32.6451515 C85.8977081,32.6451515 85.9312432,32.6709091 85.9312432,32.7116061 L85.9312432,33.8104242 C85.9312432,34.4492121 85.4581946,34.9087273 84.7554811,34.9087273" id="Fill-42" fill="#FFFFFF" sketch:type="MSShapeGroup"></path>
                            <path d="M67.2140649,40.7737273 C66.5047459,40.7737273 65.9854595,40.3482121 65.9854595,39.6682121 L65.9854595,36.686 C65.9854595,36.6458182 66.0052757,36.6257273 66.0515135,36.6257273 L66.3472324,36.6257273 C66.3858486,36.6257273 66.4056649,36.6525152 66.4056649,36.686 L66.4056649,39.6682121 C66.4056649,40.0813636 66.7145946,40.4074545 67.2140649,40.4074545 C67.7125189,40.4074545 68.0082378,40.0746667 68.0082378,39.6558485 L68.0082378,36.686 C68.0082378,36.6458182 68.0351676,36.6257273 68.0742919,36.6257273 L68.3700108,36.6257273 C68.4091351,36.6257273 68.4289514,36.6525152 68.4289514,36.686 L68.4289514,39.6682121 C68.4289514,40.3605758 67.8898486,40.7737273 67.2140649,40.7737273" id="Fill-43" fill="#FFFFFF" sketch:type="MSShapeGroup"></path>
                            <path d="M70.4918703,38.9222727 L69.7098919,38.9222727 C69.6707676,38.9222727 69.6575568,38.9428788 69.6575568,38.9825455 L69.6575568,40.6676061 C69.6575568,40.7077879 69.6377405,40.7340606 69.5909946,40.7340606 L69.3095027,40.7340606 C69.2698703,40.7340606 69.2368432,40.7134545 69.2368432,40.6737879 L69.2368432,36.692697 C69.2368432,36.6525152 69.2632649,36.6257273 69.3095027,36.6257273 L70.4847568,36.6257273 C71.2072865,36.6257273 71.6412108,37.1187273 71.6412108,37.7837879 C71.6412108,38.4297879 71.1615568,38.9222727 70.4918703,38.9222727 L70.4918703,38.9222727 Z M69.7098919,36.992 C69.6707676,36.992 69.6509514,37.0053939 69.6509514,37.0388788 L69.6509514,38.5096364 C69.6509514,38.5431212 69.6636541,38.5632121 69.7032865,38.5632121 L70.4847568,38.5632121 C70.9445946,38.5632121 71.2276108,38.25 71.2276108,37.7776061 C71.2276108,37.3783636 70.9705081,36.992 70.4847568,36.992 L69.7098919,36.992 L69.7098919,36.992 Z" id="Fill-44" fill="#FFFFFF" sketch:type="MSShapeGroup"></path>
                            <path d="M73.447027,40.7340606 L72.2519568,40.7340606 C72.2123243,40.7340606 72.1864108,40.7077879 72.1864108,40.6676061 L72.1864108,36.692697 C72.1864108,36.6525152 72.2123243,36.6257273 72.2519568,36.6257273 L73.4536324,36.6257273 C74.2025838,36.6257273 74.6105946,37.0321818 74.6105946,37.7647273 L74.6105946,39.5553939 C74.6105946,40.3219394 74.1827676,40.7340606 73.447027,40.7340606 L73.447027,40.7340606 Z M74.1827676,37.7374242 C74.1827676,37.2650303 73.9470054,36.992 73.4277189,36.992 L72.6589514,36.992 C72.6259243,36.992 72.6071243,36.9981818 72.6071243,37.0388788 L72.6071243,40.3147273 C72.6071243,40.3482121 72.619827,40.3605758 72.6589514,40.3605758 L73.4536324,40.3605758 C73.9200757,40.3605758 74.1827676,40.0947576 74.1827676,39.6156667 L74.1827676,37.7374242 L74.1827676,37.7374242 Z" id="Fill-45" fill="#FFFFFF" sketch:type="MSShapeGroup"></path>
                            <path d="M77.4539676,40.7340606 C77.4087459,40.7340606 77.3889297,40.7201515 77.3752108,40.6871818 L77.1257297,39.7748485 C77.1196324,39.7552727 77.1125189,39.7490909 77.0927027,39.7490909 L75.759427,39.7490909 C75.7330054,39.7490909 75.7274162,39.7552727 75.7203027,39.7686667 C75.6806703,39.9551515 75.524173,40.5012121 75.4764108,40.6871818 C75.4708216,40.7201515 75.4444,40.7340606 75.4052757,40.7340606 L75.1359784,40.7340606 C75.0831351,40.7340606 75.0567135,40.7201515 75.0699243,40.653697 L76.1278054,36.692697 C76.1344108,36.658697 76.1537189,36.6257273 76.2055459,36.6257273 L76.6460757,36.6257273 C76.6923135,36.6257273 76.7121297,36.6386061 76.7253405,36.686 L77.8020216,40.6413333 C77.8152324,40.681 77.8218378,40.7340606 77.7562919,40.7340606 L77.4539676,40.7340606 L77.4539676,40.7340606 Z M76.1999568,37.944 L75.8254811,39.3421212 C75.8193838,39.382303 75.8254811,39.389 75.8513946,39.389 L76.9880324,39.389 C77.0271568,39.389 77.0337622,39.382303 77.0271568,39.3421212 L76.6531892,37.950697 L76.4423243,37.0919394 C76.436227,37.0651515 76.4164108,37.0651515 76.4103135,37.0919394 L76.1999568,37.944 L76.1999568,37.944 Z" id="Fill-46" fill="#FFFFFF" sketch:type="MSShapeGroup"></path>
                            <path d="M80.3252865,36.992 L79.3852865,36.992 C79.3537838,36.992 79.3334595,36.9981818 79.3334595,37.0388788 L79.3334595,40.6676061 C79.3334595,40.7077879 79.3202486,40.7340606 79.2740108,40.7340606 L78.9788,40.7340606 C78.9396757,40.7340606 78.9127459,40.7134545 78.9127459,40.6737879 L78.9127459,37.0455758 C78.9127459,37.0053939 78.8995351,36.992 78.8599027,36.992 L77.9412432,36.992 C77.9016108,36.992 77.8817946,36.9858182 77.8817946,36.9317273 L77.8817946,36.692697 C77.8817946,36.6525152 77.9016108,36.6257273 77.9412432,36.6257273 L80.3252865,36.6257273 C80.3639027,36.6257273 80.3837189,36.6525152 80.3837189,36.686 L80.3837189,36.9317273 C80.3837189,36.9719091 80.3639027,36.992 80.3252865,36.992" id="Fill-47" fill="#FFFFFF" sketch:type="MSShapeGroup"></path>
                            <path d="M83.0700865,40.7340606 L80.9426378,40.7340606 C80.9030054,40.7340606 80.8709946,40.7077879 80.8709946,40.6676061 L80.8709946,36.692697 C80.8709946,36.6525152 80.8964,36.6257273 80.9426378,36.6257273 L83.0177514,36.6257273 C83.0578919,36.6257273 83.0838054,36.6525152 83.0838054,36.692697 L83.0838054,36.9317273 C83.0838054,36.9719091 83.0639892,36.992 83.0177514,36.992 L81.343027,36.992 C81.3105081,36.992 81.2912,36.9981818 81.2912,37.0388788 L81.2912,38.3705455 C81.2912,38.4035152 81.3033946,38.4169091 81.3369297,38.4169091 L82.7616649,38.4169091 C82.8073946,38.4169091 82.8277189,38.437 82.8277189,38.4838788 L82.8277189,38.7301212 C82.8277189,38.7697879 82.8073946,38.7893636 82.7687784,38.7893636 L81.343027,38.7893636 C81.3105081,38.7893636 81.2912,38.8027576 81.2912,38.8434545 L81.2912,40.3147273 C81.2912,40.3482121 81.3105081,40.3605758 81.3369297,40.3605758 L83.0700865,40.3605758 C83.1097189,40.3605758 83.1361405,40.3806667 83.1361405,40.4208485 L83.1361405,40.6676061 C83.1361405,40.7077879 83.1163243,40.7340606 83.0700865,40.7340606" id="Fill-48" fill="#FFFFFF" sketch:type="MSShapeGroup"></path>
                            <path d="M84.7534486,40.8602727 C84.5364865,40.8602727 84.3251135,40.8206061 84.1244108,40.7428182 C83.9216757,40.6645152 83.7560324,40.5558182 83.6320541,40.4203333 C83.5919135,40.3796364 83.5934378,40.3440909 83.6020757,40.3214242 C83.6091892,40.3028788 83.6234162,40.283303 83.6467892,40.2596061 L83.7331676,40.1725455 C83.7621297,40.1431818 83.7926162,40.1364848 83.8129405,40.1364848 C83.8393622,40.1364848 83.8668,40.147303 83.8937297,40.1673939 C83.9978919,40.2549697 84.1305081,40.3337879 84.2900541,40.4028182 C84.4480757,40.4713333 84.6030486,40.5058485 84.7498919,40.5058485 C85.0288432,40.5058485 85.2635892,40.4383636 85.4475243,40.3049394 C85.629427,40.1735758 85.7173297,39.9803939 85.7173297,39.7145758 C85.7173297,39.5842424 85.6964973,39.4719394 85.6558486,39.3812727 C85.6146919,39.2900909 85.5577838,39.2102424 85.4861405,39.1437879 C85.412973,39.076303 85.3245622,39.0155152 85.2229405,38.9645152 C85.1182703,38.9114545 85.0069946,38.8604545 84.8891135,38.8120303 C84.7615784,38.7630909 84.6274378,38.7079697 84.4877081,38.6471818 C84.3464541,38.5858788 84.2148541,38.5122121 84.096973,38.4272121 C83.9775676,38.3406667 83.8759459,38.2345455 83.7956649,38.1119394 C83.7133514,37.9852121 83.6716865,37.8301515 83.6716865,37.6503636 C83.6716865,37.4685152 83.7057297,37.3062424 83.7728,37.1676667 C83.8393622,37.0301212 83.9287892,36.9121515 84.0370162,36.8163333 C84.1457514,36.7205152 84.2717622,36.6483939 84.4125081,36.6015152 C84.5517297,36.5551515 84.6990811,36.5319697 84.848973,36.5319697 C85.0293514,36.5319697 85.2127784,36.5561818 85.3951892,36.6040909 C85.5796324,36.6525152 85.7493405,36.7354545 85.9002486,36.8513636 C85.9576649,36.8858788 85.9510595,36.9322424 85.9449622,36.9502727 C85.939373,36.9667576 85.9317514,36.9842727 85.9220973,37.0048788 L85.8392757,37.1310909 C85.8143784,37.1733333 85.7813514,37.1826061 85.7579784,37.1826061 C85.7132649,37.1738485 85.6919243,37.1645758 85.6736324,37.1522121 C85.5623568,37.070303 85.4332973,37.0074545 85.2895027,36.964697 C85.1441838,36.9214242 85.0039459,36.8992727 84.8723459,36.8992727 C84.7758054,36.8992727 84.6762162,36.913697 84.5771351,36.941 C84.4795784,36.968303 84.3901514,37.0120909 84.3119027,37.070303 C84.2346703,37.128 84.1716649,37.2047576 84.1249189,37.3000606 C84.0776649,37.3948485 84.0537838,37.5133333 84.0537838,37.6519091 C84.0537838,37.7585455 84.0802054,37.8471515 84.1335568,37.9233939 C84.1894486,38.0037576 84.2610919,38.0748485 84.3464541,38.1361515 C84.4328324,38.1984848 84.5308973,38.2541212 84.6381081,38.3020303 C84.7478595,38.3509697 84.8530378,38.3952727 84.9541514,38.4354545 C85.0969297,38.4941818 85.2361514,38.556 85.3713081,38.6214242 C85.5095135,38.6878788 85.634,38.7713333 85.7412108,38.8681818 C85.8494378,38.9660606 85.9368324,39.0819697 86.0013622,39.2128182 C86.0664,39.3452121 86.099427,39.5064545 86.099427,39.6929394 C86.099427,39.8835455 86.0648757,40.0535455 85.995773,40.1993333 C85.9261622,40.3446061 85.8291135,40.4682424 85.7071676,40.5666364 C85.5857297,40.6645152 85.4409189,40.738697 85.2762919,40.7876364 C85.1142054,40.8355455 84.9384,40.8602727 84.7534486,40.8602727" id="Fill-49" fill="#FFFFFF" sketch:type="MSShapeGroup"></path>
                        </g>
                    </g>
                </g>
            </g>
        </g>
    </g>
</svg>