<?xml version="1.0" encoding="UTF-8" standalone="no"?>
<svg width="43px" height="61px" viewBox="0 0 43 61" version="1.1" xmlns="http://www.w3.org/2000/svg" xmlns:xlink="http://www.w3.org/1999/xlink" xmlns:sketch="http://www.bohemiancoding.com/sketch/ns">
    <!-- Generator: Sketch 3.2.2 (9983) - http://www.bohemiancoding.com/sketch -->
    <title>Imported Layers 2</title>
    <desc>Created with Sketch.</desc>
    <defs></defs>
    <g id="Page-1" stroke="none" stroke-width="1" fill="none" fill-rule="evenodd" sketch:type="MSPage">
        <g id="Заглушка-для-верхнего-меню" sketch:type="MSArtboardGroup" transform="translate(-1190.000000, -1137.000000)">
            <g id="4_block" sketch:type="MSLayerGroup" transform="translate(0.000000, 778.000000)">
                <g id="3" transform="translate(1189.000000, 74.000000)" sketch:type="MSShapeGroup">
                    <g id="Imported-Layers-2" transform="translate(1.000000, 285.000000)">
                        <path d="M31.6195441,30.378 L31.6195441,19.3780881 L22.0890368,24.8775699 L31.6195441,30.378" id="Fill-1" fill="#E05437"></path>
                        <path d="M21.8629706,38.099399 L21.8629706,49.0993109 L31.3922132,43.5988808 L21.8629706,38.099399" id="Fill-2" fill="#E05437"></path>
                        <path d="M21.8629706,25.2710674 L21.8629706,37.0529171 L32.0868529,31.1624663 L21.8629706,25.2710674" id="Fill-3" fill="#E05437"></path>
                        <path d="M42.7325147,26.3156528 L33.6554044,31.5531192 L42.7325147,36.7927979 L42.7325147,26.3156528" id="Fill-4" fill="#E05437"></path>
                        <path d="M32.298375,43.0764301 L32.298375,31.5531192 L21.8629706,37.5772642 L31.8452941,43.3384456 L32.298375,43.0764301" id="Fill-5" fill="#E05437"></path>
                        <path d="M32.7508235,31.5531192 L32.7508235,42.8163109 L42.5064485,37.1840829 L32.7508235,31.5531192" id="Fill-6" fill="#E05437"></path>
                        <path d="M21.6372206,24.095 L31.1667794,18.5936218 L21.6372206,13.094772 L21.6372206,24.095" id="Fill-7" fill="#E05437"></path>
                        <path d="M11.2008676,30.378 L20.7310588,24.8775699 L11.2008676,19.3780881 L11.2008676,30.378" id="Fill-8" fill="#E05437"></path>
                        <path d="M21.1838235,13.094772 L11.6545809,18.5936218 L21.1838235,24.095 L21.1838235,13.094772" id="Fill-9" fill="#E05437"></path>
                        <path d="M20.9574412,25.2710674 L11.2008676,30.9004508 L10.7243897,31.1624663 L20.9574412,37.0529171 L20.9574412,25.2710674" id="Fill-10" fill="#E05437"></path>
                        <path d="M20.9574412,38.099399 L11.4275662,43.5988808 L20.9574412,49.0993109 L20.9574412,38.099399" id="Fill-11" fill="#E05437"></path>
                        <path d="M10.5220368,31.5531192 L10.5220368,43.0764301 L10.9744853,43.3384456 L20.9574412,37.5772642 L10.5220368,31.5531192" id="Fill-12" fill="#E05437"></path>
                        <path d="M0.0869485294,36.7927979 L9.16374265,31.5531192 L0.0869485294,26.3156528 L0.0869485294,36.7927979" id="Fill-13" fill="#E05437"></path>
                        <path d="M10.0695882,31.5531192 L10.0695882,31.5531192 L0.313647059,37.1840829 L10.0695882,42.8163109 L10.0695882,31.5531192" id="Fill-14" fill="#E05437"></path>
                        <path d="M10.5220368,6.4192228 L10.5220368,17.156487 L20.2782941,11.5267876 L10.9744853,6.15783938 L10.5220368,6.4192228" id="Fill-15" fill="#4DBFE2"></path>
                        <path d="M9.390125,19.1167047 L0.313647059,24.3548031 L9.390125,29.595114 L9.390125,19.1167047" id="Fill-16" fill="#4DBFE2"></path>
                        <path d="M0.0869485294,23.9632021 L9.390125,18.5936218 L9.390125,18.3338187 L0.0869485294,12.9648705 L0.0869485294,23.9632021" id="Fill-17" fill="#4DBFE2"></path>
                        <path d="M10.0695882,17.4175544 L10.0695882,6.67902591 L0.539713235,12.1791399 L9.84288971,17.5487202 L10.0695882,17.4175544" id="Fill-18" fill="#4DBFE2"></path>
                        <path d="M42.7325147,12.9648705 L33.4293382,18.3338187 L33.4293382,18.5936218 L42.7325147,23.9632021 L42.7325147,12.9648705" id="Fill-19" fill="#4DBFE2"></path>
                        <path d="M32.7508235,17.4175544 L32.9762574,17.5487202 L42.2803824,12.1791399 L32.7508235,6.67902591 L32.7508235,17.4175544" id="Fill-20" fill="#4DBFE2"></path>
                        <path d="M33.4293382,29.595114 L42.5064485,24.3548031 L33.4293382,19.1167047 L33.4293382,29.595114" id="Fill-21" fill="#4DBFE2"></path>
                        <path d="M32.298375,6.4192228 L31.8452941,6.15783938 L22.5418015,11.5267876 L32.298375,17.156487 L32.298375,6.4192228" id="Fill-22" fill="#4DBFE2"></path>
                        <path d="M22.0997868,11.259399 L31.3922132,5.89550777 L21.6372206,0.265492228 L21.6372206,10.9913782 L22.0997868,11.259399" id="Fill-23" fill="#4DBFE2"></path>
                        <path d="M21.1838235,10.9945389 L21.1838235,0.265492228 L11.4275662,5.89550777 L20.7234706,11.2609793 L21.1838235,10.9945389" id="Fill-24" fill="#4DBFE2"></path>
                        <path d="M5.2245,54.727114 L2.00013235,54.727114 L2.00013235,60.8903264 L0.0869485294,60.8903264 L0.0869485294,53.2744922 L5.2245,53.2744922 L5.2245,54.727114" id="Fill-25" fill="#FFFFFF"></path>
                        <path d="M11.1588162,60.8903264 L9.39897794,60.8903264 L9.39897794,57.4016321 L7.19902206,60.8903264 L5.69971324,60.8903264 L5.69971324,55.1452642 L7.45986765,55.1452642 L7.45986765,58.2666943 L9.476125,55.1452642 L11.1588162,55.1452642 L11.1588162,60.8903264" id="Fill-26" fill="#FFFFFF"></path>
                        <path d="M17.8010515,60.8903264 L16.0102279,60.8903264 L16.0102279,56.409829 L14.6029265,56.409829 C14.5934412,56.6554093 14.5855368,56.8526321 14.5798456,57.0027617 C14.5747868,57.1522591 14.5687794,57.3207202 14.5621397,57.5100415 C14.5377941,58.0590415 14.4922647,58.5050052 14.4236544,58.8517254 C14.3556765,59.1984456 14.2690441,59.4813212 14.163125,59.7028808 C14.0606838,59.9247565 13.9553971,60.0989067 13.8488456,60.222487 C13.7407132,60.3470155 13.6234118,60.4630104 13.4978897,60.5720518 C13.3780588,60.6757202 13.2095368,60.7588446 12.9916912,60.8264819 C12.7735294,60.893171 12.5740221,60.9263575 12.3925368,60.9263575 C12.2391912,60.9263575 12.0864779,60.9206684 11.9347132,60.9080259 C11.7832647,60.8960155 11.6915735,60.8903264 11.6609044,60.8903264 L11.6609044,59.4383368 L11.7124412,59.4383368 C11.7263529,59.4383368 11.7484853,59.4399171 11.7813676,59.4418135 C11.8136176,59.4456062 11.8452353,59.4478187 11.8762206,59.4478187 C11.9577941,59.4478187 12.0431618,59.4389689 12.1320074,59.4196891 C12.2205368,59.4000933 12.2938897,59.3615337 12.35175,59.3052746 C12.5873015,59.0656995 12.7384338,58.7467927 12.8051471,58.3488705 C12.8718603,57.9487358 12.9164412,57.5018238 12.9401544,57.0084508 C12.9534338,56.7385337 12.9676618,56.4366943 12.9809412,56.104829 C12.9951691,55.7732798 13.0052868,55.4524767 13.0112941,55.1452642 L17.8010515,55.1452642 L17.8010515,60.8903264" id="Fill-27" fill="#FFFFFF"></path>
                        <path d="M23.9257059,58.961715 C23.9257059,59.2553368 23.8675294,59.5249378 23.752125,59.7720984 C23.6360882,60.0195751 23.4843235,60.2218549 23.2968309,60.3786218 C23.064125,60.5666788 22.8247794,60.6981606 22.5778456,60.7740155 C22.3302794,60.8514508 21.9973456,60.8903264 21.5774632,60.8903264 L18.7530588,60.8903264 L18.7530588,55.1452642 L20.5385074,55.1452642 L20.5385074,57.0843057 L21.5825221,57.0843057 C21.9948162,57.0843057 22.3286985,57.1136995 22.5825882,57.1709067 C22.8371103,57.2303264 23.0783529,57.3428446 23.3069485,57.5147824 C23.5083529,57.6636477 23.6620147,57.8671917 23.7673015,58.1238342 C23.8725882,58.3788964 23.9257059,58.6582953 23.9257059,58.961715 L23.9257059,58.961715 Z M21.9556103,59.4573005 C22.0144191,59.3830259 22.053625,59.3059067 22.0738603,59.2249948 C22.0940956,59.1453472 22.1045294,59.0625389 22.1045294,58.9778342 C22.1045294,58.7313057 22.0305441,58.5505181 21.8851029,58.4300984 C21.7377647,58.3099948 21.5262426,58.2512073 21.2499044,58.2512073 L20.5385074,58.2512073 L20.5385074,59.7287979 L21.2499044,59.7287979 C21.4345515,59.7287979 21.5844191,59.7028808 21.7001397,59.6485181 C21.8161765,59.5966839 21.9012279,59.5322073 21.9556103,59.4573005 L21.9556103,59.4573005 Z" id="Fill-28" fill="#FFFFFF"></path>
                        <path d="M36.6271471,60.8903264 L34.8669926,60.8903264 L34.8669926,57.4016321 L32.6667206,60.8903264 L31.1680441,60.8903264 L31.1680441,55.1452642 L32.9278824,55.1452642 L32.9278824,58.2666943 L34.9441397,55.1452642 L36.6271471,55.1452642 L36.6271471,60.8903264" id="Fill-29" fill="#FFFFFF"></path>
                        <path d="M42.7982794,60.8903264 L41.0125147,60.8903264 L41.0125147,58.8950259 L40.4699559,58.8950259 L39.0939559,60.8903264 L37.0884485,60.8903264 L38.7360441,58.6390155 C38.3259632,58.4519067 38.0274926,58.2240259 37.84,57.9579016 C37.6525074,57.6886166 37.5589191,57.3314663 37.5589191,56.8858187 C37.5589191,56.5681762 37.6212059,56.3001554 37.7457794,56.084285 C37.8700368,55.8680984 38.0379265,55.6854145 38.2497647,55.535285 C38.4372574,55.4066477 38.6579485,55.3074041 38.9118382,55.2435596 C39.1660441,55.179399 39.4506029,55.1452642 39.76425,55.1452642 L42.7982794,55.1452642 L42.7982794,60.8903264 L42.7982794,60.8903264 Z M41.0125147,57.7695285 L41.0125147,56.3365026 L40.1882426,56.3365026 C39.9368824,56.3365026 39.7392721,56.3949741 39.5979412,56.5084404 C39.4566103,56.6241192 39.3854706,56.7900518 39.3854706,57.0084508 C39.3854706,57.2771036 39.4553456,57.4717979 39.5954118,57.5922176 C39.7351618,57.7097927 39.9428897,57.7695285 40.2198603,57.7695285 L41.0125147,57.7695285 L41.0125147,57.7695285 Z" id="Fill-30" fill="#FFFFFF"></path>
                        <path d="M30.2909706,60.8903264 L30.2909706,55.1850881 L25.6188309,55.1850881 C25.6188309,56.0618446 25.5416838,56.8880311 25.386125,57.6649119 C25.2305662,58.4421088 25.0234706,59.1007824 24.7642059,59.6399845 L24.3500147,59.6399845 L24.3500147,60.8884301 L30.2909706,60.8903264 L30.2909706,60.8903264 Z M28.5096324,59.6399845 L26.4532206,59.6399845 C26.6473529,59.2373212 26.8133456,58.7648083 26.9521471,58.2214974 C27.0903162,57.6769223 27.1880147,57.085886 27.245875,56.4480725 L28.5096324,56.4480725 L28.5096324,59.6399845 L28.5096324,59.6399845 Z" id="Fill-31" fill="#FFFFFF"></path>
                    </g>
                </g>
            </g>
        </g>
    </g>
</svg>