<svg width="180" height="40" viewBox="0 0 180 40" xmlns="http://www.w3.org/2000/svg" xmlns:sketch="http://www.bohemiancoding.com/sketch/ns"><title>Нетологоия</title><desc>Created with Sketch.</desc><g sketch:type="MSShapeGroup" fill="none"><path d="M15.254 4.689c.006-2.483 1.98-4.492 4.406-4.485 2.428.007 4.392 2.026 4.386 4.51-.004 2-1.285 3.691-3.051 4.27v10.936c0 .04-.061.074-.134.074h-2.421c-.075 0-.135-.034-.135-.074v-10.936c-1.773-.583-3.056-2.288-3.051-4.296" fill="#B95390"/><path d="M5.962 12.351c-1.712-1.759-1.704-4.609.016-6.358 1.72-1.752 4.506-1.745 6.219.016 1.378 1.416 1.642 3.539.793 5.228l7.56 7.733c.027.028.008.094-.045.148l-1.712 1.751c-.052.053-.117.075-.145.047l-7.56-7.735c-1.657.872-3.74.594-5.126-.83" fill="#4D5897"/><path d="M4.689 24.492c-2.426-.007-4.392-2.026-4.384-4.508.006-2.484 1.979-4.493 4.408-4.487 1.955.003 3.609 1.315 4.176 3.122h10.69c.039 0 .071.062.071.137v2.478c0 .075-.032.137-.071.137h-10.691c-.57 1.816-2.235 3.126-4.199 3.122" fill="#006FAC"/><path d="M12.181 33.998c-1.721 1.751-4.506 1.743-6.216-.017-1.713-1.762-1.707-4.61.016-6.362 1.385-1.411 3.46-1.68 5.11-.812l7.56-7.734c.028-.028.092-.006.144.047l1.712 1.75c.053.055.072.122.045.148l-7.561 7.735c.852 1.694.581 3.828-.81 5.245" fill="#00A3DB"/><path d="M24.047 35.298c-.006 2.484-1.98 4.494-4.407 4.486-2.428-.007-4.391-2.025-4.386-4.51.004-1.998 1.286-3.691 3.053-4.27v-10.937c0-.04.06-.072.134-.072h2.421c.074 0 .134.032.134.072v10.937c1.773.584 3.056 2.287 3.051 4.294" fill="#6AAD40"/><path d="M33.338 27.635c1.712 1.761 1.705 4.611-.016 6.359-1.72 1.752-4.505 1.745-6.218-.016-1.379-1.417-1.643-3.54-.794-5.228l-7.56-7.733c-.028-.029-.007-.096.044-.148l1.713-1.751c.053-.054.117-.074.145-.047l7.56 7.735c1.658-.872 3.741-.594 5.126.828" fill="#BBD236"/><path d="M34.612 15.496c2.426.008 4.392 2.027 4.384 4.509-.006 2.483-1.98 4.492-4.409 4.487-1.954-.006-3.607-1.315-4.175-3.123h-10.69c-.039 0-.071-.06-.071-.138v-2.476c0-.075.032-.138.071-.138h10.691c.57-1.813 2.235-3.126 4.199-3.121" fill="#E7772B"/><path d="M27.12 5.993c1.721-1.753 4.506-1.745 6.217.014 1.712 1.76 1.705 4.609-.017 6.362-1.384 1.412-3.46 1.681-5.11.812l-7.56 7.735c-.027.027-.092.006-.145-.047l-1.712-1.75c-.053-.054-.072-.12-.045-.148l7.561-7.734c-.852-1.696-.581-3.828.81-5.243" fill="#DF4F2A"/><path d="M15.152 19.984c.006-2.681 2.138-4.852 4.758-4.843 2.622.006 4.743 2.186 4.737 4.869-.006 2.681-2.138 4.85-4.76 4.843-2.622-.008-4.742-2.187-4.736-4.869" fill="#00A3DB"/><path d="M85.867 26.627v-1.943h1.489v-9.006h-2.849v1.244h-2.14v-3.421h12.816v3.421h-2.13v-1.244h-2.899v9.006h1.487v1.943h-5.774z" fill="#424F5B"/><path d="M140.509 26.627v-1.943h1.223v-9.033h-1.223v-2.15h9.953v3.392h-2.121v-1.243h-3.812v9.033h1.21v1.943h-5.23z" fill="#424F5B"/><path d="M173.197 20.063h2.542v-4.413h-2.157c-2.053 0-2.983.783-2.983 2.066 0 1.576 1.007 2.348 2.598 2.348zm2.542 6.563v-4.7h-2.669l-1.788 3.598-.846 1.102h-2.65v-1.944h1.174l1.697-3.281c-1.925-.687-2.736-1.978-2.736-3.737 0-2.507 1.658-4.164 5.38-4.164h6.459v2.15h-1.224v9.033h1.224v1.943h-4.02z" fill="#424F5B"/><path d="M132.122 24.75c2.438 0 4.466-1.996 4.466-4.779 0-2.757-2.028-4.726-4.466-4.726-2.464 0-4.467 1.968-4.467 4.726 0 2.783 2.002 4.779 4.467 4.779m0-11.71c3.875 0 7.006 2.914 7.006 6.932 0 4.043-3.131 6.983-7.006 6.983-3.875 0-7.007-2.941-7.007-6.983 0-4.017 3.131-6.932 7.007-6.932" fill="#424F5B"/><path d="M102.892 24.75c2.438 0 4.467-1.996 4.467-4.779 0-2.757-2.028-4.726-4.467-4.726-2.464 0-4.465 1.968-4.465 4.726 0 2.783 2.001 4.779 4.465 4.779m0-11.71c3.876 0 7.006 2.914 7.006 6.932 0 4.043-3.13 6.983-7.006 6.983-3.874 0-7.006-2.941-7.006-6.983 0-4.017 3.132-6.932 7.006-6.932" fill="#424F5B"/><path d="M122.608 24.683v-11.183h-9.901v2.15h1.176c-.269 6.384-.552 8.766-3.545 8.766v2.289c.129.01.522 0 .645 0 3.788 0 5.101-2.914 5.337-11.028h3.466v9.006h-1.209v1.943h5.242v-1.943h-1.209z" fill="#424F5B"/><path d="M74.723 15.246c2.101 0 3.894 1.463 4.351 3.631h-8.702c.452-2.168 2.228-3.631 4.351-3.631zm3.46 7.789c-.824 1.068-2.074 1.715-3.46 1.715-2.162 0-3.967-1.537-4.377-3.794h11.21c.535-4.034-2.181-7.916-6.833-7.916-3.874 0-6.928 2.914-6.928 6.931 0 4.043 3.054 6.983 6.928 6.983 2.802 0 5.207-1.541 6.328-3.92h-2.868z" fill="#424F5B"/><path d="M60.64 13.5v.001h-.022v1.947h1.203v3.406h-5.98v-5.354h-4.013v1.948h1.217v9.235h-1.217v1.943h5.246v-1.943h-1.232v-3.78h5.98v5.723h4.032v-1.946h-1.234v-9.232h1.234v-1.948h-5.213z" fill="#424F5B"/><path d="M164.713 24.674v-11.174h-2.592l-6.571 8.847v-6.899h1.22v-1.947l-5.235-.001v1.948h1.218v11.178h2.053l.026-.053 7.057-9.424v7.525h-1.179v1.947l5.235.006v-1.952h-1.232z" fill="#424F5B"/></g></svg>