<?xml version="1.0" encoding="UTF-8" standalone="no"?>
<svg width="181px" height="66px" viewBox="0 0 181 66" version="1.1" xmlns="http://www.w3.org/2000/svg" xmlns:xlink="http://www.w3.org/1999/xlink" xmlns:sketch="http://www.bohemiancoding.com/sketch/ns">
    <!-- Generator: Sketch 3.2.2 (9983) - http://www.bohemiancoding.com/sketch -->
    <title>Imported Layers</title>
    <desc>Created with Sketch.</desc>
    <defs></defs>
    <g id="III-Игры-Дизайнеров" stroke="none" stroke-width="1" fill="none" fill-rule="evenodd" sketch:type="MSPage">
        <g id="Секции_брендинг-(дизайн)" sketch:type="MSArtboardGroup" transform="translate(-638.000000, -1398.000000)">
            <g id="3_block" sketch:type="MSLayerGroup" transform="translate(0.000000, 998.000000)">
                <g id="II-этап" transform="translate(480.000000, 149.000000)" sketch:type="MSShapeGroup">
                    <g id="16-—-22-марта-2015-+-yota" transform="translate(158.000000, 144.000000)">
                        <g id="Imported-Layers" transform="translate(0.000000, 107.000000)">
                            <path d="M180.677794,10.6932941 C180.707319,5.12470588 176.247787,0.764823529 170.957709,0.764823529 L137.376433,0.764823529 L137.376433,32.2041176 L144.58434,32.2041176 L144.58434,6.30105882 L155.169631,6.30105882 L155.169631,32.2041176 L162.376255,32.2041176 L162.376255,6.30105882 L168.332567,6.30105882 C171.707383,6.33341176 173.454482,8.52823529 173.454482,11.4270588 L173.454482,32.2041176 L180.693199,32.2041176 C180.693199,32.2041176 180.670092,11.8062353 180.677794,10.6932941" id="Fill-1" fill="#FFFFFF"></path>
                            <path d="M123.581922,0.764823529 C123.450986,0.762235294 108.855454,0.767411765 104.56922,0.764823529 L104.56922,6.30105882 L120.422766,6.30105882 C124.046617,6.30105882 125.557518,8.99929412 125.557518,12.9567059 L112.284184,12.9567059 C106.994106,12.9567059 102.664227,17.1845882 102.664227,22.44 C102.664227,27.6954118 106.926071,32.2041176 112.22,32.2041176 L132.78083,32.2041176 C132.78083,32.2041176 132.775695,11.704 132.775695,10.5858824 C132.765426,4.96035294 128.841191,0.838588235 123.581922,0.764823529 M114.009461,26.4452941 L114.009461,26.4375294 C111.814355,26.312 110.068539,24.6102353 110.068539,22.5228235 C110.068539,20.4794118 111.742468,18.8061176 113.87339,18.6171765 L125.567787,18.6171765 L125.567787,26.4452941 L114.009461,26.4452941" id="Fill-2" fill="#FFFFFF"></path>
                            <path d="M58.4283404,6.30105882 L69.8570142,6.30105882 L69.8570142,0.764823529 L55.6645603,0.764823529 C49.8135106,0.764823529 43.7532199,5.06129412 43.7532199,16.4676471 C43.7532199,26.7235294 49.8135106,32.2041176 55.4411986,32.2041176 L69.8570142,32.2041176 L69.8570142,26.6432941 L57.2486312,26.6432941 C53.7210567,26.6432941 51.0702411,22.7855294 51.0702411,19.0934118 L69.8570142,19.0934118 L69.8570142,13.5714118 L51.1074681,13.5714118 C51.1074681,8.99929412 53.7210567,6.30105882 58.4283404,6.30105882" id="Fill-3" fill="#FFFFFF"></path>
                            <path d="M87.9300567,6.30105882 L99.3574468,6.30105882 L99.3574468,0.764823529 L85.1662766,0.764823529 C79.315227,0.764823529 73.2549362,5.06129412 73.2549362,16.4676471 C73.2549362,26.7235294 79.315227,32.2041176 84.9429149,32.2041176 L99.3574468,32.2041176 L99.3574468,26.6432941 L86.7503475,26.6432941 C83.222773,26.6432941 80.5719574,22.7855294 80.5719574,19.0934118 L99.3574468,19.0934118 L99.3574468,13.5714118 L80.6079007,13.5714118 C80.6079007,8.99929412 83.222773,6.30105882 87.9300567,6.30105882" id="Fill-4" fill="#FFFFFF"></path>
                            <path d="M10.9293191,0.764823529 L24.1359007,32.2041176 L30.7712837,32.2041176 L45.0933901,0.764823529 L37.1370922,0.764823529 L27.4645035,23.1362353 L18.8496738,0.764823529 L10.9293191,0.764823529" id="Fill-5" fill="#FFFFFF"></path>
                            <path d="M0.976886525,0.764823529 L0.980737589,21.4952941 C0.980737589,21.4771765 0.987156028,23.4170588 0.987156028,23.4170588 L0.999992908,32.0462353 C0.973035461,36.3194118 2.59048227,40.3272941 5.55323404,43.3335294 C8.53267376,46.3552941 12.4954184,48.0195294 16.7174681,48.0195294 L180.689348,48.0247059 L180.689348,38.2127059 L17.9626454,38.2075294 C14.4543262,38.2075294 11.1590993,36.8241176 8.68286525,34.3148235 C6.22588652,31.8184706 4.88314894,28.4861176 4.90625532,24.9324706 C4.90625532,24.9298824 4.89085106,23.3601176 4.89085106,23.3601176 L4.887,21.5147059 L4.88314894,0.764823529 L0.976886525,0.764823529" id="Fill-6" fill="#54B948"></path>
                            <path d="M53.818617,54.0902353 L56.4257872,54.0902353 L56.4257872,65.7398824 L53.818617,65.7398824 L53.818617,54.0902353 Z" id="Fill-7" fill="#FFFFFF"></path>
                            <path d="M60.9340993,56.3018824 L57.8147376,56.3018824 L57.8147376,54.0902353 L66.6965745,54.0902353 L66.6965745,56.3018824 L63.5412695,56.3018824 L63.5412695,65.7398824 L60.9340993,65.7398824 L60.9340993,56.3018824" id="Fill-8" fill="#FFFFFF"></path>
                            <path d="M73.810773,54.0889412 L76.4166596,54.0889412 L76.4166596,61.4524706 C76.4166596,64.7718824 74.8390071,65.9288235 72.3191277,65.9288235 C71.7016738,65.9288235 70.9134894,65.8252941 70.3987305,65.6531765 L70.6901277,63.5269412 C71.0495603,63.6485882 71.5129716,63.734 72.0277305,63.734 C73.124,63.734 73.810773,63.2331765 73.810773,61.4356471 L73.810773,54.0889412" id="Fill-9" fill="#FFFFFF"></path>
                            <path d="M81.1996809,54.0889412 L81.1996809,60.7795294 C81.1996809,62.7996471 81.9711773,63.8207059 83.2920922,63.8207059 C84.6643546,63.8207059 85.4191631,62.8514118 85.4191631,60.7795294 L85.4191631,54.0889412 L88.0250496,54.0889412 L88.0250496,60.6229412 C88.0250496,64.218 86.2240355,65.9288235 83.2060851,65.9288235 C80.2921135,65.9288235 78.595078,64.2878824 78.595078,60.588 L78.595078,54.0889412 L81.1996809,54.0889412" id="Fill-10" fill="#FFFFFF"></path>
                            <path d="M90.3729149,63.0248235 C91.0596879,63.3884706 92.1559574,63.7521176 93.2701986,63.7521176 C94.4717305,63.7521176 95.1058723,63.25 95.1058723,62.4903529 C95.1058723,61.7643529 94.5577376,61.3489412 93.1675035,60.8636471 C91.2483901,60.1738824 89.9788227,59.1010588 89.9788227,57.4070588 C89.9788227,55.4205882 91.6424823,53.9155294 94.3510638,53.9155294 C95.670695,53.9155294 96.6154894,54.1756471 97.3009787,54.5043529 L96.7181844,56.6124706 C96.271461,56.3872941 95.4306454,56.0585882 94.3164043,56.0585882 C93.1854752,56.0585882 92.6360567,56.5956471 92.6360567,57.1831765 C92.6360567,57.9272941 93.2701986,58.2547059 94.7798156,58.8254118 C96.8208794,59.5850588 97.7631064,60.6565882 97.7631064,62.3001176 C97.7631064,64.2529412 96.2881489,65.912 93.116156,65.912 C91.7965248,65.912 90.4935816,65.5483529 89.8414681,65.186 L90.3729149,63.0248235" id="Fill-11" fill="#FFFFFF"></path>
                            <path d="M101.791319,56.3018824 L98.6706738,56.3018824 L98.6706738,54.0902353 L107.552511,54.0902353 L107.552511,56.3018824 L104.397206,56.3018824 L104.397206,65.7398824 L101.791319,65.7398824 L101.791319,56.3018824" id="Fill-12" fill="#FFFFFF"></path>
                            <path d="M113.638475,65.7398824 L110.896518,54.0889412 L113.689823,54.0889412 L114.565298,58.8771765 C114.822035,60.2774118 115.063369,61.7811765 115.250787,62.9743529 L115.28673,62.9743529 C115.474149,61.6957647 115.748858,60.2942353 116.041539,58.8435294 L117.017142,54.0889412 L119.795043,54.0889412 L120.720582,58.9988235 C120.978603,60.3641176 121.167305,61.6077647 121.338035,62.9044706 L121.372695,62.9044706 C121.544709,61.6077647 121.801447,60.2424706 122.040213,58.8435294 L122.983723,54.0889412 L125.642241,54.0889412 L122.65895,65.7398824 L119.829702,65.7398824 L118.852816,60.7264706 C118.629454,59.5527059 118.440752,58.4617647 118.303397,57.1314118 L118.268738,57.1314118 C118.063348,58.4449412 117.874645,59.5527059 117.599936,60.7445882 L116.502383,65.7398824 L113.638475,65.7398824" id="Fill-13" fill="#FFFFFF"></path>
                            <path d="M131.762865,65.9288235 C128.349539,65.9288235 126.326447,63.3198824 126.326447,60.0004706 C126.326447,56.5089412 128.556213,53.8987059 131.950284,53.8987059 C135.500965,53.8987059 137.43805,56.5788235 137.43805,59.7934118 C137.43805,63.6304706 135.15822,65.9288235 131.779553,65.9288235 L131.762865,65.9288235 L131.762865,65.9288235 Z M131.90022,63.8375294 C133.665291,63.8375294 134.676837,62.1603529 134.676837,59.8801176 C134.676837,57.7888235 133.698667,55.9912941 131.90022,55.9912941 C130.099206,55.9912941 129.08766,57.7538824 129.08766,59.9318824 C129.08766,62.128 130.133865,63.8375294 131.882248,63.8375294 L131.90022,63.8375294 L131.90022,63.8375294 Z" id="Fill-14" fill="#FFFFFF"></path>
                            <path d="M139.151773,54.2623529 C139.992589,54.1070588 141.227496,54.0035294 142.631851,54.0035294 C144.346858,54.0035294 145.547106,54.2623529 146.36995,54.9352941 C147.073411,55.4891765 147.449532,56.3018824 147.449532,57.3734118 C147.449532,58.8435294 146.40461,59.8632941 145.409752,60.2243529 L145.409752,60.2774118 C146.215908,60.6061176 146.661348,61.3657647 146.954028,62.4372941 C147.313461,63.7689412 147.656206,65.2895294 147.878284,65.7398824 L145.204362,65.7398824 C145.032348,65.3930588 144.742234,64.46 144.414894,63.0248235 C144.090121,61.556 143.59205,61.1755294 142.512468,61.1587059 L141.740972,61.1587059 L141.740972,65.7398824 L139.151773,65.7398824 L139.151773,54.2623529 L139.151773,54.2623529 Z M141.740972,59.2576471 L142.770489,59.2576471 C144.072149,59.2576471 144.843645,58.6002353 144.843645,57.5804706 C144.843645,56.5270588 144.123496,55.9731765 142.923248,55.9731765 C142.289106,55.9731765 141.930957,56.0081176 141.740972,56.0598824 L141.740972,59.2576471 L141.740972,59.2576471 Z" id="Fill-15" fill="#FFFFFF"></path>
                            <path d="M149.318582,54.0889412 L151.90778,54.0889412 L151.90778,59.2395294 L151.94244,59.2395294 C152.200461,58.7917647 152.473887,58.3750588 152.748596,57.9609412 L155.354482,54.0889412 L158.577823,54.0889412 L154.755,59.0505882 L158.766525,65.7398824 L155.731887,65.7398824 L152.88595,60.7096471 L151.90778,61.9351765 L151.90778,65.7398824 L149.318582,65.7398824 L149.318582,54.0889412" id="Fill-16" fill="#FFFFFF"></path>
                            <path d="M159.932113,63.0248235 C160.617603,63.3884706 161.71644,63.7521176 162.830681,63.7521176 C164.029645,63.7521176 164.663787,63.25 164.663787,62.4903529 C164.663787,61.7643529 164.116936,61.3489412 162.726702,60.8636471 C160.807589,60.1738824 159.538021,59.1010588 159.538021,57.4070588 C159.538021,55.4205882 161.200397,53.9155294 163.911546,53.9155294 C165.231177,53.9155294 166.173404,54.1756471 166.858894,54.5043529 L166.276099,56.6124706 C165.83066,56.3872941 164.989844,56.0585882 163.875603,56.0585882 C162.74339,56.0585882 162.195255,56.5956471 162.195255,57.1831765 C162.195255,57.9272941 162.830681,58.2547059 164.339014,58.8254118 C166.378794,59.5850588 167.322305,60.6565882 167.322305,62.3001176 C167.322305,64.2529412 165.847348,65.912 162.675355,65.912 C161.35444,65.912 160.051496,65.5483529 159.400667,65.186 L159.932113,63.0248235" id="Fill-17" fill="#FFFFFF"></path>
                            <path d="M170.254248,65.9288235 C169.345397,65.9288235 168.727943,65.2558824 168.727943,64.3564706 C168.727943,63.4234118 169.362085,62.7841176 170.270936,62.7841176 C171.179787,62.7841176 171.77927,63.4234118 171.797241,64.3564706 C171.797241,65.2558824 171.196475,65.9288235 170.270936,65.9288235 L170.254248,65.9288235 L170.254248,65.9288235 Z M169.29405,61.9196471 L168.916645,54.0889412 L171.625227,54.0889412 L171.247823,61.9196471 L169.29405,61.9196471 L169.29405,61.9196471 Z" id="Fill-18" fill="#FFFFFF"></path>
                            <path d="M175.014163,54.5121176 L173.851142,54.5121176 L173.851142,54.0902353 L176.682957,54.0902353 L176.682957,54.5121176 L175.513518,54.5121176 L175.513518,57.9428235 L175.014163,57.9428235 L175.014163,54.5121176" id="Fill-19" fill="#FFFFFF"></path>
                            <path d="M180.114255,56.2514118 C180.086014,55.7195294 180.052638,55.0608235 180.052638,54.5871765 L180.039801,54.5871765 C179.905014,55.0323529 179.750972,55.5241176 179.558418,56.0508235 L178.883199,57.9221176 L178.509645,57.9221176 L177.884489,56.0857647 C177.703489,55.5409412 177.554582,55.044 177.446752,54.5871765 L177.436482,54.5871765 C177.424929,55.0672941 177.396688,55.7130588 177.362028,56.2915294 L177.260617,57.9428235 L176.789504,57.9428235 L177.056511,54.0902353 L177.685518,54.0902353 L178.338915,55.9537647 C178.496809,56.4287059 178.621326,56.8570588 178.724021,57.2582353 L178.734291,57.2582353 C178.836986,56.8687059 178.97434,56.4390588 179.143787,55.9537647 L179.825426,54.0902353 L180.454433,54.0902353 L180.693199,57.9428235 L180.205397,57.9428235 L180.114255,56.2514118" id="Fill-20" fill="#FFFFFF"></path>
                        </g>
                    </g>
                </g>
            </g>
        </g>
    </g>
</svg>