<?xml version="1.0" encoding="UTF-8" standalone="no"?>
<svg width="170px" height="34px" viewBox="0 0 170 34" version="1.1" xmlns="http://www.w3.org/2000/svg" xmlns:xlink="http://www.w3.org/1999/xlink" xmlns:sketch="http://www.bohemiancoding.com/sketch/ns">
    <!-- Generator: Sketch 3.2.2 (9983) - http://www.bohemiancoding.com/sketch -->
    <title>Group</title>
    <desc>Created with Sketch.</desc>
    <defs></defs>
    <g id="Page-1" stroke="none" stroke-width="1" fill="none" fill-rule="evenodd" sketch:type="MSPage">
        <g id="О-чемпионате-(дизайн)" sketch:type="MSArtboardGroup" transform="translate(-1274.000000, -3972.000000)">
            <g id="4_block" sketch:type="MSLayerGroup" transform="translate(-1.000000, 3657.000000)">
                <g id="logos" transform="translate(477.000000, 121.000000)" sketch:type="MSShapeGroup">
                    <g id="2" transform="translate(0.000000, 174.000000)">
                        <g id="black" transform="translate(798.000000, 20.000000)">
                            <g id="Group">
                                <path d="M28.7583846,25.140625 L21.8175385,25.140625 L21.8175385,33.4203125 L37.8849615,33.4203125 L37.8849615,0.77625 L24.4987308,0.77625 L0.330730769,33.4203125 L11.5531538,33.4203125 L28.7583846,8.77375 L28.7583846,25.140625 Z" id="Shape" fill="#000000"></path>
                                <path d="M107.604731,9.058125 L107.604731,0.77625 L77.0943846,0.77625 L77.0943846,9.058125 L88.0953846,9.058125 L88.0953846,33.58875 L97.5705385,33.58875 L97.5705385,9.058125 L107.604731,9.058125 Z" id="Shape" fill="#000000"></path>
                                <path d="M120.611692,20.7284375 L120.611692,0.77625 L111.485115,0.77625 L111.485115,33.4203125 L122.019154,33.4203125 L135.352769,14.448125 L135.352769,33.5034375 L144.972615,33.5034375 L169.138423,0.859375 L157.940115,0.859375 L144.051846,20.8115625 L144.051846,0.859375 L144.012385,0.859375 L144.012385,0.77625 L134.502154,0.77625 L120.611692,20.7284375 Z" id="Shape" fill="#FF0538"></path>
                                <path d="M62.5396538,0.8025 L57.1728846,0.8025 L57.1597308,0.77625 L44.3851538,0.77625 L44.3851538,33.58875 L53.6454615,33.58875 L53.6454615,25.7378125 L59.9549231,25.7378125 L65.0827308,33.58875 L76.5813846,33.58875 L69.5265385,24.090625 L70.8879615,22.935625 C71.5851154,22.3428125 72.2186923,21.6734375 72.7667692,20.940625 L72.7667692,20.940625 C73.1876923,20.3784375 73.5384615,19.759375 73.8497692,19.09 L73.8541538,19.08125 C74.3167308,18.0815625 74.6675,17.0184375 74.9152308,16.00125 L74.9086538,16.0275 L74.9130385,16.0034375 C75.038,15.4959375 75.1322692,15.0059375 75.1958462,14.5465625 C75.2594231,14.0784375 75.2945,13.665 75.2945,13.266875 C75.2945,9.9921875 74.0755769,6.9909375 72.0893462,4.7684375 C70.3311154,2.7953125 67.9612308,1.419375 65.2953846,0.95125 L65.2756538,0.946875 L64.1268846,0.8046875 L64.1005769,0.8025 C63.9909615,0.798125 63.8901154,0.79375 63.7673462,0.7915625 L63.7607692,0.7915625 C63.6182692,0.789375 63.4516538,0.7871875 63.2894231,0.7871875 C63.1271923,0.7871875 62.9693462,0.7871875 62.8312308,0.7915625 L62.8158846,0.7915625 L62.8093077,0.7915625 C62.7281923,0.79375 62.6536538,0.7959375 62.5813077,0.798125 L62.5396538,0.8025 L62.5396538,0.8025 Z M64.0742692,9.4540625 L64.0786538,9.4540625 C64.5280769,9.66625 64.9358462,9.9703125 65.2866154,10.3509375 C65.6483462,10.7446875 65.9245769,11.18875 66.1240769,11.683125 L66.1306538,11.700625 L66.1218846,11.6875 C66.317,12.1796875 66.4266154,12.7134375 66.4266154,13.2625 L66.4266154,13.266875 L66.4266154,13.2734375 C66.4288077,13.8815625 66.3104231,14.465625 66.1196923,14.95125 L66.1175,14.955625 C65.9267692,15.445625 65.6395769,15.8896875 65.3041538,16.24625 L65.2997692,16.250625 L65.291,16.259375 C64.9533846,16.61375 64.5412308,16.906875 64.0961923,17.1015625 C63.6555385,17.2984375 63.1359615,17.4121875 62.6207692,17.41 L62.6251538,17.41 L62.6207692,17.41 L62.6141923,17.41 L62.0025385,17.41 L56.1161923,17.41 L56.0679615,17.41 L53.6454615,17.41 L53.6454615,9.1346875 L62.6492692,9.1346875 C63.1381538,9.1325 63.6467692,9.255 64.0742692,9.4540625 L64.0742692,9.4540625 Z" id="Shape" fill="#000000"></path>
                            </g>
                        </g>
                    </g>
                </g>
            </g>
        </g>
    </g>
</svg>