<?xml version="1.0" encoding="UTF-8" standalone="no"?>
<svg width="73px" height="50px" viewBox="0 0 73 50" version="1.1" xmlns="http://www.w3.org/2000/svg" xmlns:xlink="http://www.w3.org/1999/xlink" xmlns:sketch="http://www.bohemiancoding.com/sketch/ns">
    <!-- Generator: Sketch 3.2.2 (9983) - http://www.bohemiancoding.com/sketch -->
    <title>EF</title>
    <desc>Created with Sketch.</desc>
    <defs></defs>
    <g id="III-Игры-Дизайнеров" stroke="none" stroke-width="1" fill="none" fill-rule="evenodd" sketch:type="MSPage">
        <g id="О-чемпионате-(дизайн)" sketch:type="MSArtboardGroup" transform="translate(-674.000000, -3953.000000)" fill="#00374E">
            <g id="4_block" sketch:type="MSLayerGroup" transform="translate(-1.000000, 3657.000000)">
                <g id="logos" transform="translate(675.000000, 121.000000)" sketch:type="MSShapeGroup">
                    <g id="2" transform="translate(0.000000, 175.000000)">
                        <g id="EF">
                            <path d="M10.276065,0.180763547 L8.81041178,7.34849754 C10.4675364,4.83987685 12.4171525,2.44578818 14.6425465,0.180763547 L10.276065,0.180763547 Z" id="Fill-2"></path>
                            <path d="M12.3470529,15.169803 C10.6277431,19.0114286 9.75469259,22.904532 9.75469259,26.7365517 C9.75469259,29.6835961 10.2782279,32.4944335 11.3115343,35.0944335 C12.2044939,37.343202 13.4668778,39.3951724 15.0704199,41.2131527 L22.2172919,41.2131527 C21.2147094,40.5710345 20.2900428,39.8262069 19.4509114,38.984335 C15.4115781,34.9375369 13.4946522,29.419803 14.0580057,23.4525616 C14.3364872,20.5057635 15.2024098,17.5567488 16.6319316,14.6850739 C18.1079081,11.7170936 20.1474838,8.92275862 22.6919148,6.37054187 C25.117137,3.94024631 27.8636084,1.96315271 30.8543963,0.499359606 C31.0778205,0.389261084 31.29977,0.283596059 31.5241774,0.1808867 L24.6157229,0.1808867 C23.0483121,1.33187192 21.5499687,2.61807882 20.1356859,4.03630542 C16.7558104,7.42349754 14.134201,11.169064 12.3470529,15.169803" id="Fill-4"></path>
                            <path d="M21.4878818,9.71667488 L24.9825418,9.71667488 C25.1661478,9.52455665 25.3531949,9.33022167 25.5449121,9.13810345 C29.2521815,5.42529557 33.8592926,3.0267734 38.588562,2.33711823 L39.0297572,0.180714286 L35.2185182,0.180714286 C31.1246192,1.47480296 27.0970838,3.8770197 23.6513364,7.32997537 C22.8800434,8.10263547 22.1598751,8.89918719 21.4878818,9.71667488" id="Fill-6"></path>
                            <path d="M43.2652566,26.8151724 C45.6931825,24.3814286 47.0300411,21.583399 47.0300411,18.9316749 C47.0300411,16.8915271 46.2592397,15.0434975 44.8014519,13.5804433 C44.1058626,12.8848768 43.2834451,12.3590148 42.3600074,12.0122167 L41.8922667,14.3053202 C42.3538626,14.5582759 42.774903,14.8700985 43.1438357,15.2400493 C44.4219502,16.5215764 45.039132,18.2806897 44.8867414,20.1966995 C44.7348424,22.09867 43.8222195,23.9797044 42.3147818,25.4905419 C41.3994552,26.4075369 40.3130579,27.1361084 39.1679165,27.6304433 L38.7294249,29.7747783 C40.334196,29.1752709 41.9020983,28.1819212 43.2652566,26.8151724" id="Fill-8"></path>
                            <path d="M48.3858256,18.9317241 C48.3858256,21.9440394 46.9086202,25.0864039 44.2240882,27.7755665 C42.5372229,29.4657143 40.5251758,30.6836946 38.4143205,31.31867 L37.8988963,33.838867 C40.6173475,33.1149754 43.2994215,31.5317241 45.5717616,29.2524138 C51.4717347,23.34133 52.3649401,15.3196552 47.6472229,10.5903448 C46.4182667,9.35610837 44.8882162,8.50315271 43.1666943,8.06768473 L42.6323441,10.6770443 C43.8222195,11.0893596 44.8867414,11.747734 45.7588088,12.6213793 C47.4783643,14.3430542 48.3858256,16.5238424 48.3858256,18.9317241" id="Fill-10"></path>
                            <path d="M43.5355286,20.087734 C43.6562121,18.5759113 43.177165,17.1961084 42.1858889,16.2017734 C42.0059697,16.0224631 41.811303,15.8608867 41.604101,15.7180296 L39.5126633,25.9426601 C40.1758081,25.5608867 40.8006094,25.0865025 41.3558519,24.5291133 C42.6361785,23.2463547 43.4094377,21.6690148 43.5355286,20.087734" id="Fill-12"></path>
                            <path d="M4.24997643,38.1982759 C3.82205387,37.1275862 3.46442761,36.0337438 3.17685185,34.9140394 L1.88915152,41.2130542 L5.67581145,41.2130542 C5.13924916,40.2418719 4.6636431,39.2359606 4.24997643,38.1982759" id="Fill-14"></path>
                            <path d="M8.39890808,26.7378571 C8.39890808,22.7124877 9.31177677,18.6307143 11.1092481,14.6124877 C12.9654636,10.462734 15.6804737,6.58243842 19.1773458,3.0770197 C20.2081943,2.04278325 21.2813189,1.07775862 22.3913121,0.180714286 L16.5712212,0.180714286 C16.3372279,0.40682266 16.1056926,0.633916256 15.8746488,0.864704433 C12.6439687,4.10189655 10.000238,7.62012315 7.9911404,11.3541133 L3.88273973,31.4587931 C4.1727734,33.6223399 4.71498889,35.7083005 5.50864882,37.6942611 C5.99482391,38.9149507 6.5734165,40.0883498 7.23975657,41.2132266 L13.3007229,41.2132266 C11.9473963,39.5078079 10.8592785,37.6267734 10.0516084,35.5957389 C8.95537946,32.8388424 8.39890808,29.8568227 8.39890808,26.7378571" id="Fill-16"></path>
                            <path d="M12.148429,47.7784483 C11.9382774,48.8139163 11.2906175,49.4607143 10.5763481,49.4607143 C10.1334323,49.4607143 9.72197778,49.266133 9.71730774,48.7294335 C9.71509562,48.5949507 9.73844579,48.4437192 9.76892391,48.3198276 L10.3101562,45.6939655 L9.81562424,45.6939655 L9.28151987,48.3060345 C9.24514276,48.4917488 9.22179259,48.6570197 9.22179259,48.7836207 C9.2299037,49.5634236 9.75245589,49.8799261 10.4595973,49.8799261 C11.0662101,49.8799261 11.5966276,49.5003695 11.9006714,49.0215517 L11.9159104,49.0215517 L11.7802337,49.760468 L12.2371596,49.760468 L13.0716209,45.6939655 L12.5773347,45.6939655 L12.148429,47.7784483 Z" id="Fill-18"></path>
                            <path d="M1.76507609,44.5882512 L4.99206936,44.5882512 L5.0891569,44.1313547 L1.32093131,44.1313547 L0.177756229,49.7604187 L4.01849024,49.7604187 L4.11557778,49.3059852 L0.810177104,49.3059852 L1.262433,47.0806158 L4.26870572,47.0806158 L4.36653064,46.6217488 L1.35116364,46.6217488 L1.76507609,44.5882512 Z" id="Fill-20"></path>
                            <path d="M6.35372828,49.4607143 C5.60578552,49.4607143 5.2525835,48.9405172 5.24570135,48.2471675 C5.23636128,47.2525862 5.81372492,45.992734 6.95567104,45.992734 C7.67903468,45.992734 8.0939303,46.4587438 8.10081246,47.1671182 C8.11138148,48.1725369 7.49198754,49.4607143 6.35372828,49.4607143 L6.35372828,49.4607143 Z M8.75535455,44.1311576 L8.29130067,46.4587438 L8.27507845,46.4587438 C8.08803131,45.8181034 7.58317609,45.5747537 6.94633098,45.5747537 C5.58218956,45.5747537 4.73961717,46.9695813 4.75116936,48.2166256 C4.76075522,49.2112069 5.26806835,49.8799261 6.30924007,49.8799261 C7.02449259,49.8799261 7.43840505,49.5634236 7.7795633,49.0259852 L7.79701448,49.0259852 L7.62299428,49.760468 L8.10228721,49.760468 L9.25209865,44.1311576 L8.75535455,44.1311576 Z" id="Fill-22"></path>
                            <path d="M19.815469,24.6731281 C19.815469,24.8674631 19.8201391,25.0608128 19.8270212,25.2539163 L22.8952333,25.2539163 C22.8450919,24.7879064 22.8192838,24.3147537 22.8192838,23.8344581 C22.8192838,21.0376601 23.6665263,18.1775616 25.2199269,15.5750985 L22.3190987,15.5750985 C20.6826205,18.502931 19.815469,21.6068719 19.815469,24.6731281" id="Fill-24"></path>
                            <path d="M33.5449747,15.5750985 L31.045032,15.5750985 C29.0079141,17.8120443 27.8495,20.5221429 27.8495,23.0955419 C27.8495,23.8519458 27.9453586,24.5723892 28.1324057,25.2539163 L30.544601,25.2539163 C30.1333923,24.4177094 29.914638,23.4760837 29.914638,22.4874138 C29.914638,20.3209113 30.9083721,18.1317488 32.7127256,16.3221429 C32.9794091,16.0553941 33.25617,15.8058867 33.5449747,15.5750985" id="Fill-26"></path>
                            <path d="M24.1738394,23.8345074 C24.1738394,24.3180049 24.2030886,24.7914039 24.256671,25.2539655 L26.7391626,25.2539655 C26.5779236,24.5606158 26.493863,23.8369704 26.493863,23.0955911 C26.493863,21.5613547 26.836496,20.011601 27.5107013,18.4914039 C27.9617283,17.4689901 28.5521189,16.4958374 29.2686003,15.5751478 L26.8200279,15.5751478 C25.1134993,18.1492857 24.1738394,21.031798 24.1738394,23.8345074" id="Fill-28"></path>
                            <path d="M46.5299051,30.2141379 C43.9112451,32.8387685 40.7717535,34.6094581 37.5993259,35.3087192 L37.0455582,38.0225123 C41.1475684,37.213399 45.2225414,35.0205419 48.4092249,31.8266995 C52.0233394,28.2067488 54.3603226,23.8124138 54.994464,19.4530542 C55.1087569,18.6636453 55.1640599,17.8870443 55.1647973,17.1269458 C55.1647973,16.9478818 55.161602,16.7673399 55.155703,16.5895074 C55.0281374,13.0476355 53.6428579,9.87596059 51.0711441,7.29812808 C49.1517603,5.37497537 46.7213764,4.19812808 44.053804,3.72817734 L43.4398175,6.73482759 C45.4199118,7.22669951 47.1824808,8.2035468 48.6085616,9.63014778 C53.869969,14.9052709 52.9767636,23.7547783 46.5299051,30.2141379" id="Fill-30"></path>
                            <path d="M52.029263,6.33660099 C53.8557377,8.16837438 55.145896,10.2883251 55.8618859,12.6400493 C55.8822865,12.7080296 55.9026872,12.7760099 55.9223505,12.8437438 L56.561162,9.71665025 L58.3696939,9.71665025 C57.5140946,7.54054187 56.2165626,5.57305419 54.5061013,3.85605911 C52.8484852,2.19522167 50.8890374,0.974778325 48.7388556,0.180689655 L44.7796502,0.180689655 L44.3269027,2.39448276 C44.9689094,2.50778325 45.5973976,2.66024631 46.2145795,2.84990148 C48.4598825,3.54916256 50.4176098,4.72157635 52.029263,6.33660099" id="Fill-32"></path>
                            <path d="M59.8175273,9.71667488 L64.4305374,9.71667488 C63.5542916,6.13982759 61.8222007,2.89327586 59.3067731,0.180714286 L51.913864,0.180714286 C53.2153286,0.925541872 54.4027461,1.83219212 55.4643185,2.89573892 C57.4370391,4.87504926 58.9002343,7.16593596 59.8175273,9.71667488" id="Fill-34"></path>
                            <path d="M37.7174286,6.60815271 L38.2982333,3.7623399 C34.3363242,4.45076355 30.2876508,6.46431034 26.8935195,9.7167734 L30.5914488,9.7167734 C32.7829236,8.12982759 35.2233848,7.06036946 37.7174286,6.60815271" id="Fill-36"></path>
                            <path d="M37.4226758,8.05135468 C35.9432582,8.37918719 34.485962,8.94125616 33.1033862,9.71662562 L37.0839754,9.71662562 L37.4226758,8.05135468 Z" id="Fill-38"></path>
                            <path d="M15.4069572,23.5802463 C14.8834219,29.1366502 16.660001,34.2676847 20.4093007,38.0260591 C21.7439471,39.362266 23.314799,40.4317241 25.0867081,41.2130049 L30.6184859,41.2130049 L30.968001,39.5307389 C27.7818091,39.038867 24.9768394,37.6386207 22.7492333,35.4070936 C21.6036003,34.2607882 20.6710684,32.9324631 19.9722838,31.4777833 L16.7521727,31.4777833 L17.9946475,25.2529064 L18.4714825,25.2529064 C18.4643545,25.0595567 18.4596845,24.8674384 18.4596845,24.6718719 C18.4596845,21.6046305 19.2614556,18.5102956 20.780937,15.5750739 L19.9860481,15.5750739 L21.0685128,10.2391133 C17.8216104,14.3689163 15.8395498,18.9997044 15.4069572,23.5802463" id="Fill-40"></path>
                            <path d="M32.6379067,31.4871675 L32.6415936,31.4778079 L32.6064455,31.4778079 L27.3762535,31.4778079 C28.7413781,32.7428325 30.3471323,33.5977586 32.1143714,34.0073645 L32.6379067,31.4871675 Z" id="Fill-42"></path>
                            <path d="M15.6055811,45.992734 C16.1888438,45.992734 16.6248774,46.3567734 16.5919414,46.9612069 L17.0877024,46.9612069 C17.1085946,46.016133 16.4378303,45.5747537 15.5564229,45.5747537 C14.1632781,45.5747537 13.3637192,46.9331281 13.3755172,48.2003695 C13.3848572,49.2028325 13.9506687,49.8799261 14.958167,49.8799261 C15.9398572,49.8799261 16.5499111,49.3737685 16.839699,48.4437192 L16.3454128,48.4437192 C16.1384566,49.0343596 15.6709616,49.4607143 15.0166653,49.4607143 C14.2463556,49.4607143 13.8803724,48.9242611 13.8734902,48.2003695 C13.8629212,47.1415025 14.4181636,45.992734 15.6055811,45.992734" id="Fill-44"></path>
                            <path d="M31.8375367,35.3381034 C29.6753111,34.8462315 27.7256949,33.7617488 26.1034727,32.1371182 C25.8908633,31.924064 25.6907892,31.7050985 25.4980889,31.4777586 L21.4961158,31.4777586 C22.0874896,32.5669212 22.8285502,33.5649507 23.7074997,34.4469704 C25.7411764,36.4846552 28.3146108,37.7578079 31.2437051,38.1957389 L31.8375367,35.3381034 Z" id="Fill-46"></path>
                            <path d="M38.8592519,49.7604187 L39.3572249,49.7604187 L40.1931609,45.6939163 L39.6959253,45.6939163 L38.8592519,49.7604187 Z" id="Fill-48"></path>
                            <path d="M48.2010152,44.4638916 L47.7045168,44.4638916 L47.4572508,45.6939409 L46.7238098,45.6939409 L46.6333586,46.1099507 L47.3665539,46.1099507 L46.8339242,48.8072414 C46.7963182,48.9872906 46.7805875,49.1397537 46.7805875,49.2239901 C46.784766,49.713399 47.1682003,49.8094581 47.5349209,49.8094581 C47.70083,49.8094581 47.8743586,49.7934483 48.0405135,49.7789163 L48.1218704,49.3436946 C47.9242542,49.3762069 47.7369613,49.3902463 47.5408199,49.3902463 C47.3515606,49.3902463 47.2807727,49.2498522 47.2807727,49.1069951 C47.2783148,48.9828571 47.2896212,48.9114286 47.3296852,48.7188177 L47.8623148,46.1099507 L48.6876818,46.1099507 L48.7624024,45.6939409 L47.9512912,45.6939409 L48.2010152,44.4638916 Z" id="Fill-50"></path>
                            <path d="M40.5145084,44.1312562 L40.0187475,44.1312562 L39.8530842,44.9278079 L40.3493367,44.9278079 L40.5145084,44.1312562 Z" id="Fill-52"></path>
                            <path d="M50.1195633,41.2131034 L51.047671,36.6825616 C49.0429976,38.5002956 46.7858966,40.0264039 44.3909067,41.2131034 L50.1195633,41.2131034 Z" id="Fill-54"></path>
                            <path d="M43.0533108,45.6449261 C42.9665465,45.6377833 42.8731458,45.6377833 42.7861357,45.6377833 C42.0620347,45.6303941 41.6319,46.0464039 41.3241694,46.6308867 L41.3089303,46.6308867 L41.5058091,45.6939409 L41.0569943,45.6939409 L40.2195835,49.7604433 L40.7168192,49.7604433 L41.155065,47.6333498 C41.3111424,46.8675862 41.7769168,46.1508374 42.6639774,46.134335 C42.759836,46.134335 42.8520077,46.1414778 42.9468832,46.1414778 L43.0533108,45.6449261 Z" id="Fill-56"></path>
                            <path d="M44.818731,45.9915271 C45.3776603,45.9915271 45.8163976,46.2607389 45.7783,46.8841379 L46.2765189,46.8841379 C46.28463,45.9447291 45.665236,45.5730542 44.8140609,45.5730542 C44.1624684,45.5730542 43.3152259,45.8976847 43.3225997,46.6848768 C43.3284987,47.3570443 43.8771047,47.6008867 44.4205492,47.8151724 C44.9568657,48.018867 45.5167781,48.1851232 45.5226771,48.7144335 C45.5273471,49.233399 44.9455593,49.4629557 44.5058387,49.4629557 C43.9328993,49.4629557 43.3461956,49.2240394 43.3513572,48.4393103 L42.8519094,48.4393103 C42.8157781,49.4535961 43.6131249,49.8799507 44.3932663,49.8799507 C45.1628387,49.8799507 46.0250744,49.5474384 46.018438,48.6336453 C46.0100811,47.8841379 45.2441956,47.6555665 44.6860037,47.436601 C44.2266199,47.2526108 43.8242596,47.0634483 43.8200811,46.6848768 C43.8136906,46.1272414 44.3888421,45.9915271 44.818731,45.9915271" id="Fill-58"></path>
                            <path d="M59.56333,17.1269951 L56.5182222,17.1269951 C56.5182222,17.9548276 56.4602155,18.7971921 56.3355993,19.6496552 C55.9838721,22.0693596 55.1430202,24.4949754 53.8791616,26.8058128 L56.9181246,26.8058128 C58.2414646,24.1858621 59.0975556,21.4617241 59.4281448,18.7491626 C59.4954916,18.204335 59.5382593,17.6646798 59.56333,17.1269951" id="Fill-60"></path>
                            <path d="M67.5061724,0.180763547 L61.1136337,0.180763547 C63.4248088,2.95416256 65.0150781,6.19135468 65.8261892,9.71672414 L70.769297,9.71672414 C70.4659906,7.59923645 69.9259872,5.55416256 69.1593643,3.61007389 C68.6891657,2.41894089 68.1376101,1.27583744 67.5061724,0.180763547" id="Fill-62"></path>
                            <path d="M69.0613428,0.180763547 C69.5684101,1.12460591 70.0216492,2.1014532 70.4190936,3.11007389 C70.9005987,4.32903941 71.2960768,5.58224138 71.6015953,6.86820197 L72.9672114,0.180763547 L69.0613428,0.180763547 Z" id="Fill-64"></path>
                            <path d="M65.0353067,17.1269951 L60.9190407,17.1269951 C60.8956906,17.7196059 60.8475155,18.3134483 60.7750071,18.9129557 C60.4498253,21.5693596 59.6507579,24.2338916 58.4254886,26.8058128 L62.6076266,26.8058128 C63.8486266,23.947931 64.645236,21.0023645 64.9539498,18.0614778 C64.9888522,17.7489163 65.0151519,17.439803 65.0353067,17.1269951" id="Fill-66"></path>
                            <path d="M66.3029013,18.2032759 C65.9988576,21.0963793 65.2435411,23.9914532 64.0794737,26.8069704 L67.205201,26.8069704 L69.1518677,17.1269212 L66.3940899,17.1269212 C66.3707397,17.4852956 66.33977,17.8449015 66.3029013,18.2032759" id="Fill-68"></path>
                            <path d="M36.75083,39.4535961 L36.3922205,41.213202 L40.9467323,41.213202 C44.6884125,39.86 48.2199411,37.6452217 51.1047929,34.7523645 C51.2498098,34.6095074 51.3908939,34.4617241 51.5312407,34.3168966 L52.6613889,28.8003941 C51.7170589,30.1989163 50.6161599,31.5375862 49.3690152,32.7873399 C45.852234,36.3124631 41.3043586,38.6831527 36.75083,39.4535961" id="Fill-70"></path>
                            <path d="M24.994266,44.1312562 L24.8308148,44.9278079 L25.325101,44.9278079 L25.4910101,44.1312562 L24.994266,44.1312562 Z" id="Fill-72"></path>
                            <path d="M23.8395879,49.7604187 L24.331662,49.7604187 L25.1683354,45.6939163 L24.6706081,45.6939163 L23.8395879,49.7604187 Z" id="Fill-74"></path>
                            <path d="M20.2526825,48.2696059 C20.1032414,48.980197 19.6003525,49.4607389 18.8081673,49.4607389 C18.3357566,49.4607389 17.9034098,49.2496552 17.8975108,48.7294581 C17.8893997,47.8769951 18.8875579,47.8489163 19.4929418,47.7974384 C19.7429114,47.7784729 20.2293323,47.765665 20.3859013,47.5700985 L20.4021236,47.586601 L20.2526825,48.2696059 Z M21.0615815,46.4811823 C21.0544535,45.7654187 20.1941842,45.5747783 19.6448407,45.5747783 C18.7705613,45.5747783 18.0668609,45.9843842 17.94077,46.9072906 L18.4362852,46.9072906 C18.5321438,46.227734 19.0733761,45.9927586 19.7033391,45.9927586 C20.0840697,45.9927586 20.5611505,46.095468 20.5658205,46.5794581 C20.5704906,47.1109852 20.4067936,47.2962069 20.0889855,47.3730542 C19.7733896,47.4508867 19.3152347,47.4112315 18.7951404,47.4927586 C18.0739889,47.6171429 17.3938845,47.8912808 17.4007667,48.7506404 C17.4091236,49.5474384 17.9712481,49.8799507 18.7098508,49.8799507 C19.2778744,49.8799507 19.8318879,49.6035961 20.1147936,49.1314286 L20.1263458,49.1466995 C20.1206926,49.2168966 20.1147936,49.2966995 20.1170057,49.3691133 C20.1241337,49.6361084 20.2760327,49.8095074 20.5495983,49.8095074 C20.6828172,49.8095074 20.8487263,49.795468 20.9598239,49.7698522 L21.0264333,49.3735468 C20.956137,49.3831527 20.9013256,49.3902956 20.8300461,49.3902956 C20.7108374,49.3902956 20.5704906,49.3691133 20.5682785,49.2252709 C20.5658205,48.980197 20.6501269,48.7683744 20.8216892,47.8538424 C20.8988677,47.4927586 21.0660057,46.8769951 21.0615815,46.4811823 L21.0615815,46.4811823 Z" id="Fill-76"></path>
                            <path d="M36.2599603,44.5894581 L39.3220276,44.5894581 L39.4085461,44.13133 L35.8158155,44.13133 L34.667233,49.7603941 L35.2010916,49.7603941 L35.750435,47.0805911 L38.4782263,47.0805911 L38.5600747,46.6217241 L35.8462936,46.6217241 L36.2599603,44.5894581 Z" id="Fill-78"></path>
                            <path d="M27.1529768,49.4607143 C26.3278556,49.4607143 25.9291822,48.9242611 25.921071,48.1373153 C25.911731,47.183867 26.5008926,45.992734 27.5855694,45.992734 C28.3802125,45.992734 28.786997,46.51367 28.7938791,47.2703202 C28.8019902,48.2166256 28.2376535,49.4607143 27.1529768,49.4607143 M27.6671721,45.5747537 C26.2179869,45.5747537 25.4115458,46.8511084 25.4243269,48.1836207 C25.434896,49.2028325 26.0181586,49.8799261 27.0605593,49.8799261 C28.5648017,49.8799261 29.3024212,48.5397783 29.2884111,47.1671182 C29.279071,46.1671182 28.6117478,45.5747537 27.6671721,45.5747537" id="Fill-80"></path>
                            <path d="M33.6723192,17.2827586 C32.1226054,18.8357143 31.269464,20.6827586 31.269464,22.4874384 C31.269464,23.5300493 31.561464,24.4726601 32.1179354,25.2527094 L33.5695785,25.2527094 L35.4488983,15.9100985 C34.8179522,16.2756158 34.2157636,16.7369458 33.6723192,17.2827586" id="Fill-82"></path>
                            <path d="M32.1623007,45.5746798 C31.5571626,45.5746798 31.0240414,45.9515271 30.7224556,46.4342857 L30.7106576,46.4342857 L30.8416643,45.6938916 L30.3859673,45.6938916 L29.5512603,49.7603941 L30.0492333,49.7603941 L30.4759269,47.6734483 C30.6863242,46.640197 31.3327552,45.9926601 32.0502199,45.9926601 C32.4896946,45.9926601 32.8996744,46.1892118 32.9055734,46.7268966 C32.9055734,46.8606404 32.8822232,47.0091626 32.855432,47.1360099 L32.3119875,49.7603941 L32.8087316,49.7603941 L33.342836,47.1532512 C33.3826542,46.961133 33.4001054,46.7970936 33.3988764,46.6680296 C33.3917485,45.8906897 32.8694421,45.5746798 32.1623007,45.5746798" id="Fill-84"></path>
                            <path d="M23.252835,44.4638916 L22.7560909,44.4638916 L22.5105455,45.6939409 L21.7788249,45.6939409 L21.68567,46.1111823 L22.4193569,46.1111823 L21.8842694,48.8072414 C21.8491212,48.9897537 21.8351111,49.1385222 21.8351111,49.2252217 C21.8397811,49.7158621 22.2185455,49.8094581 22.5877239,49.8094581 C22.7526498,49.8094581 22.92667,49.7954187 23.090367,49.7766995 L23.1746734,49.3436946 C22.9782862,49.3737438 22.7887811,49.3902463 22.5914108,49.3902463 C22.4055926,49.3902463 22.3318552,49.2498522 22.3306263,49.1079803 C22.3284141,48.9801478 22.3424242,48.9104433 22.3832256,48.7205419 L22.9138889,46.1111823 L23.742697,46.1111823 L23.8152054,45.6939409 L23.0038485,45.6939409 L23.252835,44.4638916 Z" id="Fill-86"></path>
                        </g>
                    </g>
                </g>
            </g>
        </g>
    </g>
</svg>