<?xml version="1.0" encoding="UTF-8" standalone="no"?>
<svg width="68px" height="95px" viewBox="0 0 68 95" version="1.1" xmlns="http://www.w3.org/2000/svg" xmlns:xlink="http://www.w3.org/1999/xlink" xmlns:sketch="http://www.bohemiancoding.com/sketch/ns">
    <!-- Generator: Sketch 3.2.2 (9983) - http://www.bohemiancoding.com/sketch -->
    <title>Imported Layers</title>
    <desc>Created with Sketch.</desc>
    <defs></defs>
    <g id="Page-1" stroke="none" stroke-width="1" fill="none" fill-rule="evenodd" sketch:type="MSPage">
        <g id="О-чемпионате-(дизайн)" sketch:type="MSArtboardGroup" transform="translate(-677.000000, -3778.000000)">
            <g id="4_block" sketch:type="MSLayerGroup" transform="translate(-1.000000, 3657.000000)">
                <g id="logos" transform="translate(678.000000, 121.000000)" sketch:type="MSShapeGroup">
                    <g id="1">
                        <g id="Imported-Layers">
                            <path d="M50.003,47.31 L50.003,30.1789896 L34.9315,38.7437565 L50.003,47.31" id="Fill-1" fill="#E05437"></path>
                            <path d="M34.574,59.3351295 L34.574,76.4661399 L49.6435,67.8998964 L34.574,59.3351295" id="Fill-2" fill="#E05437"></path>
                            <path d="M34.574,39.3565803 L34.574,57.7053627 L50.742,48.5317098 L34.574,39.3565803" id="Fill-3" fill="#E05437"></path>
                            <path d="M67.577,40.9833938 L53.2225,49.1401036 L67.577,57.3002591 L67.577,40.9833938" id="Fill-4" fill="#E05437"></path>
                            <path d="M51.0765,67.0862435 L51.0765,49.1401036 L34.574,58.5219689 L50.36,67.4943005 L51.0765,67.0862435" id="Fill-5" fill="#E05437"></path>
                            <path d="M51.792,49.1401036 L51.792,66.6811399 L67.2195,57.9096373 L51.792,49.1401036" id="Fill-6" fill="#E05437"></path>
                            <path d="M34.217,37.525 L49.287,28.9572798 L34.217,20.3934974 L34.217,37.525" id="Fill-7" fill="#E05437"></path>
                            <path d="M17.713,47.31 L32.784,38.7437565 L17.713,30.1789896 L17.713,47.31" id="Fill-8" fill="#E05437"></path>
                            <path d="M33.5,20.3934974 L18.4305,28.9572798 L33.5,37.525 L33.5,20.3934974" id="Fill-9" fill="#E05437"></path>
                            <path d="M33.142,39.3565803 L17.713,48.1236528 L16.9595,48.5317098 L33.142,57.7053627 L33.142,39.3565803" id="Fill-10" fill="#E05437"></path>
                            <path d="M33.142,59.3351295 L18.0715,67.8998964 L33.142,76.4661399 L33.142,59.3351295" id="Fill-11" fill="#E05437"></path>
                            <path d="M16.6395,49.1401036 L16.6395,67.0862435 L17.355,67.4943005 L33.142,58.5219689 L16.6395,49.1401036" id="Fill-12" fill="#E05437"></path>
                            <path d="M0.1375,57.3002591 L14.4915,49.1401036 L0.1375,40.9833938 L0.1375,57.3002591" id="Fill-13" fill="#E05437"></path>
                            <path d="M15.924,49.1401036 L15.924,49.1401036 L0.496,57.9096373 L15.924,66.6811399 L15.924,49.1401036" id="Fill-14" fill="#E05437"></path>
                            <path d="M16.6395,9.99715026 L16.6395,26.7191192 L32.068,17.9515544 L17.355,9.59007772 L16.6395,9.99715026" id="Fill-15" fill="#4DBFE2"></path>
                            <path d="M14.8495,29.7719171 L0.496,37.9296114 L14.8495,46.0907513 L14.8495,29.7719171" id="Fill-16" fill="#4DBFE2"></path>
                            <path d="M0.1375,37.3197409 L14.8495,28.9572798 L14.8495,28.5526684 L0.1375,20.1911917 L0.1375,37.3197409" id="Fill-17" fill="#4DBFE2"></path>
                            <path d="M15.924,27.1256995 L15.924,10.4017617 L0.8535,18.967513 L15.5655,27.3299741 L15.924,27.1256995" id="Fill-18" fill="#4DBFE2"></path>
                            <path d="M67.577,20.1911917 L52.865,28.5526684 L52.865,28.9572798 L67.577,37.3197409 L67.577,20.1911917" id="Fill-19" fill="#4DBFE2"></path>
                            <path d="M51.792,27.1256995 L52.1485,27.3299741 L66.862,18.967513 L51.792,10.4017617 L51.792,27.1256995" id="Fill-20" fill="#4DBFE2"></path>
                            <path d="M52.865,46.0907513 L67.2195,37.9296114 L52.865,29.7719171 L52.865,46.0907513" id="Fill-21" fill="#4DBFE2"></path>
                            <path d="M51.0765,9.99715026 L50.36,9.59007772 L35.6475,17.9515544 L51.0765,26.7191192 L51.0765,9.99715026" id="Fill-22" fill="#4DBFE2"></path>
                            <path d="M34.9485,17.5351295 L49.6435,9.1815285 L34.217,0.413471503 L34.217,17.1177202 L34.9485,17.5351295" id="Fill-23" fill="#4DBFE2"></path>
                            <path d="M33.5,17.1226425 L33.5,0.413471503 L18.0715,9.1815285 L32.772,17.5375907 L33.5,17.1226425" id="Fill-24" fill="#4DBFE2"></path>
                            <path d="M8.262,85.2307513 L3.163,85.2307513 L3.163,94.8291969 L0.1375,94.8291969 L0.1375,82.9684715 L8.262,82.9684715 L8.262,85.2307513" id="Fill-25" fill="#343433"></path>
                            <path d="M17.6465,94.8291969 L14.8635,94.8291969 L14.8635,89.3959845 L11.3845,94.8291969 L9.0135,94.8291969 L9.0135,85.8819689 L11.797,85.8819689 L11.797,90.7432124 L14.9855,85.8819689 L17.6465,85.8819689 L17.6465,94.8291969" id="Fill-26" fill="#343433"></path>
                            <path d="M28.1505,94.8291969 L25.3185,94.8291969 L25.3185,87.8513731 L23.093,87.8513731 C23.078,88.2338342 23.0655,88.5409845 23.0565,88.7747927 C23.0485,89.0076166 23.039,89.2699741 23.0285,89.5648187 C22.99,90.4198187 22.918,91.1143523 22.8095,91.6543264 C22.702,92.1943005 22.565,92.6348446 22.3975,92.9798964 C22.2355,93.3254404 22.069,93.596658 21.9005,93.7891192 C21.7295,93.983057 21.544,94.1637047 21.3455,94.3335233 C21.156,94.4949741 20.8895,94.6244301 20.545,94.7297668 C20.2,94.8336269 19.8845,94.8853109 19.5975,94.8853109 C19.355,94.8853109 19.1135,94.8764508 18.8735,94.8567617 C18.634,94.838057 18.489,94.8291969 18.4405,94.8291969 L18.4405,92.5679016 L18.522,92.5679016 C18.544,92.5679016 18.579,92.5703627 18.631,92.5733161 C18.682,92.5792228 18.732,92.5826684 18.781,92.5826684 C18.91,92.5826684 19.045,92.568886 19.1855,92.5388601 C19.3255,92.508342 19.4415,92.4482902 19.533,92.3606736 C19.9055,91.9875648 20.1445,91.4909067 20.25,90.8711917 C20.3555,90.2480311 20.426,89.5520207 20.4635,88.7836528 C20.4845,88.3632902 20.507,87.8932124 20.528,87.3763731 C20.5505,86.8600259 20.5665,86.3604145 20.576,85.8819689 L28.1505,85.8819689 L28.1505,94.8291969" id="Fill-27" fill="#343433"></path>
                            <path d="M37.836,91.8256218 C37.836,92.2829016 37.744,92.702772 37.5615,93.0876943 C37.378,93.4731088 37.138,93.7881347 36.8415,94.0322798 C36.4735,94.3251554 36.095,94.5299223 35.7045,94.648057 C35.313,94.7686528 34.7865,94.8291969 34.1225,94.8291969 L29.656,94.8291969 L29.656,85.8819689 L32.4795,85.8819689 L32.4795,88.9017876 L34.1305,88.9017876 C34.7825,88.9017876 35.3105,88.9475648 35.712,89.036658 C36.1145,89.1291969 36.496,89.3044301 36.8575,89.5722021 C37.176,89.8040415 37.419,90.1210363 37.5855,90.5207254 C37.752,90.9179534 37.836,91.3530829 37.836,91.8256218 L37.836,91.8256218 Z M34.7205,92.5974352 C34.8135,92.4817617 34.8755,92.361658 34.9075,92.2356477 C34.9395,92.1116062 34.956,91.9826425 34.956,91.8507254 C34.956,91.4667876 34.839,91.1852332 34.609,90.9976943 C34.376,90.8106477 34.0415,90.7190933 33.6045,90.7190933 L32.4795,90.7190933 L32.4795,93.0202591 L33.6045,93.0202591 C33.8965,93.0202591 34.1335,92.9798964 34.3165,92.8952332 C34.5,92.8145078 34.6345,92.7140933 34.7205,92.5974352 L34.7205,92.5974352 Z" id="Fill-28" fill="#343433"></path>
                            <path d="M57.922,94.8291969 L55.1385,94.8291969 L55.1385,89.3959845 L51.659,94.8291969 L49.289,94.8291969 L49.289,85.8819689 L52.072,85.8819689 L52.072,90.7432124 L55.2605,85.8819689 L57.922,85.8819689 L57.922,94.8291969" id="Fill-29" fill="#343433"></path>
                            <path d="M67.681,94.8291969 L64.857,94.8291969 L64.857,91.7217617 L63.999,91.7217617 L61.823,94.8291969 L58.6515,94.8291969 L61.257,91.323057 C60.6085,91.031658 60.1365,90.6767617 59.84,90.2623057 C59.5435,89.8429275 59.3955,89.2867098 59.3955,88.5926684 C59.3955,88.0979793 59.494,87.6805699 59.691,87.3443782 C59.8875,87.0076943 60.153,86.7231865 60.488,86.4893782 C60.7845,86.2890415 61.1335,86.1344819 61.535,86.0350518 C61.937,85.9351295 62.387,85.8819689 62.883,85.8819689 L67.681,85.8819689 L67.681,94.8291969 L67.681,94.8291969 Z M64.857,89.9689378 L64.857,87.7371762 L63.5535,87.7371762 C63.156,87.7371762 62.8435,87.8282383 62.62,88.0049482 C62.3965,88.1851036 62.284,88.4435233 62.284,88.7836528 C62.284,89.2020466 62.3945,89.5052591 62.616,89.6927979 C62.837,89.8759067 63.1655,89.9689378 63.6035,89.9689378 L64.857,89.9689378 L64.857,89.9689378 Z" id="Fill-30" fill="#343433"></path>
                            <path d="M47.902,94.8291969 L47.902,85.9439896 L40.5135,85.9439896 C40.5135,87.3094301 40.3915,88.596114 40.1455,89.8060104 C39.8995,91.016399 39.572,92.0422021 39.162,92.881943 L38.507,92.881943 L38.507,94.8262435 L47.902,94.8291969 L47.902,94.8291969 Z M45.085,92.881943 L41.833,92.881943 C42.14,92.2548446 42.4025,91.5189637 42.622,90.6728238 C42.8405,89.824715 42.995,88.9042487 43.0865,87.9109326 L45.085,87.9109326 L45.085,92.881943 L45.085,92.881943 Z" id="Fill-31" fill="#343433"></path>
                        </g>
                    </g>
                </g>
            </g>
        </g>
    </g>
</svg>