<?xml version="1.0" encoding="UTF-8" standalone="no"?>
<svg width="143px" height="57px" viewBox="0 0 143 57" version="1.1" xmlns="http://www.w3.org/2000/svg" xmlns:xlink="http://www.w3.org/1999/xlink" xmlns:sketch="http://www.bohemiancoding.com/sketch/ns">
    <!-- Generator: Sketch 3.2.2 (9983) - http://www.bohemiancoding.com/sketch -->
    <title>Group</title>
    <desc>Created with Sketch.</desc>
    <defs></defs>
    <g id="Page-1" stroke="none" stroke-width="1" fill="none" fill-rule="evenodd" sketch:type="MSPage">
        <g id="Group" sketch:type="MSLayerGroup" fill="#FFFFFF">
            <path d="M19.864194,38.5435443 L12.1478856,38.5435443 L19.8549453,16.1757342 L19.864194,38.5435443 L19.864194,38.5435443 Z M19.9780249,1.37305063 L0.277462687,55.9848228 L6.26496517,55.9848228 L10.2746567,44.1814937 L19.8528109,44.1814937 L19.8528109,55.9884304 L25.2903682,55.9884304 L25.2882338,1.37305063 L19.9780249,1.37305063 L19.9780249,1.37305063 Z" id="Fill-43" sketch:type="MSShapeGroup"></path>
            <path d="M43.3183284,7.40783544 L56.1264328,7.40783544 L57.1758109,1.37232911 L38.9080945,1.37232911 L29.4138905,55.9848228 L34.872791,55.9848228 L39.0596318,31.9034051 L50.858199,31.9034051 L51.8300299,26.2618481 L40.0456915,26.2618481 L43.3183284,7.40783544" id="Fill-44" sketch:type="MSShapeGroup"></path>
            <path d="M65.4954229,51.0020127 L64.2518209,51.0020127 C62.1480846,51.0020127 60.8269353,50.9616076 60.1809453,50.179481 C59.3684776,49.1946076 59.3457114,46.7234051 60.109801,42.4015063 L64.8757562,15.2723924 C66.4459104,6.34503797 68.3710746,6.34503797 71.5611841,6.34503797 L72.8047861,6.34503797 C74.9085224,6.34503797 76.2303831,6.384 76.8756617,7.1668481 C77.6888408,8.15244304 77.711607,10.6236456 76.9475174,14.9448228 L72.1808507,42.0739367 C70.6106965,51.0020127 68.6855323,51.0020127 65.4954229,51.0020127 L65.4954229,51.0020127 L65.4954229,51.0020127 Z M81.473005,3.33197468 C79.9690149,1.50941772 77.5294776,0.624835443 74.0156617,0.624835443 L72.3259851,0.624835443 C65.9749353,0.624835443 61.4053383,2.5498481 59.7426965,11.9469114 L54.2859303,42.9476962 C53.3468259,48.2883797 53.7587512,51.8057848 55.5843134,54.0157975 C57.0883035,55.8361899 59.5271294,56.7222152 63.0416567,56.7222152 L64.7313333,56.7222152 C71.0816716,56.7222152 75.6512687,54.7972025 77.3139104,45.3994177 L82.7706766,14.3993544 C83.7097811,9.05794937 83.2978557,5.54126582 81.473005,3.33197468 L81.473005,3.33197468 L81.473005,3.33197468 Z" id="Fill-45" sketch:type="MSShapeGroup"></path>
            <path d="M108.529886,1.37305063 L102.061448,38.5868354 C100.167587,48.6873797 98.7091294,51.0099494 94.2569204,51.0099494 L93.173393,51.0099494 C91.1415124,51.0099494 89.9633632,50.6794937 89.3529453,49.9392152 C88.2288657,48.5762658 88.5426119,45.2911899 89.4646418,40.0767722 L96.1920448,1.37305063 L90.4649303,1.37305063 L83.3953234,42.1908228 C82.430607,47.6758101 82.9129652,51.4955316 84.8708557,53.866443 C86.4317612,55.7568228 88.8471095,56.6940759 92.2506517,56.7279873 L93.4928308,56.7294304 C101.350005,56.7294304 105.319144,52.44 107.193085,41.9195316 L114.252731,1.37305063 L108.529886,1.37305063" id="Fill-46" sketch:type="MSShapeGroup"></path>
            <path d="M136.868786,15.9859747 C135.371199,24.6037975 134.422846,26.2928734 126.91499,26.2928734 L121.520119,26.2661772 L124.894493,6.86020253 L129.755781,6.86092405 C131.899358,6.86092405 134.56798,6.86092405 136.018612,8.61421519 C137.187512,10.0276709 137.474224,12.5068101 136.868786,15.9859747 L136.868786,15.9859747 L136.868786,15.9859747 Z M140.617378,5.17689873 C137.796507,1.767 133.013478,1.37305063 129.661159,1.37305063 L120.122846,1.37305063 L110.627219,55.9884304 L116.35291,55.9884304 L120.540463,31.9034051 L125.319935,31.9041266 L129.957119,55.9884304 L135.675697,55.9884304 L131.005075,31.6948861 C132.561711,31.4683291 133.791085,30.9935696 135.624473,29.9610759 C138.971811,28.0728608 141.213567,23.6203671 142.478512,16.3496203 C143.329398,11.455557 142.703328,7.69644304 140.617378,5.17689873 L140.617378,5.17689873 L140.617378,5.17689873 Z" id="Fill-47" sketch:type="MSShapeGroup"></path>
        </g>
    </g>
</svg>