<?xml version="1.0" encoding="UTF-8" standalone="no"?>
<svg width="182px" height="36px" viewBox="0 0 182 36" version="1.1" xmlns="http://www.w3.org/2000/svg" xmlns:xlink="http://www.w3.org/1999/xlink" xmlns:sketch="http://www.bohemiancoding.com/sketch/ns">
    <!-- Generator: Sketch 3.2.2 (9983) - http://www.bohemiancoding.com/sketch -->
    <title>Imported Layers</title>
    <desc>Created with Sketch.</desc>
    <defs></defs>
    <g id="Page-1" stroke="none" stroke-width="1" fill="none" fill-rule="evenodd" sketch:type="MSPage">
        <g id="Секции_архитектура_и_интерьер" sketch:type="MSArtboardGroup" transform="translate(-666.000000, -1370.000000)" fill="#FFFFFF">
            <g id="3_block" sketch:type="MSLayerGroup" transform="translate(0.000000, 998.000000)">
                <g id="I-этап" transform="translate(480.000000, 149.000000)" sketch:type="MSShapeGroup">
                    <g id="16-—-22-марта-2015-+-yota" transform="translate(178.000000, 201.000000)">
                        <g id="Imported-Layers" transform="translate(8.000000, 22.000000)">
                            <path d="M10.036,0.367 L10.036,2.273 L2.434,2.273 L2.434,7.002 C2.982,6.924 4.027,6.871 4.602,6.871 C6.274,6.871 7.919,7.237 9.148,8.047 C10.48,8.909 11.394,10.293 11.394,12.357 C11.394,14.003 10.845,15.257 9.931,16.171 C8.495,17.582 6.117,18.131 3.714,18.131 C2.121,18.131 0.918,18.025 0.161,17.922 L0.161,0.367 L10.036,0.367 L10.036,0.367 Z M2.434,16.224 C2.956,16.328 3.557,16.353 4.341,16.353 C5.751,16.353 7.188,15.91 8.05,14.996 C8.651,14.369 9.017,13.507 9.017,12.409 C9.017,11.051 8.442,10.137 7.58,9.536 C6.665,8.909 5.49,8.647 4.236,8.647 C3.714,8.647 3.008,8.7 2.434,8.752 L2.434,16.224 L2.434,16.224 Z" id="Fill-1"></path>
                            <path d="M13.286,0.576 C14.383,0.393 15.82,0.236 17.649,0.236 C19.895,0.236 21.541,0.759 22.586,1.699 C23.552,2.535 24.127,3.815 24.127,5.383 C24.127,6.976 23.657,8.229 22.769,9.145 C21.567,10.424 19.608,11.077 17.387,11.077 C16.709,11.077 16.081,11.051 15.559,10.92 L15.559,17.974 L13.286,17.974 L13.286,0.576 L13.286,0.576 Z M15.559,9.065 C16.055,9.196 16.682,9.248 17.44,9.248 C20.183,9.248 21.855,7.916 21.855,5.486 C21.855,3.162 20.208,2.039 17.701,2.039 C16.709,2.039 15.951,2.117 15.559,2.222 L15.559,9.065 L15.559,9.065 Z" id="Fill-2"></path>
                            <path d="M27.65,12.435 L25.821,17.974 L23.47,17.974 L29.452,0.367 L32.195,0.367 L38.204,17.974 L35.774,17.974 L33.893,12.435 L27.65,12.435 L27.65,12.435 Z M33.423,10.659 L31.699,5.592 C31.307,4.441 31.045,3.397 30.785,2.378 L30.732,2.378 C30.471,3.423 30.184,4.494 29.844,5.565 L28.12,10.659 L33.423,10.659 L33.423,10.659 Z" id="Fill-3"></path>
                            <path d="M41.58,2.3 L36.225,2.3 L36.225,0.367 L49.26,0.367 L49.26,2.3 L43.879,2.3 L43.879,17.974 L41.58,17.974 L41.58,2.3" id="Fill-4"></path>
                            <path d="M52.903,0.367 L52.903,6.949 C53.425,6.871 54.47,6.819 55.071,6.819 C58.676,6.819 61.863,8.412 61.863,12.305 C61.863,13.951 61.34,15.152 60.504,16.066 C59.068,17.582 56.612,18.131 54.183,18.131 C52.589,18.131 51.387,18.025 50.63,17.922 L50.63,0.367 L52.903,0.367 L52.903,0.367 Z M52.903,16.224 C53.425,16.328 54,16.353 54.784,16.353 C57.317,16.353 59.486,15.126 59.486,12.435 C59.486,9.666 57.265,8.621 54.757,8.621 C54.183,8.621 53.477,8.674 52.903,8.752 L52.903,16.224 L52.903,16.224 Z" id="Fill-5"></path>
                            <path d="M62.177,17.974 C62.439,17.504 62.674,16.955 62.883,16.38 C63.64,14.369 64.111,11.913 65.547,10.477 C65.965,10.059 66.488,9.745 67.01,9.588 L67.01,9.51 C64.842,9.145 63.118,7.576 63.118,5.174 C63.118,3.632 63.745,2.404 64.738,1.595 C65.834,0.706 67.559,0.236 69.779,0.236 C71.268,0.236 72.835,0.367 73.985,0.602 L73.985,17.974 L71.712,17.974 L71.712,10.346 L70.041,10.346 C68.943,10.346 68.133,10.581 67.506,11.208 C66.305,12.435 65.809,15.022 65.182,16.693 C64.998,17.138 64.868,17.504 64.607,17.974 L62.177,17.974 L62.177,17.974 Z M71.712,2.195 C71.321,2.117 70.589,1.986 69.57,1.986 C67.324,1.986 65.417,2.849 65.417,5.277 C65.417,7.394 67.297,8.621 69.779,8.621 C70.537,8.621 71.268,8.621 71.712,8.596 L71.712,2.195 L71.712,2.195 Z" id="Fill-6"></path>
                            <path d="M83.835,0.367 L89.295,8.178 L89.974,8.178 L89.974,0.367 L92.195,0.367 L92.195,8.178 L92.9,8.178 L98.334,0.367 L100.998,0.367 L94.754,8.465 C97.523,8.752 98.646,10.477 99.51,12.984 C100.109,14.656 100.527,16.353 101.26,17.974 L98.934,17.974 C98.334,16.798 97.916,15.1 97.471,13.846 C96.662,11.443 95.774,9.901 92.952,9.901 L92.195,9.901 L92.195,17.974 L89.974,17.974 L89.974,9.901 L89.19,9.901 C86.369,9.901 85.481,11.443 84.645,13.846 C84.227,15.1 83.809,16.798 83.234,17.974 L80.91,17.974 C81.667,16.353 82.085,14.656 82.66,13.01 C83.548,10.528 84.671,8.805 87.414,8.465 L81.17,0.367 L83.835,0.367" id="Fill-7"></path>
                            <path d="M104.951,0.367 L104.951,7.785 C104.951,10.581 104.9,12.88 104.742,15.23 L104.795,15.257 C105.684,13.428 106.781,11.522 108.061,9.432 L113.756,0.367 L116.027,0.367 L116.027,17.974 L113.887,17.974 L113.887,10.477 C113.887,7.629 113.912,5.539 114.096,3.318 L114.018,3.293 C113.154,5.226 111.953,7.264 110.752,9.223 L105.24,17.974 L102.811,17.974 L102.811,0.367 L104.951,0.367" id="Fill-8"></path>
                            <path d="M131.09,0.367 L131.09,17.974 L128.791,17.974 L128.791,2.273 L122.965,2.273 L122.965,7.602 C122.965,11.417 122.809,15.675 120.326,17.347 C119.674,17.765 118.654,18.183 117.637,18.183 L117.35,16.353 C118.055,16.224 118.785,15.806 119.203,15.414 C120.613,14.029 120.744,10.607 120.744,7.785 L120.744,0.367 L131.09,0.367" id="Fill-9"></path>
                            <path d="M136.219,0.367 L136.219,7.785 C136.219,10.581 136.166,12.88 136.01,15.23 L136.063,15.257 C136.949,13.428 138.047,11.522 139.328,9.432 L145.022,0.367 L147.295,0.367 L147.295,17.974 L145.152,17.974 L145.152,10.477 C145.152,7.629 145.18,5.539 145.361,3.318 L145.283,3.293 C144.422,5.226 143.219,7.264 142.018,9.223 L136.506,17.974 L134.076,17.974 L134.076,0.367 L136.219,0.367" id="Fill-10"></path>
                            <path d="M152.58,0.367 L152.58,7.733 L161.098,7.733 L161.098,0.367 L163.397,0.367 L163.397,17.974 L161.098,17.974 L161.098,9.719 L152.58,9.719 L152.58,17.974 L150.309,17.974 L150.309,0.367 L152.58,0.367" id="Fill-11"></path>
                            <path d="M168.668,0.367 L168.668,6.949 C169.191,6.871 170.184,6.819 170.758,6.819 C174.389,6.819 177.551,8.412 177.551,12.331 C177.551,13.951 177.027,15.152 176.191,16.066 C174.756,17.582 172.299,18.131 169.922,18.131 C168.356,18.131 167.154,18.025 166.397,17.922 L166.397,0.367 L168.668,0.367 L168.668,0.367 Z M168.668,16.224 C169.139,16.328 169.713,16.353 170.498,16.353 C173.006,16.353 175.174,15.074 175.174,12.409 C175.174,9.666 172.822,8.621 170.471,8.621 C169.635,8.621 168.955,8.7 168.668,8.752 L168.668,16.224 L168.668,16.224 Z M179.51,0.367 L181.809,0.367 L181.809,17.973 L179.51,17.973 L179.51,0.367 Z" id="Fill-12"></path>
                            <path d="M36.732,26.469 L36.732,32.018 L37.396,32.03 L37.33,34.937 L36.414,34.937 L36.361,32.894 L31.914,32.894 L31.86,34.937 L30.944,34.937 L30.891,32.03 L31.435,32.018 C31.714,31.605 31.927,31.168 32.073,30.703 C32.325,29.906 32.444,29.044 32.444,28.141 L32.444,26.469 L36.732,26.469 L36.732,26.469 Z M33.48,28.42 C33.48,29.269 33.36,30.093 33.148,30.81 C33.015,31.247 32.83,31.645 32.63,32.004 L35.591,32.004 L35.591,27.357 L33.48,27.357 L33.48,28.42 L33.48,28.42 Z" id="Fill-13"></path>
                            <path d="M39.536,26.469 L39.536,29.177 C39.536,30.198 39.523,30.836 39.469,31.752 L39.509,31.766 C39.894,30.982 40.12,30.53 40.544,29.787 L42.549,26.469 L43.917,26.469 L43.917,32.894 L42.801,32.894 L42.801,30.172 C42.801,29.123 42.828,28.579 42.881,27.544 L42.841,27.544 C42.43,28.367 42.151,28.885 41.779,29.535 C41.169,30.53 40.465,31.766 39.774,32.894 L38.434,32.894 L38.434,26.469 L39.536,26.469" id="Fill-14"></path>
                            <path d="M45.944,29.163 L46.502,29.163 C47.484,29.163 48.148,28.712 48.148,28.114 C48.148,27.544 47.63,27.185 46.9,27.185 C46.382,27.185 45.798,27.357 45.347,27.637 L45.055,26.92 C45.706,26.522 46.449,26.336 47.192,26.336 C48.175,26.336 49.37,26.773 49.37,28.022 C49.37,28.818 48.639,29.336 47.922,29.481 L47.922,29.509 C48.878,29.588 49.675,30.172 49.675,31.114 C49.675,32.509 48.254,33.026 46.9,33.026 C46.144,33.026 45.387,32.827 44.816,32.509 L45.122,31.726 C45.586,31.977 46.21,32.163 46.821,32.163 C47.79,32.163 48.4,31.699 48.4,31.061 C48.4,30.198 47.498,29.96 46.528,29.96 L45.944,29.96 L45.944,29.163" id="Fill-15"></path>
                            <path d="M54.457,32.894 L54.364,32.084 L54.324,32.084 C53.966,32.588 53.275,33.04 52.359,33.04 C51.059,33.04 50.395,32.124 50.395,31.194 C50.395,29.642 51.775,28.792 54.258,28.805 L54.258,28.672 C54.258,28.141 54.112,27.185 52.797,27.185 C52.2,27.185 51.576,27.371 51.125,27.663 L50.859,26.894 C51.391,26.548 52.161,26.322 52.97,26.322 C54.935,26.322 55.413,27.663 55.413,28.951 L55.413,31.353 C55.413,31.911 55.44,32.455 55.519,32.894 L54.457,32.894 L54.457,32.894 Z M54.285,29.614 C53.01,29.588 51.563,29.814 51.563,31.061 C51.563,31.818 52.067,32.177 52.665,32.177 C53.501,32.177 54.032,31.645 54.218,31.102 C54.258,30.982 54.285,30.85 54.285,30.729 L54.285,29.614 L54.285,29.614 Z" id="Fill-16"></path>
                            <path d="M57.98,26.469 L57.98,29.177 C57.98,30.198 57.967,30.836 57.914,31.752 L57.954,31.766 C58.338,30.982 58.564,30.53 58.989,29.787 L60.993,26.469 L62.361,26.469 L62.361,32.894 L61.246,32.894 L61.246,30.172 C61.246,29.123 61.272,28.579 61.325,27.544 L61.286,27.544 C60.874,28.367 60.595,28.885 60.224,29.535 C59.613,30.53 58.909,31.766 58.219,32.894 L56.878,32.894 L56.878,26.469 L57.98,26.469 L57.98,26.469 Z M58.737,23.853 C58.776,24.424 59.055,24.862 59.586,24.862 C60.157,24.862 60.422,24.437 60.489,23.853 L61.325,23.853 C61.272,24.941 60.582,25.499 59.56,25.499 C58.392,25.499 57.94,24.769 57.887,23.853 L58.737,23.853 L58.737,23.853 Z" id="Fill-17"></path>
                            <path d="M65.022,26.469 L65.022,29.057 L68.075,29.057 L68.075,26.469 L69.23,26.469 L69.23,32.894 L68.075,32.894 L68.075,29.986 L65.022,29.986 L65.022,32.894 L63.867,32.894 L63.867,26.469 L65.022,26.469" id="Fill-18"></path>
                            <path d="M74.581,26.469 L74.581,29.177 C74.581,30.198 74.568,30.836 74.515,31.752 L74.554,31.766 C74.94,30.982 75.165,30.53 75.59,29.787 L77.594,26.469 L78.962,26.469 L78.962,32.894 L77.847,32.894 L77.847,30.172 C77.847,29.123 77.873,28.579 77.926,27.544 L77.887,27.544 C77.475,28.367 77.196,28.885 76.825,29.535 C76.214,30.53 75.51,31.766 74.82,32.894 L73.479,32.894 L73.479,26.469 L74.581,26.469" id="Fill-19"></path>
                            <path d="M86.782,32.894 L86.689,32.084 L86.649,32.084 C86.291,32.588 85.6,33.04 84.684,33.04 C83.383,33.04 82.72,32.124 82.72,31.194 C82.72,29.642 84.1,28.792 86.582,28.805 L86.582,28.672 C86.582,28.141 86.437,27.185 85.123,27.185 C84.525,27.185 83.901,27.371 83.45,27.663 L83.184,26.894 C83.715,26.548 84.485,26.322 85.295,26.322 C87.26,26.322 87.737,27.663 87.737,28.951 L87.737,31.353 C87.737,31.911 87.764,32.455 87.844,32.894 L86.782,32.894 L86.782,32.894 Z M86.609,29.614 C85.334,29.588 83.888,29.814 83.888,31.061 C83.888,31.818 84.392,32.177 84.99,32.177 C85.826,32.177 86.357,31.645 86.543,31.102 C86.582,30.982 86.609,30.85 86.609,30.729 L86.609,29.614 L86.609,29.614 Z" id="Fill-20"></path>
                            <path d="M89.21,28.565 C89.21,27.743 89.184,27.079 89.157,26.469 L90.206,26.469 L90.259,27.57 L90.286,27.57 C90.764,26.787 91.52,26.322 92.569,26.322 C94.123,26.322 95.291,27.637 95.291,29.588 C95.291,31.897 93.883,33.04 92.37,33.04 C91.52,33.04 90.777,32.668 90.392,32.03 L90.365,32.03 L90.365,35.522 L89.21,35.522 L89.21,28.565 L89.21,28.565 Z M90.365,30.278 C90.365,30.451 90.392,30.61 90.419,30.756 C90.631,31.566 91.334,32.124 92.17,32.124 C93.405,32.124 94.123,31.114 94.123,29.642 C94.123,28.353 93.445,27.252 92.21,27.252 C91.414,27.252 90.67,27.822 90.445,28.698 C90.405,28.845 90.365,29.018 90.365,29.177 L90.365,30.278 L90.365,30.278 Z" id="Fill-21"></path>
                            <path d="M96.805,26.469 L97.721,27.849 C97.959,28.207 98.158,28.539 98.371,28.897 L98.412,28.897 C98.623,28.513 98.836,28.181 99.049,27.836 L99.951,26.469 L101.213,26.469 L99.021,29.575 L101.279,32.894 L99.951,32.894 L99.008,31.446 C98.756,31.075 98.543,30.717 98.318,30.331 L98.291,30.331 C98.08,30.717 97.854,31.061 97.615,31.446 L96.685,32.894 L95.398,32.894 L97.682,29.614 L95.504,26.469 L96.805,26.469" id="Fill-22"></path>
                            <path d="M103.18,26.469 L103.18,29.177 C103.18,30.198 103.168,30.836 103.113,31.752 L103.154,31.766 C103.539,30.982 103.766,30.53 104.19,29.787 L106.193,26.469 L107.56,26.469 L107.56,32.894 L106.445,32.894 L106.445,30.172 C106.445,29.123 106.473,28.579 106.525,27.544 L106.486,27.544 C106.074,28.367 105.795,28.885 105.424,29.535 C104.812,30.53 104.109,31.766 103.42,32.894 L102.078,32.894 L102.078,26.469 L103.18,26.469" id="Fill-23"></path>
                            <path d="M113.512,26.469 L113.512,27.397 L111.508,27.397 L111.508,32.894 L110.352,32.894 L110.352,27.397 L108.348,27.397 L108.348,26.469 L113.512,26.469" id="Fill-24"></path>
                            <path d="M114.902,29.894 C114.93,31.473 115.938,32.124 117.106,32.124 C117.941,32.124 118.447,31.977 118.885,31.792 L119.084,32.628 C118.672,32.814 117.969,33.026 116.947,33.026 C114.969,33.026 113.787,31.726 113.787,29.787 C113.787,27.849 114.93,26.322 116.801,26.322 C118.898,26.322 119.455,28.168 119.455,29.349 C119.455,29.588 119.43,29.773 119.416,29.894 L114.902,29.894 L114.902,29.894 Z M118.328,29.057 C118.34,28.314 118.022,27.158 116.707,27.158 C115.525,27.158 115.008,28.247 114.916,29.057 L118.328,29.057 L118.328,29.057 Z" id="Fill-25"></path>
                            <path d="M121.711,26.469 L121.711,29.256 L121.99,29.256 L124.406,26.469 L125.826,26.469 L123.025,29.376 C124.06,29.481 124.685,30.172 125.19,31.327 C125.361,31.752 125.588,32.376 125.879,32.894 L124.658,32.894 C124.486,32.615 124.26,32.11 124.06,31.579 C123.623,30.544 123.025,30.066 121.937,30.066 L121.711,30.066 L121.711,32.894 L120.557,32.894 L120.557,26.469 L121.711,26.469" id="Fill-26"></path>
                            <path d="M131.373,26.469 L131.373,27.397 L129.369,27.397 L129.369,32.894 L128.213,32.894 L128.213,27.397 L126.209,27.397 L126.209,26.469 L131.373,26.469" id="Fill-27"></path>
                            <path d="M133.022,26.469 L134.43,30.265 C134.576,30.69 134.734,31.194 134.842,31.579 L134.867,31.579 C134.986,31.194 135.119,30.703 135.279,30.238 L136.553,26.469 L137.787,26.469 L136.035,31.048 C135.199,33.252 134.629,34.381 133.832,35.07 C133.262,35.575 132.69,35.774 132.398,35.827 L132.106,34.845 C132.398,34.752 132.783,34.566 133.129,34.274 C133.447,34.022 133.846,33.57 134.111,32.974 C134.164,32.853 134.203,32.761 134.203,32.694 C134.203,32.628 134.178,32.535 134.125,32.389 L131.748,26.469 L133.022,26.469" id="Fill-28"></path>
                            <path d="M138.594,28.565 C138.594,27.743 138.568,27.079 138.541,26.469 L139.59,26.469 L139.643,27.57 L139.67,27.57 C140.148,26.787 140.904,26.322 141.953,26.322 C143.506,26.322 144.674,27.637 144.674,29.588 C144.674,31.897 143.268,33.04 141.754,33.04 C140.904,33.04 140.16,32.668 139.775,32.03 L139.75,32.03 L139.75,35.522 L138.594,35.522 L138.594,28.565 L138.594,28.565 Z M139.75,30.278 C139.75,30.451 139.775,30.61 139.803,30.756 C140.016,31.566 140.719,32.124 141.555,32.124 C142.789,32.124 143.506,31.114 143.506,29.642 C143.506,28.353 142.83,27.252 141.596,27.252 C140.799,27.252 140.055,27.822 139.83,28.698 C139.789,28.845 139.75,29.018 139.75,29.177 L139.75,30.278 L139.75,30.278 Z" id="Fill-29"></path>
                            <path d="M149.416,32.894 L149.324,32.084 L149.285,32.084 C148.926,32.588 148.236,33.04 147.32,33.04 C146.018,33.04 145.356,32.124 145.356,31.194 C145.356,29.642 146.736,28.792 149.219,28.805 L149.219,28.672 C149.219,28.141 149.072,27.185 147.758,27.185 C147.16,27.185 146.537,27.371 146.084,27.663 L145.82,26.894 C146.35,26.548 147.121,26.322 147.93,26.322 C149.894,26.322 150.373,27.663 150.373,28.951 L150.373,31.353 C150.373,31.911 150.398,32.455 150.479,32.894 L149.416,32.894 L149.416,32.894 Z M149.244,29.614 C147.971,29.588 146.523,29.814 146.523,31.061 C146.523,31.818 147.027,32.177 147.625,32.177 C148.461,32.177 148.992,31.645 149.178,31.102 C149.219,30.982 149.244,30.85 149.244,30.729 L149.244,29.614 L149.244,29.614 Z" id="Fill-30"></path>
                        </g>
                    </g>
                </g>
            </g>
        </g>
    </g>
</svg>