<?xml version="1.0" encoding="UTF-8" standalone="no"?>
<svg width="200px" height="32px" viewBox="0 0 200 32" version="1.1" xmlns="http://www.w3.org/2000/svg" xmlns:xlink="http://www.w3.org/1999/xlink" xmlns:sketch="http://www.bohemiancoding.com/sketch/ns">
    <!-- Generator: Sketch 3.2.2 (9983) - http://www.bohemiancoding.com/sketch -->
    <title>Imported Layers</title>
    <desc>Created with Sketch.</desc>
    <defs></defs>
    <g id="Page-1" stroke="none" stroke-width="1" fill="none" fill-rule="evenodd" sketch:type="MSPage">
        <g id="Секции_архитектура_и_интерьер" sketch:type="MSArtboardGroup" transform="translate(-672.000000, -1402.000000)" fill="#B42F33">
            <g id="3_block" sketch:type="MSLayerGroup" transform="translate(0.000000, 998.000000)">
                <g id="III-этап" transform="translate(480.000000, 149.000000)" sketch:type="MSShapeGroup">
                    <g id="16-—-22-марта-2015-+-yota" transform="translate(182.000000, 201.000000)">
                        <g id="Imported-Layers" transform="translate(10.000000, 54.000000)">
                            <path d="M4.348,28.776 C4.348,29.174 4.367,29.565 4.423,29.878 L3.67,29.878 L3.604,29.299 L3.576,29.299 C3.323,29.66 2.834,29.983 2.184,29.983 C1.262,29.983 0.792,29.328 0.792,28.662 C0.792,27.551 1.771,26.942 3.528,26.952 L3.528,26.857 C3.528,26.478 3.424,25.793 2.493,25.793 C2.07,25.793 1.628,25.926 1.309,26.135 L1.121,25.584 C1.497,25.337 2.043,25.176 2.616,25.176 C4.008,25.176 4.346,26.136 4.346,27.057 L4.347,28.776 L4.348,28.776 L4.348,28.776 Z M3.55,27.532 C2.648,27.513 1.622,27.674 1.622,28.568 C1.622,29.109 1.979,29.365 2.404,29.365 C2.996,29.365 3.372,28.985 3.503,28.596 C3.531,28.511 3.55,28.416 3.55,28.33 L3.55,27.532 L3.55,27.532 Z" id="Fill-2"></path>
                            <path d="M8.312,26.781 C8.312,26.193 8.294,25.717 8.275,25.281 L9.017,25.281 L9.054,26.069 L9.073,26.069 C9.412,25.508 9.947,25.176 10.691,25.176 C11.79,25.176 12.618,26.116 12.618,27.513 C12.618,29.166 11.62,29.982 10.55,29.982 C9.948,29.982 9.422,29.716 9.149,29.261 L9.131,29.261 L9.131,31.759 L8.313,31.759 L8.313,26.781 L8.312,26.781 L8.312,26.781 Z M9.13,28.006 C9.13,28.13 9.148,28.244 9.167,28.348 C9.317,28.927 9.815,29.326 10.409,29.326 C11.282,29.326 11.79,28.605 11.79,27.55 C11.79,26.628 11.311,25.84 10.437,25.84 C9.873,25.84 9.346,26.248 9.186,26.875 C9.157,26.979 9.13,27.103 9.13,27.217 L9.13,28.006 L9.13,28.006 Z" id="Fill-3"></path>
                            <path d="M16.552,25.281 L17.2,26.268 C17.369,26.524 17.51,26.762 17.661,27.019 L17.689,27.019 C17.839,26.744 17.99,26.507 18.14,26.259 L18.78,25.281 L19.673,25.281 L18.123,27.504 L19.72,29.878 L18.78,29.878 L18.112,28.843 C17.933,28.577 17.783,28.321 17.623,28.046 L17.605,28.046 C17.455,28.331 17.295,28.568 17.125,28.843 L16.468,29.878 L15.556,29.878 L17.174,27.532 L15.631,25.281 L16.552,25.281" id="Fill-4"></path>
                            <path d="M23.909,25.281 L23.909,27.219 C23.909,27.95 23.9,28.405 23.862,29.06 L23.89,29.06 C24.163,28.51 24.323,28.187 24.623,27.655 L26.043,25.281 L27.011,25.281 L27.011,29.878 L26.222,29.878 L26.222,27.931 C26.222,27.18 26.241,26.791 26.278,26.05 L26.25,26.05 C25.959,26.64 25.762,27.01 25.498,27.475 C25.065,28.187 24.567,29.071 24.078,29.878 L23.127,29.878 L23.127,25.281 L23.909,25.281" id="Fill-5"></path>
                            <path d="M34.031,25.281 L34.031,25.945 L32.611,25.946 L32.611,29.877 L31.794,29.877 L31.794,25.946 L30.374,25.946 L30.374,25.281 L34.031,25.281" id="Fill-6"></path>
                            <path d="M37.721,27.731 C37.74,28.861 38.454,29.327 39.282,29.327 C39.874,29.327 40.233,29.223 40.542,29.09 L40.683,29.688 C40.391,29.821 39.893,29.982 39.17,29.982 C37.77,29.982 36.932,29.042 36.932,27.655 C36.932,26.268 37.741,25.176 39.066,25.176 C40.551,25.176 40.947,26.497 40.947,27.342 C40.947,27.512 40.928,27.646 40.918,27.731 L37.721,27.731 L37.721,27.731 Z M40.147,27.133 C40.156,26.6 39.931,25.774 39,25.774 C38.163,25.774 37.797,26.554 37.731,27.133 L40.147,27.133 L40.147,27.133 Z" id="Fill-7"></path>
                            <path d="M45.416,25.281 L45.416,27.276 L45.614,27.276 L47.325,25.281 L48.332,25.281 L46.348,27.361 C47.081,27.437 47.522,27.931 47.881,28.757 C48.003,29.061 48.163,29.508 48.369,29.878 L47.504,29.878 C47.382,29.679 47.222,29.318 47.081,28.938 C46.771,28.198 46.348,27.856 45.577,27.856 L45.416,27.856 L45.416,29.88 L44.599,29.879 L44.599,25.282 L45.416,25.282 L45.416,25.281" id="Fill-8"></path>
                            <path d="M54.964,25.281 L54.964,25.945 L53.544,25.946 L53.544,29.877 L52.727,29.877 L52.727,25.946 L51.306,25.946 L51.306,25.281 L54.964,25.281" id="Fill-9"></path>
                            <path d="M58.815,25.281 L59.812,27.997 C59.916,28.301 60.029,28.661 60.104,28.937 L60.122,28.937 C60.207,28.661 60.301,28.31 60.414,27.977 L61.316,25.279 L62.19,25.28 L60.949,28.556 C60.357,30.133 59.953,30.94 59.388,31.433 C58.985,31.794 58.579,31.937 58.374,31.974 L58.167,31.272 C58.374,31.205 58.647,31.072 58.892,30.864 C59.118,30.683 59.4,30.36 59.588,29.932 C59.625,29.846 59.654,29.78 59.654,29.733 C59.654,29.685 59.635,29.619 59.597,29.514 L57.914,25.278 L58.815,25.278 L58.815,25.281" id="Fill-10"></path>
                            <path d="M65.571,26.781 C65.571,26.193 65.552,25.717 65.533,25.281 L66.276,25.281 L66.313,26.069 L66.332,26.069 C66.67,25.508 67.206,25.176 67.949,25.176 C69.049,25.176 69.877,26.116 69.877,27.513 C69.877,29.166 68.879,29.982 67.808,29.982 C67.207,29.982 66.681,29.716 66.408,29.261 L66.39,29.261 L66.39,31.759 L65.572,31.759 L65.572,26.781 L65.571,26.781 L65.571,26.781 Z M66.388,28.006 C66.388,28.13 66.407,28.244 66.426,28.348 C66.576,28.927 67.074,29.326 67.667,29.326 C68.541,29.326 69.049,28.605 69.049,27.55 C69.049,26.628 68.569,25.84 67.696,25.84 C67.132,25.84 66.604,26.248 66.445,26.875 C66.416,26.979 66.388,27.103 66.388,27.217 L66.388,28.006 L66.388,28.006 Z" id="Fill-11"></path>
                            <path d="M76.744,28.776 C76.744,29.174 76.762,29.565 76.819,29.878 L76.066,29.878 L76,29.299 L75.972,29.299 C75.718,29.66 75.23,29.983 74.58,29.983 C73.658,29.983 73.188,29.328 73.188,28.662 C73.188,27.551 74.166,26.942 75.923,26.952 L75.923,26.857 C75.923,26.478 75.82,25.793 74.888,25.793 C74.466,25.793 74.024,25.926 73.704,26.135 L73.517,25.584 C73.893,25.337 74.439,25.176 75.012,25.176 C76.404,25.176 76.742,26.136 76.742,27.057 L76.743,28.776 L76.744,28.776 L76.744,28.776 Z M75.945,27.532 C75.043,27.513 74.018,27.674 74.018,28.568 C74.018,29.109 74.375,29.365 74.799,29.365 C75.391,29.365 75.767,28.985 75.898,28.596 C75.927,28.511 75.946,28.416 75.946,28.33 L75.945,27.532 L75.945,27.532 Z" id="Fill-12"></path>
                            <path d="M86.091,25.281 L86.091,27.219 C86.091,27.95 86.082,28.405 86.044,29.06 L86.073,29.06 C86.345,28.51 86.505,28.187 86.806,27.655 L88.226,25.281 L89.194,25.281 L89.194,29.878 L88.404,29.878 L88.404,27.931 C88.404,27.18 88.423,26.791 88.461,26.05 L88.432,26.05 C88.141,26.64 87.944,27.01 87.679,27.475 C87.247,28.187 86.749,29.071 86.259,29.878 L85.309,29.878 L85.309,25.281 L86.091,25.281" id="Fill-13"></path>
                            <path d="M93.965,25.281 L93.965,27.133 L96.128,27.133 L96.128,25.281 L96.945,25.281 L96.945,29.878 L96.128,29.878 L96.128,27.798 L93.965,27.798 L93.965,29.878 L93.148,29.878 L93.148,25.281 L93.965,25.281" id="Fill-14"></path>
                            <path d="M103.973,25.281 L103.973,25.945 L102.553,25.946 L102.553,29.877 L101.736,29.877 L101.736,25.946 L100.316,25.946 L100.316,25.281 L103.973,25.281" id="Fill-15"></path>
                            <path d="M107.665,27.731 C107.683,28.861 108.398,29.327 109.226,29.327 C109.816,29.327 110.175,29.223 110.485,29.09 L110.624,29.688 C110.333,29.821 109.835,29.982 109.11,29.982 C107.71,29.982 106.874,29.042 106.874,27.655 C106.874,26.268 107.682,25.176 109.008,25.176 C110.492,25.176 110.887,26.497 110.887,27.342 C110.887,27.512 110.868,27.646 110.859,27.731 L107.665,27.731 L107.665,27.731 Z M110.09,27.133 C110.1,26.6 109.874,25.774 108.943,25.774 C108.107,25.774 107.741,26.554 107.675,27.133 L110.09,27.133 L110.09,27.133 Z" id="Fill-16"></path>
                            <path d="M114.542,26.781 C114.542,26.193 114.522,25.717 114.505,25.281 L115.247,25.281 L115.284,26.069 L115.303,26.069 C115.643,25.508 116.177,25.176 116.921,25.176 C118.02,25.176 118.848,26.116 118.848,27.513 C118.848,29.166 117.852,29.982 116.779,29.982 C116.178,29.982 115.652,29.716 115.379,29.261 L115.361,29.261 L115.361,31.759 L114.544,31.759 L114.544,26.781 L114.542,26.781 L114.542,26.781 Z M115.359,28.006 C115.359,28.13 115.378,28.244 115.396,28.348 C115.546,28.927 116.044,29.326 116.637,29.326 C117.511,29.326 118.018,28.605 118.018,27.55 C118.018,26.628 117.539,25.84 116.664,25.84 C116.1,25.84 115.573,26.248 115.414,26.875 C115.386,26.979 115.358,27.103 115.358,27.217 L115.358,28.006 L115.359,28.006 L115.359,28.006 Z" id="Fill-17"></path>
                            <path d="M123.317,25.281 L123.317,26.837 C123.514,26.799 123.824,26.79 124.07,26.79 C125.095,26.79 126.174,27.113 126.174,28.339 C126.174,28.813 125.987,29.147 125.697,29.392 C125.198,29.819 124.389,29.925 123.722,29.925 C123.26,29.925 122.837,29.897 122.499,29.859 L122.499,25.282 L123.317,25.282 L123.317,25.281 L123.317,25.281 Z M123.317,29.297 C123.477,29.316 123.655,29.335 123.928,29.335 C124.549,29.335 125.348,29.127 125.348,28.358 C125.348,27.56 124.521,27.389 123.91,27.389 C123.694,27.389 123.506,27.408 123.318,27.437 L123.318,29.297 L123.317,29.297 L123.317,29.297 Z" id="Fill-18"></path>
                            <path d="M130.29,27.731 C130.309,28.861 131.023,29.327 131.851,29.327 C132.441,29.327 132.8,29.223 133.11,29.09 L133.25,29.688 C132.958,29.821 132.46,29.982 131.735,29.982 C130.335,29.982 129.499,29.042 129.499,27.655 C129.499,26.268 130.307,25.176 131.633,25.176 C133.118,25.176 133.512,26.497 133.512,27.342 C133.512,27.512 133.493,27.646 133.484,27.731 L130.29,27.731 L130.29,27.731 Z M132.714,27.133 C132.723,26.6 132.498,25.774 131.567,25.774 C130.731,25.774 130.364,26.554 130.299,27.133 L132.714,27.133 L132.714,27.133 Z" id="Fill-19"></path>
                            <path d="M137.168,26.781 C137.168,26.193 137.147,25.717 137.13,25.281 L137.872,25.281 L137.91,26.069 L137.929,26.069 C138.268,25.508 138.803,25.176 139.546,25.176 C140.646,25.176 141.474,26.116 141.474,27.513 C141.474,29.166 140.478,29.982 139.405,29.982 C138.804,29.982 138.277,29.716 138.005,29.261 L137.986,29.261 L137.986,31.759 L137.169,31.759 L137.169,26.781 L137.168,26.781 L137.168,26.781 Z M137.985,28.006 C137.985,28.13 138.004,28.244 138.021,28.348 C138.171,28.927 138.67,29.326 139.263,29.326 C140.136,29.326 140.644,28.605 140.644,27.55 C140.644,26.628 140.165,25.84 139.29,25.84 C138.726,25.84 138.198,26.248 138.04,26.875 C138.012,26.979 137.984,27.103 137.984,27.217 L137.984,28.006 L137.985,28.006 L137.985,28.006 Z" id="Fill-20"></path>
                            <path d="M145.944,25.281 L145.944,26.847 C146.122,26.809 146.385,26.79 146.687,26.79 C147.666,26.79 148.653,27.198 148.653,28.329 C148.653,28.814 148.473,29.147 148.181,29.392 C147.683,29.819 146.951,29.925 146.349,29.925 C145.887,29.925 145.464,29.897 145.126,29.859 L145.126,25.282 L145.944,25.282 L145.944,25.281 L145.944,25.281 Z M145.944,29.297 C146.103,29.316 146.282,29.335 146.518,29.335 C147.147,29.335 147.833,29.069 147.833,28.358 C147.833,27.617 147.176,27.389 146.554,27.389 C146.319,27.389 146.113,27.408 145.944,27.437 L145.944,29.297 L145.944,29.297 Z M149.224,25.281 L150.042,25.281 L150.042,29.878 L149.224,29.878 L149.224,25.281 Z" id="Fill-21"></path>
                            <path d="M162.17,25.281 L162.17,29.25 L162.641,29.26 L162.594,31.34 L161.946,31.34 L161.908,29.877 L158.759,29.877 L158.722,31.34 L158.073,31.34 L158.036,29.26 L158.421,29.25 C158.618,28.956 158.77,28.642 158.874,28.31 C159.052,27.74 159.135,27.123 159.135,26.477 L159.135,25.28 L162.17,25.281 L162.17,25.281 Z M159.868,26.676 C159.868,27.284 159.784,27.873 159.633,28.386 C159.54,28.699 159.407,28.984 159.267,29.241 L161.363,29.241 L161.363,25.917 L159.869,25.917 L159.869,26.676 L159.868,26.676 L159.868,26.676 Z" id="Fill-22"></path>
                            <path d="M167.017,25.281 L167.017,27.219 C167.017,27.95 167.007,28.405 166.971,29.06 L167,29.06 C167.272,28.51 167.432,28.187 167.734,27.655 L169.153,25.281 L170.122,25.281 L170.122,29.878 L169.332,29.878 L169.332,27.931 C169.332,27.18 169.351,26.791 169.389,26.05 L169.361,26.05 C169.07,26.64 168.872,27.01 168.609,27.475 C168.177,28.187 167.677,29.071 167.189,29.878 L166.239,29.878 L166.239,25.281 L167.017,25.281" id="Fill-23"></path>
                            <path d="M174.468,27.208 L174.864,27.208 C175.56,27.208 176.029,26.885 176.029,26.458 C176.029,26.05 175.663,25.794 175.146,25.794 C174.78,25.794 174.366,25.917 174.047,26.117 L173.84,25.604 C174.301,25.319 174.827,25.187 175.355,25.187 C176.05,25.187 176.895,25.5 176.895,26.394 C176.895,26.963 176.377,27.334 175.87,27.439 L175.87,27.458 C176.547,27.515 177.112,27.934 177.112,28.608 C177.112,29.605 176.105,29.975 175.146,29.975 C174.61,29.975 174.074,29.833 173.67,29.605 L173.886,29.045 C174.215,29.225 174.657,29.358 175.089,29.358 C175.775,29.358 176.207,29.026 176.207,28.57 C176.207,27.952 175.568,27.781 174.882,27.781 L174.467,27.78 L174.467,27.208 L174.468,27.208" id="Fill-24"></path>
                            <path d="M183.969,28.776 C183.969,29.174 183.988,29.565 184.044,29.878 L183.292,29.878 L183.225,29.299 L183.197,29.299 C182.943,29.66 182.453,29.983 181.805,29.983 C180.884,29.983 180.414,29.328 180.414,28.662 C180.414,27.551 181.393,26.942 183.15,26.952 L183.15,26.857 C183.15,26.478 183.046,25.793 182.115,25.793 C181.692,25.793 181.249,25.926 180.93,26.135 L180.742,25.584 C181.118,25.337 181.664,25.176 182.236,25.176 C183.628,25.176 183.966,26.136 183.966,27.057 L183.966,28.776 L183.969,28.776 L183.969,28.776 Z M183.169,27.532 C182.267,27.513 181.242,27.674 181.242,28.568 C181.242,29.109 181.6,29.365 182.021,29.365 C182.613,29.365 182.99,28.985 183.122,28.596 C183.151,28.511 183.168,28.416 183.168,28.33 L183.167,27.532 L183.169,27.532 L183.169,27.532 Z" id="Fill-25"></path>
                            <path d="M188.692,25.281 L188.692,27.219 C188.692,27.95 188.682,28.405 188.646,29.06 L188.675,29.06 C188.947,28.51 189.107,28.187 189.409,27.655 L190.828,25.281 L191.797,25.281 L191.797,29.878 L191.007,29.878 L191.007,27.931 C191.007,27.18 191.026,26.791 191.064,26.05 L191.036,26.05 C190.745,26.64 190.547,27.01 190.284,27.475 C189.852,28.187 189.353,29.071 188.864,29.878 L187.914,29.878 L187.914,25.281 L188.692,25.281 L188.692,25.281 Z M189.229,23.41 C189.25,23.818 189.445,24.131 189.83,24.131 C190.236,24.131 190.422,23.827 190.462,23.41 L191.063,23.41 C191.016,24.188 190.535,24.588 189.812,24.588 C188.985,24.588 188.665,24.066 188.627,23.41 L189.229,23.41 L189.229,23.41 Z" id="Fill-26"></path>
                            <path d="M196.566,25.281 L196.566,27.133 L198.728,27.133 L198.728,25.281 L199.546,25.281 L199.546,29.878 L198.728,29.878 L198.728,27.798 L196.566,27.798 L196.566,29.878 L195.748,29.878 L195.748,25.281 L196.566,25.281" id="Fill-27"></path>
                            <path d="M1.91,21.747 C8.789,21.747 191.17,21.776 199.895,21.776 C199.929,20.561 199.909,20.138 199.923,18.16 C197.456,18.166 174.742,18.145 171.051,18.145 C171.219,14.607 171.323,10.242 170.547,8.822 C169.747,7.36 167.024,4.16 157.67,4.329 C154.985,4.378 150.287,4.668 147.938,6.024 C145.59,7.381 144.604,8.609 144.604,10.643 C144.604,12.677 148.177,15.245 151.673,15.728 C155.196,16.215 161.489,16.448 165.095,15.241 C165.158,16.406 165.158,16.978 165.158,18.165 C162.138,18.334 11.845,18.123 7.818,18.123 C7.797,17.148 7.797,16.406 7.818,15.517 C9.329,16.194 13.292,16.575 14.97,16.406 C16.647,16.237 26.967,17.214 28.434,10.982 C28.839,9.259 27.078,6.716 22.729,5.473 C19.235,4.475 14.654,4.469 12.481,4.654 C5.155,5.275 2.638,7.762 1.967,10.276 C1.938,14.232 1.966,19.374 1.91,21.747 L1.91,21.747 Z M22.582,10.58 C22.527,12.438 18.974,14.013 14.968,14.013 C10.963,14.013 7.565,12.312 7.565,10.453 C7.565,8.595 10.92,6.978 14.926,6.978 C18.931,6.978 22.645,8.441 22.582,10.58 L22.582,10.58 Z M165.409,10.283 C165.354,12.141 161.801,13.716 157.796,13.716 C153.791,13.716 150.392,12.015 150.392,10.156 C150.392,8.297 153.748,6.681 157.753,6.681 C161.759,6.681 165.471,8.144 165.409,10.283 L165.409,10.283 Z" id="Fill-28"></path>
                            <path d="M30.293,16.125 C32.978,16.125 35.041,16.196 36.298,16.196 C36.298,14.988 36.194,10.687 36.529,9.67 C36.865,8.653 39.004,7.255 41.101,7.169 C43.198,7.084 45.84,7.042 47.351,8.059 C48.319,8.71 49.805,9.987 48.945,11.555 C50.372,11.724 53.434,11.64 54.944,11.64 C55.532,10.284 55.133,8.928 54.105,7.869 C53.176,6.912 51.692,5.919 49.092,5.241 C46.492,4.563 43.074,4.605 40.808,4.605 C38.542,4.605 36.299,5.241 34.621,5.75 C32.943,6.258 30.658,8.101 30.49,9.457 C30.322,10.813 30.376,14.345 30.293,16.125" id="Fill-29"></path>
                            <path d="M102.678,1.958 C102.678,2.893 101.035,3.738 99.113,3.738 C97.191,3.738 95.632,2.873 95.632,1.937 C95.632,1.001 97.232,0.178 99.155,0.178 C101.078,0.178 102.678,1.021 102.678,1.958" id="Fill-30"></path>
                            <path d="M64.549,2.042 C64.549,2.977 62.906,3.822 60.984,3.822 C59.063,3.822 57.503,2.957 57.503,2.021 C57.503,1.085 59.103,0.262 61.026,0.262 C62.949,0.262 64.549,1.106 64.549,2.042" id="Fill-31"></path>
                            <path d="M57.838,4.966 L64.298,4.966 L64.298,16.154 L57.838,16.154 L57.838,4.966 Z" id="Fill-32"></path>
                            <path d="M95.757,4.966 L102.217,4.966 L102.217,16.154 L95.757,16.154 L95.757,4.966 Z" id="Fill-33"></path>
                            <path d="M106.16,0.474 L112.452,0.474 L112.452,16.154 L106.16,16.154 L106.16,0.474 Z" id="Fill-34"></path>
                            <path d="M67.513,4.91 C69.779,7.452 76.168,14.459 78.013,16.28 C79.273,16.28 80.657,16.238 82.166,16.238 C84.138,14.415 91.394,6.237 92.905,4.881 C91.031,4.881 90.192,4.852 86.501,4.852 C85.074,6.378 81.746,9.88 80.153,11.575 C78.056,9.456 74.952,6.095 73.806,4.936 C71.457,4.91 69.975,4.91 67.513,4.91" id="Fill-35"></path>
                            <path d="M115.597,10.305 C115.597,13.589 119.939,16.027 127.656,16.196 C135.374,16.366 140.408,14.946 141.667,12.573 C140.052,12.594 136.319,12.531 134.977,12.531 C134.243,13.061 133.173,13.356 131.579,13.442 C129.986,13.527 127.636,13.675 126.273,13.42 C124.411,13.073 122.604,12.362 121.89,11.153 C126.169,11.153 140.682,11.175 142.108,11.175 C141.94,9.14 140.774,7.726 139.487,6.746 C135.65,3.823 128.337,4.203 125.247,4.373 C122.146,4.543 119.136,5.503 117.319,6.944 C116.181,7.844 115.597,9.374 115.597,10.305 L115.597,10.305 Z M122.352,8.61 L135.774,8.61 C134.264,7.593 131.411,6.682 128.852,6.703 C126.189,6.726 123.443,7.509 122.352,8.61 L122.352,8.61 Z" id="Fill-36"></path>
                            <path d="M173.4,10.305 C173.4,13.589 177.741,16.027 185.458,16.196 C193.176,16.366 198.21,14.946 199.469,12.573 C197.854,12.594 194.121,12.531 192.779,12.531 C192.045,13.061 190.975,13.356 189.381,13.442 C187.788,13.527 185.438,13.675 184.075,13.42 C182.214,13.073 180.406,12.362 179.692,11.153 C183.971,11.153 198.484,11.175 199.91,11.175 C199.742,9.14 198.576,7.726 197.289,6.746 C193.452,3.823 186.139,4.203 183.049,4.373 C179.948,4.543 176.939,5.503 175.121,6.944 C173.983,7.844 173.4,9.374 173.4,10.305 L173.4,10.305 Z M180.154,8.61 L193.577,8.61 C192.066,7.593 189.212,6.682 186.654,6.703 C183.99,6.726 181.244,7.509 180.154,8.61 L180.154,8.61 Z" id="Fill-37"></path>
                        </g>
                    </g>
                </g>
            </g>
        </g>
    </g>
</svg>