<?xml version="1.0" encoding="UTF-8" standalone="no"?>
<svg width="76px" height="76px" viewBox="0 0 76 76" version="1.1" xmlns="http://www.w3.org/2000/svg" xmlns:xlink="http://www.w3.org/1999/xlink" xmlns:sketch="http://www.bohemiancoding.com/sketch/ns">
    <!-- Generator: Sketch 3.2.2 (9983) - http://www.bohemiancoding.com/sketch -->
    <title>Imported Layers</title>
    <desc>Created with Sketch.</desc>
    <defs></defs>
    <g id="Page-1" stroke="none" stroke-width="1" fill="none" fill-rule="evenodd" sketch:type="MSPage">
        <g id="О-чемпионате-(дизайн)" sketch:type="MSArtboardGroup" transform="translate(-1044.000000, -4105.000000)">
            <g id="4_block" sketch:type="MSLayerGroup" transform="translate(-1.000000, 3657.000000)">
                <g id="logos" transform="translate(477.000000, 121.000000)" sketch:type="MSShapeGroup">
                    <g id="3" transform="translate(324.000000, 327.000000)">
                        <g id="Imported-Layers" transform="translate(244.000000, 0.000000)">
                            <path d="M0.640433121,0.0479235669 L74.9921529,0.0479235669 C75.3005096,0.0479235669 75.5512611,0.298675159 75.5512611,0.607031847 L75.5512611,64.3371465 C75.5512611,70.4955669 70.5289682,75.5178599 64.3705478,75.5178599 L0.640433121,75.5178599 C0.332076433,75.5178599 0.0813248408,75.2666242 0.0813248408,74.9587516 L0.0813248408,0.607031847 C0.0813248408,0.298675159 0.332076433,0.0479235669 0.640433121,0.0479235669" id="Fill-1" fill="#DC3D2A"></path>
                            <path d="M30.8284076,25.2044076 C33.9158471,25.2044076 36.4185223,22.7017325 36.4185223,19.614293 L36.4185223,11.2286369 C36.4185223,8.14119745 33.9158471,5.63803822 30.8284076,5.63803822 L28.0328662,5.63803822 C24.9459108,5.63803822 22.4427516,8.14119745 22.4427516,11.2286369 L22.4427516,19.614293 C22.4427516,22.7017325 24.9459108,25.2044076 28.0328662,25.2044076 L30.8284076,25.2044076 L30.8284076,25.2044076 Z M30.8284076,8.43357962 C32.3721274,8.43357962 33.623465,9.6849172 33.623465,11.2286369 L33.623465,19.614293 C33.623465,21.1580127 32.3721274,22.4093503 30.8284076,22.4093503 L28.0328662,22.4093503 C26.4891465,22.4093503 25.2378089,21.1580127 25.2378089,19.614293 L25.2378089,11.2286369 C25.2378089,9.6849172 26.4891465,8.43357962 28.0328662,8.43357962 L30.8284076,8.43357962 L30.8284076,8.43357962 Z" id="Fill-2" fill="#FFFFFF"></path>
                            <path d="M6.23054777,5.63803822 L7.90787261,5.63803822 C8.21574522,5.63803822 8.46698089,5.88927389 8.46698089,6.1971465 L8.46698089,22.4093503 L19.088586,22.4093503 C19.3964586,22.4093503 19.6476943,22.660586 19.6476943,22.9684586 L19.6476943,24.6452994 C19.6476943,24.953172 19.3964586,25.2044076 19.088586,25.2044076 L6.23054777,25.2044076 C5.92267516,25.2044076 5.67143949,24.953172 5.67143949,24.6452994 L5.67143949,6.1971465 C5.67143949,5.88927389 5.92267516,5.63803822 6.23054777,5.63803822" id="Fill-3" fill="#FFFFFF"></path>
                            <path d="M39.7726879,5.63803822 L52.6307261,5.63803822 C52.9385987,5.63803822 53.1898344,5.88927389 53.1898344,6.1971465 L53.1898344,7.87447134 C53.1898344,8.18234395 52.9385987,8.43357962 52.6307261,8.43357962 L42.009121,8.43357962 L42.009121,14.0236943 L47.0406115,14.0236943 C47.3484841,14.0236943 47.5992357,14.2749299 47.5992357,14.5828025 L47.5992357,16.2601274 C47.5992357,16.568 47.3484841,16.8187516 47.0406115,16.8187516 L42.009121,16.8187516 L42.009121,24.6452994 C42.009121,24.953172 41.7578854,25.2044076 41.4500127,25.2044076 L39.7726879,25.2044076 C39.4648153,25.2044076 39.2140637,24.953172 39.2140637,24.6452994 L39.2140637,6.1971465 C39.2140637,5.88927389 39.4648153,5.63803822 39.7726879,5.63803822" id="Fill-4" fill="#FFFFFF"></path>
                            <path d="M69.4020382,5.63803822 L56.544,5.63803822 C56.2361274,5.63803822 55.9848917,5.88927389 55.9848917,6.1971465 L55.9848917,7.87447134 C55.9848917,8.18234395 56.2361274,8.43357962 56.544,8.43357962 L61.5754904,8.43357962 L61.5754904,24.6452994 C61.5754904,24.953172 61.8267261,25.2044076 62.1345987,25.2044076 L63.8114395,25.2044076 C64.1193121,25.2044076 64.3705478,24.953172 64.3705478,24.6452994 L64.3705478,8.43357962 L69.4020382,8.43357962 C69.7099108,8.43357962 69.9611465,8.18234395 69.9611465,7.87447134 L69.9611465,6.1971465 C69.9611465,5.88927389 69.7099108,5.63803822 69.4020382,5.63803822" id="Fill-5" fill="#FFFFFF"></path>
                            <path d="M11.2620382,39.1806624 L14.0570955,39.1806624 C15.6008153,39.1806624 16.8521529,37.9288408 16.8521529,36.385121 L16.8521529,28.5585732 C16.8521529,28.2507006 17.1033885,27.999465 17.4112611,27.999465 L19.088586,27.999465 C19.3964586,27.999465 19.6476943,28.2507006 19.6476943,28.5585732 L19.6476943,36.385121 C19.6476943,39.4725605 17.144535,41.9757197 14.0570955,41.9757197 L14.0570955,47.0072102 C14.0570955,47.3150828 13.8058599,47.5658344 13.4979873,47.5658344 L11.8211465,47.5658344 C11.5132739,47.5658344 11.2620382,47.3150828 11.2620382,47.0072102 L11.2620382,41.9757197 C8.17459873,41.9757197 5.67143949,39.4725605 5.67143949,36.385121 L5.67143949,28.5585732 C5.67143949,28.2507006 5.92267516,27.999465 6.23054777,27.999465 L7.90787261,27.999465 C8.21574522,27.999465 8.46698089,28.2507006 8.46698089,28.5585732 L8.46698089,36.385121 C8.46698089,37.9288408 9.71831847,39.1806624 11.2620382,39.1806624" id="Fill-6" fill="#FFFFFF"></path>
                            <path d="M6.23054777,50.3613758 L8.14894268,50.3613758 C8.3517707,50.3613758 8.52555414,50.4601274 8.6291465,50.6343949 L15.4546242,62.1094268 L22.2801019,50.6343949 C22.3836943,50.4601274 22.5579618,50.3613758 22.7607898,50.3613758 L24.6787006,50.3613758 C24.9865732,50.3613758 25.2378089,50.6121274 25.2378089,50.9204841 L25.2378089,69.3686369 C25.2378089,69.6765096 24.9865732,69.9277452 24.6787006,69.9277452 L23.0018599,69.9277452 C22.6939873,69.9277452 22.4427516,69.6765096 22.4427516,69.3686369 L22.4427516,55.8290191 L15.9353121,66.7696306 C15.8317197,66.9438981 15.6574522,67.0426497 15.4546242,67.0426497 C15.2517962,67.0426497 15.0780127,66.9438981 14.9744204,66.7696306 L8.46698089,55.8290191 L8.46698089,69.3686369 C8.46698089,69.6765096 8.21574522,69.9277452 7.90787261,69.9277452 L6.23054777,69.9277452 C5.92267516,69.9277452 5.67143949,69.6765096 5.67143949,69.3686369 L5.67143949,50.9204841 C5.67143949,50.6121274 5.92267516,50.3613758 6.23054777,50.3613758" id="Fill-7" fill="#FFFFFF"></path>
                            <path d="M50.9538854,50.3613758 L52.6307261,50.3613758 C52.9385987,50.3613758 53.1898344,50.6121274 53.1898344,50.9204841 L53.1898344,69.3686369 C53.1898344,69.6765096 52.9385987,69.9277452 52.6307261,69.9277452 L50.7128153,69.9277452 C50.5099873,69.9277452 50.3357197,69.8285096 50.2321274,69.654242 L42.009121,55.8290191 L42.009121,69.3686369 C42.009121,69.6765096 41.7578854,69.9277452 41.4500127,69.9277452 L39.7726879,69.9277452 C39.4648153,69.9277452 39.2140637,69.6765096 39.2140637,69.3686369 L39.2140637,50.9204841 C39.2140637,50.6121274 39.4648153,50.3613758 39.7726879,50.3613758 L41.6910828,50.3613758 C41.8939108,50.3613758 42.0681783,50.4601274 42.1717707,50.6343949 L50.3947771,64.4591338 L50.3947771,50.9204841 C50.3947771,50.6121274 50.6460127,50.3613758 50.9538854,50.3613758" id="Fill-8" fill="#FFFFFF"></path>
                            <path d="M47.5992357,47.5658344 C50.6871592,47.5658344 53.1898344,45.0631592 53.1898344,41.9757197 L53.1898344,28.5585732 C53.1898344,28.2507006 52.9385987,27.999465 52.6307261,27.999465 L50.9538854,27.999465 C50.6460127,27.999465 50.3947771,28.2507006 50.3947771,28.5585732 L50.3947771,41.9757197 C50.3947771,43.5194395 49.1434395,44.7707771 47.5992357,44.7707771 L44.8041783,44.7707771 C43.2604586,44.7707771 42.009121,43.5194395 42.009121,41.9757197 L42.009121,28.5585732 C42.009121,28.2507006 41.7578854,27.999465 41.4500127,27.999465 L39.7726879,27.999465 C39.4648153,27.999465 39.2140637,28.2507006 39.2140637,28.5585732 L39.2140637,41.9757197 C39.2140637,45.0631592 41.7167389,47.5658344 44.8041783,47.5658344 L47.5992357,47.5658344" id="Fill-9" fill="#FFFFFF"></path>
                            <path d="M30.8284076,47.5658344 C33.9158471,47.5658344 36.4185223,45.0631592 36.4185223,41.9757197 L36.4185223,33.5900637 C36.4185223,30.5026242 33.9158471,27.999465 30.8284076,27.999465 L28.0328662,27.999465 C24.9459108,27.999465 22.4427516,30.5026242 22.4427516,33.5900637 L22.4427516,41.9757197 C22.4427516,45.0631592 24.9459108,47.5658344 28.0328662,47.5658344 L30.8284076,47.5658344 L30.8284076,47.5658344 Z M30.8284076,30.7950064 C32.3721274,30.7950064 33.623465,32.0463439 33.623465,33.5900637 L33.623465,41.9757197 C33.623465,43.5194395 32.3721274,44.7707771 30.8284076,44.7707771 L28.0328662,44.7707771 C26.4891465,44.7707771 25.2378089,43.5194395 25.2378089,41.9757197 L25.2378089,33.5900637 C25.2378089,32.0463439 26.4891465,30.7950064 28.0328662,30.7950064 L30.8284076,30.7950064 L30.8284076,30.7950064 Z" id="Fill-10" fill="#FFFFFF"></path>
                            <path d="M64.3705478,50.3613758 C67.4579873,50.3613758 69.9611465,52.864051 69.9611465,55.9514904 L69.9611465,64.3371465 C69.9611465,67.424586 67.4579873,69.9277452 64.3705478,69.9277452 L56.544,69.9277452 C56.2361274,69.9277452 55.9848917,69.6765096 55.9848917,69.3686369 L55.9848917,50.9204841 C55.9848917,50.6121274 56.2361274,50.3613758 56.544,50.3613758 L64.3705478,50.3613758 L64.3705478,50.3613758 Z M58.7804331,67.1322038 L64.3705478,67.1322038 C65.9142675,67.1322038 67.1656051,65.8808662 67.1656051,64.3371465 L67.1656051,55.9514904 C67.1656051,54.4077707 65.9142675,53.1564331 64.3705478,53.1564331 L58.7804331,53.1564331 L58.7804331,67.1322038 L58.7804331,67.1322038 Z" id="Fill-11" fill="#FFFFFF"></path>
                            <path d="M28.5919745,67.1322038 L30.8284076,67.1322038 L30.8284076,53.1564331 L28.5919745,53.1564331 C28.2841019,53.1564331 28.0328662,52.9051975 28.0328662,52.5973248 L28.0328662,50.9204841 C28.0328662,50.6121274 28.2841019,50.3613758 28.5919745,50.3613758 L35.8598981,50.3613758 C36.1677707,50.3613758 36.4185223,50.6121274 36.4185223,50.9204841 L36.4185223,52.5973248 C36.4185223,52.9051975 36.1677707,53.1564331 35.8598981,53.1564331 L33.623465,53.1564331 L33.623465,67.1322038 L35.8598981,67.1322038 C36.1677707,67.1322038 36.4185223,67.3834395 36.4185223,67.6913121 L36.4185223,69.3686369 C36.4185223,69.6765096 36.1677707,69.9277452 35.8598981,69.9277452 L28.5919745,69.9277452 C28.2841019,69.9277452 28.0328662,69.6765096 28.0328662,69.3686369 L28.0328662,67.6913121 C28.0328662,67.3834395 28.2841019,67.1322038 28.5919745,67.1322038" id="Fill-12" fill="#FFFFFF"></path>
                            <path d="M55.9877962,27.999465 L64.3729682,27.999465 C67.4604076,27.999465 69.9635669,30.5026242 69.9635669,33.5900637 L69.9635669,36.385121 C69.9635669,38.753707 68.4905223,40.7781146 66.4104459,41.5928153 L69.4610955,46.721121 C69.5666242,46.8987771 69.5685605,47.1040255 69.4664204,47.2836178 C69.3642803,47.4627261 69.1871083,47.5658344 68.9804076,47.5658344 L67.0290955,47.5658344 C66.8262675,47.5658344 66.6524841,47.4670828 66.5488917,47.2928153 L63.3859363,41.9757197 L58.7828535,41.9757197 L58.7828535,47.0072102 C58.7828535,47.3150828 58.5316178,47.5658344 58.2237452,47.5658344 L56.5464204,47.5658344 C56.2385478,47.5658344 55.9877962,47.3150828 55.9877962,47.0072102 L55.9877962,27.999465 L55.9877962,27.999465 Z M64.3729682,39.1806624 C65.9166879,39.1806624 67.1685096,37.9288408 67.1685096,36.385121 L67.1685096,33.5900637 C67.1685096,32.0463439 65.9166879,30.7950064 64.3729682,30.7950064 L58.7828535,30.7950064 L58.7828535,39.1806624 L64.3729682,39.1806624 L64.3729682,39.1806624 Z" id="Fill-13" fill="#FFFFFF"></path>
                        </g>
                    </g>
                </g>
            </g>
        </g>
    </g>
</svg>