<?xml version="1.0" encoding="UTF-8" standalone="no"?>
<svg width="181px" height="134px" viewBox="0 0 181 134" version="1.1" xmlns="http://www.w3.org/2000/svg" xmlns:xlink="http://www.w3.org/1999/xlink" xmlns:sketch="http://www.bohemiancoding.com/sketch/ns">
    <!-- Generator: Sketch 3.2.2 (9983) - http://www.bohemiancoding.com/sketch -->
    <title>Imported Layers</title>
    <desc>Created with Sketch.</desc>
    <defs></defs>
    <g id="Page-1" stroke="none" stroke-width="1" fill="none" fill-rule="evenodd" sketch:type="MSPage">
        <g id="Секции_брендинг-(дизайн)" sketch:type="MSArtboardGroup" transform="translate(-639.000000, -1365.000000)" fill="#DE4B4E">
            <g id="3_block" sketch:type="MSLayerGroup" transform="translate(0.000000, 998.000000)">
                <g id="II-этап" transform="translate(480.000000, 149.000000)" sketch:type="MSShapeGroup">
                    <g id="16-—-22-марта-2015-+-yota" transform="translate(159.000000, 144.000000)">
                        <g id="Imported-Layers" transform="translate(0.000000, 74.000000)">
                            <path d="M0.396754528,55.099505 L6.51243201,55.099505 L6.51243201,66.9745688 C6.51243201,68.5743049 6.23278943,71.3116228 6.23278943,71.3116228 L6.30315582,71.3116228 C6.30315582,71.3116228 7.42136154,68.6455197 8.39956368,66.9745688 L15.319168,55.099505 L21.5052119,55.099505 L21.5052119,80.5205835 L15.3895344,80.5205835 L15.3895344,68.6811271 C15.3895344,67.081391 15.6688124,64.3425894 15.6688124,64.3425894 L15.5988106,64.3425894 C15.5988106,64.3425894 14.4806049,67.0101762 13.5024027,68.6811271 L6.54743291,80.5205835 L0.396754528,80.5205835 L0.396754528,55.099505" id="Fill-2"></path>
                            <path d="M53.4438946,55.2133744 L59.5599366,55.2133744 L59.5599366,65.0250643 L62.0763553,65.0250643 L67.2481023,55.2133744 L73.8191561,55.2133744 L67.073827,67.3718137 L67.073827,67.4433994 L74.2030721,80.634453 L67.3534696,80.634453 L62.0763553,70.3231469 L59.5599366,70.3231469 L59.5599366,80.634453 L53.4438946,80.634453 L53.4438946,55.2133744" id="Fill-3"></path>
                            <path d="M165.610101,55.3457894 L172.040057,55.3457894 L180.532879,80.7668679 L174.243291,80.7668679 L172.704345,75.4328071 L164.910812,75.4328071 L163.40869,80.7668679 L157.117279,80.7668679 L165.610101,55.3457894 L165.610101,55.3457894 Z M171.272225,70.4555619 L169.873283,65.514295 C169.419365,63.9145589 168.86008,61.1416336 168.86008,61.1416336 L168.790078,61.1416336 C168.790078,61.1416336 168.230793,63.9145589 167.776875,65.514295 L166.344755,70.4555619 L171.272225,70.4555619 L171.272225,70.4555619 Z" id="Fill-4"></path>
                            <path d="M106.832658,55.4544661 L117.211518,55.4544661 C122.068986,55.4544661 125.353966,59.0801142 125.353966,64.1997889 C125.353966,69.3198346 122.068986,73.0181811 117.211518,73.0181811 L112.9487,73.0181811 L112.9487,80.8755446 L106.832658,80.8755446 L106.832658,55.4544661 L106.832658,55.4544661 Z M115.952944,67.6844911 C118.084717,67.6844911 119.134379,66.2275555 119.134379,64.1997889 C119.134379,62.1738769 118.084717,60.7866724 116.058311,60.7866724 L112.9487,60.7866724 L112.9487,67.6844911 L115.952944,67.6844911 L115.952944,67.6844911 Z" id="Fill-5"></path>
                            <path d="M7.5431355,0.467386561 L13.6591776,0.467386561 L13.6591776,25.8884651 L7.5431355,25.8884651 L7.5431355,0.467386561 Z" id="Fill-6"></path>
                            <path d="M105.527416,0.466644741 L114.230608,0.466644741 C116.780934,0.466644741 118.004507,0.643198039 119.087711,1.07122851 C121.918774,2.17320298 123.701632,4.76772046 123.701632,8.46643787 C123.701632,11.1681484 122.443058,14.1194816 119.962369,15.3980094 L119.962369,15.4695951 C119.962369,15.4695951 120.311284,15.9332329 120.90557,16.9996 L125.763039,25.8873524 L118.947708,25.8873524 L114.509157,17.3185828 L111.643094,17.3185828 L111.643094,25.8873524 L105.527416,25.8873524 L105.527416,0.466644741 L105.527416,0.466644741 Z M114.30061,11.9848929 C116.257014,11.9848929 117.480587,10.8829184 117.480587,8.85700641 C117.480587,7.57662409 117.16485,6.61707917 116.013101,6.15529586 C115.453816,5.90567323 114.719527,5.79885107 113.706324,5.79885107 L111.643094,5.79885107 L111.643094,11.9848929 L114.30061,11.9848929 L114.30061,11.9848929 Z" id="Fill-7"></path>
                            <path d="M164.842269,0.467386561 L171.273684,0.467386561 L179.765047,25.8884651 L173.475459,25.8884651 L171.936513,20.5544042 L164.14298,20.5544042 L162.640858,25.8884651 L156.349447,25.8884651 L164.842269,0.467386561 L164.842269,0.467386561 Z M170.504393,15.577159 L169.105451,10.6358922 C168.651533,9.03615608 168.092248,6.26323075 168.092248,6.26323075 L168.022246,6.26323075 C168.022246,6.26323075 167.462961,9.03615608 167.009043,10.6358922 L165.576923,15.577159 L170.504393,15.577159 L170.504393,15.577159 Z" id="Fill-8"></path>
                            <path d="M52.6483534,0.46553201 L58.7643954,0.46553201 L58.7643954,10.2775928 L61.2815432,10.2775928 L66.4543841,0.46553201 L73.024344,0.46553201 L66.2793796,12.6243422 L66.2793796,12.695557 L73.4082601,25.8866105 L66.5579284,25.8866105 L61.2815432,15.5756754 L58.7643954,15.5756754 L58.7643954,25.8866105 L52.6483534,25.8866105 L52.6483534,0.46553201" id="Fill-9"></path>
                            <path d="M7.05932102,108.191604 L13.1753631,108.191604 L13.1753631,133.612682 L7.05932102,133.612682 L7.05932102,108.191604 Z" id="Fill-10"></path>
                            <path d="M105.285327,108.189749 L113.988518,108.189749 C116.538844,108.189749 117.762417,108.366303 118.845986,108.794333 C121.676684,109.896308 123.459542,112.491196 123.459542,116.189542 C123.459542,118.891253 122.200968,121.842586 119.718821,123.121485 L119.718821,123.1927 C119.718821,123.1927 120.069195,123.654854 120.663481,124.722705 L125.520949,133.610828 L118.705618,133.610828 L114.267067,125.042058 L111.401004,125.042058 L111.401004,133.610828 L105.285327,133.610828 L105.285327,108.189749 L105.285327,108.189749 Z M114.05852,119.708368 C116.014924,119.708368 117.238497,118.606023 117.238497,116.580482 C117.238497,115.3001 116.924583,114.340555 115.771012,113.878771 C115.212091,113.628778 114.477437,113.521956 113.464234,113.521956 L111.401004,113.521956 L111.401004,119.708368 L114.05852,119.708368 L114.05852,119.708368 Z" id="Fill-11"></path>
                            <path d="M164.598721,108.191604 L171.030136,108.191604 L179.521499,133.612311 L173.231911,133.612311 L171.692965,128.278622 L163.899432,128.278622 L162.396946,133.612311 L156.105899,133.612311 L164.598721,108.191604 L164.598721,108.191604 Z M170.260481,123.301376 L168.861903,118.360109 C168.407985,116.760373 167.8487,113.985593 167.8487,113.985593 L167.778698,113.985593 C167.778698,113.985593 167.219413,116.760373 166.765495,118.360109 L165.333011,123.301376 L170.260481,123.301376 L170.260481,123.301376 Z" id="Fill-12"></path>
                            <path d="M52.6483534,108.189749 L58.7643954,108.189749 L58.7643954,118.001439 L61.2815432,118.001439 L66.4543841,108.189749 L73.024344,108.189749 L66.2793796,120.34856 L66.2793796,120.419774 L73.4082601,133.610828 L66.5579284,133.610828 L61.2815432,123.299893 L58.7643954,123.299893 L58.7643954,133.610828 L52.6483534,133.610828 L52.6483534,108.189749" id="Fill-13"></path>
                        </g>
                    </g>
                </g>
            </g>
        </g>
    </g>
</svg>