<?xml version="1.0" encoding="UTF-8" standalone="no"?>
<svg width="255px" height="45px" viewBox="0 0 255 45" version="1.1" xmlns="http://www.w3.org/2000/svg" xmlns:xlink="http://www.w3.org/1999/xlink" xmlns:sketch="http://www.bohemiancoding.com/sketch/ns">
    <!-- Generator: Sketch 3.2.2 (9983) - http://www.bohemiancoding.com/sketch -->
    <title>Imported Layers 4</title>
    <desc>Created with Sketch.</desc>
    <defs></defs>
    <g id="Page-1" stroke="none" stroke-width="1" fill="none" fill-rule="evenodd" sketch:type="MSPage">
        <g id="Секции_интерфейсы-(дизайн)" sketch:type="MSArtboardGroup" transform="translate(-610.000000, -1409.000000)">
            <g id="3_block" sketch:type="MSLayerGroup" transform="translate(0.000000, 998.000000)">
                <g id="I-этап" transform="translate(480.000000, 149.000000)" sketch:type="MSShapeGroup">
                    <g id="16-—-22-марта-2015-+-yota" transform="translate(130.000000, 144.000000)">
                        <g id="Imported-Layers-4" transform="translate(0.000000, 118.000000)">
                            <path d="M155.020895,24.4246842 L155.020895,34.2904737 L149.874009,34.2904737 L149.874009,13.5529474 L155.020895,13.5529474 L155.020895,22.6573158 L159.933991,13.3398947 L165.1101,13.766 L159.730594,23.1161053 L165.581187,34.0786316 L159.933991,34.7165789 L155.020895,24.4246842" id="Fill-1" fill="#44CDE3"></path>
                            <path d="M173.478612,13.5529474 L177.945169,13.5529474 L184.236457,34.2904737 L178.828895,34.2904737 L177.973224,31.4287895 L172.272256,31.4287895 L171.448146,34.2904737 L166.7139,34.2904737 L173.478612,13.5529474 L173.478612,13.5529474 Z M176.858046,27.5623684 L175.091763,21.6537895 L173.387434,27.5623684 L176.858046,27.5623684 L176.858046,27.5623684 Z" id="Fill-2" fill="#44CDE3"></path>
                            <path d="M202.082813,13.5529474 L202.082813,30.211 L204.492018,30.211 L204.492018,38.5539474 L199.786995,39.1628421 L199.786995,34.2904737 L189.613626,34.2904737 L189.613626,38.5539474 L184.907434,39.1628421 L184.907434,30.211 L186.379142,30.211 C187.171689,28.2632632 187.701224,26.4026842 188.022685,24.576 C188.63989,21.1054211 188.906411,16.2027895 188.906411,13.5529474 L202.082813,13.5529474 L202.082813,13.5529474 Z M196.906703,30.211 L196.906703,17.6336316 L193.611434,17.6336316 C193.376475,20.7398421 193.34842,22.5362632 192.877333,25.3083684 C192.525479,27.5006316 192.024,29.3563684 191.785534,30.211 L196.906703,30.211 L196.906703,30.211 Z" id="Fill-3" fill="#44CDE3"></path>
                            <path d="M205.853845,13.5529474 L212.115909,13.5529474 C217.058228,13.5529474 220.203872,16.0187895 220.203872,20.4662632 C220.203872,24.9415789 217.526977,27.9884737 213.676457,27.9884737 L211.675215,27.9884737 L212.557772,24.1196316 L212.7939,24.1196316 C214.175598,24.1196316 215.027763,22.9030526 215.027763,20.6793158 C215.027763,18.4253158 213.43916,17.6045789 211.440256,17.6045789 L210.999562,17.6045789 L210.999562,34.2904737 L205.853845,34.2904737 L205.853845,13.5529474" id="Fill-4" fill="#44CDE3"></path>
                            <path d="M229.74484,34.7165789 C224.361826,34.7165789 221.624146,29.9967368 221.624146,23.5119474 C221.624146,17.6045789 224.361826,13.1571053 229.74484,13.1571053 C235.151233,13.1571053 237.797735,17.6045789 237.797735,23.5119474 C237.797735,29.9967368 235.151233,34.7165789 229.74484,34.7165789 L229.74484,34.7165789 Z M229.74484,30.4240526 C231.712183,30.4240526 232.417059,27.1653158 232.417059,23.5119474 C232.417059,19.9166842 231.712183,17.4205789 229.74484,17.4205789 C227.713205,17.4205789 227.038721,19.9166842 227.038721,23.5119474 C227.038721,27.1653158 227.713205,30.4240526 229.74484,30.4240526 L229.74484,30.4240526 Z" id="Fill-5" fill="#44CDE3"></path>
                            <path d="M239.154886,13.5529474 L246.327562,13.5529474 C250.830356,13.5529474 253.504913,15.3481579 253.504913,19.2472632 C253.504913,21.3160526 252.357005,22.8715789 250.797626,23.5119474 C252.386228,23.9380526 254.150174,25.3083684 254.150174,28.5973684 C254.150174,32.0074211 251.416,34.2904737 248.328804,34.2904737 L239.154886,34.2904737 L239.154886,13.5529474 L239.154886,13.5529474 Z M246.327562,30.211 C247.855379,30.211 248.798721,29.4181053 248.798721,27.9884737 C248.798721,26.3736316 247.886941,25.7623158 246.560183,25.7623158 L245.211215,25.7623158 L246.092603,22.2917368 L246.327562,22.2917368 C247.886941,22.2917368 248.328804,21.1054211 248.328804,19.8549474 C248.328804,18.6395789 247.680037,17.6045789 245.418119,17.6045789 L244.299434,17.6045789 L244.299434,30.211 L246.327562,30.211 L246.327562,30.211 Z" id="Fill-6" fill="#44CDE3"></path>
                            <path d="M0.000621004566,13.5529474 L0.000621004566,20.6175789 L5.07970776,13.5529474 L0.000621004566,13.5529474" id="Fill-7" fill="#44CEE3"></path>
                            <path d="M9.85252968,23.1161053 L15.2343744,13.766 L10.0594338,13.3398947 L5.14750685,22.6573158 L5.14750685,16.8528421 C2.38410959,17.7207895 0.000621004566,21.9273684 0.000621004566,22.1622105 L0.000621004566,34.2904737 L5.14750685,34.2904737 L5.14750685,24.4246842 L10.0594338,34.7165789 L15.7042922,34.0786316 L9.85252968,23.1161053" id="Fill-8" fill="#D93081"></path>
                            <path d="M66.0287489,30.1516842 L66.0287489,13.5529474 L60.8538082,13.5529474 L60.8538082,20.7362105 L66.0287489,30.1516842" id="Fill-9" fill="#44CEE3"></path>
                            <path d="M80.0374429,22.4031053 L81.3793973,19.7617368 C81.3793973,19.7617368 82.8300639,17.5513158 83.2298447,13.5529474 L80.6850411,13.5529474 L74.3925845,25.4596842 L74.3925845,13.5529474 L69.2153059,13.5529474 L69.2153059,34.2904737 L73.7438174,34.2904737 L80.0374429,22.3837368 L80.0374429,22.4031053" id="Fill-10" fill="#D93081"></path>
                            <path d="M80.0374429,24.3072632 L80.0374429,34.2904737 L85.2123836,34.2904737 L85.2123836,14.1485263 L80.0374429,24.3072632" id="Fill-11" fill="#44CEE3"></path>
                            <path d="M92.9730411,13.5529474 L88.3989406,13.5529474 L88.3989406,22.529 L92.9730411,13.5529474" id="Fill-12" fill="#44CEE3"></path>
                            <path d="M109.483288,26.7513158 L107.022648,34.2904737 L111.759233,34.2904737 L112.322667,32.327 L109.483288,26.7513158" id="Fill-13" fill="#44CEE3"></path>
                            <path d="M118.258594,13.5529474 L113.786192,13.5529474 C113.786192,13.5529474 110.46053,23.7504211 110.356493,24.0651579 C109.570959,26.2114211 112.835836,31.4287895 112.835836,31.4287895 L118.287817,31.4287895 L119.139982,34.2904737 L124.547543,34.2904737 L118.258594,13.5529474 L118.258594,13.5529474 Z M113.698521,27.5623684 L115.407525,21.6537895 L117.169132,27.5623684 L113.698521,27.5623684 L113.698521,27.5623684 Z" id="Fill-14" fill="#D93081"></path>
                            <path d="M28.9181005,27.9787895 C28.9344658,27.9364211 28.9590137,27.8771053 28.975379,27.8347368 L33.7388493,13.766 L29.0338265,13.3398947 L26.4948676,21.9382632 L28.9181005,27.9787895" id="Fill-15" fill="#44CEE3"></path>
                            <path d="M26.0997626,23.2722632 L26.090411,23.2964737 L22.0353242,13.3398947 L16.6230868,13.766 L23.5923653,28.7172105 C23.4474155,29.1772105 23.180895,29.7534211 22.4748493,30.211 C21.8892055,30.5741579 21.3292785,30.6358947 20.7693516,30.6358947 C20.0644749,30.6358947 19.3595982,30.4543158 18.6816073,30.211 L18.6816073,34.2904737 C19.828347,34.6257895 20.828968,34.7165789 21.504621,34.7165789 C22.7986484,34.7165789 24.4153059,34.4732632 25.9162374,33.1029474 C26.3113425,32.7518947 26.6631963,32.3463684 26.9788128,31.9117895 C28.5720913,29.7195263 27.0968767,25.7514211 27.0968767,25.7514211 L26.0997626,23.2722632" id="Fill-16" fill="#D93081"></path>
                            <path d="M36.7524018,29.2667895 C36.7278539,29.2425789 36.700968,29.2304737 36.6740822,29.2050526 L35.3204384,33.4987895 C36.0545388,33.9575789 36.9955434,34.351 38.2042374,34.5640526 C38.4321826,34.6027895 38.6741553,34.6015789 38.9067763,34.6282105 L36.7524018,29.2667895" id="Fill-17" fill="#44CEE3"></path>
                            <path d="M46.9374612,24.576 C46.406758,23.9997895 45.7030502,23.5700526 44.7901005,23.3279474 C46.0560731,22.7493158 46.7597808,21.8365789 47.1116347,21.0146316 C47.4366027,20.3125263 47.4962192,19.6116316 47.4962192,18.8816842 C47.4962192,16.6906316 46.6124932,15.4098947 45.8187763,14.709 C44.3190137,13.4004211 42.2604932,13.1571053 40.7315068,13.1571053 C39.9085662,13.1571053 39.1136804,13.2176316 38.3199635,13.3398947 C37.144,13.5529474 36.2333881,13.7962632 35.3204384,14.1618421 L36.4391233,18.2437368 C37.5846941,17.3891053 38.6741553,17.2075263 39.7016621,17.2075263 C40.2908128,17.2075263 41.0260822,17.2983158 41.5836712,17.7558947 C42.2032146,18.2727895 42.3189406,19.0644737 42.3189406,19.7665789 C42.3189406,20.1612105 42.2897169,20.5885263 41.9670868,21.0436842 C41.5252237,21.6537895 40.938411,21.6828421 40.6146119,21.6828421 L39.2890228,21.6828421 L38.378411,25.7623158 L40.8495708,25.7623158 C41.4667763,25.7623158 41.937863,25.8857895 42.3773881,26.4632105 C42.7011872,26.9207895 42.7900274,27.3166316 42.7900274,27.8032632 C42.7900274,28.5041579 42.6146849,29.1445263 42.1739909,29.6311579 C41.6643288,30.2085789 41.0178995,30.418 40.2884749,30.4119474 C39.4515068,30.4058947 38.8296256,30.0524211 38.8296256,30.0524211 C38.8296256,30.0524211 38.1995616,31.7713684 39.5321644,34.7165789 L39.9085662,34.7165789 C41.9074703,34.7165789 44.1144475,34.2904737 45.7603288,33.0726842 C46.4383196,32.5848421 46.9666849,31.9747368 47.407379,31.2762632 C47.9684749,30.3320526 48.2010959,29.2667895 48.2010959,28.2015263 C48.2010959,26.2828421 47.4366027,25.1558421 46.9374612,24.576" id="Fill-18" fill="#D93081"></path>
                            <path id="Fill-19" fill="#FFFFFF"></path>
                            <path id="Fill-20" fill="#FFFFFF"></path>
                            <path d="M103.894539,30.211 L103.894539,13.5529474 L98.7195982,13.5529474 L98.7195982,30.211 L93.5738813,30.211 L93.5738813,15.8941053 C91.7094064,16.4448947 88.3989406,24.4307368 88.3989406,24.4307368 L88.3989406,34.2904737 L101.602228,34.2904737 L101.602228,39.1628421 L106.307251,38.5539474 L106.307251,30.211 L103.894539,30.211" id="Fill-21" fill="#D93081"></path>
                            <path d="M64.8446027,30.0851053 C64.3513059,29.176 60.1056804,21.471 60.1056804,21.471 L55.5128767,21.471 L55.5128767,13.5529474 L50.3379361,13.5529474 L50.3379361,34.2904737 L55.5128767,34.2904737 L55.5128767,26.1605789 L60.6878174,26.1605789 L60.6878174,34.2904737 L65.8650959,34.2904737 C65.8650959,34.2904737 65.9293881,32.5545789 64.8446027,30.0851053" id="Fill-22" fill="#D93081"></path>
                            <path d="M145.184183,2.22121053 C145.247306,2.05415789 145.449534,1.52273684 145.449534,1.52273684 L141.943854,0.209315789 L141.698374,0.913842105 L140.171726,0.338842105 C139.229553,1.37626316 137.728621,2.85794737 136.265096,3.10126316 C135.383708,3.24652632 134.518685,3.20052632 133.70042,2.99231579 L133.114776,4.67252632 L140.405516,7.41073684 L140.405516,7.41921053 L142.661589,8.26052632 L142.661589,8.25689474 L143.699616,8.64910526 L147.242703,9.96978947 L149.402922,3.807 L145.184183,2.22121053" id="Fill-23" fill="#C62472"></path>
                            <path d="M141.195726,8.67936842 L140.866082,8.55468421 L140.538776,8.43242105 L138.280365,7.58626316 C138.280365,7.58626316 139.584913,9.39236842 139.324237,9.98794737 C139.002776,10.7263684 139.753242,10.1489474 126.435397,43.0135263 C126.435397,43.0135263 126.885443,43.4347895 127.464073,43.8475789 C127.365881,44.1465789 127.555251,44.4891579 127.894247,44.6150526 C128.228566,44.7433684 128.583927,44.6053684 128.696146,44.3148421 C129.371799,44.3911053 129.943416,44.3911053 129.943416,44.3911053 C129.943416,44.3911053 141.014539,11.3001579 141.185205,10.6694737 C141.352365,10.04 143.45063,9.52310526 143.45063,9.52310526 L141.195726,8.67936842" id="Fill-24" fill="#C62472"></path>
                        </g>
                    </g>
                </g>
            </g>
        </g>
    </g>
</svg>