<?xml version="1.0" encoding="UTF-8" standalone="no"?>
<svg width="220px" height="48px" viewBox="0 0 220 48" version="1.1" xmlns="http://www.w3.org/2000/svg" xmlns:xlink="http://www.w3.org/1999/xlink" xmlns:sketch="http://www.bohemiancoding.com/sketch/ns">
    <!-- Generator: Sketch 3.2.2 (9983) - http://www.bohemiancoding.com/sketch -->
    <title>Imported Layers</title>
    <desc>Created with Sketch.</desc>
    <defs></defs>
    <g id="Page-1" stroke="none" stroke-width="1" fill="none" fill-rule="evenodd" sketch:type="MSPage">
        <g id="Секции_интерфейсы-(дизайн)" sketch:type="MSArtboardGroup" transform="translate(-609.000000, -1402.000000)">
            <g id="3_block" sketch:type="MSLayerGroup" transform="translate(0.000000, 998.000000)">
                <g id="III-этап" transform="translate(480.000000, 149.000000)" sketch:type="MSShapeGroup">
                    <g id="16-—-22-марта-2015-+-yota" transform="translate(129.000000, 144.000000)">
                        <g id="Imported-Layers" transform="translate(0.000000, 111.000000)">
                            <path d="M77.8593924,27.7541647 L76.5444051,31.4851765 L76.4697722,31.4851765 C76.2347342,30.6104471 75.840962,29.3709176 75.2238481,27.7948235 L68.1871899,9.89590588 L61.307038,9.89590588 L61.307038,38.3525647 L65.8446076,38.3525647 L65.8446076,20.8596706 C65.8446076,19.7793882 65.8217722,18.4749176 65.7772152,16.9812706 C65.7538228,16.2256941 65.6691646,15.6203294 65.648557,15.1595294 L65.7482532,15.1595294 C65.9788354,16.2313412 66.2183291,17.0484706 66.3915443,17.5945412 L74.829519,38.3525647 L78.0042025,38.3525647 L86.3797975,17.4070588 C86.5697215,16.9293176 86.7713418,15.9975529 86.9562532,15.1595294 L87.0559494,15.1595294 C86.9462278,17.2325647 86.8532152,19.1265882 86.840962,20.2701176 L86.840962,38.3525647 L91.681519,38.3525647 L91.681519,9.89590588 L85.0742785,9.89590588 L77.8593924,27.7541647" id="Fill-1" fill="#FFFFFF"></path>
                            <path d="M96.2391392,17.9599059 L100.970532,17.9599059 L100.970532,38.3525647 L96.2391392,38.3525647 L96.2391392,17.9599059 Z" id="Fill-2" fill="#FFFFFF"></path>
                            <path d="M98.6535696,9.29336471 C97.8738228,9.29336471 97.196,9.56329412 96.6379241,10.0946824 C96.0770633,10.6283294 95.7935696,11.3020235 95.7935696,12.0954353 C95.7935696,12.8764235 96.0742785,13.536 96.6284557,14.0566588 C97.1798481,14.5750588 97.8615696,14.8376471 98.6535696,14.8376471 C99.4455696,14.8376471 100.130076,14.5750588 100.687595,14.0572235 C101.249013,13.536 101.53362,12.8764235 101.53362,12.0954353 C101.53362,11.3296941 101.256253,10.6639059 100.71043,10.1167059 C100.164608,9.57007059 99.4728608,9.29336471 98.6535696,9.29336471" id="Fill-3" fill="#FFFFFF"></path>
                            <path d="M117.720051,17.7554824 C116.809975,17.5646118 115.921063,17.4686118 115.076152,17.4686118 C112.905114,17.4686118 110.969114,17.9401412 109.322177,18.8707765 C107.672456,19.8025412 106.395899,21.1341176 105.528709,22.8271059 C104.66319,24.5155765 104.224304,26.4869647 104.224304,28.6870588 C104.224304,30.6138353 104.65038,32.3813647 105.490835,33.9405176 C106.332405,35.5019294 107.523747,36.7228235 109.031443,37.5698824 C110.537468,38.4152471 112.277418,38.8444235 114.203392,38.8444235 C116.451848,38.8444235 118.372253,38.3892706 119.910582,37.4902588 L119.972962,37.4529882 L119.972962,33.0590118 L119.774684,33.2064 C119.076253,33.7214118 118.29762,34.1319529 117.459949,34.4278588 C116.623392,34.7232 115.860911,34.8734118 115.192557,34.8734118 C113.336203,34.8734118 111.846329,34.2844235 110.764152,33.1228235 C109.679747,31.9606588 109.130582,30.3292235 109.130582,28.2742588 C109.130582,26.2063059 109.703139,24.5313882 110.832658,23.2963765 C111.959949,22.0641882 113.452608,21.4396235 115.269975,21.4396235 C116.826127,21.4396235 118.34162,21.9732706 119.774684,23.0275765 L119.972962,23.1738353 L119.972962,18.5432471 L119.909468,18.5071059 C119.369772,18.2010353 118.633468,17.9480471 117.720051,17.7554824" id="Fill-4" fill="#FFFFFF"></path>
                            <path d="M133.309418,17.6058353 C132.121418,17.6058353 131.057063,17.9926588 130.145316,18.7561412 C129.344962,19.4253176 128.767392,20.3440941 128.324608,21.4910118 L128.274481,21.4910118 L128.274481,17.9599059 L123.543646,17.9599059 L123.543646,38.3525647 L128.274481,38.3525647 L128.274481,27.9201882 C128.274481,26.1464471 128.671595,24.6895059 129.454127,23.5894588 C130.226633,22.5018353 131.256456,21.9506824 132.514076,21.9506824 C132.940709,21.9506824 133.419139,22.0218353 133.937114,22.1624471 C134.449519,22.3024941 134.820456,22.4549647 135.039899,22.6147765 L135.238734,22.7604706 L135.238734,17.9243294 L135.16243,17.8915765 C134.72243,17.7018353 134.098633,17.6058353 133.309418,17.6058353" id="Fill-5" fill="#FFFFFF"></path>
                            <path d="M146.159646,17.4686118 C142.84238,17.4686118 140.207949,18.4540235 138.33043,20.3971765 C136.452911,22.3397647 135.50162,25.0300235 135.50162,28.3922824 C135.50162,31.5856941 136.430633,34.1534118 138.263038,36.0242824 C140.095443,37.8951529 142.589519,38.8444235 145.674532,38.8444235 C148.888759,38.8444235 151.471392,37.8460235 153.348911,35.8752 C155.225316,33.9066353 156.177165,31.2434824 156.177165,27.9597176 C156.177165,24.7154824 155.284354,22.128 153.523797,20.2706824 C151.76157,18.4111059 149.283646,17.4686118 146.159646,17.4686118 L146.159646,17.4686118 Z M149.921367,33.1702588 C149.032456,34.3008 147.69519,34.8734118 145.945772,34.8734118 C144.208051,34.8734118 142.83681,34.2900706 141.871595,33.1386353 C140.900253,31.9809882 140.407342,30.3314824 140.407342,28.2347294 C140.407342,26.0730353 140.900253,24.3800471 141.871595,23.2032 C142.837924,22.0331294 144.195797,21.4396235 145.907342,21.4396235 C147.567646,21.4396235 148.889873,22.0065882 149.836709,23.1258353 C150.788557,24.2501647 151.271443,25.9296 151.271443,28.1167059 C151.271443,30.3320471 150.816962,32.0323765 149.921367,33.1702588 L149.921367,33.1702588 Z" id="Fill-6" fill="#FFFFFF"></path>
                            <path d="M166.669772,26.3864471 C165.178228,25.7782588 164.222481,25.2751059 163.829823,24.8888471 C163.449975,24.5155765 163.256709,23.9875765 163.256709,23.3184 C163.256709,22.7248941 163.495089,22.2494118 163.984658,21.8654118 C164.476456,21.4780235 165.162076,21.2820706 166.022025,21.2820706 C166.821266,21.2820706 167.637215,21.4091294 168.448709,21.6598588 C169.259646,21.9105882 169.972557,22.2460235 170.567949,22.656 L170.764,22.7909647 L170.764,18.3568941 L170.687696,18.3235765 C170.139646,18.0852706 169.416152,17.8814118 168.537266,17.7159529 C167.660608,17.5516235 166.866937,17.4686118 166.176861,17.4686118 C163.921165,17.4686118 162.054785,18.0536471 160.628405,19.2073412 C159.194785,20.3672471 158.467392,21.8896941 158.467392,23.7312 C158.467392,24.6889412 158.624456,25.5393882 158.93357,26.2593882 C159.243797,26.9833412 159.72557,27.6214588 160.365519,28.1556706 C160.998228,28.6859294 161.978481,29.2410353 163.276203,29.8068706 C164.366177,30.2620235 165.179899,30.6471529 165.697316,30.9509647 C166.202481,31.248 166.561165,31.5467294 166.762785,31.8381176 C166.960506,32.1232941 167.060203,32.5118118 167.060203,32.9940706 C167.060203,34.3651765 166.048203,35.0304 163.966278,35.0304 C163.193215,35.0304 162.312658,34.8672 161.347443,34.5453176 C160.381671,34.2228706 159.479392,33.7592471 158.666228,33.1663059 L158.467392,33.0217412 L158.467392,37.6975059 L158.539797,37.7313882 C159.218177,38.0487529 160.072,38.3164235 161.079544,38.5270588 C162.086532,38.7382588 162.998835,38.8444235 163.790835,38.8444235 C166.240354,38.8444235 168.210886,38.256 169.649519,37.0960941 C171.096506,35.9288471 171.830582,34.3702588 171.830582,32.4632471 C171.830582,31.0893176 171.436253,29.9102118 170.657063,28.9598118 C169.884,28.0167529 168.542278,27.1510588 166.669772,26.3864471" id="Fill-7" fill="#FFFFFF"></path>
                            <path d="M184.552152,17.4686118 C181.234886,17.4686118 178.60157,18.4540235 176.723494,20.3971765 C174.846532,22.3397647 173.894684,25.0300235 173.894684,28.3922824 C173.894684,31.5856941 174.823696,34.1534118 176.656658,36.0242824 C178.489063,37.8951529 180.982025,38.8444235 184.067595,38.8444235 C187.281823,38.8444235 189.864456,37.8460235 191.741975,35.8752 C193.618937,33.9066353 194.570785,31.2434824 194.570785,27.9597176 C194.570785,24.7154824 193.677418,22.128 191.916304,20.2706824 C190.154633,18.4111059 187.676709,17.4686118 184.552152,17.4686118 L184.552152,17.4686118 Z M188.31443,33.1702588 C187.426076,34.3008 186.087696,34.8734118 184.339392,34.8734118 C182.601671,34.8734118 181.23043,34.2900706 180.264101,33.1386353 C179.292759,31.9809882 178.800405,30.3314824 178.800405,28.2347294 C178.800405,26.0730353 179.293316,24.3800471 180.264658,23.2032 C181.230987,22.0331294 182.588304,21.4396235 184.300405,21.4396235 C185.960709,21.4396235 187.283494,22.0065882 188.230329,23.1258353 C189.182177,24.2501647 189.664506,25.9296 189.664506,28.1167059 C189.664506,30.3320471 189.210025,32.0323765 188.31443,33.1702588 L188.31443,33.1702588 Z" id="Fill-8" fill="#FFFFFF"></path>
                            <path d="M219.797266,21.8716235 L219.797266,17.9599059 L215.005722,17.9599059 L215.005722,11.8768941 L214.844203,11.9271529 L210.343949,13.3242353 L210.255392,13.3519059 L210.255392,17.9599059 L203.156354,17.9599059 L203.156354,15.3927529 C203.156354,14.1978353 203.419797,13.2830118 203.940557,12.6731294 C204.456861,12.0688941 205.194278,11.7628235 206.133873,11.7628235 C206.810582,11.7628235 207.511797,11.9248941 208.217468,12.2445176 L208.393468,12.3235765 L208.393468,8.20291765 L208.311038,8.17355294 C207.653823,7.93355294 206.758785,7.81157647 205.649316,7.81157647 C204.251899,7.81157647 202.981468,8.1216 201.875342,8.73148235 C200.766987,9.34418824 199.894785,10.2177882 199.284911,11.328 C198.675595,12.4370824 198.367038,13.7184 198.367038,15.1369412 L198.367038,17.9599059 L195.030835,17.9599059 L195.030835,21.8716235 L198.367038,21.8716235 L198.367038,38.3525647 L203.156354,38.3525647 L203.156354,21.8716235 L210.255392,21.8716235 L210.255392,32.3452235 C210.255392,36.6578824 212.26157,38.8444235 216.219342,38.8444235 C216.869873,38.8444235 217.55438,38.7670588 218.25281,38.6157176 C218.965165,38.4598588 219.449165,38.3045647 219.734329,38.1391059 L219.797266,38.1029647 L219.797266,34.1522824 L219.602329,34.2844235 C219.342785,34.4600471 219.018633,34.6034824 218.639342,34.7107765 C218.257823,34.8186353 217.939797,34.8734118 217.693063,34.8734118 C216.765722,34.8734118 216.080101,34.6204235 215.654025,34.1206588 C215.224051,33.6158118 215.005722,32.7348706 215.005722,31.4992941 L215.005722,21.8716235 L219.797266,21.8716235" id="Fill-9" fill="#FFFFFF"></path>
                            <path d="M0.429974684,0.390776471 L22.6867342,0.390776471 L22.6867342,22.9569882 L0.429974684,22.9569882 L0.429974684,0.390776471 Z" id="Fill-10" fill="#E15D29"></path>
                            <path d="M25.0036962,0.390776471 L47.2598987,0.390776471 L47.2598987,22.9564235 L25.0036962,22.9564235 L25.0036962,0.390776471 Z" id="Fill-11" fill="#84BF41"></path>
                            <path d="M0.429974684,25.3152 L22.6861772,25.3152 L22.6861772,47.8808471 L0.429974684,47.8808471 L0.429974684,25.3152 Z" id="Fill-12" fill="#00A3DB"></path>
                            <path d="M25.0036962,25.3152 L47.2598987,25.3152 L47.2598987,47.8808471 L25.0036962,47.8808471 L25.0036962,25.3152 Z" id="Fill-13" fill="#F6BC25"></path>
                        </g>
                    </g>
                </g>
            </g>
        </g>
    </g>
</svg>