<?xml version="1.0" encoding="UTF-8" standalone="no"?>
<svg width="213px" height="43px" viewBox="0 0 213 43" version="1.1" xmlns="http://www.w3.org/2000/svg" xmlns:xlink="http://www.w3.org/1999/xlink" xmlns:sketch="http://www.bohemiancoding.com/sketch/ns">
    <!-- Generator: Sketch 3.2.2 (9983) - http://www.bohemiancoding.com/sketch -->
    <title>Group</title>
    <desc>Created with Sketch.</desc>
    <defs></defs>
    <g id="Page-1" stroke="none" stroke-width="1" fill="none" fill-rule="evenodd" sketch:type="MSPage">
        <g id="Секции_интерфейсы-(дизайн)" sketch:type="MSArtboardGroup" transform="translate(-610.000000, -1411.000000)">
            <g id="3_block" sketch:type="MSLayerGroup" transform="translate(0.000000, 998.000000)">
                <g id="II-этап" transform="translate(480.000000, 149.000000)" sketch:type="MSShapeGroup">
                    <g id="16-—-22-марта-2015-+-yota" transform="translate(130.000000, 144.000000)">
                        <g id="white" transform="translate(0.000000, 120.000000)">
                            <g id="Group">
                                <path d="M35.8697532,31.823125 L27.1118571,31.823125 L27.1118571,42.47125 L47.3855844,42.47125 L47.3855844,0.5003125 L30.4921948,0.5003125 L0,42.47125 L14.1575844,42.47125 L35.8697532,10.78 L35.8697532,31.823125 Z" id="Shape" fill="#FFFFFF"></path>
                                <path d="M135.357351,11.145625 L135.357351,0.5003125 L96.8596753,0.5003125 L96.8596753,11.145625 L110.73787,11.145625 L110.73787,42.6878125 L122.693532,42.6878125 L122.693532,11.145625 L135.357351,11.145625 Z" id="Shape" fill="#FFFFFF"></path>
                                <path d="M151.766649,26.1503125 L151.766649,0.5003125 L140.250818,0.5003125 L140.250818,42.47125 L153.545338,42.47125 L170.369571,18.0784375 L170.369571,42.578125 L182.507805,42.578125 L213,0.604375 L198.870078,0.604375 L181.345987,26.2571875 L181.345987,0.604375 L181.293429,0.604375 L181.293429,0.5003125 L169.293506,0.5003125 L151.766649,26.1503125 Z" id="Shape" fill="#FF0538"></path>
                                <path d="M78.4946494,0.53125 L71.7229091,0.53125 L71.7063117,0.4975 L55.5874675,0.4975 L55.5874675,42.685 L67.272039,42.685 L67.272039,32.59375 L75.2332597,32.59375 L81.7034805,42.6878125 L96.2123766,42.6878125 L87.3106364,30.473125 L89.0284675,28.988125 C89.9081299,28.2259375 90.7075714,27.3653125 91.3991299,26.423125 L91.3991299,26.423125 C91.9274805,25.703125 92.3728442,24.9071875 92.7628831,24.04375 L92.7684156,24.0325 C93.3520909,22.7471875 93.7946883,21.3803125 94.1072727,20.0725 L94.098974,20.10625 L94.1045065,20.0753125 C94.2621818,19.4228125 94.3811299,18.7928125 94.4613506,18.2021875 C94.5415714,17.6003125 94.5858312,17.06875 94.5858312,16.556875 C94.5858312,12.3465625 93.0478052,8.4878125 90.5415974,5.6303125 C88.3230779,3.0934375 85.3327792,1.324375 81.969039,0.7225 L81.9441429,0.7196875 L80.4974026,0.5340625 L80.4642078,0.53125 C80.3258961,0.525625 80.1986494,0.52 80.0437403,0.5171875 L80.0354416,0.5171875 C79.8556364,0.514375 79.6454026,0.5115625 79.4407013,0.5115625 C79.236,0.5115625 79.0368312,0.5115625 78.8625584,0.5171875 L78.8431948,0.5171875 L78.8348961,0.5171875 C78.7325455,0.52 78.6384935,0.5228125 78.5472078,0.525625 L78.4946494,0.53125 L78.4946494,0.53125 Z M80.4282468,11.6546875 L80.4337792,11.6546875 C81.0008571,11.9275 81.5153766,12.3184375 81.957974,12.8078125 C82.4144026,13.3140625 82.7629481,13.885 83.0146753,14.520625 L83.022974,14.543125 L83.0146753,14.52625 C83.2608701,15.1590625 83.3991818,15.8453125 83.3991818,16.55125 L83.3991818,16.556875 L83.3991818,16.5653125 C83.4019481,17.3471875 83.2525714,18.098125 83.0119091,18.7225 L83.0091429,18.728125 C82.7684805,19.358125 82.4061039,19.9290625 81.9828701,20.3875 L81.9773377,20.393125 L81.9662727,20.404375 C81.5402727,20.86 81.0202208,21.236875 80.4586753,21.4871875 C79.9026623,21.7403125 79.2470649,21.8865625 78.597,21.88375 L78.6025325,21.88375 L78.597,21.88375 L78.5887013,21.88375 L77.8169221,21.88375 L70.3895844,21.88375 L70.3287273,21.88375 L67.272039,21.88375 L67.272039,11.2440625 L78.632961,11.2440625 C79.2470649,11.24125 79.8915974,11.39875 80.4282468,11.6546875 L80.4282468,11.6546875 Z" id="Shape" fill="#FFFFFF"></path>
                            </g>
                        </g>
                    </g>
                </g>
            </g>
        </g>
    </g>
</svg>