<?xml version="1.0" encoding="UTF-8" standalone="no"?>
<svg width="195px" height="58px" viewBox="0 0 195 58" version="1.1" xmlns="http://www.w3.org/2000/svg" xmlns:xlink="http://www.w3.org/1999/xlink" xmlns:sketch="http://www.bohemiancoding.com/sketch/ns">
    <!-- Generator: Sketch 3.2.2 (9983) - http://www.bohemiancoding.com/sketch -->
    <title>Imported Layers</title>
    <desc>Created with Sketch.</desc>
    <defs></defs>
    <g id="Page-1" stroke="none" stroke-width="1" fill="none" fill-rule="evenodd" sketch:type="MSPage">
        <g id="Секции_брендинг-(дизайн)" sketch:type="MSArtboardGroup" transform="translate(-631.000000, -1387.000000)">
            <g id="3_block" sketch:type="MSLayerGroup" transform="translate(0.000000, 998.000000)">
                <g id="III-этап" transform="translate(480.000000, 149.000000)" sketch:type="MSShapeGroup">
                    <g id="16-—-22-марта-2015-+-yota" transform="translate(150.000000, 144.000000)">
                        <g id="Imported-Layers" transform="translate(0.000000, 96.000000)">
                            <path d="M106.927484,0.11422449 L106.927484,31.125793 C106.988968,32.882914 107.203103,34.637879 107.576249,36.395 L104.359986,36.395 C103.931716,35.4097187 103.166343,32.9885569 103.005212,31.677723 C102.097789,33.3292012 101.041956,34.6249431 99.8334727,35.4506822 C99.0087356,36.0198601 98.1182739,36.390688 97.1578474,36.5717901 L97.1578474,34.4783367 C98.7225157,34.3554461 100.073049,33.4671837 101.211568,31.9105685 C102.437013,30.2245948 103.053976,27.7667813 103.053976,24.5241924 C103.053976,21.4627055 102.39673,19.0501676 101.084359,17.2930466 C100.011565,15.8442303 98.7034344,15.0745466 97.1578474,14.9818397 L97.1578474,12.8129271 C99.6426595,13.2290306 101.779767,15.2103732 103.005212,17.3447901 L103.005212,0.109912536 L106.927484,0.11422449 L106.927484,0.11422449 Z M97.1578474,36.5717901 C96.7062561,36.6558732 96.2355835,36.6968367 95.7500699,36.6968367 C93.2207348,36.6968367 91.058185,35.6145364 89.2730214,33.4542478 C87.489978,31.2982711 86.595276,28.3855466 86.595276,24.8346531 C86.595276,19.3649402 90.1062391,12.733156 96.2059015,12.733156 C96.5281638,12.733156 96.848306,12.7590277 97.1578474,12.8129271 L97.1578474,14.9818397 C97.0539602,14.9775277 96.950073,14.9732157 96.848306,14.9732157 C91.9444064,14.9732157 91.2617191,20.5830671 91.2617191,24.3840539 C91.2617191,28.07293 91.7747947,30.7312493 92.805186,32.233965 C93.8376975,33.7409927 95.158549,34.4955845 96.7741008,34.4955845 C96.9013096,34.4955845 97.0306386,34.4912726 97.1578474,34.4783367 L97.1578474,36.5717901 L97.1578474,36.5717901 Z" id="Fill-1" fill="#FFFFFF"></path>
                            <path d="M11.3576264,12.9444417 C11.6989701,12.8970102 12.0424338,12.8754504 12.3986185,12.8754504 C15.0106394,12.8754504 17.2177122,13.9167872 19.0283176,15.9973047 C20.8368028,18.0778222 21.7399853,20.8180685 21.7399853,24.2158878 C21.7399853,27.9047638 20.7668379,31.033086 18.8247835,33.2947055 C16.8869693,35.564949 14.4721221,36.6925248 11.6078037,36.6925248 L11.3576264,36.6925248 L11.3576264,35.1229738 L11.4869554,35.1272857 C13.1109878,35.1272857 14.4106378,34.3856297 15.3922658,32.9001618 C16.6261912,31.0244621 17.243154,28.2130685 17.243154,24.746258 C17.243154,21.326879 16.6961561,18.8518178 15.6191215,17.3102945 C14.5102847,15.7450554 12.9328955,14.9947755 11.3576264,15.0249592 L11.3576264,12.9444417 L11.3576264,12.9444417 Z M5.54418389,0.116380466 L5.54418389,16.8640073 C6.48128878,15.5251458 7.52016071,14.5269286 8.66291984,13.8650437 C9.49825768,13.382105 10.4014402,13.0738003 11.3576264,12.9444417 L11.3576264,15.0249592 C9.80143867,15.0572988 8.2537315,15.8528542 7.15973575,17.3814417 C6.0339378,18.9790204 5.47421905,21.5920641 5.47421905,25.2572245 C5.47421905,28.7391268 6.02545721,31.3715743 7.13853429,32.8742901 C8.21980916,34.3403542 9.63182693,35.0884781 11.3576264,35.1229738 L11.3576264,36.6925248 C10.0918988,36.6601851 8.94489936,36.390688 7.90178714,35.8667857 C6.78658992,35.3256356 5.80920224,34.4071895 4.63252076,33.0963557 C4.38446359,34.0449854 3.96255438,35.7783907 3.67209426,36.3863761 L1.11307707,36.3863761 C1.54770717,34.5279242 1.57738922,31.3952901 1.57738922,30.4056968 L1.57738922,0.129316327 L5.54418389,0.116380466 L5.54418389,0.116380466 Z" id="Fill-2" fill="#FFFFFF"></path>
                            <path d="M156.161533,12.6706327 C156.382028,13.6925656 156.564361,15.8291385 156.538919,17.1162566 C157.545989,15.4755583 158.72055,14.7382143 160.079564,13.9081633 C161.434338,13.0910481 162.960844,12.6792566 164.671802,12.6792566 C166.149545,12.6792566 167.38347,12.9767813 168.382059,13.563207 C169.380648,14.1474767 170.184184,15.0831706 170.784185,16.3551968 C171.388427,17.631535 171.689488,19.0631035 171.689488,20.6369665 L171.689488,36.3863761 L167.81386,36.3863761 L167.81386,22.2043615 C167.81386,20.1022843 167.491597,18.5348892 166.861914,17.5172682 C164.894418,14.3156429 160.492993,14.4018819 158.341044,17.0451093 C157.143161,18.5154854 156.538919,20.4213688 156.538919,22.7713834 L156.538919,36.3648163 L152.616647,36.3561924 L152.616647,17.1162566 C152.616647,16.3508848 152.406753,13.837016 152.141735,12.728844 L156.161533,12.6706327" id="Fill-3" fill="#FFFFFF"></path>
                            <path d="M185.652775,29.7869315 C188.379284,29.7869315 190.656321,30.759277 192.51569,32.6759402 C194.398381,34.6206312 195.314284,36.9426181 195.314284,39.6958003 C195.314284,42.4209548 194.375059,44.7688134 192.486008,46.6854767 C190.577876,48.6021399 188.32416,49.5744854 185.652775,49.5744854 C183.036514,49.5744854 180.782798,48.6021399 178.900107,46.6854767 C177.015297,44.7688134 176.071832,42.4209548 176.071832,39.6958003 C176.071832,36.9426181 176.989855,34.6206312 178.874666,32.6759402 C180.734034,30.759277 182.98351,29.7869315 185.652775,29.7869315" id="Fill-4" fill="#1EB1B1"></path>
                            <path d="M113.970612,30.3129898 C114.765667,35.9271531 124.615869,36.3260087 124.702795,30.4531283 C124.711275,29.7869315 124.550144,29.2026618 124.227882,28.7046312 C123.899259,28.2001327 123.437067,27.9435714 122.847666,27.6977901 C119.854019,26.4516356 116.234928,26.6413615 113.357889,24.9963513 C111.523962,23.9593265 110.442687,21.971516 110.474489,19.8241633 C110.529613,15.9886808 113.544462,13.3217376 117.080867,12.6275131 C120.640593,11.9246647 124.889368,13.5243994 126.566404,16.333637 L123.750849,18.3580991 C122.264626,13.9663746 117.576981,12.5175583 114.193227,15.689 C112.694283,17.0925408 112.338099,19.3067289 114.023615,20.6757741 C116.383339,22.6592726 120.657555,22.1828017 123.490071,23.2952857 C126.019406,24.2460714 127.456865,26.4192959 127.416583,29.1940379 C127.386901,31.1602886 126.608807,32.8268586 125.075941,34.1959038 C122.629291,36.3734402 117.933166,36.9253703 114.947999,35.7158673 C113.167076,34.9957711 111.886507,33.6267259 110.955763,31.9903397 L113.970612,30.3129898" id="Fill-5" fill="#FFFFFF"></path>
                            <path d="M139.573504,12.3795758 C142.492946,12.3968236 144.948076,13.5071516 146.941014,15.7278076 C148.948794,17.9549315 149.955863,20.8935277 149.955863,24.5457522 C149.955863,27.0660889 149.508512,29.2112857 148.60533,30.9834985 C147.706387,32.7600233 146.425819,34.1592522 144.765744,35.189809 C143.154432,36.1923382 141.424393,36.7054606 139.573504,36.7356443 L139.573504,34.9957711 C141.371389,34.9742114 142.82793,34.1290685 143.943127,32.4646545 C145.077405,30.7851487 145.643485,28.0276545 145.643485,24.2029519 C145.643485,20.6499023 145.085886,18.0799781 143.962208,16.4974913 C142.866092,14.9365641 141.403191,14.1388528 139.573504,14.119449 L139.573504,12.3795758 L139.573504,12.3795758 Z M139.499299,12.3795758 L139.573504,12.3795758 L139.573504,14.119449 L139.499299,14.119449 C137.748058,14.119449 136.314839,14.947344 135.189041,16.6074461 C134.065363,18.2653921 133.499284,20.8849038 133.499284,24.468137 C133.499284,28.1203615 134.061123,30.7851487 135.18056,32.4646545 C136.293637,34.1506283 137.739577,34.9957711 139.499299,34.9957711 L139.573504,34.9957711 L139.573504,36.7356443 L139.386931,36.7399563 C136.541694,36.7399563 134.133208,35.6059125 132.157231,33.3529169 C130.181254,31.0934534 129.189025,28.169949 129.189025,24.5694679 C129.189025,20.953895 130.181254,18.0217668 132.165711,15.7601472 C134.148049,13.5071516 136.596818,12.3795758 139.499299,12.3795758 L139.499299,12.3795758 Z" id="Fill-6" fill="#FFFFFF"></path>
                            <path d="M149.175649,55.3632828 L149.175649,54.416809 C149.283777,54.4254329 149.396144,54.4340569 149.514873,54.4340569 C149.809573,54.4340569 150.070351,54.4081851 150.299327,54.3585977 C150.526183,54.3111662 150.725477,54.2572668 150.890848,54.1925875 C151.06046,54.1343761 151.196149,54.0804767 151.304277,54.0330452 C151.412404,53.9834577 151.49085,53.957586 151.548093,53.957586 C151.577776,53.957586 151.611698,53.9662099 151.630779,53.9834577 C151.656221,54.0007055 151.677422,54.0201093 151.690143,54.054605 C151.707105,54.0891006 151.717705,54.1343761 151.721946,54.1925875 C151.726186,54.2486429 151.734666,54.3197901 151.734666,54.4038732 C151.734666,54.4663965 151.730426,54.5181399 151.726186,54.5591035 C151.721946,54.606535 151.717705,54.6431866 151.711345,54.6819942 C151.702864,54.7164898 151.690143,54.7445175 151.673182,54.7747012 C151.656221,54.8048848 151.63502,54.8286006 151.615938,54.8544723 C151.586256,54.880344 151.512051,54.9213076 151.386962,54.9816749 C151.268234,55.0398863 151.104983,55.0937857 150.907809,55.1541531 C150.712756,55.2080525 150.48378,55.2597959 150.227242,55.3007595 C149.966464,55.348191 149.688725,55.3675948 149.400385,55.3675948 L149.175649,55.3632828 L149.175649,55.3632828 Z M149.175649,52.1465656 L149.175649,51.3057347 L150.852685,51.3057347 C150.869647,50.6977493 150.738197,50.2234344 150.460458,49.8784781 C150.182719,49.5313659 149.773531,49.3588878 149.226533,49.3588878 L149.175649,49.3588878 L149.175649,48.4576895 L149.275296,48.4576895 C149.76081,48.4576895 150.169998,48.5374606 150.513462,48.6991589 C150.852685,48.8543892 151.134665,49.0699869 151.35516,49.339484 C151.577776,49.6046691 151.734666,49.9194417 151.838554,50.2773338 C151.942441,50.6395379 151.991204,51.0276137 151.991204,51.4350933 L151.991204,51.646379 C151.991204,51.827481 151.950921,51.9568397 151.859755,52.0344548 C151.772829,52.109914 151.668942,52.1465656 151.556574,52.1465656 L149.175649,52.1465656 L149.175649,52.1465656 Z M149.175649,48.4576895 L149.175649,49.3588878 C148.914871,49.3675117 148.688015,49.4235671 148.488722,49.522742 C148.278827,49.6283848 148.102855,49.7728353 147.962925,49.9496254 C147.818755,50.1264155 147.710628,50.3312332 147.632182,50.5640787 C147.557977,50.7990802 147.511334,51.0491735 147.502853,51.3057347 L149.175649,51.3057347 L149.175649,52.1465656 L147.502853,52.1465656 C147.502853,52.4958338 147.536776,52.8127624 147.6025,53.0908834 C147.672465,53.3733163 147.789073,53.6083178 147.950204,53.8109796 C148.107095,54.0093294 148.31911,54.1645598 148.571407,54.2745146 C148.7495,54.3456618 148.948794,54.3909373 149.175649,54.416809 L149.175649,55.3632828 C148.75798,55.348191 148.389075,55.2748878 148.062572,55.1541531 C147.676705,55.0053907 147.358683,54.791949 147.097905,54.509516 C146.837127,54.2227711 146.637833,53.869191 146.506384,53.4401516 C146.372815,53.0111122 146.307091,52.5130816 146.307091,51.9460598 C146.307091,51.4070656 146.377055,50.9219708 146.512745,50.4886195 C146.650554,50.0595802 146.849848,49.6930641 147.106386,49.3933834 C147.367164,49.0893907 147.676705,48.8630131 148.045611,48.6991589 C148.384834,48.5503965 148.762221,48.4706254 149.175649,48.4576895 L149.175649,48.4576895 Z M142.293653,57.7866006 L142.293653,56.9048061 L142.357257,56.9048061 C142.700721,56.9048061 142.984821,56.8724665 143.218037,56.8034752 C143.453373,56.7366399 143.635706,56.6482449 143.779876,56.5339781 C143.921925,56.4218673 144.025813,56.2946647 144.083057,56.1523703 C144.144541,56.0036079 144.178463,55.8570015 144.178463,55.6974592 C144.178463,55.4279621 144.070336,55.2209883 143.851961,55.0743819 C143.635706,54.9256195 143.336765,54.8458484 142.96998,54.8372245 L142.293653,54.8135087 L142.293653,53.8907507 L143.205316,53.9274023 C143.510617,53.9360262 143.792596,53.9834577 144.044894,54.0589169 C144.303552,54.1343761 144.526167,54.2443309 144.71274,54.3866254 C144.903553,54.5310758 145.047723,54.7035539 145.155851,54.9148397 C145.259738,55.1196574 145.312742,55.3611268 145.312742,55.6349359 C145.312742,55.9238367 145.251257,56.1976458 145.134649,56.458519 C145.013801,56.7193921 144.831468,56.9479257 144.587652,57.1462755 C144.339594,57.3424694 144.030053,57.4998557 143.648427,57.6162784 C143.2668,57.7262332 142.819449,57.7866006 142.302133,57.7866006 L142.293653,57.7866006 L142.293653,57.7866006 Z M142.293653,52.9809286 L142.293653,52.0926662 C142.522629,52.0926662 142.715562,52.0581706 142.878813,51.9827114 C143.044185,51.9115641 143.179874,51.8102332 143.288002,51.6830306 C143.396129,51.557984 143.474574,51.4092216 143.527578,51.2367434 C143.582702,51.0728892 143.606024,50.9004111 143.606024,50.7149971 C143.606024,50.2902697 143.491536,49.9539373 143.26256,49.7124679 C143.031464,49.4774665 142.707081,49.3545758 142.293653,49.3545758 L142.293653,48.4749373 C142.484466,48.4749373 142.658318,48.4835612 142.819449,48.505121 C142.98058,48.5266808 143.135351,48.5547085 143.279521,48.593516 L145.14737,48.593516 C145.225816,48.593516 145.28306,48.6301676 145.321222,48.7077828 C145.363625,48.783242 145.378466,48.9039767 145.378466,49.061363 C145.378466,49.2252172 145.357265,49.3416399 145.316982,49.4149431 C145.270339,49.4860904 145.213095,49.522742 145.14737,49.522742 L144.261149,49.522742 C144.41804,49.6887522 144.534648,49.8741662 144.596132,50.074672 C144.661857,50.2773338 144.691539,50.4929315 144.691539,50.7106851 C144.691539,51.0728892 144.638535,51.3941297 144.521927,51.6765627 C144.405319,51.9525277 144.244188,52.1896851 144.030053,52.383723 C143.818038,52.575605 143.565741,52.7243673 143.27104,52.8256983 C142.97846,52.9270292 142.649837,52.9809286 142.293653,52.9809286 L142.293653,52.9809286 Z M142.293653,48.4749373 L142.293653,49.3545758 L142.272451,49.3545758 C142.054076,49.3545758 141.863263,49.3933834 141.702132,49.4645306 C141.541001,49.5399898 141.403191,49.6413207 141.295064,49.7728353 C141.189056,49.9021939 141.110611,50.0552682 141.055487,50.2234344 C141.002483,50.3959125 140.977042,50.5727026 140.977042,50.7581166 C140.977042,51.1742201 141.09365,51.4976166 141.320505,51.7347741 C141.553721,51.9740875 141.875984,52.0926662 142.293653,52.0926662 L142.293653,52.9809286 C142.041355,52.9809286 141.801779,52.9464329 141.577043,52.8752857 C141.350187,52.8127624 141.176335,52.7243673 141.051247,52.6230364 C140.972801,52.7071195 140.902836,52.7998265 140.849833,52.9097813 C140.798949,53.0154242 140.769267,53.1404708 140.769267,53.2806093 C140.769267,53.4444636 140.845592,53.5781341 140.994003,53.683777 C141.142413,53.7937318 141.341707,53.8519431 141.585524,53.8605671 L142.293653,53.8907507 L142.293653,54.8135087 L141.367149,54.7833251 C141.220858,54.8975918 141.10213,55.0097026 141.010964,55.1153455 C140.915557,55.2209883 140.841352,55.3180073 140.781988,55.4150262 C140.728984,55.5120452 140.690822,55.6047522 140.67174,55.6974592 C140.650539,55.7901662 140.642058,55.8871851 140.642058,55.9842041 C140.642058,56.2860408 140.790469,56.5188863 141.09365,56.6698047 C141.38199,56.820723 141.784817,56.8961822 142.293653,56.9048061 L142.293653,57.7866006 C141.797538,57.7866006 141.375629,57.7391691 141.027925,57.655086 C140.680221,57.5710029 140.389761,57.4524242 140.165025,57.3015058 C139.94241,57.1548994 139.781279,56.9781093 139.677392,56.7711356 C139.577745,56.5598499 139.526861,56.3377843 139.526861,56.0920029 C139.526861,55.9410845 139.543822,55.7901662 139.581985,55.6500277 C139.620148,55.5034213 139.673151,55.3675948 139.747356,55.2382362 C139.825802,55.1024096 139.921208,54.9816749 140.033576,54.8630962 C140.145944,54.7402055 140.273153,54.6280948 140.417323,54.509516 C140.194707,54.3909373 140.033576,54.2486429 139.921208,54.0718528 C139.813081,53.8950627 139.760077,53.7010248 139.760077,53.494051 C139.760077,53.2116181 139.817321,52.9593688 139.933929,52.7373032 C140.046297,52.5087697 140.190467,52.3104198 140.360079,52.1336297 C140.215909,51.9611516 140.103541,51.7671137 140.020855,51.553672 C139.93817,51.3337624 139.895767,51.0728892 139.895767,50.7667405 C139.895767,50.4088484 139.959371,50.0832959 140.078099,49.800863 C140.194707,49.520586 140.360079,49.2791166 140.572093,49.0807668 C140.781988,48.8888848 141.034285,48.7358105 141.328986,48.6301676 C141.623686,48.5266808 141.945949,48.4749373 142.293653,48.4749373 L142.293653,48.4749373 Z M135.61095,55.3352551 L135.61095,54.4513047 C135.820845,54.421121 136.020138,54.3499738 136.206711,54.235707 C136.459009,54.0847886 136.728267,53.8476312 137.006007,53.5328586 L137.006007,52.198309 L136.037099,52.198309 C135.884449,52.198309 135.742399,52.202621 135.61095,52.2155569 L135.61095,51.3855058 C135.784802,51.37257 135.967135,51.3639461 136.153708,51.3639461 L137.006007,51.3639461 L137.006007,50.8745394 C137.006007,50.6352259 136.980565,50.4196283 136.931801,50.2363703 C136.878798,50.0466443 136.798232,49.89357 136.687985,49.7728353 C136.575617,49.6456327 136.431447,49.5529257 136.253354,49.4904023 C136.079502,49.432191 135.863247,49.3976953 135.61095,49.3976953 L135.61095,48.4576895 L135.693636,48.4576895 C136.136746,48.4576895 136.518373,48.5137449 136.827914,48.6150758 C137.139576,48.7142507 137.391873,48.8673251 137.582686,49.0656749 C137.77562,49.2618688 137.91767,49.5076501 138.004596,49.800863 C138.091522,50.0962318 138.131805,50.4368761 138.131805,50.8292638 L138.131805,55.07007 C138.131805,55.1239694 138.114843,55.1670889 138.078801,55.1908047 C138.040638,55.2209883 137.991875,55.2425481 137.930391,55.2597959 C137.862546,55.2705758 137.767139,55.2791997 137.648411,55.2791997 C137.527563,55.2791997 137.432156,55.2705758 137.362191,55.2597959 C137.292226,55.2425481 137.237103,55.2209883 137.2053,55.1908047 C137.171378,55.1670889 137.158657,55.1239694 137.158657,55.07007 L137.158657,54.4383688 C136.885158,54.7315816 136.588338,54.9601152 136.253354,55.1239694 C136.04982,55.2253003 135.833565,55.2964475 135.61095,55.3352551 L135.61095,55.3352551 Z M135.61095,48.4576895 L135.61095,49.3976953 L135.593989,49.3976953 C135.307769,49.3976953 135.063952,49.432191 134.841337,49.4990262 C134.616601,49.5658615 134.421548,49.6413207 134.256176,49.7210918 C134.086564,49.800863 133.950875,49.8784781 133.834267,49.9453134 C133.721899,50.0121487 133.639213,50.0466443 133.58621,50.0466443 C133.548047,50.0466443 133.516245,50.0380204 133.490803,50.0207726 C133.461121,49.9992128 133.435679,49.9711851 133.416598,49.9323776 C133.399637,49.8978819 133.382676,49.8482945 133.369955,49.7900831 C133.361474,49.7340277 133.357234,49.6671924 133.357234,49.6003571 C133.357234,49.4817784 133.365715,49.3890714 133.382676,49.3222362 C133.399637,49.2554009 133.435679,49.1907216 133.499284,49.1281983 C133.560768,49.0699869 133.668895,48.9966837 133.817306,48.9169125 C133.969956,48.8371414 134.143808,48.7616822 134.338862,48.6948469 C134.538156,48.6258557 134.754411,48.5719563 134.985507,48.5266808 C135.193281,48.4878732 135.398935,48.4620015 135.61095,48.4576895 L135.61095,48.4576895 Z M135.61095,51.3855058 L135.61095,52.2155569 C135.47314,52.2263367 135.345932,52.2478965 135.225083,52.2780802 C134.998228,52.3319796 134.807414,52.4074388 134.659004,52.5130816 C134.504233,52.6187245 134.393986,52.7459271 134.321901,52.8925335 C134.251936,53.0391399 134.220134,53.2094621 134.220134,53.3970321 C134.220134,53.7268965 134.31766,53.9834577 134.521195,54.1774956 C134.728969,54.3715335 135.015189,54.4663965 135.377734,54.4663965 C135.458299,54.4663965 135.536745,54.4620845 135.61095,54.4513047 L135.61095,55.3352551 C135.477381,55.3568149 135.341691,55.3675948 135.199641,55.3675948 C134.873139,55.3675948 134.580559,55.3266312 134.31554,55.2382362 C134.054762,55.1541531 133.830027,55.0269504 133.643454,54.8674082 C133.456881,54.7035539 133.312711,54.5008921 133.208824,54.2658907 C133.109177,54.0244213 133.056173,53.7549242 133.056173,53.4573994 C133.056173,53.0995073 133.126138,52.7955146 133.266068,52.5303294 C133.412358,52.2737682 133.613772,52.0538586 133.87879,51.8813805 C134.143808,51.7089023 134.472431,51.5795437 134.856178,51.4954606 C135.089394,51.4437172 135.341691,51.4070656 135.61095,51.3855058 L135.61095,51.3855058 Z M125.750147,57.7866006 L125.750147,56.9048061 L125.817992,56.9048061 C126.161456,56.9048061 126.447675,56.8724665 126.678771,56.8034752 C126.909867,56.7366399 127.09644,56.6482449 127.242731,56.5339781 C127.38266,56.4218673 127.482307,56.2946647 127.543791,56.1523703 C127.605276,56.0036079 127.639198,55.8570015 127.639198,55.6974592 C127.639198,55.4279621 127.52683,55.2209883 127.312695,55.0743819 C127.09644,54.9256195 126.79962,54.8458484 126.430714,54.8372245 L125.750147,54.8135087 L125.750147,53.8907507 L126.66181,53.9274023 C126.969232,53.9360262 127.249091,53.9834577 127.507749,54.0589169 C127.764287,54.1343761 127.986902,54.2443309 128.173475,54.3866254 C128.360048,54.5310758 128.508458,54.7035539 128.612345,54.9148397 C128.720473,55.1196574 128.769236,55.3611268 128.769236,55.6349359 C128.769236,55.9238367 128.711992,56.1976458 128.591144,56.458519 C128.472416,56.7193921 128.290083,56.9479257 128.044146,57.1462755 C127.800329,57.3424694 127.490788,57.4998557 127.109161,57.6162784 C126.727535,57.7262332 126.280184,57.7866006 125.762868,57.7866006 L125.750147,57.7866006 L125.750147,57.7866006 Z M125.750147,52.9809286 L125.750147,52.0926662 L125.754387,52.0926662 C125.983363,52.0926662 126.178417,52.0581706 126.339548,51.9827114 C126.504919,51.9115641 126.640609,51.8102332 126.748736,51.6830306 C126.856864,51.557984 126.935309,51.4092216 126.988313,51.2367434 C127.039196,51.0728892 127.068879,50.9004111 127.068879,50.7149971 C127.068879,50.2902697 126.95227,49.9539373 126.719054,49.7124679 C126.492199,49.4774665 126.169936,49.3545758 125.750147,49.3545758 L125.750147,48.4749373 L125.754387,48.4749373 C125.94096,48.4749373 126.119053,48.4835612 126.280184,48.505121 C126.443435,48.5266808 126.596086,48.5547085 126.736015,48.593516 L128.608105,48.593516 C128.68231,48.593516 128.741674,48.6301676 128.781957,48.7077828 C128.82012,48.783242 128.839201,48.9039767 128.839201,49.061363 C128.839201,49.2252172 128.82012,49.3416399 128.773477,49.4149431 C128.733194,49.4860904 128.67383,49.522742 128.608105,49.522742 L127.721884,49.522742 C127.878775,49.6887522 127.991142,49.8741662 128.056867,50.074672 C128.120471,50.2773338 128.152274,50.4929315 128.152274,50.7106851 C128.152274,51.0728892 128.09503,51.3941297 127.978421,51.6765627 C127.866054,51.9525277 127.704923,52.1896851 127.490788,52.383723 C127.278773,52.575605 127.026476,52.7243673 126.731775,52.8256983 C126.439195,52.9270292 126.110572,52.9809286 125.754387,52.9809286 L125.750147,52.9809286 L125.750147,52.9809286 Z M125.750147,48.4749373 L125.750147,49.3545758 L125.735306,49.3545758 C125.514811,49.3545758 125.323998,49.3933834 125.162867,49.4645306 C124.997495,49.5399898 124.863926,49.6413207 124.757918,49.7728353 C124.649791,49.9021939 124.571346,50.0552682 124.516222,50.2234344 C124.463218,50.3959125 124.433536,50.5727026 124.433536,50.7581166 C124.433536,51.1742201 124.554384,51.4976166 124.78124,51.7347741 C125.014456,51.9740875 125.336719,52.0926662 125.750147,52.0926662 L125.750147,52.9809286 C125.50209,52.9809286 125.262513,52.9464329 125.039898,52.8752857 C124.810922,52.8127624 124.63283,52.7243673 124.514102,52.6230364 C124.429296,52.7071195 124.363571,52.7998265 124.310568,52.9097813 C124.255444,53.0154242 124.232122,53.1404708 124.232122,53.2806093 C124.232122,53.4444636 124.306327,53.5781341 124.454737,53.683777 C124.603148,53.7937318 124.802442,53.8519431 125.046258,53.8605671 L125.750147,53.8907507 L125.750147,54.8135087 L124.827883,54.7833251 C124.683713,54.8975918 124.562865,55.0097026 124.467458,55.1153455 C124.376292,55.2209883 124.297847,55.3180073 124.244843,55.4150262 C124.189719,55.5120452 124.153677,55.6047522 124.132475,55.6974592 C124.111274,55.7901662 124.098553,55.8871851 124.098553,55.9842041 C124.098553,56.2860408 124.251203,56.5188863 124.554384,56.6698047 C124.844845,56.820723 125.241312,56.8961822 125.750147,56.9048061 L125.750147,57.7866006 C125.258273,57.7866006 124.836364,57.7391691 124.48866,57.655086 C124.136715,57.5710029 123.850496,57.4524242 123.62576,57.3015058 C123.403145,57.1548994 123.237773,56.9781093 123.138126,56.7711356 C123.038479,56.5598499 122.985476,56.3377843 122.985476,56.0920029 C122.985476,55.9410845 123.006677,55.7901662 123.04272,55.6500277 C123.076642,55.5034213 123.133886,55.3675948 123.208091,55.2382362 C123.286537,55.1024096 123.381943,54.9816749 123.494311,54.8630962 C123.602438,54.7402055 123.733888,54.6280948 123.880178,54.509516 C123.655442,54.3909373 123.490071,54.2486429 123.381943,54.0718528 C123.273816,53.8950627 123.220812,53.7010248 123.220812,53.494051 C123.220812,53.2116181 123.278056,52.9593688 123.390424,52.7373032 C123.507032,52.5087697 123.651202,52.3104198 123.816573,52.1336297 C123.676644,51.9611516 123.564276,51.7671137 123.48159,51.553672 C123.398904,51.3337624 123.358622,51.0728892 123.358622,50.7667405 C123.358622,50.4088484 123.420106,50.0832959 123.536714,49.800863 C123.655442,49.520586 123.820814,49.2791166 124.032828,49.0807668 C124.240603,48.8888848 124.4929,48.7358105 124.789721,48.6301676 C125.084421,48.5266808 125.406683,48.4749373 125.750147,48.4749373 L125.750147,48.4749373 Z M108.135968,55.343879 L108.135968,54.3780015 C108.235614,54.3672216 108.331021,54.3499738 108.422187,54.3197901 C108.562117,54.2788265 108.706287,54.2055233 108.852577,54.1085044 C108.996747,54.0136414 109.153638,53.8864388 109.312649,53.7312085 C109.47378,53.5738222 109.643392,53.3840962 109.821484,53.1534067 L109.821484,50.6395379 C109.514063,50.2514621 109.217242,49.9582493 108.931023,49.7555875 C108.674485,49.5744854 108.409466,49.4731545 108.135968,49.4559067 L108.135968,48.4663134 C108.422187,48.4921851 108.687206,48.5676443 108.931023,48.6991589 C109.227843,48.8630131 109.526784,49.0980146 109.821484,49.4106312 L109.821484,45.7540948 C109.821484,45.7260671 109.829965,45.6915714 109.844806,45.6613878 C109.861767,45.6333601 109.891449,45.6074883 109.935972,45.5945525 C109.982615,45.5773047 110.039859,45.5622128 110.109824,45.549277 C110.181909,45.5406531 110.273076,45.5320292 110.383323,45.5320292 C110.499931,45.5320292 110.591098,45.5406531 110.665303,45.549277 C110.735268,45.5622128 110.798872,45.5773047 110.834914,45.5945525 C110.877317,45.6074883 110.91124,45.6333601 110.930321,45.6613878 C110.951523,45.6915714 110.960003,45.7260671 110.960003,45.7540948 L110.960003,55.0614461 C110.960003,55.0980977 110.955763,55.1325933 110.938802,55.158465 C110.92184,55.1864927 110.894279,55.2080525 110.856116,55.2253003 C110.815833,55.2425481 110.76495,55.255484 110.699225,55.2641079 C110.6335,55.2748878 110.557175,55.2791997 110.466009,55.2791997 C110.372722,55.2791997 110.290037,55.2748878 110.226432,55.2641079 C110.160708,55.255484 110.109824,55.2425481 110.065301,55.2253003 C110.027138,55.2080525 109.995336,55.1864927 109.978375,55.158465 C109.957174,55.1325933 109.948693,55.0980977 109.948693,55.0614461 L109.948693,54.231395 C109.626431,54.5892872 109.287207,54.8674082 108.939503,55.07007 C108.687206,55.2123644 108.417947,55.3050714 108.135968,55.343879 L108.135968,55.343879 Z M114.188987,55.0614461 C114.188987,55.0980977 114.180506,55.1325933 114.161425,55.1541531 C114.144464,55.1821808 114.110541,55.2037405 114.074499,55.2209883 C114.027856,55.2425481 113.974852,55.255484 113.900647,55.2641079 C113.824321,55.2748878 113.731035,55.2791997 113.618667,55.2791997 C113.51054,55.2791997 113.419373,55.2748878 113.340928,55.2641079 C113.270963,55.255484 113.211599,55.2425481 113.167076,55.2209883 C113.124673,55.2037405 113.092871,55.1821808 113.08015,55.1541531 C113.063189,55.1325933 113.054708,55.0980977 113.054708,55.0614461 L113.054708,48.7746181 C113.054708,48.7401224 113.063189,48.7120948 113.08015,48.6819111 C113.092871,48.6560394 113.124673,48.6301676 113.167076,48.6150758 C113.211599,48.597828 113.270963,48.5805802 113.340928,48.5719563 C113.419373,48.5633324 113.51054,48.5590204 113.618667,48.5590204 C113.731035,48.5590204 113.824321,48.5633324 113.900647,48.5719563 C113.974852,48.5805802 114.027856,48.597828 114.074499,48.6150758 C114.110541,48.6301676 114.144464,48.6560394 114.161425,48.6819111 C114.180506,48.7120948 114.188987,48.7401224 114.188987,48.7746181 L114.188987,55.0614461 L114.188987,55.0614461 Z M114.318316,46.6466691 C114.318316,46.9204781 114.267432,47.1058921 114.169905,47.2029111 C114.066018,47.29993 113.883686,47.3473615 113.614427,47.3473615 C113.345168,47.3473615 113.162836,47.29993 113.067429,47.2029111 C112.967782,47.1102041 112.919019,46.929102 112.919019,46.6639169 C112.919019,46.3944198 112.967782,46.2090058 113.067429,46.1119869 C113.167076,46.0171239 113.353649,45.9653805 113.622907,45.9653805 C113.892166,45.9653805 114.074499,46.012812 114.169905,46.1076749 C114.267432,46.2046939 114.318316,46.3857959 114.318316,46.6466691 L114.318316,46.6466691 Z M121.60526,55.0614461 C121.60526,55.0980977 121.59678,55.1325933 121.581939,55.1541531 C121.560737,55.1821808 121.531055,55.2037405 121.490772,55.2209883 C121.448369,55.2425481 121.391125,55.255484 121.321161,55.2641079 C121.244835,55.2748878 121.153669,55.2791997 121.047662,55.2791997 C120.931054,55.2791997 120.835647,55.2748878 120.761442,55.2641079 C120.691477,55.255484 120.632113,55.2425481 120.59183,55.2209883 C120.549427,55.2037405 120.521865,55.1821808 120.500664,55.1541531 C120.483703,55.1325933 120.470982,55.0980977 120.470982,55.0614461 L120.470982,51.3811939 C120.470982,51.0189898 120.44554,50.7322449 120.392536,50.5123353 C120.339533,50.2945816 120.256847,50.1091676 120.15296,49.9496254 C120.044832,49.7900831 119.913383,49.6671924 119.743771,49.5874213 C119.57628,49.5033382 119.383346,49.4602187 119.162851,49.4602187 C118.880872,49.4602187 118.594652,49.5615496 118.310552,49.7685233 C118.024332,49.9711851 117.725392,50.2730219 117.42009,50.6697216 L117.42009,55.0614461 C117.42009,55.0980977 117.40737,55.1325933 117.390408,55.1541531 C117.369207,55.1821808 117.341645,55.2037405 117.299242,55.2209883 C117.258959,55.2425481 117.199595,55.255484 117.12963,55.2641079 C117.055425,55.2748878 116.960019,55.2791997 116.84341,55.2791997 C116.735283,55.2791997 116.646237,55.2748878 116.569912,55.2641079 C116.499947,55.255484 116.438462,55.2425481 116.396059,55.2209883 C116.355777,55.2037405 116.321854,55.1821808 116.309133,55.1541531 C116.294292,55.1325933 116.285812,55.0980977 116.285812,55.0614461 L116.285812,48.7746181 C116.285812,48.7358105 116.290052,48.7077828 116.304893,48.6775991 C116.317614,48.6560394 116.347296,48.6301676 116.387579,48.6107638 C116.429982,48.5892041 116.478745,48.5762682 116.54659,48.5676443 C116.608074,48.5633324 116.695,48.5590204 116.798887,48.5590204 C116.898534,48.5590204 116.98546,48.5633324 117.051185,48.5676443 C117.116909,48.5762682 117.167793,48.5892041 117.203835,48.6107638 C117.241998,48.6301676 117.26532,48.6560394 117.282281,48.6775991 C117.299242,48.7077828 117.307723,48.7358105 117.307723,48.7746181 L117.307723,49.608981 C117.655427,49.2122813 118.003131,48.9212245 118.350835,48.7358105 C118.694299,48.5503965 119.042003,48.4576895 119.393947,48.4576895 C119.809496,48.4576895 120.15296,48.5309927 120.434939,48.6732872 C120.714799,48.8155816 120.948015,49.0053076 121.121867,49.242465 C121.295719,49.4817784 121.420807,49.7598994 121.495013,50.074672 C121.569218,50.3959125 121.60526,50.7796764 121.60526,51.2259636 L121.60526,55.0614461 L121.60526,55.0614461 Z M108.135968,48.4663134 L108.135968,49.4559067 L108.036321,49.4515948 C107.745861,49.4515948 107.497803,49.522742 107.29851,49.6628805 C107.101336,49.800863 106.935964,49.986277 106.806636,50.2148105 C106.681547,50.441188 106.590381,50.7020612 106.533137,50.9888061 C106.475893,51.279863 106.446211,51.5709198 106.446211,51.8684446 C106.446211,52.1853732 106.471652,52.4958338 106.520416,52.7998265 C106.567059,53.0995073 106.653985,53.3690044 106.768473,53.6040058 C106.889321,53.8390073 107.046212,54.0287332 107.245506,54.1688717 C107.440559,54.3111662 107.688617,54.3823134 107.987557,54.3823134 C108.036321,54.3823134 108.085084,54.3823134 108.135968,54.3780015 L108.135968,55.343879 C108.019359,55.3611268 107.906992,55.3675948 107.788263,55.3675948 C107.332432,55.3675948 106.946565,55.2791997 106.624303,55.0980977 C106.306281,54.9213076 106.045503,54.6776822 105.846209,54.3715335 C105.646915,54.0675408 105.502745,53.7096487 105.411579,53.2978571 C105.320413,52.8839096 105.273769,52.4505583 105.273769,51.9956472 C105.273769,51.4523411 105.333133,50.9629344 105.443381,50.5295831 C105.559989,50.0962318 105.729601,49.7210918 105.954336,49.4192551 C106.176952,49.1109504 106.454691,48.875949 106.785434,48.7077828 C107.120417,48.5417726 107.502044,48.4576895 107.936674,48.4576895 C108.002398,48.4576895 108.070243,48.4620015 108.135968,48.4663134 L108.135968,48.4663134 Z M93.6723261,55.3352551 L93.6723261,54.4513047 C93.8822206,54.421121 94.0772741,54.3499738 94.2680873,54.235707 C94.5203848,54.0847886 94.7854031,53.8476312 95.0673827,53.5328586 L95.0673827,52.198309 L94.0984756,52.198309 C93.9437048,52.198309 93.8037752,52.202621 93.6723261,52.2155569 L93.6723261,51.3855058 C93.8461781,51.37257 94.0285107,51.3639461 94.2129635,51.3639461 L95.0673827,51.3639461 L95.0673827,50.8745394 C95.0673827,50.6352259 95.0377006,50.4196283 94.9931775,50.2363703 C94.9380537,50.0466443 94.8596083,49.89357 94.7472405,49.7728353 C94.6327526,49.6456327 94.4864624,49.5529257 94.3083701,49.4904023 C94.1345181,49.432191 93.9246235,49.3976953 93.6723261,49.3976953 L93.6723261,48.4576895 L93.7550118,48.4576895 C94.1981225,48.4576895 94.5733884,48.5137449 94.8892903,48.6150758 C95.1988318,48.7142507 95.4511292,48.8673251 95.6419424,49.0656749 C95.8327556,49.2618688 95.9748055,49.5076501 96.0617315,49.800863 C96.1486575,50.0962318 96.1931806,50.4368761 96.1931806,50.8292638 L96.1931806,55.07007 C96.1931806,55.1239694 96.1762194,55.1670889 96.1359366,55.1908047 C96.1020143,55.2209883 96.0490106,55.2425481 95.9854062,55.2597959 C95.9196817,55.2705758 95.8285154,55.2791997 95.7055468,55.2791997 C95.5846985,55.2791997 95.4892919,55.2705758 95.419327,55.2597959 C95.3493622,55.2425481 95.2984787,55.2209883 95.2666765,55.1908047 C95.2327541,55.1670889 95.2157929,55.1239694 95.2157929,55.07007 L95.2157929,54.4383688 C94.9465343,54.7315816 94.6454734,54.9601152 94.3126104,55.1239694 C94.1069562,55.2253003 93.8949415,55.2964475 93.6723261,55.3352551 L93.6723261,55.3352551 Z M103.596733,55.0614461 C103.596733,55.0980977 103.588253,55.1325933 103.569171,55.1541531 C103.55221,55.1821808 103.522528,55.2037405 103.482245,55.2209883 C103.439842,55.2425481 103.382598,55.255484 103.310513,55.2641079 C103.236308,55.2748878 103.140902,55.2791997 103.034894,55.2791997 C102.922527,55.2791997 102.82712,55.2748878 102.752915,55.2641079 C102.67871,55.255484 102.623586,55.2425481 102.583303,55.2209883 C102.5409,55.2037405 102.513338,55.1821808 102.492137,55.1541531 C102.475176,55.1325933 102.462455,55.0980977 102.462455,55.0614461 L102.462455,51.3811939 C102.462455,51.0189898 102.437013,50.7322449 102.379769,50.5123353 C102.326765,50.2945816 102.24832,50.1091676 102.144433,49.9496254 C102.036305,49.7900831 101.898496,49.6671924 101.733124,49.5874213 C101.563512,49.5033382 101.372699,49.4602187 101.154324,49.4602187 C100.868104,49.4602187 100.586125,49.5615496 100.302025,49.7685233 C100.015805,49.9711851 99.7168646,50.2730219 99.4073232,50.6697216 L99.4073232,55.0614461 C99.4073232,55.0980977 99.3988426,55.1325933 99.3818814,55.1541531 C99.3606799,55.1821808 99.333118,55.2037405 99.2907151,55.2209883 C99.2483121,55.2425481 99.1910682,55.255484 99.1211033,55.2641079 C99.0468982,55.2748878 98.9514916,55.2791997 98.8348835,55.2791997 C98.726756,55.2791997 98.6355897,55.2748878 98.5613846,55.2641079 C98.4871794,55.255484 98.4299355,55.2425481 98.3875325,55.2209883 C98.3430095,55.2037405 98.3133274,55.1821808 98.3006065,55.1541531 C98.2836454,55.1325933 98.2730446,55.0980977 98.2730446,55.0614461 L98.2730446,48.7746181 C98.2730446,48.7358105 98.2794051,48.7077828 98.2921259,48.6775991 C98.3090871,48.6560394 98.3387692,48.6301676 98.3748117,48.6107638 C98.4172146,48.5892041 98.4702183,48.5762682 98.538063,48.5676443 C98.5995472,48.5633324 98.682233,48.5590204 98.7903604,48.5590204 C98.8900073,48.5590204 98.9769334,48.5633324 99.0426579,48.5676443 C99.1041422,48.5762682 99.159266,48.5892041 99.1953085,48.6107638 C99.2292308,48.6301676 99.2567927,48.6560394 99.2737539,48.6775991 C99.2864748,48.7077828 99.2991957,48.7358105 99.2991957,48.7746181 L99.2991957,49.608981 C99.6426595,49.2122813 99.9903635,48.9212245 100.338068,48.7358105 C100.681531,48.5503965 101.033476,48.4576895 101.38542,48.4576895 C101.796729,48.4576895 102.144433,48.5309927 102.424292,48.6732872 C102.706272,48.8155816 102.939488,49.0053076 103.11334,49.242465 C103.282952,49.4817784 103.40592,49.7598994 103.482245,50.074672 C103.560691,50.3959125 103.596733,50.7796764 103.596733,51.2259636 L103.596733,55.0614461 L103.596733,55.0614461 Z M85.2150605,51.831793 C85.2150605,52.3794111 85.1578165,52.8666618 85.0369681,53.3043251 C84.9267205,53.7441443 84.7528685,54.1085044 84.5238926,54.416809 C84.3012772,54.7251137 84.0192977,54.9601152 83.6927951,55.1239694 C83.359932,55.2835117 82.984666,55.3675948 82.5563964,55.3675948 C82.4821912,55.3675948 82.4079861,55.3675948 82.3422615,55.3611268 L82.3422615,54.3736895 L82.4376681,54.3780015 C82.7260081,54.3780015 82.9677048,54.3068542 83.1712389,54.1688717 C83.3684126,54.0244213 83.533784,53.8433192 83.6588727,53.6126297 C83.7839614,53.3819402 83.8772478,53.123223 83.9366119,52.8386341 C83.9896156,52.5518892 84.0192977,52.2608324 84.0192977,51.9654636 C84.0192977,51.646379 83.9938559,51.3337624 83.9493328,51.0319257 C83.8984493,50.7279329 83.8157636,50.4584359 83.6991555,50.2277464 C83.5804273,49.9949009 83.4192961,49.8051749 83.2242426,49.6671924 C83.0249488,49.522742 82.7811319,49.4515948 82.4864315,49.4515948 C82.4376681,49.4515948 82.3867846,49.4515948 82.3422615,49.4602187 L82.3422615,48.4878732 C82.4631099,48.4706254 82.5860784,48.4576895 82.7154074,48.4576895 C83.1627584,48.4576895 83.5465049,48.5503965 83.8666471,48.7314985 C84.1846691,48.9126006 84.4412069,49.1583819 84.6405007,49.4645306 C84.8397945,49.7685233 84.9839645,50.1264155 85.0751308,50.533895 C85.1705374,50.9435306 85.2150605,51.3768819 85.2150605,51.831793 L85.2150605,51.831793 Z M93.6723261,48.4576895 L93.6723261,49.3976953 L93.6511246,49.3976953 C93.3691451,49.3976953 93.1210879,49.432191 92.9005926,49.4990262 C92.6779772,49.5658615 92.4829237,49.6413207 92.313312,49.7210918 C92.1479405,49.800863 92.0058907,49.8784781 91.895643,49.9453134 C91.7832753,50.0121487 91.7005895,50.0466443 91.6475859,50.0466443 C91.6094232,50.0466443 91.5755009,50.0380204 91.547939,50.0207726 C91.5182569,49.9992128 91.4970554,49.9711851 91.475854,49.9323776 C91.4567726,49.8978819 91.4398115,49.8482945 91.4313309,49.7900831 C91.4228503,49.7340277 91.4143697,49.6671924 91.4143697,49.6003571 C91.4143697,49.4817784 91.4270906,49.3890714 91.4440518,49.3222362 C91.4610129,49.2554009 91.4970554,49.1907216 91.5585397,49.1281983 C91.6221441,49.0699869 91.7260313,48.9966837 91.8786819,48.9169125 C92.0270921,48.8371414 92.2009442,48.7616822 92.400238,48.6948469 C92.5952915,48.6258557 92.8094263,48.5719563 93.0468828,48.5266808 C93.252537,48.4878732 93.4603114,48.4620015 93.6723261,48.4576895 L93.6723261,48.4576895 Z M93.6723261,51.3855058 L93.6723261,52.2155569 C93.5302762,52.2263367 93.4030674,52.2478965 93.2864593,52.2780802 C93.0596036,52.3319796 92.8687904,52.4074388 92.7140197,52.5130816 C92.5656094,52.6187245 92.4532416,52.7459271 92.3832768,52.8925335 C92.313312,53.0391399 92.2751493,53.2094621 92.2751493,53.3970321 C92.2751493,53.7268965 92.3790365,53.9834577 92.5825706,54.1774956 C92.7861047,54.3715335 93.0702044,54.4663965 93.4391099,54.4663965 C93.5175553,54.4663965 93.5960008,54.4620845 93.6723261,54.4513047 L93.6723261,55.3352551 C93.5387568,55.3568149 93.3988271,55.3675948 93.2610176,55.3675948 C92.934515,55.3675948 92.6398146,55.3266312 92.3747962,55.2382362 C92.1140182,55.1541531 91.8871624,55.0269504 91.7048298,54.8674082 C91.5182569,54.7035539 91.3740869,54.5008921 91.2701997,54.2658907 C91.1705528,54.0244213 91.1175492,53.7549242 91.1175492,53.4573994 C91.1175492,53.0995073 91.187514,52.7955146 91.3274437,52.5303294 C91.4716137,52.2737682 91.6751478,52.0538586 91.9401661,51.8813805 C92.2051845,51.7089023 92.5316871,51.5795437 92.9133135,51.4954606 C93.1486498,51.4437172 93.4030674,51.4070656 93.6723261,51.3855058 L93.6723261,51.3855058 Z M90.5323886,49.1864096 C90.5323886,49.2877405 90.5281483,49.3761356 90.5239081,49.4429708 C90.5196678,49.5162741 90.5069469,49.5701735 90.5005864,49.608981 C90.4836253,49.6499446 90.4666641,49.6801283 90.4454626,49.701688 C90.4242612,49.7210918 90.3966992,49.7297157 90.3585366,49.7297157 C90.3224941,49.7297157 90.2758509,49.7210918 90.2270875,49.701688 C90.1719637,49.6801283 90.1147197,49.6585685 90.0489952,49.6370087 C89.9769102,49.615449 89.9069453,49.5960452 89.8242596,49.5787974 C89.7415739,49.5572376 89.6504076,49.5486137 89.555001,49.5486137 C89.4383929,49.5486137 89.3323856,49.5744854 89.2200178,49.6197609 C89.10765,49.6671924 88.9931621,49.7426516 88.8723137,49.8482945 C88.7514653,49.9582493 88.6242565,50.1005437 88.4906873,50.2773338 C88.3592382,50.4541239 88.212948,50.6697216 88.0518169,50.9262828 L88.0518169,55.0614461 C88.0518169,55.0980977 88.0433363,55.1325933 88.024255,55.1541531 C88.0072938,55.1821808 87.9733715,55.2037405 87.937329,55.2209883 C87.894926,55.2425481 87.8376821,55.255484 87.7613568,55.2641079 C87.6871516,55.2748878 87.5959853,55.2791997 87.4814974,55.2791997 C87.3733699,55.2791997 87.2822036,55.2748878 87.2079985,55.2641079 C87.1337933,55.255484 87.0744292,55.2425481 87.0341464,55.2209883 C86.9875032,55.2037405 86.9599413,55.1821808 86.9429801,55.1541531 C86.9260189,55.1325933 86.9175383,55.0980977 86.9175383,55.0614461 L86.9175383,48.7746181 C86.9175383,48.7358105 86.9260189,48.7077828 86.9387398,48.6775991 C86.9514607,48.6560394 86.9790226,48.6301676 87.0214255,48.6107638 C87.0617083,48.5892041 87.1125918,48.5762682 87.1783164,48.5676443 C87.244041,48.5633324 87.3267267,48.5590204 87.4348542,48.5590204 C87.5345011,48.5590204 87.6171868,48.5633324 87.6829113,48.5676443 C87.750756,48.5762682 87.8037597,48.5892041 87.8419223,48.6107638 C87.8737246,48.6301676 87.9034066,48.6560394 87.9203678,48.6775991 C87.9330887,48.7077828 87.9415692,48.7358105 87.9415692,48.7746181 L87.9415692,49.6887522 C88.111181,49.4343469 88.2723121,49.2338411 88.4164821,49.0721429 C88.5691327,48.9169125 88.7111825,48.7918659 88.8426316,48.6991589 C88.9762009,48.6107638 89.1034097,48.5460845 89.2369789,48.5137449 C89.368428,48.4792493 89.497757,48.4576895 89.6292061,48.4576895 C89.6928105,48.4576895 89.7585351,48.4620015 89.8327402,48.4706254 C89.9069453,48.4792493 89.9896311,48.4921851 90.0723168,48.5094329 C90.1507622,48.5309927 90.2270875,48.5460845 90.2928121,48.5719563 C90.3627769,48.597828 90.4094201,48.6193878 90.4327417,48.6387915 C90.4624238,48.6646633 90.4836253,48.686223 90.4921059,48.7077828 C90.5005864,48.7271866 90.5069469,48.7530583 90.5154275,48.7875539 C90.5196678,48.8198936 90.5239081,48.871637 90.5281483,48.9298484 C90.5323886,48.9923717 90.5323886,49.0807668 90.5323886,49.1864096 L90.5323886,49.1864096 Z M82.3422615,55.3611268 C82.2256535,55.3525029 82.1132857,55.3352551 82.0115186,55.3093834 C81.844027,55.2684198 81.6786556,55.2037405 81.5217647,55.1153455 C81.3606336,55.0269504 81.1995024,54.9169956 81.0383713,54.7833251 C80.87512,54.6474985 80.7097485,54.4836443 80.5316562,54.2896064 L80.5316562,55.0614461 C80.5316562,55.0980977 80.5189353,55.1325933 80.5040943,55.158465 C80.4828928,55.1864927 80.4532107,55.2080525 80.412928,55.2253003 C80.3747653,55.2425481 80.3217616,55.255484 80.2581572,55.2641079 C80.196673,55.2748878 80.1182275,55.2791997 80.0228209,55.2791997 C79.9316546,55.2791997 79.8532092,55.2748878 79.7917249,55.2641079 C79.7238802,55.255484 79.6708766,55.2425481 79.6305938,55.2253003 C79.5924311,55.2080525 79.5627491,55.1864927 79.5457879,55.158465 C79.5351872,55.1325933 79.5267066,55.0980977 79.5267066,55.0614461 L79.5267066,45.730379 C79.5267066,45.6915714 79.5351872,45.6592318 79.5500282,45.6333601 C79.5669894,45.6031764 79.5966714,45.5773047 79.6411945,45.5622128 C79.6835975,45.544965 79.7408414,45.5277172 79.8150466,45.5190933 C79.8913718,45.5104694 79.9825381,45.5061574 80.0885455,45.5061574 C80.2051536,45.5061574 80.2963199,45.5104694 80.3747653,45.5190933 C80.4447302,45.5277172 80.5040943,45.544965 80.5443771,45.5622128 C80.58678,45.5773047 80.6143419,45.6031764 80.6313031,45.6333601 C80.6525045,45.6592318 80.6609851,45.6915714 80.6609851,45.730379 L80.6609851,49.4947143 C80.8433178,49.3049883 81.0214101,49.1411341 81.1952621,49.0139315 C81.3648739,48.8802609 81.5344856,48.77893 81.6998571,48.6948469 C81.8609882,48.6107638 82.0263597,48.5503965 82.1938513,48.5180569 L82.3422615,48.4878732 L82.3422615,49.4602187 C82.2426146,49.4688426 82.1514483,49.4860904 82.0560417,49.5162741 C81.916112,49.5572376 81.7698219,49.6240729 81.6256519,49.7210918 C81.4772416,49.8224227 81.3224709,49.9496254 81.1655801,50.1005437 C81.0086892,50.2557741 80.8390775,50.4455 80.6609851,50.6826574 L80.6609851,53.1922143 C80.9705266,53.5738222 81.2694673,53.869191 81.5556871,54.0718528 C81.8079845,54.2529548 82.0730029,54.3542857 82.3422615,54.3736895 L82.3422615,55.3611268 L82.3422615,55.3611268 Z" id="Fill-7" fill="#FFFFFF"></path>
                            <path d="M159.044933,55.0614461 C159.044933,55.0980977 159.032212,55.1325933 159.015251,55.1541531 C158.994049,55.1821808 158.968607,55.2037405 158.924084,55.2209883 C158.881681,55.2425481 158.824437,55.255484 158.754472,55.2641079 C158.680267,55.2748878 158.589101,55.2791997 158.480974,55.2791997 C158.364365,55.2791997 158.268959,55.2748878 158.194754,55.2641079 C158.124789,55.255484 158.067545,55.2425481 158.025142,55.2209883 C157.984859,55.2037405 157.955177,55.1821808 157.933976,55.1541531 C157.917014,55.1325933 157.908534,55.0980977 157.908534,55.0614461 L157.908534,51.3811939 C157.908534,51.0189898 157.880972,50.7322449 157.825848,50.5123353 C157.772845,50.2945816 157.690159,50.1091676 157.586272,49.9496254 C157.478144,49.7900831 157.346695,49.6671924 157.177083,49.5874213 C157.011712,49.5033382 156.816658,49.4602187 156.596163,49.4602187 C156.312063,49.4602187 156.030084,49.5615496 155.743864,49.7685233 C155.457644,49.9711851 155.165064,50.2730219 154.853402,50.6697216 L154.853402,55.0614461 C154.853402,55.0980977 154.840681,55.1325933 154.82372,55.1541531 C154.808879,55.1821808 154.774957,55.2037405 154.736794,55.2209883 C154.692271,55.2425481 154.639268,55.255484 154.562942,55.2641079 C154.488737,55.2748878 154.393331,55.2791997 154.278843,55.2791997 C154.174955,55.2791997 154.079549,55.2748878 154.005344,55.2641079 C153.933259,55.255484 153.876015,55.2425481 153.831492,55.2209883 C153.789089,55.2037405 153.755166,55.1821808 153.744566,55.1541531 C153.727604,55.1325933 153.719124,55.0980977 153.719124,55.0614461 L153.719124,48.7746181 C153.719124,48.7358105 153.723364,48.7077828 153.740325,48.6775991 C153.750926,48.6560394 153.780608,48.6301676 153.823011,48.6107638 C153.863294,48.5892041 153.914177,48.5762682 153.979902,48.5676443 C154.041386,48.5633324 154.128312,48.5590204 154.232199,48.5590204 C154.336087,48.5590204 154.418772,48.5633324 154.484497,48.5676443 C154.550221,48.5762682 154.601105,48.5892041 154.639268,48.6107638 C154.67531,48.6301676 154.704992,48.6560394 154.717713,48.6775991 C154.732554,48.7077828 154.741035,48.7358105 154.741035,48.7746181 L154.741035,49.608981 C155.088739,49.2122813 155.436443,48.9212245 155.786267,48.7358105 C156.129731,48.5503965 156.477435,48.4576895 156.829379,48.4576895 C157.242808,48.4576895 157.586272,48.5309927 157.868251,48.6732872 C158.150231,48.8155816 158.381327,49.0053076 158.555179,49.242465 C158.729031,49.4817784 158.854119,49.7598994 158.928325,50.074672 C159.00677,50.3959125 159.044933,50.7796764 159.044933,51.2259636 L159.044933,55.0614461 L159.044933,55.0614461 Z M165.553783,54.1020364 C165.553783,54.1861195 165.549543,54.2529548 165.545303,54.3111662 C165.541062,54.3672216 165.532582,54.416809 165.524101,54.4556166 C165.51138,54.4965802 165.496539,54.5353878 165.479578,54.5591035 C165.462617,54.5935991 165.428695,54.6367187 165.371451,54.69493 C165.314207,54.7531414 165.21456,54.8264446 165.080991,54.9148397 C164.941061,54.9989227 164.78841,55.0743819 164.614558,55.1412172 C164.442826,55.2080525 164.258374,55.2641079 164.054839,55.3050714 C163.851305,55.348191 163.643531,55.3675948 163.429396,55.3675948 C162.986285,55.3675948 162.591938,55.2921356 162.248474,55.1455292 C161.905011,54.9946108 161.618791,54.7790131 161.387695,54.4922682 C161.156599,54.2055233 160.978506,53.8519431 160.857658,53.4401516 C160.73681,53.0197362 160.675325,52.5389534 160.675325,51.9956472 C160.675325,51.3768819 160.749531,50.8421997 160.900061,50.4002245 C161.048471,49.9539373 161.252005,49.5917332 161.512783,49.3049883 C161.769321,49.0225554 162.074622,48.8069577 162.422326,48.6732872 C162.774271,48.5331487 163.151657,48.4663134 163.560845,48.4663134 C163.755899,48.4663134 163.950952,48.4878732 164.133285,48.5266808 C164.319858,48.5590204 164.48947,48.6107638 164.64636,48.6689752 C164.799011,48.7271866 164.941061,48.8004898 165.061909,48.8802609 C165.180637,48.9600321 165.271804,49.0225554 165.326928,49.0807668 C165.384172,49.1368222 165.420214,49.1820977 165.437175,49.2165933 C165.458377,49.246777 165.479578,49.2834286 165.492299,49.3308601 C165.5029,49.3761356 165.51138,49.4235671 165.515621,49.4817784 C165.524101,49.5356778 165.524101,49.608981 165.524101,49.6887522 C165.524101,49.8698542 165.5029,49.9949009 165.462617,50.0660481 C165.420214,50.1436633 165.371451,50.1803149 165.314207,50.1803149 C165.242122,50.1803149 165.163676,50.1393513 165.07675,50.0638921 C164.985584,49.986277 164.875336,49.9021939 164.733286,49.8094869 C164.601837,49.7167799 164.432226,49.6283848 164.237172,49.5529257 C164.042119,49.4774665 163.815263,49.4343469 163.546004,49.4343469 C163.003247,49.4343469 162.583458,49.6499446 162.295118,50.074672 C162.004658,50.5015554 161.860488,51.1203207 161.860488,51.9331239 C161.860488,52.3362915 161.89653,52.6898717 161.970735,52.9981764 C162.04706,53.3000131 162.157308,53.5587303 162.303598,53.7635481 C162.452008,53.9662099 162.630101,54.1214402 162.842116,54.2184592 C163.05625,54.3197901 163.300067,54.3715335 163.573566,54.3715335 C163.834344,54.3715335 164.06332,54.328414 164.262614,54.2443309 C164.455547,54.1602478 164.629399,54.0675408 164.771449,53.9662099 C164.915619,53.864879 165.040708,53.776484 165.140355,53.6967128 C165.240002,53.6169417 165.314207,53.5738222 165.36721,53.5738222 C165.401133,53.5738222 165.424454,53.5824461 165.449896,53.5996939 C165.475338,53.6212536 165.492299,53.6514373 165.50714,53.6967128 C165.524101,53.7441443 165.536822,53.7937318 165.541062,53.8605671 C165.549543,53.9317143 165.553783,54.0093294 165.553783,54.1020364 L165.553783,54.1020364 Z M169.872522,55.2382362 L169.047785,57.5494431 C169.020223,57.6205904 168.948138,57.6809577 168.842131,57.7219213 C168.729763,57.7607289 168.555911,57.7779767 168.326935,57.7779767 C168.208207,57.7779767 168.1128,57.7736647 168.038595,57.7607289 C167.96863,57.747793 167.909266,57.7305452 167.868984,57.7003615 C167.830821,57.6723338 167.809619,57.6378382 167.805379,57.5882507 C167.801139,57.5451312 167.81386,57.4869198 167.839302,57.4243965 L168.691601,55.2382362 C168.651318,55.2166764 168.608915,55.1864927 168.577113,55.1455292 C168.53895,55.1024096 168.513508,55.0614461 168.498667,55.0097026 L166.295835,49.0053076 C166.257672,48.9082886 166.240711,48.8285175 166.240711,48.7746181 C166.240711,48.7185627 166.257672,48.6732872 166.295835,48.6387915 C166.331877,48.6107638 166.389121,48.5848921 166.471807,48.5762682 C166.556613,48.5633324 166.66262,48.5590204 166.80467,48.5590204 C166.940359,48.5590204 167.048487,48.5633324 167.126932,48.5676443 C167.205378,48.5762682 167.264742,48.5892041 167.313505,48.6064519 C167.353788,48.6258557 167.38771,48.6517274 167.408912,48.686223 C167.434353,48.7228746 167.453435,48.7703061 167.474636,48.8285175 L169.242839,53.8735029 L169.26404,53.8735029 L170.966518,48.8026458 C170.99408,48.7142507 171.028002,48.6560394 171.066165,48.6301676 C171.102207,48.6064519 171.159451,48.5848921 171.240017,48.5762682 C171.318462,48.5633324 171.42871,48.5590204 171.57924,48.5590204 C171.706449,48.5590204 171.810336,48.5633324 171.893022,48.5762682 C171.975708,48.5848921 172.037192,48.6107638 172.075355,48.6387915 C172.113517,48.6732872 172.132599,48.7185627 172.132599,48.7746181 C172.132599,48.8285175 172.117758,48.8996647 172.092316,48.9837478 L169.872522,55.2382362 L169.872522,55.2382362 Z" id="Fill-8" fill="#FFFFFF"></path>
                            <path d="M55.6941364,36.3734402 L55.7153378,32.2727726 C53.8814109,34.2088397 52.3294634,35.6360962 50.171154,36.2677974 L50.171154,34.4654009 C51.3838779,34.0773251 52.5563191,33.3658528 53.4001375,32.4862143 C54.7718725,31.0632697 55.5796484,29.0431195 55.5796484,26.9022347 L55.5796484,22.6463367 C53.9344145,22.8274388 51.9732787,23.0214767 50.171154,23.5884985 L50.171154,21.8917449 C51.818508,21.5467886 53.6291134,21.2902274 55.5796484,21.0703178 L55.5796484,18.737551 C55.5796484,15.9498732 52.9570268,14.5226166 50.4700946,14.5226166 C50.3662075,14.5226166 50.2708008,14.5226166 50.171154,14.5269286 L50.171154,12.5908615 C50.561261,12.5693017 50.966209,12.5520539 51.3881182,12.5520539 C55.5838887,12.5520539 59.5464431,14.1388528 59.5464431,18.6405321 L59.5464431,30.7140015 L59.5506834,36.3820641 L55.6941364,36.3734402 L55.6941364,36.3734402 Z M50.171154,36.2677974 C49.3591377,36.5071108 48.4601955,36.6386254 47.4298041,36.6386254 C45.1485262,36.6386254 43.4100058,36.1405948 42.2248437,35.1510015 C38.4806645,31.2659315 40.812826,25.6064927 44.5570052,23.825656 C46.1004721,22.9524854 47.9937632,22.346656 50.171154,21.8917449 L50.171154,23.5884985 C47.2517118,24.5069446 44.7626595,26.410672 44.7626595,30.8606079 C44.7626595,34.637879 47.5548928,35.3083878 50.171154,34.4654009 L50.171154,36.2677974 L50.171154,36.2677974 Z M50.171154,14.5269286 C46.4863388,14.6864708 44.8835078,17.819105 44.2877466,19.0954431 C43.1153054,18.0799781 42.8460467,17.7026822 41.7478107,16.7001531 C42.9456936,15.3893192 44.9089496,12.9228819 50.171154,12.5908615 L50.171154,14.5269286 L50.171154,14.5269286 Z" id="Fill-9" fill="#FFFFFF"></path>
                            <path d="M29.1965416,12.7374679 L29.1965416,18.45943 C30.8460158,12.3041166 37.0071624,11.3942945 40.7386208,13.3066458 L40.7386208,16.519051 C32.306797,11.8405816 29.4997226,19.1514985 29.4997226,22.9697332 L29.4997226,36.3820641 L25.4799243,36.395 L25.4799243,12.733156 L29.1965416,12.7374679" id="Fill-10" fill="#FFFFFF"></path>
                            <path d="M67.7111285,12.6706327 C67.9316237,13.6925656 68.1139563,15.8291385 68.0885146,17.1162566 C69.0955843,15.4755583 70.2743859,14.7382143 71.6291597,13.9081633 C72.9839336,13.0910481 74.5125594,12.6792566 76.2213977,12.6792566 C77.69914,12.6792566 78.9330655,12.9767813 79.9316546,13.563207 C80.9302438,14.1474767 81.7337794,15.0831706 82.333781,16.3551968 C82.9422631,17.631535 83.2454441,19.0631035 83.2454441,20.6369665 L83.2454441,36.3863761 L79.3655754,36.3863761 L79.3655754,22.2043615 C79.3655754,20.1022843 79.041193,18.5348892 78.4157497,17.5172682 C76.4461333,14.3156429 72.0425884,14.4018819 69.8906394,17.0451093 C68.6927564,18.5154854 68.0885146,20.4213688 68.0885146,22.7713834 L68.0885146,36.3648163 L64.1726034,36.3561924 L64.1726034,17.1162566 C64.1726034,16.3508848 64.0432745,13.837016 63.7824964,12.728844 L67.7111285,12.6706327" id="Fill-11" fill="#FFFFFF"></path>
                            <path d="M59.7817794,0.092664723 L54.3987267,7.93610787 L51.3393548,7.93610787 L56.1754097,0.092664723 L59.7817794,0.092664723" id="Fill-12" fill="#FFFFFF"></path>
                        </g>
                    </g>
                </g>
            </g>
        </g>
    </g>
</svg>