<svg width="31" height="29" viewBox="0 0 31 29" xmlns="http://www.w3.org/2000/svg" xmlns:sketch="http://www.bohemiancoding.com/sketch/ns"><title>Shape</title><desc>Created with Sketch.</desc><path d="M26.095 9.257l-3.118-8.452c-.23-.624-.907-.956-1.507-.738l-20.721 7.444c-.6.216-.904.896-.672 1.519l3.285 8.912v-4.775c0-2.157 1.749-3.911 3.901-3.911h5.475l6.53-4.512 3.778 4.512h3.049zm3.22 2.745h-22.051c-.64 0-1.161.501-1.161 1.165v14.13c.002.666.523 1.204 1.161 1.204h22.051c.64 0 1.161-.538 1.161-1.204v-14.13c0-.665-.521-1.165-1.161-1.165zm-1.886 13.5h-18.286v-3l3.023-6.027 4.218 5.154 3.959-3.993 5.086-1.808 1.999 5.174v4.5z" sketch:type="MSShapeGroup" fill="#C7A95F"/></svg>