<?xml version="1.0" encoding="UTF-8" standalone="no"?>
<svg width="32px" height="35px" viewBox="0 0 32 35" version="1.1" xmlns="http://www.w3.org/2000/svg" xmlns:xlink="http://www.w3.org/1999/xlink" xmlns:sketch="http://www.bohemiancoding.com/sketch/ns">
    <!-- Generator: Sketch 3.2.2 (9983) - http://www.bohemiancoding.com/sketch -->
    <title>Shape 3</title>
    <desc>Created with Sketch.</desc>
    <defs></defs>
    <g id="Page-1" stroke="none" stroke-width="1" fill="none" fill-rule="evenodd" sketch:type="MSPage">
        <g id="О-чемпионате-(дизайн)" sketch:type="MSArtboardGroup" transform="translate(-1291.000000, -4066.000000)" fill="#C7A95F">
            <g id="4_block" sketch:type="MSLayerGroup" transform="translate(0.000000, 3674.000000)">
                <g id="content" transform="translate(546.000000, 216.000000)" sketch:type="MSShapeGroup">
                    <g id="-6" transform="translate(692.000000, 176.000000)">
                        <path d="M76.296,12.3709082 C76.03,11.6806412 83.374,5.30490726 79.092,0.138598893 C78.09,-1.06888229 74.69,5.92323096 69.862,9.08873718 C67.198,10.8348211 61,14.5525409 61,16.6077867 L61,29.9114682 C61,32.3828186 70.828,35 78.296,35 C81.034,35 85,18.3247043 85,15.6764123 C85,13.0164537 76.558,13.0631197 76.296,12.3709082 L76.296,12.3709082 Z M59,12.5556276 C57.684,12.5556276 53,13.3333932 53,18.6280329 L53,28.0545527 C53,33.3453036 57.684,33.9286278 59,33.9286278 C60.314,33.9286278 57,32.8164229 57,29.5342519 L57,17.1425005 C57,13.7047763 60.314,12.5556276 59,12.5556276 L59,12.5556276 Z" id="Shape-3"></path>
                    </g>
                </g>
            </g>
        </g>
    </g>
</svg>