<?xml version="1.0" encoding="UTF-8" standalone="no"?>
<svg width="37px" height="35px" viewBox="0 0 37 35" version="1.1" xmlns="http://www.w3.org/2000/svg" xmlns:xlink="http://www.w3.org/1999/xlink" xmlns:sketch="http://www.bohemiancoding.com/sketch/ns">
    <!-- Generator: Sketch 3.2.2 (9983) - http://www.bohemiancoding.com/sketch -->
    <title>Shape 2</title>
    <desc>Created with Sketch.</desc>
    <defs></defs>
    <g id="Page-1" stroke="none" stroke-width="1" fill="none" fill-rule="evenodd" sketch:type="MSPage">
        <g id="О-чемпионате-(дизайн)" sketch:type="MSArtboardGroup" transform="translate(-856.000000, -4066.000000)" fill="#C7A95F">
            <g id="4_block" sketch:type="MSLayerGroup" transform="translate(0.000000, 3674.000000)">
                <g id="content" transform="translate(546.000000, 216.000000)" sketch:type="MSShapeGroup">
                    <g id="2" transform="translate(266.000000, 176.000000)">
                        <path d="M73.57965,33.4676646 C73.57965,29.5163151 69.5337,27.5054547 65.5932,25.8904329 C61.66565,24.2824483 60.41135,22.9278004 60.41135,20.0249836 C60.41135,18.2850527 61.61015,18.8515419 62.13555,15.6602026 C62.35755,14.3372218 63.41575,15.6390912 63.61925,12.6184024 C63.61925,11.4150529 63.0402,11.1159748 63.0402,11.1159748 C63.0402,11.1159748 63.33435,9.33382113 63.44905,7.96158043 C63.56745,6.52424627 62.71275,3.4578161 59.1922,2.51659972 C58.578,1.91668424 58.16175,0.964912164 60.05615,0.0113808086 C55.91215,-0.171584618 54.9483,1.89029499 52.74125,3.40679689 C50.8635,4.7368148 50.3566,6.84267648 50.44725,7.96333972 C50.5675,9.33558041 50.8598,11.117734 50.8598,11.117734 C50.8598,11.117734 50.2789,11.4168121 50.2789,12.6201617 C50.4824,15.6426098 51.5443,14.3389811 51.76445,15.6619619 C52.28985,18.8533011 53.4905,18.286812 53.4905,20.0267429 C53.4905,22.9295597 53.0983,23.9147582 49.1689,25.5227428 C45.22655,27.1360052 44,29.7221512 44.02035,33.4676646 C44.0259,34.5883278 44,35 44,35 L73.6,35 C73.6,35 73.57965,34.5883278 73.57965,33.4676646 L73.57965,33.4676646 Z M78.2768,23.3271577 C76.17705,22.5231654 75.30755,21.5643562 75.30755,19.6924791 C75.30755,18.5647787 76.08085,18.9324689 76.42125,16.8723485 C76.5637,16.0208556 77.2482,16.8582743 77.37955,14.9107481 C77.37955,14.1349043 77.00585,13.9413832 77.00585,13.9413832 C77.00585,13.9413832 77.1964,12.7872935 77.2704,11.9023742 C77.3629,10.7993038 76.597,7.94926545 73.0746,7.94926545 C69.55405,7.94926545 68.7863,10.7993038 68.87695,11.9023742 C68.95465,12.7855343 69.14335,13.9413832 69.14335,13.9413832 C69.14335,13.9413832 68.76965,14.133145 68.76965,14.9107481 C68.901,16.8582743 69.5855,16.0208556 69.72795,16.8723485 C70.06835,18.9342282 70.84165,18.566538 70.84165,19.6924791 C70.84165,21.5643562 70.03135,22.4404791 67.495,23.478456 C67.36735,23.5294752 67.273,23.5980872 67.15645,23.6579029 C70.19045,24.9105123 74.97455,27.0726711 76.10675,31.4814341 L81,31.4814341 L81,27.4034162 C81,25.6441333 80.49495,24.1768913 78.2768,23.3271577 L78.2768,23.3271577 Z" id="Shape-2"></path>
                    </g>
                </g>
            </g>
        </g>
    </g>
</svg>