<?xml version="1.0" encoding="UTF-8" standalone="no"?>
<svg width="37px" height="35px" viewBox="0 0 37 35" version="1.1" xmlns="http://www.w3.org/2000/svg" xmlns:xlink="http://www.w3.org/1999/xlink" xmlns:sketch="http://www.bohemiancoding.com/sketch/ns">
    <!-- Generator: Sketch 3.2.2 (9983) - http://www.bohemiancoding.com/sketch -->
    <title>Shape</title>
    <desc>Created with Sketch.</desc>
    <defs></defs>
    <g id="Page-1" stroke="none" stroke-width="1" fill="none" fill-rule="evenodd" sketch:type="MSPage">
        <g id="О-чемпионате-(дизайн)" sketch:type="MSArtboardGroup" transform="translate(-619.000000, -4066.000000)" fill="#C7A95F">
            <g id="4_block" sketch:type="MSLayerGroup" transform="translate(0.000000, 3674.000000)">
                <g id="content" transform="translate(546.000000, 216.000000)" sketch:type="MSShapeGroup">
                    <g id="1" transform="translate(0.000000, 176.000000)">
                        <path d="M73.4646396,19.2251995 C73.0103526,19.5131105 72.8644052,20.1200581 73.1377997,20.5674874 L75.8018538,24.932841 C76.0752482,25.3802703 76.7022054,25.565078 77.1934931,25.3374727 L85.3295472,21.6082468 L85.3295472,35 L89.4407418,35 L89.4407418,19.7212624 L97.8090783,15.8830972 L92.4234134,7.05123209 L73.4646396,19.2251995 L73.4646396,19.2251995 Z M108.880525,3.94646189 C106.576201,0.172493087 101.472153,-1.12116117 97.4801828,1.05957029 C95.6095892,2.08087628 94.380342,3.70329379 93.778052,5.5124644 L99.8955096,15.5426619 C101.850383,15.955075 103.951203,15.7566498 105.825908,14.7353438 C109.817878,12.5546124 111.18485,7.72626672 108.880525,3.94646189 L108.880525,3.94646189 Z" id="Shape"></path>
                    </g>
                </g>
            </g>
        </g>
    </g>
</svg>