<?xml version="1.0" encoding="UTF-8" standalone="no"?>
<svg width="176px" height="26px" viewBox="0 0 176 26" version="1.1" xmlns="http://www.w3.org/2000/svg" xmlns:xlink="http://www.w3.org/1999/xlink" xmlns:sketch="http://www.bohemiancoding.com/sketch/ns">
    <!-- Generator: Sketch 3.2.2 (9983) - http://www.bohemiancoding.com/sketch -->
    <title>Rectangle 101</title>
    <desc>Created with Sketch.</desc>
    <defs></defs>
    <g id="Page-1" stroke="none" stroke-width="1" fill="none" fill-rule="evenodd" sketch:type="MSPage">
        <g id="О-чемпионате-(дизайн)" sketch:type="MSArtboardGroup" transform="translate(-497.000000, -7658.000000)" fill="#FFFFFF" opacity="0.3">
            <g id="8_block" sketch:type="MSLayerGroup" transform="translate(475.000000, 7312.000000)">
                <g id="1" transform="translate(0.000000, 122.000000)" sketch:type="MSShapeGroup">
                    <path d="M22,250 L22,224 L29,224 L29,250 L22,250 Z M34,250 L34,224 L38,224 L38,250 L34,250 Z M42,250 L42,224 L61,224 L61,250 L42,250 Z M67,250 L67,224 L72,224 L72,250 L67,250 Z M74,250 L74,224 L75,224 L75,250 L74,250 Z M77,250 L77,224 L79,224 L79,250 L77,250 Z M84,250 L84,224 L93,224 L93,250 L84,250 Z M97,250 L97,224 L103,224 L103,250 L97,250 Z M107,250 L107,224 L109,224 L109,250 L107,250 Z M118,250 L118,224 L134,224 L134,250 L118,250 Z M136,250 L136,224 L138,224 L138,250 L136,250 Z M141,250 L141,224 L145,224 L145,250 L141,250 Z M148,250 L148,224 L150,224 L150,250 L148,250 Z M153,250 L153,224 L160,224 L160,250 L153,250 Z M163,250 L163,224 L172,224 L172,250 L163,250 Z M175,250 L175,224 L178,224 L178,250 L175,250 Z M181,250 L181,224 L184,224 L184,250 L181,250 Z M186,224 L193,224 L193,250 L186,250 L186,224 Z M196,224 L198,224 L198,250 L196,250 L196,224 Z" id="Rectangle-101"></path>
                </g>
            </g>
        </g>
    </g>
</svg>