<?xml version="1.0" encoding="UTF-8" standalone="no"?>
<svg width="20px" height="28px" viewBox="0 0 20 28" version="1.1" xmlns="http://www.w3.org/2000/svg" xmlns:xlink="http://www.w3.org/1999/xlink" xmlns:sketch="http://www.bohemiancoding.com/sketch/ns">
    <!-- Generator: Sketch 3.2.2 (9983) - http://www.bohemiancoding.com/sketch -->
    <title>Shape</title>
    <desc>Created with Sketch.</desc>
    <defs></defs>
    <g id="Page-1" stroke="none" stroke-width="1" fill="none" fill-rule="evenodd" sketch:type="MSPage">
        <g id="О-чемпионате-(дизайн)" sketch:type="MSArtboardGroup" transform="translate(-574.000000, -1432.000000)" fill="#232323">
            <g id="2_block" sketch:type="MSLayerGroup" transform="translate(0.000000, 948.000000)">
                <g id="Брендинг" transform="translate(548.000000, 484.000000)" sketch:type="MSShapeGroup">
                    <path d="M31.9801786,26.8386981 C33.1074709,27.5527166 34.4105008,28.0357292 36.0007117,27.9979282 C37.588065,28.0357292 38.8939524,27.5527166 40.0212447,26.8386981 L39.9969558,23.797819 L32.0044675,23.797819 L31.9801786,26.8386981 L31.9801786,26.8386981 Z M39.8540797,22.3977826 C39.8540797,16.2978239 46.4692424,14.2103696 45.9734624,8.13421157 C45.6619925,4.30091187 43.0116412,-6.57252031e-14 36.0007117,-6.57252031e-14 C28.9897821,-6.57252031e-14 26.3394308,4.30091187 26.0265321,8.13561161 C25.5307521,14.2103696 32.1473436,16.2978239 32.1473436,22.3977826 L39.8540797,22.3977826 L39.8540797,22.3977826 Z M28.8569074,8.39741842 C29.1526609,4.76012381 31.8758791,2.79727276 36.0007117,2.79727276 C40.1241155,2.79727276 42.6501647,4.71672268 42.9459182,8.35401729 C43.1073681,10.3476691 41.9386418,11.6763037 40.3612898,13.8505603 C39.1982784,15.455002 38.0709861,17.1308456 37.4294725,19.5977097 L34.5719508,19.5977097 C33.9304372,17.1308456 32.8031449,15.455002 31.6387048,13.8491602 C30.0627815,11.6763037 28.6940286,10.3910703 28.8569074,8.39741842 L28.8569074,8.39741842 Z" id="Shape"></path>
                </g>
            </g>
        </g>
    </g>
</svg>