<?xml version="1.0" encoding="UTF-8" standalone="no"?>
<svg width="28px" height="28px" viewBox="0 0 28 28" version="1.1" xmlns="http://www.w3.org/2000/svg" xmlns:xlink="http://www.w3.org/1999/xlink" xmlns:sketch="http://www.bohemiancoding.com/sketch/ns">
    <!-- Generator: Sketch 3.2.2 (9983) - http://www.bohemiancoding.com/sketch -->
    <title>Shape</title>
    <desc>Created with Sketch.</desc>
    <defs></defs>
    <g id="Page-1" stroke="none" stroke-width="1" fill="none" fill-rule="evenodd" sketch:type="MSPage">
        <g id="О-чемпионате-(дизайн)" sketch:type="MSArtboardGroup" transform="translate(-1184.000000, -1433.000000)" fill="#232323">
            <g id="2_block" sketch:type="MSLayerGroup" transform="translate(0.000000, 948.000000)">
                <g id="Архитектура" transform="translate(1151.000000, 485.000000)" sketch:type="MSShapeGroup">
                    <path d="M52.9484995,0.613683758 L33.6128581,19.9505524 C32.7952479,20.7680961 32.7952479,22.1036042 33.6156581,22.9239477 L38.0747138,27.3854405 C38.892324,28.2029842 40.2321407,28.205784 41.0483509,27.3882403 L60.3867923,8.05137167 C61.2044026,7.23242806 61.2044026,5.8941202 60.3867923,5.07657649 L55.9263367,0.613683758 C55.1045264,-0.206659761 53.7675097,-0.20246005 52.9484995,0.613683758 L52.9484995,0.613683758 Z M38.5003191,21.4358501 L37.4377058,22.498377 L34.7832727,19.8427598 L35.845886,18.780233 L38.5003191,21.4358501 L38.5003191,21.4358501 Z M42.7507722,21.4358501 L41.6881589,22.498377 L36.9070992,17.7177061 L37.9697125,16.6537794 L42.7507722,21.4358501 L42.7507722,21.4358501 Z M42.7507722,17.1857428 L41.6881589,18.2482696 L39.0309257,15.5940524 L40.094939,14.5301256 L42.7507722,17.1857428 L42.7507722,17.1857428 Z M44.8759987,15.0606891 L43.8133854,16.1232159 L41.1589523,13.4689987 L42.2215656,12.4050719 L44.8759987,15.0606891 L44.8759987,15.0606891 Z M49.1250518,15.0606891 L48.0624385,16.1232159 L43.2827788,11.343945 L44.3453921,10.2814181 L49.1250518,15.0606891 L49.1250518,15.0606891 Z M49.1250518,10.8119816 L48.0624385,11.8745084 L45.4080053,9.22029119 L46.4706186,8.15776435 L49.1250518,10.8119816 L49.1250518,10.8119816 Z M51.2502783,8.68832782 L50.187665,9.75085466 L47.5318319,7.0952375 L48.5944451,6.03271066 L51.2502783,8.68832782 L51.2502783,8.68832782 Z M55.5007313,8.68832782 L54.4367181,9.75085466 L49.6570584,4.97018381 L50.7196717,3.90625706 L55.5007313,8.68832782 L55.5007313,8.68832782 Z M55.4993313,4.43962034 L54.4367181,5.50214719 L51.7822849,2.84513012 L52.8448982,1.78400318 L55.4993313,4.43962034 L55.4993313,4.43962034 Z" id="Shape"></path>
                </g>
            </g>
        </g>
    </g>
</svg>