<?xml version="1.0" encoding="UTF-8" standalone="no"?>
<svg width="35px" height="28px" viewBox="0 0 35 28" version="1.1" xmlns="http://www.w3.org/2000/svg" xmlns:xlink="http://www.w3.org/1999/xlink" xmlns:sketch="http://www.bohemiancoding.com/sketch/ns">
    <!-- Generator: Sketch 3.2.2 (9983) - http://www.bohemiancoding.com/sketch -->
    <title>Shape</title>
    <desc>Created with Sketch.</desc>
    <defs></defs>
    <g id="Page-1" stroke="none" stroke-width="1" fill="none" fill-rule="evenodd" sketch:type="MSPage">
        <g id="О-чемпионате-(дизайн)" sketch:type="MSArtboardGroup" transform="translate(-880.000000, -1433.000000)" fill="#232323">
            <g id="2_block" sketch:type="MSLayerGroup" transform="translate(0.000000, 948.000000)">
                <g id="Графика" transform="translate(866.000000, 485.000000)" sketch:type="MSShapeGroup">
                    <path d="M47.25,0 L15.75,0 C14.78225,0 14,0.78225 14,1.75 L14,26.25 C14,27.216 14.78225,28 15.75,28 L47.25,28 C48.21775,28 49,27.216 49,26.25 L49,1.75 C49,0.784 48.21775,0 47.25,0 L47.25,0 Z M45.5,24.5 L17.5,24.5 L17.5,3.5 L45.5,3.5 L45.5,24.5 L45.5,24.5 Z M39.05125,15.53475 L33.397,18.3435 L26.7995,7.66675 L21,21 L42,21 L39.05125,15.53475 L39.05125,15.53475 Z M37.1875,12.25 C38.395,12.25 39.375,11.27 39.375,10.0625 C39.375,8.855 38.395,7.875 37.1875,7.875 C35.98,7.875 35,8.855 35,10.0625 C35,11.27 35.98,12.25 37.1875,12.25 L37.1875,12.25 Z" id="Shape"></path>
                </g>
            </g>
        </g>
    </g>
</svg>