<?xml version="1.0" encoding="UTF-8" standalone="no"?>
<svg width="41px" height="28px" viewBox="0 0 41 28" version="1.1" xmlns="http://www.w3.org/2000/svg" xmlns:xlink="http://www.w3.org/1999/xlink" xmlns:sketch="http://www.bohemiancoding.com/sketch/ns">
    <!-- Generator: Sketch 3.2.2 (9983) - http://www.bohemiancoding.com/sketch -->
    <title>Shape</title>
    <desc>Created with Sketch.</desc>
    <defs></defs>
    <g id="Page-1" stroke="none" stroke-width="1" fill="none" fill-rule="evenodd" sketch:type="MSPage">
        <g id="О-чемпионате-(дизайн)" sketch:type="MSArtboardGroup" transform="translate(-1330.000000, -1433.000000)" fill="#232323">
            <g id="2_block" sketch:type="MSLayerGroup" transform="translate(0.000000, 948.000000)">
                <g id="IT" transform="translate(1329.000000, 484.000000)" sketch:type="MSShapeGroup">
                    <path d="M12.7233358,24.4999544 C12.2397776,24.4999544 11.7521214,24.3339552 11.3628161,23.9959568 L0.995,15 L11.9385782,5.50404557 C12.7827561,4.77404907 14.0777086,4.84404874 14.8296827,5.67004477 C15.5816567,6.49604081 15.5058446,7.76003474 14.6596177,8.49403122 L7.16241629,15 L14.0838556,21.0039712 C14.9300825,21.7379677 15.0058946,23.0019616 14.2539205,23.8279576 C13.8502724,24.2739555 13.2868041,24.4999544 12.7233358,24.4999544 L12.7233358,24.4999544 Z M31.0514218,24.4959544 L41.995,15 L31.6271839,6.00404317 C30.780957,5.27004669 29.4860045,5.34404634 28.7360795,6.17004237 C27.9841054,6.99603841 28.0599175,8.26003234 28.9061444,8.99402882 L35.8275837,15 L28.3303823,21.5039688 C27.4841554,22.2379653 27.4083433,23.5019592 28.1603173,24.3279552 C28.5639655,24.7739531 29.1274338,24.999952 29.690902,24.999952 C30.1744603,24.999952 30.6621164,24.8339528 31.0514218,24.4959544 L31.0514218,24.4959544 Z M21.4663143,27.3299408 L25.5642654,3.330056 C25.7507221,2.24006123 24.9966992,1.21006618 23.8800075,1.02806705 C22.7592179,0.844067934 21.7060445,1.58206439 21.5236857,2.67205916 L17.4257346,26.671944 C17.2392779,27.7619388 17.9933008,28.7919338 19.1099925,28.9739329 C19.2247351,28.9919329 19.3353798,28.9999328 19.4480735,28.9999328 C20.4315817,28.9999328 21.3003473,28.3059361 21.4663143,27.3299408 L21.4663143,27.3299408 Z" id="Shape"></path>
                </g>
            </g>
        </g>
    </g>
</svg>