<?xml version="1.0" encoding="UTF-8" standalone="no"?>
<svg width="35px" height="28px" viewBox="0 0 35 28" version="1.1" xmlns="http://www.w3.org/2000/svg" xmlns:xlink="http://www.w3.org/1999/xlink" xmlns:sketch="http://www.bohemiancoding.com/sketch/ns">
    <!-- Generator: Sketch 3.2.2 (9983) - http://www.bohemiancoding.com/sketch -->
    <title>Shape</title>
    <desc>Created with Sketch.</desc>
    <defs></defs>
    <g id="Page-1" stroke="none" stroke-width="1" fill="none" fill-rule="evenodd" sketch:type="MSPage">
        <g id="О-чемпионате-(дизайн)" sketch:type="MSArtboardGroup" transform="translate(-725.000000, -1433.000000)" fill="#232323">
            <g id="2_block" sketch:type="MSLayerGroup" transform="translate(0.000000, 948.000000)">
                <g id="Web-дизайн" transform="translate(700.000000, 485.000000)" sketch:type="MSShapeGroup">
                    <path d="M59.5695,23.85425 C59.13725,23.205 56.5,19.25 56.5,19.25 L56.5,3.5 C56.5,1.5715 54.925,0 53,0 L32,0 C30.07325,0 28.5,1.5715 28.5,3.5 L28.5,19.25 C28.5,19.25 25.86275,23.205 25.4305,23.85425 C25,24.5 25,24.87275 25,25.375 L25,26.25 C25,27.125 25.875,28 26.74825,28 L58.25175,28 C59.125,28 60,27.125 60,26.25 L60,25.375 C60,24.87275 60,24.5 59.5695,23.85425 L59.5695,23.85425 Z M37.25,24.5 L38.3,22.75 L46.7,22.75 L47.75,24.5 L37.25,24.5 L37.25,24.5 Z M53,17.5 L32,17.5 L32,3.5 L53,3.5 L53,17.5 L53,17.5 Z" id="Shape"></path>
                </g>
            </g>
        </g>
    </g>
</svg>