<?xml version="1.0" encoding="UTF-8" standalone="no"?>
<svg width="32px" height="28px" viewBox="0 0 32 28" version="1.1" xmlns="http://www.w3.org/2000/svg" xmlns:xlink="http://www.w3.org/1999/xlink" xmlns:sketch="http://www.bohemiancoding.com/sketch/ns">
    <!-- Generator: Sketch 3.2.2 (9983) - http://www.bohemiancoding.com/sketch -->
    <title>Shape</title>
    <desc>Created with Sketch.</desc>
    <defs></defs>
    <g id="Page-1" stroke="none" stroke-width="1" fill="none" fill-rule="evenodd" sketch:type="MSPage">
        <g id="О-чемпионате-(дизайн)" sketch:type="MSArtboardGroup" transform="translate(-1024.000000, -1433.000000)" fill="#232323">
            <g id="2_block" sketch:type="MSLayerGroup" transform="translate(0.000000, 948.000000)">
                <g id="Костюм" transform="translate(1010.000000, 485.000000)" sketch:type="MSShapeGroup">
                    <path d="M27.12,6.37777778 C27.12,2.85530864 24.1831111,1.58095759e-13 20.56,1.58095759e-13 C16.9368889,1.58095759e-13 14,2.85530864 14,6.37777778 C14,9.90024691 16.9368889,12.7555556 20.56,12.7555556 C22.2666667,12.7555556 23.8062222,12.105679 24.9742222,11.068642 L28.2222222,13.9844444 L28.2435556,14 L28.2364444,14.0051852 L24.9724444,16.931358 C23.8062222,15.894321 22.2666667,15.2444444 20.56,15.2444444 C16.9368889,15.2444444 14,18.0997531 14,21.6222222 C14,25.1446914 16.9368889,28 20.56,28 C24.1831111,28 27.12,25.1446914 27.12,21.6222222 C27.12,21.1088889 27.0417778,20.6162963 26.9226667,20.1392593 L31.9786667,16.6980247 L39.3155556,21.9955556 C43.248,24.6728395 46,20.8496296 46,20.8496296 L26.9226667,7.86074074 C27.04,7.3837037 27.12,6.89111111 27.12,6.37777778 L27.12,6.37777778 Z M20.56,9.48888889 C18.7928889,9.48888889 17.36,8.09580247 17.36,6.37777778 C17.36,4.65975309 18.7928889,3.26666667 20.56,3.26666667 C22.3271111,3.26666667 23.76,4.65975309 23.76,6.37777778 C23.76,8.09580247 22.3271111,9.48888889 20.56,9.48888889 L20.56,9.48888889 Z M20.56,24.7333333 C18.7928889,24.7333333 17.36,23.3402469 17.36,21.6222222 C17.36,19.9041975 18.7928889,18.5111111 20.56,18.5111111 C22.3271111,18.5111111 23.76,19.9041975 23.76,21.6222222 C23.76,23.3402469 22.3271111,24.7333333 20.56,24.7333333 L20.56,24.7333333 Z M46,7.15209877 C46,7.15209877 43.248,3.32888889 39.3155556,6.00617284 L33.6177778,9.8691358 L37.8026667,12.7175309 L46,7.15209877 L46,7.15209877 Z" id="Shape"></path>
                </g>
            </g>
        </g>
    </g>
</svg>