<?xml version="1.0" encoding="UTF-8" standalone="no"?>
<svg width="121px" height="26px" viewBox="0 0 121 26" version="1.1" xmlns="http://www.w3.org/2000/svg" xmlns:xlink="http://www.w3.org/1999/xlink" xmlns:sketch="http://www.bohemiancoding.com/sketch/ns">
    <!-- Generator: Sketch 3.2.2 (9983) - http://www.bohemiancoding.com/sketch -->
    <title>artw</title>
    <desc>Created with Sketch.</desc>
    <defs></defs>
    <g id="Page-1" stroke="none" stroke-width="1" fill="none" fill-rule="evenodd" sketch:type="MSPage">
        <g id="О-чемпионате-(дизайн)" sketch:type="MSArtboardGroup" transform="translate(-998.000000, -6340.000000)">
            <g id="6_block" sketch:type="MSLayerGroup" transform="translate(0.000000, 5999.000000)">
                <g id="logo" transform="translate(569.000000, 324.000000)" sketch:type="MSShapeGroup">
                    <g id="artw" transform="translate(429.000000, 17.000000)">
                        <g id="Group">
                            <path d="M20.3767143,19.3766667 L15.4015714,19.3766667 L15.4015714,25.6866667 L26.9185714,25.6866667 L26.9185714,0.815 L17.3218571,0.815 L0,25.6866667 L8.04257143,25.6866667 L20.3767143,6.90666667 L20.3767143,19.3766667 Z" id="Shape" fill="#FFFFFF"></path>
                            <path d="M76.8931429,7.12333333 L76.8931429,0.815 L55.0235714,0.815 L55.0235714,7.12333333 L62.9074286,7.12333333 L62.9074286,25.815 L69.6991429,25.815 L69.6991429,7.12333333 L76.8931429,7.12333333 Z" id="Shape" fill="#FFFFFF"></path>
                            <path d="M86.2148571,16.015 L86.2148571,0.815 L79.673,0.815 L79.673,25.6866667 L87.2252857,25.6866667 L96.7827143,11.2316667 L96.7827143,25.75 L103.678143,25.75 L121,0.876666667 L112.973143,0.876666667 L103.018143,16.0783333 L103.018143,0.876666667 L102.988286,0.876666667 L102.988286,0.815 L96.1714286,0.815 L86.2148571,16.015 Z" id="Shape" fill="#FF0538"></path>
                            <path d="M44.5908571,0.833333333 L40.744,0.833333333 L40.7345714,0.813333333 L31.5778571,0.813333333 L31.5778571,25.8133333 L38.2155714,25.8133333 L38.2155714,19.8333333 L42.7381429,19.8333333 L46.4137143,25.815 L54.6558571,25.815 L49.599,18.5766667 L50.5748571,17.6966667 C51.0745714,17.245 51.5287143,16.735 51.9215714,16.1766667 L51.9215714,16.1766667 C52.2217143,15.75 52.4747143,15.2783333 52.6962857,14.7666667 L52.6994286,14.76 C53.031,13.9983333 53.2824286,13.1883333 53.46,12.4133333 L53.4552857,12.4333333 L53.4584286,12.415 C53.548,12.0283333 53.6155714,11.655 53.6611429,11.305 C53.7067143,10.9483333 53.7318571,10.6333333 53.7318571,10.33 C53.7318571,7.835 52.8581429,5.54833333 51.4344286,3.855 C50.1741429,2.35166667 48.4754286,1.30333333 46.5645714,0.946666667 L46.5504286,0.945 L45.7285714,0.835 L45.7097143,0.833333333 C45.6311429,0.83 45.5588571,0.826666667 45.4708571,0.825 L45.4661429,0.825 C45.364,0.823333333 45.2445714,0.821666667 45.1282857,0.821666667 C45.012,0.821666667 44.8988571,0.821666667 44.7998571,0.825 L44.7888571,0.825 L44.7841429,0.825 C44.726,0.826666667 44.6725714,0.828333333 44.6207143,0.83 L44.5908571,0.833333333 L44.5908571,0.833333333 Z M45.6892857,7.425 L45.6924286,7.425 C46.0145714,7.58666667 46.3068571,7.81833333 46.5582857,8.10833333 C46.8175714,8.40833333 47.0155714,8.74666667 47.1585714,9.12333333 L47.1632857,9.13666667 L47.1585714,9.12666667 C47.2984286,9.50166667 47.377,9.90833333 47.377,10.3266667 L47.377,10.33 L47.377,10.335 C47.3785714,10.7983333 47.2937143,11.2433333 47.157,11.6133333 L47.1554286,11.6166667 C47.0187143,11.99 46.8128571,12.3283333 46.5724286,12.6 L46.5692857,12.6033333 L46.563,12.61 C46.321,12.88 46.0255714,13.1033333 45.7065714,13.2516667 C45.3907143,13.4016667 45.0182857,13.4883333 44.649,13.4866667 L44.6521429,13.4866667 L44.649,13.4866667 L44.6442857,13.4866667 L44.2058571,13.4866667 L39.9865714,13.4866667 L39.952,13.4866667 L38.2155714,13.4866667 L38.2155714,7.18166667 L44.6694286,7.18166667 C45.0182857,7.18 45.3844286,7.27333333 45.6892857,7.425 L45.6892857,7.425 Z" id="Shape" fill="#FFFFFF"></path>
                        </g>
                    </g>
                </g>
            </g>
        </g>
    </g>
</svg>