<?xml version="1.0" encoding="UTF-8" standalone="no"?>
<svg width="145px" height="25px" viewBox="0 0 145 25" version="1.1" xmlns="http://www.w3.org/2000/svg" xmlns:xlink="http://www.w3.org/1999/xlink" xmlns:sketch="http://www.bohemiancoding.com/sketch/ns">
    <!-- Generator: Sketch 3.2.2 (9983) - http://www.bohemiancoding.com/sketch -->
    <title>Zarina</title>
    <desc>Created with Sketch.</desc>
    <defs></defs>
    <g id="Page-1" stroke="none" stroke-width="1" fill="none" fill-rule="evenodd" sketch:type="MSPage">
        <g id="О-чемпионате-(дизайн)" sketch:type="MSArtboardGroup" transform="translate(-841.000000, -6430.000000)" fill="#FFFFFF">
            <g id="6_block" sketch:type="MSLayerGroup" transform="translate(0.000000, 5999.000000)">
                <g id="logo" transform="translate(569.000000, 324.000000)" sketch:type="MSShapeGroup">
                    <g id="Zarina" transform="translate(272.000000, 107.000000)">
                        <path d="M98.0332746,0.986734694 L114.635264,18.6658163 L114.635264,3.97857143 C114.635264,3.27091837 114.524472,2.79336735 114.304419,2.54642857 C114.084366,2.30102041 113.757095,2.1122449 113.315968,1.98418367 C113.067324,1.89795918 111.752623,1.74132653 111.648468,1.74132653 L111.648468,0.987244898 L119.24412,0.991836735 L119.24412,1.74132653 C119.129754,1.71326531 118.017746,1.84795918 117.650141,1.98418367 C117.229947,2.1122449 116.906761,2.30561224 116.676496,2.56326531 C116.444701,2.82040816 116.332377,3.29285714 116.332377,3.97857143 L116.332377,24.5035714 C116.306849,24.5107143 114.988574,24.5107143 114.979894,24.5035714 L96.952412,5.36173469 L96.952412,20.1306122 L96.9825352,21.1596939 C97.0060211,21.9102041 97.1101761,22.3943878 97.2980634,22.6071429 C97.4864613,22.8219388 97.8219014,23.0153061 98.3038732,23.1862245 C98.616338,23.2933673 99.5118662,23.3484694 99.8871303,23.3693878 L99.8871303,24.1709184 L92.3481514,24.1709184 L92.3481514,23.3693878 C92.743838,23.3484694 93.645493,23.2933673 93.9380458,23.1862245 C94.3745775,23.0362245 94.7120599,22.8387755 94.9407923,22.5913265 C95.172588,22.3443878 95.2889965,21.8668367 95.2889965,21.1596939 L95.2889965,4.17193878 C95.1950528,3.44540816 94.2847183,2.29336735 92.3481514,1.74132653 L92.3481514,0.989285714 L98.0332746,0.986734694 L98.0332746,0.986734694 Z M40.7832923,15.6229592 L30.6092958,15.6229592 L28.6773239,19.7734694 C28.3337148,20.5673469 28.1642077,21.2 28.1642077,21.6719388 C28.1642077,22.7653061 29.2287324,23.4489796 31.0340845,23.3693878 C31.0310211,23.3693878 31.0197887,24.1709184 31.0340845,24.1811224 L23.1372007,24.1709184 C23.1443486,24.1602041 23.1372007,23.3693878 23.1372007,23.3693878 C23.8330986,23.2622449 24.4513908,23.0239796 24.8797535,22.7015306 C25.7594542,22.0367347 26.5538908,20.9540816 27.2605106,19.452551 L34.7300528,3.10714286 L34.3435563,2.25102041 C34.3241549,2.22959184 37.4569718,0.156122449 37.4569718,0.179081633 L47.1903521,20.3857143 C47.81375,21.6295918 48.3079754,22.4438776 48.6725176,22.8306122 C49.0789261,23.1954082 49.6231866,23.3693878 50.3844366,23.3693878 C50.3849472,23.3693878 50.4043486,24.1709184 50.3844366,24.1811224 L41.1953169,24.1811224 C41.2009331,24.1709184 41.2009331,23.3693878 41.1953169,23.3693878 C42.7173063,23.4469388 43.5204225,22.8306122 43.5204225,21.8658163 C43.5204225,21.5229592 43.3580634,21.0280612 43.036919,20.3857143 L40.7832923,15.6229592 L40.7832923,15.6229592 Z M40.2686444,14.5933673 L35.7287148,4.52295918 L31.0611444,14.5933673 L40.2686444,14.5933673 L40.2686444,14.5933673 Z M59.7251937,13.0816327 L59.7251937,20.127551 L59.7578697,21.1581633 C59.800757,21.8433673 59.9661796,22.3642857 60.2561796,22.7178571 C60.5466901,23.0719388 61.4646831,23.2846939 62.4755986,23.3693878 C62.4755986,23.3693878 62.4755986,24.1709184 62.4633451,24.1811224 L52.6120246,24.1709184 L52.6120246,23.3693878 C53.0214965,23.3484694 53.9216197,23.2918367 54.2202993,23.1846939 C54.712993,23.0117347 55.06375,22.8204082 55.2664437,22.605102 C55.470669,22.3908163 55.5835035,21.9091837 55.6054577,21.1581633 L55.6386444,20.127551 L55.6386444,5.03877551 L55.6054577,3.97704082 C55.6054577,3.24693878 55.4880282,2.75867347 55.2501056,2.5122449 C55.0137148,2.26530612 54.6726585,2.08826531 54.2202993,1.98112245 C53.9624648,1.89489796 53.7158627,1.84132653 53.4794718,1.82040816 C53.2216373,1.77704082 53.0710211,1.75714286 53.0301761,1.75714286 C52.8999824,1.73469388 52.7478345,1.69540816 52.6436796,1.72397959 C52.5803697,1.74132653 52.6462324,0.880102041 52.6436796,0.931632653 L62.7191373,0.919897959 C70.0171303,0.919897959 73.6661268,3.05357143 73.6661268,7.19336735 C73.6661268,10.0459184 71.8086972,11.8913265 68.097412,12.7270408 L68.097412,13.05 L72.3473415,18.9056122 C73.2883099,20.2137755 74.0260739,21.1617347 74.549912,21.7530612 C75.0768134,22.3433673 75.4995599,22.7117347 75.8212148,22.8622449 C76.1423592,23.0117347 76.5834859,23.152551 77.1425528,23.2816327 C77.273257,23.302551 77.4279577,23.3290816 77.6107394,23.3617347 C77.7919894,23.3938776 78.0401232,23.3693878 78.0401232,23.3693878 L78.0401232,24.1709184 L71.3073239,24.1709184 C71.3073239,24.1709184 70.8651761,23.3693878 70.8626232,23.3765306 L65.7472887,16.0096939 C64.7818134,14.6147959 64.0675352,13.7790816 63.6064965,13.4994898 C63.1434155,13.2214286 62.1937676,13.0816327 60.755,13.0816327 L59.7251937,13.0816327 L59.7251937,13.0816327 Z M59.7251937,4.49183673 L59.7251937,11.9882653 L61.3018134,11.9882653 C66.4319542,11.9882653 68.9990669,10.3892857 68.9990669,7.19336735 C68.9990669,3.69744898 66.7449296,1.99132653 62.2386972,2.07806122 C61.1414965,2.07806122 60.4558099,2.21734694 60.1770423,2.49591837 C59.8957218,2.7755102 59.7578697,3.17244898 59.7578697,3.6872449 C59.7578697,3.94438776 59.751743,4.11530612 59.7425528,4.20153061 C59.7308099,4.2877551 59.7251937,4.38469388 59.7251937,4.49183673 L59.7251937,4.49183673 Z M82.8266549,20.127551 L82.8266549,5.03877551 L82.7939789,3.97704082 C82.7939789,3.24693878 82.6755282,2.75867347 82.4401585,2.5122449 C82.2007042,2.26530612 81.8596479,2.08826531 81.405757,1.98112245 C81.1504754,1.89489796 80.9038732,1.84132653 80.6685035,1.82040816 C80.4101585,1.77704082 80.0936092,1.74132653 80.051743,1.74132653 C80.051743,1.74132653 80.0512324,0.970918367 80.051743,0.983163265 L90.161919,0.983163265 C90.178257,0.931632653 90.178257,1.74132653 90.178257,1.74132653 C90.0710387,1.74132653 89.6513556,1.73469388 89.5201408,1.75714286 C89.4583627,1.77704082 88.7701232,1.81989796 88.3325704,1.98112245 C87.8802113,2.11071429 87.5524296,2.29234694 87.3476937,2.52857143 C87.1455106,2.76479592 87.0112324,3.24693878 86.9458803,3.97704082 L86.9132042,5.03877551 L86.9132042,20.127551 L86.9458803,21.1581633 C87.0112324,21.9091837 87.1337676,22.3908163 87.3175704,22.605102 C87.4988204,22.8204082 87.8363028,23.0117347 88.3325704,23.1846939 C88.63125,23.2918367 89.7595951,23.3484694 90.170088,23.3693878 C90.170088,23.3693878 90.1864261,24.1709184 90.170088,24.1811224 L80.0149824,24.1709184 L80.0149824,23.3693878 C80.4259859,23.3484694 81.1086092,23.2918367 81.405757,23.1846939 C81.9040669,23.0117347 82.2527817,22.8204082 82.4539437,22.605102 C82.6597007,22.3908163 82.7699824,21.9091837 82.7939789,21.1581633 L82.8266549,20.127551 L82.8266549,20.127551 Z M3.23033451,7.18010204 C3.03887324,7.64897959 2.89080986,7.93826531 2.76367958,8.36071429 L1.68792254,8.36071429 L2.68045775,1.33928571 L22.209507,1.33928571 C22.2508627,1.33928571 21.8194366,1.90663265 21.6468662,2.14183673 L6.34221831,23.0561224 L10.7060035,23.0561224 C12.1856162,23.0561224 13.7280282,22.9969388 14.7905106,22.8790816 C15.8550352,22.7607143 17.2284507,22.527551 18.4619718,21.6591837 C19.8256866,20.694898 20.545581,19.2755102 20.9831338,18.1959184 C21.2169718,17.4892857 21.2685387,17.169898 21.2685387,17.169898 L22.2028697,17.169898 C22.185,17.2637755 22.1972535,17.1489796 22.2028697,17.169898 L21.5789613,24.1709184 C21.6065317,24.1709184 0.375264085,24.1709184 0.375264085,24.1709184 L16.256338,2.3994898 L11.4126232,2.3994898 C8.96753521,2.3994898 7.31433099,2.33418367 5.47170775,3.8505102 C4.26371479,4.84591837 3.70413732,6.1005102 3.23033451,7.18010204 L3.23033451,7.18010204 Z" id="Fill-1"></path>
                        <path d="M134.688662,14.6566327 L130.148222,4.58571429 L125.481673,14.6566327 L134.688662,14.6566327 L134.688662,14.6566327 Z M135.20331,15.6852041 L125.029313,15.6852041 L123.097852,19.8362245 C122.753732,20.630102 122.584225,21.2622449 122.584225,21.7352041 C122.584225,22.8280612 123.64875,23.5112245 125.454102,23.4321429 C125.451039,23.4321429 125.440317,24.2336735 125.454102,24.2443878 L117.557218,24.2336735 C117.564877,24.2234694 117.557218,23.4321429 117.557218,23.4321429 C118.253116,23.325 118.870898,23.0867347 119.299261,22.7642857 C120.179472,22.0994898 120.973908,21.0168367 121.680528,19.5153061 L129.15007,3.16989796 L128.763574,2.31326531 C128.744173,2.29234694 131.8775,0.218367347 131.8775,0.241836735 L141.609859,20.4489796 C142.233768,21.6918367 142.728504,22.5066327 143.092535,22.8933673 C143.498944,23.2581633 144.043204,23.4321429 144.803944,23.4321429 C144.804454,23.4321429 144.824366,24.2336735 144.803944,24.2443878 L135.615335,24.2443878 C135.621461,24.2336735 135.621461,23.4321429 135.615335,23.4321429 C137.137835,23.5091837 137.94044,22.8933673 137.94044,21.9285714 C137.94044,21.5852041 137.778081,21.0913265 137.456937,20.4489796 L135.20331,15.6852041 L135.20331,15.6852041 Z" id="Fill-2"></path>
                    </g>
                </g>
            </g>
        </g>
    </g>
</svg>