<?xml version="1.0" encoding="UTF-8" standalone="no"?>
<svg width="51px" height="50px" viewBox="0 0 51 50" version="1.1" xmlns="http://www.w3.org/2000/svg" xmlns:xlink="http://www.w3.org/1999/xlink" xmlns:sketch="http://www.bohemiancoding.com/sketch/ns">
    <!-- Generator: Sketch 3.2.2 (9983) - http://www.bohemiancoding.com/sketch -->
    <title>обрисовка</title>
    <desc>Created with Sketch.</desc>
    <defs></defs>
    <g id="Page-1" stroke="none" stroke-width="1" fill="none" fill-rule="evenodd" sketch:type="MSPage">
        <g id="О-чемпионате-(дизайн)" sketch:type="MSArtboardGroup" transform="translate(-483.000000, -6328.000000)" fill="#FFFFFF">
            <g id="6_block" sketch:type="MSLayerGroup" transform="translate(0.000000, 5999.000000)">
                <g id="logo" transform="translate(476.000000, 324.000000)" sketch:type="MSShapeGroup">
                    <path d="M9.02048864,7.98967803 C9.00078409,8.96089015 8.90206818,9.91960227 8.87811364,10.8898674 C8.85435227,11.8565341 8.73438636,12.8044508 8.73419318,13.7752841 C8.734,14.879072 8.734,15.9830492 8.73380682,17.0870265 C8.73342045,19.1904356 8.59123864,21.2881629 8.59085227,23.3898674 C8.59065909,25.6321023 8.59027273,27.8741477 8.59007955,30.1163826 C8.58969318,31.5010417 8.65923864,32.8713068 8.70096591,34.2480114 L8.58157955,37.8872159 C8.56825,38.2944129 8.55859091,38.6985795 8.55859091,39.1014205 C8.50314773,39.9523674 8.58969318,40.8500947 8.58988636,41.6919508 C8.58988636,43.8991477 8.66290909,46.1101326 8.65151136,48.3150568 C8.64648864,49.3107008 8.59239773,50.1737689 8.58486364,51.1769886 C8.58293182,51.4099432 8.60959091,51.7739583 8.59722727,52.0038826 C8.53927273,52.0071023 8.31035227,52.0107008 8.25259091,52.0144886 C8.27654545,50.6163826 8.23365909,49.2116477 8.23346591,47.8178977 C8.23327273,45.8756629 8.23307955,43.933428 8.23288636,41.9910038 C8.23269318,38.0669508 8.23230682,34.1428977 8.23211364,30.2188447 C8.23134091,22.8317235 8.27731818,15.4427083 8.22767045,8.05539773 C8.49213636,8.03778409 8.75640909,8.01524621 9.02048864,7.98967803 L9.02048864,7.98967803 Z M16.5437614,13.9220644 L22.3506136,13.9220644 C22.5542273,13.9220644 22.8536591,14.0868371 22.8536591,14.4150568 L22.8536591,28.4574811 C22.8536591,28.5815341 22.7476023,28.9504735 22.3506136,28.9504735 L16.5437614,28.9504735 C16.2707955,28.9504735 16.0407159,28.7303977 16.0407159,28.4574811 L16.0407159,14.4150568 C16.0407159,14.1839962 16.2350568,13.9220644 16.5437614,13.9220644 L16.5437614,13.9220644 Z M17.1762386,27.8372159 L21.7181364,27.8372159 L21.7181364,15.0319129 L17.1762386,15.0319129 L17.1762386,27.8372159 Z M36.77125,23.384375 L39.0421023,23.384375 L39.0421023,17.2614583 L36.77125,17.2614583 L36.77125,23.384375 Z M36.77125,24.4974432 L36.77125,30.6203598 L35.6357273,31.1769886 L35.6357273,16.6315341 C35.6357273,16.3652462 35.8685114,16.1483902 36.1437955,16.1483902 L39.6757386,16.1483902 C39.9388523,16.1483902 40.1778182,16.3680871 40.1778182,16.640625 L40.1778182,24.0055871 C40.1778182,24.3135417 39.9052386,24.4974432 39.6757386,24.4974432 L36.77125,24.4974432 L36.77125,24.4974432 Z M21.3816136,37.7286932 L23.5674659,37.7286932 L23.5674659,42.7381629 L21.3816136,42.7381629 L21.3816136,37.7286932 Z M20.7356136,36.615625 C20.466125,36.615625 20.2458977,36.8313447 20.2458977,37.0955492 L20.2458977,43.3714962 C20.2458977,43.635322 20.4668977,43.8514205 20.7356136,43.8514205 L24.2130795,43.8514205 C24.4817955,43.8514205 24.7027955,43.6347538 24.7027955,43.3714962 L24.7027955,37.0955492 C24.7027955,36.8321023 24.4825682,36.615625 24.2130795,36.615625 L20.7356136,36.615625 L20.7356136,36.615625 Z M25.8387045,21.1578598 L32.6514545,21.1578598 L32.6514545,25.6107008 L25.8387045,25.6107008 L25.8387045,21.1578598 Z M48.8395114,13.9220644 L48.8395114,28.9504735 L47.7039886,28.9504735 L47.7039886,24.9411932 L43.1578409,28.9504735 L42.0267614,28.9504735 L42.0267614,15.0351326 L25.8383182,15.0351326 L25.8383182,20.0446023 L33.2848977,20.0446023 C33.5601818,20.0446023 33.7867841,20.2722538 33.7867841,20.5364583 L33.7867841,26.2322917 C33.7867841,26.4919508 33.5684886,26.7241477 33.2848977,26.7241477 L24.7027955,26.7241477 L24.7027955,14.4364583 C24.7027955,14.0686553 24.9999091,13.9220644 25.2137614,13.9220644 L42.6615568,13.9220644 C42.9362614,13.9220644 43.1620909,14.139678 43.1620909,14.4328598 L43.1620909,27.4525568 L47.7039886,23.4432765 L47.7039886,14.4786932 L48.8395114,13.9220644 L48.8395114,13.9220644 Z M28.1091705,44.964678 L32.6510682,44.964678 L32.6510682,38.841572 L28.1091705,38.841572 L28.1091705,44.964678 Z M28.1091705,35.9892992 L30.3802159,33.3161932 L30.3804091,29.9360795 L28.1091705,29.9360795 L28.1091705,35.9892992 L28.1091705,35.9892992 Z M26.9736477,37.7283144 L26.9736477,46.0779356 L33.2868295,46.0779356 C33.5617273,46.0779356 33.7867841,45.8572917 33.7867841,45.5877841 L33.7867841,38.2184659 C33.7867841,37.9489583 33.5619205,37.7283144 33.2868295,37.7283144 L28.1099432,37.7283144 L31.4036932,33.8506629 C31.4747841,33.7669508 31.5155455,33.6500947 31.5155455,33.540625 L31.5157386,29.3345644 C31.5157386,28.9864583 31.2412273,28.822822 31.0022614,28.822822 L27.4832614,28.822822 C27.2259432,28.822822 26.9736477,29.0186553 26.9736477,29.3150568 L26.9736477,37.7283144 L26.9736477,37.7283144 Z M22.8540455,31.5491477 C22.8540455,31.290625 22.6405795,31.0413826 22.3459773,31.041572 L16.5398977,31.0472538 C16.2134205,31.0476326 16.0407159,31.3158144 16.0407159,31.5591856 L16.0407159,45.5749053 C16.0407159,45.810322 16.2149659,46.0779356 16.5447273,46.0779356 L25.1245114,46.0779356 L24.5569432,44.964678 L17.1762386,44.964678 L17.1762386,32.1605114 L21.7181364,32.1605114 L21.7181364,35.5002841 L22.8540455,34.9375947 L22.8540455,31.5491477 L22.8540455,31.5491477 Z M35.6357273,33.2758523 L36.77125,32.7192235 L36.77125,36.5063447 L42.4490568,31.4946023 L44.145,31.4951705 L38.4756932,36.4997159 L44.376625,46.0779356 L43.0513977,46.0779356 L37.6121705,37.2618371 L36.77125,38.0042614 L36.77125,46.0779356 L35.6357273,46.0779356 L35.6357273,33.2758523 L35.6357273,33.2758523 Z M47.0786591,31.4951705 L40.6466705,37.2730114 L42.3418409,37.2730114 L43.7528409,36.027178 L47.704375,38.366572 L47.704375,46.0779356 L48.8397045,46.0779356 L48.8397045,31.4951705 L47.0786591,31.4951705 L47.0786591,31.4951705 Z M44.6345227,35.2489583 L47.704375,32.5389205 L47.704375,37.0660038 L44.6345227,35.2489583 L44.6345227,35.2489583 Z M7.02376136,52.1214962 L7.02376136,8.09460227 C7.27547727,8.09649621 7.52680682,8.09138258 7.77755682,8.08039773 C7.72906818,15.3701705 7.77427273,22.6616477 7.77369318,29.9512311 C7.77330682,33.8750947 7.77311364,37.7993371 7.77253409,41.7233902 C7.77253409,43.6680871 7.77234091,45.6127841 7.77195455,47.5572917 C7.77195455,49.0500947 7.72385227,50.5555871 7.75263636,52.0533144 C7.50942045,52.0743371 7.26659091,52.0982008 7.02376136,52.1214962 L7.02376136,52.1214962 Z M7.14140909,5.10804924 L54.3550455,5.10804924 C54.3260682,5.39232955 54.9964091,5.67888258 54.9919659,5.96676136 C53.9524545,5.96221591 52.8752727,5.96373106 51.7965455,5.96770833 C51.7565568,5.96695076 51.716375,5.96676136 51.6761932,5.96676136 C51.1621364,5.96676136 50.666625,5.82736742 50.1614545,5.82755682 C49.5766932,5.82755682 48.9923182,5.82774621 48.40775,5.82774621 C47.2430568,5.82793561 46.0783636,5.82793561 44.9134773,5.828125 C44.1932955,5.828125 43.4731136,5.82831439 42.7529318,5.82831439 C42.14325,5.82850379 41.4821818,5.88967803 40.881,5.78645833 C40.0961023,5.65160985 39.3593068,5.91998106 38.5662955,5.88096591 C36.4689205,5.77736742 34.3630455,5.55066288 32.2575568,5.55104167 C31.1962159,5.55104167 30.1775682,5.69100379 29.1243409,5.69157197 C28.0000227,5.69176136 26.8753182,5.69214015 25.751,5.69270833 C23.5688182,5.6936553 21.40325,5.91789773 19.2222273,5.96524621 L18.1572159,5.96410985 C17.6574545,5.93191288 17.1677386,5.83551136 16.6689432,5.83570076 C16.1678295,5.83589015 15.6663295,5.84043561 15.1650227,5.83513258 C14.072,5.82395833 12.973375,5.76638258 11.8809318,5.82168561 C11.3093068,5.85085227 10.6310455,5.86808712 10.0632841,5.79820076 C9.94718182,5.78380682 9.15648864,5.74043561 8.86401136,5.65975379 C7.97576136,5.41429924 7.14295455,5.38058712 7.14140909,5.10804924 L7.14140909,5.10804924 Z M54.9995,6.78778409 L55.0029773,6.90539773 C54.4033409,6.8750947 53.7982955,6.79289773 53.2050341,6.79876894 C52.0872841,6.80956439 50.9697273,6.82035985 49.8519773,6.8313447 C47.7573068,6.85160985 45.6831136,6.865625 43.5899886,6.88607955 L36.7273977,6.82073864 C35.7010227,6.83077652 34.6512727,6.953125 33.6297273,6.89119318 C33.1454205,6.86164773 32.5264659,6.86202652 32.0421591,6.79933712 C31.4626136,6.72433712 30.9958864,6.68589015 30.4120909,6.67850379 C30.0216705,6.67376894 29.6385909,6.55539773 29.2560909,6.51960227 C30.3610909,6.51695076 31.4662841,6.51505682 32.5710909,6.51524621 L44.8763864,6.36107955 C47.5923295,6.36126894 50.3134886,6.55596591 53.0323295,6.5500947 C53.2537159,6.56638258 53.4754886,6.590625 53.6972614,6.62869318 C54.1220682,6.70123106 54.5594318,6.75123106 54.9995,6.78778409 L54.9995,6.78778409 Z M55.0199773,7.38929924 C54.4164773,7.36202652 53.8127841,7.29744318 53.2050341,7.303125 C52.1691932,7.3125947 51.1331591,7.32225379 50.0973182,7.33172348 C48.014625,7.35104167 45.9514432,7.23077652 43.8718409,7.24971591 C41.571625,7.27092803 39.2712159,7.29176136 36.971,7.31278409 C36.3916477,7.31808712 35.8059205,7.29895833 35.2271477,7.334375 C34.7051705,7.36638258 34.1505455,7.45672348 33.6297273,7.38323864 C32.6174545,7.24043561 31.6718295,7.10179924 30.6431364,7.08816288 C29.6374318,7.0749053 28.660125,6.87320076 27.6517159,6.93304924 C26.6894773,6.99005682 25.7305227,6.99801136 24.7669318,7.00596591 C23.7057841,7.01505682 22.6556477,7.16335227 21.5952727,7.17225379 C20.6117841,7.18058712 19.6568864,7.19554924 18.6803523,7.30861742 C17.6775455,7.42471591 16.68575,7.59119318 15.6728977,7.54119318 C14.7207045,7.49403409 13.8218295,7.65596591 12.8808409,7.66392045 C11.8430682,7.67301136 10.8137955,7.79725379 9.78394318,7.91013258 C9.81118182,8.7499053 9.82876136,9.59157197 9.80113636,10.4381629 C9.78413636,10.952178 9.83552273,11.4152462 9.87184091,11.9211174 C9.90159091,12.3372159 9.72598864,12.7008523 9.71246591,13.1161932 C9.679625,14.1101326 9.78935227,15.0883523 9.756125,16.0872159 L9.70396591,17.6690341 C9.68851136,18.1381629 9.78684091,18.5868371 9.80017045,19.0529356 C9.81504545,19.5756629 9.68967045,20.121875 9.62785227,20.6417614 C9.55676136,21.240625 9.56564773,21.8500947 9.54594318,22.4504735 C9.47156818,24.7027462 9.39680682,26.9550189 9.322625,29.2072917 L9.18005682,33.5184659 C9.1845,33.6029356 9.18701136,33.6879735 9.18701136,33.7741477 C9.18701136,34.2622159 9.18681818,34.7504735 9.18681818,35.2387311 C9.18681818,36.2247159 9.27954545,37.2639205 9.16460227,38.2428977 C9.08385227,38.9313447 9.05603409,39.6035038 9.04772727,40.2936553 C9.11534091,40.9701705 9.23028409,41.6402462 9.28746591,42.3194129 C9.36860227,43.2836174 9.35082955,44.2669508 9.39680682,45.2362689 C9.44838636,46.3247159 9.74202273,47.3677083 9.70551136,48.4642992 C9.66610227,49.6404356 9.80847727,50.8142992 9.79939773,51.9875947 C10.0644432,51.9963068 9.98794318,52.0163826 10.253375,52.052178 C11.2583068,52.1875947 12.2810114,52.178125 13.292125,52.2805871 C14.3074886,52.383428 15.3271023,52.4122159 16.3472955,52.4167614 C16.9025,52.4190341 17.4578977,52.4182765 18.0132955,52.4182765 C18.4290227,52.4182765 18.8530568,52.566572 19.2560341,52.5571023 C20.2893636,52.5328598 21.3072386,52.4169508 22.344625,52.4167614 C24.6284205,52.4160038 26.9118295,52.4150568 29.1958182,52.4141098 C29.8091705,52.4139205 30.4294773,52.3887311 31.0416705,52.4309659 C31.5389205,52.4648674 32.0477614,52.5845644 32.54675,52.5430871 C33.0496023,52.5014205 33.4807841,52.4124053 33.9884659,52.4122159 C34.4586705,52.4120265 34.9290682,52.4118371 35.3990795,52.4116477 C35.8706364,52.4114583 36.3319545,52.5764205 36.7986818,52.5442235 C37.2675341,52.5118371 37.7363864,52.4294508 38.2063977,52.4163826 C39.0871136,52.3921402 39.9454205,52.2703598 40.8344432,52.2701705 C41.8418864,52.2697917 42.8866136,52.1910038 43.8824659,52.3652462 C44.9536591,52.5527462 45.9614886,52.6349432 47.0429205,52.7000947 C48.0242841,52.7588068 49.01125,52.9082386 49.9982159,52.9451705 C51.0630341,52.9849432 52.1278523,52.9792614 53.19325,53.0309659 C53.8139432,53.0610795 54.4354091,53.0946023 55.056875,53.0982008 C55.1076818,53.0985795 55.158875,53.1014205 55.2102614,53.1057765 C55.1720114,52.6724432 55.0763864,52.2701705 55.0761932,51.8267992 C55.0761932,51.4622159 54.9363295,51.1474432 54.9023295,50.7900568 C54.8063182,49.7857008 54.9340114,48.7569129 54.9340114,47.7483902 C54.9340114,46.7574811 54.8866818,45.7533144 54.9483068,44.7641098 C55.0151477,43.6923295 55.1534659,42.6552083 55.1339545,41.5722538 C55.1154091,40.5372159 55.0761932,39.5029356 55.0763864,38.4675189 C55.0765795,37.4487689 55.1327955,36.4550189 55.2266818,35.4421402 C55.2981591,34.6745265 55.2780682,33.858428 55.4214091,33.1025568 C55.5917955,32.2042614 55.5220568,31.3383523 55.5064091,30.4372159 L55.5044773,30.4216856 C55.3704091,29.495928 55.3053068,28.5608902 55.1865,27.6313447 C55.0499205,26.5622159 55.0684659,25.4930871 54.8897727,24.422822 C54.7323295,23.4798295 54.8437955,22.5677083 54.844375,21.6197917 C54.8449545,20.5133523 54.8812727,19.4002841 54.8426364,18.2946023 C54.8084432,17.3120265 54.7048977,16.3394886 54.7056705,15.3550189 C54.70625,14.272822 54.6013523,13.1315341 54.7439205,12.0569129 C54.8588636,11.190625 54.9552614,10.2819129 55.0195909,9.41089015 C55.0692386,8.74441288 55.0448977,8.06695076 55.0199773,7.38929924 L55.0199773,7.38929924 Z M48.4811591,53.3514205 C47.205,53.3599432 45.9294205,53.3694129 44.6551932,53.3694129 C40.5446705,53.3696023 36.4345341,53.3699811 32.3240114,53.3701705 C24.8051818,53.3707386 14.8825909,53.2741477 7.36279545,53.3642992 C7.30117045,53.3544508 7.23935227,53.3440341 7.17772727,53.333428 C7.13909091,53.3266098 7.10045455,53.3203598 7.06201136,53.3144886 C7.06046591,53.0525568 7.06027273,52.790625 7.06065909,52.5288826 C7.71322727,52.5703598 10.7554545,52.6358902 11.4111136,52.6360795 C12.3710341,52.6364583 13.3164659,52.7953598 14.2750341,52.8567235 C15.3794545,52.9275568 16.4892841,52.9161932 17.59525,52.916572 C18.5018523,52.9171402 19.339875,53.0836174 20.2499545,52.9870265 C21.3937841,52.8658144 22.5544205,52.9184659 23.7038523,52.9188447 C25.9882273,52.9196023 28.2735682,52.9053977 30.5579432,52.9235795 C31.0509432,52.9275568 31.5518636,53.0631629 32.0355909,53.0612689 C32.5463636,53.0589962 33.0519205,52.9224432 33.5545795,52.9226326 C34.5226136,52.9230114 35.4502727,52.9673295 36.4080682,53.0483902 C37.2097727,53.116572 38.1525,52.9908144 38.9476364,52.8667614 C39.9815455,52.7050189 41.0662614,52.7864583 42.1121477,52.7868371 C43.5331932,52.7874053 44.8790909,53.1735795 46.2931818,53.204072 C47.0224432,53.2197917 47.7513182,53.2866477 48.4811591,53.3514205 L48.4811591,53.3514205 Z M55.6808523,53.1769886 C55.6766023,53.0036932 55.6723523,52.8302083 55.6675227,52.6569129 C55.6652045,52.5684659 55.6292727,52.5061553 55.5794318,52.4680871 C55.5570227,52.3141098 55.5396364,52.159375 55.5396364,52.0019886 C55.5398295,51.6970644 55.5494886,51.4010417 55.4716364,51.104072 C55.2089091,50.1010417 55.3982273,49.0273674 55.3982273,47.9989583 C55.3984205,46.9993371 55.3984205,45.9997159 55.3986136,45.0002841 C55.3986136,44.5553977 55.5257273,44.0830492 55.5597273,43.6349432 C55.6055114,43.0357008 55.6055114,42.433428 55.6016477,41.8330492 C55.5946932,40.8004735 55.5440795,39.7684659 55.5396364,38.7357008 C55.5353864,37.7038826 55.6464659,36.6983902 55.6812386,35.6730114 C55.6959205,35.2375947 55.7743523,34.809375 55.8147273,34.3760417 C55.9955455,36.2798295 55.9752614,38.1934659 56.06625,40.1044508 C56.1155114,41.1370265 56.1182159,42.1684659 56.1182159,43.2019886 C56.1178295,44.3148674 56.2615568,45.5372159 56.0755227,46.6360795 C55.7749318,48.4122159 55.974875,50.3482008 55.9744886,52.1487689 C55.9744886,52.5086174 55.8833068,52.8510417 55.8469886,53.2055871 C55.7917386,53.196875 55.7362955,53.1870265 55.6808523,53.1769886 L55.6808523,53.1769886 Z M57.881,54.5220644 C57.8802273,54.5892992 57.8792614,54.8245265 57.8777159,54.8919508 L7.08538636,54.8919508 C7.07727273,54.5548295 7.07109091,54.385322 7.06703409,54.0485795 L7.33246591,54.0516098 C7.49396591,54.070928 7.65759091,54.0919508 7.82411364,54.1135417 C8.96890909,54.2627841 12.5557159,54.0434659 13.7105568,54.0946023 C15.8631818,54.1892992 18.0507727,54.4135417 20.2001136,54.1815341 C21.1229432,54.0819129 22.0548523,54.1152462 22.9828977,54.0158144 C24.0015455,53.9069129 25.0427955,54.0500947 26.0542955,54.1400568 C27.1104205,54.234375 28.2453636,54.040625 29.3119205,54.0449811 C30.4677273,54.0495265 31.6140682,54.1586174 32.7665909,54.2256629 C34.8711136,54.3485795 36.9905114,54.2885417 39.0979318,54.2892992 C39.527375,54.2894886 39.9214659,54.1838068 40.3474318,54.1506629 C40.9070795,54.1069129 41.4895227,54.1510417 42.0512955,54.1514205 C43.2434205,54.1516098 44.436125,54.1667614 45.6276705,54.1349432 C46.4743864,54.1124053 47.3195568,54.077178 48.1662727,54.1035038 C48.9310795,54.1273674 49.6473977,53.9760417 50.3998409,54.0622159 C51.7080682,54.2124053 54.041125,54.2095644 55.2923636,54.2099432 C56.6315,54.1877841 57.7050114,54.540625 57.881,54.5220644 L57.881,54.5220644 Z M7.03168182,7.43001894 C7.02086364,7.12566288 7.00985227,6.82168561 7,6.51770833 C11.7804773,6.56770833 19.2995,6.55369318 24.0819091,6.53664773 C23.252,6.57528409 22.4275,6.68475379 21.5952727,6.69346591 C20.5466818,6.70445076 19.535375,6.73475379 18.4947045,6.85710227 C17.5531364,6.96808712 16.6239318,7.11126894 15.6728977,7.07376894 C14.6538636,7.03342803 13.6848636,7.1936553 12.6751023,7.20407197 C12.2018068,7.20918561 11.7317955,7.32585227 11.2557955,7.35085227 C10.7560341,7.37698864 7.52893182,7.36732955 7.03168182,7.43001894 L7.03168182,7.43001894 Z M8.90226136,51.9849432 L9.36435227,51.9830492 C9.35643182,51.4080492 9.35759091,50.8322917 9.37594318,50.2557765 C9.40781818,49.2419508 9.16151136,48.2211174 9.14122727,47.2089962 C9.13581818,46.9434659 9.15977273,46.6258523 9.06028409,46.0786932 C9.01430682,46.5125947 8.90651136,47.184375 8.92138636,47.5699811 C8.95963636,48.5658144 8.94031818,49.5239583 8.91559091,50.5163826 C8.90342045,51.0057765 8.90226136,51.4955492 8.90226136,51.9849432 L8.90226136,51.9849432 Z M55.7766705,7.39573864 C55.779375,9.72698864 55.7923182,12.0582386 55.7917386,14.3885417 C55.7911591,15.4491477 55.7909659,16.5097538 55.7905795,17.5703598 C55.7901932,18.5826705 55.9685,19.6495265 55.7507841,20.6453598 C55.5591477,21.5235795 55.6652045,22.4614583 55.5761477,23.3527462 C55.4911477,24.2017992 55.4915341,25.0569129 55.4984886,25.9108902 C55.4747273,25.5292614 55.4453636,25.147822 55.3912727,24.7680871 C55.2251364,23.6036932 55.2852159,22.5131629 55.2844432,21.3440341 C55.2834773,19.2508523 55.1403295,17.1663826 55.1393636,15.0767992 C55.1385909,13.9798295 55.0593864,12.8527462 55.2147045,11.7648674 C55.2664773,11.4023674 55.2745909,11.0434659 55.28,10.6783144 C55.2873409,10.1703598 55.4212159,9.67793561 55.4571477,9.17168561 C55.4986818,8.58361742 55.4811023,7.99214015 55.4534773,7.40085227 C55.5610795,7.40123106 55.6686818,7.39971591 55.7766705,7.39573864 L55.7766705,7.39573864 Z M55.9970909,31.7213068 C56.0432614,32.3499053 56.0967727,32.978125 56.1755909,33.6057765 L56.1757841,33.6063447 L56.2777841,29.890625 C56.4537727,27.158428 56.1725,24.008428 56.1556932,21.0419508 C56.0421023,21.8877841 56.0813182,22.7690341 56.0081023,23.6137311 C55.8135682,25.8516098 55.9638636,28.1546402 55.9644432,30.4004735 C55.9644432,30.8487689 55.9909091,31.2857008 55.9970909,31.7213068 L55.9970909,31.7213068 Z M57.8033409,6.89914773 L57.8033409,53.0491477 C57.4080909,53.1046402 57.0163182,53.1739583 56.6164318,53.214678 C56.7066477,51.2815341 56.6363295,49.3317235 56.6363295,47.3974432 C56.6363295,45.4417614 56.6359432,43.4866477 56.6359432,41.5313447 C56.6359432,37.6177083 56.6359432,33.7042614 56.63575,29.7908144 C56.63575,22.3014205 56.7099318,14.8067235 56.6280227,7.31732955 C57.0178636,7.27869318 57.4098295,6.91695076 57.8033409,6.89914773 L57.8033409,6.89914773 Z" id="обрисовка"></path>
                </g>
            </g>
        </g>
    </g>
</svg>