<?xml version="1.0" encoding="UTF-8" standalone="no"?>
<svg width="94px" height="50px" viewBox="0 0 94 50" version="1.1" xmlns="http://www.w3.org/2000/svg" xmlns:xlink="http://www.w3.org/1999/xlink" xmlns:sketch="http://www.bohemiancoding.com/sketch/ns">
    <!-- Generator: Sketch 3.2.2 (9983) - http://www.bohemiancoding.com/sketch -->
    <title>LABELMEN</title>
    <desc>Created with Sketch.</desc>
    <defs>
        <path d="M88.8945297,0.142424242 L5.21115676,0.142424242 C2.40538378,0.142424242 0.129059459,2.40454545 0.129059459,5.19444444 L0.129059459,27.6944444 C0.129059459,30.4838384 1.98619459,32.0525253 5.21115676,32.7459596 L88.8945297,49.9772727 C91.7008108,49.9772727 93.9751027,47.7151515 93.9751027,44.9257576 L93.9751027,5.19444444 C93.9751027,2.40454545 91.7008108,0.142424242 88.8945297,0.142424242 L88.8945297,0.142424242 Z M5.00181622,6.98282828 C3.89312432,6.98282828 2.99377297,6.08838384 2.99377297,4.98636364 C2.99377297,3.88333333 3.89312432,2.98939394 5.00181622,2.98939394 C6.11152432,2.98939394 7.00985946,3.88333333 7.00985946,4.98636364 C7.00985946,6.08838384 6.11152432,6.98282828 5.00181622,6.98282828 L5.00181622,6.98282828 Z" id="path-1"></path>
        <path id="path-3" d="M28.764777,49.1046513 L23.402835,0.142424242 L4.08513978,0.142424242 L0.283644848,43.2400776 L28.764777,49.1046513"></path>
    </defs>
    <g id="Page-1" stroke="none" stroke-width="1" fill="none" fill-rule="evenodd" sketch:type="MSPage">
        <g id="О-чемпионате-(дизайн)" sketch:type="MSArtboardGroup" transform="translate(-663.000000, -6323.000000)">
            <g id="6_block" sketch:type="MSLayerGroup" transform="translate(0.000000, 5999.000000)">
                <g id="logo" transform="translate(569.000000, 324.000000)">
                    <g id="LABELMEN" transform="translate(94.000000, 0.000000)">
                        <g id="Group-5">
                            <mask id="mask-2" sketch:name="Clip 2" fill="white">
                                <use xlink:href="#path-1"></use>
                            </mask>
                            <g id="Clip-2"></g>
                            <path d="M88.8945297,0.142424242 L5.21115676,0.142424242 C2.40538378,0.142424242 0.129059459,2.40454545 0.129059459,5.19444444 L0.129059459,27.6944444 C0.129059459,30.4838384 1.98619459,32.0525253 5.21115676,32.7459596 L88.8945297,49.9772727 C91.7008108,49.9772727 93.9751027,47.7151515 93.9751027,44.9257576 L93.9751027,5.19444444 C93.9751027,2.40454545 91.7008108,0.142424242 88.8945297,0.142424242 L88.8945297,0.142424242 Z M5.00181622,6.98282828 C3.89312432,6.98282828 2.99377297,6.08838384 2.99377297,4.98636364 C2.99377297,3.88333333 3.89312432,2.98939394 5.00181622,2.98939394 C6.11152432,2.98939394 7.00985946,3.88333333 7.00985946,4.98636364 C7.00985946,6.08838384 6.11152432,6.98282828 5.00181622,6.98282828 L5.00181622,6.98282828 Z" id="Fill-1" fill="#84BF41" sketch:type="MSShapeGroup" mask="url(#mask-2)"></path>
                            <path d="M75.1273405,27.1474747 L15.7615135,9.31262626 C13.7707459,8.71464646 11.6681946,9.83434343 11.0655784,11.8141414 L6.21263784,27.7752525 C5.61052973,29.7545455 6.58965405,31.2631313 8.72777297,32.4424242 L64.3767892,62.5025253 C66.368573,63.1005051 68.4690919,61.979798 69.0712,60.0005051 L77.6414595,31.8146465 C78.2435676,29.8348485 77.1191243,27.7454545 75.1273405,27.1474747" id="Fill-3" fill="#0D8B42" sketch:type="MSShapeGroup" mask="url(#mask-2)"></path>
                            <path d="M94.9725189,57.5484848 L87.3829081,-11.7555556 C87.1288541,-14.079798 85.1065838,-15.7676768 82.865827,-15.5257576 L64.8036,-13.5722222 C62.5633514,-13.3292929 61.4724432,-11.6550505 61.208227,-8.92424242 L54.9630703,61.8772727 C55.2186486,64.2025253 57.2409189,65.8878788 59.4806595,65.6459596 L91.3771459,62.1954545 C93.6179027,61.9520202 95.2280973,59.8732323 94.9725189,57.5484848" id="Fill-4" fill="#572A79" sketch:type="MSShapeGroup" mask="url(#mask-2)"></path>
                        </g>
                        <g id="Group-8" transform="translate(55.891892, 0.000000)">
                            <mask id="mask-4" sketch:name="Clip 7" fill="white">
                                <use xlink:href="#path-3"></use>
                            </mask>
                            <g id="Clip-7"></g>
                            <path d="M19.2354486,27.1474747 L-40.1303784,9.31262626 C-42.1211459,8.71464646 -44.2236973,9.83434343 -44.8263135,11.8141414 L-49.6792541,27.7752525 C-50.2813622,29.7545455 -49.3022378,31.2631313 -47.1641189,32.4424242 L8.4848973,62.5025253 C10.4766811,63.1005051 12.5772,61.979798 13.1793081,60.0005051 L21.7495676,31.8146465 C22.3516757,29.8348485 21.2272324,27.7454545 19.2354486,27.1474747" id="Fill-6" fill="#1A1918" sketch:type="MSShapeGroup" mask="url(#mask-4)"></path>
                        </g>
                        <path d="M14.8281189,20.3333333 C14.3311892,20.4494949 12.8871459,20.5651515 12.0076108,20.5651515 C9.84916757,20.5651515 8.17393514,19.9873737 8.17393514,17.1828283 L8.17393514,8.50555556 C8.17393514,8.32474747 8.32331892,8.17575758 8.50572973,8.17575758 L10.1484432,8.17575758 C10.3308541,8.17575758 10.4802378,8.32474747 10.4802378,8.50555556 L10.4802378,17.1828283 C10.4802378,18.2717172 10.8125405,18.6015152 11.7754054,18.6015152 L14.8281189,18.6015152 C15.0110378,18.6015152 15.1604216,18.7494949 15.1604216,18.9313131 L15.1604216,19.9873737 C15.1604216,20.2181818 15.0776,20.2843434 14.8281189,20.3333333" id="Fill-9" fill="#FFFFFF" sketch:type="MSShapeGroup"></path>
                        <path d="M25.5989946,20.4328283 L23.8399243,20.4328283 C23.6910486,20.4328283 23.5574162,20.3010101 23.5243892,20.1520202 L22.7607027,17.0176768 L18.9437946,17.0176768 L18.1806162,20.1520202 C18.1470811,20.3010101 18.0139568,20.4328283 17.8655892,20.4328283 L16.1055027,20.4328283 C15.9403676,20.4328283 15.8067351,20.3171717 15.8067351,20.1520202 C15.8067351,20.1358586 15.8240108,20.1030303 15.8240108,20.070202 L18.5454378,9.72626263 C18.9437946,8.19242424 20.1383568,8.04393939 20.8527568,8.04393939 C21.5661405,8.04393939 22.7607027,8.19242424 23.1595676,9.72626263 L25.8804865,20.070202 C25.8804865,20.1030303 25.8972541,20.1358586 25.8972541,20.1520202 C25.8972541,20.3171717 25.7651459,20.4328283 25.5989946,20.4328283 L25.5989946,20.4328283 Z M21.1179892,10.2378788 C21.0681946,10.040404 21.0189081,9.97424242 20.8527568,9.97424242 C20.6860973,9.97424242 20.6368108,10.040404 20.5865081,10.2378788 L19.3919459,15.1373737 L22.3125514,15.1373737 L21.1179892,10.2378788 L21.1179892,10.2378788 Z" id="Fill-10" fill="#FFFFFF" sketch:type="MSShapeGroup"></path>
                        <path d="M31.1256865,20.5651515 C29.7812324,20.5651515 28.768573,20.4818182 28.2538595,20.3838384 C27.706627,20.2843434 27.4581622,20.1030303 27.4581622,19.4924242 L27.4581622,9.09949495 C27.4581622,8.50555556 27.6736,8.29141414 28.2040649,8.20909091 C28.6364649,8.14292929 29.6816432,8.04393939 30.9763027,8.04393939 C33.9802378,8.04393939 36.0873622,8.9020202 36.0873622,11.3924242 L36.0873622,11.7222222 C36.0873622,12.8116162 35.5726486,13.7848485 34.5610054,14.2136364 C35.5726486,14.6424242 36.1706919,15.4838384 36.1706919,16.7212121 L36.1706919,17.0015152 C36.1706919,19.6247475 34.2124432,20.5651515 31.1256865,20.5651515 L31.1256865,20.5651515 Z M33.8476216,11.5252525 C33.8476216,10.369697 33.1001946,9.94090909 30.9763027,9.94090909 C30.5779459,9.94090909 30.113027,9.95808081 29.764973,9.97424242 L29.764973,13.3227273 L31.8715892,13.3227273 C33.4147135,13.3227273 33.8476216,12.5974747 33.8476216,11.7555556 L33.8476216,11.5252525 L33.8476216,11.5252525 Z M33.9131676,16.7540404 C33.9131676,15.8464646 33.4314811,15.0050505 31.8715892,15.0050505 L29.764973,15.0050505 L29.764973,18.6348485 C30.1628216,18.6348485 30.7766162,18.6676768 31.1256865,18.6676768 C33.2500865,18.6676768 33.9131676,18.1227273 33.9131676,16.9681818 L33.9131676,16.7540404 L33.9131676,16.7540404 Z" id="Fill-11" fill="#FFFFFF" sketch:type="MSShapeGroup"></path>
                        <path d="M45.2312757,20.3333333 C44.7013189,20.4161616 44.0534811,20.5651515 42.0784649,20.5651515 C39.9205297,20.5651515 38.2447892,19.9873737 38.2447892,17.1828283 L38.2447892,11.4252525 C38.2447892,8.62121212 39.9205297,8.04393939 42.0784649,8.04393939 C44.0534811,8.04393939 44.7013189,8.19242424 45.2312757,8.27525253 C45.4807568,8.30757576 45.5635784,8.39040404 45.5635784,8.62121212 L45.5635784,9.67676768 C45.5635784,9.85858586 45.4141946,10.0075758 45.2312757,10.0075758 L41.8462595,10.0075758 C40.8839027,10.0075758 40.5348324,10.3368687 40.5348324,11.4252525 L40.5348324,13.2080808 L45.0331135,13.2080808 C45.2155243,13.2080808 45.3649081,13.3555556 45.3649081,13.5373737 L45.3649081,14.7252525 C45.3649081,14.9060606 45.2155243,15.0550505 45.0331135,15.0550505 L40.5348324,15.0550505 L40.5348324,17.1828283 C40.5348324,18.2717172 40.8839027,18.6015152 41.8462595,18.6015152 L45.2312757,18.6015152 C45.4141946,18.6015152 45.5635784,18.7494949 45.5635784,18.9313131 L45.5635784,19.9873737 C45.5635784,20.2181818 45.4807568,20.3010101 45.2312757,20.3333333" id="Fill-12" fill="#FFFFFF" sketch:type="MSShapeGroup"></path>
                        <path d="M54.459027,20.3333333 C53.9610811,20.4494949 52.5175459,20.5651515 51.6375027,20.5651515 C49.4795676,20.5651515 47.8043351,19.9873737 47.8043351,17.1828283 L47.8043351,8.50555556 C47.8043351,8.32474747 47.9532108,8.17575758 48.1361297,8.17575758 L49.7788432,8.17575758 C49.9617622,8.17575758 50.1106378,8.32474747 50.1106378,8.50555556 L50.1106378,17.1828283 C50.1106378,18.2717172 50.4429405,18.6015152 51.4052973,18.6015152 L54.459027,18.6015152 C54.6419459,18.6015152 54.7908216,18.7494949 54.7908216,18.9313131 L54.7908216,19.9873737 C54.7908216,20.2181818 54.7090162,20.2843434 54.459027,20.3333333" id="Fill-13" fill="#FFFFFF" sketch:type="MSShapeGroup"></path>
                        <path d="M65.9996865,20.4085859 L65.8335351,20.4085859 C65.6684,20.4085859 65.5520432,20.2606061 65.5520432,20.0949495 L65.5520432,8.87777778 C65.5520432,8.79545455 65.5017405,8.76212121 65.4346703,8.76212121 C65.3523568,8.76212121 65.3188216,8.79545455 65.2700432,8.91111111 L62.3982162,14.9313131 C62.1655027,15.410101 61.9175459,15.5262626 61.5527243,15.5262626 C61.1863784,15.5262626 60.9374054,15.410101 60.7057081,14.9313131 L57.8348973,8.91111111 C57.7851027,8.79545455 57.7520757,8.76212121 57.6682378,8.76212121 C57.6016757,8.76212121 57.5518811,8.79545455 57.5518811,8.87777778 L57.5518811,20.0949495 C57.5518811,20.2606061 57.4360324,20.4085859 57.2703892,20.4085859 L57.1042378,20.4085859 C56.9375784,20.4085859 56.8217297,20.2606061 56.8217297,20.0949495 L56.8217297,8.87777778 C56.8217297,8.33333333 57.1540324,8.06919192 57.6682378,8.06919192 C58.0665946,8.06919192 58.2993081,8.30050505 58.4314162,8.58030303 L61.3362703,14.6348485 C61.4023243,14.7833333 61.4521189,14.85 61.5527243,14.85 C61.6512973,14.85 61.7010919,14.7833333 61.7676541,14.6348485 L64.672,8.58030303 C64.8041081,8.30050505 65.0368216,8.06919192 65.4346703,8.06919192 C65.9498919,8.06919192 66.2821946,8.33333333 66.2821946,8.87777778 L66.2821946,20.0949495 C66.2821946,20.2606061 66.1653297,20.4085859 65.9996865,20.4085859" id="Fill-14" fill="#FFFFFF" sketch:type="MSShapeGroup"></path>
                        <path d="M75.2269297,20.4085859 L70.9451027,20.4085859 C69.6829622,20.4085859 68.9375676,19.9469697 68.9375676,18.5611111 L68.9375676,9.99949495 C68.9375676,8.61363636 69.6829622,8.1520202 70.9451027,8.1520202 L75.2269297,8.1520202 C75.4093405,8.1520202 75.5419568,8.26767677 75.5419568,8.43232323 L75.5419568,8.56414141 C75.5419568,8.72929293 75.4093405,8.82777778 75.2269297,8.82777778 L70.9451027,8.82777778 C70.1483892,8.82777778 69.6661946,8.97676768 69.6661946,9.99949495 L69.6661946,13.6282828 L75.2269297,13.6282828 C75.4093405,13.6282828 75.5419568,13.7272727 75.5419568,13.8919192 L75.5419568,14.0575758 C75.5419568,14.2222222 75.4093405,14.3378788 75.2269297,14.3378788 L69.6661946,14.3378788 L69.6661946,18.5611111 C69.6661946,19.5843434 70.1483892,19.7313131 70.9451027,19.7313131 L75.2269297,19.7313131 C75.4093405,19.7313131 75.5419568,19.8308081 75.5419568,19.9959596 L75.5419568,20.1277778 C75.5419568,20.2929293 75.4093405,20.4085859 75.2269297,20.4085859" id="Fill-15" fill="#FFFFFF" sketch:type="MSShapeGroup"></path>
                        <path d="M85.1843243,20.5070707 L85.1675568,20.5070707 C84.9185838,20.5070707 84.7697081,20.5070707 84.6203243,20.3919192 C84.5207351,20.309596 84.4038703,20.1772727 84.3215568,20.0131313 L78.7283027,8.87777778 C78.6952757,8.81161616 78.6617405,8.76212121 78.5951784,8.76212121 C78.5621514,8.76212121 78.5128649,8.79545455 78.5128649,8.87777778 L78.5128649,20.0949495 C78.5128649,20.2606061 78.396,20.4085859 78.2303568,20.4085859 L78.0647135,20.4085859 C77.8990703,20.4085859 77.7816973,20.2606061 77.7816973,20.0949495 L77.7816973,8.87777778 C77.7816973,8.38282828 78.114,8.06919192 78.5951784,8.06919192 C79.0600973,8.06919192 79.2430162,8.26767677 79.3918919,8.58030303 L84.9683784,19.6994949 C85.0014054,19.7651515 85.0344324,19.8141414 85.1009946,19.8141414 C85.1675568,19.8141414 85.1843243,19.7313131 85.1843243,19.6661616 L85.1843243,8.46515152 C85.1843243,8.30050505 85.2834054,8.1520202 85.4490486,8.1520202 L85.6487351,8.1520202 C85.8311459,8.1520202 85.9312432,8.30050505 85.9312432,8.46515152 L85.9312432,19.6661616 C85.9312432,20.1934343 85.5989405,20.5070707 85.1843243,20.5070707" id="Fill-16" fill="#FFFFFF" sketch:type="MSShapeGroup"></path>
                        <path d="M40.1064973,28.4353535 L38.8326703,28.4353535 C38.7869405,28.4353535 38.7671243,28.409596 38.7671243,28.370202 L38.7671243,24.4727273 C38.7671243,24.4333333 38.7803351,24.4075758 38.826573,24.4075758 L40.0221514,24.4075758 C40.6913297,24.4075758 41.1252541,24.760101 41.1252541,25.4318182 C41.1252541,25.7328283 40.9469081,26.0792929 40.6389946,26.2419192 C40.6252757,26.2550505 40.6252757,26.2747475 40.6456,26.2878788 C41.0459892,26.4505051 41.2431351,26.8621212 41.2431351,27.2666667 C41.2431351,27.9520202 40.8092108,28.4353535 40.1064973,28.4353535 L40.1064973,28.4353535 Z M40.0145297,24.7661616 L39.2335676,24.7661616 C39.2005405,24.7661616 39.1873297,24.7727273 39.1873297,24.8121212 L39.1873297,26.0459596 C39.1873297,26.0858586 39.1939351,26.0989899 39.2335676,26.0989899 L40.0221514,26.0989899 C40.4545514,26.0989899 40.7111459,25.8111111 40.7111459,25.4262626 C40.7111459,25.0282828 40.4616649,24.7661616 40.0145297,24.7661616 L40.0145297,24.7661616 Z M40.0282486,26.4570707 L39.2335676,26.4570707 C39.2005405,26.4570707 39.1873297,26.4707071 39.1873297,26.5090909 L39.1873297,28.0242424 C39.1873297,28.0565657 39.2071459,28.069697 39.2396649,28.069697 L40.0937946,28.069697 C40.5536324,28.069697 40.8229297,27.7308081 40.8229297,27.2792929 C40.8229297,26.8489899 40.5663351,26.4570707 40.0282486,26.4570707 L40.0282486,26.4570707 Z" id="Fill-17" fill="#FFFFFF" sketch:type="MSShapeGroup"></path>
                        <path d="M43.7064432,26.6333333 C43.6871351,26.6469697 43.6871351,26.6666667 43.6937405,26.6853535 C43.7064432,26.7050505 43.9889514,27.3191919 44.4686054,28.3247475 C44.5082378,28.409596 44.4553946,28.4353535 44.4096649,28.4353535 L44.1535784,28.4353535 C44.0478919,28.4353535 44.0224865,28.4035354 43.9960649,28.3308081 L43.2796324,26.789899 C43.2598162,26.7510101 43.2405081,26.7247475 43.1744541,26.7247475 L42.3863784,26.7247475 C42.3472541,26.7247475 42.3340432,26.7444444 42.3340432,26.7777778 L42.3340432,28.370202 C42.3340432,28.409596 42.3147351,28.4353535 42.2756108,28.4353535 L41.9859892,28.4353535 C41.9468649,28.4353535 41.9209514,28.4156566 41.9209514,28.3767677 L41.9209514,24.4792929 C41.9209514,24.4333333 41.9468649,24.4075758 41.9925946,24.4075758 L43.1617514,24.4075758 C43.9432216,24.4075758 44.3309081,24.8515152 44.3309081,25.5171717 C44.3309081,26.0005051 44.0224865,26.4116162 43.7064432,26.6333333 L43.7064432,26.6333333 Z M42.3929838,24.7661616 C42.3538595,24.7661616 42.3340432,24.7858586 42.3340432,24.8191919 L42.3340432,26.3141414 C42.3340432,26.3464646 42.3472541,26.3661616 42.3792649,26.3661616 L43.3451784,26.3661616 C43.3980216,26.3661616 43.4376541,26.3464646 43.4574703,26.3333333 C43.7262595,26.170202 43.9035892,25.8434343 43.9035892,25.5631313 C43.9035892,25.1974747 43.7526811,24.7661616 43.0896,24.7661616 L42.3929838,24.7661616 L42.3929838,24.7661616 Z" id="Fill-18" fill="#FFFFFF" sketch:type="MSShapeGroup"></path>
                        <path d="M47.1158486,28.4353535 C47.0701189,28.4353535 47.0497946,28.4222222 47.0365838,28.389899 L46.7871027,27.4954545 C46.7810054,27.4752525 46.7738919,27.4691919 46.7545838,27.4691919 L45.4202919,27.4691919 C45.3948865,27.4691919 45.3882811,27.4752525 45.3811676,27.4888889 C45.3420432,27.6712121 45.1850378,28.2075758 45.1382919,28.389899 C45.1321946,28.4222222 45.105773,28.4353535 45.0661405,28.4353535 L44.7973514,28.4353535 C44.7450162,28.4353535 44.7180865,28.4222222 44.7312973,28.3565657 L45.7891784,24.4727273 C45.7952757,24.439899 45.8150919,24.4075758 45.867427,24.4075758 L46.3074486,24.4075758 C46.3531784,24.4075758 46.3735027,24.420202 46.3867135,24.4656566 L47.4639027,28.3439394 C47.4766054,28.3833333 47.4832108,28.4353535 47.4171568,28.4353535 L47.1158486,28.4353535 L47.1158486,28.4353535 Z M45.8608216,25.7005051 L45.4863459,27.0707071 C45.4802486,27.1106061 45.4863459,27.1166667 45.5122595,27.1166667 L46.6494054,27.1166667 C46.6890378,27.1166667 46.6951351,27.1106061 46.6890378,27.0707071 L46.3145622,25.7070707 L46.1042054,24.8646465 C46.0976,24.8378788 46.0782919,24.8378788 46.0716865,24.8646465 L45.8608216,25.7005051 L45.8608216,25.7005051 Z" id="Fill-19" fill="#FFFFFF" sketch:type="MSShapeGroup"></path>
                        <path d="M48.2717946,24.4075758 C48.3571568,24.4075758 48.376973,24.4469697 48.41,24.4924242 L50.1177514,27.5934343 C50.1243568,27.6060606 50.1370595,27.6131313 50.1370595,27.5934343 L50.1370595,24.4727273 C50.1370595,24.4333333 50.1502703,24.4075758 50.1965081,24.4075758 L50.4785081,24.4075758 C50.5181405,24.4075758 50.5379568,24.4333333 50.5379568,24.4656566 L50.5379568,28.3308081 C50.5379568,28.4156566 50.4851135,28.4353535 50.4393838,28.4353535 L50.2356324,28.4353535 C50.1573838,28.4353535 50.1309622,28.409596 50.1045405,28.3565657 L48.3972973,25.2691919 C48.3906919,25.2555556 48.376973,25.2494949 48.376973,25.2691919 L48.376973,28.370202 C48.376973,28.409596 48.3637622,28.4353535 48.3119351,28.4353535 L48.0350162,28.4353535 C47.9964,28.4353535 47.9765838,28.409596 47.9765838,28.370202 L47.9765838,24.5313131 C47.9765838,24.4535354 47.9887784,24.4075758 48.0817622,24.4075758 L48.2717946,24.4075758" id="Fill-20" fill="#FFFFFF" sketch:type="MSShapeGroup"></path>
                        <path d="M52.5815676,28.4353535 L51.3859892,28.4353535 C51.3463568,28.4353535 51.3199351,28.409596 51.3199351,28.370202 L51.3199351,24.4727273 C51.3199351,24.4333333 51.3463568,24.4075758 51.3859892,24.4075758 L52.5876649,24.4075758 C53.3361081,24.4075758 53.7441189,24.8060606 53.7441189,25.5242424 L53.7441189,27.2792929 C53.7441189,28.0308081 53.3168,28.4353535 52.5815676,28.4353535 L52.5815676,28.4353535 Z M53.3168,25.4974747 C53.3168,25.0343434 53.0805297,24.7661616 52.5612432,24.7661616 L51.7929838,24.7661616 C51.7604649,24.7661616 51.7406486,24.7727273 51.7406486,24.8121212 L51.7406486,28.0242424 C51.7406486,28.0565657 51.7538595,28.069697 51.7929838,28.069697 L52.5876649,28.069697 C53.0536,28.069697 53.3168,27.8085859 53.3168,27.3383838 L53.3168,25.4974747 L53.3168,25.4974747 Z" id="Fill-21" fill="#FFFFFF" sketch:type="MSShapeGroup"></path>
                        <path d="M58.0660865,28.4353535 L55.9376216,28.4353535 C55.8984973,28.4353535 55.8659784,28.409596 55.8659784,28.370202 L55.8659784,24.4727273 C55.8659784,24.4333333 55.8918919,24.4075758 55.9376216,24.4075758 L58.0132432,24.4075758 C58.0528757,24.4075758 58.0792973,24.4333333 58.0792973,24.4727273 L58.0792973,24.7075758 C58.0792973,24.7464646 58.0594811,24.7661616 58.0132432,24.7661616 L56.339027,24.7661616 C56.306,24.7661616 56.2861838,24.7727273 56.2861838,24.8121212 L56.2861838,26.1181818 C56.2861838,26.1505051 56.2988865,26.1636364 56.3324216,26.1636364 L57.7571568,26.1636364 C57.8033946,26.1636364 57.8227027,26.1833333 57.8227027,26.2292929 L57.8227027,26.4707071 C57.8227027,26.5090909 57.8033946,26.5287879 57.7642703,26.5287879 L56.339027,26.5287879 C56.306,26.5287879 56.2861838,26.5419192 56.2861838,26.5813131 L56.2861838,28.0242424 C56.2861838,28.0565657 56.306,28.069697 56.3324216,28.069697 L58.0660865,28.069697 C58.1052108,28.069697 58.1316324,28.0893939 58.1316324,28.1287879 L58.1316324,28.370202 C58.1316324,28.409596 58.1113081,28.4353535 58.0660865,28.4353535" id="Fill-22" fill="#FFFFFF" sketch:type="MSShapeGroup"></path>
                        <path d="M59.0187892,24.4075758 C59.1041514,24.4075758 59.1239676,24.4469697 59.1564865,24.4924242 L60.8647459,27.5934343 C60.8708432,27.6060606 60.8835459,27.6131313 60.8835459,27.5934343 L60.8835459,24.4727273 C60.8835459,24.4333333 60.8972649,24.4075758 60.9429946,24.4075758 L61.2249946,24.4075758 C61.2651351,24.4075758 61.2849514,24.4333333 61.2849514,24.4656566 L61.2849514,28.3308081 C61.2849514,28.4156566 61.2316,28.4353535 61.1858703,28.4353535 L60.982627,28.4353535 C60.9038703,28.4353535 60.8769405,28.409596 60.851027,28.3565657 L59.1432757,25.2691919 C59.1376865,25.2555556 59.1239676,25.2494949 59.1239676,25.2691919 L59.1239676,28.370202 C59.1239676,28.409596 59.1102486,28.4353535 59.0579135,28.4353535 L58.7820108,28.4353535 C58.7433946,28.4353535 58.7235784,28.409596 58.7235784,28.370202 L58.7235784,24.5313131 C58.7235784,24.4535354 58.7362811,24.4075758 58.8287568,24.4075758 L59.0187892,24.4075758" id="Fill-23" fill="#FFFFFF" sketch:type="MSShapeGroup"></path>
                        <path d="M63.2553946,28.4747475 C62.5658919,28.4747475 62.0466054,28.0833333 62.0466054,27.3974747 L62.0466054,25.4318182 C62.0466054,24.7924242 62.5724973,24.3550505 63.2553946,24.3550505 C63.6618811,24.3550505 64.1024108,24.5050505 64.3127676,24.8318182 C64.3386811,24.8843434 64.3320757,24.9035354 64.2863459,24.9429293 L64.1024108,25.0863636 C64.0622703,25.1191919 64.0104432,25.0994949 63.9774162,25.0535354 C63.8072,24.8191919 63.510973,24.7267677 63.262,24.7267677 C62.7564324,24.7267677 62.4668108,25.0606061 62.4668108,25.4717172 L62.4668108,27.3843434 C62.4668108,27.8222222 62.7955568,28.1156566 63.2553946,28.1156566 C63.6883027,28.1156566 63.9967243,27.8545455 63.9967243,27.3909091 L63.9967243,26.6792929 C63.9967243,26.6469697 63.990627,26.6267677 63.9581081,26.6267677 L63.4261189,26.6267677 C63.3864865,26.6267677 63.3600649,26.6136364 63.3600649,26.5681818 L63.3600649,26.3207071 C63.3600649,26.2813131 63.379373,26.2550505 63.4261189,26.2550505 L64.3584973,26.2550505 C64.3981297,26.2550505 64.4306486,26.2813131 64.4306486,26.3207071 L64.4306486,27.3974747 C64.4306486,28.0242424 63.9581081,28.4747475 63.2553946,28.4747475" id="Fill-24" fill="#FFFFFF" sketch:type="MSShapeGroup"></path>
                        <path d="M65.6267351,28.4353535 L65.3315243,28.4353535 C65.2918919,28.4353535 65.2659784,28.4156566 65.2659784,28.3767677 L65.2659784,24.4656566 C65.2659784,24.4267677 65.2852865,24.4075758 65.3315243,24.4075758 L65.6267351,24.4075758 C65.6668757,24.4075758 65.6927892,24.4333333 65.6927892,24.4656566 L65.6927892,28.370202 C65.6927892,28.409596 65.672973,28.4353535 65.6267351,28.4353535" id="Fill-25" fill="#FFFFFF" sketch:type="MSShapeGroup"></path>
                        <path d="M66.9010703,24.4075758 C66.9864324,24.4075758 67.0062486,24.4469697 67.0387676,24.4924242 L68.747027,27.5934343 C68.7531243,27.6060606 68.765827,27.6131313 68.765827,27.5934343 L68.765827,24.4727273 C68.765827,24.4333333 68.7800541,24.4075758 68.8252757,24.4075758 L69.1077838,24.4075758 C69.1479243,24.4075758 69.1672324,24.4333333 69.1672324,24.4656566 L69.1672324,28.3308081 C69.1672324,28.4156566 69.1138811,28.4353535 69.0681514,28.4353535 L68.8649081,28.4353535 C68.7861514,28.4353535 68.7592216,28.409596 68.7338162,28.3565657 L67.0260649,25.2691919 C67.0199676,25.2555556 67.0062486,25.2494949 67.0062486,25.2691919 L67.0062486,28.370202 C67.0062486,28.409596 66.9925297,28.4353535 66.9407027,28.4353535 L66.6648,28.4353535 C66.6256757,28.4353535 66.6058595,28.409596 66.6058595,28.370202 L66.6058595,24.5313131 C66.6058595,24.4535354 66.6185622,24.4075758 66.7110378,24.4075758 L66.9010703,24.4075758" id="Fill-26" fill="#FFFFFF" sketch:type="MSShapeGroup"></path>
                        <path d="M72.1432216,28.4353535 L70.0152649,28.4353535 C69.9756324,28.4353535 69.9426054,28.409596 69.9426054,28.370202 L69.9426054,24.4727273 C69.9426054,24.4333333 69.9695351,24.4075758 70.0152649,24.4075758 L72.0903784,24.4075758 C72.1300108,24.4075758 72.1559243,24.4333333 72.1559243,24.4727273 L72.1559243,24.7075758 C72.1559243,24.7464646 72.1366162,24.7661616 72.0903784,24.7661616 L70.4156541,24.7661616 C70.3831351,24.7661616 70.3628108,24.7727273 70.3628108,24.8121212 L70.3628108,26.1181818 C70.3628108,26.1505051 70.3760216,26.1636364 70.4090486,26.1636364 L71.8337838,26.1636364 C71.8795135,26.1636364 71.8998378,26.1833333 71.8998378,26.2292929 L71.8998378,26.4707071 C71.8998378,26.5090909 71.8795135,26.5287879 71.8408973,26.5287879 L70.4156541,26.5287879 C70.3831351,26.5287879 70.3628108,26.5419192 70.3628108,26.5813131 L70.3628108,28.0242424 C70.3628108,28.0565657 70.3831351,28.069697 70.4090486,28.069697 L72.1432216,28.069697 C72.1823459,28.069697 72.2082595,28.0893939 72.2082595,28.1287879 L72.2082595,28.370202 C72.2082595,28.409596 72.1884432,28.4353535 72.1432216,28.4353535" id="Fill-27" fill="#FFFFFF" sketch:type="MSShapeGroup"></path>
                        <path d="M74.9998054,28.4353535 L72.8723568,28.4353535 C72.8327243,28.4353535 72.8002054,28.409596 72.8002054,28.370202 L72.8002054,24.4727273 C72.8002054,24.4333333 72.8261189,24.4075758 72.8723568,24.4075758 L74.9484865,24.4075758 C74.9876108,24.4075758 75.0135243,24.4333333 75.0135243,24.4727273 L75.0135243,24.7075758 C75.0135243,24.7464646 74.9937081,24.7661616 74.9484865,24.7661616 L73.2732541,24.7661616 C73.240227,24.7661616 73.2204108,24.7727273 73.2204108,24.8121212 L73.2204108,26.1181818 C73.2204108,26.1505051 73.2331135,26.1636364 73.2666486,26.1636364 L74.6913838,26.1636364 C74.7371135,26.1636364 74.7574378,26.1833333 74.7574378,26.2292929 L74.7574378,26.4707071 C74.7574378,26.5090909 74.7371135,26.5287879 74.6979892,26.5287879 L73.2732541,26.5287879 C73.240227,26.5287879 73.2204108,26.5419192 73.2204108,26.5813131 L73.2204108,28.0242424 C73.2204108,28.0565657 73.240227,28.069697 73.2666486,28.069697 L74.9998054,28.069697 C75.0399459,28.069697 75.0658595,28.0893939 75.0658595,28.1287879 L75.0658595,28.370202 C75.0658595,28.409596 75.0465514,28.4353535 74.9998054,28.4353535" id="Fill-28" fill="#FFFFFF" sketch:type="MSShapeGroup"></path>
                        <path d="M77.4631135,26.6333333 C77.4443135,26.6469697 77.4443135,26.6666667 77.4509189,26.6853535 C77.4631135,26.7050505 77.7461297,27.3191919 78.2257838,28.3247475 C78.2649081,28.409596 78.2120649,28.4353535 78.1663351,28.4353535 L77.9102486,28.4353535 C77.8050703,28.4353535 77.7791568,28.4035354 77.7532432,28.3308081 L77.0368108,26.789899 C77.0169946,26.7510101 76.9971784,26.7247475 76.9316324,26.7247475 L76.1435568,26.7247475 C76.1044324,26.7247475 76.0907135,26.7444444 76.0907135,26.7777778 L76.0907135,28.370202 C76.0907135,28.409596 76.0719135,28.4353535 76.0322811,28.4353535 L75.7431676,28.4353535 C75.7040432,28.4353535 75.6776216,28.4156566 75.6776216,28.3767677 L75.6776216,24.4792929 C75.6776216,24.4333333 75.7040432,24.4075758 75.749773,24.4075758 L76.9184216,24.4075758 C77.7004,24.4075758 78.0880865,24.8515152 78.0880865,25.5171717 C78.0880865,26.0005051 77.7791568,26.4116162 77.4631135,26.6333333 L77.4631135,26.6333333 Z M76.1501622,24.7661616 C76.1105297,24.7661616 76.0907135,24.7858586 76.0907135,24.8191919 L76.0907135,26.3141414 C76.0907135,26.3464646 76.1044324,26.3661616 76.1369514,26.3661616 L77.1023568,26.3661616 C77.1546919,26.3661616 77.1943243,26.3464646 77.2141405,26.3333333 C77.4834378,26.170202 77.6607676,25.8434343 77.6607676,25.5631313 C77.6607676,25.1974747 77.5098595,24.7661616 76.8462703,24.7661616 L76.1501622,24.7661616 L76.1501622,24.7661616 Z" id="Fill-29" fill="#FFFFFF" sketch:type="MSShapeGroup"></path>
                        <path d="M79.2430162,28.4353535 L78.9478054,28.4353535 C78.9091892,28.4353535 78.8822595,28.4156566 78.8822595,28.3767677 L78.8822595,24.4656566 C78.8822595,24.4267677 78.9025838,24.4075758 78.9478054,24.4075758 L79.2430162,24.4075758 C79.2831568,24.4075758 79.3095784,24.4333333 79.3095784,24.4656566 L79.3095784,28.370202 C79.3095784,28.409596 79.2892541,28.4353535 79.2430162,28.4353535" id="Fill-30" fill="#FFFFFF" sketch:type="MSShapeGroup"></path>
                        <path d="M80.5183676,24.4075758 C80.6037297,24.4075758 80.6235459,24.4469697 80.6555568,24.4924242 L82.3638162,27.5934343 C82.3704216,27.6060606 82.3831243,27.6131313 82.3831243,27.5934343 L82.3831243,24.4727273 C82.3831243,24.4333333 82.3963351,24.4075758 82.4420649,24.4075758 L82.7250811,24.4075758 C82.7642054,24.4075758 82.7840216,24.4333333 82.7840216,24.4656566 L82.7840216,28.3308081 C82.7840216,28.4156566 82.7316865,28.4353535 82.6854486,28.4353535 L82.4816973,28.4353535 C82.4029405,28.4353535 82.377027,28.409596 82.3506054,28.3565657 L80.6433622,25.2691919 C80.6362486,25.2555556 80.6235459,25.2494949 80.6235459,25.2691919 L80.6235459,28.370202 C80.6235459,28.409596 80.609827,28.4353535 80.5574919,28.4353535 L80.2815892,28.4353535 C80.2424649,28.4353535 80.2226486,28.409596 80.2226486,28.370202 L80.2226486,24.5313131 C80.2226486,24.4535354 80.2353514,24.4075758 80.327827,24.4075758 L80.5183676,24.4075758" id="Fill-31" fill="#FFFFFF" sketch:type="MSShapeGroup"></path>
                        <path d="M84.754973,28.4747475 C84.0654703,28.4747475 83.5461838,28.0833333 83.5461838,27.3974747 L83.5461838,25.4318182 C83.5461838,24.7924242 84.0720757,24.3550505 84.754973,24.3550505 C85.1624757,24.3550505 85.6024973,24.5050505 85.8128541,24.8318182 C85.8392757,24.8843434 85.8326703,24.9035354 85.7859243,24.9429293 L85.6024973,25.0863636 C85.563373,25.1191919 85.5105297,25.0994949 85.4775027,25.0535354 C85.3072865,24.8191919 85.0105514,24.7267677 84.7615784,24.7267677 C84.2555027,24.7267677 83.9668973,25.0606061 83.9668973,25.4717172 L83.9668973,27.3843434 C83.9668973,27.8222222 84.2951351,28.1156566 84.754973,28.1156566 C85.1878811,28.1156566 85.4973189,27.8545455 85.4973189,27.3909091 L85.4973189,26.6792929 C85.4973189,26.6469697 85.4907135,26.6267677 85.4576865,26.6267677 L84.9262054,26.6267677 C84.886573,26.6267677 84.8606595,26.6136364 84.8606595,26.5681818 L84.8606595,26.3207071 C84.8606595,26.2813131 84.8794595,26.2550505 84.9262054,26.2550505 L85.8585838,26.2550505 C85.8982162,26.2550505 85.9312432,26.2813131 85.9312432,26.3207071 L85.9312432,27.3974747 C85.9312432,28.0242424 85.4576865,28.4747475 84.754973,28.4747475" id="Fill-32" fill="#FFFFFF" sketch:type="MSShapeGroup"></path>
                        <path d="M57.5000541,32.9772727 C57.5000541,33.6823232 57.1128757,34.2242424 56.3115892,34.2242424 L56.2191135,34.2242424 C55.4579676,34.2242424 55.0570703,33.7671717 55.0570703,33.0944444 L55.0570703,31.6257576 C55.0570703,30.9934343 55.5631459,30.5621212 56.2389297,30.5621212 L57.1128757,30.5621212 C57.1525081,30.5621212 57.1784216,30.5813131 57.1784216,30.6212121 L57.1784216,30.8494949 C57.1784216,30.8883838 57.1586054,30.9080808 57.1194811,30.9080808 L56.2389297,30.9080808 C55.7801081,30.9080808 55.4579676,31.2015152 55.4579676,31.6257576 L55.4579676,33.0878788 C55.4579676,33.5060606 55.6419027,33.8848485 56.2191135,33.8848485 L56.3115892,33.8848485 C56.9020108,33.8848485 57.1062703,33.4611111 57.1062703,33.0429293 L57.1062703,32.2979798 C57.1062703,32.2787879 57.1062703,32.2328283 57.0407243,32.2328283 L56.2719568,32.2328283 C56.2328324,32.2328283 56.2130162,32.2131313 56.2130162,32.1742424 L56.2130162,31.9590909 C56.2130162,31.919697 56.2460432,31.8939394 56.2785622,31.8939394 L57.5656,31.8939394 C57.7764649,31.8939394 58.0193405,31.8479798 58.2556108,31.6843434 C58.275427,31.6646465 58.2947351,31.6585859 58.3150595,31.6585859 C58.3348757,31.6585859 58.3541838,31.6722222 58.374,31.6914141 L58.4532649,31.8146465 C58.4720649,31.8409091 58.4791784,31.8606061 58.4791784,31.880303 C58.4791784,31.9065657 58.4654595,31.919697 58.4461514,31.9388889 C58.2622162,32.1217172 57.8481081,32.2131313 57.6057405,32.2267677 C57.5335892,32.2328283 57.5000541,32.2590909 57.5000541,32.3242424 L57.5000541,32.9772727" id="Fill-33" fill="#FFFFFF" sketch:type="MSShapeGroup"></path>
                        <path d="M63.3402486,34.1848485 L63.0638378,34.1848485 C63.0115027,34.1848485 62.9977838,34.1590909 62.9977838,34.1262626 L62.9977838,31.2469697 C62.9977838,31.2212121 62.9855892,31.2287879 62.9723784,31.2409091 L62.5516649,32.3772727 C62.4464865,32.6383838 62.0262811,33.7085859 61.9343135,33.9631313 C61.9144973,33.9954545 61.8885838,34.0414141 61.828627,34.0414141 L61.6258919,34.0414141 C61.5664432,34.0414141 61.5405297,34.0348485 61.5136,33.9691919 C61.4155351,33.6954545 61.0019351,32.6247475 60.8967568,32.3510101 C60.8637297,32.2590909 60.5293946,31.3454545 60.4897622,31.2540404 C60.4831568,31.2409091 60.4699459,31.2348485 60.4699459,31.2540404 L60.4699459,34.119697 C60.4699459,34.1590909 60.456227,34.1848485 60.4104973,34.1848485 L60.1351027,34.1848485 C60.0949622,34.1848485 60.0690486,34.1651515 60.0690486,34.1262626 L60.0690486,30.2621212 C60.0690486,30.2030303 60.0949622,30.1570707 60.1676216,30.1570707 L60.371373,30.1570707 C60.4633405,30.1570707 60.4760432,30.170202 60.5024649,30.2353535 C60.653373,30.6409091 61.2509081,32.2267677 61.4084216,32.6308081 L61.7107459,33.4737374 C61.7239568,33.5 61.7498703,33.5 61.7630811,33.4737374 C61.8616541,33.1989899 61.960227,32.8994949 62.0659135,32.6247475 L62.965773,30.2292929 C62.9977838,30.1767677 63.0242054,30.1570707 63.0897514,30.1570707 L63.3011243,30.1570707 C63.3864865,30.1570707 63.3986811,30.2030303 63.3986811,30.2621212 L63.3986811,34.119697 C63.3986811,34.1651515 63.379373,34.1848485 63.3402486,34.1848485" id="Fill-34" fill="#FFFFFF" sketch:type="MSShapeGroup"></path>
                        <path d="M66.236973,34.1848485 C66.1912432,34.1848485 66.171427,34.1717172 66.1577081,34.1388889 L65.9087351,33.2449495 C65.9021297,33.2252525 65.8955243,33.2186869 65.8757081,33.2186869 L64.5429405,33.2186869 C64.5160108,33.2186869 64.5099135,33.2252525 64.5022919,33.2383838 C64.4641838,33.4212121 64.3061622,33.9570707 64.2594162,34.1388889 C64.2533189,34.1717172 64.2268973,34.1848485 64.187773,34.1848485 L63.9179676,34.1848485 C63.8661405,34.1848485 63.8392108,34.1717172 63.8524216,34.1065657 L64.9103027,30.2227273 C64.9169081,30.1893939 64.9362162,30.1570707 64.9885514,30.1570707 L65.428573,30.1570707 C65.4748108,30.1570707 65.494627,30.170202 65.5078378,30.2161616 L66.5855351,34.0939394 C66.5982378,34.1333333 66.6048432,34.1848485 66.5387892,34.1848485 L66.236973,34.1848485 L66.236973,34.1848485 Z M64.9824541,31.45 L64.6079784,32.8207071 C64.601373,32.860101 64.6079784,32.8666667 64.6338919,32.8666667 L65.7710378,32.8666667 C65.8106703,32.8666667 65.8167676,32.860101 65.8106703,32.8207071 L65.4356865,31.4565657 L65.2253297,30.6146465 C65.2187243,30.5878788 65.1994162,30.5878788 65.1928108,30.6146465 L64.9824541,31.45 L64.9824541,31.45 Z" id="Fill-35" fill="#FFFFFF" sketch:type="MSShapeGroup"></path>
                        <path d="M68.9040324,32.3833333 C68.8847243,32.3964646 68.8847243,32.4161616 68.8913297,32.4353535 C68.9040324,32.4550505 69.1860324,33.0686869 69.6656865,34.0742424 C69.705827,34.1590909 69.6524757,34.1848485 69.6062378,34.1848485 L69.3506595,34.1848485 C69.2454811,34.1848485 69.2190595,34.1525253 69.1931459,34.080303 L68.4772216,32.539899 C68.4574054,32.5005051 68.4380973,32.4742424 68.3720432,32.4742424 L67.5844757,32.4742424 C67.5443351,32.4742424 67.5311243,32.4944444 67.5311243,32.5267677 L67.5311243,34.119697 C67.5311243,34.1590909 67.5118162,34.1848485 67.4721838,34.1848485 L67.1835784,34.1848485 C67.1439459,34.1848485 67.1175243,34.1651515 67.1175243,34.1262626 L67.1175243,30.2292929 C67.1175243,30.1828283 67.1439459,30.1570707 67.1896757,30.1570707 L68.3593405,30.1570707 C69.1403027,30.1570707 69.5279892,30.6010101 69.5279892,31.2671717 C69.5279892,31.7494949 69.2190595,32.1611111 68.9040324,32.3833333 L68.9040324,32.3833333 Z M67.590573,30.5161616 C67.5509405,30.5161616 67.5311243,30.5358586 67.5311243,30.5686869 L67.5311243,32.0636364 C67.5311243,32.0964646 67.5443351,32.1151515 67.5773622,32.1151515 L68.5432757,32.1151515 C68.5961189,32.1151515 68.6347351,32.0964646 68.6545514,32.0828283 C68.9233405,31.919697 69.1006703,31.5929293 69.1006703,31.3126263 C69.1006703,30.9469697 68.9507784,30.5161616 68.2871892,30.5161616 L67.590573,30.5161616 L67.590573,30.5161616 Z" id="Fill-36" fill="#FFFFFF" sketch:type="MSShapeGroup"></path>
                        <path d="M72.6416757,30.1570707 C72.7133189,30.1570707 72.7199243,30.2030303 72.6935027,30.2353535 L71.3805514,31.7631313 C71.3470162,31.8085859 71.3673405,31.8222222 71.4130703,31.8222222 C71.4984324,31.8085859 71.5964973,31.8025253 71.6752541,31.8085859 C72.3586595,31.8409091 72.6081405,32.2919192 72.6543784,32.8727273 L72.7463459,34.1262626 C72.7463459,34.1717172 72.7270378,34.1848485 72.6868973,34.1848485 L72.4109946,34.1848485 C72.3713622,34.1848485 72.3520541,34.1717172 72.3520541,34.1333333 L72.2666919,32.9515152 C72.2473838,32.6050505 72.1615135,32.1353535 71.4857297,32.1353535 C70.8810811,32.1353535 70.6443027,32.5333333 70.6443027,32.9712121 L70.6443027,34.1262626 C70.6443027,34.1651515 70.6310919,34.1848485 70.598573,34.1848485 L70.2830378,34.1848485 C70.2439135,34.1848485 70.2235892,34.1651515 70.2235892,34.1333333 L70.2235892,30.2227273 C70.2235892,30.1767677 70.2373081,30.1570707 70.2830378,30.1570707 L70.598573,30.1570707 C70.6310919,30.1570707 70.6443027,30.1767677 70.6443027,30.2161616 L70.6443027,31.9520202 C70.6443027,32.0171717 70.6712324,32.0242424 70.7103568,31.9787879 L72.2412865,30.2030303 C72.2732973,30.170202 72.2936216,30.1570707 72.3256324,30.1570707 L72.6416757,30.1570707" id="Fill-37" fill="#FFFFFF" sketch:type="MSShapeGroup"></path>
                        <path d="M75.4926703,34.1848485 L73.3652216,34.1848485 C73.3255892,34.1848485 73.2930703,34.1590909 73.2930703,34.119697 L73.2930703,30.2227273 C73.2930703,30.1828283 73.3189838,30.1570707 73.3652216,30.1570707 L75.4403351,30.1570707 C75.4799676,30.1570707 75.5058811,30.1828283 75.5058811,30.2227273 L75.5058811,30.4570707 C75.5058811,30.4964646 75.486573,30.5161616 75.4403351,30.5161616 L73.7656108,30.5161616 C73.7330919,30.5161616 73.7132757,30.5227273 73.7132757,30.5621212 L73.7132757,31.8676768 C73.7132757,31.9 73.7259784,31.9136364 73.7590054,31.9136364 L75.1837405,31.9136364 C75.2299784,31.9136364 75.2497946,31.9328283 75.2497946,31.9787879 L75.2497946,32.220202 C75.2497946,32.2590909 75.2299784,32.2787879 75.1913622,32.2787879 L73.7656108,32.2787879 C73.7330919,32.2787879 73.7132757,32.2919192 73.7132757,32.3313131 L73.7132757,33.7737374 C73.7132757,33.8070707 73.7330919,33.8191919 73.7590054,33.8191919 L75.4926703,33.8191919 C75.5317946,33.8191919 75.5582162,33.8393939 75.5582162,33.8782828 L75.5582162,34.119697 C75.5582162,34.1590909 75.5384,34.1848485 75.4926703,34.1848485" id="Fill-38" fill="#FFFFFF" sketch:type="MSShapeGroup"></path>
                        <path d="M78.2918378,30.5161616 L77.3518378,30.5161616 C77.3193189,30.5161616 77.2995027,30.5227273 77.2995027,30.5621212 L77.2995027,34.119697 C77.2995027,34.1590909 77.2862919,34.1848485 77.2405622,34.1848485 L76.9448432,34.1848485 C76.9052108,34.1848485 76.8792973,34.1651515 76.8792973,34.1262626 L76.8792973,30.5686869 C76.8792973,30.529798 76.8660865,30.5161616 76.8259459,30.5161616 L75.9072865,30.5161616 C75.8676541,30.5161616 75.8478378,30.509596 75.8478378,30.4570707 L75.8478378,30.2227273 C75.8478378,30.1828283 75.8676541,30.1570707 75.9072865,30.1570707 L78.2918378,30.1570707 C78.3304541,30.1570707 78.3502703,30.1828283 78.3502703,30.2161616 L78.3502703,30.4570707 C78.3502703,30.4964646 78.3304541,30.5161616 78.2918378,30.5161616" id="Fill-39" fill="#FFFFFF" sketch:type="MSShapeGroup"></path>
                        <path d="M79.2435243,34.1848485 L78.9488216,34.1848485 C78.9091892,34.1848485 78.8827676,34.1651515 78.8827676,34.1262626 L78.8827676,30.2161616 C78.8827676,30.1767677 78.9025838,30.1570707 78.9488216,30.1570707 L79.2435243,30.1570707 C79.2836649,30.1570707 79.3095784,30.1828283 79.3095784,30.2161616 L79.3095784,34.119697 C79.3095784,34.1590909 79.2897622,34.1848485 79.2435243,34.1848485" id="Fill-40" fill="#FFFFFF" sketch:type="MSShapeGroup"></path>
                        <path d="M80.5183676,30.1570707 C80.6037297,30.1570707 80.6235459,30.1964646 80.6560649,30.2424242 L82.3638162,33.3429293 C82.3704216,33.3560606 82.3826162,33.3631313 82.3826162,33.3429293 L82.3826162,30.2227273 C82.3826162,30.1828283 82.3968432,30.1570707 82.4420649,30.1570707 L82.7250811,30.1570707 C82.7642054,30.1570707 82.7840216,30.1828283 82.7840216,30.2161616 L82.7840216,34.080303 C82.7840216,34.1651515 82.7311784,34.1848485 82.6854486,34.1848485 L82.4822054,34.1848485 C82.4029405,34.1848485 82.3765189,34.1590909 82.3500973,34.1065657 L80.6433622,31.0191919 C80.6367568,31.0055556 80.6235459,30.9994949 80.6235459,31.0191919 L80.6235459,34.119697 C80.6235459,34.1590909 80.6103351,34.1848485 80.5574919,34.1848485 L80.2815892,34.1848485 C80.2424649,34.1848485 80.2231568,34.1590909 80.2231568,34.119697 L80.2231568,30.2808081 C80.2231568,30.2030303 80.2353514,30.1570707 80.327827,30.1570707 L80.5183676,30.1570707" id="Fill-41" fill="#FFFFFF" sketch:type="MSShapeGroup"></path>
                        <path d="M84.7554811,34.2242424 C84.0659784,34.2242424 83.5461838,33.8328283 83.5461838,33.1474747 L83.5461838,31.1818182 C83.5461838,30.5424242 84.0725838,30.1045455 84.7554811,30.1045455 C85.1624757,30.1045455 85.6024973,30.2550505 85.8128541,30.5813131 C85.8392757,30.6338384 85.8326703,30.6535354 85.7854162,30.6924242 L85.6024973,30.8363636 C85.5623568,30.8686869 85.5105297,30.8494949 85.4775027,30.8030303 C85.3072865,30.5686869 85.0115676,30.4767677 84.7615784,30.4767677 C84.2560108,30.4767677 83.9668973,30.8106061 83.9668973,31.2212121 L83.9668973,33.1343434 C83.9668973,33.5712121 84.294627,33.8646465 84.7554811,33.8646465 C85.1883892,33.8646465 85.4968108,33.6045455 85.4968108,33.140404 L85.4968108,32.4287879 C85.4968108,32.3964646 85.4902054,32.3772727 85.4581946,32.3772727 L84.9262054,32.3772727 C84.886573,32.3772727 84.8606595,32.3636364 84.8606595,32.3181818 L84.8606595,32.070202 C84.8606595,32.030303 84.8799676,32.0050505 84.9262054,32.0050505 L85.8585838,32.0050505 C85.8977081,32.0050505 85.9312432,32.030303 85.9312432,32.070202 L85.9312432,33.1474747 C85.9312432,33.7737374 85.4581946,34.2242424 84.7554811,34.2242424" id="Fill-42" fill="#FFFFFF" sketch:type="MSShapeGroup"></path>
                        <path d="M67.2140649,39.9742424 C66.5047459,39.9742424 65.9854595,39.5570707 65.9854595,38.890404 L65.9854595,35.9666667 C65.9854595,35.9272727 66.0052757,35.9075758 66.0515135,35.9075758 L66.3472324,35.9075758 C66.3858486,35.9075758 66.4056649,35.9338384 66.4056649,35.9666667 L66.4056649,38.890404 C66.4056649,39.2954545 66.7145946,39.6151515 67.2140649,39.6151515 C67.7125189,39.6151515 68.0082378,39.2888889 68.0082378,38.8782828 L68.0082378,35.9666667 C68.0082378,35.9272727 68.0351676,35.9075758 68.0742919,35.9075758 L68.3700108,35.9075758 C68.4091351,35.9075758 68.4289514,35.9338384 68.4289514,35.9666667 L68.4289514,38.890404 C68.4289514,39.5691919 67.8898486,39.9742424 67.2140649,39.9742424" id="Fill-43" fill="#FFFFFF" sketch:type="MSShapeGroup"></path>
                        <path d="M70.4918703,38.1590909 L69.7098919,38.1590909 C69.6707676,38.1590909 69.6575568,38.1792929 69.6575568,38.2181818 L69.6575568,39.870202 C69.6575568,39.909596 69.6377405,39.9353535 69.5909946,39.9353535 L69.3095027,39.9353535 C69.2698703,39.9353535 69.2368432,39.9151515 69.2368432,39.8762626 L69.2368432,35.9732323 C69.2368432,35.9338384 69.2632649,35.9075758 69.3095027,35.9075758 L70.4847568,35.9075758 C71.2072865,35.9075758 71.6412108,36.3909091 71.6412108,37.0429293 C71.6412108,37.6762626 71.1615568,38.1590909 70.4918703,38.1590909 L70.4918703,38.1590909 Z M69.7098919,36.2666667 C69.6707676,36.2666667 69.6509514,36.279798 69.6509514,36.3126263 L69.6509514,37.7545455 C69.6509514,37.7873737 69.6636541,37.8070707 69.7032865,37.8070707 L70.4847568,37.8070707 C70.9445946,37.8070707 71.2276108,37.5 71.2276108,37.0368687 C71.2276108,36.6454545 70.9705081,36.2666667 70.4847568,36.2666667 L69.7098919,36.2666667 L69.7098919,36.2666667 Z" id="Fill-44" fill="#FFFFFF" sketch:type="MSShapeGroup"></path>
                        <path d="M73.447027,39.9353535 L72.2519568,39.9353535 C72.2123243,39.9353535 72.1864108,39.909596 72.1864108,39.870202 L72.1864108,35.9732323 C72.1864108,35.9338384 72.2123243,35.9075758 72.2519568,35.9075758 L73.4536324,35.9075758 C74.2025838,35.9075758 74.6105946,36.3060606 74.6105946,37.0242424 L74.6105946,38.779798 C74.6105946,39.5313131 74.1827676,39.9353535 73.447027,39.9353535 L73.447027,39.9353535 Z M74.1827676,36.9974747 C74.1827676,36.5343434 73.9470054,36.2666667 73.4277189,36.2666667 L72.6589514,36.2666667 C72.6259243,36.2666667 72.6071243,36.2727273 72.6071243,36.3126263 L72.6071243,39.5242424 C72.6071243,39.5570707 72.619827,39.5691919 72.6589514,39.5691919 L73.4536324,39.5691919 C73.9200757,39.5691919 74.1827676,39.3085859 74.1827676,38.8388889 L74.1827676,36.9974747 L74.1827676,36.9974747 Z" id="Fill-45" fill="#FFFFFF" sketch:type="MSShapeGroup"></path>
                        <path d="M77.4539676,39.9353535 C77.4087459,39.9353535 77.3889297,39.9217172 77.3752108,39.8893939 L77.1257297,38.9949495 C77.1196324,38.9757576 77.1125189,38.969697 77.0927027,38.969697 L75.759427,38.969697 C75.7330054,38.969697 75.7274162,38.9757576 75.7203027,38.9888889 C75.6806703,39.1717172 75.524173,39.7070707 75.4764108,39.8893939 C75.4708216,39.9217172 75.4444,39.9353535 75.4052757,39.9353535 L75.1359784,39.9353535 C75.0831351,39.9353535 75.0567135,39.9217172 75.0699243,39.8565657 L76.1278054,35.9732323 C76.1344108,35.939899 76.1537189,35.9075758 76.2055459,35.9075758 L76.6460757,35.9075758 C76.6923135,35.9075758 76.7121297,35.920202 76.7253405,35.9666667 L77.8020216,39.8444444 C77.8152324,39.8833333 77.8218378,39.9353535 77.7562919,39.9353535 L77.4539676,39.9353535 L77.4539676,39.9353535 Z M76.1999568,37.2 L75.8254811,38.5707071 C75.8193838,38.610101 75.8254811,38.6166667 75.8513946,38.6166667 L76.9880324,38.6166667 C77.0271568,38.6166667 77.0337622,38.610101 77.0271568,38.5707071 L76.6531892,37.2065657 L76.4423243,36.3646465 C76.436227,36.3383838 76.4164108,36.3383838 76.4103135,36.3646465 L76.1999568,37.2 L76.1999568,37.2 Z" id="Fill-46" fill="#FFFFFF" sketch:type="MSShapeGroup"></path>
                        <path d="M80.3252865,36.2666667 L79.3852865,36.2666667 C79.3537838,36.2666667 79.3334595,36.2727273 79.3334595,36.3126263 L79.3334595,39.870202 C79.3334595,39.909596 79.3202486,39.9353535 79.2740108,39.9353535 L78.9788,39.9353535 C78.9396757,39.9353535 78.9127459,39.9151515 78.9127459,39.8762626 L78.9127459,36.3191919 C78.9127459,36.279798 78.8995351,36.2666667 78.8599027,36.2666667 L77.9412432,36.2666667 C77.9016108,36.2666667 77.8817946,36.2606061 77.8817946,36.2075758 L77.8817946,35.9732323 C77.8817946,35.9338384 77.9016108,35.9075758 77.9412432,35.9075758 L80.3252865,35.9075758 C80.3639027,35.9075758 80.3837189,35.9338384 80.3837189,35.9666667 L80.3837189,36.2075758 C80.3837189,36.2469697 80.3639027,36.2666667 80.3252865,36.2666667" id="Fill-47" fill="#FFFFFF" sketch:type="MSShapeGroup"></path>
                        <path d="M83.0700865,39.9353535 L80.9426378,39.9353535 C80.9030054,39.9353535 80.8709946,39.909596 80.8709946,39.870202 L80.8709946,35.9732323 C80.8709946,35.9338384 80.8964,35.9075758 80.9426378,35.9075758 L83.0177514,35.9075758 C83.0578919,35.9075758 83.0838054,35.9338384 83.0838054,35.9732323 L83.0838054,36.2075758 C83.0838054,36.2469697 83.0639892,36.2666667 83.0177514,36.2666667 L81.343027,36.2666667 C81.3105081,36.2666667 81.2912,36.2727273 81.2912,36.3126263 L81.2912,37.6181818 C81.2912,37.6505051 81.3033946,37.6636364 81.3369297,37.6636364 L82.7616649,37.6636364 C82.8073946,37.6636364 82.8277189,37.6833333 82.8277189,37.7292929 L82.8277189,37.9707071 C82.8277189,38.009596 82.8073946,38.0287879 82.7687784,38.0287879 L81.343027,38.0287879 C81.3105081,38.0287879 81.2912,38.0419192 81.2912,38.0818182 L81.2912,39.5242424 C81.2912,39.5570707 81.3105081,39.5691919 81.3369297,39.5691919 L83.0700865,39.5691919 C83.1097189,39.5691919 83.1361405,39.5888889 83.1361405,39.6282828 L83.1361405,39.870202 C83.1361405,39.909596 83.1163243,39.9353535 83.0700865,39.9353535" id="Fill-48" fill="#FFFFFF" sketch:type="MSShapeGroup"></path>
                        <path d="M84.7534486,40.0590909 C84.5364865,40.0590909 84.3251135,40.020202 84.1244108,39.9439394 C83.9216757,39.8671717 83.7560324,39.7606061 83.6320541,39.6277778 C83.5919135,39.5878788 83.5934378,39.5530303 83.6020757,39.5308081 C83.6091892,39.5126263 83.6234162,39.4934343 83.6467892,39.470202 L83.7331676,39.3848485 C83.7621297,39.3560606 83.7926162,39.3494949 83.8129405,39.3494949 C83.8393622,39.3494949 83.8668,39.360101 83.8937297,39.379798 C83.9978919,39.4656566 84.1305081,39.5429293 84.2900541,39.6106061 C84.4480757,39.6777778 84.6030486,39.7116162 84.7498919,39.7116162 C85.0288432,39.7116162 85.2635892,39.6454545 85.4475243,39.5146465 C85.629427,39.3858586 85.7173297,39.1964646 85.7173297,38.9358586 C85.7173297,38.8080808 85.6964973,38.6979798 85.6558486,38.6090909 C85.6146919,38.519697 85.5577838,38.4414141 85.4861405,38.3762626 C85.412973,38.310101 85.3245622,38.2505051 85.2229405,38.2005051 C85.1182703,38.1484848 85.0069946,38.0984848 84.8891135,38.0510101 C84.7615784,38.0030303 84.6274378,37.9489899 84.4877081,37.8893939 C84.3464541,37.8292929 84.2148541,37.7570707 84.096973,37.6737374 C83.9775676,37.5888889 83.8759459,37.4848485 83.7956649,37.3646465 C83.7133514,37.240404 83.6716865,37.0883838 83.6716865,36.9121212 C83.6716865,36.7338384 83.7057297,36.5747475 83.7728,36.4388889 C83.8393622,36.3040404 83.9287892,36.1883838 84.0370162,36.0944444 C84.1457514,36.0005051 84.2717622,35.929798 84.4125081,35.8838384 C84.5517297,35.8383838 84.6990811,35.8156566 84.848973,35.8156566 C85.0293514,35.8156566 85.2127784,35.8393939 85.3951892,35.8863636 C85.5796324,35.9338384 85.7493405,36.0151515 85.9002486,36.1287879 C85.9576649,36.1626263 85.9510595,36.2080808 85.9449622,36.2257576 C85.939373,36.2419192 85.9317514,36.2590909 85.9220973,36.2792929 L85.8392757,36.4030303 C85.8143784,36.4444444 85.7813514,36.4535354 85.7579784,36.4535354 C85.7132649,36.4449495 85.6919243,36.4358586 85.6736324,36.4237374 C85.5623568,36.3434343 85.4332973,36.2818182 85.2895027,36.239899 C85.1441838,36.1974747 85.0039459,36.1757576 84.8723459,36.1757576 C84.7758054,36.1757576 84.6762162,36.189899 84.5771351,36.2166667 C84.4795784,36.2434343 84.3901514,36.2863636 84.3119027,36.3434343 C84.2346703,36.4 84.1716649,36.4752525 84.1249189,36.5686869 C84.0776649,36.6616162 84.0537838,36.7777778 84.0537838,36.9136364 C84.0537838,37.0181818 84.0802054,37.1050505 84.1335568,37.179798 C84.1894486,37.2585859 84.2610919,37.3282828 84.3464541,37.3883838 C84.4328324,37.4494949 84.5308973,37.5040404 84.6381081,37.5510101 C84.7478595,37.5989899 84.8530378,37.6424242 84.9541514,37.6818182 C85.0969297,37.7393939 85.2361514,37.8 85.3713081,37.8641414 C85.5095135,37.9292929 85.634,38.0111111 85.7412108,38.1060606 C85.8494378,38.2020202 85.9368324,38.3156566 86.0013622,38.4439394 C86.0664,38.5737374 86.099427,38.7318182 86.099427,38.9146465 C86.099427,39.1015152 86.0648757,39.2681818 85.995773,39.4111111 C85.9261622,39.5535354 85.8291135,39.6747475 85.7071676,39.7712121 C85.5857297,39.8671717 85.4409189,39.939899 85.2762919,39.9878788 C85.1142054,40.0348485 84.9384,40.0590909 84.7534486,40.0590909" id="Fill-49" fill="#FFFFFF" sketch:type="MSShapeGroup"></path>
                    </g>
                </g>
            </g>
        </g>
    </g>
</svg>