<?xml version="1.0" encoding="UTF-8" standalone="no"?>
<svg width="108px" height="30px" viewBox="0 0 108 30" version="1.1" xmlns="http://www.w3.org/2000/svg" xmlns:xlink="http://www.w3.org/1999/xlink" xmlns:sketch="http://www.bohemiancoding.com/sketch/ns">
    <!-- Generator: Sketch 3.2.2 (9983) - http://www.bohemiancoding.com/sketch -->
    <title>гага</title>
    <desc>Created with Sketch.</desc>
    <defs></defs>
    <g id="Page-1" stroke="none" stroke-width="1" fill="none" fill-rule="evenodd" sketch:type="MSPage">
        <g id="О-чемпионате-(дизайн)" sketch:type="MSArtboardGroup" transform="translate(-483.000000, -6333.000000)">
            <g id="6_block" sketch:type="MSLayerGroup" transform="translate(0.000000, 5999.000000)">
                <g id="logo" transform="translate(476.000000, 324.000000)" sketch:type="MSShapeGroup">
                    <g id="гага" transform="translate(7.000000, 10.000000)">
                        <path d="M32.6783077,9.17307143 C33.6639867,9.17842857 34.6263183,8.89792857 35.2373634,8.45528571 C35.6176552,8.17971429 35.7452785,7.71928571 35.5502626,7.32621429 C35.4046631,7.03285714 35.0408435,6.91921429 34.6462281,7.05457143 C34.5468939,7.08871429 34.4578727,7.15371429 34.365557,7.207 C33.4850133,7.71514286 32.5746048,7.8945 31.6062573,7.46178571 C31.3131963,7.33078571 31.0203501,7.19857143 30.7222042,7.08 C30.3638992,6.93757143 29.9845385,7.02714286 29.8159496,7.27914286 C29.6294562,7.55807143 29.6962042,7.91092857 29.9971432,8.20278571 C30.07313,8.27642857 30.159,8.3415 30.2467321,8.40114286 C31.0086048,8.91871429 31.869382,9.11657143 32.6783077,9.17307143 L32.6783077,9.17307143 Z M46.1276737,29.3872143 C45.6380928,29.7838571 45.0738143,29.9269286 44.4881936,29.9306429 C42.1140557,29.9455714 39.7397029,29.9452857 37.365565,29.9292143 C36.8325836,29.9255714 36.2988859,29.8464286 35.7678382,29.7830714 C34.9947931,29.6908571 34.4848727,29.2094286 34.1734775,28.5512143 C33.7984138,27.7582857 33.5105809,26.9247143 33.1629469,26.1182143 C33.0429151,25.8398571 32.8695279,25.5810714 32.6965703,25.3297857 C32.5591353,25.1300714 32.349366,25.1395 32.209496,25.3097143 C32.0240769,25.5353571 31.8498302,25.7834286 31.7325915,26.0489286 C31.3876074,26.83 31.096122,27.6349286 30.7411114,28.4111429 C30.274305,29.4319286 29.4163926,29.8557143 28.3252202,29.866 C25.6782175,29.891 23.0312865,29.9222143 20.3842838,29.9295714 C19.7977321,29.9311429 19.2312334,29.7910714 18.7422255,29.4230714 C18.1794509,28.9995714 17.854878,28.4377857 18.0598488,27.7597857 C18.3679496,26.7405714 18.7245358,25.7271429 19.1641273,24.758 C20.1751592,22.5289286 21.2559469,20.3313571 22.2915438,18.1132143 C22.5321088,17.5979286 22.7202493,17.0564286 22.9043793,16.5173571 C23.0340796,16.1377857 22.9732759,16.0464286 22.5693501,16.0285714 C21.9619576,16.0017143 21.3502679,16.0464286 20.7452387,15.9993571 C20.192634,15.9562857 19.6264218,15.8953571 19.100817,15.7316429 C17.0880637,15.1046429 16.4109151,12.8832143 17.6928064,11.2052143 C18.4727268,10.1842857 19.4740902,9.41907143 20.6052255,8.84507143 C21.8449337,8.216 23.1305491,7.67742857 24.3865862,7.0795 C25.0086605,6.78342857 25.6155517,6.45364286 26.2177162,6.11835714 C26.652008,5.8765 26.9122679,5.48857143 27.0692546,5.01742857 C27.4203979,3.96357143 27.8996658,2.97221429 28.5801088,2.08657143 C30.1361538,0.0611428571 32.5811936,-0.505714286 34.832435,0.533285714 C35.9190955,1.03485714 36.6578355,1.926 37.2201088,2.95257143 C37.5383793,3.53371429 37.8620928,4.13342857 38.0391326,4.765 C38.3101353,5.73142857 38.9097931,6.35578571 39.7773024,6.76128571 C40.7250239,7.20421429 41.6885729,7.61335714 42.6438143,8.04021429 C42.8801538,8.14578571 43.1112653,8.26278571 43.3761088,8.38957143 C39.7279576,11.3279286 37.9869231,15.0691429 38.5897321,19.704 C39.1928276,24.3409286 41.8535093,27.4852143 46.1276737,29.3872143 L46.1276737,29.3872143 Z" id="Fill-1" fill="#E26239"></path>
                        <path d="M54.8945093,21.2577143 C54.0021485,21.2577143 53.146313,21.2625714 52.2904775,21.2557857 C51.8170822,21.2520714 51.367321,21.1487857 50.9812997,20.8561429 C50.3138196,20.3507857 50.0703899,19.5253571 50.3360212,18.6833571 C50.5666313,17.952 51.2978515,17.4114286 52.1415119,17.4032857 C53.7156764,17.3881429 55.2912732,17.3851429 56.8654377,17.4035714 C57.9855438,17.4167143 58.7991247,18.2555 58.8091512,19.4082143 C58.8249072,21.2762857 58.8270557,23.1447143 58.8062865,25.0127143 C58.7976923,25.7267857 58.4718302,26.2815714 57.875252,26.7276429 C54.3079576,29.3937143 49.3823554,29.5347143 45.7107135,27.0479286 C40.9067188,23.7943571 39.6286233,17.2835714 42.8586684,12.5192143 C46.3178196,7.41692857 53.3812202,6.36564286 58.1681698,10.2406429 C58.9559682,10.8783571 59.0956233,12.0966429 58.4739788,12.903 C57.8186737,13.7520714 56.6276658,13.9499286 55.8004775,13.3027143 C54.9145623,12.6095714 53.972069,12.0572857 52.848382,11.8589286 C48.8321857,11.1501429 46.0990265,13.7647143 45.2472016,16.4005 C44.0731671,20.0330714 46.5282334,24.1868571 50.2722812,24.8552143 C51.7733952,25.1232143 53.2429973,24.9906429 54.6173475,24.2499286 C54.8193103,24.1413571 54.9059682,24.0228571 54.9009549,23.7826429 C54.8837666,22.9534286 54.8945093,22.1236429 54.8945093,21.2577143" id="Fill-2" fill="#FFFFFF"></path>
                        <path d="M81.8980902,11.7690714 L81.8980902,17.3977857 C82.8284085,17.3977857 83.7322281,17.4041429 84.6360477,17.3963571 C86.2102122,17.3828571 87.3854642,16.2366429 87.4427586,14.6692857 C87.4964721,13.2074286 86.3935544,11.8614286 84.998435,11.7805714 C83.9785942,11.7215 82.9523077,11.7690714 81.8980902,11.7690714 L81.8980902,11.7690714 Z M88.4318037,20.1481429 C89.5562069,21.947 90.6755968,23.7453571 91.8050133,25.5372857 C92.1659682,26.1102857 92.4001592,26.6911429 92.2046419,27.3875714 C91.9661538,28.2360714 91.3889125,28.699 90.5502653,28.7981429 C89.8326525,28.883 89.1880902,28.6354286 88.7805836,28.0125714 C87.9670027,26.7674286 87.186366,25.5006429 86.3935544,24.2417143 C85.816313,23.3252143 85.2448011,22.4052857 84.6618302,21.4924286 C84.5995225,21.3952857 84.4806366,21.2705714 84.3853846,21.2685 C83.5639257,21.2507857 82.7424668,21.2583571 81.897374,21.2583571 C81.8902122,21.3735 81.8801857,21.464 81.8794695,21.5545714 C81.8558355,23.2905714 81.845809,25.0267857 81.8071353,26.7624286 C81.774191,28.2760714 80.2566048,29.1973571 78.9374005,28.4819286 C78.3250663,28.1497857 77.9433422,27.5829286 77.9397613,26.8529286 C77.9311671,24.9489286 77.9433422,23.0448571 77.9447745,21.1408571 C77.9483554,17.439 77.9469231,13.7371429 77.9548011,10.0352857 C77.9562334,9.29635714 78.1732361,8.62614286 78.8521751,8.24307143 C79.1809019,8.05728571 79.5869761,7.92285714 79.9608223,7.91492857 C81.5951459,7.88014286 83.231618,7.86607143 84.8659416,7.90785714 C88.1252785,7.99114286 90.6533952,10.3826429 91.1819363,13.1574286 C91.6975862,15.8640714 90.8925995,18.1068571 88.7462069,19.8572857 C88.6538196,19.9322143 88.56,20.0042143 88.4668966,20.0785714 C88.4590186,20.0852857 88.4561538,20.0991429 88.4318037,20.1481429 L88.4318037,20.1481429 Z" id="Fill-3" fill="#FFFFFF"></path>
                        <path d="M96.5532891,15.7927143 C96.5532891,17.6136429 96.5848011,19.4352143 96.5439788,21.2552143 C96.5060212,22.9647143 97.7700796,24.3358571 98.9754111,24.7527857 C101.798594,25.7296429 104.019469,23.471 104.015172,21.4213571 C104.006578,17.613 104.013024,13.8045714 104.015889,9.99614286 C104.016605,8.90521429 104.585252,8.19364286 105.635172,7.95285714 C106.497454,7.75492857 107.511565,8.31071429 107.776552,9.15471429 C107.867507,9.44542857 107.925517,9.75985714 107.92695,10.0636429 C107.936976,13.7292143 107.939841,17.3948571 107.931247,21.0604286 C107.924085,24.3162143 106.086366,27.089 103.174377,28.27 C98.8114058,30.0395714 93.8919629,27.4977143 92.8542175,22.9200714 C92.721008,22.3331429 92.6450928,21.7205 92.6422281,21.1192143 C92.6228912,17.418 92.6307692,13.7166429 92.633634,10.0153571 C92.6343501,8.90528571 93.2051459,8.19271429 94.2715385,7.94821429 C95.1366844,7.74985714 96.1830239,8.35078571 96.413634,9.20421429 C96.4959947,9.51014286 96.5439788,9.835 96.5454111,10.1515714 C96.5575862,12.0318571 96.5518568,13.9122857 96.5518568,15.7927143 L96.5532891,15.7927143" id="Fill-4" fill="#FFFFFF"></path>
                        <path d="M76.5711406,26.8304286 C76.568992,27.8597143 75.6923873,28.7392143 74.6646684,28.7422857 C73.6376658,28.7453571 72.7460212,27.8647857 72.7381432,26.8392857 C72.7302653,25.801 73.6312202,24.9025714 74.6732626,24.9095714 C75.7002653,24.9164286 76.5732891,25.8002143 76.5711406,26.8304286" id="Fill-5" fill="#FFFFFF"></path>
                        <path d="M67.0158621,18.3112857 C67.412626,17.2931429 67.8000796,16.2976429 68.2197613,15.2211429 C68.6401592,16.3028571 69.0254642,17.2935714 69.4215119,18.3112857 L67.0158621,18.3112857 L67.0158621,18.3112857 Z M74.4025464,22.914 C74.7835544,22.9165714 75.1509549,22.9991429 75.4882759,23.1446429 C73.686366,18.5232143 71.8772944,13.9042143 70.0868435,9.27807143 C69.7072679,8.29678571 68.9989655,7.94014286 68.2319363,7.90657143 C67.4033156,7.87028571 66.6921485,8.39935714 66.3598408,9.25278571 C64.5801326,13.8160714 62.8018568,18.3797143 61.0271618,22.9447857 C60.5795491,24.0967143 60.1111671,25.2426429 59.7194164,26.4135714 C59.4501326,27.2174286 59.816817,28.0327143 60.5380106,28.5153571 C61.1618037,28.933 62.0777984,28.8955 62.727374,28.4503571 C63.2043501,28.1235 63.3798143,27.6207857 63.573183,27.1215 C64.2098674,25.4818571 64.8487003,23.8430714 65.4932626,22.1862143 L65.8585146,22.1862143 C67.4212202,22.1862143 68.9846419,22.1937857 70.5473475,22.1795 C70.8388329,22.1767857 70.9870822,22.2522857 71.0902122,22.5389286 C71.3186737,23.175 71.5693369,23.8035714 71.8257294,24.4524286 C72.3349337,23.5438571 73.3182493,22.9067857 74.4025464,22.914 L74.4025464,22.914 Z" id="Fill-6" fill="#FFFFFF"></path>
                        <path d="M17.7451592,19.4255714 C17.7440849,18.0434286 16.9494828,17.2476429 15.5727692,17.2472857 C14.1527268,17.2468571 12.7326127,17.2435 11.3125703,17.2508571 C11.0767321,17.2520714 10.836382,17.28 10.6063448,17.3319286 C9.74907692,17.5256429 9.15013528,18.2909286 9.14812997,19.1724286 C9.14612467,20.0520714 9.7434191,20.8350714 10.6012599,21.0135714 C10.9699496,21.0902857 11.3569019,21.0953571 11.7361194,21.1026429 C12.4237241,21.1158571 13.1117586,21.1063571 13.8263634,21.1063571 C13.8263634,21.9707143 13.816122,22.7900714 13.8325942,23.6089286 C13.8376074,23.8572857 13.7556764,23.9899286 13.5374562,24.1047143 C12.0141406,24.9057857 10.4061008,25.0045714 8.77177719,24.6099286 C6.42299204,24.0427857 4.24458621,21.6441429 3.95224138,19.0992857 C3.51064456,15.2556429 6.03038196,12.6524286 8.47570822,11.9087857 C10.5974642,11.2635714 12.6291247,11.5265714 14.4327533,12.9273571 C14.5458382,13.0152143 14.6292016,13.0784286 14.7230928,13.1466429 C14.6966658,12.9495714 14.6816976,12.7487857 14.6816976,12.5445 C14.6816976,11.2862143 15.4225862,10.2452143 16.2572944,9.42857143 C11.3514589,6.38092857 4.97014854,7.67478571 1.78944828,12.37 C-1.23183024,16.8298571 -0.32872679,22.8803571 3.87238727,26.3251429 C7.56723342,29.3547857 12.9700981,29.4553571 16.7862653,26.5945 C17.4657056,26.0852143 17.7482387,25.4504286 17.7465915,24.6385714 C17.7430822,22.9009286 17.7465199,21.1632857 17.7451592,19.4255714" id="Fill-7" fill="#FFFFFF"></path>
                    </g>
                </g>
            </g>
        </g>
    </g>
</svg>