<?xml version="1.0" encoding="UTF-8" standalone="no"?>
<svg width="52px" height="35px" viewBox="0 0 52 35" version="1.1" xmlns="http://www.w3.org/2000/svg" xmlns:xlink="http://www.w3.org/1999/xlink" xmlns:sketch="http://www.bohemiancoding.com/sketch/ns">
    <!-- Generator: Sketch 3.2.2 (9983) - http://www.bohemiancoding.com/sketch -->
    <title>EnglishFirst</title>
    <desc>Created with Sketch.</desc>
    <defs></defs>
    <g id="Page-1" stroke="none" stroke-width="1" fill="none" fill-rule="evenodd" sketch:type="MSPage">
        <g id="О-чемпионате-(дизайн)" sketch:type="MSArtboardGroup" transform="translate(-1205.000000, -6331.000000)" fill="#FFFFFF">
            <g id="6_block" sketch:type="MSLayerGroup" transform="translate(0.000000, 5999.000000)">
                <g id="logo" transform="translate(569.000000, 324.000000)" sketch:type="MSShapeGroup">
                    <g id="EnglishFirst" transform="translate(636.000000, 8.000000)">
                        <path d="M7.3199367,0.126534483 L6.27590976,5.14394828 C7.45632727,3.38791379 8.84509495,1.71205172 10.4303071,0.126534483 L7.3199367,0.126534483 Z" id="Fill-2"></path>
                        <path d="M8.79516094,10.6188621 C7.57044714,13.308 6.94854815,16.0331724 6.94854815,18.7155862 C6.94854815,20.7785172 7.32147744,22.7461034 8.05753131,24.5661034 C8.69361212,26.1402414 9.59284444,27.5766207 10.7350936,28.8492069 L15.8260162,28.8492069 C15.1118478,28.3997241 14.4531811,27.8783448 13.8554438,27.2890345 C10.9781104,24.4562759 9.61262896,20.5938621 10.0139219,16.4167931 C10.2122923,14.3540345 10.8291138,12.2897241 11.8474034,10.2795517 C12.8987838,8.20196552 14.3516323,6.24593103 16.1641037,4.45937931 C17.8916593,2.75817241 19.8480498,1.3742069 21.9784741,0.349551724 C22.1376256,0.272482759 22.2957266,0.198517241 22.4555785,0.12662069 L17.5344875,0.12662069 C16.4179758,0.932310345 15.3506626,1.83265517 14.3432283,2.82541379 C11.9356458,5.19644828 10.068198,7.81834483 8.79516094,10.6188621" id="Fill-4"></path>
                        <path d="M15.3064364,6.80167241 L17.7957832,6.80167241 C17.926571,6.66718966 18.0598101,6.53115517 18.1963758,6.39667241 C20.8371704,3.7977069 24.1189481,2.11874138 27.4877428,1.63598276 L27.8020189,0.1265 L25.0871636,0.1265 C22.1709616,1.03236207 19.3020323,2.71391379 16.8475273,5.13098276 C16.2981131,5.67184483 15.7851165,6.22943103 15.3064364,6.80167241" id="Fill-6"></path>
                        <path d="M30.8190869,18.7706207 C32.5485684,17.067 33.5008512,15.1083793 33.5008512,13.2521724 C33.5008512,11.824069 32.9517872,10.5304483 31.913363,9.50631034 C31.4178747,9.01941379 30.8320431,8.65131034 30.1742519,8.40855172 L29.8410667,10.0137241 C30.1698747,10.1907931 30.4697939,10.409069 30.7325953,10.6680345 C31.643033,11.5651034 32.0826694,12.7964828 31.9741172,14.1376897 C31.8659152,15.469069 31.2158276,16.7857931 30.1420364,17.8433793 C29.4900229,18.4852759 28.7161508,18.9952759 27.9004337,19.3413103 L27.5880835,20.8423448 C28.7312081,20.4226897 29.84807,19.7273448 30.8190869,18.7706207" id="Fill-8"></path>
                        <path d="M34.4666155,13.2522069 C34.4666155,15.3608276 33.4143596,17.5604828 31.5020902,19.4428966 C30.3004875,20.626 28.8672485,21.4785862 27.3636256,21.923069 L26.9964741,23.6872069 C28.9329051,23.1804828 30.8434236,22.0722069 32.4620768,20.4766897 C36.6647973,16.338931 37.3010532,10.7237586 33.9404875,7.41324138 C33.0650667,6.54927586 31.9751677,5.9522069 30.7488781,5.64737931 L30.3682451,7.47393103 C31.2158276,7.76255172 31.9741172,8.22341379 32.5953158,8.83496552 C33.8202047,10.0401379 34.4666155,11.5666897 34.4666155,13.2522069" id="Fill-10"></path>
                        <path d="M31.0116094,14.0614138 C31.0975758,13.0031379 30.7563367,12.0372759 30.0502222,11.3412414 C29.9220606,11.2157241 29.7833939,11.1026207 29.635798,11.0026207 L28.1460067,18.1598621 C28.6183838,17.8926207 29.0634478,17.5605517 29.458963,17.1703793 C30.3709764,16.2724483 30.9217912,15.1683103 31.0116094,14.0614138" id="Fill-12"></path>
                        <path d="M3.02738047,26.7387931 C2.72255892,25.9893103 2.46781145,25.2236207 2.26296296,24.4398276 L1.34569697,28.8491379 L4.04304377,28.8491379 C3.66083502,28.1693103 3.32204714,27.4651724 3.02738047,26.7387931" id="Fill-14"></path>
                        <path d="M5.98278384,18.7165 C5.98278384,15.8987414 6.63304646,13.0415 7.91343704,10.2287414 C9.23567273,7.32391379 11.1696525,4.6077069 13.6605751,2.15391379 C14.3948781,1.42994828 15.1592956,0.754431034 15.9499758,0.1265 L11.8041576,0.1265 C11.6374774,0.284775862 11.4725481,0.443741379 11.307969,0.605293103 C9.00666263,2.87132759 7.12345724,5.33408621 5.69231919,7.94787931 L2.76578721,22.0211552 C2.97238653,23.5356379 3.35862222,24.9958103 3.92396902,26.3859828 C4.27028552,27.2404655 4.68243367,28.0618448 5.15708687,28.8492586 L9.47448754,28.8492586 C8.51047407,27.6554655 7.73537643,26.3387414 7.16004983,24.9170172 C6.37917441,22.9871897 5.98278384,20.8997759 5.98278384,18.7165" id="Fill-16"></path>
                        <path d="M8.65367542,33.4449138 C8.50397845,34.1697414 8.04263165,34.6225 7.53383704,34.6225 C7.21833535,34.6225 6.92524444,34.4862931 6.92191785,34.1106034 C6.92034209,34.0164655 6.93697508,33.9106034 6.95868552,33.8238793 L7.34422088,31.9857759 L6.99195152,31.9857759 L6.6114936,33.8142241 C6.58558114,33.9442241 6.56894815,34.0599138 6.56894815,34.1485345 C6.57472593,34.6943966 6.94695488,34.9159483 7.45067205,34.9159483 C7.8827798,34.9159483 8.26061145,34.6502586 8.47719057,34.3150862 L8.48804579,34.3150862 L8.39139933,34.8323276 L8.71688081,34.8323276 L9.31129158,31.9857759 L8.95919731,31.9857759 L8.65367542,33.4449138 Z" id="Fill-18"></path>
                        <path d="M1.25731448,31.2117759 L3.55599461,31.2117759 L3.62515286,30.8919483 L0.940937374,30.8919483 L0.126620875,34.8322931 L2.8624862,34.8322931 L2.93164444,34.5141897 L0.577112458,34.5141897 L0.89926734,32.956431 L3.04072189,32.956431 L3.11040539,32.6352241 L0.962472727,32.6352241 L1.25731448,31.2117759 Z" id="Fill-20"></path>
                        <path d="M4.52594343,34.6225 C3.99316229,34.6225 3.74156633,34.2583621 3.73666397,33.7730172 C3.73001077,33.0768103 4.1412835,32.1949138 4.95472458,32.1949138 C5.46999731,32.1949138 5.76553939,32.5211207 5.77044175,33.0169828 C5.77797037,33.7207759 5.33675825,34.6225 4.52594343,34.6225 L4.52594343,34.6225 Z M6.23669091,30.8918103 L5.90613199,32.5211207 L5.89457643,32.5211207 C5.76133737,32.0726724 5.40171448,31.9023276 4.94807138,31.9023276 C3.97635421,31.9023276 3.37616566,32.8787069 3.38439461,33.7516379 C3.3912229,34.4478448 3.75259663,34.9159483 4.4942532,34.9159483 C5.00374815,34.9159483 5.2985899,34.6943966 5.54160673,34.3181897 L5.55403771,34.3181897 L5.43007811,34.8323276 L5.77149226,34.8323276 L6.59053603,30.8918103 L6.23669091,30.8918103 Z" id="Fill-22"></path>
                        <path d="M14.1151286,17.2711897 C14.1151286,17.4072241 14.1184552,17.542569 14.1233576,17.6777414 L16.3089333,17.6777414 C16.2732162,17.3515345 16.2548323,17.0203276 16.2548323,16.6841207 C16.2548323,14.7263621 16.8583475,12.7242931 17.9648795,10.902569 L15.898536,10.902569 C14.7328256,12.9520517 14.1151286,15.1248103 14.1151286,17.2711897" id="Fill-24"></path>
                        <path d="M23.8950505,10.902569 L22.1142694,10.902569 C20.6631717,12.468431 19.838,14.3655 19.838,16.1668793 C19.838,16.6963621 19.9062828,17.2006724 20.0395219,17.6777414 L21.757798,17.6777414 C21.4648822,17.0923966 21.3090572,16.4332586 21.3090572,15.7411897 C21.3090572,14.2246379 22.0169226,12.6922241 23.3022155,11.4255 C23.4921818,11.2387759 23.6893266,11.0641207 23.8950505,10.902569" id="Fill-26"></path>
                        <path d="M17.2197212,16.6841552 C17.2197212,17.0226034 17.2405562,17.3539828 17.2787246,17.6777759 L19.0470747,17.6777759 C18.9322195,17.192431 18.8723407,16.6858793 18.8723407,16.1669138 C18.8723407,15.0929483 19.1164081,14.0081207 19.596664,12.9439828 C19.9179434,12.2282931 20.3384956,11.5470862 20.848866,10.9026034 L19.1046774,10.9026034 C17.889068,12.7045 17.2197212,14.7222586 17.2197212,16.6841552" id="Fill-28"></path>
                        <path d="M33.1445899,21.1498966 C31.2792431,22.9871379 29.0428929,24.2266207 26.7830815,24.7161034 L26.3886168,26.6157586 C29.3105966,26.0493793 32.2133172,24.5143793 34.4832835,22.2786897 C37.0577212,19.7447241 38.7224215,16.6686897 39.1741387,13.6171379 C39.2555529,13.0645517 39.2949468,12.520931 39.2954721,11.9888621 C39.2954721,11.8635172 39.293196,11.7371379 39.2889939,11.6126552 C39.1981253,9.13334483 38.2113508,6.91317241 36.3794451,5.10868966 C35.0122128,3.76248276 33.2809805,2.93868966 31.3807919,2.60972414 L30.9434316,4.71437931 C32.3539098,5.05868966 33.6094384,5.74248276 34.6252768,6.74110345 C38.3731286,10.4336897 37.7368727,16.6283448 33.1445899,21.1498966" id="Fill-30"></path>
                        <path d="M37.0619407,4.43562069 C38.3629912,5.71786207 39.2820081,7.20182759 39.7920283,8.84803448 C39.8065603,8.89562069 39.8210923,8.9432069 39.835099,8.99062069 L40.2901428,6.80165517 L41.5784121,6.80165517 C40.9689441,5.27837931 40.0446747,3.90113793 38.826264,2.69924138 C37.6454963,1.53665517 36.2497253,0.682344828 34.7180889,0.126482759 L31.897833,0.126482759 L31.5753279,1.67613793 C32.0326478,1.75544828 32.480338,1.86217241 32.9199744,1.99493103 C34.5193684,2.48441379 35.9139138,3.30510345 37.0619407,4.43562069" id="Fill-32"></path>
                        <path d="M42.6097455,6.80167241 L45.8957253,6.80167241 C45.2715502,4.29787931 44.037732,2.0252931 42.2459205,0.1265 L36.9797387,0.1265 C37.9068094,0.64787931 38.7526411,1.28253448 39.5088296,2.02701724 C40.9140552,3.41253448 41.9563313,5.01615517 42.6097455,6.80167241" id="Fill-34"></path>
                        <path d="M26.8672094,4.6257069 L27.2809333,2.63363793 C24.4587515,3.11553448 21.574765,4.52501724 19.1570276,6.80174138 L21.791169,6.80174138 C23.3522195,5.69087931 25.0906303,4.94225862 26.8672094,4.6257069" id="Fill-36"></path>
                        <path d="M26.6572485,5.63594828 C25.6034168,5.86543103 24.5653428,6.25887931 23.5804943,6.80163793 L26.4159825,6.80163793 L26.6572485,5.63594828 Z" id="Fill-38"></path>
                        <path d="M10.9748189,16.5061724 C10.6018896,20.3956552 11.867398,23.9873793 14.538132,26.6182414 C15.4888391,27.5535862 16.607802,28.3022069 17.8699838,28.8491034 L21.8104283,28.8491034 L22.059398,27.6715172 C19.7897818,27.3272069 17.7917212,26.3470345 16.2049333,24.7849655 C15.388866,23.9825517 14.7245966,23.0527241 14.2268323,22.0344483 L11.9330545,22.0344483 L12.8181051,17.6770345 L13.1577684,17.6770345 C13.1526909,17.5416897 13.1493643,17.4072069 13.1493643,17.2703103 C13.1493643,15.1232414 13.7204889,12.9572069 14.8028593,10.9025517 L14.236637,10.9025517 L15.0077077,7.16737931 C12.6948458,10.0582414 11.282967,13.2997931 10.9748189,16.5061724" id="Fill-40"></path>
                        <path d="M23.2489199,22.0410172 L23.2515461,22.0344655 L23.2265091,22.0344655 L19.5008929,22.0344655 C20.4733104,22.9199828 21.6171354,23.518431 22.8759906,23.8051552 L23.2489199,22.0410172 Z" id="Fill-42"></path>
                        <path d="M11.1163044,32.1949138 C11.5317791,32.1949138 11.8423785,32.4497414 11.8189172,32.8728448 L12.172062,32.8728448 C12.1869441,32.2112931 11.7091394,31.9023276 11.0812875,31.9023276 C10.0889104,31.9023276 9.51936162,32.8531897 9.52776566,33.7402586 C9.53441886,34.4419828 9.93746263,34.9159483 10.6551327,34.9159483 C11.3544189,34.9159483 11.7889778,34.5616379 11.995402,33.9106034 L11.6433077,33.9106034 C11.4958869,34.3240517 11.1628768,34.6225 10.6968027,34.6225 C10.1480889,34.6225 9.88738855,34.2469828 9.8824862,33.7402586 C9.87495758,32.9990517 10.2704727,32.1949138 11.1163044,32.1949138" id="Fill-44"></path>
                        <path d="M22.6787933,24.7366724 C21.1385778,24.3923621 19.7498101,23.6332241 18.5942545,22.4959828 C18.4428067,22.3468448 18.3002882,22.193569 18.1630222,22.034431 L15.3123017,22.034431 C15.7335542,22.7968448 16.261433,23.4954655 16.887534,24.1128793 C18.3361805,25.5392586 20.1693118,26.4304655 22.2557899,26.7370172 L22.6787933,24.7366724 Z" id="Fill-46"></path>
                        <path d="M27.680563,34.8322931 L28.0352835,34.8322931 L28.6307448,31.9857414 L28.2765495,31.9857414 L27.680563,34.8322931 Z" id="Fill-48"></path>
                        <path d="M34.3349697,31.1247241 L33.9812997,31.1247241 L33.805165,31.9857586 L33.2827138,31.9857586 L33.2182828,32.2769655 L33.7405589,32.2769655 L33.3611515,34.165069 C33.3343636,34.2911034 33.3231582,34.3978276 33.3231582,34.4567931 C33.3261347,34.7993793 33.599266,34.8666207 33.8604916,34.8666207 C33.9786734,34.8666207 34.1022828,34.8554138 34.2206397,34.8452414 L34.2785926,34.5405862 C34.1378249,34.5633448 34.0044108,34.5731724 33.8646936,34.5731724 C33.7298788,34.5731724 33.6794545,34.4748966 33.6794545,34.3748966 C33.6777037,34.288 33.6857576,34.238 33.7142963,34.1031724 L34.0937037,32.2769655 L34.6816364,32.2769655 L34.734862,31.9857586 L34.1570842,31.9857586 L34.3349697,31.1247241 Z" id="Fill-50"></path>
                        <path id="Fill-52" d="M28.8596498,30.8918793 L28.5065051,30.8918793 L28.3884983,31.4494655 L28.7419933,31.4494655 L28.8596498,30.8918793 Z"></path>
                        <path d="M35.7016067,28.8491724 L36.3627246,25.6777931 C34.934738,26.9502069 33.3269401,28.0184828 31.6209199,28.8491724 L35.7016067,28.8491724 Z" id="Fill-54"></path>
                        <path d="M30.6681118,31.9514483 C30.6063071,31.9464483 30.5397751,31.9464483 30.4777953,31.9464483 C29.9619973,31.9412759 29.6556,32.2324828 29.4363946,32.6416207 L29.4255394,32.6416207 L29.5657818,31.9857586 L29.2460781,31.9857586 L28.6495663,34.8323103 L29.0037616,34.8323103 L29.3159367,33.3433448 C29.4271152,32.8073103 29.7588997,32.3055862 30.3907785,32.2940345 C30.4590613,32.2940345 30.5247178,32.2990345 30.5923003,32.2990345 L30.6681118,31.9514483 Z" id="Fill-56"></path>
                        <path d="M31.9256714,32.194069 C32.3238128,32.194069 32.636338,32.3825172 32.6092,32.8188966 L32.9640956,32.8188966 C32.9698734,32.1613103 32.5286613,31.9011379 31.9223448,31.9011379 C31.4581966,31.9011379 30.8546815,32.1283793 30.859934,32.6794138 C30.864136,33.149931 31.2549239,33.3206207 31.642035,33.4706207 C32.0240687,33.6132069 32.4229104,33.7295862 32.4271125,34.1001034 C32.4304391,34.4633793 32.0160148,34.624069 31.7027892,34.624069 C31.294668,34.624069 30.8767421,34.4568276 30.8804189,33.9075172 L30.5246478,33.9075172 C30.4989104,34.6175172 31.0668835,34.9159655 31.6226007,34.9159655 C32.1707892,34.9159655 32.7849845,34.6832069 32.7802572,34.0435517 C32.7743044,33.5188966 32.2287421,33.3588966 31.8311259,33.2056207 C31.5038936,33.0768276 31.2172808,32.9444138 31.2143044,32.6794138 C31.2097522,32.289069 31.6194492,32.194069 31.9256714,32.194069" id="Fill-58"></path>
                        <path d="M42.4286734,11.9888966 L40.2595556,11.9888966 C40.2595556,12.5683793 40.2182357,13.1580345 40.129468,13.7547586 C39.8789226,15.4485517 39.2799596,17.1464828 38.3796768,18.764069 L40.5444175,18.764069 C41.4870707,16.9301034 42.0968889,15.0232069 42.3323771,13.1244138 C42.3803502,12.7430345 42.4108148,12.3652759 42.4286734,11.9888966" id="Fill-60"></path>
                        <path d="M48.0865886,0.126534483 L43.5329993,0.126534483 C45.1793158,2.06791379 46.3121104,4.33394828 46.8898882,6.8017069 L50.4110061,6.8017069 C50.1949522,5.31946552 49.8102923,3.88791379 49.2642047,2.52705172 C48.9292687,1.69325862 48.5363798,0.893086207 48.0865886,0.126534483" id="Fill-62"></path>
                        <path d="M49.1943811,0.126534483 C49.5555798,0.787224138 49.878435,1.47101724 50.1615461,2.17705172 C50.504536,3.03032759 50.7862465,3.90756897 51.0038761,4.80774138 L51.9766438,0.126534483 L49.1943811,0.126534483 Z" id="Fill-64"></path>
                        <path d="M46.3265199,11.9888966 L43.3943852,11.9888966 C43.3777522,12.4037241 43.3434357,12.8194138 43.2917859,13.239069 C43.0601495,15.0985517 42.4909508,16.9637241 41.6181562,18.764069 L44.5972135,18.764069 C45.4812135,16.7635517 46.0486613,14.7016552 46.268567,12.6430345 C46.293429,12.4242414 46.312163,12.2078621 46.3265199,11.9888966" id="Fill-66"></path>
                        <path d="M47.229464,12.7422931 C47.0128848,14.7674655 46.4748512,16.7940172 45.6456525,18.7648793 L47.872198,18.7648793 L49.2588646,11.9888448 L47.2944202,11.9888448 C47.2777872,12.2397069 47.2557266,12.491431 47.229464,12.7422931" id="Fill-68"></path>
                        <path d="M26.1786734,27.6175172 L25.9232256,28.8492414 L29.1675354,28.8492414 C31.8328418,27.902 34.3484512,26.3516552 36.4034141,24.3266552 C36.5067138,24.2266552 36.6072121,24.1232069 36.7071852,24.0218276 L37.5122222,20.1602759 C36.8395488,21.1392414 36.0553468,22.0763103 35.1669697,22.9511379 C32.6618653,25.4187241 29.4222828,27.0782069 26.1786734,27.6175172" id="Fill-70"></path>
                        <path id="Fill-72" d="M17.8041347,30.8918793 L17.6877037,31.4494655 L18.039798,31.4494655 L18.1579798,30.8918793 L17.8041347,30.8918793 Z"></path>
                        <path d="M16.9816242,34.8322931 L17.3321428,34.8322931 L17.9281293,31.9857414 L17.5735838,31.9857414 L16.9816242,34.8322931 Z" id="Fill-74"></path>
                        <path d="M14.4265684,33.7887241 C14.3201172,34.2861379 13.9618949,34.6225172 13.3975987,34.6225172 C13.0610869,34.6225172 12.7531138,34.4747586 12.7489118,34.1106207 C12.743134,33.5138966 13.4541508,33.4942414 13.8853832,33.4582069 C14.0634438,33.444931 14.4099354,33.4359655 14.521464,33.299069 L14.5330195,33.3106207 L14.4265684,33.7887241 Z M15.0027704,32.5368276 C14.9976929,32.0357931 14.3848983,31.9023448 13.9935852,31.9023448 C13.3708108,31.9023448 12.8695448,32.189069 12.7797266,32.8351034 L13.1326963,32.8351034 C13.2009791,32.3594138 13.5865145,32.194931 14.0352552,32.194931 C14.3064606,32.194931 14.646299,32.2668276 14.6496256,32.6056207 C14.6529522,32.9776897 14.5363461,33.1073448 14.3099623,33.1611379 C14.0851542,33.2156207 13.7587973,33.1878621 13.3883192,33.244931 C12.8746222,33.332 12.3901643,33.5238966 12.3950667,34.1254483 C12.4010195,34.6832069 12.801437,34.9159655 13.327565,34.9159655 C13.7321845,34.9159655 14.1268242,34.7225172 14.3283461,34.392 L14.3365751,34.4026897 C14.3325481,34.4518276 14.3283461,34.5076897 14.3299219,34.5583793 C14.3349993,34.7452759 14.4432013,34.8666552 14.63807,34.8666552 C14.7329657,34.8666552 14.8511475,34.8568276 14.9302855,34.8388966 L14.9777333,34.5614828 C14.9276593,34.5682069 14.8886155,34.5732069 14.8378411,34.5732069 C14.7529253,34.5732069 14.6529522,34.5583793 14.6513764,34.4576897 C14.6496256,34.2861379 14.7096795,34.1378621 14.8318882,33.4976897 C14.8868646,33.244931 15.0059219,32.8138966 15.0027704,32.5368276 L15.0027704,32.5368276 Z" id="Fill-76"></path>
                        <path d="M25.8290128,31.2126207 L28.0102114,31.2126207 L28.0718411,30.891931 L25.5126357,30.891931 L24.6944673,34.8322759 L25.0747502,34.8322759 L25.4660633,32.9564138 L27.4091475,32.9564138 L27.4674505,32.6352069 L25.5343461,32.6352069 L25.8290128,31.2126207 Z" id="Fill-78"></path>
                        <path d="M19.3418465,34.6225 C18.7540889,34.6225 18.4701024,34.2469828 18.4643246,33.6961207 C18.4576714,33.0287069 18.8773481,32.1949138 19.6499946,32.1949138 C20.2160418,32.1949138 20.5058061,32.559569 20.5107084,33.0892241 C20.5164862,33.7516379 20.1144929,34.6225 19.3418465,34.6225 M19.7081226,31.9023276 C18.6758263,31.9023276 18.1013751,32.7957759 18.1104795,33.7285345 C18.1180081,34.4419828 18.5334828,34.9159483 19.2760148,34.9159483 C20.34753,34.9159483 20.8729576,33.9778448 20.8629778,33.0169828 C20.8563246,32.3169828 20.380971,31.9023276 19.7081226,31.9023276" id="Fill-80"></path>
                        <path d="M23.9857616,12.097931 C22.8818559,13.185 22.2741387,14.477931 22.2741387,15.7412069 C22.2741387,16.4710345 22.4821387,17.1308621 22.8785293,17.6768966 L23.9125764,17.6768966 L25.25127,11.137069 C24.801829,11.392931 24.3728727,11.7158621 23.9857616,12.097931" id="Fill-82"></path>
                        <path d="M22.910132,31.9022759 C22.4790747,31.9022759 22.0993172,32.166069 21.8844889,32.504 L21.8760848,32.504 L21.9694047,31.9857241 L21.6447987,31.9857241 L21.0502128,34.8322759 L21.4049333,34.8322759 L21.7088795,33.3714138 C21.8587515,32.6481379 22.3192229,32.1948621 22.8302936,32.1948621 C23.1433441,32.1948621 23.4353845,32.3324483 23.4395865,32.7088276 C23.4395865,32.8024483 23.4229535,32.9064138 23.4038694,32.9952069 L23.0167582,34.8322759 L23.3706034,34.8322759 L23.7510613,33.0072759 C23.7794249,32.8727931 23.7918559,32.7579655 23.7909805,32.6676207 C23.785903,32.1234828 23.4138492,31.9022759 22.910132,31.9022759" id="Fill-84"></path>
                        <path d="M16.5636633,31.1247241 L16.2098182,31.1247241 L16.0349091,31.9857586 L15.5136835,31.9857586 L15.4473266,32.2778276 L15.9699529,32.2778276 L15.5887946,34.165069 C15.5637576,34.2928276 15.5537778,34.3969655 15.5537778,34.4576552 C15.5571044,34.8011034 15.8269091,34.8666207 16.0898855,34.8666207 C16.207367,34.8666207 16.3313266,34.8567931 16.4479327,34.8436897 L16.5079865,34.5405862 C16.3680943,34.5616207 16.2331044,34.5731724 16.0925118,34.5731724 C15.9601481,34.5731724 15.9076229,34.4748966 15.9067475,34.3755862 C15.9051717,34.2861034 15.9151515,34.2373103 15.9442155,34.1043793 L16.3222222,32.2778276 L16.9126061,32.2778276 L16.9642559,31.9857586 L16.386303,31.9857586 L16.5636633,31.1247241 Z" id="Fill-86"></path>
                    </g>
                </g>
            </g>
        </g>
    </g>
</svg>