<?xml version="1.0" encoding="UTF-8" standalone="no"?>
<svg width="159px" height="35px" viewBox="0 0 159 35" version="1.1" xmlns="http://www.w3.org/2000/svg" xmlns:xlink="http://www.w3.org/1999/xlink" xmlns:sketch="http://www.bohemiancoding.com/sketch/ns">
    <!-- Generator: Sketch 3.2.2 (9983) - http://www.bohemiancoding.com/sketch -->
    <title>MadWave</title>
    <desc>Created with Sketch.</desc>
    <defs></defs>
    <g id="Page-1" stroke="none" stroke-width="1" fill="none" fill-rule="evenodd" sketch:type="MSPage">
        <g id="О-чемпионате-(дизайн)" sketch:type="MSArtboardGroup" transform="translate(-1193.000000, -6425.000000)" fill="#FFFFFF">
            <g id="6_block" sketch:type="MSLayerGroup" transform="translate(0.000000, 5999.000000)">
                <g id="logo" transform="translate(569.000000, 324.000000)" sketch:type="MSShapeGroup">
                    <g id="MadWave" transform="translate(624.000000, 102.000000)">
                        <path d="M90.9723678,12.502 L90.4116034,7.80926087 L91.2136092,7.80926087 L91.5480575,11.5253478 C91.5687701,11.4754348 91.7055345,11.1528261 91.9589598,10.5578261 L93.1803966,7.80926087 L93.9775287,7.80926087 L94.1755172,10.5310435 L94.2437471,11.4282609 L94.6686609,10.5225217 L95.9394425,7.80926087 L96.6945402,7.80926087 L94.4219368,12.502 L93.6153621,12.502 L93.390569,9.69165217 L93.3567586,8.89213043 L91.7832069,12.502 L90.9723678,12.502" id="Fill-1"></path>
                        <path d="M97.3497299,12.502 L96.7889655,7.80926087 L97.5909713,7.80926087 L97.9257241,11.5253478 C97.9461322,11.4754348 98.0828966,11.1528261 98.3363218,10.5578261 L99.5577586,7.80926087 L100.354891,7.80926087 L100.553184,10.5310435 L100.621109,11.4282609 L101.046328,10.5225217 L102.317109,7.80926087 L103.071902,7.80926087 L100.799603,12.502 L99.9930287,12.502 L99.7682356,9.69165217 L99.7341207,8.89213043 L98.160569,12.502 L97.3497299,12.502" id="Fill-2"></path>
                        <path d="M103.727397,12.502 L103.166632,7.80926087 L103.968638,7.80926087 L104.303086,11.5253478 C104.323799,11.4754348 104.460563,11.1528261 104.713989,10.5578261 L105.935425,7.80926087 L106.732557,7.80926087 L106.930546,10.5310435 L106.998776,11.4282609 L107.42369,10.5225217 L108.694471,7.80926087 L109.449569,7.80926087 L107.176966,12.502 L106.370391,12.502 L106.145598,9.69165217 L106.111787,8.89213043 L104.538236,12.502 L103.727397,12.502" id="Fill-3"></path>
                        <path d="M108.992063,12.502 L109.154414,11.5959565 L110.038661,11.5959565 L109.876006,12.502 L108.992063,12.502" id="Fill-4"></path>
                        <path d="M111.225983,12.502 L112.066672,7.80926087 L112.760851,7.80926087 L112.642971,8.46786957 C112.827862,8.23778261 113.052351,8.05334783 113.315828,7.91304348 C113.579609,7.77334783 113.863494,7.70334783 114.168397,7.70334783 C114.507414,7.70334783 114.773023,7.77578261 114.964006,7.91973913 C115.154989,8.064 115.271954,8.26608696 115.314902,8.5253913 C115.774845,7.97726087 116.295402,7.70334783 116.87627,7.70334783 C117.330425,7.70334783 117.656345,7.8323913 117.854943,8.09017391 C118.052931,8.34795652 118.104103,8.74452174 118.008155,9.28078261 L117.430943,12.502 L116.659092,12.502 L117.188787,9.54586957 C117.245747,9.22782609 117.261282,8.99865217 117.236305,8.85865217 C117.211023,8.71865217 117.140052,8.60604348 117.023086,8.52082609 C116.905816,8.43530435 116.758695,8.39269565 116.580201,8.39269565 C116.258241,8.39269565 115.97131,8.50226087 115.719408,8.72169565 C115.467506,8.94113043 115.297845,9.29265217 115.211339,9.77565217 L114.722764,12.502 L113.946954,12.502 L114.492793,9.45304348 C114.556149,9.09969565 114.540615,8.83430435 114.44558,8.65778261 C114.351155,8.48095652 114.159868,8.39269565 113.872328,8.39269565 C113.653931,8.39269565 113.441322,8.45173913 113.235109,8.56921739 C113.028592,8.68730435 112.863195,8.85956522 112.739224,9.08630435 C112.614948,9.31334783 112.514736,9.64021739 112.438282,10.0672174 L112.002098,12.502 L111.225983,12.502" id="Fill-5"></path>
                        <path d="M121.674293,11.9228261 C121.341672,12.1736087 121.033115,12.3504348 120.748925,12.4536087 C120.464431,12.5564783 120.169885,12.6076087 119.865287,12.6076087 C119.362397,12.6076087 118.998098,12.481913 118.773,12.2302174 C118.548207,11.9782174 118.470534,11.6565217 118.540897,11.2648261 C118.582017,11.0350435 118.670351,10.8250435 118.806506,10.6351304 C118.942661,10.444913 119.103793,10.2924348 119.289598,10.1776957 C119.475402,10.0626522 119.677351,9.97591304 119.894833,9.91717391 C120.054443,9.87578261 120.291724,9.83621739 120.606069,9.79786957 C121.246333,9.72117391 121.724247,9.62986957 122.039201,9.52365217 C122.061437,9.41469565 122.075448,9.3456087 122.080931,9.31608696 C122.138805,8.99226087 122.106517,8.764 121.98346,8.63130435 C121.817149,8.45173913 121.538747,8.36134783 121.147948,8.36134783 C120.782736,8.36134783 120.501287,8.4273913 120.304213,8.55826087 C120.106529,8.68973913 119.936868,8.92104348 119.793402,9.25430435 L119.053534,9.14808696 C119.182379,8.81543478 119.343816,8.54669565 119.538759,8.34156522 C119.733701,8.13704348 119.990172,7.97969565 120.309086,7.86891304 C120.627695,7.75873913 120.984075,7.70334783 121.37792,7.70334783 C121.768718,7.70334783 122.07819,7.75052174 122.30542,7.84456522 C122.532954,7.93921739 122.691345,8.0576087 122.780592,8.20034783 C122.870144,8.3433913 122.918575,8.52386957 122.925276,8.74147826 C122.926799,8.87721739 122.896034,9.1216087 122.832678,9.47526087 L122.642609,10.5356087 C122.510414,11.2754783 122.442793,11.7429565 122.440661,11.9383478 C122.438529,12.1346522 122.470511,12.3224348 122.536305,12.502 L121.72577,12.502 C121.674598,12.3370435 121.657236,12.144087 121.674293,11.9228261 L121.674293,11.9228261 Z M121.927414,10.1469565 C121.624644,10.2647391 121.184195,10.3645652 120.606374,10.4473478 C120.278626,10.4942174 120.043172,10.5474783 119.900621,10.6062174 C119.757764,10.6652609 119.64019,10.7516957 119.547897,10.864913 C119.456213,10.9781304 119.397425,11.1041304 119.372753,11.2426087 C119.334678,11.4547391 119.380977,11.6318696 119.512563,11.7727826 C119.644149,11.914 119.860414,11.9852174 120.16227,11.9852174 C120.46108,11.9852174 120.739178,11.9179565 120.996259,11.7837391 C121.253034,11.6501304 121.457115,11.4663043 121.607891,11.2337826 C121.723333,11.053913 121.81258,10.7891304 121.875328,10.4385217 L121.927414,10.1469565 L121.927414,10.1469565 Z" id="Fill-6"></path>
                        <path d="M126.464397,12.502 L126.570701,11.9100435 C126.196655,12.3753913 125.728184,12.6076087 125.164678,12.6076087 C124.799466,12.6076087 124.482379,12.5050435 124.213724,12.2986957 C123.944155,12.0926522 123.758351,11.8044348 123.656615,11.4349565 C123.554575,11.0651739 123.546655,10.6406087 123.632856,10.1600435 C123.716925,9.69165217 123.869224,9.26678261 124.089448,8.88513043 C124.310282,8.50378261 124.591121,8.21130435 124.932575,8.008 C125.27342,7.80469565 125.632236,7.70334783 126.009023,7.70334783 C126.284684,7.70334783 126.520138,7.763 126.714167,7.88230435 C126.9085,8.0016087 127.05623,8.15713043 127.157052,8.34826087 L127.573132,6.02426087 L128.345287,6.02426087 L127.184466,12.502 L126.464397,12.502 L126.464397,12.502 Z M124.430902,10.1600435 C124.323075,10.7608261 124.366023,11.2103478 124.559747,11.5076957 C124.753776,11.8053478 125.018776,11.9538696 125.355356,11.9538696 C125.694374,11.9538696 126.007805,11.8120435 126.296259,11.5277826 C126.584408,11.2432174 126.780264,10.8092174 126.885046,10.2263913 C126.999879,9.58421739 126.963632,9.11278261 126.776305,8.8123913 C126.588368,8.512 126.31819,8.36134783 125.964552,8.36134783 C125.619443,8.36134783 125.305402,8.50621739 125.022126,8.79443478 C124.738851,9.08326087 124.54208,9.53856522 124.430902,10.1600435 L124.430902,10.1600435 Z" id="Fill-7"></path>
                        <path d="M129.250247,12.502 L128.689787,7.80926087 L129.491793,7.80926087 L129.735167,10.5179565 L129.825937,11.5253478 C129.846649,11.4754348 129.983718,11.1528261 130.236839,10.5578261 L131.457971,7.80926087 L132.255713,7.80926087 L132.453397,10.5310435 L132.521626,11.4282609 L132.94654,10.5225217 L134.217626,7.80926087 L134.972115,7.80926087 L132.699816,12.502 L131.893241,12.502 L131.668448,9.69165217 L131.634638,8.89213043 L130.061086,12.502 L129.250247,12.502" id="Fill-8"></path>
                        <path d="M137.874626,11.9228261 C137.542006,12.1736087 137.233753,12.3504348 136.949259,12.4536087 C136.664764,12.5564783 136.370523,12.6076087 136.065925,12.6076087 C135.56273,12.6076087 135.198736,12.481913 134.973638,12.2302174 C134.74854,11.9782174 134.671172,11.6565217 134.74123,11.2648261 C134.782655,11.0350435 134.870989,10.8250435 135.007144,10.6351304 C135.142994,10.444913 135.304431,10.2924348 135.489931,10.1776957 C135.67604,10.0626522 135.877684,9.97591304 136.095167,9.91717391 C136.25508,9.87578261 136.492057,9.83621739 136.806402,9.79786957 C137.446971,9.72117391 137.92458,9.62986957 138.239839,9.52365217 C138.262075,9.41469565 138.276086,9.3456087 138.281264,9.31608696 C138.339443,8.99226087 138.306546,8.764 138.184098,8.63130435 C138.018092,8.45173913 137.739385,8.36134783 137.348586,8.36134783 C136.983374,8.36134783 136.701925,8.4273913 136.504546,8.55826087 C136.307167,8.68973913 136.137201,8.92104348 135.993736,9.25430435 L135.254172,9.14808696 C135.382713,8.81543478 135.544454,8.54669565 135.739092,8.34156522 C135.934034,8.13704348 136.19081,7.97969565 136.50942,7.86891304 C136.828333,7.75873913 137.184713,7.70334783 137.578557,7.70334783 C137.969356,7.70334783 138.278523,7.75052174 138.505753,7.84456522 C138.733592,7.93921739 138.891983,8.0576087 138.98123,8.20034783 C139.070782,8.3433913 139.118908,8.52386957 139.125914,8.74147826 C139.127437,8.87721739 139.096672,9.1216087 139.033316,9.47526087 L138.843247,10.5356087 C138.710747,11.2754783 138.643431,11.7429565 138.641299,11.9383478 C138.639167,12.1346522 138.670845,12.3224348 138.736638,12.502 L137.926103,12.502 C137.874931,12.3370435 137.858178,12.144087 137.874626,11.9228261 L137.874626,11.9228261 Z M138.128052,10.1469565 C137.825282,10.2647391 137.384833,10.3645652 136.806707,10.4473478 C136.47896,10.4942174 136.24381,10.5474783 136.101259,10.6062174 C135.958098,10.6652609 135.840523,10.7516957 135.748534,10.864913 C135.656546,10.9781304 135.598063,11.1041304 135.573086,11.2426087 C135.535316,11.4547391 135.581615,11.6318696 135.712897,11.7727826 C135.844483,11.914 136.060747,11.9852174 136.362603,11.9852174 C136.661718,11.9852174 136.939816,11.9179565 137.196592,11.7837391 C137.453368,11.6501304 137.657448,11.4663043 137.808224,11.2337826 C137.923667,11.053913 138.012914,10.7891304 138.075661,10.4385217 L138.128052,10.1469565 L138.128052,10.1469565 Z" id="Fill-9"></path>
                        <path d="M140.965989,12.502 L140.064684,7.80926087 L140.883747,7.80926087 L141.363489,10.6196087 C141.415575,10.9227391 141.456695,11.2380435 141.48746,11.5652174 C141.60077,11.3174783 141.750632,11.0201304 141.936132,10.6725652 L143.46704,7.80926087 L144.264782,7.80926087 L141.690626,12.502 L140.965989,12.502" id="Fill-10"></path>
                        <path d="M147.515144,10.990913 L148.298874,11.0922609 C148.086569,11.5725217 147.785017,11.9453478 147.395741,12.2104348 C147.006161,12.4752174 146.545305,12.6076087 146.013477,12.6076087 C145.343667,12.6076087 144.850828,12.3966957 144.534046,11.9736522 C144.217569,11.5512174 144.127408,10.9586522 144.263868,10.1953478 C144.405506,9.40617391 144.713454,8.79291304 145.188322,8.3573913 C145.66319,7.92126087 146.216644,7.70334783 146.848989,7.70334783 C147.461534,7.70334783 147.923305,7.91669565 148.234908,8.344 C148.546511,8.77130435 148.633017,9.37208696 148.493816,10.1469565 C148.485592,10.1938261 148.471276,10.2647391 148.451782,10.359087 L145.036937,10.359087 C144.972971,10.8743478 145.044552,11.269087 145.251678,11.543 C145.458195,11.8172174 145.752437,11.9538696 146.135011,11.9538696 C146.41981,11.9538696 146.676282,11.8771739 146.905034,11.7243913 C147.133787,11.571 147.336954,11.326913 147.515144,10.990913 L147.515144,10.990913 Z M145.196851,9.70504348 L147.754253,9.70504348 C147.790195,9.3106087 147.745724,9.01447826 147.619925,8.81695652 C147.42742,8.51047826 147.134397,8.3573913 146.740552,8.3573913 C146.384172,8.3573913 146.062517,8.47943478 145.775891,8.72413043 C145.48896,8.96882609 145.296149,9.2953913 145.196851,9.70504348 L145.196851,9.70504348 Z" id="Fill-11"></path>
                        <path d="M149.24069,12.502 L149.40304,11.5959565 L150.286983,11.5959565 L150.124632,12.502 L149.24069,12.502" id="Fill-12"></path>
                        <path d="M151.465471,12.502 L152.306161,7.80926087 L153.004603,7.80926087 L152.877282,8.52082609 C153.115172,8.18786957 153.319253,7.96813043 153.488914,7.86252174 C153.658879,7.75630435 153.834632,7.70334783 154.015563,7.70334783 C154.277213,7.70334783 154.527897,7.78886957 154.76731,7.9596087 L154.368287,8.69734783 C154.198626,8.58291304 154.019218,8.5253913 153.829454,8.5253913 C153.659793,8.5253913 153.498356,8.57743478 153.34423,8.68182609 C153.190408,8.78682609 153.06796,8.93169565 152.977494,9.11734783 C152.840425,9.4003913 152.74204,9.70930435 152.68173,10.0453043 L152.241586,12.502 L151.465471,12.502" id="Fill-13"></path>
                        <path d="M157.416092,12.502 L157.539759,11.8126522 C157.088345,12.3425217 156.556517,12.6076087 155.944276,12.6076087 C155.674098,12.6076087 155.431333,12.5549565 155.215983,12.4490435 C155.000632,12.3425217 154.85077,12.2098261 154.765787,12.0491304 C154.681109,11.8884348 154.636333,11.6918261 154.632069,11.4593043 C154.628414,11.3028696 154.657046,11.0554348 154.717661,10.7166957 L155.238523,7.80926087 L156.014943,7.80926087 L155.548603,10.4120435 C155.473977,10.8274783 155.439557,11.1074783 155.445649,11.2514348 C155.45692,11.4608261 155.530937,11.6248696 155.667701,11.7444783 C155.804161,11.8634783 155.989356,11.9228261 156.222374,11.9228261 C156.455086,11.9228261 156.684144,11.8619565 156.910155,11.739913 C157.136167,11.6175652 157.310701,11.451087 157.433149,11.2401739 C157.555598,11.0298696 157.653069,10.7243043 157.724649,10.3234783 L158.175149,7.80926087 L158.951569,7.80926087 L158.110575,12.502 L157.416092,12.502" id="Fill-14"></path>
                        <path d="M111.629879,16.5571304 L106.320437,23.0744348 L105.272925,18.8147826 C104.991782,17.5572174 104.036259,16.5817826 102.523322,16.5571304 C100.92723,16.534 99.8139253,17.1393478 99.1072586,18.4471304 L96.3451667,22.8242609 L94.5145345,16.5571304 L90.0616207,16.5571304 L93.3433563,26.5753478 C93.7426839,27.6104348 94.4322931,28.4665652 95.8221724,28.4665652 C97.1678851,28.4394783 97.8916092,27.8937826 98.5379655,26.9454348 L101.411845,22.6565652 L102.314063,26.831 C102.54708,28.1004348 103.615,28.4464783 104.979293,28.4416087 C106.370391,28.3944348 107.357287,28.1847391 108.353017,27.1137391 L116.980138,16.5422174 L111.629879,16.5571304 L111.629879,16.5571304 Z M147.683586,19.8364783 L156.756333,19.8364783 L157.350299,16.5665652 L142.43019,16.5510435 L142.428667,16.5522609 L137.911483,16.5522609 C137.531954,16.9832174 133.225247,22.2724783 132.313282,23.3909565 C131.504879,20.9972609 130.855477,18.9547826 130.062305,16.5522609 L125.626753,16.5522609 L129.047994,27.0352174 C129.491793,28.2443913 130.205466,28.5974348 131.29227,28.6436957 C132.469236,28.6601304 133.520098,28.266913 134.35104,27.4132174 L142.152397,17.8926087 C141.692759,20.118 141.218195,22.4438261 140.819172,24.639087 C140.517316,27.3611739 143.233414,28.3347826 145.212385,28.343 L155.122471,28.3518261 L155.738977,24.9604783 C152.650356,24.9604783 149.894966,24.9982174 146.800253,24.9537826 C146.290356,24.9422174 145.592828,24.926087 145.732943,24.3721739 L145.848994,23.737 L156.017684,23.737 L156.500471,21.0846087 L146.389046,21.0846087 L146.569063,20.1934783 C146.629983,19.8264348 147.443259,19.8428696 147.683586,19.8364783 L147.683586,19.8364783 Z M51.883954,16.5592609 L48.0877529,16.5580435 L41.4539195,16.555913 L39.1800977,27.7035652 L35.9681149,17.8594348 C35.5255345,16.653913 34.8234368,16.3008696 33.7384598,16.2546087 C33.2373966,16.2463913 32.6891207,16.3410435 32.1618621,16.5321739 C31.5752069,16.744913 31.0156609,17.0778696 30.5782586,17.5264783 L22.973977,26.8839565 C23.5045862,24.5127826 23.8804598,22.3163043 24.4135057,19.8258261 C24.8466437,17.8040435 23.4348333,16.3209565 20.6913218,16.3209565 C17.9487241,16.3209565 16.6203736,18.1747391 16.6203736,18.1747391 L12.0072414,23.1678696 L9.61828161,18.451087 C9.36942529,17.9753913 8.68042529,16.3112174 5.78370115,16.3209565 C3.18243678,16.2640435 2.1069023,18.2173478 1.99145977,18.8917826 L0.124885057,28.3034348 L4.98291379,28.3034348 L6.39106897,21.3810435 L8.51502874,25.5025217 C8.87475862,26.1839565 9.37125287,27.8204348 11.5506494,27.8554348 C13.7294368,27.8886087 15.1257126,26.0031739 15.1257126,26.0031739 L19.2134138,21.4282174 L17.8198793,28.3034348 C18.4433908,28.3034348 20.5347586,28.3016087 21.8210747,28.3016087 L21.8046264,28.3223043 L27.1591494,28.3083043 L28.6044655,26.5132609 L32.1618621,26.5156957 L34.3580115,26.5181304 L34.9407069,28.3095217 L39.3780862,28.3095217 L39.3726034,28.2970435 L49.6762299,28.2970435 C49.6762299,28.2970435 54.8440345,28.7146087 55.5022701,25.3753043 L56.4785057,20.4823043 C56.4785057,20.4823043 56.5701897,20.2260435 56.604,19.8477391 L56.604,19.3014348 C56.498,18.1634783 55.6637069,16.604913 51.883954,16.5592609 L51.883954,16.5592609 Z M32.1618621,23.7156957 L30.8868161,23.7156957 L32.1618621,22.1403913 L32.697954,21.482087 L33.4378218,23.7156957 L32.1618621,23.7156957 L32.1618621,23.7156957 Z M51.5425,20.8816087 C51.3451207,21.8062174 51.0164598,23.3325217 50.8221264,24.2577391 C50.6719598,24.9863478 50.0161609,25.1917826 49.318023,25.1315217 L48.0877529,25.1257391 L44.605592,25.1086957 L45.6939195,19.7101739 C45.7907816,19.7101739 46.8416437,19.7183913 48.0877529,19.7290435 C48.8559483,19.7348261 49.6993793,19.7396957 50.4425977,19.7436522 C51.7054598,19.7500435 51.5955,20.656087 51.5425,20.8816087 L51.5425,20.8816087 Z M121.561287,16.2546087 C121.083678,16.2463913 120.583833,16.3331304 120.105615,16.5075217 C119.525356,16.7199565 118.974644,17.0602174 118.522011,17.5264783 L109.748379,28.3223043 L115.102293,28.3083043 L116.548218,26.5132609 L120.105615,26.5156957 L122.300546,26.5181304 L122.88446,28.3095217 L127.320011,28.3095217 L123.911868,17.8594348 C123.468069,16.653913 122.646569,16.3008696 121.561287,16.2546087 L121.561287,16.2546087 Z M120.105615,23.7156957 L118.828132,23.7156957 L120.105615,22.1416087 L120.639879,21.482087 L121.381575,23.7156957 L120.105615,23.7156957 L120.105615,23.7156957 Z M67.6639425,19.6617826 C68.4857471,20.7196957 69.6560115,21.665 70.6825057,22.511087 C72.2691552,21.6053478 73.8689023,20.2342609 75.0571379,18.6933478 C75.687046,17.8773913 76.2018161,17.0106087 76.5368736,16.1426087 C77.2082069,17.3447826 78.0166092,18.5213913 79.5667069,20.531913 C81.4421149,19.8577826 84.7862931,16.9673913 85.7448621,15.6796957 C84.9861092,12.5832609 83.7987874,9.95156522 83.2617816,7.06117391 C82.9757644,5.51143478 82.8983966,3.95895652 83.0442989,2.40617391 C83.1210575,1.59265217 83.7086264,0.391695652 84.1588218,0.0136956522 C81.666908,0.181391304 79.2444425,1.08895652 77.0543851,2.19769565 C76.1771437,2.63991304 75.5262184,3.1856087 75.0571379,3.80556522 C73.2587931,6.17430435 74.1074023,9.63047826 75.0004828,12.6687826 C75.0218046,12.7396957 75.0412989,12.8145652 75.0571379,12.8891304 C75.1899425,13.5115217 75.1734943,14.2955217 75.0571379,14.9699565 C74.9672816,15.4800435 74.8201609,15.9292609 74.6358793,16.1967826 C72.1278218,11.6857391 71.6343736,9.18947826 71.7504253,6.93852174 C71.8171322,5.65721739 72.0930977,4.62273913 72.5822816,3.62356522 C71.7790575,3.79369565 70.2380977,4.65652174 69.3864425,5.24878261 C65.2859483,8.10052174 62.7395115,10.7812174 64.7666092,15.6051304 C64.9289598,15.988913 65.7900575,17.4756522 65.928954,17.892 C66.1388218,18.5213913 66.1988276,19.5765652 65.9383966,20.3216087 C65.2734598,19.8647826 64.6624368,19.0217391 64.3279885,17.9918261 C64.0501954,17.1293043 64.0325287,16.2734783 64.1644195,15.5567391 C62.993546,16.4825652 61.9393333,17.5146087 61.1102184,18.7764348 C60.5083333,19.6946522 60.0834195,21.2185217 60.5211264,22.686087 C60.9253276,24.044087 62.3615057,25.3372609 63.2588506,26.0704348 C65.2274655,24.9002174 67.1969943,21.9401304 67.6639425,19.6617826 L67.6639425,19.6617826 Z M80.2337759,21.5143478 C80.8737356,22.3984783 81.3452529,23.2302609 81.6833563,23.9944783 C83.0077471,26.9974783 82.2477759,28.8183913 81.8417471,29.1796522 C81.8594138,27.5559565 81.7065057,26.2512174 80.8405345,24.7656957 C79.7799253,22.9411304 77.8813678,20.4476087 76.5883506,19.1933913 C76.2319713,19.7019565 75.684,20.2923913 75.0571379,20.8727826 C73.9514483,21.8935652 72.6036034,22.8854348 71.624931,23.3614348 C72.6237069,24.3192174 73.4202299,25.2094348 74.1576609,26.6477826 C74.7327414,27.7650435 75.2048678,29.1845217 74.7397471,30.4609565 C73.6331437,26.8617391 71.2828678,25.318087 68.3447184,22.4444348 C67.4458506,23.8633043 65.7550287,25.9179565 64.370023,26.9390435 C67.3483793,29.462087 71.7927644,30.8106522 72.1567586,34.7343043 C72.9091149,34.5069565 73.6559885,34.2765652 74.4001207,33.7753043 C74.6386207,33.6170435 74.8567126,33.4228696 75.0571379,33.2037391 C76.0617011,32.0989565 76.5728161,30.3270435 76.4722989,28.8065217 C77.4403103,30.1599565 77.6562701,31.8853043 77.323954,32.9776087 C79.4518736,32.2748696 81.8158563,31.1825652 83.5152069,29.5938696 C84.7208046,28.4677826 86.2955747,26.3963913 86.7954195,24.8493913 C87.5425977,22.54 87.0515862,19.4886087 86.3193333,17.6847391 C85.1615575,18.8245217 82.2718391,20.663087 80.2337759,21.5143478 L80.2337759,21.5143478 Z M86.2383103,2.744 C86.2035862,2.71447826 86.1521092,2.68617391 86.0793103,2.65756522 C86.252931,2.61617391 86.3817759,2.55134783 86.4658448,2.46065217 C86.5468678,2.36782609 86.5885977,2.25978261 86.5885977,2.13682609 C86.5885977,1.97704348 86.5343793,1.8486087 86.4280747,1.75426087 C86.3193333,1.65747826 86.1460172,1.61152174 85.9078218,1.61152174 L85.063477,1.61152174 L85.063477,3.4726087 L85.5322529,3.4726087 L85.5322529,2.73973913 C85.5569253,2.73486957 85.5764195,2.73334783 85.5913448,2.73334783 C85.6528736,2.73334783 85.7140977,2.76804348 85.774408,2.83713043 C85.7875057,2.85204348 85.8021264,2.87030435 85.8188793,2.89495652 C85.888023,2.99721739 85.9943276,3.18926087 86.1390115,3.4726087 L86.6952069,3.4726087 C86.4947816,3.11895652 86.391523,2.9393913 86.388477,2.933 C86.337,2.85143478 86.285523,2.78630435 86.2383103,2.744 L86.2383103,2.744 Z M85.8188793,2.39917391 C85.7945115,2.39917391 85.7661839,2.40130435 85.7354195,2.40130435 L85.5322529,2.40130435 L85.5322529,1.93504348 L85.7561322,1.93504348 C85.7792816,1.93504348 85.7993851,1.93626087 85.8188793,1.93747826 C85.9133046,1.94326087 85.9824483,1.96456522 86.0266149,1.99986957 C86.0799195,2.04308696 86.1076379,2.10030435 86.1076379,2.16817391 C86.1076379,2.23604348 86.0793103,2.29173913 86.022046,2.33647826 C85.9794023,2.36934783 85.9126954,2.38973913 85.8188793,2.39917391 L85.8188793,2.39917391 Z M86.7488161,1.03630435 C86.4752874,0.87926087 86.1804368,0.801347826 85.8636552,0.801347826 L85.8188793,0.802565217 C85.5222011,0.809565217 85.2425805,0.885347826 84.9815402,1.03630435 C84.7089253,1.19 84.4920517,1.40121739 84.3348793,1.67178261 C84.1764885,1.94082609 84.0979023,2.23086957 84.0979023,2.54069565 C84.0979023,2.85508696 84.1764885,3.1436087 84.3348793,3.41234783 C84.4920517,3.68108696 84.7089253,3.89352174 84.9815402,4.04873913 C85.2425805,4.19756522 85.5222011,4.27426087 85.8188793,4.28156522 L85.8636552,4.28217391 C86.1804368,4.28217391 86.4752874,4.20334783 86.7488161,4.04873913 C87.021431,3.89352174 87.2370862,3.68108696 87.3942586,3.41234783 C87.5520402,3.1436087 87.6318448,2.85508696 87.6318448,2.54069565 C87.6318448,2.23086957 87.5520402,1.94082609 87.3942586,1.67178261 C87.2370862,1.40121739 87.021431,1.19 86.7488161,1.03630435 L86.7488161,1.03630435 Z M86.870046,3.535 C86.5928621,3.81043478 86.2565862,3.94617391 85.8636552,3.94617391 L85.8188793,3.94617391 C85.4463563,3.93613043 85.1231782,3.79978261 84.8548276,3.535 C84.5776437,3.26047826 84.4390517,2.92934783 84.4390517,2.54069565 C84.4390517,2.15356522 84.5776437,1.82395652 84.8548276,1.54882609 C85.1231782,1.28434783 85.4463563,1.1473913 85.8188793,1.13673913 L85.8636552,1.13673913 C86.2565862,1.13673913 86.5928621,1.27491304 86.870046,1.54882609 C87.1502759,1.82395652 87.289477,2.15356522 87.289477,2.54069565 C87.289477,2.92934783 87.1502759,3.26047826 86.870046,3.535 L86.870046,3.535 Z" id="Fill-15"></path>
                    </g>
                </g>
            </g>
        </g>
    </g>
</svg>