<?xml version="1.0" encoding="UTF-8" standalone="no"?>
<svg width="124px" height="35px" viewBox="0 0 124 35" version="1.1" xmlns="http://www.w3.org/2000/svg" xmlns:xlink="http://www.w3.org/1999/xlink" xmlns:sketch="http://www.bohemiancoding.com/sketch/ns">
    <!-- Generator: Sketch 3.2.2 (9983) - http://www.bohemiancoding.com/sketch -->
    <title>Logo Piter</title>
    <desc>Created with Sketch.</desc>
    <defs></defs>
    <g id="Page-1" stroke="none" stroke-width="1" fill="none" fill-rule="evenodd" sketch:type="MSPage">
        <g id="О-чемпионате-(дизайн)" sketch:type="MSArtboardGroup" transform="translate(-799.000000, -6320.000000)" fill="#FFFFFF">
            <g id="6_block" sketch:type="MSLayerGroup" transform="translate(0.000000, 5999.000000)">
                <g id="logo" transform="translate(476.000000, 321.000000)" sketch:type="MSShapeGroup">
                    <path d="M423.315378,33.4086906 L423.796099,33.4086906 L425.229341,29.7505284 L425.245395,29.7505284 L425.237368,29.9187299 L425.237368,33.4086906 L425.826005,33.4086906 L425.826005,29.0539452 L424.935023,29.0539452 L423.556185,32.6346115 L422.176455,29.0539452 L421.285472,29.0539452 L421.285472,33.4086906 L421.882136,33.4086906 L421.882136,29.9187299 L421.866082,29.7505284 L421.882136,29.7505284 L423.315378,33.4086906 Z M415.549826,31.2273551 L415.557853,31.1278432 L415.557853,31.0124799 L415.573015,30.8821457 L415.597096,30.7447665 L415.627419,30.5915358 L415.666662,30.4471115 L415.720174,30.2938808 L415.782606,30.1406502 L415.821848,30.0631542 L415.867334,29.9944646 L415.913711,29.925775 L415.969007,29.8570853 L416.02252,29.7963215 L416.092086,29.7346769 L416.154517,29.6818388 L416.23211,29.62812 L416.309703,29.5814463 L416.394432,29.5356532 L416.480051,29.4977858 L416.580833,29.4660829 L416.681615,29.444067 L416.790424,29.4282156 L416.905476,29.4132448 L417.030338,29.4132448 L417.123985,29.4132448 L417.215848,29.4220511 L417.301468,29.4282156 L417.387088,29.444067 L417.463789,29.4660829 L417.541382,29.4907407 L417.618975,29.5198017 L417.688542,29.550624 L417.759,29.5884913 L417.820539,29.62812 L417.88297,29.6659873 L417.945401,29.7197061 L417.998914,29.7654992 L418.053318,29.819218 L418.099696,29.8720562 L418.146073,29.9345813 L418.231693,30.0631542 L418.301259,30.2005334 L418.362799,30.3537641 L418.418095,30.5158011 L418.456446,30.6840026 L418.479634,30.8592492 L418.502823,31.0353764 L418.502823,31.2273551 L418.502823,31.3876308 L418.495688,31.5408615 L418.471607,31.6782407 L418.456446,31.8094555 L418.426122,31.9309833 L418.394014,32.0463466 L418.354772,32.1529036 L418.317313,32.2524155 L418.270936,32.3440016 L418.223666,32.4285427 L418.169262,32.5060386 L418.122884,32.5747283 L418.060453,32.6434179 L418.006941,32.696256 L417.945401,32.7499748 L417.88297,32.7966486 L417.820539,32.8345159 L417.759,32.8723833 L417.696568,32.9120119 L417.635029,32.9340278 L417.511059,32.9807015 L417.387088,33.0097625 L417.278279,33.0335397 L417.185524,33.0405847 L417.099904,33.0493911 L417.030338,33.0493911 L416.913503,33.0405847 L416.805586,33.0335397 L416.704804,33.0185688 L416.604022,32.9956723 L416.511267,32.9718951 L416.425647,32.9410729 L416.340919,32.9032055 L416.263326,32.8653382 L416.19376,32.8186645 L416.131329,32.7658263 L416.068897,32.7121075 L416.007358,32.6583887 L415.952954,32.5967442 L415.906576,32.5368609 L415.860199,32.4681713 L415.821848,32.4056461 L415.744255,32.2594605 L415.688959,32.1150362 L415.642581,31.9618056 L415.604231,31.8094555 L415.581042,31.6562248 L415.56588,31.5100393 L415.557853,31.3656149 L415.549826,31.2273551 Z M414.922838,31.2273551 L414.929973,31.4343045 L414.945135,31.6333283 L414.969216,31.81562 L415.000432,31.9847021 L415.046809,32.1458585 L415.092295,32.2902828 L415.147591,32.4285427 L415.20913,32.5500705 L415.278696,32.6654338 L415.35629,32.773752 L415.433883,32.8723833 L415.511476,32.96485 L415.597096,33.0405847 L415.688959,33.1180807 L415.774579,33.177964 L415.867334,33.2404891 L415.96098,33.2933273 L416.053735,33.340001 L416.14649,33.3778684 L416.239245,33.4086906 L416.410485,33.4624094 L416.580833,33.5002768 L416.727993,33.5240539 L416.85999,33.531099 L416.960772,33.5390248 L417.030338,33.5390248 L417.099904,33.5390248 L417.201578,33.531099 L417.324657,33.5240539 L417.471816,33.5002768 L417.635029,33.4624094 L417.812512,33.4086906 L417.906159,33.3778684 L417.998914,33.340001 L418.092561,33.2933273 L418.185316,33.2404891 L418.278071,33.177964 L418.362799,33.1180807 L418.456446,33.0405847 L418.541174,32.96485 L418.618767,32.8723833 L418.704387,32.773752 L418.773953,32.6654338 L418.843519,32.5500705 L418.90595,32.4285427 L418.96749,32.2902828 L419.014759,32.1458585 L419.05311,31.9847021 L419.092352,31.81562 L419.114649,31.6333283 L419.130703,31.4343045 L419.137838,31.2273551 L419.130703,31.0661987 L419.122676,30.912968 L419.106622,30.7597373 L419.084325,30.6223581 L419.060245,30.4849789 L419.022786,30.3537641 L418.990678,30.240162 L418.945193,30.116873 L418.897924,30.010316 L418.843519,29.9099235 L418.790007,29.8104116 L418.726684,29.7197061 L418.665144,29.6351651 L418.595578,29.550624 L418.526012,29.4819344 L418.448419,29.4132448 L418.370826,29.3445552 L418.293233,29.28203 L418.207613,29.2291918 L418.130911,29.1842794 L418.038156,29.1376057 L417.952536,29.0997383 L417.867808,29.0601097 L417.774162,29.0310487 L417.58776,28.9852556 L417.40225,28.9473883 L417.215848,28.9227305 L417.030338,28.9156854 L416.913503,28.9227305 L416.805586,28.9315368 L416.68875,28.9385819 L416.58886,28.9535527 L416.480051,28.9764493 L416.37927,29.0002264 L416.278488,29.0310487 L416.177706,29.0689161 L416.084951,29.1067834 L415.999331,29.1446508 L415.906576,29.1983696 L415.821848,29.252969 L415.744255,29.3066878 L415.658635,29.3665711 L415.589069,29.4352607 L415.519503,29.5039503 L415.449936,29.5814463 L415.38037,29.657181 L415.325074,29.741722 L415.263535,29.8262631 L415.20913,29.9187299 L415.161861,30.0182417 L415.116375,30.116873 L415.078025,30.2251912 L415.046809,30.3387933 L415.014702,30.4541566 L414.984378,30.5686393 L414.961189,30.6910477 L414.945135,30.8213818 L414.929973,30.9508353 L414.922838,31.0899758 L414.922838,31.2273551 Z M412.465724,31.9618056 L412.44967,32.0771689 L412.426481,32.1907709 L412.396158,32.2990892 L412.348888,32.3977204 L412.295376,32.4901872 L412.232945,32.5817733 L412.163378,32.6654338 L412.085785,32.7429298 L412.000165,32.8116194 L411.90741,32.8723833 L411.807521,32.9181763 L411.698712,32.96485 L411.589903,33.0027174 L411.465933,33.0247333 L411.341962,33.0405847 L411.217991,33.0493911 L411.125236,33.0493911 L411.046751,33.0405847 L410.962023,33.0247333 L410.88443,33.0097625 L410.807729,32.9956723 L410.730136,32.9718951 L410.66057,32.9410729 L410.590112,32.9120119 L410.519654,32.880309 L410.450087,32.8424416 L410.388548,32.802813 L410.334144,32.7587812 L410.272604,32.7033011 L410.217308,32.6583887 L410.163796,32.6055505 L410.117418,32.543906 L410.070149,32.4813808 L410.024663,32.4214976 L409.986313,32.352808 L409.94707,32.2841184 L409.877504,32.1379328 L409.8231,31.9847021 L409.77583,31.81562 L409.745506,31.6474185 L409.730345,31.4651268 L409.722318,31.2810739 L409.722318,31.104066 L409.73748,30.9288194 L409.760668,30.7526922 L409.791884,30.5844907 L409.831126,30.4224537 L409.884639,30.2701037 L409.955097,30.1247987 L410.031798,29.9874195 L410.078176,29.925775 L410.125445,29.8658917 L410.171823,29.8033665 L410.225335,29.7505284 L410.287766,29.6968096 L410.342171,29.6501359 L410.411737,29.6122685 L410.481303,29.5664754 L410.550869,29.5356532 L410.628462,29.5039503 L410.706055,29.4748893 L410.791675,29.4511121 L410.877295,29.4352607 L410.97005,29.4220511 L411.070832,29.4132448 L411.171614,29.4132448 L411.349989,29.4220511 L411.51231,29.444067 L411.660361,29.4748893 L411.78344,29.5198017 L411.899384,29.5744012 L411.99303,29.6439714 L412.077759,29.712661 L412.155352,29.7883957 L412.217783,29.8658917 L412.26416,29.9495521 L412.310538,30.0323319 L412.340862,30.1098279 L412.364942,30.1855626 L412.388131,30.2630586 L412.396158,30.3317482 L412.404185,30.3933927 L413.000849,30.3933927 L412.984795,30.2701037 L412.961606,30.1406502 L412.923256,30.0182417 L412.884013,29.8879076 L412.829609,29.7575735 L412.760043,29.6351651 L412.682449,29.5198017 L412.589695,29.4132448 L412.53529,29.359526 L412.473751,29.3066878 L412.41132,29.2600141 L412.348888,29.2133404 L412.279322,29.1693086 L412.201729,29.12968 L412.124136,29.0918126 L412.039408,29.0601097 L411.946653,29.0310487 L411.853006,29.0002264 L411.752224,28.9764493 L411.652334,28.9535527 L411.535499,28.9385819 L411.419555,28.9315368 L411.302719,28.9227305 L411.171614,28.9156854 L411.085994,28.9227305 L410.977185,28.9227305 L410.838053,28.9385819 L410.690894,28.9694042 L410.519654,29.0072715 L410.350197,29.0601097 L410.256551,29.0997383 L410.171823,29.1446508 L410.078176,29.1913245 L409.992556,29.2441626 L409.900693,29.3066878 L409.815073,29.3753774 L409.730345,29.4511121 L409.652752,29.5356532 L409.575158,29.62812 L409.497565,29.7276318 L409.427999,29.8341888 L409.365568,29.9565972 L409.303137,30.087812 L409.249624,30.2251912 L409.203247,30.3784219 L409.164004,30.537817 L409.13368,30.7148249 L409.1096,30.8971165 L409.094438,31.0970209 L409.086411,31.3030898 L409.094438,31.4343045 L409.101573,31.5558323 L409.1096,31.6782407 L409.125654,31.8006492 L409.14795,31.9160125 L409.172031,32.0313758 L409.203247,32.1379328 L409.23357,32.2444897 L409.272813,32.3440016 L409.311164,32.4435135 L409.358433,32.5368609 L409.403918,32.6275664 L409.458323,32.7121075 L409.520754,32.7966486 L409.583185,32.8723833 L409.644725,32.9410729 L409.714291,33.0185688 L409.791884,33.0802134 L409.869477,33.1400966 L409.94707,33.2026218 L410.031798,33.2554599 L410.117418,33.3021337 L410.211065,33.3470461 L410.310955,33.3866747 L410.40371,33.4245421 L410.505384,33.4553643 L410.6133,33.4773802 L410.722109,33.5002768 L410.838053,33.5152476 L410.946862,33.531099 L411.070832,33.5390248 L411.186776,33.5390248 L411.318773,33.5390248 L411.441852,33.531099 L411.558688,33.5152476 L411.674631,33.5002768 L411.776305,33.4773802 L411.877087,33.446558 L411.976977,33.4157357 L412.062597,33.3866747 L412.148217,33.3470461 L412.232945,33.3021337 L412.310538,33.2554599 L412.380104,33.2087862 L412.44967,33.1559481 L412.512101,33.1022293 L412.566506,33.0493911 L412.62091,32.9868659 L412.7208,32.8653382 L412.80642,32.7429298 L412.875986,32.6055505 L412.930391,32.4743357 L412.976768,32.3440016 L413.007984,32.2154287 L413.039199,32.084214 L413.054361,31.9618056 L412.465724,31.9618056 Z M406.095064,33.4086906 L406.714025,33.4086906 L406.714025,32.7341234 L406.095064,32.7341234 L406.095064,33.4086906 Z M400.910597,29.5435789 L402.143167,29.5435789 L402.243057,29.5435789 L402.343839,29.550624 L402.437486,29.5664754 L402.530241,29.5814463 L402.614969,29.5972977 L402.692562,29.62812 L402.762128,29.657181 L402.832587,29.6968096 L402.895018,29.741722 L402.94853,29.7963215 L402.994908,29.8570853 L403.03415,29.925775 L403.065366,30.0032709 L403.087663,30.087812 L403.09569,30.1785175 L403.103716,30.2850745 L403.09569,30.4092442 L403.080528,30.5158011 L403.049312,30.6065066 L403.01007,30.6910477 L402.956557,30.7685437 L402.902153,30.8284269 L402.840613,30.8821457 L402.778182,30.9288194 L402.708616,30.9666868 L402.631023,30.9975091 L402.560565,31.0212862 L402.490999,31.0433021 L402.351866,31.0591536 L402.235031,31.0661987 L400.910597,31.0661987 L400.910597,29.5435789 Z M400.313933,33.4086906 L400.910597,33.4086906 L400.910597,31.5558323 L402.173491,31.5558323 L402.312624,31.5628774 L402.429459,31.5787289 L402.537376,31.6095511 L402.631023,31.6403734 L402.715751,31.6870471 L402.778182,31.7319595 L402.832587,31.7936041 L402.878964,31.8552486 L402.917315,31.9239382 L402.94853,31.9935085 L402.964584,32.0771689 L402.979746,32.1529036 L402.994908,32.3219857 L403.002935,32.4813808 L403.002935,32.6812852 L403.01007,32.8424416 L403.018096,32.9807015 L403.026123,33.0872585 L403.049312,33.1867703 L403.072501,33.262505 L403.111743,33.340001 L403.165256,33.4086906 L403.793135,33.4086906 L403.731596,33.3162238 L403.684327,33.2246377 L403.66203,33.1330515 L403.637949,33.0247333 L403.622787,32.7499748 L403.614761,32.3677788 L403.606734,32.1995773 L403.592464,32.0463466 L403.57641,31.9688506 L403.561248,31.8931159 L403.537167,31.8244263 L403.514871,31.7557367 L403.475628,31.6870471 L403.437277,31.6254026 L403.381981,31.5628774 L403.328469,31.5100393 L403.250876,31.4563205 L403.173283,31.4034823 L403.080528,31.3568086 L402.979746,31.3189412 L402.979746,31.2969253 L403.065366,31.2722675 L403.150094,31.2432065 L403.227687,31.2035779 L403.297253,31.1586655 L403.367711,31.104066 L403.429251,31.0433021 L403.483655,30.9816576 L403.537167,30.9059229 L403.584437,30.8372333 L403.622787,30.7526922 L403.654003,30.6690318 L403.684327,30.5844907 L403.708407,30.4911433 L403.723569,30.4004378 L403.731596,30.3088517 L403.731596,30.2163849 L403.731596,30.116873 L403.723569,30.0252868 L403.708407,29.9345813 L403.692354,29.8570853 L403.670057,29.7725443 L403.637949,29.7038547 L403.606734,29.6351651 L403.568383,29.5744012 L403.529141,29.5127566 L403.49079,29.4599185 L403.445304,29.4132448 L403.398035,29.3665711 L403.343631,29.3216586 L403.290118,29.2908364 L403.234822,29.252969 L403.181309,29.2221467 L403.065366,29.1693086 L402.940503,29.12968 L402.82456,29.0997383 L402.700589,29.0759612 L402.46781,29.0539452 L402.274273,29.0539452 L400.313933,29.0539452 L400.313933,33.4086906 Z M395.686887,30.912968 L395.686887,29.5435789 L398.236757,29.5435789 L398.236757,29.0539452 L395.097358,29.0539452 L395.097358,33.4086906 L398.306323,33.4086906 L398.306323,32.9181763 L395.686887,32.9181763 L395.686887,31.4034823 L398.003977,31.4034823 L398.003977,30.912968 L395.686887,30.912968 Z M391.083031,29.5435789 L391.083031,33.4086906 L391.67256,33.4086906 L391.67256,29.5435789 L393.106694,29.5435789 L393.106694,29.0539452 L389.641761,29.0539452 L389.641761,29.5435789 L391.083031,29.5435789 Z M386.999137,33.4086906 L387.595801,33.4086906 L387.595801,29.0539452 L386.999137,29.0539452 L386.999137,33.4086906 Z M382.20977,29.5435789 L383.29429,29.5435789 L383.419152,29.5435789 L383.527069,29.550624 L383.635878,29.5664754 L383.73666,29.5884913 L383.829415,29.6122685 L383.907008,29.6439714 L383.984601,29.6818388 L384.054167,29.7276318 L384.108571,29.7813506 L384.162976,29.8341888 L384.201326,29.8949527 L384.239677,29.9636423 L384.263758,30.0411383 L384.286946,30.1247987 L384.294973,30.2163849 L384.302108,30.3158967 L384.294973,30.4162893 L384.286946,30.5158011 L384.263758,30.6065066 L384.239677,30.6910477 L384.209353,30.7685437 L384.162976,30.8372333 L384.116598,30.9059229 L384.062194,30.9596417 L383.992628,31.0124799 L383.915035,31.0591536 L383.837441,31.0970209 L383.743795,31.1278432 L383.643905,31.1507397 L383.535096,31.1657105 L383.419152,31.1745169 L383.29429,31.181562 L382.20977,31.181562 L382.20977,29.5435789 Z M381.613106,29.0539452 L381.613106,33.4086906 L382.20977,33.4086906 L382.20977,31.6711957 L383.356721,31.6711957 L383.558285,31.6632699 L383.751822,31.6474185 L383.923061,31.6183575 L384.077356,31.5716838 L384.154949,31.5496679 L384.21738,31.5188456 L384.286946,31.4871427 L384.349377,31.4563205 L384.40289,31.4184531 L384.457294,31.3805857 L384.511699,31.3347927 L384.558076,31.2969253 L384.643696,31.1965328 L384.713262,31.0970209 L384.774802,30.9816576 L384.821179,30.8592492 L384.860422,30.7289151 L384.88361,30.5915358 L384.898772,30.4541566 L384.906799,30.3009259 L384.898772,30.1406502 L384.875583,29.9874195 L384.844368,29.8500403 L384.79799,29.7276318 L384.774802,29.6659873 L384.743586,29.6122685 L384.705235,29.5594304 L384.67402,29.5127566 L384.589292,29.4220511 L384.496537,29.3375101 L384.394863,29.2688205 L384.278919,29.2071759 L384.154949,29.1605022 L384.022951,29.1226349 L383.883819,29.0918126 L383.73666,29.0689161 L383.573447,29.0539452 L383.411125,29.0539452 L381.613106,29.0539452 Z M378.365791,33.4086906 L378.993671,33.4086906 L378.993671,32.7341234 L378.365791,32.7341234 L378.365791,33.4086906 Z M374.133846,29.741722 L375.048909,33.4086906 L375.807895,33.4086906 L376.978034,29.0539452 L376.311804,29.0539452 L375.389605,32.7121075 L374.475434,29.0539452 L373.79315,29.0539452 L372.878978,32.7121075 L371.95678,29.0539452 L371.289658,29.0539452 L372.459797,33.4086906 L373.219674,33.4086906 L374.133846,29.741722 Z M367.190602,29.741722 L368.104774,33.4086906 L368.864651,33.4086906 L370.03479,29.0539452 L369.36856,29.0539452 L368.446362,32.7121075 L367.531298,29.0539452 L366.849014,29.0539452 L365.934843,32.7121075 L365.012644,29.0539452 L364.346414,29.0539452 L365.516554,33.4086906 L366.275539,33.4086906 L367.190602,29.741722 Z M360.246467,29.741722 L361.16153,33.4086906 L361.920515,33.4086906 L363.090655,29.0539452 L362.424424,29.0539452 L361.502226,32.7121075 L360.587163,29.0539452 L359.905771,29.0539452 L358.990707,32.7121075 L358.068509,29.0539452 L357.402279,29.0539452 L358.572418,33.4086906 L359.332295,33.4086906 L360.246467,29.741722 Z M444.798854,12.9735306 L444.798854,12.9268569 L444.790827,12.8810638 L444.7828,12.8361514 L444.767638,12.7974034 L444.743557,12.7586554 L444.72126,12.720788 L444.690045,12.6899658 L444.658829,12.6670692 L444.620479,12.636247 L444.581236,12.6212762 L444.534859,12.5983796 L444.488481,12.5834088 L444.371646,12.5675574 L444.24054,12.5596316 L443.729496,12.5596316 L443.729496,13.4393871 L444.286917,13.4393871 L444.348457,13.432342 L444.403753,13.432342 L444.457266,13.4173712 L444.503643,13.4015197 L444.550912,13.3865489 L444.596398,13.3636524 L444.627614,13.3407558 L444.665964,13.3108142 L444.698072,13.2799919 L444.72126,13.2421246 L444.743557,13.2033766 L444.767638,13.1646286 L444.7828,13.1188355 L444.790827,13.0730425 L444.798854,13.0263688 L444.798854,12.9735306 Z M445.364302,14.9637681 L444.845231,14.9637681 L444.829177,14.9479167 L444.813124,14.9329459 L444.805989,14.9170944 L444.790827,14.8950785 L444.775665,14.8325533 L444.767638,14.7638637 L444.751584,14.5798108 L444.751584,14.3578905 L444.743557,14.2892009 L444.728395,14.2293176 L444.713234,14.1747182 L444.690045,14.1209994 L444.665964,14.0672806 L444.643667,14.0214875 L444.604425,13.9827395 L444.574101,13.9448722 L444.534859,13.9140499 L444.488481,13.8841083 L444.442104,13.8612118 L444.395726,13.8383152 L444.333295,13.8233444 L444.278891,13.814538 L444.217351,13.807493 L444.146893,13.807493 L443.729496,13.807493 L443.729496,14.9637681 L443.163156,14.9637681 L443.163156,12.1924064 L444.379672,12.1924064 L444.495616,12.1924064 L444.612452,12.2003321 L444.713234,12.2153029 L444.805989,12.2390801 L444.898743,12.261096 L444.976337,12.2919183 L445.05393,12.3297856 L445.115469,12.3764593 L445.170765,12.4301781 L445.224278,12.4830163 L445.262628,12.5517059 L445.301871,12.6212762 L445.325951,12.6978915 L445.348248,12.7824326 L445.356275,12.8740187 L445.364302,12.9735306 L445.364302,13.0263688 L445.356275,13.0800876 L445.340221,13.1267613 L445.325951,13.1725543 L445.309898,13.2174668 L445.286709,13.2641405 L445.255493,13.3020079 L445.224278,13.3486816 L445.193062,13.3865489 L445.154711,13.4173712 L445.115469,13.4481934 L445.069983,13.4781351 L445.015579,13.5089573 L444.961175,13.5327345 L444.90677,13.5547504 L444.845231,13.5776469 L444.845231,13.62344 L444.898743,13.6313657 L444.946013,13.6472172 L444.99239,13.6701137 L445.030741,13.6921296 L445.069983,13.7159068 L445.101199,13.7546548 L445.13955,13.7845964 L445.162738,13.8233444 L445.185035,13.8691375 L445.209116,13.9140499 L445.224278,13.9677687 L445.240331,14.0144424 L445.262628,14.1359702 L445.270655,14.267185 L445.278682,14.4124899 L445.301871,14.5798108 L445.325951,14.7638637 L445.364302,14.9637681 Z M339.833241,17.7791616 L339.570138,17.4198621 L339.306143,17.0676077 L339.04304,16.7312047 L338.77191,16.4018468 L338.507915,16.0804147 L338.236786,15.7748339 L337.973683,15.4683726 L337.701661,15.1856884 L337.430531,14.901243 L337.159401,14.6344102 L336.888271,14.3737419 L336.617141,14.1209994 L336.34512,13.8841083 L336.066855,13.6542623 L335.795725,13.432342 L335.516568,13.2262731 L335.245438,13.0263688 L334.966281,12.8361514 L334.687125,12.6591435 L334.407968,12.490942 L334.128811,12.3297856 L333.849654,12.1774356 L333.563363,12.0391757 L333.284206,11.9176479 L332.997914,11.7952395 L332.718757,11.6869213 L332.432466,11.5953351 L332.145282,11.503749 L331.858098,11.4350594 L331.571807,11.3663698 L331.284623,11.3117703 L330.998331,11.2659773 L326.417663,26.0456924 L326.751225,25.7392311 L327.099947,25.4415761 L327.44867,25.1421598 L327.812555,24.8515499 L328.184467,24.5521337 L328.564406,24.2615238 L328.960398,23.9709138 L329.354606,23.6891103 L329.758626,23.4055455 L330.168888,23.1211 L330.595204,22.8392965 L331.02152,22.5627768 L331.462998,22.2871377 L331.904476,22.0123792 L332.354873,21.7437852 L332.819539,21.4681461 L333.105831,21.2999446 L333.416203,21.1246981 L333.749764,20.9406451 L334.098487,20.7495471 L334.470399,20.5434783 L334.857473,20.3277224 L335.268627,20.1146085 L335.694943,19.8847625 L336.144448,19.6469907 L336.609114,19.4030545 L337.097862,19.1564764 L337.608906,18.8966888 L338.136004,18.6289754 L338.678263,18.3533364 L339.243712,18.0706522 L339.833241,17.7791616 Z M432.925327,3.04612017 L432.925327,2.93868257 L432.910165,2.83917069 L432.894111,2.74053945 L432.870923,2.64807267 L432.840599,2.57233796 L432.801357,2.49484199 L432.763006,2.42615238 L432.708602,2.36538849 L432.64617,2.3046246 L432.584631,2.25795089 L432.514173,2.22008353 L432.429445,2.18926127 L432.343825,2.15843901 L432.251962,2.1434682 L432.150288,2.12761675 L432.033452,2.12761675 L431.933563,2.12761675 L431.832781,2.13554247 L431.731999,2.15843901 L431.639244,2.17340982 L431.546489,2.20423209 L431.460869,2.24209944 L431.375249,2.28084742 L431.289629,2.3266405 L431.204901,2.3803593 L431.127308,2.44200382 L431.049715,2.50276771 L430.972122,2.57233796 L430.894529,2.64807267 L430.824962,2.73261373 L430.755396,2.81715479 L430.677803,2.90874094 L430.616264,3.00120773 L430.553833,3.10071961 L430.492293,3.19142512 L430.445024,3.29181763 L430.398646,3.39132951 L430.353161,3.48291566 L430.313918,3.58242754 L430.283595,3.67401369 L430.251487,3.77352556 L430.228298,3.87303744 L430.212245,3.97254932 L430.197975,4.07206119 L430.173894,4.27108494 L430.166759,4.47803442 L430.173894,4.60044283 L430.181921,4.7069998 L430.197975,4.80651167 L430.220271,4.89809783 L430.251487,4.98263889 L430.289838,5.06013486 L430.32908,5.12882448 L430.383484,5.18166264 L430.436997,5.23538144 L430.507455,5.28205515 L430.577913,5.3199225 L430.662641,5.35074477 L430.747369,5.37276067 L430.841016,5.38861212 L430.941798,5.40358293 L431.057742,5.40358293 L431.150497,5.40358293 L431.244143,5.39565721 L431.336898,5.38156703 L431.429653,5.35690922 L431.522408,5.33489332 L431.608028,5.30407105 L431.700783,5.2662037 L431.786403,5.22833635 L431.872023,5.17373692 L431.949616,5.12089875 L432.033452,5.06013486 L432.111046,4.9976097 L432.188639,4.921875 L432.266232,4.84437903 L432.335798,4.7607186 L432.413391,4.66120672 L432.530227,4.4701087 L432.631008,4.27901067 L432.715737,4.07910628 L432.79333,3.87303744 L432.847734,3.6669686 L432.894111,3.46706421 L432.902138,3.36050725 L432.918192,3.26099537 L432.925327,3.15443841 L432.925327,3.04612017 Z M446.487172,13.5776469 L446.480037,13.4552385 L446.472902,13.3407558 L446.464875,13.2174668 L446.441687,13.1109098 L446.417606,12.9955465 L446.387282,12.8889895 L446.356067,12.7824326 L446.317716,12.6741143 L446.270447,12.5754831 L446.224961,12.4680455 L446.169665,12.3764593 L446.108125,12.2769475 L446.045694,12.1844807 L445.976128,12.0928945 L445.906562,12.0013084 L445.828969,11.9088416 L445.743349,11.8331069 L445.650594,11.7485658 L445.557839,11.6798762 L445.465084,11.6111866 L445.364302,11.5495421 L445.262628,11.4887782 L445.162738,11.4429851 L445.061957,11.3963114 L444.95404,11.3505183 L444.845231,11.3205767 L444.728395,11.2897544 L444.620479,11.2659773 L444.503643,11.2430807 L444.387699,11.2360356 L444.270864,11.2210648 L444.146893,11.2210648 L444.038976,11.2210648 L443.938195,11.2360356 L443.837413,11.2430807 L443.735739,11.2659773 L443.635849,11.2897544 L443.535067,11.3205767 L443.434285,11.3505183 L443.34153,11.3963114 L443.240749,11.4429851 L443.147102,11.4887782 L443.054347,11.5495421 L442.961592,11.6111866 L442.868837,11.6798762 L442.783217,11.7485658 L442.690462,11.8331069 L442.604842,11.9088416 L442.520114,12.0013084 L442.441629,12.0928945 L442.364928,12.1844807 L442.29447,12.2769475 L442.23293,12.3764593 L442.178526,12.4680455 L442.125013,12.5754831 L442.077744,12.6741143 L442.039394,12.7824326 L442.000151,12.8889895 L441.969827,12.9955465 L441.946639,13.1109098 L441.922558,13.2174668 L441.914531,13.3407558 L441.908288,13.4552385 L441.900261,13.5776469 L441.908288,13.700936 L441.914531,13.8303895 L441.922558,13.9527979 L441.946639,14.0672806 L441.969827,14.1826439 L442.000151,14.2980072 L442.039394,14.4124899 L442.077744,14.5199275 L442.125013,14.6185588 L442.178526,14.7259964 L442.23293,14.8255083 L442.29447,14.9170944 L442.364928,15.0166063 L442.441629,15.1090731 L442.520114,15.2006592 L442.604842,15.2852003 L442.690462,15.3697413 L442.783217,15.445476 L442.868837,15.5220914 L442.961592,15.5828553 L443.054347,15.6515449 L443.147102,15.7052637 L443.240749,15.7598631 L443.34153,15.8047756 L443.434285,15.8435236 L443.535067,15.8822715 L443.635849,15.9130938 L443.735739,15.9351097 L443.837413,15.9509612 L443.938195,15.965932 L444.038976,15.9729771 L444.146893,15.9817834 L444.270864,15.9729771 L444.387699,15.965932 L444.503643,15.9509612 L444.620479,15.9351097 L444.728395,15.9130938 L444.845231,15.8822715 L444.95404,15.8435236 L445.061957,15.8047756 L445.162738,15.7598631 L445.262628,15.7052637 L445.364302,15.6515449 L445.465084,15.5828553 L445.557839,15.5220914 L445.650594,15.445476 L445.743349,15.3697413 L445.828969,15.2852003 L445.906562,15.2006592 L445.976128,15.1090731 L446.045694,15.0166063 L446.108125,14.9170944 L446.169665,14.8255083 L446.224961,14.7259964 L446.270447,14.6185588 L446.317716,14.5199275 L446.356067,14.4124899 L446.387282,14.2980072 L446.417606,14.1826439 L446.441687,14.0672806 L446.464875,13.9527979 L446.472902,13.8303895 L446.480037,13.700936 L446.487172,13.5776469 Z M354.658872,22.7618005 L353.627865,25.9012681 L353.279142,26.0914855 L352.907231,26.2825835 L352.504103,26.4736816 L352.085814,26.6665409 L351.628282,26.8576389 L351.155589,27.0478563 L350.65168,27.2389543 L350.117447,27.4230072 L349.659915,27.5982538 L349.21041,27.7761423 L348.752879,27.9443438 L348.288212,28.1195904 L347.83068,28.294837 L347.366014,28.4639191 L346.89332,28.6409269 L346.428654,28.8091284 L345.74637,29.0759612 L345.072112,29.359526 L344.397855,29.6659873 L343.715571,29.9786131 L343.033287,30.3088517 L342.351895,30.6602254 L341.669611,31.0283313 L340.987327,31.4034823 L340.297908,31.8006492 L339.608489,32.2066224 L338.91907,32.6346115 L338.228759,33.0802134 L337.531313,33.5390248 L336.833867,34.012807 L336.136421,34.4953955 L335.438975,35 L333.896924,33.2026218 L334.346429,32.8494867 L334.803068,32.5060386 L335.2606,32.1617099 L335.726159,31.8314714 L336.19796,31.5029942 L336.671546,31.181562 L337.151374,30.8680556 L337.632095,30.5624748 L338.120842,30.2630586 L338.616724,29.9636423 L339.112606,29.6730324 L339.615624,29.3903482 L340.119533,29.1067834 L340.631469,28.832025 L341.142513,28.563431 L341.654449,28.3036433 L341.995145,28.1354418 L342.343868,27.9663597 L342.708645,27.7981582 L343.087691,27.6229116 L343.475657,27.4388587 L343.878784,27.2627315 L344.289938,27.0707528 L344.715363,26.8884612 L345.157732,26.6956019 L345.614372,26.4974587 L346.079039,26.298435 L346.559759,26.0985306 L347.056533,25.8924618 L347.567577,25.6855123 L348.086648,25.4706371 L348.621773,25.2575231 L349.156898,25.0514543 L349.667942,24.8515499 L350.155798,24.6604519 L350.628491,24.476399 L351.077996,24.3011524 L351.512339,24.1329509 L351.915466,23.9638688 L352.30254,23.8027124 L352.674451,23.6494817 L353.016039,23.5050574 L353.340682,23.3676781 L353.643027,23.2294183 L353.930211,23.1061292 L354.194206,22.9837208 L354.43412,22.8683575 L354.658872,22.7618005 Z M356.666482,15.8355978 L355.588206,19.302662 L355.441046,19.4338768 L355.263563,19.5783011 L355.053973,19.7244867 L354.821194,19.8847625 L354.550064,20.0459189 L354.24861,20.2132397 L353.915049,20.3972927 L353.550272,20.5813456 L353.155172,20.7803694 L352.728856,20.9785125 L352.272216,21.1863426 L351.783469,21.4082629 L351.264398,21.6301832 L350.706084,21.8591486 L350.125474,22.104846 L349.512756,22.3487822 L349.079305,22.509058 L348.652989,22.6772595 L348.218646,22.8392965 L347.79233,23.007498 L347.366014,23.1677738 L346.931671,23.3359752 L346.505355,23.496251 L346.071904,23.6653331 L345.645588,23.8264895 L345.219272,23.9955717 L344.784929,24.1549668 L344.359505,24.3240489 L343.925162,24.483444 L343.498846,24.6525262 L343.065395,24.8136826 L342.638187,24.9827647 L341.770393,25.3869767 L340.933814,25.7929499 L340.119533,26.191878 L339.337359,26.5890449 L338.569455,26.9862118 L337.833658,27.3851399 L337.120159,27.7823068 L336.430739,28.1733092 L335.772536,28.563431 L335.128603,28.9535527 L334.516777,29.3375101 L333.935274,29.7276318 L333.369826,30.1098279 L332.834701,30.4911433 L332.323657,30.8751006 L331.83491,31.2572967 L330.246481,29.6439714 L330.680824,29.2600141 L331.130329,28.877818 L331.594995,28.5035477 L332.067689,28.1266355 L332.555544,27.767336 L333.059454,27.4009913 L333.57139,27.0478563 L334.098487,26.7044082 L334.640747,26.3600795 L335.191034,26.0148702 L335.756482,25.6855123 L336.329958,25.357035 L336.918595,25.0356029 L337.516151,24.7212158 L338.136004,24.4077093 L338.755857,24.1021286 L338.965447,24.0017361 L339.220523,23.8863728 L339.522869,23.7577999 L339.871592,23.6045692 L340.266692,23.4275614 L340.717089,23.2294183 L341.204944,23.0215882 L341.747204,22.7855777 L342.336733,22.5328351 L342.979775,22.2651218 L343.661167,21.9745119 L344.397855,21.6592442 L345.180921,21.3307669 L346.017499,20.9785125 L346.89332,20.6121679 L347.83068,20.2282105 L348.512965,19.9376006 L349.179195,19.6557971 L349.830263,19.3722323 L350.458143,19.0877868 L351.070861,18.8130284 L351.667525,18.5294636 L352.248135,18.2538245 L352.806449,17.979066 L353.348709,17.7034269 L353.875806,17.4348329 L354.387742,17.1680002 L354.875598,16.8914805 L355.348291,16.6316928 L355.805823,16.3639795 L356.247301,16.1041918 L356.666482,15.8355978 Z M359.053138,8.35899758 L357.789352,12.2848732 L357.572627,12.4759712 L357.316659,12.6829207 L357.037502,12.8889895 L356.728021,13.1029841 L356.379298,13.3328301 L355.99936,13.5626761 L355.588206,13.7995672 L355.146728,14.0523098 L354.666007,14.3050523 L354.16299,14.5657206 L353.619838,14.8413597 L353.039228,15.1169988 L352.434537,15.399683 L351.791496,15.6902929 L351.109211,15.9967542 L350.404631,16.3023349 L349.892695,16.5101651 L349.38165,16.7162339 L348.877741,16.9223027 L348.365805,17.1222071 L347.854761,17.328276 L347.342825,17.5352254 L346.838916,17.7342492 L346.327872,17.9411987 L345.815936,18.1393418 L345.304892,18.3462913 L344.792956,18.5532407 L344.281911,18.7505032 L343.761949,18.959214 L343.250904,19.1652828 L342.730942,19.3722323 L342.219897,19.5783011 L341.700826,19.7931763 L341.18889,20.0150966 L340.685873,20.2370169 L340.181964,20.4589372 L339.678055,20.6879026 L339.182173,20.9247937 L338.68629,21.1625654 L338.20557,21.4082629 L337.716823,21.6521991 L337.236994,21.9049416 L336.756274,22.1585648 L336.28358,22.4183525 L335.818913,22.6772595 L335.354247,22.9458535 L334.888688,23.2144475 L334.431157,23.4892059 L333.974517,23.7736514 L333.525012,24.0554549 L333.082642,24.3390197 L332.641164,24.6296296 L332.199686,24.9272846 L331.765343,25.2267009 L331.331001,25.5331622 L330.905576,25.838743 L330.486395,26.1522494 L330.068106,26.4666365 L329.649817,26.7880686 L329.239555,27.1103814 L328.8284,27.4388587 L328.425273,27.767336 L328.022146,28.1046196 L327.627045,28.4410225 L323,28.4410225 L329.122719,8.49637681 L329.37066,8.5034219 L329.618601,8.52631844 L329.858516,8.54216989 L330.099322,8.56506643 L330.339236,8.59588869 L330.587177,8.63375604 L330.827983,8.67162339 L331.067898,8.70949074 L331.300677,8.76409018 L331.540591,8.80900262 L331.781397,8.87152778 L332.013285,8.93229167 L332.253199,8.99305556 L332.485978,9.06262581 L332.726784,9.13836051 L332.958672,9.21497585 L333.191451,9.29951691 L333.423338,9.3919837 L333.664144,9.48356985 L333.896924,9.58308172 L334.128811,9.6825936 L334.353564,9.7900312 L334.586343,9.89658816 L334.819122,10.0119515 L335.051009,10.1264342 L335.283789,10.2488426 L335.508541,10.3791767 L335.74132,10.5086302 L336.19796,10.792195 L336.655492,11.082805 L337.050592,11.3663698 L337.446585,11.6569797 L337.825631,11.9555153 L338.20557,12.2690217 L338.577482,12.5904539 L338.934231,12.9198118 L339.290981,13.2641405 L339.631677,13.6163949 L339.972373,13.9765751 L340.305935,14.3508454 L340.623442,14.7330415 L340.941841,15.1319696 L341.251322,15.5291365 L341.54564,15.9509612 L341.839959,16.3710246 L342.127142,16.8069394 L343.142096,16.4018468 L344.103537,16.0266959 L345.002546,15.6753221 L345.83199,15.3450835 L346.606137,15.0395028 L347.311609,14.7568186 L347.962678,14.5040761 L348.54418,14.267185 L349.071278,14.0602355 L349.52881,13.8761826 L349.931045,13.7159068 L350.272633,13.5776469 L350.543763,13.4640449 L350.760489,13.3706975 L350.915675,13.3020079 L351.00843,13.248289 L351.682687,12.9506341 L352.333755,12.6441727 L352.961635,12.3377114 L353.565434,12.0321306 L354.146936,11.7256693 L354.713277,11.4192079 L355.24751,11.1136272 L355.767472,10.8071659 L356.255328,10.5007045 L356.728021,10.1960044 L357.169499,9.88954308 L357.595815,9.575156 L357.998943,9.26869465 L358.370854,8.97103965 L358.549229,8.81780898 L358.719577,8.6645783 L358.889925,8.51222826 L359.053138,8.35899758 Z M336.422713,1.0180153 L334.687125,6.55985809 L333.098696,6.55985809 L334.36159,2.58730878 L334.191242,2.67184984 L334.020894,2.76343599 L333.849654,2.86294787 L333.687333,2.95453402 L333.369826,3.16060286 L333.059454,3.37547806 L332.765135,3.60444344 L332.477951,3.84221518 L332.199686,4.08791264 L331.928557,4.33977456 L331.277488,6.55985809 L329.688168,6.55985809 L331.370243,1.0180153 L332.958672,1.0180153 L332.540382,2.49484199 L332.834701,2.24209944 L333.12902,2.01401469 L333.416203,1.79825886 L333.702495,1.60011574 L333.842519,1.50764895 L333.981652,1.42398853 L334.128811,1.34825382 L334.268835,1.27075785 L334.407968,1.19502315 L334.547992,1.13337862 L334.687125,1.0717341 L334.826257,1.0180153 L336.422713,1.0180153 Z M341.18889,3.60444344 L341.27451,3.62910125 L341.352103,3.6669686 L341.429697,3.69779086 L341.50729,3.7427033 L341.568829,3.78849638 L341.63126,3.83517009 L341.685665,3.88888889 L341.740069,3.94172705 L341.785555,4.00337158 L341.824797,4.06413547 L341.856013,4.13370572 L341.887228,4.21032105 L341.910417,4.27901067 L341.925579,4.36355173 L341.933606,4.43928643 L341.933606,4.52294686 L341.933606,4.66120672 L341.917552,4.79154086 L341.894363,4.921875 L341.856013,5.03635769 L341.81677,5.15964674 L341.763258,5.2662037 L341.700826,5.37276067 L341.63126,5.48019827 L341.54564,5.57971014 L341.452885,5.67217693 L341.352103,5.77168881 L341.244187,5.85534924 L341.127351,5.94693539 L341.00338,6.03147645 L340.864248,6.10809179 L340.724224,6.19175221 L340.60828,6.24547101 L340.491444,6.30007045 L340.368366,6.35290862 L340.25153,6.39870169 L340.119533,6.43744968 L339.995562,6.47531703 L339.871592,6.51318438 L339.739594,6.54400664 L339.608489,6.56778382 L339.468464,6.59068035 L339.337359,6.60565117 L339.198226,6.62062198 L338.911043,6.64351852 L338.616724,6.65056361 L338.438349,6.65056361 L338.268001,6.64351852 L338.089626,6.63647343 L337.918386,6.62062198 L337.740903,6.60565117 L337.562528,6.59068035 L337.39218,6.5748289 L337.213805,6.55985809 L337.585717,5.31287742 L337.794416,5.32696759 L337.980818,5.34281904 L338.159192,5.36571558 L338.321514,5.37276067 L338.4767,5.38861212 L338.616724,5.39565721 L338.740695,5.40358293 L338.848611,5.40358293 L338.995771,5.40358293 L339.135795,5.39565721 L339.267793,5.38156703 L339.390871,5.35690922 L339.515734,5.33489332 L339.623651,5.30407105 L339.724432,5.27412943 L339.825214,5.22833635 L339.910834,5.18166264 L339.988427,5.13586957 L340.06602,5.07510568 L340.12756,5.01346115 L340.181964,4.94477154 L340.228341,4.87608192 L340.266692,4.79154086 L340.297908,4.7069998 L340.313961,4.64623591 L340.321096,4.58547202 L340.321096,4.52294686 L340.313961,4.4701087 L340.305935,4.4163899 L340.282746,4.36971618 L340.25153,4.33184883 L340.220315,4.29398148 L340.173937,4.26315922 L340.12756,4.23233696 L340.06602,4.21032105 L339.995562,4.19446961 L339.925996,4.17949879 L339.840376,4.16364734 L339.747621,4.15660225 L339.646839,4.15660225 L338.430322,4.15660225 L338.755857,3.04612017 L339.925996,3.04612017 L339.995562,3.04612017 L340.06602,3.03907508 L340.12756,3.03114936 L340.189099,3.01617854 L340.243503,3.00120773 L340.305935,2.97743056 L340.352312,2.95453402 L340.406716,2.92371176 L340.453094,2.89377013 L340.491444,2.85502214 L340.537822,2.81715479 L340.569038,2.77928744 L340.600253,2.73261373 L340.631469,2.68594002 L340.654658,2.63310185 L340.677846,2.58730878 L340.685873,2.51861916 L340.693008,2.45785527 L340.693008,2.39533011 L340.685873,2.34249195 L340.662684,2.29669887 L340.639496,2.2509058 L340.600253,2.21215781 L340.553876,2.17340982 L340.507498,2.1434682 L340.445067,2.11352657 L340.375501,2.0897494 L340.290773,2.06685286 L340.205153,2.05188205 L340.104371,2.04395632 L339.995562,2.0360306 L339.879619,2.0360306 L339.717297,2.0360306 L339.554084,2.04395632 L339.390871,2.05892713 L339.22855,2.07477858 L339.073364,2.09767512 L338.911043,2.12761675 L338.763883,2.16636473 L338.616724,2.22008353 L338.941366,1.0180153 L339.150957,0.988073671 L339.352521,0.957251409 L339.538031,0.933474235 L339.724432,0.911458333 L339.89478,0.895606884 L340.06602,0.888561795 L340.236368,0.879755435 L340.390663,0.879755435 L340.639496,0.879755435 L340.871383,0.895606884 L341.080974,0.918503422 L341.282537,0.949325684 L341.460912,0.988073671 L341.623233,1.03298611 L341.770393,1.09551127 L341.910417,1.15627516 L341.964821,1.19502315 L342.026361,1.2328905 L342.080765,1.27075785 L342.127142,1.30950584 L342.17352,1.35529891 L342.211871,1.40109199 L342.251113,1.45481079 L342.282329,1.5014845 L342.313544,1.55432267 L342.336733,1.60804147 L342.35903,1.66880535 L342.375084,1.72956924 L342.391137,1.7920944 L342.398272,1.85197766 L342.406299,1.92154791 L342.406299,1.9823118 L342.398272,2.12761675 L342.38311,2.26675725 L342.35903,2.40413647 L342.328706,2.52654489 L342.282329,2.64807267 L342.227924,2.75551027 L342.165493,2.86294787 L342.095927,2.97038547 L342.011199,3.06197162 L341.925579,3.15443841 L341.824797,3.24514392 L341.715988,3.3226399 L341.600045,3.3983746 L341.468047,3.47587057 L341.336942,3.53575382 L341.18889,3.60444344 Z M350.682895,1.0180153 L349.373624,5.31287742 L349.931045,5.31287742 L349.559133,6.55985809 L343.429279,6.55985809 L343.808326,5.31287742 L347.784303,5.31287742 L348.714528,2.22008353 L348.388994,2.22008353 L348.202592,2.22800926 L348.017082,2.2509058 L347.932354,2.26675725 L347.846734,2.28877315 L347.761114,2.31078905 L347.675494,2.33544686 L347.598793,2.37331421 L347.5212,2.40413647 L347.443607,2.44200382 L347.366014,2.48867754 L347.296448,2.53270934 L347.226881,2.57938305 L347.156423,2.63310185 L347.086857,2.69474638 L346.95486,2.81715479 L346.831781,2.95453402 L346.714945,3.10776469 L346.606137,3.26804046 L346.505355,3.45121276 L346.4126,3.64319143 L346.319845,3.84221518 L346.242252,4.06413547 L346.203901,4.25611413 L346.164659,4.47803442 L346.133443,4.73782206 L346.095093,5.03635769 L344.506664,5.03635769 L344.514691,4.87608192 L344.521826,4.71492552 L344.545014,4.55376912 L344.57623,4.38556763 L344.607446,4.22529187 L344.645796,4.05709038 L344.692174,3.89593398 L344.746578,3.7427033 L344.800983,3.57450181 L344.855387,3.40718096 L344.916926,3.24514392 L344.986492,3.09191324 L345.056059,2.94748893 L345.126517,2.80130334 L345.203218,2.67184984 L345.288838,2.53270934 L345.374458,2.41118156 L345.460078,2.28877315 L345.552833,2.17340982 L345.645588,2.06685286 L345.74637,1.96734098 L345.854286,1.86782911 L345.963987,1.77624295 L346.071904,1.6846568 L346.187847,1.60804147 L346.311818,1.53142613 L346.435789,1.45481079 L346.559759,1.39316626 L346.691757,1.33240238 L346.831781,1.27868357 L346.962887,1.22496477 L347.110046,1.18621679 L347.257205,1.14834944 L347.405256,1.11048209 L347.560442,1.07965982 L347.714737,1.05676329 L347.87795,1.04179247 L348.048298,1.02682166 L348.218646,1.0180153 L348.388994,1.0180153 L350.682895,1.0180153 Z M378.172254,10.6697866 L373.545209,25.9012681 L368.539117,25.9012681 L372.095912,14.083132 L366.764286,14.083132 L363.214625,25.9012681 L358.115778,25.9012681 L362.741932,10.6697866 L378.172254,10.6697866 Z M356.991124,6.55985809 L355.402696,6.55985809 L355.410723,6.39077597 L355.433911,6.1767814 L355.465127,5.90906804 L355.495451,5.58763587 L353.907022,5.58763587 L354.054181,5.33489332 L354.216503,5.06629932 L354.387742,4.78449577 L354.558091,4.47803442 L355.541828,4.47803442 L355.541828,4.27108494 L355.541828,4.06413547 L355.534693,3.85718599 L355.526666,3.65111715 L355.511504,3.44504831 L355.480289,3.23809883 L355.449073,3.02322363 L355.402696,2.81715479 L355.092323,3.23809883 L354.782843,3.67401369 L354.480497,4.12577999 L354.186179,4.58547202 L353.898995,5.06013486 L353.627865,5.54096216 L353.495868,5.79458535 L353.364762,6.0473279 L353.232765,6.30007045 L353.108794,6.55985809 L351.519474,6.55985809 L351.744226,6.1230626 L351.961844,5.69419283 L352.186596,5.28821961 L352.411348,4.88312701 L352.636101,4.50093096 L352.860853,4.12577999 L353.085606,3.75767411 L353.318385,3.40718096 L353.550272,3.06989734 L353.783052,2.74053945 L354.015831,2.41998792 L354.24861,2.12057166 L354.488524,1.82203603 L354.728439,1.5455163 L354.968353,1.27868357 L355.217186,1.0180153 L356.71286,1.0180153 L356.774399,1.18621679 L356.828803,1.35529891 L356.875181,1.53142613 L356.921558,1.70755334 L356.967936,1.89072564 L357.007178,2.08270431 L357.037502,2.27380233 L357.068717,2.46401973 L357.092798,2.66392411 L357.115095,2.86999295 L357.138284,3.06989734 L357.154337,3.28389191 L357.169499,3.71276167 L357.177526,4.15660225 L357.177526,4.45425725 L357.162364,4.74486715 L357.146311,5.04428341 L357.123122,5.34281904 L357.092798,5.64135467 L357.061583,5.9398903 L357.030367,6.24547101 L356.991124,6.55985809 Z M364.237605,1.0180153 L363.865694,2.22008353 L362.509153,2.22008353 L361.199881,6.55985809 L359.61056,6.55985809 L360.920724,2.22008353 L359.565074,2.22008353 L359.983364,1.0180153 L364.237605,1.0180153 Z M370.228327,1.0180153 L369.802011,2.22008353 L367.795293,2.22008353 L366.810664,5.31287742 L369.058188,5.31287742 L368.639898,6.55985809 L364.849431,6.55985809 L366.577884,1.0180153 L370.228327,1.0180153 Z M370.03479,2.67889493 L369.616501,3.9258756 L367.516136,3.9258756 L367.934426,2.67889493 L370.03479,2.67889493 Z M396.314767,10.6697866 L391.734991,25.9012681 L386.635252,25.9012681 L389.960161,15.0086806 L389.540979,15.2077043 L389.130717,15.4146538 L388.711536,15.6444998 L388.293247,15.8822715 L387.866931,16.1350141 L387.440615,16.4097725 L387.015191,16.6933374 L386.587983,16.9839473 L386.162559,17.2974537 L385.728216,17.625931 L385.294765,17.9720209 L384.852395,18.3225141 L384.410917,18.6976651 L383.976574,19.0807417 L383.527069,19.486715 L383.085591,19.8997333 L381.303626,25.9012681 L376.257399,25.9012681 L380.884445,10.6697866 L385.890537,10.6697866 L384.67402,14.7330415 L385.15474,14.3508454 L385.635461,13.9827395 L386.100127,13.6392915 L386.557659,13.3020079 L387.007164,12.9885014 L387.440615,12.6899658 L387.866931,12.406401 L388.286112,12.1457327 L388.689239,11.8938708 L389.091475,11.6649054 L389.47944,11.4579559 L389.851352,11.2659773 L390.223264,11.08985 L390.580013,10.9304549 L390.928736,10.792195 L391.262297,10.6697866 L396.314767,10.6697866 Z M377.753965,1.0180153 L376.025512,6.55985809 L374.390706,6.55985809 L375.738328,2.22008353 L375.552818,2.22008353 L375.452037,2.22008353 L375.351255,2.22800926 L375.250473,2.23593498 L375.149691,2.2509058 L375.056936,2.27380233 L374.963289,2.29669887 L374.870534,2.3266405 L374.784914,2.35746276 L374.692159,2.39533011 L374.607431,2.4340781 L374.529838,2.47987118 L374.444218,2.53270934 L374.366625,2.58730878 L374.289032,2.64807267 L374.211439,2.71059783 L374.141873,2.77928744 L374.072307,2.84797705 L374.00274,2.92371176 L373.933174,3.00825282 L373.870743,3.09191324 L373.801177,3.18438003 L373.739637,3.28389191 L373.677206,3.38252315 L373.622802,3.48291566 L373.514885,3.70483595 L373.406076,3.94172705 L373.305294,4.20239533 L373.219674,4.47803442 L373.150108,4.7069998 L373.080542,4.94477154 L373.010976,5.19751409 L372.94141,5.45025664 L372.878978,5.71004428 L372.816547,5.98480274 L372.755008,6.26924819 L372.700603,6.55985809 L371.112175,6.55985809 L371.165687,6.25339674 L371.228119,5.96278684 L371.282523,5.67922202 L371.344954,5.41943438 L371.406493,5.15964674 L371.468033,4.921875 L371.522437,4.69202899 L371.576841,4.47803442 L371.646408,4.26315922 L371.716866,4.05709038 L371.793567,3.85718599 L371.87116,3.6669686 L371.948753,3.48291566 L372.026346,3.30678845 L372.111966,3.13066123 L372.204721,2.96245974 L372.297476,2.80922907 L372.390231,2.65599839 L372.491905,2.51069344 L372.591795,2.37331421 L372.692577,2.23593498 L372.801385,2.11352657 L372.909302,1.99816324 L373.026138,1.88279992 L373.142081,1.77624295 L373.258917,1.6846568 L373.382888,1.59219002 L373.506858,1.50764895 L373.637964,1.42398853 L373.769961,1.35529891 L373.909094,1.29365439 L374.049118,1.2328905 L374.18825,1.18621679 L374.336301,1.14042371 L374.483461,1.10167572 L374.637755,1.0717341 L374.792941,1.04883756 L374.948127,1.03298611 L375.11134,1.0180153 L375.273662,1.0180153 L377.753965,1.0180153 Z M384.108571,5.12882448 L383.999763,5.29702597 L383.883819,5.45730173 L383.751822,5.60348732 L383.612689,5.74086655 L383.46553,5.87032005 L383.310344,5.98480274 L383.139996,6.09224034 L382.969647,6.19175221 L382.783246,6.27541264 L382.589709,6.34498289 L382.388145,6.41455314 L382.178555,6.45946558 L381.961829,6.50613929 L381.737077,6.53696155 L381.504298,6.55193237 L381.256356,6.55985809 L378.78408,6.55985809 L380.466156,1.0180153 L382.054584,1.0180153 L380.745312,5.31287742 L381.209979,5.31287742 L381.365165,5.31287742 L381.512324,5.29702597 L381.651457,5.28205515 L381.783454,5.25827798 L381.907425,5.22833635 L382.02426,5.18958837 L382.132177,5.15084038 L382.232959,5.09800221 L382.326606,5.04428341 L382.411334,4.9755938 L382.4809,4.90690419 L382.550466,4.82236312 L382.612898,4.73782206 L382.667302,4.64623591 L382.720814,4.54760467 L382.760057,4.43224134 L382.783246,4.32568438 L382.806434,4.22529187 L382.814461,4.13370572 L382.814461,4.04123893 L382.806434,3.96462359 L382.790381,3.89593398 L382.760057,3.82724436 L382.728841,3.77352556 L382.682464,3.71980676 L382.620925,3.67401369 L382.558493,3.64319143 L382.488927,3.6132498 L382.403307,3.59035326 L382.310552,3.56657609 L382.20977,3.559531 L382.101854,3.559531 L381.961829,3.56657609 L381.822697,3.58242754 L381.682672,3.6132498 L381.54354,3.65111715 L381.915452,2.40413647 L382.163393,2.36538849 L382.403307,2.34249195 L382.651248,2.31959541 L382.900081,2.31078905 L383.092726,2.31078905 L383.271993,2.33544686 L383.441449,2.35746276 L383.604662,2.39533011 L383.751822,2.44200382 L383.883819,2.50276771 L384.00779,2.57233796 L384.116598,2.65599839 L384.162976,2.70179147 L384.21738,2.74846518 L384.255731,2.80130334 L384.294973,2.85502214 L384.333324,2.90874094 L384.371674,2.96245974 L384.40289,3.02322363 L384.426079,3.09191324 L384.472456,3.22312802 L384.503672,3.36843297 L384.526861,3.52870874 L384.534887,3.69779086 L384.526861,3.86599235 L384.503672,4.04123893 L384.472456,4.21736614 L384.426079,4.39437399 L384.364539,4.56962057 L384.294973,4.75367351 L384.209353,4.93684581 L384.108571,5.12882448 Z M391.215028,1.0180153 L390.843116,2.22008353 L390.757496,2.18221618 L390.672768,2.15843901 L390.580013,2.13554247 L390.494393,2.11352657 L390.408773,2.09767512 L390.316018,2.0897494 L390.230399,2.08270431 L390.14567,2.08270431 L389.928053,2.08270431 L389.727381,2.10472021 L389.525818,2.13554247 L389.347443,2.18221618 L389.254688,2.21215781 L389.169068,2.24209944 L389.083448,2.28084742 L389.005855,2.31078905 L388.922019,2.35746276 L388.844425,2.40413647 L388.773967,2.44992955 L388.697266,2.50276771 L388.625916,2.55736715 L388.564377,2.61020531 L388.494811,2.67184984 L388.433271,2.74053945 L388.317328,2.87879932 L388.200492,3.03114936 L388.09971,3.19935085 L388.006955,3.38252315 L387.929362,3.58242754 L387.851769,3.78849638 L387.820553,3.93468196 L387.79023,4.08791264 L387.767041,4.24114332 L387.759014,4.38556763 L387.767041,4.51590177 L387.782203,4.6312651 L387.805392,4.74486715 L387.836607,4.84437903 L387.882093,4.94477154 L387.937389,5.02843196 L387.998928,5.1050473 L388.068495,5.18166264 L388.146088,5.24330717 L388.239734,5.29702597 L388.339624,5.34281904 L388.448433,5.38156703 L388.564377,5.41150866 L388.697266,5.43440519 L388.828372,5.45025664 L388.975531,5.45025664 L389.099502,5.45025664 L389.216337,5.44145028 L389.339416,5.43440519 L389.456251,5.41943438 L389.572195,5.39565721 L389.689031,5.37276067 L389.804974,5.34281904 L389.913783,5.31287742 L389.533844,6.55985809 L389.39382,6.5748289 L389.246661,6.59068035 L389.091475,6.60565117 L388.936289,6.62062198 L388.781102,6.63647343 L388.611646,6.64351852 L388.448433,6.65056361 L388.270058,6.65056361 L387.998928,6.64351852 L387.750987,6.62062198 L387.627017,6.60565117 L387.510181,6.59068035 L387.402264,6.56778382 L387.301482,6.53696155 L387.192674,6.50613929 L387.100811,6.47531703 L387.007164,6.43744968 L386.921544,6.39870169 L386.836816,6.35290862 L386.759223,6.30007045 L386.68163,6.25339674 L386.612063,6.19175221 L386.549632,6.13803341 L386.488093,6.0693438 L386.425662,6.00857991 L386.379284,5.9398903 L386.32488,5.86327496 L386.285637,5.78665962 L386.240152,5.70211856 L386.208936,5.61845813 L386.17772,5.52599134 L386.146505,5.43440519 L386.123316,5.34281904 L386.108154,5.24330717 L386.092992,5.13586957 L386.084965,5.02843196 L386.076939,4.921875 L386.076939,4.80651167 L386.076939,4.6849839 L386.084965,4.56169485 L386.092992,4.43928643 L386.108154,4.30983293 L386.154532,4.05709038 L386.216071,3.78849638 L386.271367,3.62910125 L386.332907,3.46706421 L386.395338,3.30678845 L386.464904,3.15443841 L386.53447,3.00825282 L386.612063,2.86294787 L386.696791,2.72556864 L386.790438,2.58730878 L386.882301,2.45785527 L386.983975,2.3266405 L387.092784,2.20423209 L387.200701,2.0897494 L387.317536,1.97526671 L387.440615,1.86782911 L387.572612,1.76039151 L387.711745,1.66880535 L387.844634,1.5772192 L387.983766,1.48563305 L388.122899,1.40813708 L388.262031,1.33240238 L388.409191,1.27075785 L388.55635,1.20999396 L388.711536,1.15627516 L388.866722,1.10167572 L389.029935,1.06380837 L389.192257,1.02682166 L389.35547,0.99511876 L389.525818,0.973102858 L389.696166,0.949325684 L389.874541,0.933474235 L390.052915,0.926429147 L390.238425,0.926429147 L390.479232,0.933474235 L390.727173,0.957251409 L390.975114,0.988073671 L391.215028,1.0180153 Z M410.993239,10.6697866 L409.970259,14.083132 L405.716017,14.083132 L402.157437,25.9012681 L397.112995,25.9012681 L400.662656,14.083132 L396.546654,14.083132 L397.578553,10.6697866 L410.993239,10.6697866 Z M398.747801,1.0180153 L398.62383,1.16420089 L398.492725,1.30158011 L398.360727,1.43895934 L398.22873,1.57017411 L398.089597,1.69874698 L397.950465,1.82203603 L397.803306,1.94444444 L397.655255,2.05892713 L397.508095,2.17340982 L397.353801,2.28084742 L397.198615,2.38828502 L397.035402,2.48867754 L396.87308,2.58730878 L396.701841,2.68594002 L396.531493,2.77928744 L396.361144,2.86294787 L396.477088,3.06197162 L396.585897,3.26804046 L396.686679,3.47587057 L396.779434,3.6889845 L396.865054,3.9038597 L396.93462,4.12577999 L397.004186,4.34770028 L397.059482,4.56962057 L397.104968,4.80651167 L397.136183,5.04428341 L397.167399,5.28205515 L397.182561,5.52599134 L397.190588,5.7787339 L397.190588,6.03147645 L397.174534,6.29126409 L397.159372,6.55985809 L395.516539,6.55985809 L395.539728,6.3599537 L395.55489,6.16181059 L395.55489,5.96278684 L395.546863,5.77168881 L395.532593,5.57971014 L395.508512,5.38861212 L395.46927,5.19751409 L395.423784,5.00641606 L395.377407,4.8144374 L395.314976,4.6312651 L395.244517,4.44721216 L395.166924,4.26315922 L395.083088,4.08791264 L394.981414,3.91090479 L394.880633,3.72773249 L394.772716,3.559531 L394.70315,3.59035326 L394.632692,3.62029489 L394.563125,3.64319143 L394.493559,3.65111715 L393.602576,6.55985809 L392.013256,6.55985809 L393.695331,1.0180153 L395.28376,1.0180153 L394.958226,2.12761675 L395.097358,2.08270431 L395.230247,2.0360306 L395.361353,1.9823118 L395.49335,1.92947363 L395.616429,1.86782911 L395.741292,1.80706522 L395.865262,1.74542069 L395.982098,1.67673108 L396.09715,1.60804147 L396.205958,1.53142613 L396.314767,1.45481079 L396.423576,1.37026973 L396.531493,1.28572866 L396.632274,1.20206824 L396.733056,1.11048209 L396.826703,1.0180153 L398.747801,1.0180153 Z M423.571346,10.6697866 L422.548366,14.083132 L415.999331,14.083132 L413.473542,22.5328351 L420.439975,22.5328351 L419.40986,25.9012681 L407.397201,25.9012681 L412.024246,10.6697866 L423.571346,10.6697866 Z M406.227061,1.0180153 L404.498608,6.55985809 L402.91018,6.55985809 L404.126697,2.58730878 L403.793135,2.76343599 L403.475628,2.95453402 L403.165256,3.16060286 L402.86291,3.37547806 L402.568592,3.60444344 L402.2823,3.84221518 L402.003143,4.08791264 L401.74004,4.33977456 L401.034567,6.55985809 L399.445247,6.55985809 L401.127322,1.0180153 L402.723778,1.0180153 L402.298354,2.49484199 L402.592672,2.24209944 L402.886991,2.01401469 L403.173283,1.79825886 L403.459574,1.60011574 L403.606734,1.50764895 L403.74765,1.42398853 L403.886782,1.34825382 L404.025915,1.27075785 L404.173074,1.19502315 L404.312206,1.13337862 L404.452231,1.0717341 L404.591363,1.0180153 L406.227061,1.0180153 Z M423.245812,15.3309934 L422.215697,18.7443388 L415.533773,18.7443388 L416.557645,15.3309934 L423.245812,15.3309934 Z M413.984586,1.0180153 L412.302511,6.55985809 L410.666813,6.55985809 L411.930599,2.58730878 L411.589903,2.76343599 L411.256342,2.95453402 L411.094021,3.04612017 L410.938835,3.15443841 L410.783648,3.25395028 L410.628462,3.36050725 L410.474168,3.46706421 L410.334144,3.58242754 L410.186984,3.69779086 L410.047852,3.81931864 L409.907828,3.94172705 L409.768695,4.07206119 L409.628671,4.20239533 L409.497565,4.33977456 L408.846497,6.55985809 L407.257176,6.55985809 L408.939252,1.0180153 L410.52768,1.0180153 L410.109391,2.49484199 L410.241389,2.36538849 L410.372494,2.24209944 L410.505384,2.12761675 L410.644516,2.01401469 L410.783648,1.90657709 L410.915646,1.79825886 L411.062805,1.69874698 L411.201938,1.60011574 L411.341962,1.50764895 L411.489121,1.42398853 L411.636281,1.34825382 L411.78344,1.27075785 L411.938626,1.19502315 L412.085785,1.13337862 L412.240972,1.0717341 L412.404185,1.0180153 L413.984586,1.0180153 Z M412.821582,0 L412.776096,0.0845410628 L412.7208,0.161156401 L412.667288,0.237771739 L412.612883,0.306461353 L412.543317,0.367225242 L412.481778,0.420944042 L412.404185,0.474662842 L412.326592,0.520455918 L412.248998,0.558323269 L412.163378,0.597071256 L412.070624,0.627012882 L411.976977,0.651670692 L411.877087,0.673686594 L411.776305,0.681612319 L411.666604,0.689538043 L411.558688,0.696583132 L411.449879,0.689538043 L411.341962,0.681612319 L411.249207,0.673686594 L411.163587,0.651670692 L411.085994,0.627012882 L411.008401,0.597071256 L410.946862,0.558323269 L410.892457,0.520455918 L410.84608,0.474662842 L410.799702,0.420944042 L410.768487,0.367225242 L410.745298,0.306461353 L410.722109,0.237771739 L410.714082,0.161156401 L410.714082,0.0845410628 L410.714082,0 L412.821582,0 Z M430.584156,22.4870421 L430.321053,22.479997 L430.042788,22.4641455 L429.76274,22.4333233 L429.468421,22.3954559 L429.174103,22.3487822 L428.871757,22.295944 L428.562277,22.2342995 L428.251904,22.1647293 L429.275776,18.7443388 L429.453259,18.8130284 L429.631634,18.8658665 L429.801982,18.9195853 L429.973222,18.959214 L430.142678,18.988275 L430.313918,19.0041264 L430.476239,19.0190972 L430.631426,19.0279036 L430.816936,19.0190972 L431.003337,19.0120521 L431.174577,19.0041264 L431.35206,18.988275 L431.514381,18.9662591 L431.677595,18.9433625 L431.840808,18.9125403 L431.995102,18.8746729 L432.142261,18.8350443 L432.290312,18.7901318 L432.429445,18.7443388 L432.561442,18.69062 L432.69344,18.6289754 L432.824545,18.5682116 L432.948516,18.4995219 L433.065351,18.422026 L433.181295,18.3462913 L433.290104,18.2626308 L433.390886,18.1780898 L433.490776,18.085623 L433.591557,17.9861111 L433.685204,17.8786735 L433.770824,17.7721165 L433.855552,17.6567532 L433.932253,17.5422705 L434.009847,17.4198621 L434.080305,17.289528 L434.149871,17.1600745 L434.212302,17.0226952 L434.265815,16.8765097 L434.320219,16.7312047 L434.374623,16.5788547 L434.405839,16.3948017 L434.437055,16.2107488 L434.460243,16.0346216 L434.467378,15.8822715 L434.467378,15.7748339 L434.460243,15.6673963 L434.445081,15.5599587 L434.421001,15.4604469 L434.397812,15.3697413 L434.367488,15.2693488 L434.335381,15.1856884 L434.289895,15.0932216 L434.242626,15.0166063 L434.196248,14.9329459 L434.134709,14.8633756 L434.07317,14.7867603 L434.002712,14.7180707 L433.932253,14.6573068 L433.855552,14.5956622 L433.770824,14.5348983 L433.677177,14.4811795 L433.584422,14.4265801 L433.476506,14.3825483 L433.374832,14.3358746 L433.257996,14.2980072 L433.142944,14.2592593 L433.018082,14.2293176 L432.886085,14.1984954 L432.754979,14.1747182 L432.615847,14.1518217 L432.468687,14.1289251 L432.321528,14.1139543 L432.003129,14.0901771 L431.661541,14.083132 L429.794847,14.083132 L426.190782,25.9012681 L421.145447,25.9012681 L425.725224,10.6697866 L433.629908,10.6697866 L434.009847,10.6697866 L434.374623,10.6847574 L434.731373,10.7085346 L435.072069,10.7305505 L435.40563,10.7684179 L435.723138,10.8150916 L436.03351,10.8679298 L436.327829,10.9304549 L436.606094,10.9991445 L436.878115,11.0748792 L437.141218,11.1585397 L437.389159,11.2518871 L437.621939,11.358444 L437.846691,11.465001 L438.05539,11.5882901 L438.257845,11.7106985 L438.443355,11.8489583 L438.613703,11.9933826 L438.776916,12.1395682 L438.932102,12.2989634 L439.071235,12.4680455 L439.195205,12.6441727 L439.312041,12.827345 L439.411931,13.0263688 L439.504686,13.2262731 L439.582279,13.432342 L439.64471,13.6542623 L439.699115,13.8761826 L439.745492,14.1139543 L439.776708,14.3578905 L439.79187,14.6106331 L439.799005,14.8713013 L439.79187,15.0782508 L439.783843,15.2852003 L439.768681,15.4912691 L439.753519,15.6982186 L439.722303,15.8972424 L439.691088,16.0962661 L439.659872,16.2944092 L439.613495,16.4855072 L439.567117,16.6774859 L439.512713,16.8694646 L439.451173,17.0535175 L439.388742,17.2366898 L439.312041,17.4198621 L439.241583,17.5959893 L439.156855,17.7791616 L439.071235,17.9473631 L438.970453,18.124371 L438.876806,18.2925725 L438.768889,18.4598933 L438.660081,18.6219304 L438.544137,18.7901318 L438.420166,18.9433625 L438.296196,19.1036383 L438.164198,19.256869 L438.025066,19.4100996 L437.877907,19.5624497 L437.729856,19.7086353 L437.575561,19.8530596 L437.41324,19.9992452 L437.250027,20.137505 L437.079679,20.2748843 L436.900412,20.4122635 L436.730956,20.5346719 L436.552581,20.6570803 L436.381341,20.7803694 L436.203858,20.8939714 L436.025483,21.0093347 L435.847108,21.1158917 L435.661598,21.2154036 L435.483223,21.3157961 L435.296822,21.415308 L435.111312,21.5060135 L434.916883,21.5905545 L434.731373,21.6750956 L434.536944,21.7525916 L434.343408,21.8283263 L434.149871,21.8970159 L433.956334,21.9657055 L433.75477,22.02735 L433.553207,22.0889946 L433.351643,22.1427134 L433.150079,22.1964322 L432.948516,22.2422252 L432.738925,22.2871377 L432.530227,22.3267663 L432.321528,22.3558273 L432.111046,22.3866496 L431.902347,22.4095461 L431.685621,22.4333233 L431.468896,22.4553392 L431.251278,22.4711906 L431.034553,22.479997 L430.809801,22.4870421 L430.584156,22.4870421 Z M426.710745,1.0180153 L425.400581,5.31287742 L425.958003,5.31287742 L425.586091,6.55985809 L419.40986,6.55985809 L419.836176,5.31287742 L423.812153,5.31287742 L424.695108,2.22008353 L424.369574,2.22008353 L424.184064,2.22800926 L423.997662,2.2509058 L423.912042,2.26675725 L423.826423,2.28877315 L423.742586,2.31078905 L423.656966,2.33544686 L423.579373,2.37331421 L423.50178,2.40413647 L423.424187,2.44200382 L423.354621,2.48867754 L423.277028,2.53270934 L423.207462,2.57938305 L423.137895,2.63310185 L423.074572,2.69474638 L422.943467,2.81715479 L422.827523,2.95453402 L422.710687,3.10776469 L422.609906,3.26804046 L422.510016,3.45121276 L422.424396,3.64319143 L422.338776,3.84221518 L422.261183,4.06413547 L422.222832,4.25611413 L422.176455,4.47803442 L422.152374,4.60748792 L422.138104,4.73782206 L422.130077,4.88312701 L422.12205,5.03635769 L420.533622,5.03635769 L420.541648,4.87608192 L420.541648,4.71492552 L420.555918,4.55376912 L420.579999,4.38556763 L420.603188,4.22529187 L420.633511,4.05709038 L420.672754,3.89593398 L420.727158,3.7427033 L420.780671,3.57450181 L420.835967,3.40718096 L420.897506,3.24514392 L420.967073,3.09191324 L421.036639,2.94748893 L421.106205,2.80130334 L421.183798,2.67184984 L421.269418,2.53270934 L421.355038,2.41118156 L421.439766,2.28877315 L421.533413,2.17340982 L421.633303,2.06685286 L421.72695,1.96734098 L421.835758,1.86782911 L421.943675,1.77624295 L422.052484,1.6846568 L422.168428,1.60804147 L422.29329,1.53142613 L422.416369,1.45481079 L422.540339,1.39316626 L422.672337,1.33240238 L422.804334,1.27868357 L422.943467,1.22496477 L423.090626,1.18621679 L423.237785,1.14834944 L423.384945,1.11048209 L423.540131,1.07965982 L423.695317,1.05676329 L423.857638,1.04179247 L424.028878,1.02682166 L424.198334,1.0180153 L424.369574,1.0180153 L426.710745,1.0180153 Z M434.421001,3.78849638 L434.374623,3.94965278 L434.320219,4.10992854 L434.25868,4.26315922 L434.196248,4.40846417 L434.118655,4.56169485 L434.041062,4.69995471 L433.963469,4.83821457 L433.870714,4.9755938 L433.777067,5.1050473 L433.677177,5.22833635 L433.568369,5.35074477 L433.460452,5.47227254 L433.343616,5.58763587 L433.227673,5.69419283 L433.103702,5.80955616 L432.971705,5.90906804 L432.840599,6.00065419 L432.708602,6.08519525 L432.568577,6.16885568 L432.429445,6.23754529 L432.290312,6.30711554 L432.142261,6.36876006 L432.003129,6.42159823 L431.855969,6.47531703 L431.70881,6.51318438 L431.561651,6.55193237 L431.406465,6.58187399 L431.251278,6.60565117 L431.104119,6.62854771 L430.949825,6.63647343 L430.786612,6.65056361 L430.631426,6.65056361 L430.367431,6.64351852 L430.120381,6.62062198 L430.003546,6.60565117 L429.895629,6.59068035 L429.78682,6.56778382 L429.678012,6.53696155 L429.57723,6.50613929 L429.484475,6.47531703 L429.39172,6.43744968 L429.298073,6.39870169 L429.213345,6.35290862 L429.135752,6.30007045 L429.065294,6.25339674 L428.988593,6.19175221 L428.926161,6.13803341 L428.864622,6.0693438 L428.802191,6.00857991 L428.748678,5.9398903 L428.701409,5.86327496 L428.655032,5.78665962 L428.615789,5.70211856 L428.577438,5.61845813 L428.546223,5.52599134 L428.515899,5.43440519 L428.49271,5.34281904 L428.46863,5.24330717 L428.45436,5.13586957 L428.446333,5.02843196 L428.438306,4.921875 L428.438306,4.80651167 L428.438306,4.6849839 L428.45436,4.56169485 L428.46863,4.43928643 L428.49271,4.30983293 L428.55425,4.05709038 L428.623816,3.78849638 L428.685355,3.6132498 L428.748678,3.43712258 L428.810218,3.26804046 L428.879784,3.10776469 L428.957377,2.95453402 L429.03497,2.80130334 L429.112563,2.65599839 L429.205318,2.51861916 L429.290938,2.38828502 L429.383693,2.26675725 L429.484475,2.1434682 L429.585257,2.02898551 L429.686039,1.92154791 L429.794847,1.82203603 L429.910791,1.72340479 L430.026735,1.63005737 L430.142678,1.5455163 L430.267541,1.46273651 L430.398646,1.38612118 L430.530644,1.31743156 L430.662641,1.2549064 L430.802666,1.20206824 L430.949825,1.14834944 L431.096984,1.10167572 L431.244143,1.05676329 L431.398438,1.02682166 L431.561651,0.99511876 L431.723972,0.973102858 L431.886293,0.949325684 L432.057533,0.933474235 L432.235908,0.926429147 L432.413391,0.926429147 L432.685413,0.933474235 L432.933354,0.957251409 L433.057325,0.973102858 L433.166133,0.988073671 L433.282077,1.01097021 L433.382859,1.04179247 L433.482749,1.06380837 L433.584422,1.10167572 L433.677177,1.14042371 L433.762797,1.1791717 L433.848417,1.22496477 L433.925118,1.27075785 L434.002712,1.32359601 L434.07317,1.37819545 L434.134709,1.43103362 L434.196248,1.49267814 L434.250653,1.56136775 L434.305057,1.63005737 L434.351435,1.69874698 L434.397812,1.77624295 L434.437055,1.85197766 L434.475405,1.93651872 L434.506621,2.02017915 L434.529809,2.11352657 L434.552998,2.20423209 L434.576187,2.3046246 L434.592241,2.40413647 L434.599376,2.51069344 L434.607403,2.6172504 L434.607403,2.72556864 L434.607403,2.84797705 L434.599376,2.97743056 L434.584214,3.10776469 L434.56816,3.23809883 L434.544971,3.37547806 L434.506621,3.51373792 L434.467378,3.65111715 L434.421001,3.78849638 Z M447,13.5776469 L447,13.7229519 L446.983946,13.8691375 L446.968784,14.0073973 L446.944704,14.1447766 L446.91438,14.2821558 L446.883164,14.4124899 L446.836787,14.5419434 L446.789518,14.6731582 L446.727978,14.794686 L446.666439,14.9170944 L446.604008,15.0324577 L446.526415,15.1478211 L446.441687,15.254378 L446.356067,15.360935 L446.255285,15.4604469 L446.154503,15.5599587 L446.061748,15.6603512 L445.952939,15.7510568 L445.853049,15.8435236 L445.736214,15.927184 L445.62027,15.9967542 L445.503434,16.0663245 L445.379464,16.1262077 L445.255493,16.1878523 L445.131523,16.2336453 L444.999525,16.2794384 L444.860393,16.3102607 L444.72126,16.3410829 L444.581236,16.3639795 L444.442104,16.3789503 L444.294052,16.386876 L444.146893,16.3948017 L444.015788,16.386876 L443.884682,16.3789503 L443.75982,16.3639795 L443.627822,16.3410829 L443.504743,16.3102607 L443.379881,16.2794384 L443.25591,16.2336453 L443.13194,16.1878523 L443.015996,16.1262077 L442.900053,16.0663245 L442.783217,15.9967542 L442.667273,15.927184 L442.558465,15.8435236 L442.441629,15.7510568 L442.333712,15.6603512 L442.23293,15.5599587 L442.125013,15.4534018 L442.031367,15.3450835 L441.946639,15.2385266 L441.861019,15.1319696 L441.783426,15.0166063 L441.713859,14.8950785 L441.65232,14.7797152 L441.597916,14.6573068 L441.550646,14.5348983 L441.505161,14.4045642 L441.473053,14.2733494 L441.442729,14.1359702 L441.419541,14.0073973 L441.403487,13.8612118 L441.388325,13.7229519 L441.388325,13.5776469 L441.388325,13.4393871 L441.403487,13.3020079 L441.419541,13.1646286 L441.442729,13.0342945 L441.473053,12.8969153 L441.505161,12.7674618 L441.550646,12.6441727 L441.597916,12.5138386 L441.65232,12.3923108 L441.713859,12.2690217 L441.783426,12.1457327 L441.861019,12.0321306 L441.946639,11.9176479 L442.031367,11.8022846 L442.125013,11.6957277 L442.23293,11.5882901 L442.333712,11.4887782 L442.441629,11.3963114 L442.558465,11.3117703 L442.667273,11.2360356 L442.783217,11.1585397 L442.900053,11.0986564 L443.015996,11.044057 L443.13194,10.9912188 L443.25591,10.9454257 L443.379881,10.9066777 L443.504743,10.8767361 L443.627822,10.8529589 L443.75982,10.8300624 L443.884682,10.8150916 L444.015788,10.8071659 L444.146893,10.8071659 L444.294052,10.8071659 L444.442104,10.8150916 L444.581236,10.8300624 L444.72126,10.8529589 L444.860393,10.8767361 L444.999525,10.9066777 L445.131523,10.9454257 L445.255493,10.9912188 L445.379464,11.044057 L445.503434,11.0986564 L445.62027,11.1585397 L445.736214,11.2360356 L445.853049,11.3117703 L445.952939,11.3963114 L446.061748,11.4887782 L446.154503,11.5882901 L446.255285,11.6957277 L446.356067,11.8022846 L446.441687,11.9176479 L446.526415,12.0321306 L446.604008,12.1457327 L446.666439,12.2690217 L446.727978,12.3923108 L446.789518,12.5138386 L446.836787,12.6441727 L446.883164,12.7674618 L446.91438,12.8969153 L446.944704,13.0342945 L446.968784,13.1646286 L446.983946,13.3020079 L447,13.4393871 L447,13.5776469 Z M444.146893,1.0180153 L442.46571,6.55985809 L440.876389,6.55985809 L441.852992,3.27596618 L441.729021,3.38252315 L441.597916,3.49788647 L441.473053,3.6132498 L441.349974,3.73565821 L441.226004,3.86599235 L441.109168,4.00337158 L440.993225,4.14163144 L440.876389,4.28605576 L440.768472,4.43224134 L440.659664,4.59163647 L440.558882,4.75367351 L440.458992,4.91394928 L440.357318,5.09007649 L440.264563,5.2662037 L440.170916,5.45025664 L440.079053,5.63342895 L439.048046,5.63342895 L439.079262,5.45730173 L439.094424,5.25827798 L439.117612,5.06013486 L439.148828,4.85318539 L439.140801,4.61629428 L439.117612,4.38556763 L439.087289,4.16364734 L439.040019,3.9575785 L439.009696,3.86599235 L438.97848,3.76648048 L438.947264,3.67401369 L438.908022,3.59035326 L438.862536,3.5058122 L438.823294,3.42919686 L438.776916,3.35258152 L438.72162,3.27596618 L437.745909,6.55985809 L436.149454,6.55985809 L437.838664,1.0180153 L439.427093,1.0180153 L439.528767,1.14042371 L439.621522,1.27075785 L439.707141,1.40109199 L439.79187,1.53935185 L439.869463,1.67673108 L439.939029,1.82203603 L440.00146,1.96734098 L440.055864,2.11352657 L440.10135,2.26675725 L440.148619,2.42615238 L440.178943,2.58730878 L440.210159,2.74846518 L440.234239,2.90874094 L440.248509,3.07694243 L440.264563,3.24514392 L440.264563,3.41334541 L440.373372,3.24514392 L440.481289,3.07694243 L440.598124,2.91666667 L440.722095,2.74846518 L440.846065,2.5952345 L440.978063,2.4340781 L441.117195,2.28084742 L441.256328,2.13554247 L441.39546,1.9823118 L441.550646,1.83700684 L441.705832,1.69874698 L441.861019,1.55432267 L442.031367,1.41694344 L442.202607,1.27868357 L442.38009,1.14834944 L442.558465,1.0180153 L444.146893,1.0180153 Z" id="Logo-Piter"></path>
                </g>
            </g>
        </g>
    </g>
</svg>