<?xml version="1.0" encoding="UTF-8" standalone="no"?>
<svg width="199px" height="35px" viewBox="0 0 199 35" version="1.1" xmlns="http://www.w3.org/2000/svg" xmlns:xlink="http://www.w3.org/1999/xlink" xmlns:sketch="http://www.bohemiancoding.com/sketch/ns">
    <!-- Generator: Sketch 3.2.2 (9983) - http://www.bohemiancoding.com/sketch -->
    <title>Kuznica Kadrov</title>
    <desc>Created with Sketch.</desc>
    <defs></defs>
    <g id="Page-1" stroke="none" stroke-width="1" fill="none" fill-rule="evenodd" sketch:type="MSPage">
        <g id="О-чемпионате-(дизайн)" sketch:type="MSArtboardGroup" transform="translate(-569.000000, -6425.000000)">
            <g id="6_block" sketch:type="MSLayerGroup" transform="translate(0.000000, 5999.000000)">
                <g id="logo" transform="translate(569.000000, 324.000000)" sketch:type="MSShapeGroup">
                    <g id="Kuznica-Kadrov" transform="translate(0.000000, 102.000000)">
                        <path d="M120.977091,18.9969766 L120.977091,26.6703684 L116.960501,26.6703684 L116.960501,10.5411813 L120.977091,10.5411813 L120.977091,17.6223567 L124.811232,10.3754737 L128.850627,10.7068889 L124.652502,17.979193 L129.21826,26.5056023 L124.811232,27.0017836 L120.977091,18.9969766" id="Fill-1" fill="#44CDE3"></path>
                        <path d="M135.381348,10.5411813 L138.867014,10.5411813 L143.776686,26.6703684 L139.556667,26.6703684 L138.888908,24.444614 L134.439917,24.444614 L133.796789,26.6703684 L130.10222,26.6703684 L135.381348,10.5411813 L135.381348,10.5411813 Z M138.018632,21.4373977 L136.640238,16.8418363 L135.310193,21.4373977 L138.018632,21.4373977 L138.018632,21.4373977 Z" id="Fill-2" fill="#44CDE3"></path>
                        <path d="M157.703842,10.5411813 L157.703842,23.4974444 L159.583967,23.4974444 L159.583967,29.9864035 L155.912204,30.4599883 L155.912204,26.6703684 L147.972986,26.6703684 L147.972986,29.9864035 L144.300311,30.4599883 L144.300311,23.4974444 L145.44882,23.4974444 C146.067318,21.982538 146.480563,20.5354211 146.731429,19.1146667 C147.213091,16.4153275 147.421081,12.6021696 147.421081,10.5411813 L157.703842,10.5411813 L157.703842,10.5411813 Z M153.664447,23.4974444 L153.664447,13.7150468 L151.092844,13.7150468 C150.909484,16.1309883 150.887591,17.5282047 150.519958,19.6842865 C150.245374,21.3893801 149.854024,22.832731 149.667927,23.4974444 L153.664447,23.4974444 L153.664447,23.4974444 Z" id="Fill-3" fill="#44CDE3"></path>
                        <path d="M160.646726,10.5411813 L165.533591,10.5411813 C169.390539,10.5411813 171.845375,12.4590585 171.845375,15.9182047 C171.845375,19.3990058 169.756347,21.7688129 166.751431,21.7688129 L165.189677,21.7688129 L165.878418,18.7597135 L166.06269,18.7597135 C167.140957,18.7597135 167.805979,17.8134854 167.805979,16.0839123 C167.805979,14.3308012 166.566246,13.6924503 165.006317,13.6924503 L164.662403,13.6924503 L164.662403,26.6703684 L160.646726,26.6703684 L160.646726,10.5411813" id="Fill-4" fill="#44CDE3"></path>
                        <path d="M179.291071,27.0017836 C175.09021,27.0017836 172.953745,23.3307953 172.953745,18.2870702 C172.953745,13.6924503 175.09021,10.2333041 179.291071,10.2333041 C183.510178,10.2333041 185.575487,13.6924503 185.575487,18.2870702 C185.575487,23.3307953 183.510178,27.0017836 179.291071,27.0017836 L179.291071,27.0017836 Z M179.291071,23.663152 C180.82637,23.663152 181.37645,21.1285789 181.37645,18.2870702 C181.37645,15.4907544 180.82637,13.5493392 179.291071,13.5493392 C177.7056,13.5493392 177.179238,15.4907544 177.179238,18.2870702 C177.179238,21.1285789 177.7056,23.663152 179.291071,23.663152 L179.291071,23.663152 Z" id="Fill-5" fill="#44CDE3"></path>
                        <path d="M186.634597,10.5411813 L192.232097,10.5411813 C195.746043,10.5411813 197.833246,11.9374561 197.833246,14.9700936 C197.833246,16.579152 196.937427,17.7890058 195.7205,18.2870702 C196.960233,18.6184854 198.336802,19.6842865 198.336802,22.2423977 C198.336802,24.8946608 196.203075,26.6703684 193.793851,26.6703684 L186.634597,26.6703684 L186.634597,10.5411813 L186.634597,10.5411813 Z M192.232097,23.4974444 C193.424394,23.4974444 194.160571,22.8807485 194.160571,21.7688129 C194.160571,20.5128246 193.449024,20.0373567 192.413633,20.0373567 L191.360909,20.0373567 L192.048737,17.3380175 L192.232097,17.3380175 C193.449024,17.3380175 193.793851,16.4153275 193.793851,15.4427368 C193.793851,14.4974503 193.287558,13.6924503 191.522375,13.6924503 L190.649362,13.6924503 L190.649362,23.4974444 L192.232097,23.4974444 L192.232097,23.4974444 Z" id="Fill-6" fill="#44CDE3"></path>
                        <path d="M0.000484627093,10.5411813 L0.000484627093,16.0358947 L3.9641641,10.5411813 L0.000484627093,10.5411813" id="Fill-7" fill="#44CEE3"></path>
                        <path d="M7.68883689,17.979193 L11.8887863,10.7068889 L7.85030323,10.3754737 L4.01707397,17.6223567 L4.01707397,13.1077661 C1.86054042,13.7828363 0.000484627093,17.0546199 0.000484627093,17.2372749 L0.000484627093,26.6703684 L4.01707397,26.6703684 L4.01707397,18.9969766 L7.85030323,27.0017836 L12.2555065,26.5056023 L7.68883689,17.979193" id="Fill-8" fill="#D93081"></path>
                        <path d="M51.5283177,23.4513099 L51.5283177,10.5411813 L47.4898346,10.5411813 L47.4898346,16.1281637 L51.5283177,23.4513099" id="Fill-9" fill="#44CEE3"></path>
                        <path d="M62.4605927,17.4246374 L63.5078434,15.3702398 C63.5078434,15.3702398 64.6399322,13.6510234 64.9519181,10.5411813 L62.9659732,10.5411813 L58.0553895,19.8019766 L58.0553895,10.5411813 L54.0150819,10.5411813 L54.0150819,26.6703684 L57.5490967,26.6703684 L62.4605927,17.4095731 L62.4605927,17.4246374" id="Fill-10" fill="#D93081"></path>
                        <path d="M62.4605927,18.9056491 L62.4605927,26.6703684 L66.4990758,26.6703684 L66.4990758,11.0044094 L62.4605927,18.9056491" id="Fill-11" fill="#44CEE3"></path>
                        <path d="M72.5554321,10.5411813 L68.9858399,10.5411813 L68.9858399,17.5225556 L72.5554321,10.5411813" id="Fill-12" fill="#44CEE3"></path>
                        <path d="M85.439899,20.8065789 L83.5196354,26.6703684 L87.2160288,26.6703684 L87.6557281,25.1432222 L85.439899,20.8065789" id="Fill-13" fill="#44CEE3"></path>
                        <path d="M92.2880789,10.5411813 L88.7978516,10.5411813 C88.7978516,10.5411813 86.202531,18.4725497 86.1213417,18.717345 C85.5083169,20.3866608 88.0562011,24.444614 88.0562011,24.444614 L92.3108849,24.444614 L92.9759073,26.6703684 L97.195926,26.6703684 L92.2880789,10.5411813 L92.2880789,10.5411813 Z M88.7294337,21.4373977 L90.0631274,16.8418363 L91.437872,21.4373977 L88.7294337,21.4373977 L88.7294337,21.4373977 Z" id="Fill-14" fill="#D93081"></path>
                        <path d="M22.5674588,21.7612807 C22.5802301,21.7283275 22.5993872,21.682193 22.6121585,21.6492398 L26.3295334,10.7068889 L22.6577705,10.3754737 L20.6763869,17.0630936 L22.5674588,21.7612807" id="Fill-15" fill="#44CEE3"></path>
                        <path d="M20.36805,18.1006491 L20.3607521,18.1194795 L17.1961942,10.3754737 L12.9725265,10.7068889 L18.4112968,22.3356082 C18.2981792,22.693386 18.0901886,23.1415497 17.5391961,23.4974444 C17.0821643,23.7799006 16.6452017,23.8279181 16.2082391,23.8279181 C15.6581588,23.8279181 15.1080786,23.6866901 14.5789798,23.4974444 L14.5789798,26.6703684 C15.4738865,26.9311696 16.2547633,27.0017836 16.7820376,27.0017836 C17.7918864,27.0017836 19.0535133,26.812538 20.2248284,25.7467368 C20.5331653,25.4736959 20.8077493,25.1582865 21.0540539,24.8202807 C22.297436,23.1151871 21.1461901,20.028883 21.1461901,20.028883 L20.36805,18.1006491" id="Fill-16" fill="#D93081"></path>
                        <path d="M28.6812861,22.7630585 C28.6621291,22.7442281 28.6411476,22.7348129 28.6201661,22.7150409 L27.5637931,26.054614 C28.1366793,26.4114503 28.8710319,26.7174444 29.8142873,26.883152 C29.9921739,26.9132807 30.1810074,26.9123392 30.362543,26.9330526 L28.6812861,22.7630585" id="Fill-17" fill="#44CEE3"></path>
                        <path d="M36.6296266,19.1146667 C36.21547,18.6665029 35.6663019,18.3322632 34.9538431,18.1439591 C35.9417982,17.6939123 36.4909662,16.9840058 36.7655502,16.3447135 C37.0191527,15.7986316 37.0656769,15.2534912 37.0656769,14.6857544 C37.0656769,12.9816023 36.3760241,11.9854737 35.7566136,11.4403333 C34.5862107,10.4225497 32.9797574,10.2333041 31.7865485,10.2333041 C31.1443321,10.2333041 30.5240094,10.2803801 29.9045989,10.3754737 C28.9868863,10.5411813 28.2762519,10.7304269 27.5637931,11.0147661 L28.436806,14.1895731 C29.3308005,13.5248596 30.1810074,13.3836316 30.9828657,13.3836316 C31.4426343,13.3836316 32.0164328,13.4542456 32.4515709,13.8101404 C32.9350577,14.2121696 33.0253694,14.827924 33.0253694,15.3740058 C33.0253694,15.6809415 33.0025634,16.0132982 32.7507854,16.3673099 C32.4059589,16.8418363 31.9480148,16.8644327 31.6953246,16.8644327 L30.6608453,16.8644327 L29.9502109,20.0373567 L31.8786846,20.0373567 C32.360347,20.0373567 32.7279794,20.1333918 33.0709813,20.5824971 C33.3236716,20.9383918 33.3930018,21.246269 33.3930018,21.6247602 C33.3930018,22.1699006 33.2561659,22.6679649 32.9122517,23.0464561 C32.5145154,23.4955614 32.0100471,23.6584444 31.4408098,23.6537368 C30.7876465,23.6490292 30.3023352,23.3741053 30.3023352,23.3741053 C30.3023352,23.3741053 29.8106383,24.7110643 30.850591,27.0017836 L31.1443321,27.0017836 C32.7042612,27.0017836 34.4265688,26.6703684 35.7110017,25.7231988 C36.2401004,25.3437661 36.6524326,24.8692398 36.9963467,24.3259825 C37.4342216,23.5915965 37.6157572,22.7630585 37.6157572,21.9345205 C37.6157572,20.4422105 37.0191527,19.565655 36.6296266,19.1146667" id="Fill-18" fill="#D93081"></path>
                        <path id="Fill-19" fill="#FFFFFF"></path>
                        <path id="Fill-20" fill="#FFFFFF"></path>
                        <path d="M81.0784832,23.4974444 L81.0784832,10.5411813 L77.0400001,10.5411813 L77.0400001,23.4974444 L73.024323,23.4974444 L73.024323,12.3620819 C71.5693015,12.7904737 68.9858399,19.0016842 68.9858399,19.0016842 L68.9858399,26.6703684 L79.2895821,26.6703684 L79.2895821,30.4599883 L82.961345,29.9864035 L82.961345,23.4974444 L81.0784832,23.4974444" id="Fill-21" fill="#D93081"></path>
                        <path d="M50.6042194,23.3995263 C50.2192544,22.6924444 46.9060015,16.6996667 46.9060015,16.6996667 L43.3218136,16.6996667 L43.3218136,10.5411813 L39.2833305,10.5411813 L39.2833305,26.6703684 L43.3218136,26.6703684 L43.3218136,20.347117 L47.3602967,20.347117 L47.3602967,26.6703684 L51.4006042,26.6703684 C51.4006042,26.6703684 51.4507774,25.3202281 50.6042194,23.3995263" id="Fill-22" fill="#D93081"></path>
                        <path d="M113.300597,1.72760819 C113.349858,1.59767836 113.507676,1.18435088 113.507676,1.18435088 L110.77187,0.16280117 L110.5803,0.710766082 L109.388916,0.26354386 C108.653651,1.0704269 107.482336,2.22284795 106.340212,2.41209357 C105.652384,2.52507602 104.977327,2.48929825 104.338759,2.32735673 L103.881727,3.63418713 L109.571363,5.76390643 L109.571363,5.77049708 L111.331985,6.4248538 L111.331985,6.42202924 L112.142054,6.72708187 L114.907051,7.7542807 L116.592869,2.961 L113.300597,1.72760819" id="Fill-23" fill="#C62472"></path>
                        <path d="M110.188037,6.75061988 L109.930786,6.65364327 L109.675359,6.55854971 L107.912913,5.9004269 C107.912913,5.9004269 108.930972,7.30517544 108.727542,7.76840351 C108.476676,8.34273099 109.062334,7.89362573 98.6691924,33.4549649 C98.6691924,33.4549649 99.0204045,33.782614 99.4719629,34.1036725 C99.3953348,34.3362281 99.5431176,34.6026784 99.8076669,34.7005965 C100.068567,34.8003977 100.345888,34.6930643 100.433463,34.4670994 C100.960737,34.5264152 101.406822,34.5264152 101.406822,34.5264152 C101.406822,34.5264152 110.04664,8.7890117 110.179827,8.29847953 C110.310277,7.80888889 111.947747,7.40685965 111.947747,7.40685965 L110.188037,6.75061988" id="Fill-24" fill="#C62472"></path>
                    </g>
                </g>
            </g>
        </g>
    </g>
</svg>