<?xml version="1.0" encoding="UTF-8" standalone="no"?>
<svg width="171px" height="40px" viewBox="0 0 171 40" version="1.1" xmlns="http://www.w3.org/2000/svg" xmlns:xlink="http://www.w3.org/1999/xlink" xmlns:sketch="http://www.bohemiancoding.com/sketch/ns">
    <!-- Generator: Sketch 3.2.2 (9983) - http://www.bohemiancoding.com/sketch -->
    <title>лебедев</title>
    <desc>Created with Sketch.</desc>
    <defs></defs>
    <g id="Page-1" stroke="none" stroke-width="1" fill="none" fill-rule="evenodd" sketch:type="MSPage">
        <g id="О-чемпионате-(дизайн)" sketch:type="MSArtboardGroup" transform="translate(-476.000000, -6333.000000)">
            <g id="6_block" sketch:type="MSLayerGroup" transform="translate(0.000000, 5999.000000)">
                <g id="logo" transform="translate(476.000000, 324.000000)" sketch:type="MSShapeGroup">
                    <g id="лебедев" transform="translate(0.000000, 10.000000)">
                        <path d="M85.3417029,0.787317073 L170.78796,0.787317073 L170.78796,9.91317073 L85.3417029,9.91317073 L85.3417029,0.787317073 Z" id="Fill-1" fill="#D9222A"></path>
                        <path d="M90.12384,7.40780488 C88.8858,7.40780488 88.2887657,6.36195122 88.2887657,5.13756098 C88.2887657,3.91317073 88.85844,2.51219512 90.1795371,2.51219512 C90.5420571,2.51219512 90.9622286,2.58829268 91.2925029,2.7404878 L91.35504,3.68487805 C91.3247486,3.71121951 91.2602571,3.74926829 91.2211714,3.74926829 C91.0062,3.74926829 90.9622286,2.77853659 90.1795371,2.77853659 C89.2160743,2.77853659 88.9737429,4.26146341 88.9737429,5.00487805 C88.9737429,5.8097561 89.2082571,7.08390244 90.2371886,7.08390244 C90.7003543,7.08390244 91.1146629,6.82439024 91.3052057,6.7102439 C91.3628571,6.67804878 91.4635029,6.85560976 91.4185543,6.88780488 C91.0501714,7.19219512 90.6378171,7.40780488 90.12384,7.40780488" id="Fill-2" fill="#FFFFFF"></path>
                        <path d="M94.8004457,5.02341463 C94.8053314,5.06146341 94.6020857,5.05463415 94.59036,5.02341463 C94.5190286,4.83317073 94.3939543,4.19317073 94.2981943,4.19317073 L93.5291829,4.19317073 L93.5291829,6.98243902 C93.5291829,7.0204878 94.0236171,7.1404878 94.0421829,7.15414634 C94.0617257,7.16682927 94.0695429,7.2995122 94.0421829,7.2995122 L92.4426,7.2995122 C92.4162171,7.2995122 92.4162171,7.16682927 92.4426,7.15414634 C92.4680057,7.1404878 92.9565771,7.0204878 92.9565771,6.98243902 L92.9565771,4.19317073 L92.18952,4.19317073 C92.09376,4.19317073 91.9471886,4.83317073 91.8895371,5.02341463 C91.8836743,5.06146341 91.6931314,5.06146341 91.6794514,5.02341463 L91.7752114,3.92585366 L94.7105486,3.92585366 L94.8004457,5.02341463" id="Fill-3" fill="#FFFFFF"></path>
                        <path d="M98.8331143,3.92585366 C98.8712229,3.92585366 98.86536,4.06536585 98.8331143,4.07219512 C98.7998914,4.07902439 98.2986171,4.1795122 98.2868914,4.23707317 L96.89544,8.35804878 C96.7176,8.87902439 96.3804857,9.17658537 95.9544514,9.17658537 C95.5235314,9.17658537 95.3134457,8.98731707 95.2831543,8.95512195 C95.2636114,8.93560976 95.2509086,8.83512195 95.2509086,8.7395122 C95.2509086,8.65073171 95.2636114,8.55512195 95.2831543,8.53658537 C95.3134457,8.49853659 95.4277714,8.4604878 95.5420971,8.4604878 C95.5675029,8.4604878 95.5938857,8.46731707 95.6134286,8.46731707 C95.7580457,8.48585366 95.7199371,8.85365854 96.0502114,8.85365854 C96.3883029,8.85365854 96.5211943,8.6195122 96.7293257,8.02341463 C96.8006571,7.82634146 96.8710114,7.5795122 96.9657943,7.2995122 L96.615,7.2995122 L95.5997486,4.23707317 C95.5743429,4.18634146 95.19912,4.12292683 95.0076,4.07219512 C94.9773086,4.06536585 94.9831714,3.92585366 95.0076,3.92585366 L96.7947943,3.92585366 C96.8250857,3.92585366 96.8192229,4.06536585 96.7947943,4.07219512 C96.7674343,4.07902439 96.1967829,4.19902439 96.2085086,4.23707317 C96.2085086,4.23707317 96.88176,6.42439024 96.9394114,6.5902439 C97.0156286,6.79902439 97.1250686,6.79902439 97.1250686,6.79902439 L97.9947257,4.23707317 C98.0064514,4.19317073 97.3077943,4.07902439 97.2833657,4.07219512 C97.25796,4.06536585 97.2501429,3.93170732 97.2833657,3.92585366 L98.8331143,3.92585366" id="Fill-4" fill="#FFFFFF"></path>
                        <path d="M101.626766,4.23707317 L101.626766,6.98926829 L102.147583,6.98926829 L102.147583,8.39121951 C102.147583,8.42243902 101.94336,8.43414634 101.937497,8.39121951 C101.913069,8.25756098 101.708846,7.2995122 101.536869,7.2995122 L99.3021429,7.2995122 C99.1555714,7.2995122 98.9259429,8.25756098 98.9151943,8.39121951 C98.9073771,8.43414634 98.7051086,8.42243902 98.7051086,8.39121951 L98.7051086,6.98926829 L99.1438457,6.98926829 C99.3979029,6.64780488 99.5562,6.1902439 99.63828,5.75902439 C99.7330629,5.25853659 99.7330629,4.78829268 99.7330629,4.45268293 L99.7330629,4.23707317 C99.7330629,4.19902439 99.3216857,4.11707317 99.1682743,4.0595122 C99.1360286,4.04585366 99.1360286,3.92585366 99.1682743,3.92585366 L102.205234,3.92585366 C102.235526,3.92585366 102.235526,4.06536585 102.205234,4.07219512 C102.109474,4.09756098 101.626766,4.19902439 101.626766,4.23707317 L101.626766,4.23707317 Z M101.05416,4.26926829 L100.077017,4.26926829 L100.077017,4.31902439 C100.077017,4.73756098 100.063337,5.29658537 99.9626914,5.84097561 C99.8864743,6.25268293 99.7389257,6.64780488 99.5366571,6.98926829 L101.05416,6.98926829 L101.05416,4.26926829 L101.05416,4.26926829 Z" id="Fill-5" fill="#FFFFFF"></path>
                        <path d="M104.859154,7.2995122 C104.834726,7.2995122 104.834726,7.16682927 104.859154,7.16 C104.886514,7.15414634 105.369223,7.0204878 105.369223,6.98243902 L105.369223,4.8195122 L103.811657,6.88780488 L103.811657,6.98243902 C103.811657,7.01463415 104.294366,7.14731707 104.319771,7.16 C104.346154,7.17365854 104.346154,7.2995122 104.319771,7.2995122 L102.726051,7.2995122 C102.700646,7.2995122 102.687943,7.17853659 102.726051,7.16 C102.770023,7.1404878 103.241006,7.01463415 103.241006,6.98243902 L103.241006,4.23707317 C103.241006,4.19902439 102.758297,4.07902439 102.726051,4.0595122 C102.693806,4.04097561 102.700646,3.92585366 102.726051,3.92585366 L104.319771,3.92585366 C104.35788,3.92585366 104.352017,4.05268293 104.319771,4.0595122 C104.288503,4.06536585 103.811657,4.19317073 103.811657,4.23707317 L103.811657,6.4497561 L105.369223,4.38243902 L105.369223,4.23707317 C105.369223,4.21170732 104.892377,4.07219512 104.859154,4.0595122 C104.828863,4.04585366 104.834726,3.92585366 104.859154,3.92585366 L106.454829,3.92585366 C106.486097,3.92585366 106.474371,4.05268293 106.454829,4.0595122 C106.408903,4.07902439 105.939874,4.21170732 105.939874,4.23707317 L105.939874,6.98243902 C105.939874,7.0204878 106.428446,7.14731707 106.454829,7.16 C106.480234,7.17365854 106.474371,7.2995122 106.454829,7.2995122 L104.859154,7.2995122" id="Fill-6" fill="#FFFFFF"></path>
                        <path d="M108.476537,7.2995122 C108.451131,7.2995122 108.445269,7.17853659 108.476537,7.16 C108.508783,7.1404878 109.049143,7.03414634 109.049143,6.98243902 L109.049143,5.77170732 C108.939703,5.78439024 108.737434,5.79707317 108.628971,5.79707317 L108.012394,6.90634146 C107.834554,7.2302439 107.619583,7.38829268 107.275629,7.38829268 C107.187686,7.38829268 107.092903,7.36390244 107.029389,7.32585366 C106.972714,7.29365854 106.915063,7.24292683 106.896497,7.21170732 C106.896497,7.17365854 106.915063,7.10243902 106.926789,7.09170732 C106.939491,7.09170732 106.9776,7.09658537 107.003006,7.09658537 C107.079223,7.09658537 107.180846,7.07804878 107.257063,7.0204878 C107.341097,6.96390244 107.4222,6.88780488 107.473989,6.79902439 C107.632286,6.52682927 108.006531,5.86634146 108.076886,5.72682927 C107.930314,5.68292683 107.720229,5.59317073 107.543366,5.45463415 C107.359663,5.30829268 107.213091,5.10536585 107.213091,4.80780488 C107.213091,4.43317073 107.466171,4.09073171 107.993829,3.94536585 C108.216617,3.88195122 108.59868,3.86926829 108.84492,3.86926829 C109.175194,3.86926829 110.072211,3.92585366 110.197286,3.93853659 C110.216829,3.93853659 110.224646,4.06536585 110.197286,4.07902439 C110.159177,4.09756098 109.626634,4.17365854 109.626634,4.21756098 L109.626634,6.98243902 C109.626634,7.0204878 110.17872,7.14731707 110.197286,7.16 C110.216829,7.17365854 110.224646,7.2995122 110.197286,7.2995122 L108.476537,7.2995122 L108.476537,7.2995122 Z M109.049143,4.19317073 C108.939703,4.16097561 108.743297,4.13560976 108.579137,4.13560976 C108.254726,4.13560976 107.804263,4.28878049 107.804263,4.80780488 C107.804263,5.04292683 107.87364,5.20097561 107.993829,5.31512195 C108.192189,5.50634146 108.50292,5.58829268 108.819514,5.58829268 C108.889869,5.58829268 108.977811,5.58146341 109.049143,5.57463415 L109.049143,4.19317073 L109.049143,4.19317073 Z" id="Fill-7" fill="#FFFFFF"></path>
                        <path d="M113.883069,7.2995122 C113.856686,7.2995122 113.84496,7.17365854 113.883069,7.15414634 C113.932903,7.13560976 114.511371,7.01463415 114.499646,6.98243902 L114.123446,5.76487805 L112.783783,5.76487805 L112.339183,6.98926829 C112.33332,7.00878049 112.911789,7.1404878 112.936217,7.15414634 C112.95576,7.16682927 112.95576,7.2995122 112.936217,7.2995122 L111.582874,7.2995122 C111.558446,7.2995122 111.558446,7.17365854 111.582874,7.15414634 C111.60828,7.1404878 112.033337,7.00878049 112.041154,6.98926829 L113.558657,2.49365854 L113.7492,2.49365854 L115.16508,6.98926829 C115.170943,7.01463415 115.610657,7.13560976 115.647789,7.15414634 C115.681011,7.17365854 115.681011,7.2995122 115.647789,7.2995122 L113.883069,7.2995122 L113.883069,7.2995122 Z M113.476577,3.67317073 L112.865863,5.49853659 L114.041366,5.49853659 L113.476577,3.67317073 L113.476577,3.67317073 Z" id="Fill-8" fill="#FFFFFF"></path>
                        <path d="M117.547354,7.38829268 C117.279617,7.38829268 116.974749,7.26829268 116.830131,7.15414634 L116.830131,8.85365854 C116.830131,8.88487805 117.515109,9.01170732 117.541491,9.02536585 C117.56592,9.03804878 117.56592,9.1697561 117.541491,9.1697561 L115.673194,9.1697561 C115.647789,9.1697561 115.647789,9.04487805 115.673194,9.02536585 C115.697623,9.00585366 116.257526,8.87902439 116.257526,8.85365854 L116.257526,4.30634146 C116.257526,4.26146341 115.697623,4.08390244 115.673194,4.07219512 C115.647789,4.0595122 115.640949,3.92585366 115.673194,3.92585366 L116.67672,3.92585366 L116.77248,4.33170732 L116.78616,4.33170732 C117.116434,3.98926829 117.419349,3.83707317 117.845383,3.83707317 C118.71504,3.83707317 119.129349,4.61756098 119.129349,5.49853659 C119.129349,6.31804878 118.665206,7.38829268 117.547354,7.38829268 L117.547354,7.38829268 Z M117.681223,4.15512195 C117.350949,4.15512195 117.03924,4.35121951 116.830131,4.5795122 L116.830131,6.88195122 C117.064646,7.00195122 117.255189,7.04682927 117.48384,7.04682927 C118.27044,7.04682927 118.504954,6.3102439 118.504954,5.56878049 C118.504954,4.92195122 118.27044,4.15512195 117.681223,4.15512195 L117.681223,4.15512195 Z" id="Fill-9" fill="#FFFFFF"></path>
                        <path d="M122.745754,5.02341463 C122.751617,5.06146341 122.547394,5.05463415 122.535669,5.02341463 C122.465314,4.83317073 122.339263,4.19317073 122.243503,4.19317073 L121.474491,4.19317073 L121.474491,6.98243902 C121.474491,7.0204878 121.968926,7.1404878 121.988469,7.15414634 C122.007034,7.16682927 122.014851,7.2995122 121.988469,7.2995122 L120.388886,7.2995122 C120.362503,7.2995122 120.362503,7.16682927 120.388886,7.15414634 C120.414291,7.1404878 120.901886,7.0204878 120.901886,6.98243902 L120.901886,4.19317073 L120.134829,4.19317073 C120.040046,4.19317073 119.892497,4.83317073 119.835823,5.02341463 C119.82996,5.06146341 119.639417,5.06146341 119.625737,5.02341463 L119.721497,3.92585366 L122.655857,3.92585366 L122.745754,5.02341463" id="Fill-10" fill="#FFFFFF"></path>
                        <path d="M123.868491,5.40390244 C123.868491,5.40390244 123.854811,5.6195122 123.862629,5.74634146 C123.887057,6.38634146 124.097143,7.01463415 124.807526,7.01463415 C125.150503,7.01463415 125.392834,6.97658537 125.665457,6.85560976 C125.728971,6.85560976 125.728971,6.98926829 125.715291,7.0204878 C125.442669,7.19219512 125.06256,7.38829268 124.566171,7.38829268 C123.644726,7.38829268 123.226509,6.54536585 123.226509,5.74634146 C123.226509,4.89658537 123.664269,3.83707317 124.629686,3.83707317 C125.544291,3.83707317 125.867726,4.52878049 125.867726,5.39707317 L123.868491,5.40390244 L123.868491,5.40390244 Z M124.629686,4.03414634 C124.108869,4.03414634 123.911486,4.73170732 123.89292,5.14926829 L125.328343,5.14926829 L125.33616,4.97853659 C125.33616,4.59902439 125.106531,4.03414634 124.629686,4.03414634 L124.629686,4.03414634 Z" id="Fill-11" fill="#FFFFFF"></path>
                        <path d="M129.160697,7.2995122 C129.141154,7.2995122 129.141154,7.16682927 129.160697,7.15414634 C129.179263,7.1404878 129.70008,7.01463415 129.694217,6.98243902 L129.694217,4.45853659 L128.423931,7.35707317 L128.354554,7.35707317 L127.090131,4.4204878 L127.090131,6.98926829 C127.090131,7.0204878 127.580657,7.1404878 127.605086,7.15414634 C127.629514,7.16682927 127.629514,7.2995122 127.605086,7.2995122 L126.289851,7.2995122 C126.271286,7.2995122 126.265423,7.16682927 126.289851,7.15414634 C126.315257,7.1404878 126.816531,7.0204878 126.816531,6.98926829 L126.816531,4.24292683 C126.816531,4.21756098 126.347503,4.07902439 126.315257,4.06536585 C126.283989,4.05268293 126.283989,3.92585366 126.315257,3.92585366 L127.458514,3.92585366 L128.532394,6.4497561 L129.63168,3.92585366 L130.748554,3.92585366 C130.7808,3.92585366 130.774937,4.05268293 130.748554,4.06536585 C130.723149,4.07902439 130.259983,4.19317073 130.259983,4.23121951 L130.259983,6.98243902 C130.259983,7.01463415 130.76712,7.1404878 130.786663,7.15414634 C130.805229,7.16682927 130.813046,7.2995122 130.786663,7.2995122 L129.160697,7.2995122" id="Fill-12" fill="#FFFFFF"></path>
                        <path d="M133.437651,7.2995122 C133.412246,7.2995122 133.412246,7.16682927 133.437651,7.16 C133.46208,7.15414634 133.944789,7.0204878 133.944789,6.98243902 L133.944789,4.8195122 L132.389177,6.88780488 L132.389177,6.98243902 C132.389177,7.01463415 132.872863,7.14731707 132.897291,7.16 C132.92172,7.17365854 132.92172,7.2995122 132.897291,7.2995122 L131.303571,7.2995122 C131.277189,7.2995122 131.265463,7.17853659 131.303571,7.16 C131.347543,7.1404878 131.816571,7.01463415 131.816571,6.98243902 L131.816571,4.23707317 C131.816571,4.19902439 131.333863,4.07902439 131.303571,4.0595122 C131.271326,4.04097561 131.277189,3.92585366 131.303571,3.92585366 L132.897291,3.92585366 C132.9354,3.92585366 132.929537,4.05268293 132.897291,4.0595122 C132.865046,4.06536585 132.389177,4.19317073 132.389177,4.23707317 L132.389177,6.4497561 L133.944789,4.38243902 L133.944789,4.23707317 C133.944789,4.21170732 133.467943,4.07219512 133.437651,4.0595122 C133.404429,4.04585366 133.412246,3.92585366 133.437651,3.92585366 L135.031371,3.92585366 C135.063617,3.92585366 135.049937,4.05268293 135.031371,4.0595122 C134.9874,4.07902439 134.517394,4.21170732 134.517394,4.23707317 L134.517394,6.98243902 C134.517394,7.0204878 135.005966,7.14731707 135.031371,7.16 C135.0558,7.17365854 135.049937,7.2995122 135.031371,7.2995122 L133.437651,7.2995122" id="Fill-13" fill="#FFFFFF"></path>
                        <path d="M137.054057,7.2995122 C137.028651,7.2995122 137.021811,7.17853659 137.054057,7.16 C137.086303,7.1404878 137.624709,7.03414634 137.624709,6.98243902 L137.624709,5.77170732 C137.517223,5.78439024 137.313,5.79707317 137.206491,5.79707317 L136.589914,6.90634146 C136.412074,7.2302439 136.197103,7.38829268 135.853149,7.38829268 C135.764229,7.38829268 135.668469,7.36390244 135.604954,7.32585366 C135.54828,7.29365854 135.490629,7.24292683 135.472063,7.21170732 C135.472063,7.17365854 135.490629,7.10243902 135.504309,7.09170732 C135.515057,7.09170732 135.554143,7.09658537 135.580526,7.09658537 C135.656743,7.09658537 135.758366,7.07804878 135.834583,7.0204878 C135.916663,6.96390244 135.998743,6.88780488 136.049554,6.79902439 C136.208829,6.52682927 136.584051,5.86634146 136.653429,5.72682927 C136.507834,5.68292683 136.297749,5.59317073 136.120886,5.45463415 C135.935229,5.30829268 135.790611,5.10536585 135.790611,4.80780488 C135.790611,4.43317073 136.044669,4.09073171 136.571349,3.94536585 C136.792183,3.88195122 137.174246,3.86926829 137.42244,3.86926829 C137.752714,3.86926829 138.647777,3.92585366 138.775783,3.93853659 C138.794349,3.93853659 138.800211,4.06536585 138.775783,4.07902439 C138.736697,4.09756098 138.2022,4.17365854 138.2022,4.21756098 L138.2022,6.98243902 C138.2022,7.0204878 138.75624,7.14731707 138.775783,7.16 C138.794349,7.17365854 138.800211,7.2995122 138.775783,7.2995122 L137.054057,7.2995122 L137.054057,7.2995122 Z M137.624709,4.19317073 C137.517223,4.16097561 137.320817,4.13560976 137.154703,4.13560976 C136.830291,4.13560976 136.379829,4.28878049 136.379829,4.80780488 C136.379829,5.04292683 136.45116,5.20097561 136.571349,5.31512195 C136.767754,5.50634146 137.078486,5.58829268 137.397034,5.58829268 C137.466411,5.58829268 137.555331,5.58146341 137.624709,5.57463415 L137.624709,4.19317073 L137.624709,4.19317073 Z" id="Fill-14" fill="#FFFFFF"></path>
                        <path d="M142.4772,7.2995122 C142.458634,7.2995122 142.458634,7.17365854 142.4772,7.15414634 C142.496743,7.13560976 143.029286,7.01463415 143.029286,6.98926829 L143.029286,2.93073171 L141.842057,2.93073171 C141.84792,3.19609756 141.84792,3.27902439 141.84792,3.41170732 C141.84792,5.31512195 141.721869,7.4204878 140.584474,7.4204878 C140.355823,7.4204878 140.216091,7.24292683 140.164303,7.13560976 C140.164303,7.1102439 140.197526,7.00195122 140.216091,6.99609756 C140.241497,7.00195122 140.298171,7.05853659 140.450606,7.05853659 C140.718343,7.05853659 140.928429,6.84390244 141.080863,6.53853659 C141.301697,6.09463415 141.411137,5.40390244 141.467811,4.66731707 C141.511783,4.08390244 141.525463,3.46926829 141.525463,2.93073171 C141.525463,2.90439024 140.985103,2.77853659 140.95872,2.76585366 C140.934291,2.75219512 140.939177,2.6195122 140.95872,2.6195122 L144.218469,2.6195122 C144.242897,2.6195122 144.237034,2.75219512 144.218469,2.76585366 C144.198926,2.77853659 143.664429,2.8995122 143.664429,2.93073171 L143.664429,6.98926829 C143.664429,7.01463415 144.198926,7.13560976 144.218469,7.15414634 C144.237034,7.17365854 144.237034,7.2995122 144.218469,7.2995122 L142.4772,7.2995122" id="Fill-15" fill="#FFFFFF"></path>
                        <path d="M145.313846,5.40390244 C145.313846,5.40390244 145.30212,5.6195122 145.307983,5.74634146 C145.332411,6.38634146 145.542497,7.01463415 146.254834,7.01463415 C146.597811,7.01463415 146.838189,6.97658537 147.111789,6.85560976 C147.174326,6.85560976 147.174326,6.98926829 147.163577,7.0204878 C146.889977,7.19219512 146.507914,7.38829268 146.012503,7.38829268 C145.092034,7.38829268 144.67284,6.54536585 144.67284,5.74634146 C144.67284,4.89658537 145.111577,3.83707317 146.076994,3.83707317 C146.9916,3.83707317 147.316011,4.52878049 147.316011,5.39707317 L145.313846,5.40390244 L145.313846,5.40390244 Z M146.076994,4.03414634 C145.556177,4.03414634 145.359771,4.73170732 145.340229,5.14926829 L146.775651,5.14926829 L146.781514,4.97853659 C146.781514,4.59902439 146.551886,4.03414634 146.076994,4.03414634 L146.076994,4.03414634 Z" id="Fill-16" fill="#FFFFFF"></path>
                        <path d="M150.405737,6.96390244 C150.159497,7.2302439 149.821406,7.39512195 149.403189,7.39512195 C148.996697,7.39512195 148.65372,7.23609756 148.405526,6.96390244 C148.075251,6.60292683 147.897411,6.03804878 147.897411,5.39121951 C147.897411,4.18634146 148.329309,2.87317073 149.409051,2.6 C149.783297,2.50536585 149.840949,2.49365854 150.241577,2.41756098 C150.367629,2.39121951 150.457526,2.13756098 150.520063,2.04292683 C150.546446,2.00487805 150.672497,2.01073171 150.672497,2.04292683 C150.672497,2.04292683 150.653931,2.91121951 150.604097,2.92390244 C150.443846,2.95609756 149.80284,3.0702439 149.332834,3.20292683 C148.609749,3.41170732 148.381097,3.52585366 148.381097,4.52292683 C148.647857,4.09756098 149.090503,3.93853659 149.434457,3.93853659 C150.361766,3.93853659 150.896263,4.79512195 150.896263,5.65756098 C150.896263,6.13268293 150.724286,6.62829268 150.405737,6.96390244 L150.405737,6.96390244 Z M149.414914,4.17365854 C149.060211,4.17365854 148.798337,4.44 148.65372,4.7697561 C148.55796,4.99804878 148.513989,5.2897561 148.513989,5.58146341 C148.513989,5.9804878 148.590206,6.48195122 148.768046,6.77268293 C148.91364,7.0204878 149.116886,7.17853659 149.403189,7.17853659 C149.676789,7.17853659 149.867331,7.04 149.993383,6.83707317 C150.209331,6.5004878 150.260143,5.99414634 150.260143,5.65756098 C150.260143,5.13073171 150.08328,4.17365854 149.414914,4.17365854 L149.414914,4.17365854 Z" id="Fill-17" fill="#FFFFFF"></path>
                        <path d="M152.205634,5.40390244 C152.205634,5.40390244 152.193909,5.6195122 152.199771,5.74634146 C152.2242,6.38634146 152.434286,7.01463415 153.145646,7.01463415 C153.4896,7.01463415 153.729977,6.97658537 154.0026,6.85560976 C154.066114,6.85560976 154.066114,6.98926829 154.054389,7.0204878 C153.781766,7.19219512 153.399703,7.38829268 152.903314,7.38829268 C151.983823,7.38829268 151.563651,6.54536585 151.563651,5.74634146 C151.563651,4.89658537 152.003366,3.83707317 152.968783,3.83707317 C153.882411,3.83707317 154.2078,4.52878049 154.2078,5.39707317 L152.205634,5.40390244 L152.205634,5.40390244 Z M152.968783,4.03414634 C152.447966,4.03414634 152.25156,4.73170732 152.232017,5.14926829 L153.66744,5.14926829 L153.673303,4.97853659 C153.673303,4.59902439 153.443674,4.03414634 152.968783,4.03414634 L152.968783,4.03414634 Z" id="Fill-18" fill="#FFFFFF"></path>
                        <path d="M157.298503,4.23707317 L157.298503,6.98926829 L157.820297,6.98926829 L157.820297,8.39121951 C157.820297,8.42243902 157.616074,8.43414634 157.610211,8.39121951 C157.585783,8.25756098 157.38156,7.2995122 157.209583,7.2995122 L154.974857,7.2995122 C154.827309,7.2995122 154.598657,8.25756098 154.586931,8.39121951 C154.579114,8.43414634 154.376846,8.42243902 154.376846,8.39121951 L154.376846,6.98926829 L154.81656,6.98926829 C155.06964,6.64780488 155.227937,6.1902439 155.310017,5.75902439 C155.405777,5.25853659 155.405777,4.78829268 155.405777,4.45268293 L155.405777,4.23707317 C155.405777,4.19902439 154.993423,4.11707317 154.840989,4.0595122 C154.808743,4.04585366 154.808743,3.92585366 154.840989,3.92585366 L157.876971,3.92585366 C157.90824,3.92585366 157.90824,4.06536585 157.876971,4.07219512 C157.782189,4.09756098 157.298503,4.19902439 157.298503,4.23707317 L157.298503,4.23707317 Z M156.726874,4.26926829 L155.749731,4.26926829 L155.749731,4.31902439 C155.749731,4.73756098 155.736051,5.29658537 155.634429,5.84097561 C155.558211,6.25268293 155.41164,6.64780488 155.209371,6.98926829 L156.726874,6.98926829 L156.726874,4.26926829 L156.726874,4.26926829 Z" id="Fill-19" fill="#FFFFFF"></path>
                        <path d="M158.877566,5.40390244 C158.877566,5.40390244 158.863886,5.6195122 158.871703,5.74634146 C158.896131,6.38634146 159.106217,7.01463415 159.8166,7.01463415 C160.159577,7.01463415 160.401909,6.97658537 160.675509,6.85560976 C160.738046,6.85560976 160.738046,6.98926829 160.724366,7.0204878 C160.451743,7.19219512 160.071634,7.38829268 159.576223,7.38829268 C158.6538,7.38829268 158.23656,6.54536585 158.23656,5.74634146 C158.23656,4.89658537 158.673343,3.83707317 159.63876,3.83707317 C160.553366,3.83707317 160.877777,4.52878049 160.877777,5.39707317 L158.877566,5.40390244 L158.877566,5.40390244 Z M159.63876,4.03414634 C159.117943,4.03414634 158.921537,4.73170732 158.901994,5.14926829 L160.337417,5.14926829 L160.345234,4.97853659 C160.345234,4.59902439 160.115606,4.03414634 159.63876,4.03414634 L159.63876,4.03414634 Z" id="Fill-20" fill="#FFFFFF"></path>
                        <path d="M162.922937,7.2995122 L161.278406,7.2995122 C161.240297,7.2995122 161.240297,7.16682927 161.278406,7.15414634 C161.400549,7.12195122 161.843194,7.02731707 161.843194,6.98243902 L161.843194,4.24292683 C161.843194,4.19902439 161.474811,4.14829268 161.272543,4.09756098 C161.253,4.09756098 161.240297,4.0595122 161.240297,4.02731707 C161.240297,3.98926829 161.247137,3.95121951 161.26668,3.95121951 C161.755251,3.93170732 162.467589,3.89365854 162.980589,3.89365854 C163.648954,3.89365854 164.142411,4.1102439 164.142411,4.68097561 C164.142411,5.18731707 163.705629,5.4604878 163.234646,5.49268293 C163.705629,5.54341463 164.339794,5.7404878 164.339794,6.33560976 C164.339794,7.09170732 163.545377,7.2995122 162.922937,7.2995122 L162.922937,7.2995122 Z M162.930754,4.12292683 C162.808611,4.12292683 162.606343,4.14146341 162.4158,4.19317073 L162.4158,5.40390244 L162.674743,5.40390244 C163.171131,5.40390244 163.539514,5.18731707 163.539514,4.72487805 C163.539514,4.28097561 163.261029,4.12292683 162.930754,4.12292683 L162.930754,4.12292683 Z M162.740211,5.65073171 L162.4158,5.65073171 L162.4158,6.98926829 C162.549669,7.04 162.822291,7.05853659 162.922937,7.05853659 C163.375354,7.05853659 163.725171,6.81756098 163.725171,6.33560976 C163.725171,5.8097561 163.343109,5.65073171 162.740211,5.65073171 L162.740211,5.65073171 Z" id="Fill-21" fill="#FFFFFF"></path>
                        <path d="M166.864731,7.35707317 L166.788514,6.8497561 C166.56084,7.17365854 166.274537,7.38829268 165.873909,7.38829268 C165.271011,7.38829268 164.9466,6.98926829 164.9466,6.40487805 C164.9466,5.42341463 165.969669,5.28292683 166.788514,5.28292683 L166.788514,5.16292683 C166.788514,4.46536585 166.73868,4.03414634 166.212,4.03414634 C165.639394,4.03414634 165.791829,4.56682927 165.4938,4.56682927 C165.365794,4.56682927 165.181114,4.52292683 165.143006,4.46536585 C165.104897,4.40878049 165.093171,4.09756098 165.123463,4.07902439 C165.156686,4.0595122 165.525069,3.83707317 166.192457,3.83707317 C167.068954,3.83707317 167.360143,4.29365854 167.360143,5.02341463 L167.360143,6.86829268 C167.431474,6.97658537 167.881937,6.97073171 167.900503,6.98243902 C167.920046,6.99609756 167.938611,7.10243902 167.914183,7.1297561 L166.864731,7.35707317 L166.864731,7.35707317 Z M166.788514,5.6 C166.705457,5.57463415 166.591131,5.56878049 166.496349,5.56878049 C165.900291,5.56878049 165.529954,5.76487805 165.529954,6.36195122 C165.529954,6.65853659 165.677503,7.05268293 166.058589,7.05268293 C166.356617,7.05268293 166.610674,6.83707317 166.788514,6.55804878 L166.788514,5.6 L166.788514,5.6 Z" id="Fill-22" fill="#FFFFFF"></path>
                        <path d="M85.3202057,11.6507317 L147.464537,11.6507317 L147.464537,20.7765854 L85.3202057,20.7765854 L85.3202057,11.6507317 Z" id="Fill-23" fill="#D9222A"></path>
                        <path d="M90.3534686,18.3453659 C90.3280629,18.3453659 90.31536,18.2253659 90.3534686,18.1990244 C90.3778971,18.1804878 90.9827486,18.0595122 90.9700457,18.0273171 L90.5879829,16.8107317 L89.2424571,16.8107317 L88.8281486,18.0341463 C88.8222857,18.0536585 89.4007543,18.1873171 89.42616,18.1990244 C89.4525429,18.2117073 89.4447257,18.3453659 89.42616,18.3453659 L88.0288457,18.3453659 C88.00344,18.3453659 88.00344,18.2117073 88.0288457,18.1990244 C88.0610914,18.1873171 88.5115543,18.0536585 88.5174171,18.0341463 L90.0173314,13.5560976 L90.2078743,13.5560976 L91.63548,18.0341463 C91.6432971,18.0595122 92.1260057,18.1804878 92.1572743,18.1990244 C92.18952,18.2185366 92.18952,18.3453659 92.1572743,18.3453659 L90.3534686,18.3453659 L90.3534686,18.3453659 Z M89.9332971,14.7356098 L89.3304,16.5443902 L90.5059029,16.5443902 L89.9332971,14.7356098 L89.9332971,14.7356098 Z" id="Fill-24" fill="#FFFFFF"></path>
                        <path d="M95.0994514,15.3073171 C95.0994514,15.364878 95.0916343,15.422439 95.0808857,15.4468293 C95.04864,15.4985366 94.8629829,15.5990244 94.7046857,15.5990244 C94.4887371,15.5990244 94.6030629,15.2692683 94.3245771,15.2692683 C94.14576,15.2692683 94.0001657,15.364878 93.8917029,15.5170732 C93.6894343,15.8019512 93.5936743,16.2721951 93.5936743,16.4995122 L93.5936743,18.0341463 C93.5936743,18.084878 94.2864686,18.1873171 94.31676,18.1990244 C94.3499829,18.2117073 94.34412,18.3453659 94.31676,18.3453659 L92.45628,18.3453659 C92.4240343,18.3453659 92.4318514,18.2117073 92.45628,18.1990244 C92.4807086,18.1873171 93.0210686,18.084878 93.0210686,18.0341463 L93.0210686,15.3453659 C93.0210686,15.3073171 92.4758229,15.1229268 92.45628,15.1170732 C92.4377143,15.1112195 92.4318514,14.9717073 92.45628,14.9717073 L93.42756,14.9717073 L93.5497029,15.6312195 C93.6376457,15.4536585 93.7334057,15.3014634 93.8614114,15.1804878 C94.06368,14.9834146 94.3245771,14.8829268 94.5981771,14.8829268 C94.7945829,14.8829268 95.0095543,14.9970732 95.0672057,15.0790244 C95.0857714,15.1112195 95.0994514,15.2185366 95.0994514,15.3073171" id="Fill-25" fill="#FFFFFF"></path>
                        <path d="M96.5309657,15.32 L96.5309657,17.5902439 C96.5309657,17.8126829 96.5935029,18.1043902 96.8671029,18.1043902 C97.0449429,18.1043902 97.2296229,18.0341463 97.3937829,17.9580488 C97.4318914,17.9395122 97.4504571,18.084878 97.4201657,18.1112195 C97.2354857,18.2439024 96.9237771,18.4331707 96.5886171,18.4331707 C96.3023143,18.4331707 95.9524971,18.3014634 95.9524971,17.7931707 L95.9524971,15.3014634 L95.4942171,15.2243902 C95.4815143,15.2243902 95.4619714,15.1482927 95.4619714,15.084878 C95.4619714,15.0282927 95.4815143,14.9717073 95.4942171,14.9717073 L95.9524971,14.9717073 L96.4352057,14.0331707 L96.5309657,14.0331707 L96.5309657,14.9717073 L97.5901886,14.9717073 C97.6224343,14.9717073 97.6165714,15.1229268 97.5901886,15.1365854 C97.5276514,15.1678049 96.5309657,15.32 96.5309657,15.32" id="Fill-26" fill="#FFFFFF"></path>
                        <path d="M98.3552914,18.4331707 C98.1344571,18.4331707 97.9488,18.2497561 97.9488,18.0273171 C97.9488,17.8058537 98.1344571,17.622439 98.3552914,17.622439 C98.5790571,17.622439 98.7617829,17.8058537 98.7617829,18.0273171 C98.7617829,18.2497561 98.5790571,18.4331707 98.3552914,18.4331707" id="Fill-27" fill="#FFFFFF"></path>
                        <path d="M103.626977,18.3453659 L100.579269,18.3453659 C100.551909,18.3453659 100.551909,18.2058537 100.579269,18.1990244 C100.641806,18.1804878 101.144057,18.0595122 101.144057,18.0341463 L101.144057,13.9687805 C101.144057,13.9502439 100.653531,13.8234146 100.628126,13.8107317 C100.603697,13.7990244 100.603697,13.6653659 100.628126,13.6653659 L102.287314,13.6653659 C102.317606,13.6653659 102.311743,13.7921951 102.287314,13.8107317 C102.267771,13.8234146 101.7792,13.9502439 101.7792,13.9687805 L101.7792,18.0341463 L103.19508,18.097561 C103.244914,18.0663415 103.525354,17.1717073 103.55076,17.1141463 C103.563463,17.102439 103.607434,17.0897561 103.645543,17.0897561 C103.678766,17.0897561 103.716874,17.0946341 103.716874,17.1141463 L103.626977,18.3453659" id="Fill-28" fill="#FFFFFF"></path>
                        <path d="M104.770234,16.4487805 C104.770234,16.4487805 104.764371,16.5882927 104.764371,16.7082927 L104.764371,16.7912195 C104.7888,17.4321951 104.998886,18.0595122 105.711223,18.0595122 C106.0542,18.0595122 106.294577,18.0214634 106.5672,17.9014634 C106.624851,17.9014634 106.66296,18.0468293 106.630714,18.0595122 C106.352229,18.2253659 105.964303,18.4331707 105.467914,18.4331707 C104.548423,18.4331707 104.129229,17.5902439 104.129229,16.7912195 C104.129229,15.942439 104.567966,14.8829268 105.533383,14.8829268 C106.447989,14.8829268 106.7724,15.5736585 106.7724,16.4419512 L104.770234,16.4487805 L104.770234,16.4487805 Z M105.533383,15.0790244 C105.012566,15.0790244 104.81616,15.7765854 104.796617,16.1960976 L106.23204,16.1960976 L106.237903,16.0243902 C106.237903,15.6429268 106.008274,15.0790244 105.533383,15.0790244 L105.533383,15.0790244 Z" id="Fill-29" fill="#FFFFFF"></path>
                        <path d="M109.832811,17.9395122 C109.541623,18.2439024 109.147834,18.4331707 108.684669,18.4331707 C108.220526,18.4331707 107.806217,18.1990244 107.489623,17.9258537 L107.489623,13.8478049 C107.489623,13.7414634 107.045023,13.6770732 107.006914,13.6770732 C106.968806,13.6770732 106.974669,13.5317073 107.006914,13.5317073 L108.060274,13.355122 L108.060274,15.3512195 C108.378823,15.0478049 108.689554,14.8760976 109.0638,14.8760976 C109.407754,14.8760976 109.674514,14.9970732 109.8846,15.1931707 C110.207057,15.4985366 110.359491,15.9921951 110.359491,16.4868293 C110.359491,17.057561 110.168949,17.5834146 109.832811,17.9395122 L109.832811,17.9395122 Z M108.867394,15.1931707 C108.5508,15.1931707 108.244954,15.4536585 108.060274,15.6565854 L108.060274,17.977561 C108.206846,18.0721951 108.466766,18.1492683 108.684669,18.1492683 C109.566051,18.1492683 109.724349,17.1463415 109.724349,16.5307317 C109.724349,15.9482927 109.503514,15.1931707 108.867394,15.1931707 L108.867394,15.1931707 Z" id="Fill-30" fill="#FFFFFF"></path>
                        <path d="M111.64248,16.4487805 C111.64248,16.4487805 111.636617,16.5882927 111.636617,16.7082927 L111.636617,16.7912195 C111.661046,17.4321951 111.871131,18.0595122 112.583469,18.0595122 C112.926446,18.0595122 113.1678,18.0214634 113.440423,17.9014634 C113.497097,17.9014634 113.535206,18.0468293 113.50296,18.0595122 C113.224474,18.2253659 112.837526,18.4331707 112.341137,18.4331707 C111.420669,18.4331707 111.001474,17.5902439 111.001474,16.7912195 C111.001474,15.942439 111.440211,14.8829268 112.405629,14.8829268 C113.320234,14.8829268 113.644646,15.5736585 113.644646,16.4419512 L111.64248,16.4487805 L111.64248,16.4487805 Z M112.405629,15.0790244 C111.884811,15.0790244 111.688406,15.7765854 111.668863,16.1960976 L113.104286,16.1960976 L113.110149,16.0243902 C113.110149,15.6429268 112.881497,15.0790244 112.405629,15.0790244 L112.405629,15.0790244 Z" id="Fill-31" fill="#FFFFFF"></path>
                        <path d="M116.62884,18.4019512 L116.495949,17.857561 C116.260457,18.1804878 115.887189,18.4331707 115.453337,18.4331707 C115.207097,18.4331707 114.954017,18.3453659 114.755657,18.1921951 C114.343303,17.857561 114.14592,17.235122 114.14592,16.7843902 C114.14592,16.1512195 114.267086,15.5092683 114.792789,15.1170732 C114.984309,14.9717073 115.256931,14.8760976 115.510989,14.8760976 C115.91748,14.8760976 116.192057,15.0165854 116.45784,15.2887805 L116.45784,13.8234146 C116.45784,13.7609756 116.001514,13.6965854 115.93116,13.6770732 C115.897937,13.6712195 115.892074,13.537561 115.93116,13.5317073 L117.030446,13.355122 L117.030446,17.8380488 C117.030446,17.8956098 117.411531,17.9453659 117.562989,17.9453659 C117.589371,17.9453659 117.601097,18.0917073 117.575691,18.0917073 L116.62884,18.4019512 L116.62884,18.4019512 Z M116.45784,15.6312195 C116.255571,15.3395122 115.911617,15.1931707 115.613589,15.1931707 C115.398617,15.1931707 115.188531,15.3131707 115.066389,15.4790244 C114.831874,15.7902439 114.762497,16.2204878 114.762497,16.595122 C114.762497,16.9502439 114.826011,17.4136585 114.997989,17.7102439 C115.136743,17.9580488 115.3224,18.0917073 115.613589,18.0917073 C115.943863,18.0917073 116.304429,17.755122 116.45784,17.444878 L116.45784,15.6312195 L116.45784,15.6312195 Z" id="Fill-32" fill="#FFFFFF"></path>
                        <path d="M118.560651,16.4487805 C118.560651,16.4487805 118.554789,16.5882927 118.554789,16.7082927 L118.554789,16.7912195 C118.579217,17.4321951 118.789303,18.0595122 119.50164,18.0595122 C119.844617,18.0595122 120.085971,18.0214634 120.358594,17.9014634 C120.415269,17.9014634 120.454354,18.0468293 120.421131,18.0595122 C120.142646,18.2253659 119.755697,18.4331707 119.259309,18.4331707 C118.33884,18.4331707 117.919646,17.5902439 117.919646,16.7912195 C117.919646,15.942439 118.358383,14.8829268 119.3238,14.8829268 C120.238406,14.8829268 120.562817,15.5736585 120.562817,16.4419512 L118.560651,16.4487805 L118.560651,16.4487805 Z M119.3238,15.0790244 C118.802983,15.0790244 118.606577,15.7765854 118.587034,16.1960976 L120.022457,16.1960976 L120.02832,16.0243902 C120.02832,15.6429268 119.799669,15.0790244 119.3238,15.0790244 L119.3238,15.0790244 Z" id="Fill-33" fill="#FFFFFF"></path>
                        <path d="M123.702377,15.2819512 L122.526874,18.4331707 L122.354897,18.4331707 L121.205777,15.2819512 C121.187211,15.2370732 120.690823,15.1307317 120.652714,15.1170732 C120.613629,15.1034146 120.621446,14.9717073 120.652714,14.9717073 L122.323629,14.9717073 C122.354897,14.9717073 122.349034,15.1034146 122.323629,15.1170732 C122.297246,15.1307317 121.802811,15.2507317 121.808674,15.2819512 L122.539577,17.2985366 L122.603091,17.4897561 L122.665629,17.2926829 C123.410211,15.2819512 123.410211,15.275122 123.410211,15.275122 C123.410211,15.2243902 122.927503,15.1229268 122.90796,15.1170732 C122.889394,15.1112195 122.881577,14.9717073 122.90796,14.9717073 L124.253486,14.9717073 C124.280846,14.9717073 124.285731,15.1034146 124.253486,15.1170732 C124.223194,15.1307317 123.713126,15.2185366 123.702377,15.2819512" id="Fill-34" fill="#FFFFFF"></path>
                        <path d="M127.124331,18.4526829 C126.750086,18.4526829 126.324051,18.3697561 125.987914,18.2185366 L125.898994,16.9882927 C125.93124,16.9629268 125.993777,16.924878 126.031886,16.924878 C126.291806,16.924878 126.237086,18.1873171 127.124331,18.1873171 C127.7028,18.1873171 128.173783,17.8126829 128.173783,17.2478049 C128.173783,16.0107317 125.898994,16.3726829 125.898994,14.8565854 C125.898994,14.0829268 126.559543,13.5560976 127.314874,13.5560976 C127.683257,13.5560976 128.05164,13.6331707 128.389731,13.7853659 L128.515783,14.7307317 C128.484514,14.755122 128.420023,14.7931707 128.376051,14.7931707 C128.1474,14.7931707 128.089749,13.8234146 127.314874,13.8234146 C126.774514,13.8234146 126.45792,14.16 126.45792,14.6419512 C126.45792,15.7453659 128.724891,15.4282927 128.724891,17.0390244 C128.724891,17.9521951 127.993989,18.4526829 127.124331,18.4526829" id="Fill-35" fill="#FFFFFF"></path>
                        <path d="M130.270731,15.32 L130.270731,17.5902439 C130.270731,17.8126829 130.334246,18.1043902 130.606869,18.1043902 C130.784709,18.1043902 130.969389,18.0341463 131.133549,17.9580488 C131.171657,17.9395122 131.1912,18.084878 131.158954,18.1112195 C130.975251,18.2439024 130.66452,18.4331707 130.328383,18.4331707 C130.04208,18.4331707 129.69324,18.3014634 129.69324,17.7931707 L129.69324,15.3014634 L129.23496,15.2243902 C129.22128,15.2243902 129.202714,15.1482927 129.202714,15.084878 C129.202714,15.0282927 129.22128,14.9717073 129.23496,14.9717073 L129.69324,14.9717073 L130.175949,14.0331707 L130.270731,14.0331707 L130.270731,14.9717073 L131.329954,14.9717073 C131.3622,14.9717073 131.357314,15.1229268 131.329954,15.1365854 C131.267417,15.1678049 130.270731,15.32 130.270731,15.32" id="Fill-36" fill="#FFFFFF"></path>
                        <path d="M134.475377,18.4331707 L134.328806,17.8058537 C134.03664,18.0663415 133.553931,18.4331707 133.078063,18.4331707 C132.639326,18.4331707 132.26508,18.1043902 132.26508,17.6341463 L132.26508,15.3707317 C132.26508,15.2887805 131.712017,15.1931707 131.687589,15.1863415 C131.6358,15.1746341 131.654366,15.0409756 131.687589,15.0409756 L132.835731,14.8887805 L132.835731,17.3560976 C132.835731,17.7746341 133.032137,18.0087805 133.362411,18.0087805 C133.668257,18.0087805 134.074749,17.7297561 134.298514,17.5336585 L134.298514,15.3707317 C134.298514,15.2946341 133.768903,15.1990244 133.712229,15.1863415 C133.6878,15.1804878 133.681937,15.0478049 133.712229,15.0409756 L134.868189,14.8887805 L134.868189,17.9063415 C134.863303,17.9580488 135.37044,18.0156098 135.408549,18.0214634 C135.422229,18.0214634 135.428091,18.0536585 135.428091,18.0917073 C135.428091,18.1229268 135.422229,18.1541463 135.408549,18.1541463 L134.475377,18.4331707" id="Fill-37" fill="#FFFFFF"></path>
                        <path d="M138.210017,18.4019512 L138.077126,17.857561 C137.841634,18.1804878 137.468366,18.4331707 137.034514,18.4331707 C136.788274,18.4331707 136.534217,18.3453659 136.335857,18.1921951 C135.923503,17.857561 135.727097,17.235122 135.727097,16.7843902 C135.727097,16.1512195 135.847286,15.5092683 136.374943,15.1170732 C136.565486,14.9717073 136.838109,14.8760976 137.092166,14.8760976 C137.498657,14.8760976 137.773234,15.0165854 138.039017,15.2887805 L138.039017,13.8234146 C138.039017,13.7609756 137.582691,13.6965854 137.51136,13.6770732 C137.479114,13.6712195 137.474229,13.537561 137.51136,13.5317073 L138.610646,13.355122 L138.610646,17.8380488 C138.610646,17.8956098 138.992709,17.9453659 139.143189,17.9453659 C139.170549,17.9453659 139.182274,18.0917073 139.156869,18.0917073 L138.210017,18.4019512 L138.210017,18.4019512 Z M138.039017,15.6312195 C137.835771,15.3395122 137.492794,15.1931707 137.194766,15.1931707 C136.97784,15.1931707 136.769709,15.3131707 136.647566,15.4790244 C136.412074,15.7902439 136.343674,16.2204878 136.343674,16.595122 C136.343674,16.9502439 136.407189,17.4136585 136.578189,17.7102439 C136.71792,17.9580488 136.903577,18.0917073 137.194766,18.0917073 C137.52504,18.0917073 137.885606,17.755122 138.039017,17.444878 L138.039017,15.6312195 L138.039017,15.6312195 Z" id="Fill-38" fill="#FFFFFF"></path>
                        <path d="M139.61124,18.3453659 C139.580949,18.3395122 139.573131,18.2117073 139.61124,18.1990244 C139.649349,18.1873171 140.126194,18.0721951 140.126194,18.0341463 L140.126194,15.3326829 C140.126194,15.1990244 139.687457,15.1609756 139.591697,15.142439 C139.553589,15.1365854 139.561406,14.9970732 139.591697,14.9970732 L140.696846,14.8829268 L140.696846,18.0341463 C140.696846,18.0721951 141.275314,18.1804878 141.30756,18.1990244 C141.338829,18.2185366 141.338829,18.3395122 141.30756,18.3453659 L139.61124,18.3453659 L139.61124,18.3453659 Z M140.412497,14.2360976 C140.189709,14.2360976 140.006006,14.0517073 140.006006,13.8302439 C140.006006,13.6078049 140.189709,13.4243902 140.412497,13.4243902 C140.634309,13.4243902 140.818989,13.6078049 140.818989,13.8302439 C140.818989,14.0517073 140.634309,14.2360976 140.412497,14.2360976 L140.412497,14.2360976 Z" id="Fill-39" fill="#FFFFFF"></path>
                        <path d="M144.13248,18.04 C143.890149,18.2878049 143.559874,18.44 143.13384,18.44 C142.842651,18.44 142.588594,18.3697561 142.384371,18.2439024 C141.865509,17.92 141.6222,17.2536585 141.6222,16.64 C141.6222,16.1317073 141.781474,15.6370732 142.118589,15.2946341 C142.359943,15.0409756 142.70292,14.8760976 143.13384,14.8760976 C143.491474,14.8760976 143.775823,14.9717073 144.004474,15.1482927 C144.436371,15.484878 144.64548,16.075122 144.64548,16.64 C144.64548,17.1521951 144.48132,17.6917073 144.13248,18.04 L144.13248,18.04 Z M143.128954,15.0926829 C142.88076,15.0926829 142.695103,15.1931707 142.563189,15.3580488 C142.32672,15.6565854 142.25832,16.1570732 142.25832,16.64 C142.25832,17.3873171 142.441046,18.2253659 143.128954,18.2253659 C143.813931,18.2253659 144.010337,17.3873171 144.010337,16.64 C144.010337,15.8907317 143.813931,15.0926829 143.128954,15.0926829 L143.128954,15.0926829 Z" id="Fill-40" fill="#FFFFFF"></path>
                        <path d="M0.484662857,11.6507317 L83.5799143,11.6507317 L83.5799143,39.3063415 L0.484662857,39.3063415 L0.484662857,11.6507317 Z" id="Fill-41" fill="#D9222A"></path>
                        <path d="M71.8385657,14.417561 L71.8385657,31.0185366 L70.3728514,35.4097561 L68.9325429,31.0185366 L68.9325429,14.417561 L67.2401314,14.417561 L67.2401314,31.0185366 L69.1826914,36.5609756 L71.0119029,36.5609756 L72.9788914,31.0185366 L72.9788914,14.417561 L71.8385657,14.417561" id="Fill-42" fill="#FFFFFF"></path>
                        <path d="M46.2159257,31.0439024 L46.2159257,14.417561 L44.9124171,14.417561 L44.9124171,30.9053659 C44.5117886,30.9678049 44.0603486,31.0692683 43.8102,31.1941463 L43.8102,14.417561 L42.2819486,14.417561 L42.2819486,35.7843902 C43.0206686,36.3473171 44.0857543,36.6360976 44.7873429,36.6360976 C46.8549771,36.6360976 47.7822857,35.16 47.7822857,33.6458537 C47.7822857,32.444878 47.3308457,31.444878 46.2159257,31.0439024 L46.2159257,31.0439024 Z M44.7003771,35.7482927 C44.39844,35.7482927 44.02224,35.6721951 43.8102,35.5473171 L43.8102,32.0556098 C44.0603486,31.8926829 44.4863829,31.7570732 44.9006914,31.7570732 C45.75276,31.7570732 46.2667371,32.6321951 46.2667371,33.6204878 C46.2667371,34.96 45.7263771,35.7482927 44.7003771,35.7482927 L44.7003771,35.7482927 Z" id="Fill-43" fill="#FFFFFF"></path>
                        <path d="M39.5000229,31.0936585 L39.5000229,14.417561 L36.9184114,14.417561 L36.9184114,31.1941463 C35.8787314,31.7687805 35.4781029,32.92 35.4781029,33.8712195 C35.4781029,35.2985366 36.2666571,36.6360976 38.2473257,36.6360976 C39.1492286,36.6360976 40.0267029,36.3726829 40.8162343,35.835122 L40.4771657,35.2595122 C40.0012971,35.484878 39.1990629,35.7736585 38.4847714,35.7736585 C37.6082743,35.7736585 36.9936514,35.3346341 36.9438171,34.0458537 L40.9159029,34.0458537 L40.9159029,33.8839024 C40.9159029,32.6956098 40.6149429,31.582439 39.5000229,31.0936585 L39.5000229,31.0936585 Z M36.9819257,33.2458537 C36.9819257,32.5073171 37.4832,31.7434146 38.3342914,31.7434146 C39.1492286,31.7434146 39.4619143,32.395122 39.4619143,33.2458537 L36.9819257,33.2458537 L36.9819257,33.2458537 Z" id="Fill-44" fill="#FFFFFF"></path>
                        <path d="M52.5312,31.0936585 L52.5312,14.417561 L49.9495886,14.417561 L49.9495886,31.1941463 C48.9089314,31.7687805 48.5083029,32.92 48.5083029,33.8712195 C48.5083029,35.2985366 49.2978343,36.6360976 51.2785029,36.6360976 C52.1804057,36.6360976 53.0569029,36.3726829 53.8464343,35.835122 L53.5073657,35.2595122 C53.0314971,35.484878 52.23024,35.7736585 51.5159486,35.7736585 C50.6384743,35.7736585 50.0248286,35.3346341 49.9749943,34.0458537 L53.9461029,34.0458537 L53.9461029,33.8839024 C53.9461029,32.6956098 53.64612,31.582439 52.5312,31.0936585 L52.5312,31.0936585 Z M50.0121257,33.2458537 C50.0121257,32.5073171 50.5134,31.7434146 51.3654686,31.7434146 C52.1804057,31.7434146 52.4930914,32.395122 52.4930914,33.2458537 L50.0121257,33.2458537 L50.0121257,33.2458537 Z" id="Fill-45" fill="#FFFFFF"></path>
                        <path d="M58.9461429,31.257561 C58.70772,31.0936585 58.1566114,30.9678049 57.8429486,30.9443902 L57.8429486,14.417561 L56.4651771,14.417561 L56.4651771,31.0936585 C55.3619829,31.582439 54.8734114,32.6956098 54.8734114,33.9082927 C54.8734114,35.4478049 55.6883486,36.6360976 57.1042286,36.6360976 C57.7804114,36.6360976 58.4937257,36.3473171 58.8826286,35.6721951 L58.9705714,35.6721951 L59.1093257,36.484878 L60.4362857,36.484878 L60.4362857,14.417561 L58.9461429,14.417561 L58.9461429,31.257561 L58.9461429,31.257561 Z M58.9461429,34.7463415 C58.6569086,35.2478049 58.0569429,35.6721951 57.5800971,35.6721951 C56.5648457,35.6721951 56.4143657,34.5834146 56.4143657,33.7834146 C56.4143657,32.595122 56.9039143,31.7570732 57.89376,31.7570732 C58.2807086,31.7570732 58.5826457,31.9570732 58.9461429,32.244878 L58.9461429,34.7463415 L58.9461429,34.7463415 Z" id="Fill-46" fill="#FFFFFF"></path>
                        <path d="M65.2731429,31.0936585 L65.2731429,14.417561 L62.6915314,14.417561 L62.6915314,31.1941463 C61.6518514,31.7687805 61.2522,32.92 61.2522,33.8712195 C61.2522,35.2985366 62.0407543,36.6360976 64.0204457,36.6360976 C64.9223486,36.6360976 65.7988457,36.3726829 66.5893543,35.835122 L66.2512629,35.2595122 C65.7744171,35.484878 64.97316,35.7736585 64.2588686,35.7736585 C63.3804171,35.7736585 62.7677486,35.3346341 62.7179143,34.0458537 L66.6890229,34.0458537 L66.6890229,33.8839024 C66.6890229,32.6956098 66.3880629,31.582439 65.2731429,31.0936585 L65.2731429,31.0936585 Z M62.7550457,33.2458537 C62.7550457,32.5073171 63.25632,31.7434146 64.1074114,31.7434146 C64.9223486,31.7434146 65.2360114,32.395122 65.2360114,33.2458537 L62.7550457,33.2458537 L62.7550457,33.2458537 Z" id="Fill-47" fill="#FFFFFF"></path>
                        <path d="M25.0285371,14.417561 L23.4866057,14.417561 L23.4866057,31.0185366 L22.73616,31.0185366 L22.73616,31.8819512 L23.4866057,31.8819512 L23.4866057,35.4478049 C23.5374171,36.36 24.0513943,36.6360976 24.9161657,36.6360976 C25.5171086,36.6360976 26.1932914,36.3990244 26.6193257,36.0604878 L26.3936057,35.4478049 C26.1678857,35.56 25.8170914,35.7102439 25.5044057,35.7102439 C25.25328,35.7102439 25.0285371,35.5717073 25.0285371,35.0721951 L25.0285371,31.8819512 L26.8069371,31.7570732 L26.8069371,31.0185366 L25.0285371,31.0185366 L25.0285371,14.417561" id="Fill-48" fill="#FFFFFF"></path>
                        <path d="M20.9304,30.8809756 C19.9034229,30.8809756 19.3894457,31.8556098 19.07676,32.5570732 L18.9888171,32.5570732 C18.9888171,32.5570732 19.3142057,31.444878 19.4021486,29.7795122 L19.4021486,14.417561 L17.8357886,14.417561 L17.8357886,36.484878 L19.3269086,36.484878 L19.3269086,33.9453659 C19.3269086,32.9941463 20.0539029,32.1697561 20.9059714,32.1697561 C21.1932514,32.1697561 21.4824857,32.244878 21.7824686,32.395122 L21.7824686,14.417561 L20.9304,14.417561 L20.9304,30.8809756" id="Fill-49" fill="#FFFFFF"></path>
                        <path d="M16.4961257,33.1707317 C16.4961257,32.1112195 16.1121086,31.4985366 15.4926,31.1756098 L15.4926,14.417561 L12.9363943,14.417561 L12.9363943,30.9629268 C12.49668,31.0458537 12.0618514,31.182439 11.6465657,31.3697561 L11.9592514,32.2321951 C12.3862629,32.0556098 13.2383314,31.8068293 13.851,31.8068293 C14.67864,31.8068293 14.9796,32.2956098 14.9796,33.0321951 C14.75388,32.9941463 14.4910286,32.9707317 14.2027714,32.9707317 C12.9246686,32.9707317 11.2830686,33.4585366 11.2830686,34.96 C11.2830686,35.9112195 11.9592514,36.6234146 13.2383314,36.6234146 C13.9018114,36.6234146 14.5154571,36.2234146 15.0167314,35.6107317 C15.0284571,35.96 15.1046743,36.3229268 15.1799143,36.6360976 C15.6802114,36.5492683 16.1570571,36.4487805 16.6710343,36.3726829 C16.5957943,36.097561 16.5195771,35.8214634 16.4961257,35.5219512 L16.4961257,33.1707317 L16.4961257,33.1707317 Z M14.9796,34.8468293 C14.7294514,35.2721951 14.1402343,35.6721951 13.6008514,35.6721951 C13.1748171,35.6721951 12.7741886,35.4478049 12.7624629,34.8331707 C12.7868914,33.9209756 13.6887943,33.6585366 14.5154571,33.6585366 C14.67864,33.6585366 14.82912,33.6721951 14.9796,33.6819512 L14.9796,34.8468293 L14.9796,34.8468293 Z" id="Fill-50" fill="#FFFFFF"></path>
                        <path d="M32.7958457,14.417561 L34.3123714,14.417561 L34.3123714,36.484878 L32.7958457,36.484878 L32.7958457,14.417561 Z" id="Fill-51" fill="#FFFFFF"></path>
                        <path d="M28.4358343,34.822439 C27.8847257,34.822439 27.4713943,35.2097561 27.4713943,35.684878 C27.4713943,36.1863415 27.8847257,36.5492683 28.4358343,36.5492683 C28.9869429,36.5492683 29.4012514,36.1863415 29.4012514,35.684878 C29.4012514,35.2097561 28.9869429,34.822439 28.4358343,34.822439" id="Fill-52" fill="#FFFFFF"></path>
                    </g>
                </g>
            </g>
        </g>
    </g>
</svg>