<?xml version="1.0" encoding="UTF-8" standalone="no"?>
<svg width="69px" height="50px" viewBox="0 0 69 50" version="1.1" xmlns="http://www.w3.org/2000/svg" xmlns:xlink="http://www.w3.org/1999/xlink" xmlns:sketch="http://www.bohemiancoding.com/sketch/ns">
    <!-- Generator: Sketch 3.2.2 (9983) - http://www.bohemiancoding.com/sketch -->
    <title>IKRA</title>
    <desc>Created with Sketch.</desc>
    <defs></defs>
    <g id="Page-1" stroke="none" stroke-width="1" fill="none" fill-rule="evenodd" sketch:type="MSPage">
        <g id="О-чемпионате-(дизайн)" sketch:type="MSArtboardGroup" transform="translate(-843.000000, -6323.000000)" fill="#EF4E51">
            <g id="6_block" sketch:type="MSLayerGroup" transform="translate(0.000000, 5999.000000)">
                <g id="logo" transform="translate(569.000000, 324.000000)" sketch:type="MSShapeGroup">
                    <g id="IKRA" transform="translate(274.000000, 0.000000)">
                        <path d="M0.0461393939,20.4981944 L2.38433333,20.4981944 L2.38433333,24.9448611 C2.38433333,25.5438889 2.27755758,26.5688889 2.27755758,26.5688889 L2.30432121,26.5688889 C2.30432121,26.5688889 2.73184242,25.5705556 3.10583636,24.9448611 L5.75139394,20.4981944 L8.11649091,20.4981944 L8.11649091,30.0172222 L5.77829697,30.0172222 L5.77829697,25.5838889 C5.77829697,24.9848611 5.88521212,23.9593056 5.88521212,23.9593056 L5.85830909,23.9593056 C5.85830909,23.9593056 5.43078788,24.9581944 5.05679394,25.5838889 L2.39785455,30.0172222 L0.0461393939,30.0172222 L0.0461393939,20.4981944" id="Fill-1"></path>
                        <path d="M20.3275394,20.5408333 L22.6658727,20.5408333 L22.6658727,24.2148611 L23.6279697,24.2148611 L25.6052727,20.5408333 L28.1175697,20.5408333 L25.5386424,25.0936111 L25.5386424,25.1204167 L28.2643515,30.0598611 L25.6455576,30.0598611 L23.6279697,26.19875 L22.6658727,26.19875 L22.6658727,30.0598611 L20.3275394,30.0598611 L20.3275394,20.5408333" id="Fill-2"></path>
                        <path d="M63.2119455,20.5904167 L65.6701576,20.5904167 L68.9172,30.1094444 L66.5125152,30.1094444 L65.9241333,28.1120833 L62.9444485,28.1120833 L62.3701455,30.1094444 L59.9647636,30.1094444 L63.2119455,20.5904167 L63.2119455,20.5904167 Z M65.3765939,26.2484722 L64.8417394,24.3980556 C64.6681939,23.7990278 64.4543636,22.7606944 64.4543636,22.7606944 L64.4276,22.7606944 C64.4276,22.7606944 64.2137697,23.7990278 64.0402242,24.3980556 L63.4926848,26.2484722 L65.3765939,26.2484722 L65.3765939,26.2484722 Z" id="Fill-3"></path>
                        <path d="M40.7395515,20.6311111 L44.7078182,20.6311111 C46.5648242,20.6311111 47.8207636,21.98875 47.8207636,23.9058333 C47.8207636,25.8230556 46.5648242,27.2079167 44.7078182,27.2079167 L43.0778848,27.2079167 L43.0778848,30.1501389 L40.7395515,30.1501389 L40.7395515,20.6311111 L40.7395515,20.6311111 Z M44.2264909,25.2106944 C45.0415273,25.2106944 45.4429818,24.6651389 45.4429818,23.9058333 C45.4429818,23.1472222 45.0415273,22.6277778 44.2667758,22.6277778 L43.0778848,22.6277778 L43.0778848,25.2106944 L44.2264909,25.2106944 L44.2264909,25.2106944 Z" id="Fill-4"></path>
                        <path d="M2.77853939,0.0409722222 L5.11687273,0.0409722222 L5.11687273,9.56 L2.77853939,9.56 L2.77853939,0.0409722222 Z" id="Fill-5"></path>
                        <path d="M40.2405212,0.0406944444 L43.5679939,0.0406944444 C44.5430545,0.0406944444 45.0108606,0.106805556 45.425,0.267083333 C46.5073939,0.679722222 47.1890303,1.65125 47.1890303,3.03625 C47.1890303,4.04791667 46.7078424,5.15305556 45.7595455,5.63180556 L45.7595455,5.65861111 C45.7595455,5.65861111 45.8928061,5.83222222 46.1200182,6.23152778 L47.9771636,9.55958333 L45.3714727,9.55958333 L43.6744909,6.35111111 L42.5788545,6.35111111 L42.5788545,9.55958333 L40.2405212,9.55958333 L40.2405212,0.0406944444 L40.2405212,0.0406944444 Z M43.5947576,4.35375 C44.3427455,4.35375 44.8105515,3.94111111 44.8105515,3.1825 C44.8105515,2.70305556 44.6898364,2.34375 44.2494909,2.17083333 C44.0356606,2.07736111 43.7549212,2.03736111 43.3675455,2.03736111 L42.5788545,2.03736111 L42.5788545,4.35375 L43.5947576,4.35375 L43.5947576,4.35375 Z" id="Fill-6"></path>
                        <path d="M62.9182424,0.0409722222 L65.3772909,0.0409722222 L68.6236364,9.56 L66.2189515,9.56 L65.6305697,7.56263889 L62.6508848,7.56263889 L62.0765818,9.56 L59.6712,9.56 L62.9182424,0.0409722222 L62.9182424,0.0409722222 Z M65.0830303,5.69902778 L64.5481758,3.84861111 C64.3746303,3.24958333 64.1608,2.21125 64.1608,2.21125 L64.1340364,2.21125 C64.1340364,2.21125 63.9202061,3.24958333 63.7466606,3.84861111 L63.1991212,5.69902778 L65.0830303,5.69902778 L65.0830303,5.69902778 Z" id="Fill-7"></path>
                        <path d="M20.0235212,0.0404166667 L22.3617152,0.0404166667 L22.3617152,3.71444444 L23.3240909,3.71444444 L25.3018121,0.0404166667 L27.8138303,0.0404166667 L25.234903,4.59319444 L25.234903,4.61986111 L27.9606121,9.55930556 L25.3414,9.55930556 L23.3240909,5.69833333 L22.3617152,5.69833333 L22.3617152,9.55930556 L20.0235212,9.55930556 L20.0235212,0.0404166667" id="Fill-8"></path>
                        <path d="M2.59342424,40.37875 L4.93175758,40.37875 L4.93175758,49.8977778 L2.59342424,49.8977778 L2.59342424,40.37875 Z" id="Fill-9"></path>
                        <path d="M40.1479636,40.3780556 L43.4754364,40.3780556 C44.450497,40.3780556 44.918303,40.4441667 45.3325818,40.6044444 C46.4148364,41.0170833 47.0964727,41.98875 47.0964727,43.3736111 C47.0964727,44.3852778 46.6152848,45.4904167 45.6662909,45.9693056 L45.6662909,45.9959722 C45.6662909,45.9959722 45.8003879,46.1690278 46.0274606,46.5688889 L47.8846061,49.8970833 L45.2789152,49.8970833 L43.5819333,46.6884722 L42.486297,46.6884722 L42.486297,49.8970833 L40.1479636,49.8970833 L40.1479636,40.3780556 L40.1479636,40.3780556 Z M43.5022,44.69125 C44.2501879,44.69125 44.7179939,44.2784722 44.7179939,43.52 C44.7179939,43.0405556 44.5979758,42.68125 44.1569333,42.5083333 C43.9432424,42.4147222 43.6623636,42.3747222 43.2749879,42.3747222 L42.486297,42.3747222 L42.486297,44.69125 L43.5022,44.69125 L43.5022,44.69125 Z" id="Fill-10"></path>
                        <path d="M62.8251273,40.37875 L65.2840364,40.37875 L68.5305212,49.8977778 L66.1258364,49.8977778 L65.5374545,47.9004167 L62.5577697,47.9004167 L61.9833273,49.8977778 L59.5780848,49.8977778 L62.8251273,40.37875 L62.8251273,40.37875 Z M64.9899152,46.0366667 L64.4550606,44.1863889 C64.2815152,43.5873611 64.0676848,42.5483333 64.0676848,42.5483333 L64.0409212,42.5483333 C64.0409212,42.5483333 63.8270909,43.5873611 63.6535455,44.1863889 L63.1058667,46.0366667 L64.9899152,46.0366667 L64.9899152,46.0366667 Z" id="Fill-11"></path>
                        <path d="M20.0235212,40.3780556 L22.3617152,40.3780556 L22.3617152,44.0522222 L23.3240909,44.0522222 L25.3018121,40.3780556 L27.8138303,40.3780556 L25.234903,44.9309722 L25.234903,44.9576389 L27.9606121,49.8970833 L25.3414,49.8970833 L23.3240909,46.0361111 L22.3617152,46.0361111 L22.3617152,49.8970833 L20.0235212,49.8970833 L20.0235212,40.3780556" id="Fill-12"></path>
                    </g>
                </g>
            </g>
        </g>
    </g>
</svg>