<?xml version="1.0" encoding="UTF-8" standalone="no"?>
<svg width="30px" height="35px" viewBox="0 0 30 35" version="1.1" xmlns="http://www.w3.org/2000/svg" xmlns:xlink="http://www.w3.org/1999/xlink" xmlns:sketch="http://www.bohemiancoding.com/sketch/ns">
    <!-- Generator: Sketch 3.2.2 (9983) - http://www.bohemiancoding.com/sketch -->
    <title>Shape</title>
    <desc>Created with Sketch.</desc>
    <defs></defs>
    <g id="Page-1" stroke="none" stroke-width="1" fill="none" fill-rule="evenodd" sketch:type="MSPage">
        <g id="О-чемпионате-(дизайн)" sketch:type="MSArtboardGroup" transform="translate(-859.000000, -6936.000000)" fill="#C7A95F">
            <g id="7_block" sketch:type="MSLayerGroup" transform="translate(0.000000, 6544.000000)">
                <g id="content" transform="translate(559.000000, 216.000000)" sketch:type="MSShapeGroup">
                    <g id="2" transform="translate(271.000000, 168.000000)">
                        <path d="M59,8 L58.996,33.2777778 C58.996,35.6947222 56.394,39.1111111 51.5,39.1111111 C49.014,39.1111111 47,37.8413889 47,35.4652778 C47,32.3755556 49.89,30.5069444 53,30.5069444 C53.864,30.5069444 54.508,30.6216667 55,30.7461111 L55,16.4855556 L41,18.9608333 L41,37.1666667 L40.996,37.1666667 C40.996,39.5836111 38.394,43 33.5,43 C31.014,43 29,41.7302778 29,39.3541667 C29,36.2644444 31.89,34.3958333 35,34.3958333 C35.864,34.3958333 36.508,34.5105556 37,34.635 L37,11.8888889 L59,8 L59,8 Z" id="Shape"></path>
                    </g>
                </g>
            </g>
        </g>
    </g>
</svg>