<?xml version="1.0" encoding="UTF-8" standalone="no"?>
<svg width="32px" height="35px" viewBox="0 0 32 35" version="1.1" xmlns="http://www.w3.org/2000/svg" xmlns:xlink="http://www.w3.org/1999/xlink" xmlns:sketch="http://www.bohemiancoding.com/sketch/ns">
    <!-- Generator: Sketch 3.2.2 (9983) - http://www.bohemiancoding.com/sketch -->
    <title>Shape</title>
    <desc>Created with Sketch.</desc>
    <defs></defs>
    <g id="Page-1" stroke="none" stroke-width="1" fill="none" fill-rule="evenodd" sketch:type="MSPage">
        <g id="О-чемпионате-(дизайн)" sketch:type="MSArtboardGroup" transform="translate(-621.000000, -6935.000000)" fill="#C7A95F">
            <g id="7_block" sketch:type="MSLayerGroup" transform="translate(0.000000, 6544.000000)">
                <g id="content" transform="translate(559.000000, 216.000000)" sketch:type="MSShapeGroup">
                    <g id="1" transform="translate(0.000000, 175.000000)">
                        <path d="M93.076,3.18694444 C93.864,2.12722222 94,0 94,0 L62,0 C62,0 62.136,2.12722222 62.924,3.18694444 L76,19.4444444 L76,31.1111111 L72,31.1111111 C68,31.1111111 68,35 68,35 L88,35 C88,35 88,31.1111111 84,31.1111111 L80,31.1111111 L80,19.4444444 L93.076,3.18694444 L93.076,3.18694444 Z M76.8,9.72222222 C76.8,8.00138889 78.232,6.61111111 80,6.61111111 C81.768,6.61111111 83.2,8.00138889 83.2,9.72222222 C83.2,11.4391667 81.768,12.8333333 80,12.8333333 C78.232,12.8333333 76.8,11.4391667 76.8,9.72222222 L76.8,9.72222222 Z" id="Shape"></path>
                    </g>
                </g>
            </g>
        </g>
    </g>
</svg>