<?xml version="1.0" encoding="UTF-8" standalone="no"?>
<svg width="33px" height="36px" viewBox="0 0 33 36" version="1.1" xmlns="http://www.w3.org/2000/svg" xmlns:xlink="http://www.w3.org/1999/xlink" xmlns:sketch="http://www.bohemiancoding.com/sketch/ns">
    <!-- Generator: Sketch 3.2.2 (9983) - http://www.bohemiancoding.com/sketch -->
    <title>Shape</title>
    <desc>Created with Sketch.</desc>
    <defs></defs>
    <g id="Page-1" stroke="none" stroke-width="1" fill="none" fill-rule="evenodd" sketch:type="MSPage">
        <g id="О-чемпионате-(дизайн)" sketch:type="MSArtboardGroup" transform="translate(-1291.000000, -6936.000000)" fill="#C7A95F">
            <g id="7_block" sketch:type="MSLayerGroup" transform="translate(0.000000, 6544.000000)">
                <g id="content" transform="translate(559.000000, 216.000000)" sketch:type="MSShapeGroup">
                    <g id="-6" transform="translate(708.000000, 176.000000)">
                        <path d="M56.4321805,22.1723648 L53.2659625,19.3688704 C52.349281,18.5577163 52.349281,17.2288818 53.2659625,16.4177276 L56.4321805,13.6124104 C57.348862,12.8012562 57.1050247,12.0466095 55.889505,11.9281263 L51.6911036,11.5325747 C50.4774173,11.41956 49.8210733,10.3787308 50.2409135,9.22488684 L52.4684496,3.05829271 C52.8864563,1.90080312 52.374948,1.48155493 51.3335978,2.12136413 L46.3816843,5.1654706 C45.3403341,5.81074826 43.9928122,5.45712152 43.3914692,4.38895003 L41.5984401,1.20630937 C40.9952637,0.134492243 39.9997475,0.130846606 39.3855709,1.19172683 L37.7190439,4.07177966 C37.1012006,5.13812833 35.6876777,5.59018725 34.578493,5.0852666 L31.6451122,3.74731801 C30.5304274,3.2369289 29.6779136,3.82387637 29.7439147,5.05245587 L29.9015839,7.99630734 C29.9694183,9.22488684 29.0564035,10.4880999 27.8775511,10.8052703 L25.0450052,11.559917 C23.8679861,11.8770874 23.6516493,12.7994334 24.5683308,13.6105875 L27.7345488,16.4159048 C28.6512303,17.2270589 28.6512303,18.5558934 27.7345488,19.3670476 L24.5683308,22.1723648 C23.6516493,22.983519 23.8936532,23.7709764 25.1055062,23.9168019 L28.9464018,24.3797977 C30.1582547,24.5256232 30.8329323,25.601086 30.4460927,26.7695125 L28.4770608,32.7082543 C28.0902212,33.8766808 28.6420635,34.3287397 29.7017473,33.7199184 L34.2173205,31.1205796 C35.2770043,30.5117583 36.7033608,30.8471569 37.3872052,31.8642895 L39.2609022,34.6696067 C39.9429133,35.6885621 40.9677632,35.6338776 41.5342724,34.5456551 L43.1824658,31.3867111 C43.7508083,30.2966658 45.1111637,29.8518981 46.2038481,30.3969208 L49.3828996,31.9773042 C50.4792507,32.5186812 51.3207643,31.959076 51.2547632,30.7341421 L51.0952606,27.786645 C51.0310929,26.5580655 51.940441,25.2984981 53.1229602,24.9813278 L55.9518393,24.2230354 C57.1325251,23.905865 57.348862,22.983519 56.4321805,22.1723648 L56.4321805,22.1723648 Z M42.3336187,25.1909519 L38.6668926,25.1909519 L38.6668926,21.5453154 L42.3336187,21.5453154 L42.3336187,25.1909519 L42.3336187,25.1909519 Z M42.3336187,19.7224971 L38.6668926,19.7224971 L38.6668926,10.6084059 L42.3336187,10.6084059 L42.3336187,19.7224971 L42.3336187,19.7224971 Z" id="Shape"></path>
                    </g>
                </g>
            </g>
        </g>
    </g>
</svg>