<?xml version="1.0" encoding="UTF-8" standalone="no"?>
<svg width="36px" height="35px" viewBox="0 0 36 35" version="1.1" xmlns="http://www.w3.org/2000/svg" xmlns:xlink="http://www.w3.org/1999/xlink" xmlns:sketch="http://www.bohemiancoding.com/sketch/ns">
    <!-- Generator: Sketch 3.2.2 (9983) - http://www.bohemiancoding.com/sketch -->
    <title>Shape</title>
    <desc>Created with Sketch.</desc>
    <defs></defs>
    <g id="Page-1" stroke="none" stroke-width="1" fill="none" fill-rule="evenodd" sketch:type="MSPage">
        <g id="О-чемпионате-(дизайн)" sketch:type="MSArtboardGroup" transform="translate(-1070.000000, -6935.000000)" fill="#C7A95F">
            <g id="7_block" sketch:type="MSLayerGroup" transform="translate(0.000000, 6544.000000)">
                <g id="content" transform="translate(559.000000, 216.000000)" sketch:type="MSShapeGroup">
                    <g id="3" transform="translate(475.000000, 175.000000)">
                        <path d="M67.582472,12.1342975 C66.6225137,13.0203349 65.5937636,13.5402349 64.7573178,13.5402349 C63.9216538,13.5402349 62.8913402,12.9891257 61.9329454,12.1038495 L60.6337184,12.1129839 C60.0958916,11.3533058 58.9021975,10.192475 58.1525232,9.67561983 C58.4597412,8.19736842 58.6575176,6.34765115 59.060106,4.70650283 C59.096847,4.48956068 59.1601668,4.29317094 59.2156692,4.0891692 C59.2946235,3.78392779 59.3704508,3.5007612 59.440806,3.26478904 C59.4486233,3.23738582 59.4587857,3.26022184 59.4689481,3.30437147 C60.3773126,1.19051762 62.3980717,-1.33226763e-14 64.7573178,-1.33226763e-14 C67.1165639,-1.33226763e-14 69.1381048,1.19051762 70.0464692,3.30437147 C70.0574134,3.26022184 70.0660123,3.23738582 70.0746113,3.26478904 C70.1441848,3.5007612 70.2207939,3.78392779 70.2997481,4.0891692 C70.3552506,4.29240974 70.4185703,4.48879948 70.4553114,4.70650283 C71.1299401,7.45139191 72,12.1282079 72,12.1282079 L67.582472,12.1342975 L67.582472,12.1342975 Z M68.4994354,4.71792084 C67.4706853,5.57959983 66.1800573,6.11624619 64.7573178,6.11624619 C63.3345783,6.11624619 62.0439503,5.57883863 61.0152002,4.71792084 C60.9081039,5.1107003 60.8330583,5.52707699 60.8330583,5.99293171 C60.8330583,8.56046107 63.2571875,11.373097 64.7580995,11.373097 C66.2590116,11.373097 68.6831408,8.55969987 68.6831408,5.99293171 C68.6831408,5.52707699 68.6080952,5.1099391 68.4994354,4.71792084 L68.4994354,4.71792084 Z M60.8752714,17.6994345 C60.8752714,22.1448456 56.6226874,26.7554371 53.9882741,26.7554371 C51.3554243,26.7554371 47.1012768,22.1440844 47.1012768,17.6994345 C47.1012768,13.2532623 50.1844002,10.6552849 53.9882741,10.6552849 C57.792148,10.6552849 60.8752714,13.2540235 60.8752714,17.6994345 L60.8752714,17.6994345 Z M58.5754365,17.6872553 C58.5465126,17.6872553 58.5207157,17.6925837 58.4925736,17.6925837 C55.6197342,17.6925837 53.1447928,16.5934102 51.8307131,14.9857547 C51.2412925,15.9357329 50.435334,16.7479339 49.4362894,17.3157895 C49.4237818,17.4741192 49.3956397,17.6202697 49.3956397,17.7862114 C49.3956397,20.7990431 52.2333015,24.0996085 53.9898376,24.0996085 C55.7471554,24.0996085 58.5848172,20.7990431 58.5848172,17.7862114 C58.5840354,17.7511962 58.5754365,17.7215094 58.5754365,17.6872553 L58.5754365,17.6872553 Z M43.0378702,13.7069378 C40.9475376,13.7069378 37.5704855,9.78218791 37.5704855,5.99673771 C37.5704855,2.21204872 40.0180665,-1.33226763e-14 43.0378702,-1.33226763e-14 C46.0576739,-1.33226763e-14 48.5060367,2.21204872 48.5060367,5.99673771 C48.5060367,9.78218791 45.1289846,13.7069378 43.0378702,13.7069378 L43.0378702,13.7069378 Z M43.0511596,12.1639843 C43.9118388,12.1639843 44.6091375,11.357873 44.6091375,10.9239887 C44.6091375,10.4901044 43.9118388,10.6941061 43.0511596,10.6941061 C42.1904803,10.6941061 41.4931816,10.4893432 41.4931816,10.9239887 C41.4931816,11.3586342 42.1904803,12.1639843 43.0511596,12.1639843 L43.0511596,12.1639843 Z M46.7346478,6.06600696 C46.7346478,6.04393214 46.7299574,6.02490213 46.7291757,6.00282732 C46.648658,6.00587212 46.572049,6.02109613 46.4899679,6.02109613 C44.2862851,6.02109613 42.3890385,5.11678991 41.3821767,3.7945846 C40.8920351,4.63418878 40.2095892,5.34362766 39.3621993,5.81404959 C39.3582906,5.90006525 39.3418744,5.9777077 39.3418744,6.06600696 C39.3418744,6.95432797 39.6201685,7.86548499 40.028229,8.68834276 C40.8357509,9.01413658 41.9590897,9.6284254 43.0816468,9.6284254 C44.1721532,9.6284254 45.2681317,9.00652458 46.0733084,8.63581992 C46.4665161,7.82666377 46.7346478,6.93605916 46.7346478,6.06600696 L46.7346478,6.06600696 Z M42.936246,15.3450413 C43.6609051,15.3450413 44.6935638,15.1242932 45.5261009,14.4635711 C45.2829845,15.3419965 45.1149136,16.2782732 45.1149136,17.3249239 C45.1149136,18.1348412 45.2329541,18.9485646 45.4276036,19.7493475 C44.6920003,19.773706 43.763311,19.7782732 42.9354643,19.7782732 C39.1050117,19.7782732 36,19.7767508 36,17.3713571 C36,15.3990866 37.7760792,14.603632 40.0571528,14.1012397 C41.0046035,15.0801435 42.0849475,15.3450413 42.936246,15.3450413 L42.936246,15.3450413 Z M50.0960653,26.7896912 C51.3765309,28.1537625 51.8213324,29.1136364 53.9882741,29.1136364 C56.1520889,29.1136364 56.595327,28.1575685 57.8734474,26.7973032 C60.9581343,27.5014137 63.3674108,28.9065898 63.3674108,31.6469117 C63.3674108,34.9992388 59.1687657,35 53.9882741,35 C48.8085642,35 44.6083558,34.9992388 44.6083558,31.6469117 C44.6091375,28.8982166 47.0105967,27.4899957 50.0960653,26.7896912 L50.0960653,26.7896912 Z M62.8624164,17.3249239 C62.8624164,16.3064376 62.7295231,15.3678773 62.4903153,14.5084819 C63.3400504,15.1341888 64.0193694,15.3450413 64.7565361,15.3450413 C65.6414488,15.3450413 66.7632242,15.0824271 67.747416,14.1065681 C70.1215148,14.6120052 71.9765482,15.4051762 71.9765482,17.3713571 C71.9765482,19.7767508 68.7441153,19.7782732 64.7565361,19.7782732 C63.8958569,19.7782732 63.3017459,19.773706 62.5364371,19.7493475 C62.7389038,18.9485646 62.8624164,18.1356024 62.8624164,17.3249239 L62.8624164,17.3249239 Z" id="Shape"></path>
                    </g>
                </g>
            </g>
        </g>
    </g>
</svg>