<svg width="31" height="25" viewBox="0 0 31 25" xmlns="http://www.w3.org/2000/svg" xmlns:sketch="http://www.bohemiancoding.com/sketch/ns"><title>Shape</title><desc>Created with Sketch.</desc><path d="M27.9 0h-24.8c-1.705 0-3.1 1.406-3.1 3.125v18.75c0 1.719 1.395 3.125 3.1 3.125h24.8c1.705 0 3.1-1.406 3.1-3.125v-18.75c0-1.719-1.395-3.125-3.1-3.125zm-20.925 2.734c.642 0 1.163.525 1.163 1.172 0 .647-.521 1.172-1.163 1.172s-1.163-.525-1.163-1.172c0-.647.521-1.172 1.163-1.172zm-4.263 1.172c0-.647.521-1.172 1.163-1.172s1.163.525 1.163 1.172c0 .647-.521 1.172-1.163 1.172s-1.163-.525-1.163-1.172zm25.188 17.969h-24.8v-14.063h24.8v14.063zm0-17.188h-18.6v-1.563h18.629l-.029 1.563z" sketch:type="MSShapeGroup" fill="#C7A95F"/></svg>