<svg width="25" height="30" viewBox="0 0 25 30" xmlns="http://www.w3.org/2000/svg" xmlns:sketch="http://www.bohemiancoding.com/sketch/ns"><title>Shape 2</title><desc>Created with Sketch.</desc><path d="M20.81 2.255c-3.356-2.395-5.744-2.343-6.651-2.199-.255.04-.47.184-.62.387l-8.185 11.07-4.009 5.424c-.491.663-.774 1.452-.819 2.27l-.524 9.767c-.037.703.677 1.212 1.347.96l9.312-3.491c.785-.295 1.467-.808 1.96-1.474l3.267-4.42 8.922-12.068c.158-.214.221-.474.177-.735-.149-.913-.863-3.129-4.176-5.491zm-10.122 22.236l-3.62 1.37c-.142.054-.299.01-.392-.108-.466-.582-1.021-1.158-1.905-1.789-.884-.629-1.614-.969-2.321-1.226-.142-.052-.232-.184-.223-.333l.216-3.796.973-1.311s2.177-.293 5.019 1.733c2.838 2.025 3.226 4.147 3.226 4.147l-.974 1.313z" sketch:type="MSShapeGroup" fill="#C7A95F"/></svg>