<svg width="43" height="30" viewBox="0 0 43 30" xmlns="http://www.w3.org/2000/svg" xmlns:sketch="http://www.bohemiancoding.com/sketch/ns"><title>Shape</title><desc>Created with Sketch.</desc><path d="M12.295 25.179c-.507 0-1.019-.178-1.427-.54l-10.874-9.639 11.477-10.174c.885-.782 2.243-.707 3.032.178.789.885.709 2.239-.178 3.026l-7.863 6.971 7.259 6.433c.888.786.967 2.141.178 3.026-.423.478-1.014.72-1.605.72zm19.222-.004l11.477-10.174-10.874-9.639c-.888-.786-2.246-.707-3.032.178-.789.885-.709 2.239.178 3.026l7.259 6.435-7.863 6.969c-.888.786-.967 2.141-.178 3.026.423.478 1.014.72 1.605.72.507 0 1.019-.178 1.427-.54zm-10.053 3.036l4.298-25.714c.196-1.168-.595-2.271-1.766-2.466-1.175-.197-2.28.594-2.471 1.761l-4.298 25.714c-.196 1.168.595 2.271 1.766 2.466l.355.028c1.031 0 1.943-.744 2.117-1.789z" sketch:type="MSShapeGroup" fill="#C7A95F"/></svg>