<svg width="30" height="30" viewBox="0 0 30 30" xmlns="http://www.w3.org/2000/svg" xmlns:sketch="http://www.bohemiancoding.com/sketch/ns"><title>Shape</title><desc>Created with Sketch.</desc><path d="M30 15c0-2.041-1.137-3.924-3.046-5.433l-.008-.005c-.543-5.358-5.68-9.563-11.946-9.563s-11.403 4.205-11.946 9.563l-.008.005c-1.91 1.509-3.047 3.392-3.047 5.433 0 4.668 5.92 8.503 13.5 8.955v1.545c0 1.5-2.731 2.866-2.731 2.866-.149.074-.222.26-.164.416 0 0 .458 1.218 1.395 1.218.938 0 1.686-.75 3.561-.75s3.658.648 3.658.648c.153.057.377.008.493-.11l1.076-1.075c.117-.117.087-.26-.069-.318 0 0-2.718-1.02-2.718-2.895v-1.681c6.846-.832 11.999-4.464 11.999-8.819zm-27 0c0-1.528 1.152-2.918 3.033-3.976-.015-.174-.033-.348-.033-.524 0-4.143 4.031-7.5 9-7.5s9 3.357 9 7.5l-.031.524c1.879 1.059 3.031 2.448 3.031 3.976 0 2.796-3.826 5.136-8.999 5.803v-1.002c0-.165.098-.393.218-.506l2.75-2.589c.12-.114.219-.341.219-.506v-1.276c0-.165-.117-.232-.258-.149l-2.669 1.571c-.144.084-.26.018-.26-.149v-5.398c0-.165-.127-.258-.285-.206l-3.931 1.311c-.156.053-.284.229-.284.395v3.9c0 .165-.118.237-.265.16l-3.033-1.596c-.146-.076-.36-.045-.477.072l-.513.513c-.117.117-.11.301.014.409l4.05 3.541c.124.11.225.333.225.498v1.148c-5.917-.368-10.501-2.886-10.501-5.946z" sketch:type="MSShapeGroup" fill="#C7A95F"/></svg>