<svg width="30" height="30" viewBox="0 0 30 30" xmlns="http://www.w3.org/2000/svg" xmlns:sketch="http://www.bohemiancoding.com/sketch/ns"><title>Shape 4</title><desc>Created with Sketch.</desc><path d="M21.373.658l-20.717 20.718c-.876.876-.876 2.307.003 3.186l4.778 4.78c.876.876 2.312.879 3.186.003l20.72-20.718c.876-.877.876-2.311 0-3.187l-4.779-4.782c-.881-.879-2.313-.874-3.191 0zm-15.48 22.309l-1.139 1.138-2.844-2.845 1.139-1.138 2.844 2.845zm4.554 0l-1.139 1.138-5.123-5.122 1.139-1.14 5.123 5.124zm0-4.554l-1.139 1.138-2.847-2.844 1.14-1.14 2.846 2.845zm2.277-2.277l-1.139 1.138-2.844-2.844 1.139-1.14 2.844 2.845zm4.553 0l-1.139 1.138-5.121-5.121 1.139-1.138 5.121 5.121zm0-4.552l-1.139 1.138-2.844-2.844 1.139-1.138 2.844 2.844zm2.277-2.275l-1.139 1.138-2.846-2.845 1.139-1.138 2.846 2.845zm4.554 0l-1.14 1.138-5.121-5.122 1.139-1.14 5.123 5.124zm-.001-4.552l-1.139 1.138-2.844-2.847 1.139-1.137 2.844 2.845z" sketch:type="MSShapeGroup" fill="#C7A95F"/></svg>