<svg width="34" height="30" viewBox="0 0 34 30" xmlns="http://www.w3.org/2000/svg" xmlns:sketch="http://www.bohemiancoding.com/sketch/ns"><title>Shape</title><desc>Created with Sketch.</desc><path d="M5.282 9.733c1.593-1.227 2.914-.381 4.677 1.644.198.229.464-.039.616-.169.15-.132 2.477-2.209 2.591-2.304.113-.1.249-.286.07-.494-.183-.208-.843-1.058-1.268-1.61-3.086-4.004 8.443-6.72 6.673-6.762-.901-.024-4.517-.066-5.058-.007-2.19.229-4.94 2.259-6.325 3.205-1.811 1.229-2.487 1.95-2.598 2.05-.512.444-.082 1.468-1.011 2.275-.982.852-1.594.207-2.163.701-.282.247-1.07.833-1.296 1.028-.227.198-.268.532-.036.797 0 0 2.158 2.364 2.339 2.573.179.207.667.386.968.12l1.209-1.055c.133-.112-.085-1.458.611-1.993zm9.744.875c-.205-.235-.459-.242-.678-.049l-2.448 2.12c-.193.169-.22.479-.046.677l14.158 15.981c.331.378.905.416 1.282.09l1.656-1.376c.379-.33.418-.902.089-1.283l-14.013-16.159zm18.878-6.801c-.126-.836-.563-.662-.79-.308-.227.357-1.231 1.866-1.644 2.55-.41.677-1.42 2.016-3.301.694-1.96-1.373-1.279-2.331-.937-2.976.343-.648 1.396-2.467 1.548-2.692.152-.229-.026-.892-.633-.615-.609.278-4.307 1.735-4.819 3.826-.524 2.126.439 4.028-1.451 5.916l-2.293 2.37 2.303 2.651 2.823-2.658c.673-.67 2.11-1.322 3.411-1.028 2.788.625 4.309-.413 5.225-2.13.823-1.534.686-4.764.558-5.601zm-29.298 23.132c-.355.354-.355.929 0 1.283l1.623 1.575c.355.354.918.205 1.273-.149l8.376-8.167-2.566-2.902-8.708 8.36z" sketch:type="MSShapeGroup" fill="#C7A95F"/></svg>