<?xml version="1.0" encoding="UTF-8" standalone="no"?>
<svg width="83px" height="71px" viewBox="0 0 83 71" version="1.1" xmlns="http://www.w3.org/2000/svg" xmlns:xlink="http://www.w3.org/1999/xlink" xmlns:sketch="http://www.bohemiancoding.com/sketch/ns">
    <!-- Generator: Sketch 3.2.2 (9983) - http://www.bohemiancoding.com/sketch -->
    <title>Shape</title>
    <desc>Created with Sketch.</desc>
    <defs></defs>
    <g id="Page-1" stroke="none" stroke-width="1" fill="none" fill-rule="evenodd" sketch:type="MSPage">
        <g id="Промежуточная-страница-для-секций" sketch:type="MSArtboardGroup" transform="translate(-919.000000, -125.000000)" fill="#C7A95F">
            <g id="1" sketch:type="MSLayerGroup" transform="translate(470.000000, 125.000000)">
                <g id="Shape-+-Выбор-за-тобой-+-Чувствуя-тенденции-с" transform="translate(231.000000, 0.000000)" sketch:type="MSShapeGroup">
                    <g id="briefcase" transform="translate(218.000000, 0.000000)">
                        <path d="M37.35,37.5882353 L45.65,37.5882353 L45.65,45.9411765 L83,45.9411765 C83,45.9411765 82.38165,27.3182941 82.17,21.4921176 C81.9625,15.9541176 79.99125,12.5294118 73.87,12.5294118 L60.5568,12.5294118 C58.49425,8.61188235 56.274,4.40617647 55.58925,3.10729412 C54.2156,0.505352941 53.74665,0 50.6964,0 L32.29945,0 C29.2492,0 28.7844,0.505352941 27.4066,3.10729412 C26.72185,4.40617647 24.5016,8.61188235 22.4432,12.5294118 L9.12585,12.5294118 C3.00045,12.5294118 1.0541,15.9541176 0.82585,21.4921176 C0.60175,27.0342941 0,45.9411765 0,45.9411765 L37.35,45.9411765 L37.35,37.5882353 L37.35,37.5882353 Z M31.74335,8.00211765 C32.69785,6.19788235 33.02155,5.84705882 35.1339,5.84705882 L47.86195,5.84705882 C49.9743,5.84705882 50.30215,6.19788235 51.24835,8.00211765 C51.60525,8.67035294 52.56805,10.508 53.6346,12.5294118 L29.3571,12.5294118 C30.42365,10.508 31.38645,8.67035294 31.74335,8.00211765 L31.74335,8.00211765 Z M45.65,58.4705882 L37.35,58.4705882 L37.35,50.1176471 L2.075,50.1176471 C2.075,50.1176471 2.5896,57.6227647 2.90085,63.9918824 C3.0295,66.6355882 3.80555,71 10.37085,71 L72.625,71 C79.1903,71 79.94975,66.6272353 80.095,63.9918824 C80.45605,57.4431765 80.925,50.1176471 80.925,50.1176471 L45.65,50.1176471 L45.65,58.4705882 L45.65,58.4705882 Z" id="Shape"></path>
                    </g>
                </g>
            </g>
        </g>
    </g>
</svg>