<?xml version="1.0" encoding="UTF-8" standalone="no"?>
<svg width="28px" height="32px" viewBox="0 0 28 32" version="1.1" xmlns="http://www.w3.org/2000/svg" xmlns:xlink="http://www.w3.org/1999/xlink" xmlns:sketch="http://www.bohemiancoding.com/sketch/ns">
    <!-- Generator: Sketch 3.2.2 (9983) - http://www.bohemiancoding.com/sketch -->
    <title>Fill 220</title>
    <desc>Created with Sketch.</desc>
    <defs></defs>
    <g id="Page-1" stroke="none" stroke-width="1" fill="none" fill-rule="evenodd" sketch:type="MSPage">
        <g id="Секции_интерфейсы-(дизайн)" sketch:type="MSArtboardGroup" transform="translate(-899.000000, -1529.000000)" fill="#FFFFFF">
            <g id="3_block" sketch:type="MSLayerGroup" transform="translate(0.000000, 998.000000)">
                <g id="III-этап" transform="translate(480.000000, 149.000000)" sketch:type="MSShapeGroup">
                    <g id="16-—-22-марта-2015-+-yota" transform="translate(178.000000, 144.000000)">
                        <path d="M264,246 C262.935,246 262,244.065 262,243.026 L262,240.031 L262,240.029 L267,246 L264,246 L264,246 Z M267,262 C267,263.019 266.05,264 265,264 L250,264 C248.95,264 248,263.019 248,262 L248,242 C248,240.981 248.95,240 250,240 L260,240 C259.984,242.304 260,244.025 260,244.025 C260,246.103 261.87,248 264,248 L267,248 L267,262 L267,262 Z M260,268 L245,268 C243.95,268 243,267.019 243,266 L243,246 C243,244.981 243.855,244.032 244.905,244.032 L246,244 L246,262 C246,264.059 247.884,266 250,266 L262,266 C262,267.019 261.049,268 260,268 L260,268 Z M262,238 L250,238 C247.884,238 246,239.941 246,242 L244.845,242.027 C242.729,242.027 241,243.941 241,246 L241,266 C241,268.059 242.884,270 245,270 L260,270 C262.116,270 264,268.059 264,266 L265,266 C267.116,266 269,264.059 269,262 L269,246.023 L262,238 L262,238 Z M262,252.018 L253,252.018 C252.448,252.018 252,252.465 252,253.017 C252,253.568 252.448,254.016 253,254.016 L262,254.016 C262.552,254.016 263,253.568 263,253.017 C263,252.465 262.552,252.018 262,252.018 L262,252.018 Z M262,257.013 L253,257.013 C252.448,257.013 252,257.46 252,258.012 C252,258.563 252.448,259.011 253,259.011 L262,259.011 C262.552,259.011 263,258.563 263,258.012 C263,257.46 262.552,257.013 262,257.013 L262,257.013 Z" id="Fill-220"></path>
                    </g>
                </g>
            </g>
        </g>
    </g>
</svg>