<svg width="28" height="32" viewBox="0 0 28 32" xmlns="http://www.w3.org/2000/svg" xmlns:sketch="http://www.bohemiancoding.com/sketch/ns"><title>Fill 220</title><desc>Created with Sketch.</desc><path d="M23 8c-1.065 0-2-1.935-2-2.974v-2.997l5 5.971h-3zm3 16c0 1.019-.95 2-2 2h-15c-1.05 0-2-.981-2-2v-20c0-1.019.95-2 2-2h10c-.016 2.304 0 4.025 0 4.025 0 2.078 1.87 3.975 4 3.975h3v14zm-7 6h-15c-1.05 0-2-.981-2-2v-20c0-1.019.855-1.968 1.905-1.968l1.095-.032v18c0 2.059 1.884 4 4 4h12c0 1.019-.951 2-2 2zm2-30h-12c-2.116 0-4 1.941-4 4l-1.155.027c-2.116 0-3.845 1.914-3.845 3.973v20c0 2.059 1.884 4 4 4h15c2.116 0 4-1.941 4-4h1c2.116 0 4-1.941 4-4v-15.977l-7-8.023zm0 14.018h-9c-.552 0-1 .447-1 .999 0 .551.448.999 1 .999h9c.552 0 1-.448 1-.999 0-.552-.448-.999-1-.999zm0 4.995h-9c-.552 0-1 .447-1 .999 0 .551.448.999 1 .999h9c.552 0 1-.448 1-.999 0-.552-.448-.999-1-.999z" sketch:type="MSShapeGroup" fill="#fff"/></svg>