<?xml version="1.0" encoding="UTF-8" standalone="no"?>
<svg width="34px" height="35px" viewBox="0 0 34 35" version="1.1" xmlns="http://www.w3.org/2000/svg" xmlns:xlink="http://www.w3.org/1999/xlink" xmlns:sketch="http://www.bohemiancoding.com/sketch/ns">
    <!-- Generator: Sketch 3.2.2 (9983) - http://www.bohemiancoding.com/sketch -->
    <title>Shape</title>
    <desc>Created with Sketch.</desc>
    <defs></defs>
    <g id="III-Игры-Дизайнеров" stroke="none" stroke-width="1" fill="none" fill-rule="evenodd" sketch:type="MSPage">
        <g id="Guidline" sketch:type="MSArtboardGroup" transform="translate(-228.000000, -1401.000000)" fill="#59493A">
            <g id="Buttons" sketch:type="MSLayerGroup" transform="translate(75.000000, 1070.000000)">
                <g id="Обычное-состояние-" transform="translate(2.000000, 76.000000)" sketch:type="MSShapeGroup">
                    <g id="instagram-with-circle" transform="translate(150.500000, 255.000000)">
                        <path d="M22.75,17.5 C22.75,20.39975 20.39975,22.75 17.5,22.75 C14.60025,22.75 12.25,20.39975 12.25,17.5 C12.25,17.20075 12.2815,16.9085 12.33575,16.625 L10.5,16.625 L10.5,23.61975 C10.5,24.10625 10.89375,24.5 11.38025,24.5 L23.6215,24.5 C24.10625,24.5 24.5,24.10625 24.5,23.61975 L24.5,16.625 L22.66425,16.625 C22.7185,16.9085 22.75,17.20075 22.75,17.5 L22.75,17.5 Z M17.5,21 C19.432,21 21,19.432 21,17.5 C21,15.568 19.432,14 17.5,14 C15.568,14 14,15.568 14,17.5 C14,19.432 15.568,21 17.5,21 L17.5,21 Z M21.7,13.825 L23.79825,13.825 C24.08875,13.825 24.325,13.58875 24.325,13.3 L24.325,11.20175 C24.325,10.91125 24.08875,10.675 23.79825,10.675 L21.7,10.675 C21.4095,10.675 21.17325,10.91125 21.17325,11.20175 L21.17325,13.3 C21.175,13.58875 21.41125,13.825 21.7,13.825 L21.7,13.825 Z M17.5,0.7 C8.2215,0.7 0.7,8.2215 0.7,17.5 C0.7,26.7785 8.2215,34.3 17.5,34.3 C26.7785,34.3 34.3,26.7785 34.3,17.5 C34.3,8.2215 26.7785,0.7 17.5,0.7 L17.5,0.7 Z M26.25,24.30575 C26.25,25.375 25.375,26.25 24.30575,26.25 L10.69425,26.25 C9.625,26.25 8.75,25.375 8.75,24.30575 L8.75,10.69425 C8.75,9.625 9.625,8.75 10.69425,8.75 L24.30575,8.75 C25.375,8.75 26.25,9.625 26.25,10.69425 L26.25,24.30575 L26.25,24.30575 Z" id="Shape"></path>
                    </g>
                </g>
            </g>
        </g>
    </g>
</svg>