<svg width="34" height="35" viewBox="0 0 34 35" xmlns="http://www.w3.org/2000/svg" xmlns:sketch="http://www.bohemiancoding.com/sketch/ns"><title>Shape</title><desc>Created with Sketch.</desc><path d="M22.25 17.5c0 2.9-2.35 5.25-5.25 5.25s-5.25-2.35-5.25-5.25c0-.299.031-.591.086-.875h-1.836v6.995c0 .486.394.88.88.88h12.241c.485 0 .878-.394.878-.88v-6.995h-1.836c.054.284.086.576.086.875zm-5.25 3.5c1.932 0 3.5-1.568 3.5-3.5s-1.568-3.5-3.5-3.5-3.5 1.568-3.5 3.5 1.568 3.5 3.5 3.5zm4.2-7.175h2.098c.291 0 .527-.236.527-.525v-2.098c0-.29-.236-.527-.527-.527h-2.098c-.29 0-.527.236-.527.527v2.098c.002.289.238.525.527.525zm-4.2-13.125c-9.278 0-16.8 7.522-16.8 16.8 0 9.279 7.522 16.8 16.8 16.8 9.279 0 16.8-7.521 16.8-16.8 0-9.278-7.521-16.8-16.8-16.8zm8.75 23.606c0 1.069-.875 1.944-1.944 1.944h-13.611c-1.069 0-1.944-.875-1.944-1.944v-13.611c0-1.069.875-1.944 1.944-1.944h13.611c1.069 0 1.944.875 1.944 1.944v13.611z" sketch:type="MSShapeGroup" fill="#59493A"/></svg>