<?xml version="1.0" encoding="UTF-8" standalone="no"?>
<svg width="180px" height="39px" viewBox="0 0 180 39" version="1.1" xmlns="http://www.w3.org/2000/svg" xmlns:xlink="http://www.w3.org/1999/xlink" xmlns:sketch="http://www.bohemiancoding.com/sketch/ns">
    <!-- Generator: Sketch 3.2.2 (9983) - http://www.bohemiancoding.com/sketch -->
    <title>IKRA</title>
    <desc>Created with Sketch.</desc>
    <defs></defs>
    <g id="III-Игры-Дизайнеров" stroke="none" stroke-width="1" fill="none" fill-rule="evenodd" sketch:type="MSPage">
        <g id="О-чемпионате-(дизайн)" sketch:type="MSArtboardGroup" transform="translate(-960.000000, -1580.000000)" fill="#D82332">
            <g id="3_block" sketch:type="MSLayerGroup" transform="translate(-1.000000, 1280.000000)">
                <g id="logos" transform="translate(471.000000, 184.000000)" sketch:type="MSShapeGroup">
                    <g id="IKRA" transform="translate(490.000000, 116.000000)">
                        <path d="M38.1113333,38.640931 L24.8833333,34.8283448 L0.316,38.640931 L0.316,0.519775862 L13.5433333,4.33101724 L38.1113333,0.519775862 L38.1113333,38.640931" id="Fill-1"></path>
                        <path d="M81.5753333,19.5800172 L85.3553333,38.640931 L47.56,38.640931 L47.56,0.519775862 L85.3553333,0.519775862 L81.5753333,19.5800172" id="Fill-2"></path>
                        <path d="M132.599333,34.8283448 L108.032,34.8283448 L94.804,38.640931 L94.804,0.519775862 L132.599333,0.519775862 L132.599333,34.8283448" id="Fill-3"></path>
                        <path d="M179.844,38.640931 L160.946,34.8283448 L142.048,38.640931 L142.048,0.519775862 L179.844,0.519775862 L179.844,38.640931" id="Fill-4"></path>
                    </g>
                </g>
            </g>
        </g>
    </g>
</svg>