<?xml version="1.0" encoding="UTF-8" standalone="no"?>
<svg width="55px" height="36px" viewBox="0 0 55 36" version="1.1" xmlns="http://www.w3.org/2000/svg" xmlns:xlink="http://www.w3.org/1999/xlink" xmlns:sketch="http://www.bohemiancoding.com/sketch/ns">
    <!-- Generator: Sketch 3.2.2 (9983) - http://www.bohemiancoding.com/sketch -->
    <title>Design</title>
    <desc>Created with Sketch.</desc>
    <defs></defs>
    <g id="III-Игры-Дизайнеров" stroke="none" stroke-width="1" fill="none" fill-rule="evenodd" sketch:type="MSPage">
        <g id="О-чемпионате-(дизайн)" sketch:type="MSArtboardGroup" transform="translate(-107.000000, -12.000000)" fill="#FFFFFF">
            <g id="1_block" sketch:type="MSLayerGroup" transform="translate(-364.000000, 0.000000)">
                <g id="menu" transform="translate(363.000000, 9.000000)" sketch:type="MSShapeGroup">
                    <path d="M108.397461,17 L108.397461,4.203125 L112.422852,4.203125 C114.168954,4.203125 115.550288,4.70995587 116.566895,5.72363281 C117.583501,6.73730976 118.091797,8.08202287 118.091797,9.7578125 L118.091797,11.4541016 C118.091797,13.14161 117.579107,14.4877879 116.553711,15.4926758 C115.528315,16.4975636 114.11329,17 112.308594,17 L108.397461,17 Z M110.533203,5.91699219 L110.533203,15.2949219 L112.24707,15.2949219 C113.518561,15.2949219 114.454587,14.9521519 115.055176,14.2666016 C115.655765,13.5810513 115.956055,12.6435606 115.956055,11.4541016 L115.956055,9.74023438 C115.956055,8.53905649 115.660159,7.60156587 115.068359,6.92773438 C114.47656,6.25390288 113.574225,5.91699219 112.361328,5.91699219 L110.533203,5.91699219 Z M124.314453,17.1757812 C122.943353,17.1757812 121.863773,16.7421918 121.075684,15.875 C120.287594,15.0078082 119.893555,13.8711008 119.893555,12.4648438 L119.893555,12.1132812 C119.893555,10.7011648 120.284664,9.54687948 121.066895,8.65039062 C121.849125,7.75390177 122.849603,7.30859372 124.068359,7.31445312 C125.380866,7.31445312 126.37109,7.69677352 127.039062,8.46142578 C127.707035,9.22607804 128.041016,10.2734308 128.041016,11.6035156 L128.041016,12.8603516 L122.046875,12.8603516 C122.105469,13.6513711 122.335447,14.2841773 122.736816,14.7587891 C123.138186,15.2334008 123.708004,15.4707031 124.446289,15.4707031 C125.032229,15.4707031 125.525877,15.4018562 125.927246,15.2641602 C126.328615,15.1264642 126.722654,14.9257826 127.109375,14.6621094 L127.733398,16.1210938 C127.375975,16.4316422 126.913089,16.6850576 126.344727,16.8813477 C125.776364,17.0776377 125.099613,17.1757812 124.314453,17.1757812 L124.314453,17.1757812 Z M124.068359,9.02832031 C123.535154,9.02832031 123.098635,9.23486122 122.758789,9.64794922 C122.418944,10.0610372 122.19629,10.6103481 122.09082,11.2958984 L125.922852,11.2958984 L125.922852,11.0761719 C125.922852,10.4609344 125.771974,9.96582219 125.470215,9.59082031 C125.168456,9.21581844 124.701175,9.02832031 124.068359,9.02832031 L124.068359,9.02832031 Z M135.107422,14.4160156 C135.107422,14.0820296 134.971193,13.8095714 134.69873,13.5986328 C134.426268,13.3876943 133.897465,13.1972665 133.112305,13.0273438 C131.952143,12.7812488 131.086429,12.4414084 130.515137,12.0078125 C129.943845,11.5742166 129.658203,10.970707 129.658203,10.1972656 C129.658203,9.38280843 129.990719,8.69873324 130.655762,8.14501953 C131.320804,7.59130583 132.212885,7.31445312 133.332031,7.31445312 C134.515631,7.31445312 135.445797,7.59716514 136.122559,8.16259766 C136.79932,8.72803017 137.137695,9.45605023 137.137695,10.3466797 L135.010742,10.3466797 C135.010742,9.9482402 134.864259,9.60986467 134.571289,9.33154297 C134.278319,9.05322126 133.865237,8.9140625 133.332031,8.9140625 C132.804685,8.9140625 132.409181,9.02831917 132.145508,9.25683594 C131.881835,9.48535271 131.75,9.76952955 131.75,10.109375 C131.75,10.4492204 131.873046,10.7143545 132.119141,10.9047852 C132.365236,11.0952158 132.886715,11.2695305 133.683594,11.4277344 C134.90235,11.6796888 135.794431,12.0239236 136.359863,12.4604492 C136.925296,12.8969748 137.208008,13.5107382 137.208008,14.3017578 C137.208008,15.1748091 136.860843,15.8720677 136.166504,16.3935547 C135.472164,16.9150417 134.536139,17.1757812 133.358398,17.1757812 C132.098627,17.1757812 131.115726,16.8623078 130.409668,16.2353516 C129.70361,15.6083953 129.350586,14.8642621 129.350586,14.0029297 L131.416016,14.0029297 C131.439453,14.5654325 131.63574,14.9682605 132.004883,15.2114258 C132.374025,15.4545911 132.833982,15.5761719 133.384766,15.5761719 C133.947268,15.5761719 134.374999,15.4736338 134.667969,15.2685547 C134.960939,15.0634755 135.107422,14.7792987 135.107422,14.4160156 L135.107422,14.4160156 Z M141.400391,17 L139.264648,17 L139.264648,7.49023438 L141.400391,7.49023438 L141.400391,17 Z M141.400391,5.16113281 L139.264648,5.16113281 L139.264648,3.2890625 L141.400391,3.2890625 L141.400391,5.16113281 Z M143.404297,12.3769531 C143.404297,10.8359298 143.729489,9.60693818 144.379883,8.68994141 C145.030277,7.77294463 145.956049,7.31445312 147.157227,7.31445312 C147.731448,7.31445312 148.228025,7.43163945 148.646973,7.66601562 C149.06592,7.9003918 149.427733,8.24316181 149.732422,8.69433594 L149.908203,7.49023438 L151.736328,7.49023438 L151.736328,16.7978516 C151.736328,18.0634829 151.361332,19.0522425 150.611328,19.7641602 C149.861324,20.4760778 148.794929,20.8320312 147.412109,20.8320312 C146.91406,20.8320312 146.396975,20.7661139 145.86084,20.6342773 C145.324704,20.5024407 144.825198,20.3134778 144.362305,20.0673828 L144.819336,18.5205078 C145.211916,18.7138682 145.617674,18.8662104 146.036621,18.9775391 C146.455569,19.0888677 146.887693,19.1445312 147.333008,19.1445312 C148.106449,19.1445312 148.677733,18.9379903 149.046875,18.5249023 C149.416017,18.1118143 149.600586,17.5332068 149.600586,16.7890625 L149.600586,16.0595703 L149.574219,16.0507812 C149.281249,16.4257831 148.935549,16.7070303 148.537109,16.8945312 C148.13867,17.0820322 147.672854,17.1757812 147.139648,17.1757812 C145.950189,17.1757812 145.030277,16.758305 144.379883,15.9233398 C143.729489,15.0883747 143.404297,13.9677805 143.404297,12.5615234 L143.404297,12.3769531 Z M145.540039,12.5615234 C145.540039,13.4521529 145.709959,14.153806 146.049805,14.6665039 C146.38965,15.1792018 146.934567,15.4355469 147.68457,15.4355469 C148.153323,15.4355469 148.541502,15.3432626 148.849121,15.1586914 C149.15674,14.9741202 149.407226,14.7001971 149.600586,14.3369141 L149.600586,10.1708984 C149.401366,9.81347478 149.147951,9.53955173 148.840332,9.34912109 C148.532713,9.15869045 148.153323,9.06347656 147.702148,9.06347656 C146.952145,9.06347656 146.404299,9.36669619 146.058594,9.97314453 C145.712889,10.5795929 145.540039,11.3808544 145.540039,12.3769531 L145.540039,12.5615234 Z M155.919922,7.49023438 L156.042969,8.81738281 L156.060547,8.82617188 C156.371095,8.34570072 156.75781,7.97363413 157.220703,7.70996094 C157.683596,7.44628774 158.213864,7.31445312 158.811523,7.31445312 C159.8252,7.31445312 160.603025,7.60888377 161.14502,8.19775391 C161.687014,8.78662404 161.958008,9.72850915 161.958008,11.0234375 L161.958008,17 L159.822266,17 L159.822266,11.0410156 C159.822266,10.3085901 159.677248,9.7958999 159.387207,9.50292969 C159.097167,9.20995947 158.644534,9.06347656 158.029297,9.06347656 C157.60156,9.06347656 157.228029,9.15429597 156.908691,9.3359375 C156.589354,9.51757903 156.32129,9.7724593 156.104492,10.1005859 L156.104492,17 L153.96875,17 L153.96875,7.49023438 L155.919922,7.49023438 Z M117.986328,36.3300781 C117.634764,36.8105493 117.078129,37.2397442 116.316406,37.6176758 C115.554684,37.9956074 114.55567,38.1845703 113.319336,38.1845703 C111.743156,38.1845703 110.465825,37.7041064 109.487305,36.7431641 C108.508784,35.7822218 108.019531,34.5136798 108.019531,32.9375 L108.019531,30.265625 C108.019531,28.6894452 108.482417,27.4209032 109.408203,26.4599609 C110.333989,25.4990186 111.552727,25.0185547 113.064453,25.0185547 C114.599617,25.0185547 115.758297,25.375973 116.540527,26.0908203 C117.322758,26.8056676 117.804687,27.8017514 117.986328,29.0791016 L115.885742,29.0791016 C115.745116,28.3290978 115.465334,27.7504903 115.046387,27.3432617 C114.627439,26.9360331 113.97852,26.7324219 113.099609,26.7324219 C112.197261,26.7324219 111.479495,27.0576139 110.946289,27.7080078 C110.413083,28.3584017 110.146484,29.2050729 110.146484,30.2480469 L110.146484,32.9375 C110.146484,33.9921928 110.435056,34.8461881 111.012207,35.4995117 C111.589358,36.1528353 112.358394,36.4794922 113.319336,36.4794922 C113.999027,36.4794922 114.541014,36.4033211 114.945312,36.2509766 C115.349611,36.0986321 115.651366,35.9140636 115.850586,35.6972656 L115.850586,33.1308594 L113.301758,33.1308594 L113.301758,31.53125 L117.986328,31.53125 L117.986328,36.3300781 Z M126.054688,38 C125.990234,37.8007803 125.936035,37.6015635 125.89209,37.4023438 C125.848144,37.203124 125.814453,36.9980479 125.791016,36.7871094 C125.468748,37.1972677 125.079104,37.5312487 124.62207,37.7890625 C124.165037,38.0468763 123.649417,38.1757812 123.075195,38.1757812 C122.096675,38.1757812 121.345217,37.9252955 120.820801,37.4243164 C120.296384,36.9233373 120.03418,36.2216842 120.03418,35.3193359 C120.03418,34.3818313 120.391598,33.6611353 121.106445,33.1572266 C121.821293,32.6533178 122.849603,32.4013672 124.191406,32.4013672 L125.74707,32.4013672 L125.74707,31.5664062 C125.74707,31.0624975 125.600587,30.6713881 125.307617,30.3930664 C125.014647,30.1147447 124.586917,29.9755859 124.024414,29.9755859 C123.508786,29.9755859 123.104494,30.0913074 122.811523,30.3227539 C122.518553,30.5542004 122.37207,30.85742 122.37207,31.2324219 L120.236328,31.2324219 C120.236328,30.4355429 120.595211,29.7500029 121.312988,29.1757812 C122.030765,28.6015596 122.97851,28.3144531 124.15625,28.3144531 C125.287115,28.3144531 126.190915,28.5913058 126.867676,29.1450195 C127.544437,29.6987332 127.882812,30.5117134 127.882812,31.5839844 L127.882812,35.8115234 C127.882812,36.2158223 127.907715,36.5937482 127.95752,36.9453125 C128.007324,37.2968768 128.093749,37.6484357 128.216797,38 L126.054688,38 Z M123.541016,36.4619141 C124.033206,36.4619141 124.474119,36.3564464 124.86377,36.1455078 C125.25342,35.9345693 125.547851,35.6709 125.74707,35.3544922 L125.74707,33.7373047 L124.15625,33.7373047 C123.517575,33.7373047 123.026857,33.8881821 122.684082,34.1899414 C122.341307,34.4917007 122.169922,34.8564432 122.169922,35.2841797 C122.169922,35.6533222 122.284179,35.9418935 122.512695,36.1499023 C122.741212,36.3579112 123.083982,36.4619141 123.541016,36.4619141 L123.541016,36.4619141 Z M132.075195,28.4902344 L132.189453,29.6943359 L132.207031,29.6943359 C132.51172,29.2490212 132.894041,28.907716 133.354004,28.6704102 C133.813967,28.4331043 134.357419,28.3144531 134.984375,28.3144531 C135.617191,28.3144531 136.151853,28.4521471 136.588379,28.7275391 C137.024905,29.0029311 137.357421,29.4277315 137.585938,30.0019531 C137.884767,29.4687473 138.270017,29.0542007 138.741699,28.7583008 C139.213381,28.4624009 139.77734,28.3144531 140.433594,28.3144531 C141.412114,28.3144531 142.172361,28.6352507 142.714355,29.2768555 C143.25635,29.9184602 143.527344,30.9160089 143.527344,32.2695312 L143.527344,38 L141.391602,38 L141.391602,32.2607422 C141.391602,31.4345662 141.253908,30.861818 140.978516,30.5424805 C140.703124,30.2231429 140.284182,30.0634766 139.72168,30.0634766 C139.252927,30.0634766 138.864748,30.1835925 138.557129,30.4238281 C138.24951,30.6640637 138.022462,30.9980447 137.875977,31.4257812 C137.875977,31.5136723 137.878906,31.5898434 137.884766,31.6542969 C137.890625,31.7187503 137.893555,31.7802731 137.893555,31.8388672 L137.893555,38 L135.757812,38 L135.757812,32.2607422 C135.757812,31.4697226 135.617189,30.9057634 135.335938,30.5688477 C135.054686,30.2319319 134.635745,30.0634766 134.079102,30.0634766 C133.639646,30.0634766 133.270509,30.145507 132.97168,30.3095703 C132.67285,30.4736336 132.435548,30.7109359 132.259766,31.0214844 L132.259766,38 L130.124023,38 L130.124023,28.4902344 L132.075195,28.4902344 Z M149.855469,38.1757812 C148.484368,38.1757812 147.404789,37.7421918 146.616699,36.875 C145.828609,36.0078082 145.43457,34.8711008 145.43457,33.4648438 L145.43457,33.1132812 C145.43457,31.7011648 145.82568,30.5468795 146.60791,29.6503906 C147.390141,28.7539018 148.390619,28.3085937 149.609375,28.3144531 C150.921882,28.3144531 151.912106,28.6967735 152.580078,29.4614258 C153.24805,30.226078 153.582031,31.2734308 153.582031,32.6035156 L153.582031,33.8603516 L147.587891,33.8603516 C147.646485,34.6513711 147.876463,35.2841773 148.277832,35.7587891 C148.679201,36.2334008 149.24902,36.4707031 149.987305,36.4707031 C150.573245,36.4707031 151.066893,36.4018562 151.468262,36.2641602 C151.869631,36.1264642 152.26367,35.9257826 152.650391,35.6621094 L153.274414,37.1210938 C152.91699,37.4316422 152.454104,37.6850576 151.885742,37.8813477 C151.31738,38.0776377 150.640629,38.1757812 149.855469,38.1757812 L149.855469,38.1757812 Z M149.609375,30.0283203 C149.076169,30.0283203 148.63965,30.2348612 148.299805,30.6479492 C147.959959,31.0610372 147.737305,31.6103481 147.631836,32.2958984 L151.463867,32.2958984 L151.463867,32.0761719 C151.463867,31.4609344 151.31299,30.9658222 151.01123,30.5908203 C150.709471,30.2158184 150.242191,30.0283203 149.609375,30.0283203 L149.609375,30.0283203 Z M160.648438,35.4160156 C160.648438,35.0820296 160.512208,34.8095714 160.239746,34.5986328 C159.967284,34.3876943 159.43848,34.1972665 158.65332,34.0273438 C157.493158,33.7812488 156.627444,33.4414084 156.056152,33.0078125 C155.48486,32.5742166 155.199219,31.970707 155.199219,31.1972656 C155.199219,30.3828084 155.531735,29.6987332 156.196777,29.1450195 C156.86182,28.5913058 157.753901,28.3144531 158.873047,28.3144531 C160.056647,28.3144531 160.986813,28.5971651 161.663574,29.1625977 C162.340335,29.7280302 162.678711,30.4560502 162.678711,31.3466797 L160.551758,31.3466797 C160.551758,30.9482402 160.405275,30.6098647 160.112305,30.331543 C159.819334,30.0532213 159.406253,29.9140625 158.873047,29.9140625 C158.3457,29.9140625 157.950197,30.0283192 157.686523,30.2568359 C157.42285,30.4853527 157.291016,30.7695296 157.291016,31.109375 C157.291016,31.4492204 157.414061,31.7143545 157.660156,31.9047852 C157.906251,32.0952158 158.42773,32.2695305 159.224609,32.4277344 C160.443365,32.6796888 161.335446,33.0239236 161.900879,33.4604492 C162.466311,33.8969748 162.749023,34.5107382 162.749023,35.3017578 C162.749023,36.1748091 162.401859,36.8720677 161.70752,37.3935547 C161.01318,37.9150417 160.077154,38.1757812 158.899414,38.1757812 C157.639642,38.1757812 156.656742,37.8623078 155.950684,37.2353516 C155.244625,36.6083953 154.891602,35.8642621 154.891602,35.0029297 L156.957031,35.0029297 C156.980469,35.5654325 157.176756,35.9682605 157.545898,36.2114258 C157.915041,36.4545911 158.374997,36.5761719 158.925781,36.5761719 C159.488284,36.5761719 159.916014,36.4736338 160.208984,36.2685547 C160.501955,36.0634755 160.648438,35.7792987 160.648438,35.4160156 L160.648438,35.4160156 Z" id="Design"></path>
                </g>
            </g>
        </g>
    </g>
</svg>