<?xml version="1.0" encoding="UTF-8" standalone="no"?>
<svg width="101px" height="27px" viewBox="0 0 101 27" version="1.1" xmlns="http://www.w3.org/2000/svg" xmlns:xlink="http://www.w3.org/1999/xlink" xmlns:sketch="http://www.bohemiancoding.com/sketch/ns">
    <!-- Generator: Sketch 3.2.2 (9983) - http://www.bohemiancoding.com/sketch -->
    <title>Imported Layers</title>
    <desc>Created with Sketch.</desc>
    <defs></defs>
    <g id="Page-1" stroke="none" stroke-width="1" fill="none" fill-rule="evenodd" sketch:type="MSPage">
        <g id="Секции_интерфейсы-(дизайн)" sketch:type="MSArtboardGroup" transform="translate(-470.000000, -22.000000)" fill="#000000">
            <g id="1_block" sketch:type="MSLayerGroup" transform="translate(0.000000, -2.000000)">
                <g id="menu" transform="translate(0.000000, 24.000000)" sketch:type="MSShapeGroup">
                    <g id="Imported-Layers" transform="translate(470.000000, 0.000000)">
                        <path d="M10.4958905,6.7010625 L10.492573,6.6991875 L10.492573,0.1035 L3.47989234,4.212375 L3.47989234,0.529875 L1.97005292,0.529875 L1.97005292,11.727 L8.98273358,7.5931875 L8.98273358,11.3008125 L10.492573,11.3008125 L10.492573,6.70275 L10.4958905,6.7010625 L10.4958905,6.7010625 Z M3.47989234,9.0661875 L3.47989234,5.9840625 L8.98273358,2.7643125 L8.98273358,5.81625 L3.47989234,9.0661875 L3.47989234,9.0661875 Z" id="Fill-1"></path>
                        <path d="M13.8016131,0.1035 L13.8016131,11.3008125 L15.3114526,11.3008125 L15.3114526,2.7643125 L19.307219,5.1114375 L20.8172427,4.2245625 L13.8016131,0.1035" id="Fill-2"></path>
                        <path d="M21.8491752,0.1035 L21.8491752,11.3008125 L23.3590146,11.3008125 L23.3590146,7.4585625 L28.8649891,4.2245625 L21.8491752,0.1035 L21.8491752,0.1035 Z M23.3590146,5.6848125 L23.3590146,2.7643125 L25.8453102,4.224375 L23.3590146,5.6848125 L23.3590146,5.6848125 Z" id="Fill-3"></path>
                        <path d="M31.4391989,4.2095625 L31.4391989,0.547875 L29.9293595,0.547875 L29.9293595,5.094 L29.923646,5.097375 L29.9293595,5.100375 L29.9293595,11.7451875 L36.9365109,7.6288125 L36.9365109,11.3008125 L38.4465347,11.3008125 L38.4465347,0.1035 L31.4391989,4.2095625 L31.4391989,4.2095625 Z M31.4391989,9.0841875 L31.4391989,6.1636875 L33.9249416,7.6243125 L31.4391989,9.0841875 L31.4391989,9.0841875 Z M32.7960639,5.187 L36.9365109,2.7643125 L36.9365109,7.6190625 L32.7960639,5.187 L32.7960639,5.187 Z" id="Fill-4"></path>
                        <path id="Fill-5" d="M50.4882044,13.8915 L50.4915219,13.889625 L50.4882044,13.88775 L50.4882044,13.8915"></path>
                        <path d="M20.775958,21.792375 L20.7730091,21.7906875 L20.7730091,15.1948125 L13.7599599,19.303875 L13.7599599,15.6211875 L12.2501204,15.6211875 L12.2501204,26.8185 L19.2626168,22.6845 L19.2626168,26.392125 L20.7730091,26.392125 L20.7730091,21.79425 L20.775958,21.792375 L20.775958,21.792375 Z M13.7599599,24.1575 L13.7599599,21.0755625 L19.2626168,17.8558125 L19.2626168,20.9075625 L13.7599599,24.1575 L13.7599599,24.1575 Z" id="Fill-6"></path>
                        <path d="M73.5211807,15.19425 L73.5211807,26.3915625 L75.0310201,26.3915625 L75.0310201,22.5495 L80.5368102,19.3155 L73.5211807,15.19425 L73.5211807,15.19425 Z M75.0310201,20.77575 L75.0310201,17.85525 L77.5171314,19.315125 L75.0310201,20.77575 L75.0310201,20.77575 Z" id="Fill-7"></path>
                        <path d="M60.9070547,15.6283125 L60.9070547,20.073375 L55.4043978,20.073375 L55.4043978,15.6283125 L53.8943741,15.6283125 L53.8943741,26.3911875 L55.4043978,26.3911875 L55.4043978,21.609375 L60.9070547,21.609375 L60.9070547,26.3911875 L62.4172628,26.3911875 L62.4172628,15.6283125 L60.9070547,15.6283125" id="Fill-8"></path>
                        <path d="M100.961664,18.872625 L95.452188,15.636375 L93.9460347,15.636375 L93.9460347,26.391 L95.463062,26.391 L100.961664,23.161125 L97.311104,21.016875 L100.961664,18.872625 L100.961664,18.872625 Z M97.9418011,23.161125 L95.4562427,24.621375 L95.4562427,21.700875 L95.8012646,21.90375 L97.9418011,23.161125 L97.9418011,23.161125 Z M95.4562427,20.332875 L95.4562427,17.412375 L97.9418011,18.872625 L95.4562427,20.332875 L95.4562427,20.332875 Z" id="Fill-9"></path>
                        <path id="Fill-10" d="M19.7515821,20.1369375 L19.7550839,20.134875 L19.7515821,20.1331875 L19.7515821,20.1369375"></path>
                        <path d="M30.1846241,18.6819375 L24.2589836,15.2011875 L22.7539361,16.083 L27.1795055,18.6819375 L23.2229964,21.00675 L27.1795055,23.331375 L22.7539361,25.9305 L24.2589836,26.812125 L30.1846241,23.331375 L26.2279307,21.00675 L30.1846241,18.6819375" id="Fill-11"></path>
                        <path d="M64.0013777,18.6669375 L69.9270182,15.1861875 L71.4320657,16.0678125 L67.0066807,18.6669375 L70.9630055,20.9915625 L67.0066807,23.316375 L71.4320657,25.9153125 L69.9270182,26.7969375 L64.0013777,23.316375 L67.9580712,20.9915625 L64.0013777,18.6669375" id="Fill-12"></path>
                        <path d="M50.9181916,21.792375 L50.9150584,21.7906875 L50.9150584,15.1948125 L43.9021934,19.303875 L43.9021934,15.6211875 L42.392354,15.6211875 L42.392354,26.8185 L49.405219,22.6845 L49.405219,26.392125 L50.9150584,26.392125 L50.9150584,21.79425 L50.9181916,21.792375 L50.9181916,21.792375 Z M43.9021934,24.1575 L43.9021934,21.0755625 L49.405219,17.8558125 L49.405219,20.9075625 L43.9021934,24.1575 L43.9021934,24.1575 Z" id="Fill-13"></path>
                        <path d="M49.405219,11.3053125 L45.0336515,13.8665625 L45.0336515,15.636375 L49.405219,13.075125 L49.405219,11.3053125" id="Fill-14"></path>
                        <path d="M86.6791953,15.2083125 C83.5277372,15.2083125 80.9726953,17.807625 80.9726953,21.0136875 C80.9726953,24.2199375 83.5277372,26.8190625 86.6791953,26.8190625 C89.8310219,26.8190625 92.3860639,24.2199375 92.3860639,21.0136875 C92.3860639,17.807625 89.8310219,15.2083125 86.6791953,15.2083125 L86.6791953,15.2083125 Z M86.6791953,25.2830625 C84.3619088,25.2830625 82.4829033,23.3715 82.4829033,21.0136875 C82.4829033,18.655875 84.3619088,16.7443125 86.6791953,16.7443125 C88.997219,16.7443125 90.8758558,18.655875 90.8758558,21.0136875 C90.8758558,23.3715 88.997219,25.2830625 86.6791953,25.2830625 L86.6791953,25.2830625 Z" id="Fill-15"></path>
                        <path d="M88.8650712,18.84825 L84.4935036,21.4095 L84.4935036,23.179125 L88.8650712,20.617875 L88.8650712,18.84825" id="Fill-16"></path>
                        <path d="M5.71239781,15.19425 L0.0180620438,26.391 L11.4069179,26.391 L5.71239781,15.19425 L5.71239781,15.19425 Z M5.71239781,18.5375625 L8.91564599,24.8405625 L2.50988686,24.8405625 L5.71239781,18.5375625 L5.71239781,18.5375625 Z" id="Fill-17"></path>
                        <path d="M39.8732518,26.391 L41.5736642,26.391 L35.8791442,15.19425 L30.1846241,26.391 L31.8850365,26.391 L33.8020091,22.621875 L37.9564635,22.621875 L39.8732518,26.391 L39.8732518,26.391 Z M34.583469,21.0855 L35.8791442,18.5375625 L37.1748193,21.0855 L34.583469,21.0855 L34.583469,21.0855 Z" id="Fill-18"></path>
                    </g>
                </g>
            </g>
        </g>
    </g>
</svg>