<?xml version="1.0" encoding="UTF-8" standalone="no"?>
<svg width="180px" height="39px" viewBox="0 0 180 39" version="1.1" xmlns="http://www.w3.org/2000/svg" xmlns:xlink="http://www.w3.org/1999/xlink" xmlns:sketch="http://www.bohemiancoding.com/sketch/ns">
    <!-- Generator: Sketch 3.2.2 (9983) - http://www.bohemiancoding.com/sketch -->
    <title>msft_logo_print</title>
    <desc>Created with Sketch.</desc>
    <defs></defs>
    <g id="III-Игры-Дизайнеров" stroke="none" stroke-width="1" fill="none" fill-rule="evenodd" sketch:type="MSPage">
        <g id="О-чемпионате-(дизайн)" sketch:type="MSArtboardGroup" transform="translate(-1200.000000, -1480.000000)">
            <g id="3_block" sketch:type="MSLayerGroup" transform="translate(-1.000000, 1280.000000)">
                <g id="logos" transform="translate(471.000000, 184.000000)" sketch:type="MSShapeGroup">
                    <g id="msft_logo_print" transform="translate(730.000000, 16.000000)">
                        <path d="M0,0 L18.28554,0 C18.2844417,6.18428571 18.28554,12.3685714 18.2844417,18.5528571 L0,18.5528571 L0,0" id="Fill-1" fill="#F25022"></path>
                        <path d="M20.152532,0 L38.438072,0 C38.438072,6.18428571 38.4391702,12.3685714 38.4369738,18.5528571 C32.342892,18.5517429 26.247712,18.5528571 20.1536303,18.5528571 C20.1514338,12.3685714 20.152532,6.18428571 20.152532,0" id="Fill-3" fill="#80BA01"></path>
                        <path d="M164.893838,7.06902857 C166.579622,5.95585714 168.757413,5.85222857 170.657352,6.38262857 C170.673826,7.52811429 170.659549,8.67471429 170.66504,9.82131429 C169.762294,9.41794286 168.700305,9.15497143 167.750336,9.55054286 C166.996949,9.85362857 166.548871,10.6380857 166.431361,11.4225429 C166.289689,12.4176 166.38194,13.4260286 166.357779,14.4266571 C168.286272,14.4311143 170.214765,14.4277714 172.143258,14.4288857 C172.157535,13.1586 172.127883,11.8872 172.159732,10.6169143 C173.471019,10.2380571 174.768029,9.81351429 176.072727,9.4146 C176.08371,11.0882571 176.057352,12.7630286 176.087004,14.4378 C177.390604,14.4188571 178.695302,14.4333429 180,14.4288857 L180,17.6870571 C178.690909,17.6324571 177.38072,17.6725714 176.071629,17.6681143 C176.07712,19.5412286 176.072727,21.4143429 176.073826,23.2885714 C176.094692,24.3259714 176.018914,25.3689429 176.138621,26.403 C176.211104,27.0125143 176.429652,27.6877714 176.993045,28.0031143 C177.936425,28.5390857 179.133496,28.3050857 180,27.7167429 L180,31.0072286 C178.869921,31.5053143 177.606955,31.6568571 176.384625,31.5688286 C175.224893,31.4819143 174.023429,31.0540286 173.266748,30.1180286 C172.392556,29.0605714 172.167419,27.6287143 172.149847,26.2893429 C172.139963,23.4144857 172.150946,20.5396286 172.145455,17.6636571 C170.215863,17.6625429 168.286272,17.6614286 166.357779,17.6647714 C166.355583,22.1765143 166.356681,26.6882571 166.356681,31.2 L162.401952,31.2 C162.401952,26.6893714 162.396461,22.1798571 162.404149,17.6692286 C161.487126,17.6514 160.569005,17.6736857 159.651983,17.6547429 C159.655278,16.5839143 159.659671,15.5119714 159.649786,14.4400286 C160.562416,14.4188571 161.476144,14.4277714 162.39097,14.4344571 C162.457962,13.0104 162.243807,11.5451143 162.663331,10.1578286 C163.01806,8.90537143 163.806589,7.77548571 164.893838,7.06902857" id="Fill-4" fill="#777777"></path>
                        <path d="M80.2224527,7.30302857 C81.0197682,7.18045714 81.8829774,7.4568 82.4112264,8.08971429 C83.0306284,8.7828 83.1448444,9.88594286 82.685784,10.6960286 C82.1784015,11.6097429 81.042831,12.0342857 80.0533252,11.8147714 C79.0264796,11.6275714 78.1709579,10.6592571 78.2170836,9.57951429 C78.1874314,8.44294286 79.1242221,7.43005714 80.2224527,7.30302857" id="Fill-5" fill="#777777"></path>
                        <path d="M49.9145821,7.8 L55.6660159,7.8 C57.4561318,12.4120286 59.2594265,17.0196 61.0517389,21.6316286 C61.509701,22.7849143 61.938011,23.9515714 62.4179378,25.0959429 C64.7209274,19.3328571 67.0568639,13.5842571 69.3422819,7.81337143 C71.1862111,7.78328571 73.0312386,7.80668571 74.876266,7.80222857 C74.8718731,15.6011143 74.8740696,23.4 74.8751678,31.1988857 C73.5441123,31.1955429 72.214155,31.2100286 70.8841977,31.1910857 C70.8984747,25.4358 70.8830995,19.6805143 70.8907871,13.9241143 C70.8929835,13.6656 70.8841977,13.4070857 70.866626,13.1485714 C70.7886516,13.2689143 70.7194631,13.3937143 70.6590604,13.5229714 C68.3736425,19.4142 66.0442953,25.2887143 63.7720561,31.1855143 C62.8253813,31.2200571 61.8776083,31.1877429 60.9298353,31.2033429 C58.5719341,25.3121143 56.2436852,19.4075143 53.8978646,13.5118286 C53.8363636,13.3892571 53.7704698,13.2700286 53.6990848,13.1552571 C53.6507627,15.6768857 53.6913972,18.2007429 53.6782184,20.7223714 C53.6793167,24.2145429 53.676022,27.7067143 53.6793167,31.1988857 C52.424039,31.2022286 51.1687614,31.1988857 49.9145821,31.2 C49.9134838,23.4 49.9123856,15.6 49.9145821,7.8" id="Fill-6" fill="#777777"></path>
                        <path d="M91.1059182,14.4132857 C93.0146431,13.8617143 95.0727273,13.884 96.9803539,14.4311143 C97.3735204,14.5425429 97.7546065,14.6974286 98.1082367,14.9080286 C98.0862721,16.1861143 98.1082367,17.4653143 98.0961562,18.7445143 C96.8211104,17.7561429 95.2034167,17.1299143 93.5824283,17.3371714 C92.295302,17.4552857 91.0674802,18.1327714 90.2976205,19.188 C89.3081147,20.4961714 89.0796827,22.2333429 89.2499085,23.8334571 C89.3773032,25.0859143 89.8879805,26.3372571 90.847834,27.1674 C91.8450275,28.0666286 93.243075,28.3853143 94.547773,28.2850286 C95.8370958,28.1346 97.0539353,27.5808 98.0961562,26.8074857 C98.1071385,28.0187143 98.090665,29.2299429 98.104942,30.4411714 C96.4883466,31.4172857 94.5499695,31.6691143 92.6994509,31.5766286 C90.8061013,31.4752286 88.9182428,30.7476 87.547651,29.3970857 C86.0584503,27.9407143 85.2501525,25.8636857 85.1546065,23.7833143 C85.0579622,21.6204857 85.4917633,19.3640571 86.7184869,17.5578 C87.7464308,16.0167429 89.3542404,14.9258571 91.1059182,14.4132857" id="Fill-7" fill="#777777"></path>
                        <path d="M117.899451,14.1246857 C119.797193,13.8795429 121.799268,13.9887429 123.56083,14.8021714 C125.089567,15.5019429 126.328371,16.7956286 127.014765,18.3444857 C127.747285,19.9936286 127.925198,21.8455714 127.801098,23.634 C127.679195,25.3800857 127.138865,27.1295143 126.062599,28.5168 C124.961074,29.9898857 123.300549,30.9882857 121.522514,31.3593429 C120.002563,31.6802571 118.412325,31.6791429 116.892373,31.3548857 C115.073703,30.9604286 113.390116,29.8896 112.323734,28.3318286 C111.071751,26.5266857 110.715924,24.2312571 110.875168,22.0684286 C110.982794,20.2332 111.545088,18.3834857 112.700427,16.9438286 C113.965589,15.3314571 115.906162,14.3798571 117.899451,14.1246857" id="Fill-8" fill="#777777"></path>
                        <path d="M134.30482,14.1581143 C136.133374,13.8316286 138.04759,14.0712 139.778401,14.7364286 C139.780598,15.9666 139.778401,17.1956571 139.7795,18.4247143 C138.570348,17.5812 137.093228,17.1276857 135.625991,17.1800571 C134.886882,17.2090286 134.074192,17.5266 133.737035,18.2397429 C133.469067,18.9450857 133.654667,19.8699429 134.310311,20.2922571 C135.431605,21.0533143 136.76925,21.3764571 137.931178,22.0584 C138.846004,22.5798857 139.733374,23.2618286 140.196827,24.2446286 C141.067724,26.0854286 140.698719,28.5179143 139.167785,29.8907143 C137.70604,31.2768857 135.600732,31.6602 133.664552,31.5866571 C132.289567,31.4964 130.907993,31.2211714 129.643929,30.6506571 C129.64942,29.3569714 129.636242,28.0644 129.650519,26.7718286 C130.713606,27.5551714 131.940329,28.1156571 133.238438,28.3429714 C134.142282,28.4922857 135.125198,28.4989714 135.967541,28.0889143 C136.773642,27.6822 136.918609,26.52 136.43978,25.8090857 C135.991702,25.2608571 135.333862,24.9588857 134.713362,24.6624857 C133.548139,24.1309714 132.323612,23.6863714 131.300061,22.8896571 C130.58072,22.3202571 130.035998,21.5179714 129.822941,20.6131714 C129.50665,19.2793714 129.605491,17.7762 130.36986,16.6106571 C131.242953,15.2523429 132.75961,14.4378 134.30482,14.1581143" id="Fill-9" fill="#777777"></path>
                        <path d="M149.419768,14.1191143 C151.393289,13.8706286 153.488713,14.0054571 155.289811,14.9280857 C156.860281,15.7248 158.078218,17.1644571 158.686638,18.8292 C159.162172,20.1028286 159.329103,21.4778571 159.301647,22.8339429 C159.304942,24.8597143 158.765711,26.9389714 157.51263,28.5457714 C156.339719,30.1013143 154.54521,31.1119714 152.650763,31.4295429 C150.798048,31.7337429 148.841001,31.6546286 147.080537,30.9515143 C145.29701,30.2394857 143.814399,28.7864571 143.063209,26.9969143 C142.280171,25.1728286 142.197804,23.1203143 142.441611,21.1714286 C142.697498,19.2225429 143.567297,17.3171143 145.049908,16.0212 C146.264552,14.9392286 147.828432,14.3263714 149.419768,14.1191143" id="Fill-10" fill="#777777"></path>
                        <path d="M106.95119,14.6862857 C108.042831,14.0210571 109.429896,13.9653429 110.621477,14.3720571 C110.615985,15.7103143 110.621477,17.0485714 110.618182,18.3868286 C109.838438,17.8742571 108.865406,17.6547429 107.945088,17.7494571 C106.822697,17.8787143 105.93313,18.7534286 105.471873,19.7562857 C104.97108,20.8182 104.876632,22.0194 104.908481,23.1804857 C104.908481,25.8536571 104.909579,28.5268286 104.908481,31.2 L101.009762,31.2 C101.006467,25.6129714 101.014155,20.0248286 101.006467,14.4378 C102.307871,14.4210857 103.609274,14.4277714 104.910677,14.4344571 C104.905186,15.3938571 104.910677,16.3532571 104.907383,17.3137714 C105.330201,16.2696857 105.959487,15.2556857 106.95119,14.6862857" id="Fill-11" fill="#777777"></path>
                        <path d="M78.576205,14.4344571 C79.8874924,14.4288857 81.199878,14.4155143 82.5111653,14.4411429 C82.4957901,20.0270571 82.5100671,25.6140857 82.504576,31.2 L78.5784015,31.2 C78.5751068,25.6118571 78.5794997,20.0237143 78.576205,14.4344571" id="Fill-12" fill="#777777"></path>
                        <path d="M119.078951,17.3093143 C120.267236,17.2302 121.532398,17.5711714 122.386821,18.4481143 C123.300549,19.3596 123.654179,20.6822571 123.751922,21.9436286 C123.822209,23.3242286 123.766199,24.7627714 123.195119,26.0419714 C122.817328,26.9044286 122.125442,27.6331714 121.252349,27.9786 C120.230995,28.3764 119.083344,28.3998 118.029042,28.1223429 C116.956071,27.8359714 116.045638,27.0492857 115.550336,26.0475429 C114.913362,24.7572 114.817816,23.2651714 114.949603,21.8500286 C115.069311,20.5630286 115.510799,19.2392571 116.477242,18.3511714 C117.177913,17.6870571 118.133374,17.3628 119.078951,17.3093143" id="Fill-13" fill="#FEFEFE"></path>
                        <path d="M150.487248,17.3126571 C151.604149,17.2335429 152.796827,17.4954 153.655644,18.2609143 C154.447468,18.9272571 154.885662,19.9256571 155.086638,20.9307429 C155.312874,22.1096571 155.310677,23.3298 155.119585,24.5142857 C154.968029,25.3968 154.667114,26.2770857 154.097132,26.9757429 C153.522758,27.6777429 152.668334,28.1056286 151.786455,28.2371143 C150.83978,28.3808571 149.842587,28.3117714 148.957413,27.9251143 C148.001952,27.5150571 147.261745,26.676 146.871873,25.7110286 C146.402929,24.5610857 146.309579,23.2874571 146.402929,22.0572857 C146.492984,20.8661143 146.825747,19.6437429 147.601098,18.7177714 C148.308359,17.8530857 149.393411,17.3750571 150.487248,17.3126571" id="Fill-14" fill="#FEFEFE"></path>
                        <path d="M176.071629,17.6681143 C177.38072,17.6725714 178.690909,17.6324571 180,17.6870571 L180,27.7167429 C179.133496,28.3050857 177.936425,28.5390857 176.993045,28.0031143 C176.429652,27.6877714 176.211104,27.0125143 176.138621,26.403 C176.018914,25.3689429 176.094692,24.3259714 176.073826,23.2885714 C176.072727,21.4143429 176.07712,19.5412286 176.071629,17.6681143" id="Fill-15" fill="#FEFEFE"></path>
                        <path d="M0,20.4460286 C6.09517999,20.4482571 12.19036,20.4449143 18.28554,20.4482571 C18.2866382,26.6325429 18.28554,32.8157143 18.28554,39 L0,39 L0,20.4460286" id="Fill-16" fill="#02A4EF"></path>
                        <path d="M20.1536303,20.4482571 C26.247712,20.4460286 32.342892,20.4471429 38.438072,20.4471429 L38.438072,39 L20.152532,39 C20.1536303,32.8157143 20.1514338,26.6314286 20.1536303,20.4482571" id="Fill-17" fill="#FFB902"></path>
                    </g>
                </g>
            </g>
        </g>
    </g>
</svg>