<?xml version="1.0" encoding="UTF-8" standalone="no"?>
<svg width="76px" height="70px" viewBox="0 0 76 70" version="1.1" xmlns="http://www.w3.org/2000/svg" xmlns:xlink="http://www.w3.org/1999/xlink" xmlns:sketch="http://www.bohemiancoding.com/sketch/ns">
    <!-- Generator: Sketch 3.2.2 (9983) - http://www.bohemiancoding.com/sketch -->
    <title>Shape</title>
    <desc>Created with Sketch.</desc>
    <defs></defs>
    <g id="Page-1" stroke="none" stroke-width="1" fill="none" fill-rule="evenodd" sketch:type="MSPage">
        <g id="Заглушка-для-входа-в-личный-кабинет" sketch:type="MSArtboardGroup" transform="translate(-918.000000, -300.000000)" fill="#C7A95F">
            <g id="1_block" sketch:type="MSLayerGroup" transform="translate(-2.000000, -2.000000)">
                <g id="Информация-будет-опу-+-Shape" transform="translate(701.000000, 302.000000)" sketch:type="MSShapeGroup">
                    <g id="traffic-cone" transform="translate(219.000000, 0.000000)">
                        <path d="M37.8999207,43.0853 C47.235977,43.0853 55.056389,39.9272151 55.5290512,35.8007028 C54.1384085,31.9269929 52.6227643,27.6954704 51.1344641,23.5417332 C50.103201,26.5014654 44.3960971,28.6016696 37.8999207,28.6016696 C31.4037444,28.6016696 25.6966405,26.5014654 24.6653774,23.5417332 C23.1770772,27.6954704 21.6614329,31.9269929 20.2746966,35.8007028 C20.7473588,39.9272151 28.5638645,43.0853 37.8999207,43.0853 L37.8999207,43.0853 Z M37.8999207,17.0077646 C42.2906016,17.0077646 46.3648722,15.6542997 47.5601999,13.5502063 C45.9156477,8.95309266 44.5054735,5.00548664 43.6109309,2.52024502 C43.0171733,0.85952801 40.3257329,0 37.8999207,0 C35.4741086,0 32.7826682,0.85952801 32.1889106,2.52024502 C31.2982743,5.00548664 29.8841938,8.95309266 28.2396416,13.5502063 C29.4349693,15.6542997 33.5131462,17.0077646 37.8999207,17.0077646 L37.8999207,17.0077646 Z M72.197232,46.9278958 L57.5290767,41.0395455 L59.2205044,45.7338908 C59.1345658,50.7082633 49.43913,54.6753157 37.8999207,54.6753157 C26.3646178,54.6753157 16.6613693,50.7121526 16.5793371,45.7338908 L18.2707648,41.0395455 L3.60260949,46.9278958 C-0.510724076,48.576945 -0.686507562,51.6300196 3.21979213,53.7107774 L30.8060805,68.4394316 C34.7045676,70.5201895 41.0913676,70.5201895 44.993761,68.4394316 L72.5839557,53.7107774 C76.4863491,51.6300196 76.3105656,48.576945 72.197232,46.9278958 L72.197232,46.9278958 Z" id="Shape"></path>
                    </g>
                </g>
            </g>
        </g>
    </g>
</svg>