<?xml version="1.0" encoding="UTF-8" standalone="no"?>
<svg width="31px" height="42px" viewBox="0 0 31 42" version="1.1" xmlns="http://www.w3.org/2000/svg" xmlns:xlink="http://www.w3.org/1999/xlink" xmlns:sketch="http://www.bohemiancoding.com/sketch/ns">
    <!-- Generator: Sketch 3.2.2 (9983) - http://www.bohemiancoding.com/sketch -->
    <title>Shape + Fill 1</title>
    <desc>Created with Sketch.</desc>
    <defs></defs>
    <g id="Page-1" stroke="none" stroke-width="1" fill="none" fill-rule="evenodd" sketch:type="MSPage">
        <g id="Group" sketch:type="MSLayerGroup" transform="translate(-591.000000, -335.000000)">
            <g id="Shape-+-Fill-1" transform="translate(591.000000, 335.000000)" sketch:type="MSShapeGroup">
                <path d="M0,14.7 C0,25.725 15.5,42 15.5,42 C15.5,42 31,25.725 31,14.7 C31,6.573 24.0692857,0 15.5,0 C6.93071429,0 0,6.573 0,14.7 Z" id="Shape" fill="#232323"></path>
                <path d="M21.0262162,17.3808115 L21.0222836,17.3786815 L21.0222836,9.50943396 L12.450711,14.4118268 L12.450711,10.0181695 L10.6052632,10.0181695 L10.6052632,23.3773585 L19.1768358,18.4451445 L19.1768358,22.868623 L21.0222836,22.868623 L21.0222836,17.3829416 L21.0262162,17.3808115 L21.0262162,17.3808115 Z M12.450711,20.2028204 L12.450711,16.525582 L19.1768358,12.6843271 L19.1768358,16.325354 L12.450711,20.2028204 L12.450711,20.2028204 Z" id="Fill-1" fill="#FFFFFF"></path>
            </g>
        </g>
    </g>
</svg>