<svg width="121" height="59" viewBox="0 0 121 59" xmlns="http://www.w3.org/2000/svg" xmlns:sketch="http://www.bohemiancoding.com/sketch/ns"><title>Shape</title><desc>Created with Sketch.</desc><path d="M118.465 4.501c-.26-2.853-2.795-4.884-5.566-4.44-10.539 1.691-35.247 11.496-52.399 11.496s-41.86-9.805-52.399-11.496c-2.771-.444-5.3 1.581-5.566 4.434-.859 9.318-2.535 34.129-2.535 37.888 0 5.048 21.006 16.617 36.3 16.617 14.835 0 17.848-16.617 24.2-16.617 6.353 0 9.365 16.617 24.2 16.617 15.294 0 36.3-11.569 36.3-16.617 0-3.759-1.676-28.569-2.535-37.881zm-72.122 29.682c-2.136 1.934-8.077 6.508-15.313 5.079-7.236-1.429-11.61-8.047-13.104-10.693-.363-.645-.248-1.46.266-1.928 2.136-1.934 8.077-6.508 15.319-5.079 7.236 1.429 11.61 8.047 13.104 10.693.357.645.242 1.46-.272 1.928zm56.731-5.614c-1.488 2.652-5.862 9.264-13.104 10.693-7.236 1.429-13.183-3.145-15.313-5.079-.52-.468-.629-1.283-.272-1.928 1.488-2.652 5.862-9.264 13.104-10.693 7.236-1.429 13.183 3.145 15.313 5.079.52.468.635 1.283.272 1.928z" sketch:type="MSShapeGroup" fill="#C7A95F"/></svg>