<svg width="120" height="120" viewBox="0 0 120 120" xmlns="http://www.w3.org/2000/svg" xmlns:sketch="http://www.bohemiancoding.com/sketch/ns"><title>Shape</title><desc>Created with Sketch.</desc><path d="M95.934 114.746c0-13.547-13.122-20.442-25.902-25.979-12.738-5.513-16.806-10.158-16.806-20.11 0-5.965 3.888-4.023 5.592-14.965.72-4.536 4.152-.072 4.812-10.429 0-4.126-1.878-5.151-1.878-5.151s.954-6.11 1.326-10.815c.384-4.928-2.388-15.441-13.806-18.669-1.992-2.057-3.342-5.32 2.802-8.589-13.44-.627-16.566 6.442-23.724 11.641-6.09 4.56-7.734 11.78-7.44 15.622.39 4.705 1.338 10.815 1.338 10.815s-1.884 1.025-1.884 5.151c.66 10.363 4.104 5.893 4.818 10.429 1.704 10.942 5.598 8.999 5.598 14.965 0 9.953-1.272 13.33-14.016 18.843-12.786 5.531-16.764 14.398-16.698 27.24.018 3.842-.066 5.254-.066 5.254h96s-.066-1.411-.066-5.254zm15.234-34.767c-6.81-2.757-9.63-6.044-9.63-12.462 0-3.866 2.508-2.606 3.612-9.669.462-2.919 2.682-.048 3.108-6.725 0-2.66-1.212-3.324-1.212-3.324s.618-3.957.858-6.991c.3-3.782-2.184-13.554-13.608-13.554-11.418 0-13.908 9.772-13.614 13.554.252 3.028.864 6.991.864 6.991s-1.212.657-1.212 3.324c.426 6.677 2.646 3.806 3.108 6.725 1.104 7.069 3.612 5.809 3.612 9.669 0 6.418-2.628 9.422-10.854 12.98-.414.175-.72.41-1.098.615 9.84 4.295 25.356 11.708 29.028 26.824h15.87v-13.982c0-6.032-1.638-11.062-8.832-13.976z" sketch:type="MSShapeGroup" fill="#C7A95F"/></svg>