<svg width="69" height="70" viewBox="0 0 69 70" xmlns="http://www.w3.org/2000/svg" xmlns:sketch="http://www.bohemiancoding.com/sketch/ns"><title>Shape</title><desc>Created with Sketch.</desc><path d="M39.023 51.569c0-5.52 4.217-8.575 11.094-13.094 8.41-5.539 18.883-12.421 18.883-28.759 0-1.472-1.215-2.659-2.718-2.659h-13.148c-1.855-3.409-7.394-7.057-18.634-7.057-11.247 0-16.779 3.648-18.638 7.057h-13.152c-1.499 0-2.71 1.191-2.71 2.659 0 16.339 10.465 23.22 18.883 28.756 6.877 4.519 11.094 7.574 11.094 13.094v4.987c-7.222.795-12.531 3.447-12.531 6.604 0 3.781 7.636 6.844 17.054 6.844s17.054-3.062 17.054-6.844c0-3.157-5.309-5.809-12.531-6.604v-4.983zm10.645-19.234c2.17-4.561 3.895-10.751 4.171-19.957h9.622c-.92 10.275-7.138 15.46-13.792 19.957zm-15.168-27.671c10.473-.008 14.563 4.242 14.559 5.817 0 1.59-4.086 5.832-14.559 5.839-10.473-.004-14.563-4.245-14.563-5.836-.004-1.575 4.09-5.828 14.563-5.82zm-28.961 7.715h9.618c.28 9.206 1.997 15.395 4.174 19.957-6.655-4.496-12.876-9.682-13.792-19.957z" sketch:type="MSShapeGroup" fill="#C7A95F"/></svg>