<?xml version="1.0" encoding="UTF-8" standalone="no"?>
<svg width="85px" height="71px" viewBox="0 0 85 71" version="1.1" xmlns="http://www.w3.org/2000/svg" xmlns:xlink="http://www.w3.org/1999/xlink" xmlns:sketch="http://www.bohemiancoding.com/sketch/ns">
    <!-- Generator: Sketch 3.2.2 (9983) - http://www.bohemiancoding.com/sketch -->
    <title>Shape</title>
    <desc>Created with Sketch.</desc>
    <defs></defs>
    <g id="III-Игры-Дизайнеров" stroke="none" stroke-width="1" fill="none" fill-rule="evenodd" sketch:type="MSPage">
        <g id="О-чемпионате-(дизайн)" sketch:type="MSArtboardGroup" transform="translate(-911.000000, -1841.000000)" fill="#C7A95F">
            <g id="5_block" sketch:type="MSLayerGroup" transform="translate(0.500000, 1762.000000)">
                <path d="M923.836188,97.6975792 C922.011037,96.2005623 919.275467,96.4571938 917.760979,98.2621684 L912.251007,104.844766 C910.740834,106.654017 910.995406,109.370034 912.816243,110.862773 L946.851219,138.844158 L930.424856,103.112503 L923.836188,97.6975792 L923.836188,97.6975792 Z M940.37905,83.5186906 L932.526153,87.0644821 C930.373078,88.0396817 929.410883,90.5931648 930.390337,92.7274831 L948.728148,132.61229 L949.647196,93.351953 L946.100447,85.6359002 C945.108048,83.4973047 942.53644,82.5434911 940.37905,83.5186906 L940.37905,83.5186906 Z M971.436829,84.3912376 C971.492921,82.0387825 969.594418,80.0712746 967.225605,80.0156711 L958.596047,79.8189203 C956.227233,79.7633168 954.242435,81.6452809 954.186343,83.9934589 L953.155111,127.804728 L971.234034,92.8729076 L971.436829,84.3912376 L971.436829,84.3912376 Z M992.924428,88.4545692 L985.248436,84.5494937 C983.138509,83.4801959 980.519439,84.3142482 979.436429,86.4057946 L951.860677,139.682487 C950.777668,141.774034 951.619049,144.370289 953.733291,145.443864 L961.409283,149.348939 C963.51921,150.422514 966.133966,149.588462 967.216975,147.496915 L994.792727,94.2202228 C995.875737,92.120122 995.034355,89.5281442 992.924428,88.4545692 L992.924428,88.4545692 Z M965.344361,141.731262 C964.257037,143.83564 961.655225,144.665415 959.536669,143.587563 C957.413798,142.509711 956.581045,139.934842 957.66837,137.830463 C958.755694,135.726085 961.353191,134.900588 963.476062,135.97844 C965.598933,137.052015 966.431685,139.631161 965.344361,141.731262 L965.344361,141.731262 Z" id="Shape" sketch:type="MSShapeGroup"></path>
            </g>
        </g>
    </g>
</svg>