<svg width="85" height="71" viewBox="0 0 85 71" xmlns="http://www.w3.org/2000/svg" xmlns:sketch="http://www.bohemiancoding.com/sketch/ns"><title>Shape</title><desc>Created with Sketch.</desc><path d="M13.336 18.698c-1.825-1.497-4.561-1.24-6.075.565l-5.51 6.583c-1.51 1.809-1.256 4.525.565 6.018l34.035 27.981-16.426-35.732-6.589-5.415zm16.543-14.179l-7.853 3.546c-2.153.975-3.115 3.529-2.136 5.663l18.338 39.885.919-39.26-3.547-7.716c-.992-2.139-3.564-3.092-5.721-2.117zm31.058.873c.056-2.352-1.842-4.32-4.211-4.376l-8.63-.197c-2.369-.056-4.354 1.826-4.41 4.175l-1.031 43.811 18.079-34.932.203-8.482zm21.488 4.063l-7.676-3.905c-2.11-1.069-4.729-.235-5.812 1.856l-27.576 53.277c-1.083 2.092-.242 4.688 1.873 5.761l7.676 3.905c2.11 1.074 4.725.24 5.808-1.852l27.576-53.277c1.083-2.1.242-4.692-1.868-5.766zm-27.58 53.277c-1.087 2.104-3.689 2.934-5.808 1.856-2.123-1.078-2.956-3.653-1.868-5.757 1.087-2.104 3.685-2.93 5.808-1.852 2.123 1.074 2.956 3.653 1.868 5.753z" sketch:type="MSShapeGroup" fill="#C7A95F"/></svg>