<svg width="863" height="63" viewBox="0 0 863 63" xmlns="http://www.w3.org/2000/svg" xmlns:sketch="http://www.bohemiancoding.com/sketch/ns"><title>Group</title><desc>Created with Sketch.</desc><g sketch:type="MSShapeGroup" fill="none"><path d="M33.5 35h803.366" stroke="#000" stroke-width="2" stroke-linecap="square"/><g fill="#fff"><path d="M0 10h50v50h-50z"/><path d="M170 10h41v41h-41z"/><path d="M331 0h44v44h-44z"/><path d="M491 10h47v50h-47z"/><path d="M650 19h40v32h-40z"/><path d="M810 10h53v53h-53z"/></g><path d="M195.989 44.124c0-2.258-2.187-3.407-4.317-4.33-2.123-.919-2.801-1.693-2.801-3.352 0-.994.648-.671.932-2.494.12-.756.692-.012.802-1.738 0-.688-.313-.859-.313-.859s.159-1.018.221-1.803c.064-.821-.398-2.574-2.301-3.111-.332-.343-.557-.887.467-1.432-2.24-.105-2.761 1.074-3.954 1.94-1.015.76-1.289 1.963-1.24 2.604.065.784.223 1.803.223 1.803s-.314.171-.314.859c.11 1.727.684.982.803 1.738.284 1.824.933 1.5.933 2.494 0 1.659-.212 2.222-2.336 3.141-2.131.922-2.794 2.4-2.783 4.54.003.64-.011.876-.011.876h16s-.011-.235-.011-.876zm2.539-5.795c-1.135-.459-1.605-1.007-1.605-2.077 0-.644.418-.434.602-1.612.077-.487.447-.008.518-1.121 0-.443-.202-.554-.202-.554s.103-.659.143-1.165c.05-.63-.364-2.259-2.268-2.259-1.903 0-2.318 1.629-2.269 2.259.042.505.144 1.165.144 1.165s-.202.11-.202.554c.071 1.113.441.634.518 1.121.184 1.178.602.968.602 1.612 0 1.07-.438 1.57-1.809 2.163l-.183.103c1.64.716 4.226 1.951 4.838 4.471h2.645v-2.33c0-1.005-.273-1.844-1.472-2.329zM25.317 39.885s4.806-.66 6.857-2.71c2.052-2.051 2.71-6.857 2.71-6.857s-4.807.66-6.857 2.71c-2.051 2.051-2.71 6.857-2.71 6.857zm3.749-5.821c.861-.861 2.509-1.473 3.923-1.854-.38 1.412-.994 3.072-1.852 3.926-.571.573-1.5.573-2.072 0-.573-.571-.573-1.499 0-2.073zm1.035-9.064c-5.579 0-10.101 4.522-10.101 10.1 0 5.579 4.522 10.101 10.101 10.101 5.577 0 10.1-4.522 10.1-10.101 0-5.578-4.523-10.1-10.1-10.1zm-.001 18.096c-4.416 0-7.996-3.579-7.996-7.996 0-4.416 3.579-7.996 7.996-7.996 4.416 0 7.997 3.579 7.997 7.996 0 4.416-3.581 7.996-7.997 7.996zM351.8 35.588h2.4v2.353h10.8s-.179-5.246-.24-6.887c-.06-1.56-.63-2.525-2.4-2.525h-3.85l-1.436-2.654c-.397-.733-.533-.875-1.415-.875h-5.32c-.882 0-1.016.142-1.415.875l-1.435 2.654h-3.851c-1.771 0-2.334.965-2.4 2.525-.065 1.561-.239 6.887-.239 6.887h10.8v-2.353zm-1.621-8.334c.276-.508.37-.607.98-.607h3.68c.611 0 .706.099.979.607l.69 1.275h-7.02l.69-1.275zm4.021 14.216h-2.4v-2.353h-10.2s.149 2.114.239 3.908c.037.745.262 1.974 2.16 1.974h18.001c1.898 0 2.118-1.232 2.16-1.974.104-1.845.24-3.908.24-3.908h-10.2v2.353zM505.39 38.074c.617 2.497 1.401 3.59 4.016 4.734 2.617 1.143 3.859 2.392 4.885 2.392 1.025 0 2.19-1.092 4.805-2.238 2.617-1.144 1.918-1.492 2.534-3.99l-7.34 3.57-8.901-4.468zm21.541-6.515l-11.064-6.196c-.866-.485-2.286-.485-3.152 0l-11.065 6.196c-.866.485-.866 1.28 0 1.765l11.064 6.196c.866.485 2.286.485 3.152 0l7.152-4.005-7.756-1.817c-.299.073-.627.114-.971.114-1.398 0-2.53-.672-2.53-1.503 0-.833 1.134-1.506 2.53-1.506 1.084 0 2.007.408 2.366.975l8.216 2.696 2.059-1.152c.865-.484.865-1.278 0-1.764zm-3.381 11.74c-.086.512 1.705 1.353 1.875-.142.769-6.74-.553-8.679-.553-8.679l-1.854 1.038c0-.001 1.572 1.495.532 7.784zM660.246 35.926c-.24.164-.318.509-.173.763l1.41 2.481c.145.254.476.359.736.23l4.305-2.119v7.611h2.175v-8.684l4.428-2.181-2.85-5.02-10.032 6.919zm18.74-8.684c-1.219-2.145-3.92-2.88-6.032-1.641-.99.58-1.64 1.503-1.959 2.531l3.237 5.701c1.034.234 2.146.122 3.138-.459 2.112-1.239 2.836-3.984 1.616-6.132zM831.311 40.471c0-1.656 1.222-2.572 3.216-3.928 2.438-1.662 5.473-3.726 5.473-8.628 0-.442-.352-.798-.788-.798h-3.811c-.538-1.023-2.143-2.117-5.401-2.117-3.26 0-4.863 1.094-5.402 2.117h-3.812c-.434 0-.786.357-.786.798 0 4.902 3.033 6.966 5.473 8.627 1.993 1.356 3.216 2.272 3.216 3.928v1.496c-2.093.239-3.632 1.034-3.632 1.981 0 1.134 2.213 2.053 4.943 2.053 2.73 0 4.943-.919 4.943-2.053 0-.947-1.539-1.743-3.632-1.981v-1.495zm3.086-5.77c.629-1.368 1.129-3.225 1.209-5.987h2.789c-.267 3.082-2.069 4.638-3.998 5.987zm-4.397-8.301c3.036-.002 4.221 1.272 4.22 1.745 0 .477-1.184 1.75-4.22 1.752-3.036-.001-4.221-1.274-4.221-1.751-.001-.472 1.186-1.748 4.221-1.746zm-8.394 2.314h2.788c.081 2.762.579 4.619 1.21 5.987-1.929-1.349-3.732-2.904-3.998-5.987z" fill="#232323"/></g></svg>