<svg width="36" height="36" viewBox="0 0 36 36" xmlns="http://www.w3.org/2000/svg" xmlns:sketch="http://www.bohemiancoding.com/sketch/ns"><title>Shape</title><desc>Created with Sketch.</desc><path d="M18.4.4c-9.665 0-17.5 7.835-17.5 17.5s7.835 17.5 17.5 17.5 17.5-7.835 17.5-17.5-7.835-17.5-17.5-17.5zm7.118 14.335l.009.445c0 4.557-3.465 9.809-9.805 9.809-1.947 0-3.759-.569-5.283-1.549.268.033.543.046.822.046 1.615 0 3.101-.549 4.28-1.475-1.508-.029-2.78-1.024-3.219-2.392.21.038.425.06.647.06.314 0 .62-.042.908-.12-1.577-.317-2.765-1.71-2.765-3.38v-.042c.465.257.997.414 1.562.432-.926-.62-1.533-1.673-1.533-2.871 0-.631.17-1.225.467-1.734 1.701 2.085 4.238 3.456 7.104 3.604-.06-.253-.089-.516-.089-.787 0-1.901 1.542-3.447 3.447-3.447.99 0 1.887.419 2.516 1.09.786-.157 1.522-.441 2.188-.837-.257.804-.802 1.48-1.515 1.909.698-.086 1.362-.27 1.98-.545-.461.691-1.046 1.3-1.719 1.785z" sketch:type="MSShapeGroup" fill="#44BCF2"/></svg>