<?xml version="1.0" encoding="UTF-8" standalone="no"?>
<svg width="36px" height="36px" viewBox="0 0 36 36" version="1.1" xmlns="http://www.w3.org/2000/svg" xmlns:xlink="http://www.w3.org/1999/xlink" xmlns:sketch="http://www.bohemiancoding.com/sketch/ns">
    <!-- Generator: Sketch 3.2.2 (9983) - http://www.bohemiancoding.com/sketch -->
    <title>Shape</title>
    <desc>Created with Sketch.</desc>
    <defs></defs>
    <g id="III-Игры-Дизайнеров" stroke="none" stroke-width="1" fill="none" fill-rule="evenodd" sketch:type="MSPage">
        <g id="Guidline" sketch:type="MSArtboardGroup" transform="translate(-127.000000, -1400.000000)" fill="#44BCF2">
            <g id="Buttons" sketch:type="MSLayerGroup" transform="translate(75.000000, 1070.000000)">
                <g id="Обычное-состояние-" transform="translate(2.000000, 76.000000)" sketch:type="MSShapeGroup">
                    <g id="twitter-with-circle" transform="translate(50.500000, 254.000000)">
                        <path d="M17.9,0.4 C8.23489583,0.4 0.4,8.23489583 0.4,17.9 C0.4,27.5651042 8.23489583,35.4 17.9,35.4 C27.5651042,35.4 35.4,27.5651042 35.4,17.9 C35.4,8.23489583 27.5651042,0.4 17.9,0.4 L17.9,0.4 Z M25.0184896,14.7354167 C25.0257812,14.8848958 25.0276042,15.034375 25.0276042,15.1802083 C25.0276042,19.7375 21.5622396,24.9893229 15.2221354,24.9893229 C13.2752604,24.9893229 11.4632812,24.4205729 9.93932292,23.4398437 C10.2072917,23.4726562 10.4825521,23.4854167 10.7614583,23.4854167 C12.3765625,23.4854167 13.8622396,22.9367187 15.0416667,22.0106771 C13.5341146,21.9815104 12.2617187,20.9861979 11.8223958,19.6190104 C12.0320312,19.6572917 12.2471354,19.6791667 12.4695312,19.6791667 C12.7830729,19.6791667 13.0893229,19.6372396 13.3773437,19.5588542 C11.8005208,19.2416667 10.6119792,17.8489583 10.6119792,16.1791667 L10.6119792,16.1372396 C11.0768229,16.3942708 11.6091146,16.5510417 12.1742187,16.5692708 C11.2481771,15.9494792 10.6411458,14.8958333 10.6411458,13.6981771 C10.6411458,13.0674479 10.8106771,12.4731771 11.1078125,11.9645833 C12.8085937,14.05 15.3460937,15.4208333 18.2117187,15.5684896 C18.1515625,15.3151042 18.1223958,15.0526042 18.1223958,14.7809896 C18.1223958,12.8796875 19.6645833,11.3338542 21.5695312,11.3338542 C22.559375,11.3338542 23.45625,11.753125 24.0851562,12.4239583 C24.8708333,12.2671875 25.6072917,11.9828125 26.2726562,11.5872396 C26.015625,12.3911458 25.4705729,13.0674479 24.7578125,13.4958333 C25.4559896,13.4101562 26.1195312,13.2260417 26.7375,12.9507812 C26.2763021,13.6416667 25.6911458,14.2505208 25.0184896,14.7354167 L25.0184896,14.7354167 Z" id="Shape"></path>
                    </g>
                </g>
            </g>
        </g>
    </g>
</svg>