<svg width="36" height="36" viewBox="0 0 36 36" xmlns="http://www.w3.org/2000/svg" xmlns:sketch="http://www.bohemiancoding.com/sketch/ns"><title>Shape</title><desc>Created with Sketch.</desc><path d="M18.3.8c-9.665 0-17.5 7.835-17.5 17.5s7.835 17.5 17.5 17.5 17.5-7.835 17.5-17.5-7.835-17.5-17.5-17.5zm6.73 19.744s1.548 1.528 1.929 2.237l.02.036c.155.261.191.463.115.614-.128.252-.565.376-.715.386h-2.734c-.19 0-.587-.049-1.068-.381-.37-.259-.735-.684-1.09-1.097-.53-.616-.99-1.148-1.453-1.148l-.173.027c-.35.113-.798.612-.798 1.943 0 .416-.328.654-.56.654h-1.252c-.427 0-2.649-.149-4.617-2.226-2.41-2.543-4.579-7.643-4.597-7.691-.137-.33.146-.507.454-.507h2.762c.368 0 .489.224.572.423.098.232.459 1.152 1.052 2.188.961 1.688 1.549 2.373 2.022 2.373.089 0 .171-.024.253-.066.616-.343.501-2.539.474-2.995 0-.086-.002-.983-.317-1.413-.226-.312-.611-.43-.844-.474.06-.089.195-.226.363-.308.423-.211 1.185-.242 1.941-.242h.421c.82.011 1.032.064 1.329.139.602.144.614.532.561 1.861-.016.377-.033.804-.033 1.307l-.005.35c-.018.676-.04 1.444.438 1.759.062.038.133.06.208.06.166 0 .665 0 2.018-2.321.592-1.024 1.052-2.233 1.085-2.322.027-.047.108-.193.202-.25.075-.044.175-.053.226-.053h3.247c.354 0 .596.053.642.19.08.217-.015.879-1.497 2.886l-.662.873c-1.343 1.761-1.343 1.85.084 3.186z" sketch:type="MSShapeGroup" fill="#3D648D"/></svg>