<?xml version="1.0" encoding="UTF-8" standalone="no"?>
<svg width="12px" height="12px" viewBox="0 0 12 12" version="1.1" xmlns="http://www.w3.org/2000/svg" xmlns:xlink="http://www.w3.org/1999/xlink" xmlns:sketch="http://www.bohemiancoding.com/sketch/ns">
    <!-- Generator: Sketch 3.2.2 (9983) - http://www.bohemiancoding.com/sketch -->
    <title>Shape</title>
    <desc>Created with Sketch.</desc>
    <defs></defs>
    <g id="Page-1" stroke="none" stroke-width="1" fill="none" fill-rule="evenodd" sketch:type="MSPage">
        <g id="Промежуточная-страница-для-секций-3" sketch:type="MSArtboardGroup" transform="translate(-500.000000, -275.000000)" fill="#C7A95F">
            <g id="1" sketch:type="MSLayerGroup" transform="translate(468.000000, 132.000000)">
                <path d="M38.7866667,151.840389 C38.7866667,150.894136 39.52,150.370469 40.716,149.595728 C42.1786667,148.646215 44,147.466496 44,144.665562 C44,144.413184 43.7886667,144.209717 43.5273333,144.209717 L41.2406667,144.209717 C40.918,143.625401 39.9546667,143 38,143 C36.044,143 35.082,143.625401 34.7586667,144.209717 L32.4713333,144.209717 C32.2106667,144.209717 32,144.413836 32,144.665562 C32,147.466496 33.82,148.646215 35.284,149.595076 C36.48,150.369817 37.2133333,150.893484 37.2133333,151.839737 L37.2133333,152.694691 C35.9573333,152.830987 35.034,153.285528 35.034,153.826803 C35.034,154.475029 36.362,155 38,155 C39.638,155 40.966,154.475029 40.966,153.826803 C40.966,153.285528 40.0426667,152.830987 38.7866667,152.694691 L38.7866667,151.840389 L38.7866667,151.840389 Z M40.638,148.543177 C41.0153333,147.761263 41.3153333,146.700234 41.3633333,145.122059 L43.0366667,145.122059 C42.8766667,146.883485 41.7953333,147.772349 40.638,148.543177 L40.638,148.543177 Z M38,143.799522 C39.8213333,143.798217 40.5326667,144.526656 40.532,144.796641 C40.532,145.069235 39.8213333,145.79637 38,145.797674 C36.1786667,145.797022 35.4673333,145.069888 35.4673333,144.797294 C35.4666667,144.527308 36.1786667,143.798217 38,143.799522 L38,143.799522 Z M32.9633333,145.122059 L34.636,145.122059 C34.6846667,146.700234 34.9833333,147.761263 35.362,148.543177 C34.2046667,147.772349 33.1226667,146.883485 32.9633333,145.122059 L32.9633333,145.122059 Z" id="Shape" sketch:type="MSShapeGroup"></path>
            </g>
        </g>
    </g>
</svg>