<?xml version="1.0" encoding="UTF-8" standalone="no"?>
<svg width="36px" height="36px" viewBox="0 0 36 36" version="1.1" xmlns="http://www.w3.org/2000/svg" xmlns:xlink="http://www.w3.org/1999/xlink" xmlns:sketch="http://www.bohemiancoding.com/sketch/ns">
    <!-- Generator: Sketch 3.2.2 (9983) - http://www.bohemiancoding.com/sketch -->
    <title>Shape</title>
    <desc>Created with Sketch.</desc>
    <defs></defs>
    <g id="III-Игры-Дизайнеров" stroke="none" stroke-width="1" fill="none" fill-rule="evenodd" sketch:type="MSPage">
        <g id="Guidline" sketch:type="MSArtboardGroup" transform="translate(-177.000000, -1400.000000)" fill="#D0011B">
            <g id="Buttons" sketch:type="MSLayerGroup" transform="translate(75.000000, 1070.000000)">
                <g id="Обычное-состояние-" transform="translate(2.000000, 76.000000)" sketch:type="MSShapeGroup">
                    <g id="youtube-with-circle" transform="translate(100.500000, 254.000000)">
                        <path d="M20.8221354,17.5955729 L16.7278646,15.6851562 C16.3705729,15.5192708 16.0770833,15.7052083 16.0770833,16.1007812 L16.0770833,19.6992187 C16.0770833,20.0947917 16.3705729,20.2807292 16.7278646,20.1148437 L20.8203125,18.2044271 C21.1794271,18.0367187 21.1794271,17.7632812 20.8221354,17.5955729 L20.8221354,17.5955729 Z M17.9,0.4 C8.23489583,0.4 0.4,8.23489583 0.4,17.9 C0.4,27.5651042 8.23489583,35.4 17.9,35.4 C27.5651042,35.4 35.4,27.5651042 35.4,17.9 C35.4,8.23489583 27.5651042,0.4 17.9,0.4 L17.9,0.4 Z M17.9,25.009375 C8.9421875,25.009375 8.78541667,24.2018229 8.78541667,17.9 C8.78541667,11.5981771 8.9421875,10.790625 17.9,10.790625 C26.8578125,10.790625 27.0145833,11.5981771 27.0145833,17.9 C27.0145833,24.2018229 26.8578125,25.009375 17.9,25.009375 L17.9,25.009375 Z" id="Shape"></path>
                    </g>
                </g>
            </g>
        </g>
    </g>
</svg>