<svg width="36" height="36" viewBox="0 0 36 36" xmlns="http://www.w3.org/2000/svg" xmlns:sketch="http://www.bohemiancoding.com/sketch/ns"><title>Shape</title><desc>Created with Sketch.</desc><path d="M21.322 17.596l-4.094-1.91c-.357-.166-.651.02-.651.416v3.598c0 .396.293.582.651.416l4.092-1.91c.359-.168.359-.441.002-.609zm-2.922-17.196c-9.665 0-17.5 7.835-17.5 17.5s7.835 17.5 17.5 17.5 17.5-7.835 17.5-17.5-7.835-17.5-17.5-17.5zm0 24.609c-8.958 0-9.115-.808-9.115-7.109 0-6.302.157-7.109 9.115-7.109s9.115.808 9.115 7.109c0 6.302-.157 7.109-9.115 7.109z" sketch:type="MSShapeGroup" fill="#D0011B"/></svg>