<?xml version="1.0" encoding="UTF-8" standalone="no"?>
<svg width="83px" height="45px" viewBox="0 0 83 45" version="1.1" xmlns="http://www.w3.org/2000/svg" xmlns:xlink="http://www.w3.org/1999/xlink" xmlns:sketch="http://www.bohemiancoding.com/sketch/ns">
    <!-- Generator: Sketch 3.2.2 (9983) - http://www.bohemiancoding.com/sketch -->
    <title>10</title>
    <desc>Created with Sketch.</desc>
    <defs></defs>
    <g id="Page-1" stroke="none" stroke-width="1" fill="none" fill-rule="evenodd" sketch:type="MSPage">
        <g id="Партнёры" sketch:type="MSArtboardGroup" transform="translate(-570.000000, -1802.000000)" fill="#FFFFFF">
            <g id="2_block" sketch:type="MSLayerGroup" transform="translate(469.000000, 142.000000)">
                <g id="5" transform="translate(0.000000, 1476.000000)" sketch:type="MSShapeGroup">
                    <g id="10" transform="translate(101.000000, 184.000000)">
                        <path d="M25.5059423,13.4404792 C21.1828964,16.8153355 21.2079796,16.6512939 20.1980289,17.2023642 C19.188219,17.7535783 19.0708353,20.1277955 19.0708353,20.1277955 C19.1646859,21.6133706 18.9533107,24.620607 22.5114601,21.259984 C26.0696095,17.899361 32.5283905,12.3642173 33.8669593,5.82268371 C35.2056689,-0.71884984 29.3811545,-1.82113419 19.352528,3.1150639 C9.32404244,8.05111821 3.85182003,11.7891374 4.60332937,16.2460064 C5.2005348,19.7873482 15.7905739,26.8704633 16.7691002,30.862524 C17.6850594,34.5991054 11.8058693,36.3680511 5.35483871,32.6342013 C2.91232767,31.2205112 1.31771307,28.4540895 4.60332937,26.8355272 C5.28438031,26.5001118 3.56998642,24.3912939 0.657658744,28.2970927 C-2.25466893,32.2028914 6.64662309,39.8222684 15.8531409,37.6901597 C23.1808149,35.6768051 19.7752784,28.4164217 14.4675059,23.9356869 C13.8881969,23.4467252 8.94835823,18.5683227 8.57239219,17.4181629 C8.19670798,16.2680032 8.4785416,14.8541693 12.4006791,12.2184345 C16.3229576,9.58255591 22.545562,4.89479233 28.8644126,3.47233227 C33.8669593,2.34618211 31.3070645,8.91172524 25.5059423,13.4404792" id="Fill-1"></path>
                        <path d="M74.3601087,36.3648882 C64.868798,31.9888179 45.1169117,32.7315335 37.3900204,38.003147 C37.483871,37.6198562 41.2652326,28.5862141 50.8945008,21.6613898 C52.0922937,20.7747604 50.7769762,17.8034665 48.9450577,19.1694249 C47.0662139,20.3434505 44.0835688,23.7459105 43.6608183,23.9376997 C43.2380679,24.1294888 41.0655535,24.5008466 39.2805603,25.746901 C40.2317487,23.6620927 43.7546689,20.031901 46.9957555,17.827476 C48.12309,17.1326358 46.9019049,13.5383866 43.942652,15.7428115 C40.9832581,17.9472364 38.3762971,20.9664058 37.8127708,21.5416294 C37.2489626,22.1165655 36.7088285,21.5895048 33.3972835,24.3930192 C34.6421426,22.5 37.3194211,19.3610703 38.7756553,18.4025559 C39.221798,18.043131 38.6347385,15.0239617 36.8497453,16.4137859 C36.4269949,15.4552716 33.5617334,11.4775879 25.2476418,20.8946645 C17.1037776,31.2699681 23.9558574,31.5096326 24.1672326,31.5096326 C24.9775042,31.1801118 25.0479626,29.365016 27.9543718,27.6218051 C28.4475806,29.1134185 29.963,30.5608946 30.520326,30.4552236 C31.0252309,30.3594728 31.1544516,29.149361 32.258253,28.1669808 C32.9177436,27.5801118 35.0002122,25.5191693 35.4405772,25.5551118 C34.6831494,26.7412141 33.7802954,28.7166134 33.8376486,29.3470447 C33.8904924,29.9281629 35.1763582,31.6473642 35.7224109,31.4676518 C36.2684635,31.2879393 39.0163413,27.9632588 40.2845925,27.909345 C39.4567063,28.9516773 31.9225891,38.2436741 31.2483022,42.0706869 C30.9664686,43.6701278 32.8512309,45.2695687 33.3620543,44.784345 C37.8713922,40.327476 53.1256367,31.3777955 74.2631579,37.0207668 C74.5097623,37.0926518 74.6859083,36.5894569 74.3601087,36.3648882 L74.3601087,36.3648882 Z M30.9253209,22.6318371 C29.5220713,23.2608307 27.5199253,24.4469329 26.8387334,25.2855431 C26.9972649,22.6738179 32.6281596,18.318738 33.820034,18.6002396 C33.820034,18.6002396 33.8596316,18.8069808 33.7671902,18.9057508 C32.7764041,19.9525399 31.6241273,21.4877157 30.9253209,22.6318371 L30.9253209,22.6318371 Z" id="Fill-2"></path>
                        <path d="M73.4968523,17.6027636 C71.3126418,18.9416933 68.9083192,21.0352716 67.2877759,23.5423323 C66.4598896,23.8028435 63.8925263,25.2271725 63.5095144,25.3483706 C64.8217317,22.6482268 67.3172275,21.3918211 66.3937997,19.9660543 C65.8653616,19.184377 64.6103565,18.6991534 60.7879881,21.0713578 C60.4445739,21.3228115 61.3540509,20.1973802 61.5278014,19.9569968 C64.0290747,16.4976038 72.8363752,5.69688498 74.0693973,4.33107029 C75.3024194,2.96525559 72.7306876,0.08985623 71.4448217,1.58146965 C69.7438149,3.55456869 51.8866961,26.771262 51.2349559,27.867508 C50.5832156,28.963754 52.315365,31.2340256 52.8085739,31.2699681 C53.3017827,31.3059105 53.4250849,31.2340256 53.8830645,30.5870607 C54.3410441,29.9400958 59.6078098,23.5063898 61.8448642,23.2727636 C60.9641341,24.2432109 57.7582767,27.909345 59.4140492,30.317492 C59.8720289,30.7488019 62.338073,27.3881789 65.8786078,26.2559904 C65.4558574,28.1429712 65.2797114,30.5690895 66.8121817,31.3598243 C68.344652,32.1505591 71.024326,30.634361 74.3775823,26.1751917 C74.5449915,25.9864217 74.4569185,25.3035144 74.2455433,25.2766294 C74.0341681,25.2496006 73.6642615,25.4652556 73.3032326,25.887508 C72.9420628,26.3099042 69.4632496,29.7692971 68.3094228,28.7360224 C67.1557368,27.7027476 70.4760187,23.497476 71.61209,22.5539137 C72.7483022,21.6104952 74.4216893,20.4422204 75.0205857,20.0199681 C75.6194822,19.5975719 75.6812037,16.2639776 73.4968523,17.6027636" id="Fill-3"></path>
                        <path d="M81.8609694,11.7291853 C80.1974465,11.5878594 76.7703497,13.1309425 76.0657657,14.406901 C75.3611817,15.6828594 76.3475993,16.4376518 77.1226418,16.2040256 C77.8976842,15.9703994 80.4341868,15.287492 81.3325314,15.1257508 C82.2308761,14.9640096 82.9178455,13.2207987 82.9178455,12.6457188 C82.9178455,12.070639 82.2837199,11.7651278 81.8609694,11.7291853" id="Fill-4"></path>
                    </g>
                </g>
            </g>
        </g>
    </g>
</svg>