<?xml version="1.0" encoding="UTF-8" standalone="no"?>
<svg width="71px" height="45px" viewBox="0 0 71 45" version="1.1" xmlns="http://www.w3.org/2000/svg" xmlns:xlink="http://www.w3.org/1999/xlink" xmlns:sketch="http://www.bohemiancoding.com/sketch/ns">
    <!-- Generator: Sketch 3.2.2 (9983) - http://www.bohemiancoding.com/sketch -->
    <title>9</title>
    <desc>Created with Sketch.</desc>
    <defs></defs>
    <g id="Page-1" stroke="none" stroke-width="1" fill="none" fill-rule="evenodd" sketch:type="MSPage">
        <g id="Партнёры" sketch:type="MSArtboardGroup" transform="translate(-469.000000, -1802.000000)">
            <g id="2_block" sketch:type="MSLayerGroup" transform="translate(469.000000, 142.000000)">
                <g id="5" transform="translate(0.000000, 1476.000000)" sketch:type="MSShapeGroup">
                    <g id="9" transform="translate(0.000000, 184.000000)">
                        <g id="Imported-Layers">
                            <path d="M21.313,1.8625 L21.313,10.38125 L28.283,17.35125 L21.313,24.32125 L21.313,28.58075 L25.57225,28.58075 L32.54225,21.61075 L39.5125,28.58075 L48.03125,28.58075 L21.313,1.8625 L21.313,1.8625 Z M43.59375,12.364 L37.52975,6.3 L43.59375,6.3 L43.59375,12.364 L43.59375,12.364 Z M31.71175,6.3 L43.59375,18.182 L43.59375,20.88225 L49.6595,26.94825 L49.6595,0.23425 L22.9455,0.23425 L29.01125,6.3 L31.71175,6.3 L31.71175,6.3 Z" id="Fill-1" fill="#E46A35"></path>
                            <path d="M0.05325,44.709 L5.55,32.367 L7.612,32.367 L13.46625,44.709 L11.30225,44.709 L9.6485,40.95625 L3.62075,40.95625 L2.07425,44.709 L0.05325,44.709 L0.05325,44.709 Z M69.08175,41.82825 L70.8885,42.022 C70.2915,43.95575 68.7705,44.92025 66.33075,44.92025 C65.2945,44.92025 64.4065,44.73525 63.67675,44.36975 C62.94175,44.00425 62.38025,43.48 61.98725,42.79725 C61.59425,42.1145 61.39525,41.2865 61.39525,40.313 C61.39525,38.8595 61.829,37.7055 62.6915,36.851 C63.55925,35.992 64.73825,35.56475 66.23375,35.56475 C66.5605,35.56475 66.87175,35.587 67.173,35.631 C67.45875,35.6705 67.7395,35.73675 68.01,35.82025 C68.2755,35.9085 68.5255,36.01425 68.75525,36.14625 C68.995,36.274 69.2145,36.41925 69.4135,36.58225 C69.62275,36.763 69.81175,36.961 69.98,37.1725 C70.15875,37.39725 70.31175,37.635 70.4395,37.88175 C70.562,38.13275 70.659,38.4015 70.7405,38.69225 C70.82225,38.9785 70.87325,39.278 70.90375,39.59525 C70.914,39.68775 70.91925,40.02675 70.91925,40.6125 L63.202,40.6125 C63.26325,41.55525 63.5695,42.304 64.131,42.8545 C64.68725,43.405 65.4275,43.67825 66.346,43.67825 C67.663,43.67825 68.57125,43.0615 69.08175,41.82825 L69.08175,41.82825 Z M63.294,39.3705 L69.08175,39.3705 C69,38.5115 68.699,37.8685 68.16825,37.44575 C67.6425,37.0185 66.9995,36.807 66.239,36.807 C65.6825,36.807 65.1925,36.91275 64.77425,37.124 C64.3555,37.331 64.0135,37.62625 63.74825,38.005 C63.488,38.38375 63.33475,38.8375 63.294,39.3705 L63.294,39.3705 Z M52.4735,44.709 L50.8505,44.709 L50.8505,33.5645 L52.596,32.65875 L52.596,36.75425 C53.331,35.96125 54.28025,35.56475 55.43375,35.56475 C56.327,35.56475 57.09775,35.75 57.74075,36.11975 C58.38375,36.48975 58.88925,37.014 59.26175,37.69225 C59.6345,38.375 59.82325,39.17675 59.82325,40.106 C59.82325,41.2325 59.5655,42.19525 59.04775,42.9915 C58.96175,43.11525 58.87475,43.2355 58.7865,43.35225 C58.72475,43.42875 58.66025,43.50375 58.593,43.577 C57.7715,44.471 56.6945,44.92025 55.35225,44.92025 C54.12725,44.92025 53.16775,44.48 52.4735,43.599 L52.4735,44.709 L52.4735,44.709 Z M52.44275,40.17225 C52.44275,41.06175 52.555,41.73575 52.77975,42.20275 C52.99925,42.6695 53.326,43.03075 53.75475,43.2905 C54.18325,43.5505 54.658,43.67825 55.18375,43.67825 C56.05125,43.67825 56.73525,43.35675 57.25075,42.7135 C57.76125,42.0705 58.0165,41.247 58.0165,40.23375 C58.0165,39.52025 57.904,38.9035 57.6745,38.3925 C57.44475,37.87725 57.12825,37.48525 56.72525,37.2165 C56.327,36.9435 55.84225,36.807 55.2755,36.807 C54.362,36.807 53.65775,37.13725 53.17275,37.798 C52.68775,38.45875 52.44275,39.24725 52.44275,40.17225 L52.44275,40.17225 Z M46.4915,44.709 L46.4915,43.3875 C45.7005,44.40925 44.61325,44.92025 43.22525,44.92025 C42.59225,44.92025 42.046,44.841 41.58675,44.687 C41.1275,44.53275 40.75475,44.29925 40.46375,43.991 C40.178,43.68275 39.984,43.32575 39.882,42.9295 C39.77475,42.52875 39.72375,41.987 39.72375,41.3085 L39.72375,35.77625 L41.4695,35.77625 L41.4695,40.72275 C41.4695,41.498 41.5,42.022 41.56625,42.29075 C41.6275,42.5595 41.75,42.79725 41.9185,42.99125 C42.092,43.18925 42.3165,43.339 42.59225,43.44475 C42.86775,43.546 43.1995,43.599 43.5875,43.599 C44.2765,43.599 44.83275,43.4625 45.2565,43.19375 C45.68,42.9205 45.961,42.57275 46.09875,42.141 C46.2365,41.71375 46.30775,41.18525 46.30775,40.55975 L46.30775,35.77625 L48.084,35.77625 L48.084,44.709 L46.4915,44.709 L46.4915,44.709 Z M33.10475,44.709 L33.10475,33.8205 L28.3885,33.8205 L28.3885,32.367 L39.71925,32.367 L39.71925,33.8205 L35.00325,33.8205 L35.00325,44.709 L33.10475,44.709 L33.10475,44.709 Z M26.3855,43.33475 L26.64075,44.687 C26.1405,44.7705 25.70175,44.81475 25.30875,44.81475 C24.7625,44.81475 24.30825,44.74425 23.94075,44.60325 C23.5785,44.46225 23.308,44.2465 23.1345,43.9645 C22.961,43.67825 22.874,43.05275 22.874,42.08375 L22.874,36.939 L21.588,36.939 L21.588,35.77625 L22.874,35.77625 L22.874,33.5635 L24.61975,32.65775 L24.61975,35.77625 L26.39575,35.77625 L26.39575,36.939 L24.61975,36.939 L24.61975,42.163 C24.61975,42.56825 24.65025,42.84125 24.7115,42.98225 C24.76775,43.12325 24.87475,43.2245 25.02275,43.2905 C25.176,43.35675 25.37,43.3875 25.60975,43.3875 C25.809,43.3875 26.06925,43.37 26.3855,43.33475 L26.3855,43.33475 Z M14.73725,44.709 L14.73725,35.77625 L16.32975,35.77625 L16.32975,37.133 C16.988,36.089 17.7385,35.56475 18.5755,35.56475 C19.1625,35.56475 19.76475,35.73225 20.372,36.067 L19.76975,37.46775 C19.341,37.25625 18.91225,37.1505 18.4785,37.1505 C18.0295,37.1505 17.65675,37.25625 17.36075,37.472 C17.06475,37.688 16.84525,38.036 16.70225,38.52475 C16.55425,39.01375 16.48275,39.52025 16.48275,40.04425 L16.48275,44.709 L14.73725,44.709 L14.73725,44.709 Z M4.1515,39.63475 L9.077,39.63475 L7.561,36.21675 C7.05575,35.0715 6.71375,34.2215 6.53,33.662 C6.34125,34.4505 6.081,35.2345 5.744,36.00975 L4.1515,39.63475 L4.1515,39.63475 Z" id="Fill-4" fill="#FFFFFF"></path>
                        </g>
                    </g>
                </g>
            </g>
        </g>
    </g>
</svg>