<?xml version="1.0" encoding="UTF-8" standalone="no"?>
<svg width="190px" height="38px" viewBox="0 0 190 38" version="1.1" xmlns="http://www.w3.org/2000/svg" xmlns:xlink="http://www.w3.org/1999/xlink" xmlns:sketch="http://www.bohemiancoding.com/sketch/ns">
    <!-- Generator: Sketch 3.2.2 (9983) - http://www.bohemiancoding.com/sketch -->
    <title>Group</title>
    <desc>Created with Sketch.</desc>
    <defs></defs>
    <g id="Page-1" stroke="none" stroke-width="1" fill="none" fill-rule="evenodd" sketch:type="MSPage">
        <g id="Партнёры" sketch:type="MSArtboardGroup" transform="translate(-744.000000, -961.000000)">
            <g id="2_block" sketch:type="MSLayerGroup" transform="translate(469.000000, 142.000000)">
                <g id="3" transform="translate(0.000000, 717.000000)" sketch:type="MSShapeGroup">
                    <g id="2" transform="translate(275.000000, 102.000000)">
                        <g id="Group">
                            <path d="M31.9964935,28.065 L24.1842857,28.065 L24.1842857,37.53 L42.2688312,37.53 L42.2688312,0.2225 L27.1996104,0.2225 L0,37.53 L12.6288312,37.53 L31.9964935,9.36 L31.9964935,28.065 Z" id="Shape" fill="#FFFFFF"></path>
                            <path d="M120.741299,9.685 L120.741299,0.2225 L86.4006494,0.2225 L86.4006494,9.685 L98.7802597,9.685 L98.7802597,37.7225 L109.444935,37.7225 L109.444935,9.685 L120.741299,9.685 Z" id="Shape" fill="#FFFFFF"></path>
                            <path d="M135.378701,23.0225 L135.378701,0.2225 L125.106364,0.2225 L125.106364,37.53 L136.965325,37.53 L151.972857,15.8475 L151.972857,37.625 L162.80039,37.625 L190,0.315 L177.395844,0.315 L161.764026,23.1175 L161.764026,0.315 L161.717143,0.315 L161.717143,0.2225 L151.012987,0.2225 L135.378701,23.0225 Z" id="Shape" fill="#FF0538"></path>
                            <path d="M70.0187013,0.25 L63.9781818,0.25 L63.9633766,0.22 L49.5850649,0.22 L49.5850649,37.72 L60.0079221,37.72 L60.0079221,28.75 L67.1094805,28.75 L72.881039,37.7225 L85.8232468,37.7225 L77.8827273,26.865 L79.4150649,25.545 C80.1997403,24.8675 80.9128571,24.1025 81.5297403,23.265 L81.5297403,23.265 C82.001039,22.625 82.3983117,21.9175 82.7462338,21.15 L82.7511688,21.14 C83.2718182,19.9975 83.6666234,18.7825 83.9454545,17.62 L83.9380519,17.65 L83.942987,17.6225 C84.0836364,17.0425 84.1897403,16.4825 84.2612987,15.9575 C84.3328571,15.4225 84.3723377,14.95 84.3723377,14.495 C84.3723377,10.7525 83.0003896,7.3225 80.7648052,4.7825 C78.7858442,2.5275 76.1184416,0.955 73.1179221,0.42 L73.0957143,0.4175 L71.8051948,0.2525 L71.7755844,0.25 C71.6522078,0.245 71.5387013,0.24 71.4005195,0.2375 L71.3931169,0.2375 C71.2327273,0.235 71.0451948,0.2325 70.8625974,0.2325 C70.68,0.2325 70.5023377,0.2325 70.3468831,0.2375 L70.3296104,0.2375 L70.3222078,0.2375 C70.2309091,0.24 70.147013,0.2425 70.0655844,0.245 L70.0187013,0.25 L70.0187013,0.25 Z M71.7435065,10.1375 L71.7484416,10.1375 C72.2542857,10.38 72.7132468,10.7275 73.1080519,11.1625 C73.5151948,11.6125 73.8261039,12.12 74.0506494,12.685 L74.0580519,12.705 L74.0506494,12.69 C74.2702597,13.2525 74.3936364,13.8625 74.3936364,14.49 L74.3936364,14.495 L74.3936364,14.5025 C74.3961039,15.1975 74.2628571,15.865 74.0481818,16.42 L74.0457143,16.425 C73.831039,16.985 73.5077922,17.4925 73.1302597,17.9 L73.1253247,17.905 L73.1154545,17.915 C72.7354545,18.32 72.2715584,18.655 71.7706494,18.8775 C71.2746753,19.1025 70.6898701,19.2325 70.11,19.23 L70.1149351,19.23 L70.11,19.23 L70.1025974,19.23 L69.4141558,19.23 L62.7888312,19.23 L62.7345455,19.23 L60.0079221,19.23 L60.0079221,9.7725 L70.1420779,9.7725 C70.6898701,9.77 71.2648052,9.91 71.7435065,10.1375 L71.7435065,10.1375 Z" id="Shape" fill="#FFFFFF"></path>
                        </g>
                    </g>
                </g>
            </g>
        </g>
    </g>
</svg>