<?xml version="1.0" encoding="UTF-8" standalone="no"?>
<svg width="99px" height="46px" viewBox="0 0 99 46" version="1.1" xmlns="http://www.w3.org/2000/svg" xmlns:xlink="http://www.w3.org/1999/xlink" xmlns:sketch="http://www.bohemiancoding.com/sketch/ns">
    <!-- Generator: Sketch 3.2.2 (9983) - http://www.bohemiancoding.com/sketch -->
    <title>Group</title>
    <desc>Created with Sketch.</desc>
    <defs></defs>
    <g id="Page-1" stroke="none" stroke-width="1" fill="none" fill-rule="evenodd" sketch:type="MSPage">
        <g id="Партнёры" sketch:type="MSArtboardGroup" transform="translate(-1165.000000, -1718.000000)" stroke="#FFFFFF" fill="#FFFFFF">
            <g id="2_block" sketch:type="MSLayerGroup" transform="translate(469.000000, 142.000000)">
                <g id="5" transform="translate(0.000000, 1476.000000)" sketch:type="MSShapeGroup">
                    <g id="7" transform="translate(697.000000, 100.000000)">
                        <g id="Group" transform="translate(0.000000, 0.185594)">
                            <path d="M7.36717194,35.8281473 C7.99330337,36.4258182 8.34092307,37.1047947 8.41004147,37.8650972 L7.22690294,37.8650972 C7.09273191,37.2877552 6.82541033,36.8303609 6.42493016,36.4929004 C6.02444999,36.15544 5.46236316,35.9867123 4.73865281,35.9867123 C3.8563767,35.9867123 3.14385796,36.296724 2.60107519,36.9167568 C2.05829243,37.5367895 1.78690511,38.4871533 1.78690511,39.7678767 C1.78690511,40.8168501 2.0318652,41.6676036 2.52179271,42.3201627 C3.01172023,42.9727217 3.74253475,43.2989963 4.7142582,43.2989963 C5.60873167,43.2989963 6.28974103,42.9554424 6.75730671,42.2683241 C7.00531981,41.9064689 7.19031041,41.4307788 7.31228407,40.8412395 L8.49542261,40.8412395 C8.38971211,41.7845024 8.04005954,42.5752864 7.44645442,43.2136152 C6.73494143,43.9820492 5.77542973,44.3662605 4.56789055,44.3662605 C3.52704869,44.3662605 2.65291727,44.0511666 1.94547007,43.4209694 C1.0144045,42.5874828 0.548878704,41.30068 0.548878704,39.5605225 C0.548878704,38.2391412 0.898531271,37.1556249 1.59784689,36.3099409 C2.35408356,35.3910727 3.39694266,34.9316454 4.72645551,34.9316454 C5.8608105,34.9316454 6.74104051,35.2304764 7.36717194,35.8281473 L7.36717194,35.8281473 Z M17.3506657,36.4563085 C17.9442708,37.2491373 18.2410689,38.2635363 18.2410689,39.499536 C18.2410689,40.8371804 17.9015807,41.9491569 17.222594,42.8354988 C16.4256995,43.8763406 15.2893286,44.3967538 13.8134474,44.3967538 C12.4351451,44.3967538 11.3516287,43.9413923 10.5628657,43.0306556 C9.85948431,42.1524453 9.50779888,41.0425017 9.50779888,39.7007915 C9.50779888,38.4891865 9.80866272,37.452426 10.4103994,36.5904789 C11.1828992,35.4845844 12.3253687,34.9316454 13.837842,34.9316454 C15.4194337,34.9316454 16.5903632,35.4398614 17.3506657,36.4563085 L17.3506657,36.4563085 Z M16.2803522,42.1615977 C16.7580824,41.3951966 16.9969439,40.5139501 16.9969439,39.5178319 C16.9969439,38.4647927 16.7214908,37.6170885 16.1705765,36.9746939 C15.6196621,36.3322994 14.8664861,36.0111069 13.9110258,36.0111069 C12.984026,36.0111069 12.2278007,36.3292501 11.6423272,36.965546 C11.0568536,37.6018419 10.7641212,38.5400085 10.7641212,39.780074 C10.7641212,40.7721264 11.0151799,41.6086498 11.5173048,42.2896694 C12.0194297,42.970689 12.8335916,43.3111937 13.959815,43.3111937 C15.0291174,43.3111937 15.8026221,42.9279988 16.2803522,42.1615977 L16.2803522,42.1615977 Z M19.6559563,35.1755915 L21.3940721,35.1755915 L23.9677034,42.7501176 L26.5230387,35.1755915 L28.2428586,35.1755915 L28.2428586,44.1345117 L27.0902134,44.1345117 L27.0902134,38.8469802 C27.0902134,38.6640197 27.0942791,38.361123 27.1024107,37.938281 C27.1105422,37.515439 27.114608,37.0621104 27.114608,36.5782816 L24.5592727,44.1345117 L23.3578382,44.1345117 L20.7842069,36.5782816 L20.7842069,36.8527209 C20.7842069,37.0722735 20.7892891,37.4066796 20.7994536,37.8559492 C20.809618,38.3052188 20.8147002,38.6355592 20.8147002,38.8469802 L20.8147002,44.1345117 L19.6559563,44.1345117 L19.6559563,35.1755915 Z M30.060257,35.1755915 L31.7983729,35.1755915 L34.3720042,42.7501176 L36.9273395,35.1755915 L38.6471594,35.1755915 L38.6471594,44.1345117 L37.4945141,44.1345117 L37.4945141,38.8469802 C37.4945141,38.6640197 37.4985799,38.361123 37.5067114,37.938281 C37.514843,37.515439 37.5189087,37.0621104 37.5189087,36.5782816 L34.9635734,44.1345117 L33.7621389,44.1345117 L31.1885077,36.5782816 L31.1885077,36.8527209 C31.1885077,37.0722735 31.1935898,37.4066796 31.2037543,37.8559492 C31.2139188,38.3052188 31.2190009,38.6355592 31.2190009,38.8469802 L31.2190009,44.1345117 L30.060257,44.1345117 L30.060257,35.1755915 Z M41.8123599,35.1755915 L41.8123599,40.7131678 C41.8123599,41.3636939 41.9343318,41.9044357 42.1782791,42.3354093 C42.5401342,42.9859355 43.1499934,43.3111937 44.0078748,43.3111937 C45.0365192,43.3111937 45.7358244,42.9595082 46.1058111,42.2561268 C46.3050348,41.8739427 46.4046451,41.3596282 46.4046451,40.7131678 L46.4046451,35.1755915 L47.6365728,35.1755915 L47.6365728,40.2069797 C47.6365728,41.3088083 47.4881738,42.1565125 47.1913712,42.7501176 C46.6465556,43.8316174 45.6179265,44.3723591 44.1054532,44.3723591 C42.5929799,44.3723591 41.5663837,43.8316174 41.0256338,42.7501176 C40.7288312,42.1565125 40.5804322,41.3088083 40.5804322,40.2069797 L40.5804322,35.1755915 L41.8123599,35.1755915 Z M49.5149577,35.1755915 L50.948141,35.1755915 L55.473341,42.4329877 L55.473341,35.1755915 L56.6259863,35.1755915 L56.6259863,44.1345117 L55.2659868,44.1345117 L50.6737017,36.8832142 L50.6737017,44.1345117 L49.5149577,44.1345117 L49.5149577,35.1755915 Z M58.8093038,35.1755915 L60.0351329,35.1755915 L60.0351329,44.1345117 L58.8093038,44.1345117 L58.8093038,35.1755915 Z M68.5244569,35.1755915 L68.5244569,36.2428557 L65.505624,36.2428557 L65.505624,44.1345117 L64.2736962,44.1345117 L64.2736962,36.2428557 L61.2548634,36.2428557 L61.2548634,35.1755915 L68.5244569,35.1755915 Z M68.9391652,35.1755915 L70.3540525,35.1755915 L72.9276838,39.48124 L75.5013151,35.1755915 L76.922301,35.1755915 L73.537549,40.5241096 L73.537549,44.1345117 L72.3239172,44.1345117 L72.3239172,40.5241096 L68.9391652,35.1755915 Z" id="COMMUNITY"></path>
                            <path d="M1.74421455,24.1764947 C1.77267507,24.6847182 1.89261403,25.0973896 2.10403503,25.4145211 C2.50654809,26.0081262 3.21601755,26.3049243 4.23246467,26.3049243 C4.68783299,26.3049243 5.10253719,26.2398727 5.47658973,26.1097674 C6.20030009,25.8576886 6.56214984,25.4063928 6.56214984,24.7558666 C6.56214984,24.267972 6.40968506,23.9203523 6.10475092,23.7129971 C5.79575099,23.5097077 5.31192942,23.3328485 4.65327168,23.1824144 L3.43963988,22.907975 C2.64681112,22.7290803 2.08574072,22.5318925 1.75641185,22.3164057 C1.18720146,21.9423532 0.902600535,21.3833157 0.902600535,20.6392764 C0.902600535,19.8342502 1.18110287,19.1735695 1.7381159,18.6572144 C2.29512892,18.1408592 3.08388006,17.8826855 4.10439297,17.8826855 C5.04359012,17.8826855 5.84148915,18.1093499 6.49811399,18.5626853 C7.15473883,19.0160207 7.48304633,19.7407366 7.48304633,20.7368548 L6.34259836,20.7368548 C6.28161153,20.2570918 6.15150825,19.8891434 5.95228461,19.6329987 C5.58229786,19.1654331 4.95414296,18.9316537 4.06780106,18.9316537 C3.35222228,18.9316537 2.83790775,19.0820857 2.52484204,19.382954 C2.21177632,19.6838223 2.05524581,20.0334749 2.05524581,20.4319222 C2.05524581,20.8710273 2.23820355,21.1922198 2.60412452,21.3955092 C2.84400604,21.5256145 3.38678066,21.6882436 4.23246467,21.8834014 L5.48878704,22.1700381 C6.09458953,22.3082749 6.56214819,22.4973312 6.89147706,22.7372127 C7.46068745,23.155989 7.74528838,23.7638152 7.74528838,24.5607098 C7.74528838,25.5527622 7.38445506,26.2622316 6.6627776,26.6891394 C5.94110014,27.1160472 5.10254384,27.3294979 4.14708354,27.3294979 C3.03305749,27.3294979 2.16095894,27.044897 1.53076172,26.4756866 C0.9005645,25.910542 0.591569209,25.1441523 0.603766574,24.1764947 L1.74421455,24.1764947 Z M9.28214875,18.1083357 L10.4652873,18.1083357 L10.4652873,22.4749707 L14.8319223,18.1083357 L16.5090517,18.1083357 L12.7827751,21.7187378 L16.6127288,27.0672559 L15.0331778,27.0672559 L11.8984706,22.5725491 L10.4652873,23.9447459 L10.4652873,27.0672559 L9.28214875,27.0672559 L9.28214875,18.1083357 Z M17.7287821,18.1083357 L24.2604387,18.1083357 L24.2604387,19.2060931 L18.9119207,19.2060931 L18.9119207,21.926092 L23.8579277,21.926092 L23.8579277,22.9628629 L18.9119207,22.9628629 L18.9119207,25.9999917 L24.3519185,25.9999917 L24.3519185,27.0672559 L17.7287821,27.0672559 L17.7287821,18.1083357 Z M32.463126,18.1083357 L32.463126,19.1755998 L29.4442931,19.1755998 L29.4442931,27.0672559 L28.2123654,27.0672559 L28.2123654,19.1755998 L25.1935325,19.1755998 L25.1935325,18.1083357 L32.463126,18.1083357 Z M39.9888629,18.7608915 C40.6149943,19.3585624 40.962614,20.0375389 41.0317324,20.7978413 L39.8485939,20.7978413 C39.7144229,20.2204994 39.4471013,19.763105 39.0466211,19.4256446 C38.646141,19.0881841 38.0840541,18.9194564 37.3603438,18.9194564 C36.4780677,18.9194564 35.7655489,19.2294682 35.2227662,19.8495009 C34.6799834,20.4695336 34.4085961,21.4198975 34.4085961,22.7006208 C34.4085961,23.7495943 34.6535562,24.6003478 35.1434837,25.2529068 C35.6334112,25.9054659 36.3642257,26.2317405 37.3359492,26.2317405 C38.2304226,26.2317405 38.911432,25.8881865 39.3789977,25.2010683 C39.6270108,24.8392131 39.8120014,24.363523 39.933975,23.7739836 L41.1171136,23.7739836 C41.0114031,24.7172466 40.6617505,25.5080306 40.0681454,26.1463594 C39.3566324,26.9147934 38.3971207,27.2990046 37.1895815,27.2990046 C36.1487397,27.2990046 35.2746082,26.9839108 34.567161,26.3537135 C33.6360955,25.5202269 33.1705697,24.2334241 33.1705697,22.4932667 C33.1705697,21.1718854 33.5202222,20.088369 34.2195379,19.242685 C34.9757745,18.3238168 36.0186336,17.8643896 37.3481465,17.8643896 C38.4825015,17.8643896 39.3627315,18.1632206 39.9888629,18.7608915 L39.9888629,18.7608915 Z M42.6234807,18.1083357 L43.8493098,18.1083357 L43.8493098,21.8102176 L48.5086801,21.8102176 L48.5086801,18.1083357 L49.7345092,18.1083357 L49.7345092,27.0672559 L48.5086801,27.0672559 L48.5086801,22.8774817 L43.8493098,22.8774817 L43.8493098,27.0672559 L42.6234807,27.0672559 L42.6234807,18.1083357 Z" id="SKETCH"></path>
                            <path d="M5.54977356,6.32861134 L4.18977411,2.37058602 L2.74439352,6.32861134 L5.54977356,6.32861134 Z M3.55551427,1.04107982 L4.92771103,1.04107982 L8.17829269,10 L6.84878649,10 L5.94008731,7.316593 L2.39677034,7.316593 L1.42708463,10 L0.182959568,10 L3.55551427,1.04107982 Z M13.4475282,5.1454728 C14.0167386,5.1454728 14.467018,5.03163243 14.7983797,4.80394827 C15.1297415,4.57626411 15.2954199,4.16562563 15.2954199,3.57202051 C15.2954199,2.93369172 15.0636734,2.49865887 14.6001735,2.26690893 C14.3521604,2.14493527 14.0208036,2.08394936 13.6060932,2.08394936 L10.6421482,2.08394936 L10.6421482,5.1454728 L13.4475282,5.1454728 Z M9.4285164,1.04107982 L13.5755999,1.04107982 C14.2586524,1.04107982 14.8217557,1.14069015 15.2649266,1.33991378 C16.1065448,1.7220979 16.5273476,2.42750163 16.5273476,3.45614612 C16.5273476,3.9928302 16.4165566,4.43192877 16.1949711,4.77345501 C15.9733856,5.11498124 15.6633739,5.38941785 15.2649266,5.59677306 C15.6145844,5.73907566 15.8778403,5.92609913 16.0547021,6.15784907 C16.2315639,6.38959902 16.3301578,6.76567881 16.3504867,7.28609974 L16.3931773,8.48753424 C16.4053747,8.82906047 16.4338347,9.08316844 16.4785584,9.24986577 C16.5517426,9.53447097 16.6818459,9.71742871 16.8688722,9.79874448 L16.8688722,10 L15.380801,10 C15.3401431,9.92275002 15.3076173,9.82313969 15.2832226,9.70116604 C15.2588278,9.57919238 15.2384992,9.34338019 15.2222361,8.99372238 L15.1490522,7.49955257 C15.1205917,6.91407903 14.9030753,6.52173632 14.4964964,6.32251268 C14.2647465,6.21273639 13.9008639,6.15784907 13.4048377,6.15784907 L10.6421482,6.15784907 L10.6421482,10 L9.4285164,10 L9.4285164,1.04107982 Z M24.7178376,1.69363561 C25.3439691,2.29130652 25.6915888,2.97028302 25.7607072,3.73058547 L24.5775686,3.73058547 C24.4433976,3.1532435 24.176076,2.69584916 23.7755959,2.35838871 C23.3751157,2.02092826 22.8130289,1.85220057 22.0893185,1.85220057 C21.2070424,1.85220057 20.4945237,2.1622123 19.9517409,2.78224504 C19.4089581,3.40227779 19.1375708,4.3526416 19.1375708,5.63336498 C19.1375708,6.68233841 19.3825309,7.5330919 19.8724584,8.18565095 C20.3623859,8.83821001 21.0932004,9.16448464 22.0649239,9.16448464 C22.9593974,9.16448464 23.6404067,8.82093066 24.1079724,8.13381241 C24.3559855,7.77195723 24.5409761,7.29626711 24.6629498,6.70672778 L25.8460883,6.70672778 C25.7403778,7.64999071 25.3907252,8.44077471 24.7971201,9.07910351 C24.0856071,9.84753754 23.1260954,10.2317488 21.9185562,10.2317488 C20.8777144,10.2317488 20.003583,9.9166549 19.2961358,9.28645768 C18.3650702,8.45297104 17.8995444,7.16616828 17.8995444,5.4260108 C17.8995444,4.10462954 18.249197,3.02111315 18.9485126,2.17542914 C19.7047493,1.25656094 20.7476084,0.797133731 22.0771212,0.797133731 C23.2114762,0.797133731 24.0917062,1.0959647 24.7178376,1.69363561 L24.7178376,1.69363561 Z M27.3524554,1.04107982 L28.5782845,1.04107982 L28.5782845,4.74296175 L33.2376548,4.74296175 L33.2376548,1.04107982 L34.463484,1.04107982 L34.463484,10 L33.2376548,10 L33.2376548,5.81022589 L28.5782845,5.81022589 L28.5782845,10 L27.3524554,10 L27.3524554,1.04107982 Z M36.6163082,1.04107982 L37.8421373,1.04107982 L37.8421373,10 L36.6163082,10 L36.6163082,1.04107982 Z M46.3314613,1.04107982 L46.3314613,2.10834397 L43.3126284,2.10834397 L43.3126284,10 L42.0807006,10 L42.0807006,2.10834397 L39.0618678,2.10834397 L39.0618678,1.04107982 L46.3314613,1.04107982 Z M47.5572904,1.04107982 L54.0889469,1.04107982 L54.0889469,2.13883723 L48.7404289,2.13883723 L48.7404289,4.85883614 L53.6864359,4.85883614 L53.6864359,5.89560703 L48.7404289,5.89560703 L48.7404289,8.93273585 L54.1804267,8.93273585 L54.1804267,10 L47.5572904,10 L47.5572904,1.04107982 Z M62.1879572,1.69363561 C62.8140886,2.29130652 63.1617083,2.97028302 63.2308267,3.73058547 L62.0476882,3.73058547 C61.9135171,3.1532435 61.6461955,2.69584916 61.2457154,2.35838871 C60.8452352,2.02092826 60.2831484,1.85220057 59.559438,1.85220057 C58.6771619,1.85220057 57.9646432,2.1622123 57.4218604,2.78224504 C56.8790776,3.40227779 56.6076903,4.3526416 56.6076903,5.63336498 C56.6076903,6.68233841 56.8526504,7.5330919 57.3425779,8.18565095 C57.8325054,8.83821001 58.56332,9.16448464 59.5350434,9.16448464 C60.4295169,9.16448464 61.1105263,8.82093066 61.5780919,8.13381241 C61.826105,7.77195723 62.0110956,7.29626711 62.1330693,6.70672778 L63.3162078,6.70672778 C63.2104973,7.64999071 62.8608448,8.44077471 62.2672396,9.07910351 C61.5557266,9.84753754 60.596215,10.2317488 59.3886758,10.2317488 C58.3478339,10.2317488 57.4737025,9.9166549 56.7662553,9.28645768 C55.8351897,8.45297104 55.3696639,7.16616828 55.3696639,5.4260108 C55.3696639,4.10462954 55.7193165,3.02111315 56.4186321,2.17542914 C57.1748688,1.25656094 58.2177279,0.797133731 59.5472407,0.797133731 C60.6815957,0.797133731 61.5618257,1.0959647 62.1879572,1.69363561 L62.1879572,1.69363561 Z M71.3115409,1.04107982 L71.3115409,2.10834397 L68.2927081,2.10834397 L68.2927081,10 L67.0607803,10 L67.0607803,2.10834397 L64.0419474,2.10834397 L64.0419474,1.04107982 L71.3115409,1.04107982 Z M73.7388045,1.04107982 L73.7388045,6.57865608 C73.7388045,7.22918224 73.8607764,7.769924 74.1047237,8.20089758 C74.4665789,8.85142374 75.076438,9.17668194 75.9343194,9.17668194 C76.9629639,9.17668194 77.662269,8.82499651 78.0322557,8.1216151 C78.2314794,7.73943098 78.3310897,7.22511645 78.3310897,6.57865608 L78.3310897,1.04107982 L79.5630175,1.04107982 L79.5630175,6.07246794 C79.5630175,7.17429663 79.4146184,8.02200081 79.1178158,8.61560594 C78.5730002,9.69710568 77.5443711,10.2378474 76.0318978,10.2378474 C74.5194245,10.2378474 73.4928283,9.69710568 72.9520784,8.61560594 C72.6552758,8.02200081 72.5068768,7.17429663 72.5068768,6.07246794 L72.5068768,1.04107982 L73.7388045,1.04107982 Z M85.6067819,5.1454728 C86.1759922,5.1454728 86.6262716,5.03163243 86.9576333,4.80394827 C87.2889951,4.57626411 87.4546735,4.16562563 87.4546735,3.57202051 C87.4546735,2.93369172 87.222927,2.49865887 86.7594271,2.26690893 C86.511414,2.14493527 86.1800572,2.08394936 85.7653468,2.08394936 L82.8014018,2.08394936 L82.8014018,5.1454728 L85.6067819,5.1454728 Z M81.58777,1.04107982 L85.7348536,1.04107982 C86.417906,1.04107982 86.9810093,1.14069015 87.4241802,1.33991378 C88.2657985,1.7220979 88.6866013,2.42750163 88.6866013,3.45614612 C88.6866013,3.9928302 88.5758102,4.43192877 88.3542247,4.77345501 C88.1326392,5.11498124 87.8226275,5.38941785 87.4241802,5.59677306 C87.773838,5.73907566 88.0370939,5.92609913 88.2139557,6.15784907 C88.3908175,6.38959902 88.4894114,6.76567881 88.5097403,7.28609974 L88.5524309,8.48753424 C88.5646283,8.82906047 88.5930884,9.08316844 88.637812,9.24986577 C88.7109962,9.53447097 88.8410995,9.71742871 89.0281258,9.79874448 L89.0281258,10 L87.5400546,10 C87.4993967,9.92275002 87.4668709,9.82313969 87.4424762,9.70116604 C87.4180815,9.57919238 87.3977528,9.34338019 87.3814897,8.99372238 L87.3083058,7.49955257 C87.2798453,6.91407903 87.0623289,6.52173632 86.65575,6.32251268 C86.4240001,6.21273639 86.0601175,6.15784907 85.5640913,6.15784907 L82.8014018,6.15784907 L82.8014018,10 L81.58777,10 L81.58777,1.04107982 Z M90.5771835,1.04107982 L97.10884,1.04107982 L97.10884,2.13883723 L91.760322,2.13883723 L91.760322,4.85883614 L96.706329,4.85883614 L96.706329,5.89560703 L91.760322,5.89560703 L91.760322,8.93273585 L97.2003198,8.93273585 L97.2003198,10 L90.5771835,10 L90.5771835,1.04107982 Z" id="ARCHITECTURE"></path>
                        </g>
                    </g>
                </g>
            </g>
        </g>
    </g>
</svg>