<?xml version="1.0" encoding="UTF-8" standalone="no"?>
<svg width="198px" height="58px" viewBox="0 0 198 58" version="1.1" xmlns="http://www.w3.org/2000/svg" xmlns:xlink="http://www.w3.org/1999/xlink" xmlns:sketch="http://www.bohemiancoding.com/sketch/ns">
    <!-- Generator: Sketch 3.2.2 (9983) - http://www.bohemiancoding.com/sketch -->
    <title>1</title>
    <desc>Created with Sketch.</desc>
    <defs></defs>
    <g id="Page-1" stroke="none" stroke-width="1" fill="none" fill-rule="evenodd" sketch:type="MSPage">
        <g id="Партнёры" sketch:type="MSArtboardGroup" transform="translate(-470.000000, -950.000000)">
            <g id="2_block" sketch:type="MSLayerGroup" transform="translate(469.000000, 142.000000)">
                <g id="3" transform="translate(0.000000, 717.000000)" sketch:type="MSShapeGroup">
                    <g id="1" transform="translate(1.000000, 91.000000)">
                        <path d="M107.460215,0.29 L107.460215,31.1128571 C107.522581,32.8592857 107.739785,34.6035714 108.11828,36.35 L104.855914,36.35 C104.421505,35.3707143 103.645161,32.9642857 103.48172,31.6614286 C102.56129,33.3028571 101.490323,34.5907143 100.264516,35.4114286 C99.427957,35.9771429 98.5247312,36.3457143 97.5505376,36.5257143 L97.5505376,34.445 C99.1376344,34.3228571 100.507527,33.44 101.662366,31.8928571 C102.905376,30.2171429 103.531183,27.7742857 103.531183,24.5514286 C103.531183,21.5085714 102.864516,19.1107143 101.533333,17.3642857 C100.445161,15.9242857 99.1182796,15.1592857 97.5505376,15.0671429 L97.5505376,12.9114286 C100.070968,13.325 102.23871,15.2942857 103.48172,17.4157143 L103.48172,0.285714286 L107.460215,0.29 L107.460215,0.29 Z M97.5505376,36.5257143 C97.0924731,36.6092857 96.6150538,36.65 96.1225806,36.65 C93.5569892,36.65 91.3634409,35.5742857 89.5526882,33.4271429 C87.744086,31.2842857 86.8365591,28.3892857 86.8365591,24.86 C86.8365591,19.4235714 90.3978495,12.8321429 96.5849462,12.8321429 C96.911828,12.8321429 97.2365591,12.8578571 97.5505376,12.9114286 L97.5505376,15.0671429 C97.4451613,15.0628571 97.3397849,15.0585714 97.2365591,15.0585714 C92.2623656,15.0585714 91.5698925,20.6342857 91.5698925,24.4121429 C91.5698925,28.0785714 92.0903226,30.7207143 93.1354839,32.2142857 C94.1827957,33.7121429 95.5225806,34.4621429 97.1612903,34.4621429 C97.2903226,34.4621429 97.4215054,34.4578571 97.5505376,34.445 L97.5505376,36.5257143 L97.5505376,36.5257143 Z" id="Fill-1" fill="#FFFFFF"></path>
                        <path d="M10.5204301,13.0421429 C10.8666667,12.995 11.2150538,12.9735714 11.5763441,12.9735714 C14.2258065,12.9735714 16.4645161,14.0085714 18.3010753,16.0764286 C20.1354839,18.1442857 21.0516129,20.8678571 21.0516129,24.245 C21.0516129,27.9114286 20.0645161,31.0207143 18.0946237,33.2685714 C16.1290323,35.525 13.6795699,36.6457143 10.7741935,36.6457143 L10.5204301,36.6457143 L10.5204301,35.0857143 L10.6516129,35.09 C12.2989247,35.09 13.6172043,34.3528571 14.6129032,32.8764286 C15.8645161,31.0121429 16.4903226,28.2178571 16.4903226,24.7721429 C16.4903226,21.3735714 15.9354839,18.9135714 14.8430108,17.3814286 C13.7182796,15.8257143 12.1182796,15.08 10.5204301,15.11 L10.5204301,13.0421429 L10.5204301,13.0421429 Z M4.62365591,0.292142857 L4.62365591,16.9378571 C5.57419355,15.6071429 6.62795699,14.615 7.78709677,13.9571429 C8.6344086,13.4771429 9.55053763,13.1707143 10.5204301,13.0421429 L10.5204301,15.11 C8.94193548,15.1421429 7.37204301,15.9328571 6.26236559,17.4521429 C5.12043011,19.04 4.55268817,21.6371429 4.55268817,25.28 C4.55268817,28.7407143 5.11182796,31.3571429 6.24086022,32.8507143 C7.33763441,34.3078571 8.76989247,35.0514286 10.5204301,35.0857143 L10.5204301,36.6457143 C9.23655914,36.6135714 8.07311828,36.3457143 7.01505376,35.825 C5.88387097,35.2871429 4.89247312,34.3742857 3.69892473,33.0714286 C3.44731183,34.0142857 3.01935484,35.7371429 2.72473118,36.3414286 L0.129032258,36.3414286 C0.569892473,34.4942857 0.6,31.3807143 0.6,30.3971429 L0.6,0.305 L4.62365591,0.292142857 L4.62365591,0.292142857 Z" id="Fill-2" fill="#FFFFFF"></path>
                        <path d="M157.4,12.77 C157.623656,13.7857143 157.808602,15.9092857 157.782796,17.1885714 C158.804301,15.5578571 159.995699,14.825 161.374194,14 C162.748387,13.1878571 164.296774,12.7785714 166.032258,12.7785714 C167.531183,12.7785714 168.782796,13.0742857 169.795699,13.6571429 C170.808602,14.2378571 171.623656,15.1678571 172.232258,16.4321429 C172.845161,17.7007143 173.150538,19.1235714 173.150538,20.6878571 L173.150538,36.3414286 L169.219355,36.3414286 L169.219355,22.2457143 C169.219355,20.1564286 168.892473,18.5985714 168.253763,17.5871429 C166.258065,14.405 161.793548,14.4907143 159.610753,17.1178571 C158.395699,18.5792857 157.782796,20.4735714 157.782796,22.8092857 L157.782796,36.32 L153.804301,36.3114286 L153.804301,17.1885714 C153.804301,16.4278571 153.591398,13.9292857 153.322581,12.8278571 L157.4,12.77" id="Fill-3" fill="#FFFFFF"></path>
                        <path d="M187.313978,29.7821429 C190.07957,29.7821429 192.389247,30.7485714 194.275269,32.6535714 C196.184946,34.5864286 197.113978,36.8942857 197.113978,39.6307143 C197.113978,42.3392857 196.16129,44.6728571 194.245161,46.5778571 C192.309677,48.4828571 190.023656,49.4492857 187.313978,49.4492857 C184.660215,49.4492857 182.374194,48.4828571 180.464516,46.5778571 C178.552688,44.6728571 177.595699,42.3392857 177.595699,39.6307143 C177.595699,36.8942857 178.526882,34.5864286 180.43871,32.6535714 C182.324731,30.7485714 184.606452,29.7821429 187.313978,29.7821429" id="Fill-4" fill="#1EB1B1"></path>
                        <path d="M114.604301,30.305 C115.410753,35.885 125.402151,36.2814286 125.490323,30.4442857 C125.498925,29.7821429 125.335484,29.2014286 125.008602,28.7064286 C124.675269,28.205 124.206452,27.95 123.608602,27.7057143 C120.572043,26.4671429 116.901075,26.6557143 113.982796,25.0207143 C112.122581,23.99 111.025806,22.0142857 111.058065,19.88 C111.113978,16.0678571 114.172043,13.4171429 117.75914,12.7271429 C121.369892,12.0285714 125.67957,13.6185714 127.380645,16.4107143 L124.524731,18.4228571 C123.017204,14.0578571 118.262366,12.6178571 114.830108,15.77 C113.309677,17.165 112.948387,19.3657143 114.658065,20.7264286 C117.051613,22.6978571 121.387097,22.2242857 124.260215,23.33 C126.825806,24.275 128.283871,26.435 128.243011,29.1928571 C128.212903,31.1471429 127.423656,32.8035714 125.868817,34.1642857 C123.387097,36.3285714 118.623656,36.8771429 115.595699,35.675 C113.789247,34.9592857 112.490323,33.5985714 111.546237,31.9721429 L114.604301,30.305" id="Fill-5" fill="#FFFFFF"></path>
                        <path d="M140.574194,12.4807143 C143.535484,12.4978571 146.025806,13.6014286 148.047312,15.8085714 C150.083871,18.0221429 151.105376,20.9428571 151.105376,24.5728571 C151.105376,27.0778571 150.651613,29.21 149.735484,30.9714286 C148.823656,32.7371429 147.524731,34.1278571 145.84086,35.1521429 C144.206452,36.1485714 142.451613,36.6585714 140.574194,36.6885714 L140.574194,34.9592857 C142.397849,34.9378571 143.875269,34.0978571 145.006452,32.4435714 C146.156989,30.7742857 146.731183,28.0335714 146.731183,24.2321429 C146.731183,20.7007143 146.165591,18.1464286 145.025806,16.5735714 C143.913978,15.0221429 142.430108,14.2292857 140.574194,14.21 L140.574194,12.4807143 L140.574194,12.4807143 Z M140.498925,12.4807143 L140.574194,12.4807143 L140.574194,14.21 L140.498925,14.21 C138.722581,14.21 137.268817,15.0328571 136.126882,16.6828571 C134.987097,18.3307143 134.412903,20.9342857 134.412903,24.4957143 C134.412903,28.1257143 134.982796,30.7742857 136.11828,32.4435714 C137.247312,34.1192857 138.713978,34.9592857 140.498925,34.9592857 L140.574194,34.9592857 L140.574194,36.6885714 L140.384946,36.6928571 C137.498925,36.6928571 135.055914,35.5657143 133.051613,33.3264286 C131.047312,31.0807143 130.04086,28.175 130.04086,24.5964286 C130.04086,21.0028571 131.047312,18.0885714 133.060215,15.8407143 C135.070968,13.6014286 137.554839,12.4807143 140.498925,12.4807143 L140.498925,12.4807143 Z" id="Fill-6" fill="#FFFFFF"></path>
                        <path d="M150.313978,55.2028571 L150.313978,54.2621429 C150.423656,54.2707143 150.537634,54.2792857 150.658065,54.2792857 C150.956989,54.2792857 151.221505,54.2535714 151.453763,54.2042857 C151.683871,54.1571429 151.886022,54.1035714 152.053763,54.0392857 C152.225806,53.9814286 152.363441,53.9278571 152.473118,53.8807143 C152.582796,53.8314286 152.662366,53.8057143 152.72043,53.8057143 C152.750538,53.8057143 152.784946,53.8142857 152.804301,53.8314286 C152.830108,53.8485714 152.851613,53.8678571 152.864516,53.9021429 C152.88172,53.9364286 152.892473,53.9814286 152.896774,54.0392857 C152.901075,54.095 152.909677,54.1657143 152.909677,54.2492857 C152.909677,54.3114286 152.905376,54.3628571 152.901075,54.4035714 C152.896774,54.4507143 152.892473,54.4871429 152.886022,54.5257143 C152.877419,54.56 152.864516,54.5878571 152.847312,54.6178571 C152.830108,54.6478571 152.808602,54.6714286 152.789247,54.6971429 C152.75914,54.7228571 152.683871,54.7635714 152.556989,54.8235714 C152.436559,54.8814286 152.270968,54.935 152.070968,54.995 C151.873118,55.0485714 151.64086,55.1 151.380645,55.1407143 C151.116129,55.1878571 150.834409,55.2071429 150.541935,55.2071429 L150.313978,55.2028571 L150.313978,55.2028571 Z M150.313978,52.0057143 L150.313978,51.17 L152.015054,51.17 C152.032258,50.5657143 151.898925,50.0942857 151.617204,49.7514286 C151.335484,49.4064286 150.92043,49.235 150.365591,49.235 L150.313978,49.235 L150.313978,48.3392857 L150.415054,48.3392857 C150.907527,48.3392857 151.322581,48.4185714 151.670968,48.5792857 C152.015054,48.7335714 152.301075,48.9478571 152.524731,49.2157143 C152.750538,49.4792857 152.909677,49.7921429 153.015054,50.1478571 C153.12043,50.5078571 153.169892,50.8935714 153.169892,51.2985714 L153.169892,51.5085714 C153.169892,51.6885714 153.129032,51.8171429 153.036559,51.8942857 C152.948387,51.9692857 152.843011,52.0057143 152.729032,52.0057143 L150.313978,52.0057143 L150.313978,52.0057143 Z M150.313978,48.3392857 L150.313978,49.235 C150.049462,49.2435714 149.819355,49.2992857 149.617204,49.3978571 C149.404301,49.5028571 149.225806,49.6464286 149.083871,49.8221429 C148.937634,49.9978571 148.827957,50.2014286 148.748387,50.4328571 C148.673118,50.6664286 148.625806,50.915 148.617204,51.17 L150.313978,51.17 L150.313978,52.0057143 L148.617204,52.0057143 C148.617204,52.3528571 148.651613,52.6678571 148.71828,52.9442857 C148.789247,53.225 148.907527,53.4585714 149.070968,53.66 C149.230108,53.8571429 149.445161,54.0114286 149.701075,54.1207143 C149.88172,54.1914286 150.083871,54.2364286 150.313978,54.2621429 L150.313978,55.2028571 C149.890323,55.1878571 149.516129,55.115 149.184946,54.995 C148.793548,54.8471429 148.470968,54.635 148.206452,54.3542857 C147.941935,54.0692857 147.739785,53.7178571 147.606452,53.2914286 C147.470968,52.865 147.404301,52.37 147.404301,51.8064286 C147.404301,51.2707143 147.475269,50.7885714 147.612903,50.3578571 C147.752688,49.9314286 147.954839,49.5671429 148.215054,49.2692857 C148.47957,48.9671429 148.793548,48.7421429 149.167742,48.5792857 C149.511828,48.4314286 149.894624,48.3521429 150.313978,48.3392857 L150.313978,48.3392857 Z M143.333333,57.6114286 L143.333333,56.735 L143.397849,56.735 C143.746237,56.735 144.034409,56.7028571 144.270968,56.6342857 C144.509677,56.5678571 144.694624,56.48 144.84086,56.3664286 C144.984946,56.255 145.090323,56.1285714 145.148387,55.9871429 C145.210753,55.8392857 145.245161,55.6935714 145.245161,55.535 C145.245161,55.2671429 145.135484,55.0614286 144.913978,54.9157143 C144.694624,54.7678571 144.391398,54.6885714 144.019355,54.68 L143.333333,54.6564286 L143.333333,53.7392857 L144.258065,53.7757143 C144.567742,53.7842857 144.853763,53.8314286 145.109677,53.9064286 C145.372043,53.9814286 145.597849,54.0907143 145.787097,54.2321429 C145.980645,54.3757143 146.126882,54.5471429 146.236559,54.7571429 C146.341935,54.9607143 146.395699,55.2007143 146.395699,55.4728571 C146.395699,55.76 146.333333,56.0321429 146.215054,56.2914286 C146.092473,56.5507143 145.907527,56.7778571 145.660215,56.975 C145.408602,57.17 145.094624,57.3264286 144.707527,57.4421429 C144.32043,57.5514286 143.866667,57.6114286 143.341935,57.6114286 L143.333333,57.6114286 L143.333333,57.6114286 Z M143.333333,52.835 L143.333333,51.9521429 C143.565591,51.9521429 143.76129,51.9178571 143.926882,51.8428571 C144.094624,51.7721429 144.232258,51.6714286 144.341935,51.545 C144.451613,51.4207143 144.531183,51.2728571 144.584946,51.1014286 C144.64086,50.9385714 144.664516,50.7671429 144.664516,50.5828571 C144.664516,50.1607143 144.548387,49.8264286 144.316129,49.5864286 C144.08172,49.3528571 143.752688,49.2307143 143.333333,49.2307143 L143.333333,48.3564286 C143.526882,48.3564286 143.703226,48.365 143.866667,48.3864286 C144.030108,48.4078571 144.187097,48.4357143 144.333333,48.4742857 L146.227957,48.4742857 C146.307527,48.4742857 146.365591,48.5107143 146.404301,48.5878571 C146.447312,48.6628571 146.462366,48.7828571 146.462366,48.9392857 C146.462366,49.1021429 146.44086,49.2178571 146.4,49.2907143 C146.352688,49.3614286 146.294624,49.3978571 146.227957,49.3978571 L145.329032,49.3978571 C145.488172,49.5628571 145.606452,49.7471429 145.668817,49.9464286 C145.735484,50.1478571 145.765591,50.3621429 145.765591,50.5785714 C145.765591,50.9385714 145.711828,51.2578571 145.593548,51.5385714 C145.475269,51.8128571 145.311828,52.0485714 145.094624,52.2414286 C144.87957,52.4321429 144.623656,52.58 144.324731,52.6807143 C144.027957,52.7814286 143.694624,52.835 143.333333,52.835 L143.333333,52.835 Z M143.333333,48.3564286 L143.333333,49.2307143 L143.311828,49.2307143 C143.090323,49.2307143 142.896774,49.2692857 142.733333,49.34 C142.569892,49.415 142.430108,49.5157143 142.32043,49.6464286 C142.212903,49.775 142.133333,49.9271429 142.077419,50.0942857 C142.023656,50.2657143 141.997849,50.4414286 141.997849,50.6257143 C141.997849,51.0392857 142.116129,51.3607143 142.346237,51.5964286 C142.582796,51.8342857 142.909677,51.9521429 143.333333,51.9521429 L143.333333,52.835 C143.077419,52.835 142.834409,52.8007143 142.606452,52.73 C142.376344,52.6678571 142.2,52.58 142.073118,52.4792857 C141.993548,52.5628571 141.922581,52.655 141.868817,52.7642857 C141.817204,52.8692857 141.787097,52.9935714 141.787097,53.1328571 C141.787097,53.2957143 141.864516,53.4285714 142.015054,53.5335714 C142.165591,53.6428571 142.367742,53.7007143 142.615054,53.7092857 L143.333333,53.7392857 L143.333333,54.6564286 L142.393548,54.6264286 C142.245161,54.74 142.124731,54.8514286 142.032258,54.9564286 C141.935484,55.0614286 141.860215,55.1578571 141.8,55.2542857 C141.746237,55.3507143 141.707527,55.4428571 141.688172,55.535 C141.666667,55.6271429 141.658065,55.7235714 141.658065,55.82 C141.658065,56.12 141.808602,56.3514286 142.116129,56.5014286 C142.408602,56.6514286 142.817204,56.7264286 143.333333,56.735 L143.333333,57.6114286 C142.830108,57.6114286 142.402151,57.5642857 142.049462,57.4807143 C141.696774,57.3971429 141.402151,57.2792857 141.174194,57.1292857 C140.948387,56.9835714 140.784946,56.8078571 140.67957,56.6021429 C140.578495,56.3921429 140.526882,56.1714286 140.526882,55.9271429 C140.526882,55.7771429 140.544086,55.6271429 140.582796,55.4878571 C140.621505,55.3421429 140.675269,55.2071429 140.750538,55.0785714 C140.830108,54.9435714 140.926882,54.8235714 141.04086,54.7057143 C141.154839,54.5835714 141.283871,54.4721429 141.430108,54.3542857 C141.204301,54.2364286 141.04086,54.095 140.926882,53.9192857 C140.817204,53.7435714 140.763441,53.5507143 140.763441,53.345 C140.763441,53.0642857 140.821505,52.8135714 140.939785,52.5928571 C141.053763,52.3657143 141.2,52.1685714 141.372043,51.9928571 C141.225806,51.8214286 141.111828,51.6285714 141.027957,51.4164286 C140.944086,51.1978571 140.901075,50.9385714 140.901075,50.6342857 C140.901075,50.2785714 140.965591,49.955 141.086022,49.6742857 C141.204301,49.3957143 141.372043,49.1557143 141.587097,48.9585714 C141.8,48.7678571 142.055914,48.6157143 142.354839,48.5107143 C142.653763,48.4078571 142.980645,48.3564286 143.333333,48.3564286 L143.333333,48.3564286 Z M136.554839,55.175 L136.554839,54.2964286 C136.767742,54.2664286 136.969892,54.1957143 137.15914,54.0821429 C137.415054,53.9321429 137.688172,53.6964286 137.969892,53.3835714 L137.969892,52.0571429 L136.987097,52.0571429 C136.832258,52.0571429 136.688172,52.0614286 136.554839,52.0742857 L136.554839,51.2492857 C136.731183,51.2364286 136.916129,51.2278571 137.105376,51.2278571 L137.969892,51.2278571 L137.969892,50.7414286 C137.969892,50.5035714 137.944086,50.2892857 137.894624,50.1071429 C137.84086,49.9185714 137.75914,49.7664286 137.647312,49.6464286 C137.533333,49.52 137.387097,49.4278571 137.206452,49.3657143 C137.030108,49.3078571 136.810753,49.2735714 136.554839,49.2735714 L136.554839,48.3392857 L136.63871,48.3392857 C137.088172,48.3392857 137.475269,48.395 137.789247,48.4957143 C138.105376,48.5942857 138.36129,48.7464286 138.554839,48.9435714 C138.750538,49.1385714 138.894624,49.3828571 138.982796,49.6742857 C139.070968,49.9678571 139.111828,50.3064286 139.111828,50.6964286 L139.111828,54.9114286 C139.111828,54.965 139.094624,55.0078571 139.058065,55.0314286 C139.019355,55.0614286 138.969892,55.0828571 138.907527,55.1 C138.83871,55.1107143 138.741935,55.1192857 138.621505,55.1192857 C138.498925,55.1192857 138.402151,55.1107143 138.331183,55.1 C138.260215,55.0828571 138.204301,55.0614286 138.172043,55.0314286 C138.137634,55.0078571 138.124731,54.965 138.124731,54.9114286 L138.124731,54.2835714 C137.847312,54.575 137.546237,54.8021429 137.206452,54.965 C137,55.0657143 136.780645,55.1364286 136.554839,55.175 L136.554839,55.175 Z M136.554839,48.3392857 L136.554839,49.2735714 L136.537634,49.2735714 C136.247312,49.2735714 136,49.3078571 135.774194,49.3742857 C135.546237,49.4407143 135.348387,49.5157143 135.180645,49.595 C135.008602,49.6742857 134.870968,49.7514286 134.752688,49.8178571 C134.63871,49.8842857 134.554839,49.9185714 134.501075,49.9185714 C134.462366,49.9185714 134.430108,49.91 134.404301,49.8928571 C134.374194,49.8714286 134.348387,49.8435714 134.329032,49.805 C134.311828,49.7707143 134.294624,49.7214286 134.28172,49.6635714 C134.273118,49.6078571 134.268817,49.5414286 134.268817,49.475 C134.268817,49.3571429 134.277419,49.265 134.294624,49.1985714 C134.311828,49.1321429 134.348387,49.0678571 134.412903,49.0057143 C134.475269,48.9478571 134.584946,48.875 134.735484,48.7957143 C134.890323,48.7164286 135.066667,48.6414286 135.264516,48.575 C135.466667,48.5064286 135.686022,48.4528571 135.92043,48.4078571 C136.131183,48.3692857 136.339785,48.3435714 136.554839,48.3392857 L136.554839,48.3392857 Z M136.554839,51.2492857 L136.554839,52.0742857 C136.415054,52.085 136.286022,52.1064286 136.163441,52.1364286 C135.933333,52.19 135.739785,52.265 135.589247,52.37 C135.432258,52.475 135.32043,52.6014286 135.247312,52.7471429 C135.176344,52.8928571 135.144086,53.0621429 135.144086,53.2485714 C135.144086,53.5764286 135.243011,53.8314286 135.449462,54.0242857 C135.660215,54.2171429 135.950538,54.3114286 136.31828,54.3114286 C136.4,54.3114286 136.47957,54.3071429 136.554839,54.2964286 L136.554839,55.175 C136.419355,55.1964286 136.28172,55.2071429 136.137634,55.2071429 C135.806452,55.2071429 135.509677,55.1664286 135.24086,55.0785714 C134.976344,54.995 134.748387,54.8685714 134.55914,54.71 C134.369892,54.5471429 134.223656,54.3457143 134.11828,54.1121429 C134.017204,53.8721429 133.963441,53.6042857 133.963441,53.3085714 C133.963441,52.9528571 134.034409,52.6507143 134.176344,52.3871429 C134.324731,52.1321429 134.529032,51.9135714 134.797849,51.7421429 C135.066667,51.5707143 135.4,51.4421429 135.789247,51.3585714 C136.025806,51.3071429 136.28172,51.2707143 136.554839,51.2492857 L136.554839,51.2492857 Z M126.552688,57.6114286 L126.552688,56.735 L126.621505,56.735 C126.969892,56.735 127.260215,56.7028571 127.494624,56.6342857 C127.729032,56.5678571 127.91828,56.48 128.066667,56.3664286 C128.208602,56.255 128.309677,56.1285714 128.372043,55.9871429 C128.434409,55.8392857 128.468817,55.6935714 128.468817,55.535 C128.468817,55.2671429 128.354839,55.0614286 128.137634,54.9157143 C127.91828,54.7678571 127.617204,54.6885714 127.243011,54.68 L126.552688,54.6564286 L126.552688,53.7392857 L127.477419,53.7757143 C127.789247,53.7842857 128.073118,53.8314286 128.335484,53.9064286 C128.595699,53.9814286 128.821505,54.0907143 129.010753,54.2321429 C129.2,54.3757143 129.350538,54.5471429 129.455914,54.7571429 C129.565591,54.9607143 129.615054,55.2007143 129.615054,55.4728571 C129.615054,55.76 129.556989,56.0321429 129.434409,56.2914286 C129.313978,56.5507143 129.129032,56.7778571 128.87957,56.975 C128.632258,57.17 128.31828,57.3264286 127.931183,57.4421429 C127.544086,57.5514286 127.090323,57.6114286 126.565591,57.6114286 L126.552688,57.6114286 L126.552688,57.6114286 Z M126.552688,52.835 L126.552688,51.9521429 L126.556989,51.9521429 C126.789247,51.9521429 126.987097,51.9178571 127.150538,51.8428571 C127.31828,51.7721429 127.455914,51.6714286 127.565591,51.545 C127.675269,51.4207143 127.754839,51.2728571 127.808602,51.1014286 C127.860215,50.9385714 127.890323,50.7671429 127.890323,50.5828571 C127.890323,50.1607143 127.772043,49.8264286 127.535484,49.5864286 C127.305376,49.3528571 126.978495,49.2307143 126.552688,49.2307143 L126.552688,48.3564286 L126.556989,48.3564286 C126.746237,48.3564286 126.926882,48.365 127.090323,48.3864286 C127.255914,48.4078571 127.410753,48.4357143 127.552688,48.4742857 L129.451613,48.4742857 C129.526882,48.4742857 129.587097,48.5107143 129.627957,48.5878571 C129.666667,48.6628571 129.686022,48.7828571 129.686022,48.9392857 C129.686022,49.1021429 129.666667,49.2178571 129.619355,49.2907143 C129.578495,49.3614286 129.51828,49.3978571 129.451613,49.3978571 L128.552688,49.3978571 C128.711828,49.5628571 128.825806,49.7471429 128.892473,49.9464286 C128.956989,50.1478571 128.989247,50.3621429 128.989247,50.5785714 C128.989247,50.9385714 128.931183,51.2578571 128.812903,51.5385714 C128.698925,51.8128571 128.535484,52.0485714 128.31828,52.2414286 C128.103226,52.4321429 127.847312,52.58 127.548387,52.6807143 C127.251613,52.7814286 126.91828,52.835 126.556989,52.835 L126.552688,52.835 L126.552688,52.835 Z M126.552688,48.3564286 L126.552688,49.2307143 L126.537634,49.2307143 C126.313978,49.2307143 126.12043,49.2692857 125.956989,49.34 C125.789247,49.415 125.653763,49.5157143 125.546237,49.6464286 C125.436559,49.775 125.356989,49.9271429 125.301075,50.0942857 C125.247312,50.2657143 125.217204,50.4414286 125.217204,50.6257143 C125.217204,51.0392857 125.339785,51.3607143 125.569892,51.5964286 C125.806452,51.8342857 126.133333,51.9521429 126.552688,51.9521429 L126.552688,52.835 C126.301075,52.835 126.058065,52.8007143 125.832258,52.73 C125.6,52.6678571 125.419355,52.58 125.298925,52.4792857 C125.212903,52.5628571 125.146237,52.655 125.092473,52.7642857 C125.036559,52.8692857 125.012903,52.9935714 125.012903,53.1328571 C125.012903,53.2957143 125.088172,53.4285714 125.23871,53.5335714 C125.389247,53.6428571 125.591398,53.7007143 125.83871,53.7092857 L126.552688,53.7392857 L126.552688,54.6564286 L125.617204,54.6264286 C125.470968,54.74 125.348387,54.8514286 125.251613,54.9564286 C125.15914,55.0614286 125.07957,55.1578571 125.025806,55.2542857 C124.969892,55.3507143 124.933333,55.4428571 124.911828,55.535 C124.890323,55.6271429 124.877419,55.7235714 124.877419,55.82 C124.877419,56.12 125.032258,56.3514286 125.339785,56.5014286 C125.634409,56.6514286 126.036559,56.7264286 126.552688,56.735 L126.552688,57.6114286 C126.053763,57.6114286 125.625806,57.5642857 125.273118,57.4807143 C124.916129,57.3971429 124.625806,57.2792857 124.397849,57.1292857 C124.172043,56.9835714 124.004301,56.8078571 123.903226,56.6021429 C123.802151,56.3921429 123.748387,56.1714286 123.748387,55.9271429 C123.748387,55.7771429 123.769892,55.6271429 123.806452,55.4878571 C123.84086,55.3421429 123.898925,55.2071429 123.974194,55.0785714 C124.053763,54.9435714 124.150538,54.8235714 124.264516,54.7057143 C124.374194,54.5835714 124.507527,54.4721429 124.655914,54.3542857 C124.427957,54.2364286 124.260215,54.095 124.150538,53.9192857 C124.04086,53.7435714 123.987097,53.5507143 123.987097,53.345 C123.987097,53.0642857 124.045161,52.8135714 124.15914,52.5928571 C124.277419,52.3657143 124.423656,52.1685714 124.591398,51.9928571 C124.449462,51.8214286 124.335484,51.6285714 124.251613,51.4164286 C124.167742,51.1978571 124.126882,50.9385714 124.126882,50.6342857 C124.126882,50.2785714 124.189247,49.955 124.307527,49.6742857 C124.427957,49.3957143 124.595699,49.1557143 124.810753,48.9585714 C125.021505,48.7678571 125.277419,48.6157143 125.578495,48.5107143 C125.877419,48.4078571 126.204301,48.3564286 126.552688,48.3564286 L126.552688,48.3564286 Z M108.686022,55.1835714 L108.686022,54.2235714 C108.787097,54.2128571 108.883871,54.1957143 108.976344,54.1657143 C109.11828,54.125 109.264516,54.0521429 109.412903,53.9557143 C109.55914,53.8614286 109.71828,53.735 109.87957,53.5807143 C110.043011,53.4242857 110.215054,53.2357143 110.395699,53.0064286 L110.395699,50.5078571 C110.083871,50.1221429 109.782796,49.8307143 109.492473,49.6292857 C109.232258,49.4492857 108.963441,49.3485714 108.686022,49.3314286 L108.686022,48.3478571 C108.976344,48.3735714 109.245161,48.4485714 109.492473,48.5792857 C109.793548,48.7421429 110.096774,48.9757143 110.395699,49.2864286 L110.395699,45.6521429 C110.395699,45.6242857 110.404301,45.59 110.419355,45.56 C110.436559,45.5321429 110.466667,45.5064286 110.511828,45.4935714 C110.55914,45.4764286 110.617204,45.4614286 110.688172,45.4485714 C110.76129,45.44 110.853763,45.4314286 110.965591,45.4314286 C111.083871,45.4314286 111.176344,45.44 111.251613,45.4485714 C111.322581,45.4614286 111.387097,45.4764286 111.423656,45.4935714 C111.466667,45.5064286 111.501075,45.5321429 111.52043,45.56 C111.541935,45.59 111.550538,45.6242857 111.550538,45.6521429 L111.550538,54.9028571 C111.550538,54.9392857 111.546237,54.9735714 111.529032,54.9992857 C111.511828,55.0271429 111.483871,55.0485714 111.445161,55.0657143 C111.404301,55.0828571 111.352688,55.0957143 111.286022,55.1042857 C111.219355,55.115 111.141935,55.1192857 111.049462,55.1192857 C110.954839,55.1192857 110.870968,55.115 110.806452,55.1042857 C110.739785,55.0957143 110.688172,55.0828571 110.643011,55.0657143 C110.604301,55.0485714 110.572043,55.0271429 110.554839,54.9992857 C110.533333,54.9735714 110.524731,54.9392857 110.524731,54.9028571 L110.524731,54.0778571 C110.197849,54.4335714 109.853763,54.71 109.501075,54.9114286 C109.245161,55.0528571 108.972043,55.145 108.686022,55.1835714 L108.686022,55.1835714 Z M114.825806,54.9028571 C114.825806,54.9392857 114.817204,54.9735714 114.797849,54.995 C114.780645,55.0228571 114.746237,55.0442857 114.709677,55.0614286 C114.662366,55.0828571 114.608602,55.0957143 114.533333,55.1042857 C114.455914,55.115 114.36129,55.1192857 114.247312,55.1192857 C114.137634,55.1192857 114.045161,55.115 113.965591,55.1042857 C113.894624,55.0957143 113.834409,55.0828571 113.789247,55.0614286 C113.746237,55.0442857 113.713978,55.0228571 113.701075,54.995 C113.683871,54.9735714 113.675269,54.9392857 113.675269,54.9028571 L113.675269,48.6542857 C113.675269,48.62 113.683871,48.5921429 113.701075,48.5621429 C113.713978,48.5364286 113.746237,48.5107143 113.789247,48.4957143 C113.834409,48.4785714 113.894624,48.4614286 113.965591,48.4528571 C114.045161,48.4442857 114.137634,48.44 114.247312,48.44 C114.36129,48.44 114.455914,48.4442857 114.533333,48.4528571 C114.608602,48.4614286 114.662366,48.4785714 114.709677,48.4957143 C114.746237,48.5107143 114.780645,48.5364286 114.797849,48.5621429 C114.817204,48.5921429 114.825806,48.62 114.825806,48.6542857 L114.825806,54.9028571 L114.825806,54.9028571 Z M114.956989,46.5392857 C114.956989,46.8114286 114.905376,46.9957143 114.806452,47.0921429 C114.701075,47.1885714 114.516129,47.2357143 114.243011,47.2357143 C113.969892,47.2357143 113.784946,47.1885714 113.688172,47.0921429 C113.587097,47 113.537634,46.82 113.537634,46.5564286 C113.537634,46.2885714 113.587097,46.1042857 113.688172,46.0078571 C113.789247,45.9135714 113.978495,45.8621429 114.251613,45.8621429 C114.524731,45.8621429 114.709677,45.9092857 114.806452,46.0035714 C114.905376,46.1 114.956989,46.28 114.956989,46.5392857 L114.956989,46.5392857 Z M122.348387,54.9028571 C122.348387,54.9392857 122.339785,54.9735714 122.324731,54.995 C122.303226,55.0228571 122.273118,55.0442857 122.232258,55.0614286 C122.189247,55.0828571 122.131183,55.0957143 122.060215,55.1042857 C121.982796,55.115 121.890323,55.1192857 121.782796,55.1192857 C121.664516,55.1192857 121.567742,55.115 121.492473,55.1042857 C121.421505,55.0957143 121.36129,55.0828571 121.32043,55.0614286 C121.277419,55.0442857 121.249462,55.0228571 121.227957,54.995 C121.210753,54.9735714 121.197849,54.9392857 121.197849,54.9028571 L121.197849,51.245 C121.197849,50.885 121.172043,50.6 121.11828,50.3814286 C121.064516,50.165 120.980645,49.9807143 120.875269,49.8221429 C120.765591,49.6635714 120.632258,49.5414286 120.460215,49.4621429 C120.290323,49.3785714 120.094624,49.3357143 119.870968,49.3357143 C119.584946,49.3357143 119.294624,49.4364286 119.006452,49.6421429 C118.716129,49.8435714 118.412903,50.1435714 118.103226,50.5378571 L118.103226,54.9028571 C118.103226,54.9392857 118.090323,54.9735714 118.073118,54.995 C118.051613,55.0228571 118.023656,55.0442857 117.980645,55.0614286 C117.939785,55.0828571 117.87957,55.0957143 117.808602,55.1042857 C117.733333,55.115 117.636559,55.1192857 117.51828,55.1192857 C117.408602,55.1192857 117.31828,55.115 117.24086,55.1042857 C117.169892,55.0957143 117.107527,55.0828571 117.064516,55.0614286 C117.023656,55.0442857 116.989247,55.0228571 116.976344,54.995 C116.96129,54.9735714 116.952688,54.9392857 116.952688,54.9028571 L116.952688,48.6542857 C116.952688,48.6157143 116.956989,48.5878571 116.972043,48.5578571 C116.984946,48.5364286 117.015054,48.5107143 117.055914,48.4914286 C117.098925,48.47 117.148387,48.4571429 117.217204,48.4485714 C117.27957,48.4442857 117.367742,48.44 117.473118,48.44 C117.574194,48.44 117.662366,48.4442857 117.729032,48.4485714 C117.795699,48.4571429 117.847312,48.47 117.883871,48.4914286 C117.922581,48.5107143 117.946237,48.5364286 117.963441,48.5578571 C117.980645,48.5878571 117.989247,48.6157143 117.989247,48.6542857 L117.989247,49.4835714 C118.341935,49.0892857 118.694624,48.8 119.047312,48.6157143 C119.395699,48.4314286 119.748387,48.3392857 120.105376,48.3392857 C120.526882,48.3392857 120.875269,48.4121429 121.16129,48.5535714 C121.445161,48.695 121.68172,48.8835714 121.858065,49.1192857 C122.034409,49.3571429 122.16129,49.6335714 122.236559,49.9464286 C122.311828,50.2657143 122.348387,50.6471429 122.348387,51.0907143 L122.348387,54.9028571 L122.348387,54.9028571 Z M108.686022,48.3478571 L108.686022,49.3314286 L108.584946,49.3271429 C108.290323,49.3271429 108.03871,49.3978571 107.836559,49.5371429 C107.636559,49.6742857 107.468817,49.8585714 107.337634,50.0857143 C107.210753,50.3107143 107.11828,50.57 107.060215,50.855 C107.002151,51.1442857 106.972043,51.4335714 106.972043,51.7292857 C106.972043,52.0442857 106.997849,52.3528571 107.047312,52.655 C107.094624,52.9528571 107.182796,53.2207143 107.298925,53.4542857 C107.421505,53.6878571 107.580645,53.8764286 107.782796,54.0157143 C107.980645,54.1571429 108.232258,54.2278571 108.535484,54.2278571 C108.584946,54.2278571 108.634409,54.2278571 108.686022,54.2235714 L108.686022,55.1835714 C108.567742,55.2007143 108.453763,55.2071429 108.333333,55.2071429 C107.870968,55.2071429 107.47957,55.1192857 107.152688,54.9392857 C106.830108,54.7635714 106.565591,54.5214286 106.363441,54.2171429 C106.16129,53.915 106.015054,53.5592857 105.922581,53.15 C105.830108,52.7385714 105.782796,52.3078571 105.782796,51.8557143 C105.782796,51.3157143 105.843011,50.8292857 105.954839,50.3985714 C106.073118,49.9678571 106.245161,49.595 106.473118,49.295 C106.698925,48.9885714 106.980645,48.755 107.316129,48.5878571 C107.655914,48.4228571 108.043011,48.3392857 108.483871,48.3392857 C108.550538,48.3392857 108.619355,48.3435714 108.686022,48.3478571 L108.686022,48.3478571 Z M94.0150538,55.175 L94.0150538,54.2964286 C94.227957,54.2664286 94.4258065,54.1957143 94.6193548,54.0821429 C94.8752688,53.9321429 95.144086,53.6964286 95.4301075,53.3835714 L95.4301075,52.0571429 L94.4473118,52.0571429 C94.2903226,52.0571429 94.1483871,52.0614286 94.0150538,52.0742857 L94.0150538,51.2492857 C94.1913978,51.2364286 94.3763441,51.2278571 94.5634409,51.2278571 L95.4301075,51.2278571 L95.4301075,50.7414286 C95.4301075,50.5035714 95.4,50.2892857 95.3548387,50.1071429 C95.2989247,49.9185714 95.2193548,49.7664286 95.1053763,49.6464286 C94.9892473,49.52 94.8408602,49.4278571 94.6602151,49.3657143 C94.483871,49.3078571 94.2709677,49.2735714 94.0150538,49.2735714 L94.0150538,48.3392857 L94.0989247,48.3392857 C94.5483871,48.3392857 94.9290323,48.395 95.2494624,48.4957143 C95.5634409,48.5942857 95.8193548,48.7464286 96.0129032,48.9435714 C96.2064516,49.1385714 96.3505376,49.3828571 96.4387097,49.6742857 C96.5268817,49.9678571 96.572043,50.3064286 96.572043,50.6964286 L96.572043,54.9114286 C96.572043,54.965 96.5548387,55.0078571 96.5139785,55.0314286 C96.4795699,55.0614286 96.4258065,55.0828571 96.3612903,55.1 C96.2946237,55.1107143 96.2021505,55.1192857 96.0774194,55.1192857 C95.9548387,55.1192857 95.8580645,55.1107143 95.7870968,55.1 C95.716129,55.0828571 95.6645161,55.0614286 95.6322581,55.0314286 C95.5978495,55.0078571 95.5806452,54.965 95.5806452,54.9114286 L95.5806452,54.2835714 C95.3075269,54.575 95.0021505,54.8021429 94.6645161,54.965 C94.455914,55.0657143 94.2408602,55.1364286 94.0150538,55.175 L94.0150538,55.175 Z M104.08172,54.9028571 C104.08172,54.9392857 104.073118,54.9735714 104.053763,54.995 C104.036559,55.0228571 104.006452,55.0442857 103.965591,55.0614286 C103.922581,55.0828571 103.864516,55.0957143 103.791398,55.1042857 C103.716129,55.115 103.619355,55.1192857 103.511828,55.1192857 C103.397849,55.1192857 103.301075,55.115 103.225806,55.1042857 C103.150538,55.0957143 103.094624,55.0828571 103.053763,55.0614286 C103.010753,55.0442857 102.982796,55.0228571 102.96129,54.995 C102.944086,54.9735714 102.931183,54.9392857 102.931183,54.9028571 L102.931183,51.245 C102.931183,50.885 102.905376,50.6 102.847312,50.3814286 C102.793548,50.165 102.713978,49.9807143 102.608602,49.8221429 C102.498925,49.6635714 102.35914,49.5414286 102.191398,49.4621429 C102.019355,49.3785714 101.825806,49.3357143 101.604301,49.3357143 C101.313978,49.3357143 101.027957,49.4364286 100.739785,49.6421429 C100.449462,49.8435714 100.146237,50.1435714 99.8322581,50.5378571 L99.8322581,54.9028571 C99.8322581,54.9392857 99.8236559,54.9735714 99.8064516,54.995 C99.7849462,55.0228571 99.7569892,55.0442857 99.7139785,55.0614286 C99.6709677,55.0828571 99.6129032,55.0957143 99.5419355,55.1042857 C99.4666667,55.115 99.3698925,55.1192857 99.2516129,55.1192857 C99.1419355,55.1192857 99.0494624,55.115 98.9741935,55.1042857 C98.8989247,55.0957143 98.8408602,55.0828571 98.7978495,55.0614286 C98.7526882,55.0442857 98.7225806,55.0228571 98.7096774,54.995 C98.6924731,54.9735714 98.6817204,54.9392857 98.6817204,54.9028571 L98.6817204,48.6542857 C98.6817204,48.6157143 98.688172,48.5878571 98.7010753,48.5578571 C98.7182796,48.5364286 98.7483871,48.5107143 98.7849462,48.4914286 C98.827957,48.47 98.8817204,48.4571429 98.9505376,48.4485714 C99.0129032,48.4442857 99.0967742,48.44 99.2064516,48.44 C99.3075269,48.44 99.3956989,48.4442857 99.4623656,48.4485714 C99.5247312,48.4571429 99.5806452,48.47 99.6172043,48.4914286 C99.6516129,48.5107143 99.6795699,48.5364286 99.6967742,48.5578571 C99.7096774,48.5878571 99.7225806,48.6157143 99.7225806,48.6542857 L99.7225806,49.4835714 C100.070968,49.0892857 100.423656,48.8 100.776344,48.6157143 C101.124731,48.4314286 101.48172,48.3392857 101.83871,48.3392857 C102.255914,48.3392857 102.608602,48.4121429 102.892473,48.5535714 C103.178495,48.695 103.415054,48.8835714 103.591398,49.1192857 C103.763441,49.3571429 103.888172,49.6335714 103.965591,49.9464286 C104.045161,50.2657143 104.08172,50.6471429 104.08172,51.0907143 L104.08172,54.9028571 L104.08172,54.9028571 Z M85.4365591,51.6928571 C85.4365591,52.2371429 85.3784946,52.7214286 85.255914,53.1564286 C85.144086,53.5935714 84.9677419,53.9557143 84.7354839,54.2621429 C84.5096774,54.5685714 84.2236559,54.8021429 83.8924731,54.965 C83.5548387,55.1235714 83.1741935,55.2071429 82.7397849,55.2071429 C82.6645161,55.2071429 82.5892473,55.2071429 82.5225806,55.2007143 L82.5225806,54.2192857 L82.6193548,54.2235714 C82.911828,54.2235714 83.1569892,54.1528571 83.3634409,54.0157143 C83.5634409,53.8721429 83.7311828,53.6921429 83.8580645,53.4628571 C83.9849462,53.2335714 84.0795699,52.9764286 84.1397849,52.6935714 C84.1935484,52.4085714 84.2236559,52.1192857 84.2236559,51.8257143 C84.2236559,51.5085714 84.1978495,51.1978571 84.1526882,50.8978571 C84.1010753,50.5957143 84.0172043,50.3278571 83.8989247,50.0985714 C83.7784946,49.8671429 83.6150538,49.6785714 83.4172043,49.5414286 C83.2150538,49.3978571 82.9677419,49.3271429 82.6688172,49.3271429 C82.6193548,49.3271429 82.5677419,49.3271429 82.5225806,49.3357143 L82.5225806,48.3692857 C82.6451613,48.3521429 82.7698925,48.3392857 82.9010753,48.3392857 C83.3548387,48.3392857 83.744086,48.4314286 84.0688172,48.6114286 C84.3913978,48.7914286 84.6516129,49.0357143 84.8537634,49.34 C85.055914,49.6421429 85.2021505,49.9978571 85.2946237,50.4028571 C85.3913978,50.81 85.4365591,51.2407143 85.4365591,51.6928571 L85.4365591,51.6928571 Z M94.0150538,48.3392857 L94.0150538,49.2735714 L93.9935484,49.2735714 C93.7075269,49.2735714 93.455914,49.3078571 93.2322581,49.3742857 C93.0064516,49.4407143 92.8086022,49.5157143 92.6365591,49.595 C92.4688172,49.6742857 92.3247312,49.7514286 92.2129032,49.8178571 C92.0989247,49.8842857 92.0150538,49.9185714 91.9612903,49.9185714 C91.9225806,49.9185714 91.888172,49.91 91.8602151,49.8928571 C91.8301075,49.8714286 91.8086022,49.8435714 91.7870968,49.805 C91.7677419,49.7707143 91.7505376,49.7214286 91.7419355,49.6635714 C91.7333333,49.6078571 91.7247312,49.5414286 91.7247312,49.475 C91.7247312,49.3571429 91.7376344,49.265 91.7548387,49.1985714 C91.772043,49.1321429 91.8086022,49.0678571 91.8709677,49.0057143 C91.9354839,48.9478571 92.0408602,48.875 92.1956989,48.7957143 C92.3462366,48.7164286 92.5225806,48.6414286 92.7247312,48.575 C92.9225806,48.5064286 93.1397849,48.4528571 93.3806452,48.4078571 C93.5892473,48.3692857 93.8,48.3435714 94.0150538,48.3392857 L94.0150538,48.3392857 Z M94.0150538,51.2492857 L94.0150538,52.0742857 C93.8709677,52.085 93.7419355,52.1064286 93.6236559,52.1364286 C93.3935484,52.19 93.2,52.265 93.0430108,52.37 C92.8924731,52.475 92.7784946,52.6014286 92.7075269,52.7471429 C92.6365591,52.8928571 92.5978495,53.0621429 92.5978495,53.2485714 C92.5978495,53.5764286 92.7032258,53.8314286 92.9096774,54.0242857 C93.116129,54.2171429 93.4043011,54.3114286 93.7784946,54.3114286 C93.8580645,54.3114286 93.9376344,54.3071429 94.0150538,54.2964286 L94.0150538,55.175 C93.8795699,55.1964286 93.7376344,55.2071429 93.5978495,55.2071429 C93.2666667,55.2071429 92.9677419,55.1664286 92.6989247,55.0785714 C92.4344086,54.995 92.2043011,54.8685714 92.0193548,54.71 C91.8301075,54.5471429 91.683871,54.3457143 91.5784946,54.1121429 C91.4774194,53.8721429 91.4236559,53.6042857 91.4236559,53.3085714 C91.4236559,52.9528571 91.4946237,52.6507143 91.6365591,52.3871429 C91.7827957,52.1321429 91.9892473,51.9135714 92.2580645,51.7421429 C92.5268817,51.5707143 92.8580645,51.4421429 93.2451613,51.3585714 C93.483871,51.3071429 93.7419355,51.2707143 94.0150538,51.2492857 L94.0150538,51.2492857 Z M90.8301075,49.0635714 C90.8301075,49.1642857 90.8258065,49.2521429 90.8215054,49.3185714 C90.8172043,49.3914286 90.8043011,49.445 90.7978495,49.4835714 C90.7806452,49.5242857 90.7634409,49.5542857 90.7419355,49.5757143 C90.7204301,49.595 90.6924731,49.6035714 90.6537634,49.6035714 C90.6172043,49.6035714 90.5698925,49.595 90.5204301,49.5757143 C90.4645161,49.5542857 90.4064516,49.5328571 90.3397849,49.5114286 C90.2666667,49.49 90.1956989,49.4707143 90.111828,49.4535714 C90.027957,49.4321429 89.9354839,49.4235714 89.8387097,49.4235714 C89.7204301,49.4235714 89.6129032,49.4492857 89.4989247,49.4942857 C89.3849462,49.5414286 89.2688172,49.6164286 89.1462366,49.7214286 C89.0236559,49.8307143 88.8946237,49.9721429 88.7591398,50.1478571 C88.6258065,50.3235714 88.4774194,50.5378571 88.3139785,50.7928571 L88.3139785,54.9028571 C88.3139785,54.9392857 88.3053763,54.9735714 88.2860215,54.995 C88.2688172,55.0228571 88.2344086,55.0442857 88.1978495,55.0614286 C88.1548387,55.0828571 88.0967742,55.0957143 88.0193548,55.1042857 C87.944086,55.115 87.8516129,55.1192857 87.7354839,55.1192857 C87.6258065,55.1192857 87.5333333,55.115 87.4580645,55.1042857 C87.3827957,55.0957143 87.3225806,55.0828571 87.2817204,55.0614286 C87.2344086,55.0442857 87.2064516,55.0228571 87.1892473,54.995 C87.172043,54.9735714 87.1634409,54.9392857 87.1634409,54.9028571 L87.1634409,48.6542857 C87.1634409,48.6157143 87.172043,48.5878571 87.1849462,48.5578571 C87.1978495,48.5364286 87.2258065,48.5107143 87.2688172,48.4914286 C87.3096774,48.47 87.3612903,48.4571429 87.427957,48.4485714 C87.4946237,48.4442857 87.5784946,48.44 87.688172,48.44 C87.7892473,48.44 87.8731183,48.4442857 87.9397849,48.4485714 C88.0086022,48.4571429 88.0623656,48.47 88.1010753,48.4914286 C88.1333333,48.5107143 88.1634409,48.5364286 88.1806452,48.5578571 C88.1935484,48.5878571 88.2021505,48.6157143 88.2021505,48.6542857 L88.2021505,49.5628571 C88.3741935,49.31 88.5376344,49.1107143 88.683871,48.95 C88.8387097,48.7957143 88.9827957,48.6714286 89.116129,48.5792857 C89.2516129,48.4914286 89.3806452,48.4271429 89.516129,48.395 C89.6494624,48.3607143 89.7806452,48.3392857 89.9139785,48.3392857 C89.9784946,48.3392857 90.0451613,48.3435714 90.1204301,48.3521429 C90.1956989,48.3607143 90.2795699,48.3735714 90.3634409,48.3907143 C90.4430108,48.4121429 90.5204301,48.4271429 90.5870968,48.4528571 C90.6580645,48.4785714 90.7053763,48.5 90.7290323,48.5192857 C90.7591398,48.545 90.7806452,48.5664286 90.7892473,48.5878571 C90.7978495,48.6071429 90.8043011,48.6328571 90.8129032,48.6671429 C90.8172043,48.6992857 90.8215054,48.7507143 90.8258065,48.8085714 C90.8301075,48.8707143 90.8301075,48.9585714 90.8301075,49.0635714 L90.8301075,49.0635714 Z M82.5225806,55.2007143 C82.4043011,55.1921429 82.2903226,55.175 82.1870968,55.1492857 C82.0172043,55.1085714 81.8494624,55.0442857 81.6903226,54.9564286 C81.5268817,54.8685714 81.3634409,54.7592857 81.2,54.6264286 C81.0344086,54.4914286 80.8666667,54.3285714 80.6860215,54.1357143 L80.6860215,54.9028571 C80.6860215,54.9392857 80.6731183,54.9735714 80.6580645,54.9992857 C80.6365591,55.0271429 80.6064516,55.0485714 80.5655914,55.0657143 C80.5268817,55.0828571 80.4731183,55.0957143 80.4086022,55.1042857 C80.3462366,55.115 80.2666667,55.1192857 80.1698925,55.1192857 C80.0774194,55.1192857 79.9978495,55.115 79.9354839,55.1042857 C79.8666667,55.0957143 79.8129032,55.0828571 79.772043,55.0657143 C79.7333333,55.0485714 79.7032258,55.0271429 79.6860215,54.9992857 C79.6752688,54.9735714 79.6666667,54.9392857 79.6666667,54.9028571 L79.6666667,45.6285714 C79.6666667,45.59 79.6752688,45.5578571 79.6903226,45.5321429 C79.7075269,45.5021429 79.7376344,45.4764286 79.7827957,45.4614286 C79.8258065,45.4442857 79.883871,45.4271429 79.9591398,45.4185714 C80.0365591,45.41 80.1290323,45.4057143 80.2365591,45.4057143 C80.3548387,45.4057143 80.4473118,45.41 80.5268817,45.4185714 C80.5978495,45.4271429 80.6580645,45.4442857 80.6989247,45.4614286 C80.7419355,45.4764286 80.7698925,45.5021429 80.7870968,45.5321429 C80.8086022,45.5578571 80.8172043,45.59 80.8172043,45.6285714 L80.8172043,49.37 C81.0021505,49.1814286 81.1827957,49.0185714 81.3591398,48.8921429 C81.5311828,48.7592857 81.7032258,48.6585714 81.8709677,48.575 C82.0344086,48.4914286 82.2021505,48.4314286 82.372043,48.3992857 L82.5225806,48.3692857 L82.5225806,49.3357143 C82.4215054,49.3442857 82.3290323,49.3614286 82.2322581,49.3914286 C82.0903226,49.4321429 81.9419355,49.4985714 81.7956989,49.595 C81.6451613,49.6957143 81.488172,49.8221429 81.3290323,49.9721429 C81.1698925,50.1264286 80.9978495,50.315 80.8172043,50.5507143 L80.8172043,53.045 C81.1311828,53.4242857 81.4344086,53.7178571 81.7247312,53.9192857 C81.9806452,54.0992857 82.2494624,54.2 82.5225806,54.2192857 L82.5225806,55.2007143 L82.5225806,55.2007143 Z" id="Fill-7" fill="#FFFFFF"></path>
                        <path d="M160.324731,54.9028571 C160.324731,54.9392857 160.311828,54.9735714 160.294624,54.995 C160.273118,55.0228571 160.247312,55.0442857 160.202151,55.0614286 C160.15914,55.0828571 160.101075,55.0957143 160.030108,55.1042857 C159.954839,55.115 159.862366,55.1192857 159.752688,55.1192857 C159.634409,55.1192857 159.537634,55.115 159.462366,55.1042857 C159.391398,55.0957143 159.333333,55.0828571 159.290323,55.0614286 C159.249462,55.0442857 159.219355,55.0228571 159.197849,54.995 C159.180645,54.9735714 159.172043,54.9392857 159.172043,54.9028571 L159.172043,51.245 C159.172043,50.885 159.144086,50.6 159.088172,50.3814286 C159.034409,50.165 158.950538,49.9807143 158.845161,49.8221429 C158.735484,49.6635714 158.602151,49.5414286 158.430108,49.4621429 C158.262366,49.3785714 158.064516,49.3357143 157.84086,49.3357143 C157.552688,49.3357143 157.266667,49.4364286 156.976344,49.6421429 C156.686022,49.8435714 156.389247,50.1435714 156.073118,50.5378571 L156.073118,54.9028571 C156.073118,54.9392857 156.060215,54.9735714 156.043011,54.995 C156.027957,55.0228571 155.993548,55.0442857 155.954839,55.0614286 C155.909677,55.0828571 155.855914,55.0957143 155.778495,55.1042857 C155.703226,55.115 155.606452,55.1192857 155.490323,55.1192857 C155.384946,55.1192857 155.288172,55.115 155.212903,55.1042857 C155.139785,55.0957143 155.08172,55.0828571 155.036559,55.0614286 C154.993548,55.0442857 154.95914,55.0228571 154.948387,54.995 C154.931183,54.9735714 154.922581,54.9392857 154.922581,54.9028571 L154.922581,48.6542857 C154.922581,48.6157143 154.926882,48.5878571 154.944086,48.5578571 C154.954839,48.5364286 154.984946,48.5107143 155.027957,48.4914286 C155.068817,48.47 155.12043,48.4571429 155.187097,48.4485714 C155.249462,48.4442857 155.337634,48.44 155.443011,48.44 C155.548387,48.44 155.632258,48.4442857 155.698925,48.4485714 C155.765591,48.4571429 155.817204,48.47 155.855914,48.4914286 C155.892473,48.5107143 155.922581,48.5364286 155.935484,48.5578571 C155.950538,48.5878571 155.95914,48.6157143 155.95914,48.6542857 L155.95914,49.4835714 C156.311828,49.0892857 156.664516,48.8 157.019355,48.6157143 C157.367742,48.4314286 157.72043,48.3392857 158.077419,48.3392857 C158.496774,48.3392857 158.845161,48.4121429 159.131183,48.5535714 C159.417204,48.695 159.651613,48.8835714 159.827957,49.1192857 C160.004301,49.3571429 160.131183,49.6335714 160.206452,49.9464286 C160.286022,50.2657143 160.324731,50.6471429 160.324731,51.0907143 L160.324731,54.9028571 L160.324731,54.9028571 Z M166.926882,53.9492857 C166.926882,54.0328571 166.922581,54.0992857 166.91828,54.1571429 C166.913978,54.2128571 166.905376,54.2621429 166.896774,54.3007143 C166.883871,54.3414286 166.868817,54.38 166.851613,54.4035714 C166.834409,54.4378571 166.8,54.4807143 166.741935,54.5385714 C166.683871,54.5964286 166.582796,54.6692857 166.447312,54.7571429 C166.305376,54.8407143 166.150538,54.9157143 165.974194,54.9821429 C165.8,55.0485714 165.612903,55.1042857 165.406452,55.145 C165.2,55.1878571 164.989247,55.2071429 164.772043,55.2071429 C164.322581,55.2071429 163.922581,55.1321429 163.574194,54.9864286 C163.225806,54.8364286 162.935484,54.6221429 162.701075,54.3371429 C162.466667,54.0521429 162.286022,53.7007143 162.163441,53.2914286 C162.04086,52.8735714 161.978495,52.3957143 161.978495,51.8557143 C161.978495,51.2407143 162.053763,50.7092857 162.206452,50.27 C162.356989,49.8264286 162.563441,49.4664286 162.827957,49.1814286 C163.088172,48.9007143 163.397849,48.6864286 163.750538,48.5535714 C164.107527,48.4142857 164.490323,48.3478571 164.905376,48.3478571 C165.103226,48.3478571 165.301075,48.3692857 165.486022,48.4078571 C165.675269,48.44 165.847312,48.4914286 166.006452,48.5492857 C166.16129,48.6071429 166.305376,48.68 166.427957,48.7592857 C166.548387,48.8385714 166.64086,48.9007143 166.696774,48.9585714 C166.754839,49.0142857 166.791398,49.0592857 166.808602,49.0935714 C166.830108,49.1235714 166.851613,49.16 166.864516,49.2071429 C166.875269,49.2521429 166.883871,49.2992857 166.888172,49.3571429 C166.896774,49.4107143 166.896774,49.4835714 166.896774,49.5628571 C166.896774,49.7428571 166.875269,49.8671429 166.834409,49.9378571 C166.791398,50.015 166.741935,50.0514286 166.683871,50.0514286 C166.610753,50.0514286 166.531183,50.0107143 166.443011,49.9357143 C166.350538,49.8585714 166.23871,49.775 166.094624,49.6828571 C165.96129,49.5907143 165.789247,49.5028571 165.591398,49.4278571 C165.393548,49.3528571 165.163441,49.31 164.890323,49.31 C164.339785,49.31 163.913978,49.5242857 163.621505,49.9464286 C163.326882,50.3707143 163.180645,50.9857143 163.180645,51.7935714 C163.180645,52.1942857 163.217204,52.5457143 163.292473,52.8521429 C163.369892,53.1521429 163.48172,53.4092857 163.630108,53.6128571 C163.780645,53.8142857 163.96129,53.9685714 164.176344,54.065 C164.393548,54.1657143 164.64086,54.2171429 164.91828,54.2171429 C165.182796,54.2171429 165.415054,54.1742857 165.617204,54.0907143 C165.812903,54.0071429 165.989247,53.915 166.133333,53.8142857 C166.27957,53.7135714 166.406452,53.6257143 166.507527,53.5464286 C166.608602,53.4671429 166.683871,53.4242857 166.737634,53.4242857 C166.772043,53.4242857 166.795699,53.4328571 166.821505,53.45 C166.847312,53.4714286 166.864516,53.5014286 166.87957,53.5464286 C166.896774,53.5935714 166.909677,53.6428571 166.913978,53.7092857 C166.922581,53.78 166.926882,53.8571429 166.926882,53.9492857 L166.926882,53.9492857 Z M171.307527,55.0785714 L170.470968,57.3757143 C170.443011,57.4464286 170.369892,57.5064286 170.262366,57.5471429 C170.148387,57.5857143 169.972043,57.6028571 169.739785,57.6028571 C169.619355,57.6028571 169.522581,57.5985714 169.447312,57.5857143 C169.376344,57.5728571 169.316129,57.5557143 169.275269,57.5257143 C169.236559,57.4978571 169.215054,57.4635714 169.210753,57.4142857 C169.206452,57.3714286 169.219355,57.3135714 169.245161,57.2514286 L170.109677,55.0785714 C170.068817,55.0571429 170.025806,55.0271429 169.993548,54.9864286 C169.954839,54.9435714 169.929032,54.9028571 169.913978,54.8514286 L167.67957,48.8835714 C167.64086,48.7871429 167.623656,48.7078571 167.623656,48.6542857 C167.623656,48.5985714 167.64086,48.5535714 167.67957,48.5192857 C167.716129,48.4914286 167.774194,48.4657143 167.858065,48.4571429 C167.944086,48.4442857 168.051613,48.44 168.195699,48.44 C168.333333,48.44 168.443011,48.4442857 168.522581,48.4485714 C168.602151,48.4571429 168.662366,48.47 168.711828,48.4871429 C168.752688,48.5064286 168.787097,48.5321429 168.808602,48.5664286 C168.834409,48.6028571 168.853763,48.65 168.875269,48.7078571 L170.668817,53.7221429 L170.690323,53.7221429 L172.417204,48.6821429 C172.445161,48.5942857 172.47957,48.5364286 172.51828,48.5107143 C172.554839,48.4871429 172.612903,48.4657143 172.694624,48.4571429 C172.774194,48.4442857 172.886022,48.44 173.03871,48.44 C173.167742,48.44 173.273118,48.4442857 173.356989,48.4571429 C173.44086,48.4657143 173.503226,48.4914286 173.541935,48.5192857 C173.580645,48.5535714 173.6,48.5985714 173.6,48.6542857 C173.6,48.7078571 173.584946,48.7785714 173.55914,48.8621429 L171.307527,55.0785714 L171.307527,55.0785714 Z" id="Fill-8" fill="#FFFFFF"></path>
                        <path d="M55.4924731,36.3285714 L55.5139785,32.2528571 C53.6537634,34.1771429 52.0795699,35.5957143 49.8903226,36.2235714 L49.8903226,34.4321429 C51.1204301,34.0464286 52.3096774,33.3392857 53.1655914,32.465 C54.5569892,31.0507143 55.3763441,29.0428571 55.3763441,26.915 L55.3763441,22.685 C53.7075269,22.865 51.7182796,23.0578571 49.8903226,23.6214286 L49.8903226,21.935 C51.5612903,21.5921429 53.3978495,21.3371429 55.3763441,21.1185714 L55.3763441,18.8 C55.3763441,16.0292857 52.716129,14.6107143 50.1935484,14.6107143 C50.088172,14.6107143 49.9913978,14.6107143 49.8903226,14.615 L49.8903226,12.6907143 C50.2860215,12.6692857 50.6967742,12.6521429 51.1247312,12.6521429 C55.3806452,12.6521429 59.4,14.2292857 59.4,18.7035714 L59.4,30.7035714 L59.4043011,36.3371429 L55.4924731,36.3285714 L55.4924731,36.3285714 Z M49.8903226,36.2235714 C49.0666667,36.4614286 48.1548387,36.5921429 47.1096774,36.5921429 C44.7956989,36.5921429 43.0322581,36.0971429 41.8301075,35.1135714 C38.0322581,31.2521429 40.3978495,25.6271429 44.1956989,23.8571429 C45.7612903,22.9892857 47.6817204,22.3871429 49.8903226,21.935 L49.8903226,23.6214286 C46.9290323,24.5342857 44.4043011,26.4264286 44.4043011,30.8492857 C44.4043011,34.6035714 47.2365591,35.27 49.8903226,34.4321429 L49.8903226,36.2235714 L49.8903226,36.2235714 Z M49.8903226,14.615 C46.1526882,14.7735714 44.5268817,17.8871429 43.9225806,19.1557143 C42.7333333,18.1464286 42.4602151,17.7714286 41.3462366,16.775 C42.5612903,15.4721429 44.5526882,13.0207143 49.8903226,12.6907143 L49.8903226,14.615 L49.8903226,14.615 Z" id="Fill-9" fill="#FFFFFF"></path>
                        <path d="M28.6150538,12.8364286 L28.6150538,18.5235714 C30.288172,12.4057143 36.5376344,11.5014286 40.3225806,13.4021429 L40.3225806,16.595 C31.7698925,11.945 28.9225806,19.2114286 28.9225806,23.0064286 L28.9225806,36.3371429 L24.8451613,36.35 L24.8451613,12.8321429 L28.6150538,12.8364286" id="Fill-10" fill="#FFFFFF"></path>
                        <path d="M67.6817204,12.77 C67.9053763,13.7857143 68.0903226,15.9092857 68.0645161,17.1885714 C69.0860215,15.5578571 70.2817204,14.825 71.655914,14 C73.0301075,13.1878571 74.5806452,12.7785714 76.3139785,12.7785714 C77.8129032,12.7785714 79.0645161,13.0742857 80.0774194,13.6571429 C81.0903226,14.2378571 81.9053763,15.1678571 82.5139785,16.4321429 C83.1311828,17.7007143 83.4387097,19.1235714 83.4387097,20.6878571 L83.4387097,36.3414286 L79.5032258,36.3414286 L79.5032258,22.2457143 C79.5032258,20.1564286 79.1741935,18.5985714 78.5397849,17.5871429 C76.5419355,14.405 72.0752688,14.4907143 69.8924731,17.1178571 C68.6774194,18.5792857 68.0645161,20.4735714 68.0645161,22.8092857 L68.0645161,36.32 L64.0924731,36.3114286 L64.0924731,17.1885714 C64.0924731,16.4278571 63.9612903,13.9292857 63.6967742,12.8278571 L67.6817204,12.77" id="Fill-11" fill="#FFFFFF"></path>
                        <path d="M59.6387097,0.268571429 L54.1784946,8.06428571 L51.0752688,8.06428571 L55.9806452,0.268571429 L59.6387097,0.268571429" id="Fill-12" fill="#FFFFFF"></path>
                    </g>
                </g>
            </g>
        </g>
    </g>
</svg>