<?xml version="1.0" encoding="UTF-8" standalone="no"?>
<svg width="174px" height="45px" viewBox="0 0 174 45" version="1.1" xmlns="http://www.w3.org/2000/svg" xmlns:xlink="http://www.w3.org/1999/xlink" xmlns:sketch="http://www.bohemiancoding.com/sketch/ns">
    <!-- Generator: Sketch 3.2.2 (9983) - http://www.bohemiancoding.com/sketch -->
    <title>budny.by</title>
    <desc>Created with Sketch.</desc>
    <defs></defs>
    <g id="Page-1" stroke="none" stroke-width="1" fill="none" fill-rule="evenodd" sketch:type="MSPage">
        <g id="Партнёры" sketch:type="MSArtboardGroup" transform="translate(-1181.000000, -1801.000000)">
            <g id="2_block" sketch:type="MSLayerGroup" transform="translate(469.000000, 142.000000)">
                <g id="5" transform="translate(0.000000, 1476.000000)" sketch:type="MSShapeGroup">
                    <g id="budny.by" transform="translate(711.000000, 183.000000)">
                        <path d="M1.60666667,1.63333333 C2.93666667,1.36 5.03666667,1.155 7.17166667,1.155 C10.215,1.155 12.175,1.66833333 13.645,2.83333333 C14.87,3.72166667 15.605,5.09166667 15.605,6.90666667 C15.605,9.13166667 14.1,11.0816667 11.615,11.9716667 L11.615,12.04 C13.855,12.5883333 16.48,14.4033333 16.48,17.825 C16.48,19.8116667 15.675,21.3166667 14.485,22.4466667 C12.84,23.9183333 10.18,24.6033333 6.33166667,24.6033333 C4.23166667,24.6033333 2.62166667,24.4666667 1.60666667,24.33 L1.60666667,1.63333333 L1.60666667,1.63333333 Z M4.65166667,11.0816667 L7.41666667,11.0816667 C10.635,11.0816667 12.525,9.44 12.525,7.215 C12.525,4.51 10.425,3.44833333 7.34666667,3.44833333 C5.94666667,3.44833333 5.14166667,3.55166667 4.65166667,3.65333333 L4.65166667,11.0816667 L4.65166667,11.0816667 Z M4.65166667,22.1383333 C5.24666667,22.2416667 6.12166667,22.275 7.20666667,22.275 C10.355,22.275 13.26,21.1466667 13.26,17.7916667 C13.26,14.6416667 10.495,13.3416667 7.17166667,13.3416667 L4.65166667,13.3416667 L4.65166667,22.1383333 L4.65166667,22.1383333 Z" id="Fill-1" fill="#FFFFFF"></path>
                        <path d="M34.645,19.88 C34.645,21.5916667 34.68,23.0966667 34.785,24.3983333 L32.055,24.3983333 L31.88,21.6933333 L31.81,21.6933333 C31.005,23.0283333 29.22,24.775 26.2116667,24.775 C23.5516667,24.775 20.3666667,23.3366667 20.3666667,17.5166667 L20.3666667,7.83 L23.4466667,7.83 L23.4466667,17.005 C23.4466667,20.1533333 24.4266667,22.275 27.225,22.275 C29.29,22.275 30.725,20.8716667 31.285,19.5366667 C31.46,19.0916667 31.565,18.5433333 31.565,17.9966667 L31.565,7.83 L34.645,7.83 L34.645,19.88" id="Fill-2" fill="#FFFFFF"></path>
                        <path d="M54.3833333,0.095 L54.3833333,20.1183333 C54.3833333,21.5916667 54.4183333,23.2683333 54.5233333,24.3983333 L51.76,24.3983333 L51.62,21.5233333 L51.55,21.5233333 C50.605,23.37 48.54,24.775 45.775,24.775 C41.6816667,24.775 38.5316667,21.3866667 38.5316667,16.3533333 C38.4966667,10.8416667 41.9966667,7.45333333 46.125,7.45333333 C48.715,7.45333333 50.465,8.65166667 51.235,9.98666667 L51.305,9.98666667 L51.305,0.095 L54.3833333,0.095 L54.3833333,0.095 Z M51.305,14.5733333 C51.305,14.1966667 51.27,13.6833333 51.165,13.3066667 C50.71,11.39 49.03,9.815 46.72,9.815 C43.5366667,9.815 41.6466667,12.5533333 41.6466667,16.2166667 C41.6466667,19.5716667 43.3266667,22.3433333 46.65,22.3433333 C48.715,22.3433333 50.605,21.01 51.165,18.75 C51.27,18.3383333 51.305,17.9283333 51.305,17.4483333 L51.305,14.5733333 L51.305,14.5733333 Z" id="Fill-3" fill="#FF141C"></path>
                        <path d="M59.4966667,12.315 C59.4966667,10.6033333 59.4616667,9.2 59.3566667,7.83 L62.0866667,7.83 L62.2616667,10.5683333 L62.3316667,10.5683333 C63.1716667,8.99333333 65.1316667,7.45333333 67.93,7.45333333 C70.275,7.45333333 73.915,8.82333333 73.915,14.505 L73.915,24.3983333 L70.835,24.3983333 L70.835,14.8483333 C70.835,12.1783333 69.82,9.95333333 66.915,9.95333333 C64.8866667,9.95333333 63.3116667,11.355 62.7866667,13.0333333 C62.6466667,13.41 62.5766667,13.9233333 62.5766667,14.4366667 L62.5766667,24.3983333 L59.4966667,24.3983333 L59.4966667,12.315" id="Fill-4" fill="#FFFFFF"></path>
                        <path d="M79.5866667,7.83 L83.2966667,17.62 C83.6816667,18.715 84.1016667,20.0166667 84.3816667,21.01 L84.45,21.01 C84.765,20.0166667 85.115,18.75 85.535,17.5516667 L88.895,7.83 L92.1483333,7.83 L87.53,19.64 C85.325,25.3216667 83.8216667,28.2316667 81.7216667,30.0116667 C80.2166667,31.3116667 78.7116667,31.8266667 77.9433333,31.9633333 L77.1716667,29.4283333 C77.9433333,29.19 78.9566667,28.7116667 79.8666667,27.9566667 C80.7066667,27.3066667 81.7566667,26.1433333 82.4566667,24.6033333 C82.5966667,24.295 82.7016667,24.055 82.7016667,23.885 C82.7016667,23.7133333 82.63,23.4733333 82.49,23.0966667 L76.2266667,7.83 L79.5866667,7.83" id="Fill-5" fill="#FFFFFF"></path>
                        <path d="M92.8516667,22.6183333 C92.8516667,21.3516667 93.7266667,20.4616667 94.9516667,20.4616667 C96.1766667,20.4616667 97.0166667,21.3516667 97.0166667,22.6183333 C97.0166667,23.85 96.2116667,24.775 94.9166667,24.775 C93.6916667,24.775 92.8516667,23.85 92.8516667,22.6183333" id="Fill-6" fill="#FFFFFF"></path>
                        <path d="M100.691667,24.3983333 C100.761667,23.2683333 100.831667,21.5916667 100.831667,20.1183333 L100.831667,0.095 L103.876667,0.095 L103.876667,10.5 L103.945,10.5 C105.031667,8.65166667 106.99,7.45333333 109.72,7.45333333 C113.92,7.45333333 116.895,10.8766667 116.858333,15.9083333 C116.858333,21.83 113.043333,24.775 109.265,24.775 C106.816667,24.775 104.856667,23.85 103.596667,21.66 L103.491667,21.66 L103.351667,24.3983333 L100.691667,24.3983333 L100.691667,24.3983333 Z M103.876667,17.7566667 C103.876667,18.1333333 103.945,18.51 104.016667,18.8533333 C104.611667,20.9416667 106.396667,22.3783333 108.636667,22.3783333 C111.855,22.3783333 113.78,19.8116667 113.78,16.0116667 C113.78,12.6916667 112.03,9.85 108.74,9.85 C106.64,9.85 104.681667,11.2533333 104.051667,13.5466667 C103.981667,13.8883333 103.876667,14.3 103.876667,14.7783333 L103.876667,17.7566667 L103.876667,17.7566667 Z" id="Fill-7" fill="#FF141C"></path>
                        <path d="M121.621667,7.83 L125.331667,17.62 C125.716667,18.715 126.136667,20.0166667 126.416667,21.01 L126.486667,21.01 C126.8,20.0166667 127.151667,18.75 127.571667,17.5516667 L130.931667,7.83 L134.185,7.83 L129.565,19.64 C127.36,25.3216667 125.856667,28.2316667 123.756667,30.0116667 C122.253333,31.3116667 120.746667,31.8266667 119.976667,31.9633333 L119.206667,29.4283333 C119.976667,29.19 120.993333,28.7116667 121.901667,27.9566667 C122.741667,27.3066667 123.791667,26.1433333 124.491667,24.6033333 C124.631667,24.295 124.736667,24.055 124.736667,23.885 C124.736667,23.7133333 124.666667,23.4733333 124.526667,23.0966667 L118.261667,7.83 L121.621667,7.83" id="Fill-8" fill="#FFFFFF"></path>
                        <path d="M18.27,36.9566667 C18.27,40.3616667 16.155,42.1666667 13.5733333,42.1666667 C10.9016667,42.1666667 9.02666667,40.1416667 9.02666667,37.1483333 C9.02666667,34.0066667 11.0233333,31.9533333 13.7233333,31.9533333 C16.485,31.9533333 18.27,34.0216667 18.27,36.9566667 L18.27,36.9566667 Z M10.4216667,37.12 C10.4216667,39.2316667 11.5933333,41.125 13.6483333,41.125 C15.72,41.125 16.89,39.2616667 16.89,37.015 C16.89,35.0483333 15.8383333,32.995 13.6633333,32.995 C11.5033333,32.995 10.4216667,34.9466667 10.4216667,37.12 L10.4216667,37.12 Z" id="Fill-9" fill="#FFFFFF"></path>
                        <path d="M25.41,32.4966667 C25.0333333,32.6283333 24.375,32.7466667 23.8933333,32.8183333 C22.7233333,32.995 21.8683333,33.3766667 21.3133333,34.1533333 C20.8483333,34.8 20.5783333,35.7533333 20.5166667,36.5016667 L20.5633333,36.5016667 C21.0283333,35.475 22.0483333,34.9016667 23.0833333,34.9016667 C24.8683333,34.9016667 26.175,36.15 26.175,38.41 C26.175,40.7283333 24.9433333,42.1666667 22.8133333,42.1666667 C20.2633333,42.1666667 19.4233333,39.7733333 19.4233333,37.4116667 C19.4233333,35.7983333 19.7683333,34.4783333 20.5483333,33.48 C21.2533333,32.4966667 22.2583333,32.0416667 23.6683333,31.8066667 C24.2533333,31.7183333 24.9733333,31.6016667 25.47,31.425 L25.41,32.4966667 L25.41,32.4966667 Z M22.8133333,35.8566667 C22.0333333,35.8566667 21.4783333,36.2533333 21.1783333,36.825 C20.9383333,37.2516667 20.8183333,37.7633333 20.8183333,38.3366667 C20.8183333,39.51 21.4033333,41.1983333 22.8433333,41.1983333 C24.3,41.1983333 24.8383333,39.8183333 24.8383333,38.5116667 C24.8383333,37.3533333 24.375,35.8566667 22.8133333,35.8566667 L22.8133333,35.8566667 Z" id="Fill-10" fill="#FFFFFF"></path>
                        <path d="M27.8383333,37.2216667 C27.8383333,36.3116667 27.8083333,35.5783333 27.7766667,34.9016667 L28.9633333,34.9016667 L29.0233333,36.12 L29.0533333,36.12 C29.5933333,35.255 30.4483333,34.7416667 31.6333333,34.7416667 C33.39,34.7416667 34.71,36.195 34.71,38.3516667 C34.71,40.905 33.12,42.1666667 31.4083333,42.1666667 C30.4483333,42.1666667 29.6083333,41.755 29.1733333,41.0516667 L29.1433333,41.0516667 L29.1433333,44.91 L27.8383333,44.91 L27.8383333,37.2216667 L27.8383333,37.2216667 Z M29.1433333,39.115 C29.1433333,39.305 29.1733333,39.4816667 29.2033333,39.6416667 C29.4433333,40.5366667 30.2383333,41.1533333 31.1833333,41.1533333 C32.5783333,41.1533333 33.39,40.0383333 33.39,38.41 C33.39,36.985 32.625,35.7683333 31.2283333,35.7683333 C30.3283333,35.7683333 29.4883333,36.4 29.2333333,37.3683333 C29.1883333,37.53 29.1433333,37.72 29.1433333,37.895 L29.1433333,39.115 L29.1433333,39.115 Z" id="Fill-11" fill="#FFFFFF"></path>
                        <path d="M40.3933333,42.005 L40.2883333,41.11 L40.2433333,41.11 C39.8383333,41.6666667 39.0583333,42.1666667 38.0233333,42.1666667 C36.5533333,42.1666667 35.8016667,41.1533333 35.8016667,40.1266667 C35.8016667,38.41 37.3633333,37.47 40.17,37.485 L40.17,37.3383333 C40.17,36.7516667 40.0033333,35.695 38.5183333,35.695 C37.8433333,35.695 37.1383333,35.9 36.6283333,36.2233333 L36.3283333,35.3733333 C36.9283333,34.99 37.7983333,34.7416667 38.7133333,34.7416667 C40.9333333,34.7416667 41.475,36.2233333 41.475,37.6466667 L41.475,40.3033333 C41.475,40.92 41.505,41.52 41.5933333,42.005 L40.3933333,42.005 L40.3933333,42.005 Z M40.2,38.38 C38.7583333,38.3516667 37.1233333,38.6 37.1233333,39.98 C37.1233333,40.815 37.6933333,41.2133333 38.3683333,41.2133333 C39.3133333,41.2133333 39.9133333,40.625 40.1233333,40.025 C40.17,39.8916667 40.2,39.745 40.2,39.6133333 L40.2,38.38 L40.2,38.38 Z" id="Fill-12" fill="#FFFFFF"></path>
                        <path d="M44.2016667,37.8816667 L44.8333333,37.8816667 C45.9433333,37.8816667 46.6933333,37.3833333 46.6933333,36.7216667 C46.6933333,36.09 46.1083333,35.695 45.2833333,35.695 C44.6983333,35.695 44.0383333,35.885 43.5283333,36.195 L43.1966667,35.4016667 C43.9333333,34.9616667 44.7733333,34.7566667 45.6133333,34.7566667 C46.7233333,34.7566667 48.0733333,35.2416667 48.0733333,36.62 C48.0733333,37.5 47.2483333,38.0733333 46.4383333,38.2333333 L46.4383333,38.2633333 C47.5183333,38.3516667 48.4183333,38.9966667 48.4183333,40.0383333 C48.4183333,41.5783333 46.8133333,42.1516667 45.2833333,42.1516667 C44.4283333,42.1516667 43.5733333,41.9316667 42.9266667,41.5783333 L43.2716667,40.7133333 C43.7983333,40.9933333 44.5033333,41.1983333 45.1933333,41.1983333 C46.2883333,41.1983333 46.9783333,40.6833333 46.9783333,39.98 C46.9783333,39.0266667 45.9583333,38.7616667 44.8633333,38.7616667 L44.2016667,38.7616667 L44.2016667,37.8816667" id="Fill-13" fill="#FFFFFF"></path>
                        <path d="M56.64,38.395 C56.64,41.0216667 54.7783333,42.1666667 53.0233333,42.1666667 C51.0583333,42.1666667 49.5433333,40.7566667 49.5433333,38.5116667 C49.5433333,36.135 51.1333333,34.7416667 53.1433333,34.7416667 C55.2283333,34.7416667 56.64,36.2233333 56.64,38.395 L56.64,38.395 Z M50.8783333,38.4683333 C50.8783333,40.025 51.7933333,41.1983333 53.0833333,41.1983333 C54.3433333,41.1983333 55.2883333,40.0383333 55.2883333,38.44 C55.2883333,37.2366667 54.6733333,35.71 53.1133333,35.71 C51.5533333,35.71 50.8783333,37.12 50.8783333,38.4683333 L50.8783333,38.4683333 Z" id="Fill-14" fill="#FFFFFF"></path>
                        <path d="M58.2716667,34.99 C58.7833333,34.9016667 59.7266667,34.8283333 60.5833333,34.8283333 C61.7983333,34.8283333 63.81,35.02 63.81,36.605 C63.81,37.485 63.1183333,38.0283333 62.2933333,38.205 L62.2933333,38.2333333 C63.3583333,38.38 64.1383333,38.9683333 64.1383333,39.995 C64.1383333,41.8583333 61.7383333,42.0933333 60.3133333,42.0933333 C59.5033333,42.0933333 58.6616667,42.035 58.2716667,42.005 L58.2716667,34.99 L58.2716667,34.99 Z M59.5166667,41.1533333 C59.8933333,41.1983333 60.1633333,41.2133333 60.5833333,41.2133333 C61.4683333,41.2133333 62.7883333,41.0083333 62.7883333,39.98 C62.7883333,38.9516667 61.7383333,38.7316667 60.4783333,38.7316667 L59.5166667,38.7316667 L59.5166667,41.1533333 L59.5166667,41.1533333 Z M59.5333333,37.8816667 L60.5233333,37.8816667 C61.4983333,37.8816667 62.5033333,37.6033333 62.5033333,36.7666667 C62.5033333,36.0616667 61.8733333,35.725 60.5533333,35.725 C60.1183333,35.725 59.8483333,35.7533333 59.5333333,35.7833333 L59.5333333,37.8816667 L59.5333333,37.8816667 Z" id="Fill-15" fill="#FFFFFF"></path>
                        <path d="M69.8233333,42.005 L69.7183333,41.11 L69.6733333,41.11 C69.2683333,41.6666667 68.4883333,42.1666667 67.4533333,42.1666667 C65.9816667,42.1666667 65.2316667,41.1533333 65.2316667,40.1266667 C65.2316667,38.41 66.7933333,37.47 69.5983333,37.485 L69.5983333,37.3383333 C69.5983333,36.7516667 69.4333333,35.695 67.9483333,35.695 C67.2733333,35.695 66.5666667,35.9 66.0566667,36.2233333 L65.7583333,35.3733333 C66.3566667,34.99 67.2266667,34.7416667 68.1433333,34.7416667 C70.3633333,34.7416667 70.9033333,36.2233333 70.9033333,37.6466667 L70.9033333,40.3033333 C70.9033333,40.92 70.9333333,41.52 71.0233333,42.005 L69.8233333,42.005 L69.8233333,42.005 Z M69.6283333,38.38 C68.1883333,38.3516667 66.5533333,38.6 66.5533333,39.98 C66.5533333,40.815 67.1216667,41.2133333 67.7983333,41.2133333 C68.7433333,41.2133333 69.3433333,40.625 69.5533333,40.025 C69.5983333,39.8916667 69.6283333,39.745 69.6283333,39.6133333 L69.6283333,38.38 L69.6283333,38.38 Z" id="Fill-16" fill="#FFFFFF"></path>
                        <path d="M77.8333333,34.9016667 L77.8333333,35.93 L75.5683333,35.93 L75.5683333,42.005 L74.2633333,42.005 L74.2633333,35.93 L71.9966667,35.93 L71.9966667,34.9016667 L77.8333333,34.9016667" id="Fill-17" fill="#FFFFFF"></path>
                        <path d="M79.5283333,38.6883333 C79.5566667,40.435 80.6966667,41.1533333 82.0183333,41.1533333 C82.9633333,41.1533333 83.5333333,40.9933333 84.03,40.7866667 L84.255,41.71 C83.7883333,41.9166667 82.9933333,42.1516667 81.84,42.1516667 C79.6033333,42.1516667 78.2683333,40.7133333 78.2683333,38.5716667 C78.2683333,36.4283333 79.5566667,34.7416667 81.6733333,34.7416667 C84.0433333,34.7416667 84.675,36.78 84.675,38.0883333 C84.675,38.3516667 84.645,38.5566667 84.6283333,38.6883333 L79.5283333,38.6883333 L79.5283333,38.6883333 Z M83.3983333,37.7633333 C83.415,36.9416667 83.0533333,35.665 81.5683333,35.665 C80.2333333,35.665 79.6483333,36.8683333 79.5433333,37.7633333 L83.3983333,37.7633333 L83.3983333,37.7633333 Z" id="Fill-18" fill="#FFFFFF"></path>
                        <path d="M91.83,34.9016667 L91.83,42.005 L90.5233333,42.005 L90.5233333,35.915 L88.0333333,35.915 L88.0333333,37.7633333 C88.0333333,39.76 87.8383333,41.095 86.8933333,41.6966667 C86.5333333,41.9766667 86.1266667,42.1366667 85.4516667,42.1366667 L85.3166667,41.125 C85.5733333,41.08 85.8583333,40.9783333 86.0383333,40.83 C86.7116667,40.3466667 86.7866667,39.3483333 86.7866667,37.7633333 L86.7866667,34.9016667 L91.83,34.9016667" id="Fill-19" fill="#FFFFFF"></path>
                        <path d="M95.2616667,34.9016667 L95.2616667,37.31 C95.5633333,37.2516667 96.0733333,37.2366667 96.4616667,37.2366667 C98.0983333,37.2366667 99.825,37.735 99.825,39.6266667 C99.825,40.3616667 99.5233333,40.875 99.0583333,41.2566667 C98.2633333,41.9166667 96.9733333,42.0783333 95.9083333,42.0783333 C95.1716667,42.0783333 94.4966667,42.035 93.9566667,41.9766667 L93.9566667,34.9016667 L95.2616667,34.9016667 L95.2616667,34.9016667 Z M95.2616667,41.11 C95.5183333,41.14 95.8016667,41.1683333 96.2366667,41.1683333 C97.2266667,41.1683333 98.5033333,40.8466667 98.5033333,39.6566667 C98.5033333,38.425 97.1833333,38.1616667 96.2083333,38.1616667 C95.8633333,38.1616667 95.5633333,38.19 95.2616667,38.2333333 L95.2616667,41.11 L95.2616667,41.11 Z" id="Fill-20" fill="#FFFFFF"></path>
                        <path d="M102.731667,34.9016667 L102.731667,37.7633333 L106.183333,37.7633333 L106.183333,34.9016667 L107.488333,34.9016667 L107.488333,42.005 L106.183333,42.005 L106.183333,38.79 L102.731667,38.79 L102.731667,42.005 L101.425,42.005 L101.425,34.9016667 L102.731667,34.9016667" id="Fill-21" fill="#FFFFFF"></path>
                        <path d="M110.921667,34.9016667 L110.921667,37.325 C111.208333,37.265 111.628333,37.2366667 112.108333,37.2366667 C113.668333,37.2366667 115.243333,37.8666667 115.243333,39.6133333 C115.243333,40.3616667 114.958333,40.875 114.491667,41.2566667 C113.698333,41.9166667 112.528333,42.0783333 111.566667,42.0783333 C110.833333,42.0783333 110.156667,42.035 109.616667,41.9766667 L109.616667,34.9016667 L110.921667,34.9016667 L110.921667,34.9016667 Z M110.921667,41.11 C111.178333,41.14 111.461667,41.1683333 111.838333,41.1683333 C112.841667,41.1683333 113.938333,40.7566667 113.938333,39.6566667 C113.938333,38.5116667 112.886667,38.1616667 111.898333,38.1616667 C111.523333,38.1616667 111.191667,38.19 110.921667,38.2333333 L110.921667,41.11 L110.921667,41.11 Z M116.158333,34.9016667 L117.463333,34.9016667 L117.463333,42.005 L116.158333,42.005 L116.158333,34.9016667 Z" id="Fill-22" fill="#FFFFFF"></path>
                        <path d="M120.836667,34.9016667 L120.836667,37.895 C120.836667,39.0266667 120.821667,39.73 120.761667,40.7416667 L120.806667,40.7566667 C121.241667,39.8916667 121.496667,39.3933333 121.978333,38.5716667 L124.243333,34.9016667 L125.788333,34.9016667 L125.788333,42.005 L124.528333,42.005 L124.528333,38.9966667 C124.528333,37.8366667 124.556667,37.2366667 124.618333,36.09 L124.573333,36.09 C124.108333,37 123.791667,37.5733333 123.371667,38.2933333 C122.681667,39.3933333 121.888333,40.7566667 121.106667,42.005 L119.591667,42.005 L119.591667,34.9016667 L120.836667,34.9016667 L120.836667,34.9016667 Z M121.693333,32.0116667 C121.738333,32.6433333 122.051667,33.1266667 122.653333,33.1266667 C123.298333,33.1266667 123.596667,32.6583333 123.671667,32.0116667 L124.618333,32.0116667 C124.556667,33.215 123.778333,33.8316667 122.621667,33.8316667 C121.301667,33.8316667 120.791667,33.025 120.731667,32.0116667 L121.693333,32.0116667 L121.693333,32.0116667 Z" id="Fill-23" fill="#FFFFFF"></path>
                        <path d="M137.083333,34.9016667 L137.083333,42.005 L135.763333,42.005 L135.763333,35.93 L132.386667,35.93 L132.386667,42.005 L131.08,42.005 L131.08,34.9016667 L137.083333,34.9016667" id="Fill-24" fill="#FFFFFF"></path>
                        <path d="M145.798333,38.395 C145.798333,41.0216667 143.936667,42.1666667 142.181667,42.1666667 C140.216667,42.1666667 138.701667,40.7566667 138.701667,38.5116667 C138.701667,36.135 140.291667,34.7416667 142.301667,34.7416667 C144.388333,34.7416667 145.798333,36.2233333 145.798333,38.395 L145.798333,38.395 Z M140.035,38.4683333 C140.035,40.025 140.95,41.1983333 142.243333,41.1983333 C143.503333,41.1983333 144.446667,40.0383333 144.446667,38.44 C144.446667,37.2366667 143.831667,35.71 142.271667,35.71 C140.711667,35.71 140.035,37.12 140.035,38.4683333 L140.035,38.4683333 Z" id="Fill-25" fill="#FFFFFF"></path>
                        <path d="M147.461667,37.2216667 C147.461667,36.3116667 147.431667,35.5783333 147.4,34.9016667 L148.586667,34.9016667 L148.646667,36.12 L148.675,36.12 C149.215,35.255 150.071667,34.7416667 151.256667,34.7416667 C153.013333,34.7416667 154.333333,36.195 154.333333,38.3516667 C154.333333,40.905 152.741667,42.1666667 151.031667,42.1666667 C150.071667,42.1666667 149.231667,41.755 148.795,41.0516667 L148.766667,41.0516667 L148.766667,44.91 L147.461667,44.91 L147.461667,37.2216667 L147.461667,37.2216667 Z M148.766667,39.115 C148.766667,39.305 148.795,39.4816667 148.826667,39.6416667 C149.065,40.5366667 149.861667,41.1533333 150.806667,41.1533333 C152.201667,41.1533333 153.013333,40.0383333 153.013333,38.41 C153.013333,36.985 152.246667,35.7683333 150.853333,35.7683333 C149.951667,35.7683333 149.111667,36.4 148.856667,37.3683333 C148.811667,37.53 148.766667,37.72 148.766667,37.895 L148.766667,39.115 L148.766667,39.115 Z" id="Fill-26" fill="#FFFFFF"></path>
                        <path d="M160.783333,34.9016667 L160.783333,35.93 L158.516667,35.93 L158.516667,42.005 L157.211667,42.005 L157.211667,35.93 L154.946667,35.93 L154.946667,34.9016667 L160.783333,34.9016667" id="Fill-27" fill="#FFFFFF"></path>
                        <path d="M165.853333,42.005 L165.746667,41.11 L165.703333,41.11 C165.296667,41.6666667 164.516667,42.1666667 163.481667,42.1666667 C162.011667,42.1666667 161.26,41.1533333 161.26,40.1266667 C161.26,38.41 162.821667,37.47 165.628333,37.485 L165.628333,37.3383333 C165.628333,36.7516667 165.461667,35.695 163.978333,35.695 C163.3,35.695 162.596667,35.9 162.086667,36.2233333 L161.786667,35.3733333 C162.386667,34.99 163.255,34.7416667 164.171667,34.7416667 C166.393333,34.7416667 166.933333,36.2233333 166.933333,37.6466667 L166.933333,40.3033333 C166.933333,40.92 166.963333,41.52 167.051667,42.005 L165.853333,42.005 L165.853333,42.005 Z M165.658333,38.38 C164.215,38.3516667 162.581667,38.6 162.581667,39.98 C162.581667,40.815 163.151667,41.2133333 163.826667,41.2133333 C164.771667,41.2133333 165.371667,40.625 165.583333,40.025 C165.628333,39.8916667 165.658333,39.745 165.658333,39.6133333 L165.658333,38.38 L165.658333,38.38 Z" id="Fill-28" fill="#FFFFFF"></path>
                        <path d="M174.598333,34.9016667 L174.598333,42.005 L173.293333,42.005 L173.293333,35.915 L170.8,35.915 L170.8,37.7633333 C170.8,39.76 170.605,41.095 169.661667,41.6966667 C169.3,41.9766667 168.896667,42.1366667 168.221667,42.1366667 L168.086667,41.125 C168.34,41.08 168.626667,40.9783333 168.805,40.83 C169.481667,40.3466667 169.556667,39.3483333 169.556667,37.7633333 L169.556667,34.9016667 L174.598333,34.9016667" id="Fill-29" fill="#FFFFFF"></path>
                    </g>
                </g>
            </g>
        </g>
    </g>
</svg>