<?xml version="1.0" encoding="UTF-8" standalone="no"?>
<svg width="118px" height="60px" viewBox="0 0 118 60" version="1.1" xmlns="http://www.w3.org/2000/svg" xmlns:xlink="http://www.w3.org/1999/xlink" xmlns:sketch="http://www.bohemiancoding.com/sketch/ns">
    <!-- Generator: Sketch 3.2.2 (9983) - http://www.bohemiancoding.com/sketch -->
    <title>7</title>
    <desc>Created with Sketch.</desc>
    <defs></defs>
    <g id="Page-1" stroke="none" stroke-width="1" fill="none" fill-rule="evenodd" sketch:type="MSPage">
        <g id="Партнёры" sketch:type="MSArtboardGroup" transform="translate(-627.000000, -1402.000000)">
            <g id="2_block" sketch:type="MSLayerGroup" transform="translate(469.000000, 142.000000)">
                <g id="4" transform="translate(0.000000, 1159.000000)" sketch:type="MSShapeGroup">
                    <g id="7" transform="translate(158.000000, 101.000000)">
                        <path d="M13.2200734,52.0091259 C13.2200734,52.6600039 12.7787373,53.2254176 11.8958403,53.7058168 C11.2451899,54.0622928 10.5095548,54.3101392 9.68848528,54.4495809 C9.06886109,54.5579856 8.46474998,54.612188 7.87615196,54.612188 C5.45993236,54.612188 3.52371916,53.7445006 2.0677372,52.0091259 C0.689095848,50.3821559 0,48.3368608 0,45.8732404 C0,43.4249137 0.696964806,41.3719717 2.09089442,39.7139647 C3.56238947,37.9630715 5.50624679,37.0875124 7.92269122,37.0875124 C10.0603497,37.0875124 11.6015413,37.6455042 12.5462658,38.761038 C12.8095386,39.0709585 12.9412875,39.3963974 12.9412875,39.73713 C12.9412875,40.0780875 12.8135855,40.3765378 12.5579568,40.632031 C12.3023281,40.8877491 12.000385,41.0154957 11.6595467,41.0154957 C11.4736145,41.0154957 11.2334989,40.9302564 10.9391999,40.7597776 C10.3002405,40.4035265 9.70399837,40.1478084 9.14642652,39.9928482 C8.7862531,39.899962 8.34469217,39.8534064 7.8181465,39.8534064 C6.34282939,39.8534064 5.16945541,40.519578 4.30207147,41.8521461 C3.55474534,43.0144603 3.18288089,44.3701936 3.18288089,45.9195711 C3.18288089,47.4846919 3.56238947,48.81726 4.32545352,49.9172752 C5.20812572,51.1879941 6.39701278,51.8233536 7.88784298,51.8233536 C8.53849335,51.8233536 9.09224313,51.7574561 9.54144819,51.6256612 C9.99065325,51.4938663 10.4591935,51.3040456 10.9508909,51.0561992 C11.4387663,50.8083528 11.7989397,50.6842047 12.0311863,50.6842047 C12.3758467,50.6842047 12.6586795,50.819823 12.883282,51.0910596 C13.1078845,51.3622963 13.2200734,51.6681684 13.2200734,52.0091259 L13.2200734,52.0091259 Z M25.6968676,52.5707162 C25.6968676,53.8376117 25.2051701,54.4727462 24.2215504,54.4727462 C23.2379308,54.4727462 22.7460085,53.8376117 22.7460085,52.5707162 L22.7460085,46.9811274 C22.7460085,45.0017297 21.9676562,44.0137176 20.4111764,44.0137176 C19.5631276,44.0137176 18.9162993,44.3004728 18.4670943,44.8737582 C18.0527374,45.3811461 17.843648,46.0707079 17.843648,46.9345718 L17.843648,52.5707162 C17.843648,53.8376117 17.3481285,54.4727462 16.3566399,54.4727462 C15.3808891,54.4727462 14.8930138,53.8376117 14.8930138,52.5707162 L14.8930138,37.9900602 C14.8930138,36.708096 15.3808891,36.0648649 16.3566399,36.0648649 C17.3481285,36.0648649 17.843648,36.7040477 17.843648,37.9862368 C17.843648,41.2131881 17.8515169,42.8516283 17.86703,42.8981839 C18.6260472,41.9684225 19.7256778,41.5035418 21.1661467,41.5035418 C22.6221286,41.5035418 23.7530102,41.9373854 24.5583418,42.8012494 C25.317359,43.6534182 25.6968676,44.8116841 25.6968676,46.2836939 L25.6968676,52.5707162 L25.6968676,52.5707162 Z M39.4515804,52.5707162 C39.4515804,53.8376117 38.9789933,54.4727462 38.0342688,54.4727462 C37.460959,54.4727462 37.0738063,54.2210764 36.872361,53.7175119 C36.8260465,53.5198195 36.7487059,53.2447595 36.6401143,52.8923318 L36.6169571,52.8923318 C35.7495732,53.9460164 34.6031785,54.4727462 33.1782227,54.4727462 C31.5052823,54.4727462 30.150023,53.7948796 29.1122199,52.4391462 C28.1674954,51.1879941 27.6949083,49.711936 27.6949083,47.9999516 C27.6949083,46.6595118 27.9892073,45.4546904 28.5778053,44.3933589 C29.1974295,43.235318 30.0881955,42.3984427 31.2498784,41.8717129 C31.9313302,41.5656158 32.6206508,41.4106556 33.3176156,41.4106556 C34.6342046,41.4106556 35.7417042,41.9220918 36.6401143,42.9447394 C36.6866536,42.8052977 36.7563501,42.5961351 36.8492038,42.3170268 C37.0816752,41.7747784 37.4764721,41.5035418 38.0342688,41.5035418 C38.9789933,41.5035418 39.4515804,42.1312544 39.4515804,43.3824065 L39.4515804,52.5707162 L39.4515804,52.5707162 Z M33.6312498,44.129994 C32.6206508,44.129994 31.8499427,44.5289773 31.323397,45.3309921 C30.8703699,46.0241524 30.6457673,46.9035348 30.6457673,47.9650911 C30.6457673,48.9953855 30.8625009,49.8592495 31.3002398,50.5526347 C31.8267854,51.3854616 32.5819805,51.7999633 33.5615533,51.7999633 C34.5721523,51.7999633 35.3428605,51.3933333 35.8694061,50.5758 C36.3226581,49.8979333 36.5472606,49.0264225 36.5472606,47.9650911 C36.5472606,46.9345718 36.3303022,46.0707079 35.8927882,45.3773227 C35.3660177,44.5444958 34.6110474,44.129994 33.6312498,44.129994 L33.6312498,44.129994 Z M52.9504397,52.590283 C52.9504397,53.8452585 52.4508734,54.4727462 51.4519654,54.4727462 C50.4838588,54.4727462 49.9998055,53.8452585 49.9998055,52.590283 L49.9998055,46.9424436 C49.9998055,45.0055531 49.178736,44.0371078 47.5368218,44.0371078 C45.9106455,44.0371078 45.0972202,45.0017297 45.0972202,46.9307484 L45.0972202,52.5513743 C45.0972202,53.8335634 44.6133917,54.4727462 43.6452851,54.4727462 C42.6461523,54.4727462 42.1465859,53.8335634 42.1465859,52.5513743 L42.1465859,43.4714693 C42.1465859,42.2047987 42.6344613,41.5734875 43.6104369,41.5734875 C44.1369825,41.5734875 44.5241352,41.7826501 44.7721198,42.2009753 C44.8494604,42.4177846 44.93467,42.6424657 45.0277485,42.8750185 L45.0509057,42.9213492 C45.8407242,41.9762942 46.9637369,41.5035418 48.4199437,41.5035418 C49.8912139,41.5035418 51.0142265,41.9414337 51.7887568,42.8167679 C52.563287,43.6923269 52.9504397,44.8737582 52.9504397,46.3612864 L52.9504397,52.590283 L52.9504397,52.590283 Z M66.5423776,52.5979298 C66.5423776,53.5587283 66.4729059,54.4185439 66.3332881,55.1778266 C66.0545022,56.6615314 65.3730505,57.7849369 64.2887082,58.5401713 C63.2819313,59.2531233 61.9963684,59.6093744 60.4320197,59.6093744 C58.7125401,59.6093744 57.3107415,59.249075 56.226624,58.5246527 C55.5449474,58.059772 55.2041092,57.5447373 55.2041092,56.9752753 C55.2041092,56.6228476 55.3165228,56.3360925 55.5411254,56.1192831 C55.7657279,55.9060722 56.0562048,55.7976675 56.4123314,55.7976675 C56.6756042,55.7976675 57.1403224,55.9640979 57.8064858,56.2974086 C58.7356973,56.7699361 59.6496205,57.0063123 60.5480306,57.0063123 C62.670176,57.0063123 63.7311363,55.7355934 63.7311363,53.1905571 L63.7311363,52.7063345 L63.6614398,52.7063345 C62.9024227,53.8841672 61.787279,54.4727462 60.3157839,54.4727462 C58.6583567,54.4727462 57.3186105,53.7755376 56.2963205,52.3849438 C55.3668842,51.1297435 54.902166,49.6539103 54.902166,47.953396 C54.902166,46.1908077 55.3821724,44.6877609 56.3426349,43.4521273 C57.3959511,42.0923457 58.7822365,41.4106556 60.5014913,41.4106556 C61.9419602,41.4106556 63.0186584,41.9373854 63.7311363,42.99107 C63.9170685,42.046015 64.4049439,41.5734875 65.1947624,41.5734875 C65.7525591,41.5734875 66.1320677,41.7592599 66.3332881,42.1312544 C66.4729059,42.4101378 66.5423776,42.8516283 66.5423776,43.4521273 L66.5423776,52.5979298 L66.5423776,52.5979298 Z M63.8242148,48.1742537 C63.8242148,47.0121644 63.6072564,46.0745313 63.1697424,45.3618042 C62.6429719,44.5096354 61.8335934,44.0834385 60.745429,44.0834385 C59.8121707,44.0834385 59.0803576,44.5172822 58.5538119,45.3851944 C58.0852717,46.1442522 57.8530251,47.0121644 57.8530251,47.9882565 C57.8530251,48.9953855 58.0774028,49.8630729 58.5306547,50.5913185 C59.0572004,51.4434873 59.8045265,51.8696842 60.7688111,51.8696842 C61.7486087,51.8696842 62.519092,51.4823961 63.0766639,50.7075949 C63.5762303,50.0259048 63.8242148,49.1813828 63.8242148,48.1742537 L63.8242148,48.1742537 Z M80.3667869,47.2910479 C80.3667869,47.8022592 80.2001898,48.2012424 79.8672205,48.4879976 C79.5302043,48.7745278 79.1005592,48.9180179 78.5740136,48.9180179 L71.5146594,48.9180179 C71.5454608,49.8320358 71.8707859,50.5719766 72.4942322,51.1376152 C73.1138564,51.7032538 73.8843397,51.9859606 74.798263,51.9859606 C75.5611022,51.9859606 76.4170199,51.7419376 77.3734355,51.2538916 C78.3298511,50.7656206 78.8525747,50.5215976 78.9456532,50.5215976 C79.7240055,50.5215976 80.1111582,50.9167575 80.1111582,51.7070772 C80.1111582,51.9549236 79.9949225,52.233807 79.7626758,52.5437275 C79.2669315,53.1946054 78.5081392,53.7058168 77.4856243,54.0775864 C76.5874391,54.4030254 75.6656469,54.5658573 74.7209223,54.5658573 C72.8775628,54.5658573 71.3750416,53.9149794 70.2133587,52.6134483 C69.1137281,51.3737665 68.5638003,49.8167422 68.5638003,47.9417009 C68.5638003,46.1289585 69.1254191,44.5831796 70.2484317,43.3048139 C71.3712196,42.0264482 72.8312484,41.3874903 74.6278438,41.3874903 C76.2079305,41.3874903 77.5593677,41.9722459 78.6823804,43.1422069 C79.805393,44.3121679 80.3667869,45.6951149 80.3667869,47.2910479 L80.3667869,47.2910479 Z M77.4624671,46.895888 C77.431441,46.0282007 77.1643461,45.299955 76.6609576,44.7111511 C76.1575691,44.1221223 75.4799395,43.8279453 74.6278438,43.8279453 C73.775973,43.8279453 73.059673,44.1221223 72.4787191,44.7111511 C71.89799,45.299955 71.5764869,46.0282007 71.5146594,46.895888 L77.4624671,46.895888 L77.4624671,46.895888 Z M91.1009442,52.9388873 C91.1009442,53.8684238 90.4968331,54.3333045 89.2886109,54.3333045 L84.177161,54.3333045 C83.5265106,54.3333045 83.0658393,54.1900394 82.7946975,53.9032842 C82.5237806,53.616754 82.3882097,53.1480499 82.3882097,52.5009953 L82.3882097,39.1523744 C82.3882097,37.8701853 82.8799071,37.2269542 83.8635268,37.2269542 C84.8471465,37.2269542 85.3388439,37.8857038 85.3388439,39.1987051 L85.3388439,51.5676354 L89.1181918,51.5676354 C90.4388277,51.5676354 91.1009442,52.0246444 91.1009442,52.9388873 L91.1009442,52.9388873 Z M103.298728,52.5707162 C103.298728,53.8376117 102.826365,54.4727462 101.881416,54.4727462 C101.308556,54.4727462 100.921178,54.2210764 100.719733,53.7175119 C100.673419,53.5198195 100.595853,53.2447595 100.487486,52.8923318 L100.464329,52.8923318 C99.5969452,53.9460164 98.4505505,54.4727462 97.0255947,54.4727462 C95.3526544,54.4727462 93.9973951,53.7948796 92.959592,52.4391462 C92.0148674,51.1879941 91.5422803,49.711936 91.5422803,47.9999516 C91.5422803,46.6595118 91.8365793,45.4546904 92.4251774,44.3933589 C93.0448016,43.235318 93.9355676,42.3984427 95.0972505,41.8717129 C95.7787022,41.5656158 96.4680229,41.4106556 97.1649877,41.4106556 C98.4815767,41.4106556 99.5890763,41.9220918 100.487486,42.9447394 C100.534026,42.8052977 100.603722,42.5961351 100.696576,42.3170268 C100.929047,41.7747784 101.323844,41.5035418 101.881416,41.5035418 C102.826365,41.5035418 103.298728,42.1312544 103.298728,43.3824065 L103.298728,52.5707162 L103.298728,52.5707162 Z M97.4786219,44.129994 C96.4680229,44.129994 95.6973147,44.5289773 95.170769,45.3309921 C94.7177419,46.0241524 94.4931394,46.9035348 94.4931394,47.9650911 C94.4931394,48.9953855 94.709873,49.8592495 95.147387,50.5526347 C95.6741575,51.3854616 96.4293526,51.7999633 97.4089254,51.7999633 C98.4195244,51.7999633 99.1902325,51.3933333 99.717003,50.5758 C100.17003,49.8979333 100.394633,49.0264225 100.394633,47.9650911 C100.394633,46.9345718 100.177674,46.0707079 99.7401602,45.3773227 C99.2133897,44.5444958 98.4584195,44.129994 97.4786219,44.129994 L97.4786219,44.129994 Z M117.727248,48.034812 C117.727248,49.7854803 117.22386,51.2808803 116.217083,52.5205622 C115.13274,53.8531302 113.738586,54.5193018 112.034844,54.5193018 C110.64069,54.5193018 109.602887,54.023609 108.921435,53.0317735 C108.874896,53.2060756 108.797555,53.4192865 108.689188,53.6709564 C108.487743,54.2365949 108.085077,54.5193018 107.480966,54.5193018 C106.505215,54.5193018 106.017115,53.8841672 106.017115,52.6134483 L106.017115,37.9941085 C106.017115,36.708096 106.505215,36.0648649 107.480966,36.0648649 C108.425916,36.0648649 108.898278,36.6964009 108.898278,37.9630715 L108.898278,42.7819075 L108.967974,42.7819075 C109.819845,41.8368524 110.880805,41.3643249 112.15108,41.3643249 C113.854822,41.3643249 115.233463,42.0691803 116.286779,43.4791161 C117.247017,44.7653535 117.727248,46.2836939 117.727248,48.034812 L117.727248,48.034812 Z M108.782042,48.034812 C108.782042,49.0806249 109.030027,49.9521356 109.529368,50.6455208 C110.08694,51.4475356 110.873161,51.8465189 111.88376,51.8465189 C112.879071,51.8465189 113.634041,51.4241454 114.145299,50.5758 C114.5673,49.8668963 114.776389,48.9875138 114.776389,47.9417009 C114.776389,46.926925 114.552011,46.0551894 114.098759,45.3309921 C113.572214,44.4671281 112.824888,44.0371078 111.860603,44.0371078 C110.849779,44.0371078 110.063783,44.4360911 109.506211,45.237881 C109.022158,45.9312662 108.782042,46.8030018 108.782042,47.8488147 L108.782042,48.034812 L108.782042,48.034812 Z" id="Fill-3" fill="#FFFFFF"></path>
                        <g id="Group" transform="translate(43.227723, 0.000000)">
                            <path d="M21.1661467,28.5963481 C22.9492524,28.5963481 24.6084783,27.6380236 25.5003684,26.0935941 L30.8456389,16.8317401 C31.7373042,15.2868608 31.7373042,13.3702119 30.8456389,11.8248828 L25.5003684,2.5639284 C24.6084783,1.01994871 22.9492524,0.059824996 21.1661467,0.059824996 L10.4749314,0.059824996 C8.69227526,0.059824996 7.03259972,1.01994871 6.14070959,2.5639284 L0.795214361,11.8248828 C-0.0962261087,13.3702119 -0.0962261087,15.2868608 0.795214361,16.8317401 L6.14070959,26.0935941 C7.03259972,27.6380236 8.69227526,28.5963481 10.4749314,28.5963481 L21.1661467,28.5963481" id="Fill-4" fill="#FFFFFF"></path>
                            <path d="M21.5319408,15.8484511 C20.6731003,15.2436789 19.8268501,14.8961991 19.2629831,14.7093022 C20.1697118,13.7444555 20.7259347,12.446298 20.7263844,11.01792 C20.7257099,8.03791553 18.3115137,5.62354962 15.3332257,5.6228749 C12.3553874,5.62354962 9.94141606,8.03791553 9.94074158,11.01792 C9.94119123,12.4089636 10.4679617,13.6765339 11.3324229,14.6330591 C10.5282155,14.8352496 9.52413648,15.303279 8.58210986,16.1154145 C7.28620498,17.23882 6.16971232,19.0612333 6.17353439,21.6807135 C6.17353439,21.7922669 6.21872469,21.9022459 6.2985384,21.9811879 C6.37722797,22.059905 6.48649407,22.1051111 6.59868292,22.1051111 L24.0682182,22.1051111 C24.1801822,22.1051111 24.2892235,22.059905 24.3685875,21.9811879 C24.4475019,21.9013463 24.4929171,21.7922669 24.4929171,21.6807135 C24.4994371,18.7139784 23.0005131,16.8749221 21.5319408,15.8484511 L21.5319408,15.8484511 Z M15.3332257,6.47301958 C17.8418494,6.47774261 19.8718156,8.50774417 19.8765369,11.01792 C19.8736142,12.5686469 19.0959364,13.9347259 17.9110962,14.7547332 C17.8940093,14.7662034 17.8782714,14.7790231 17.8611845,14.7904933 C17.6278137,14.9472528 17.3789298,15.083096 17.1176805,15.1950992 C17.0969963,15.2038705 17.0758626,15.2110675 17.0549536,15.2198388 C16.9465868,15.2643702 16.8361966,15.3050782 16.7237829,15.341513 C16.6927568,15.3516337 16.6610561,15.36063 16.6295803,15.370076 C16.5248107,15.401338 16.4182425,15.4287765 16.3103254,15.4526165 C16.2752524,15.4604882 16.2401793,15.46836 16.2046566,15.475332 C16.0951656,15.4966981 15.9841009,15.5128913 15.8723617,15.5266106 C15.8386376,15.5302091 15.805588,15.5362816 15.7720887,15.5394303 C15.6342696,15.5529246 15.4944269,15.5601216 15.3534602,15.5610212 C15.3467154,15.5610212 15.3401954,15.5619209 15.3332257,15.5619209 C15.3255816,15.5619209 15.3186119,15.5610212 15.3109678,15.5610212 C15.1706755,15.5601216 15.0319571,15.5529246 14.895262,15.5394303 C14.860189,15.5362816 14.8260152,15.5302091 14.791167,15.5261608 C14.6810016,15.5128913 14.5717355,15.4966981 14.4638183,15.4757819 C14.426497,15.46836 14.3898501,15.4598135 14.3532033,15.4519418 C14.2470848,15.4283267 14.1427649,15.4017878 14.0397939,15.3709757 C14.0067443,15.3610798 13.9734699,15.3511839 13.9401954,15.3408383 C13.8298052,15.3050782 13.7216632,15.26482 13.6155447,15.2214132 C13.5928372,15.2119671 13.5699048,15.2038705 13.547422,15.1941995 C13.2868471,15.0826462 13.0384129,14.9472528 12.8057166,14.7907182 C12.78818,14.7787982 12.7722173,14.7659785 12.7546808,14.7538336 C11.5705151,13.9342761 10.7932869,12.568422 10.7903642,11.01792 C10.7950855,8.50774417 12.8246021,6.47774261 15.3332257,6.47301958 L15.3332257,6.47301958 Z M15.0809694,21.2554162 L10.5857713,21.2554162 L10.5857713,19.4595418 C10.5857713,19.2240653 10.3955673,19.0346944 10.1610724,19.0346944 C9.92635263,19.0346944 9.73682316,19.2240653 9.73682316,19.4595418 L9.73682316,21.2554162 L7.03462316,21.2554162 C7.14636236,19.1174598 8.07062762,17.6938048 9.14058101,16.7557219 C10.2541509,15.7726578 11.5853537,15.3644534 12.1379793,15.3619794 C12.3603336,15.5261608 12.5964023,15.6727995 12.8430379,15.8016706 C12.8464103,15.803245 12.8495579,15.8050442 12.8531552,15.8066186 C13.0939453,15.9321161 13.3457519,16.0396212 13.6063268,16.1273345 C13.6168937,16.1313828 13.6272357,16.1349813 13.6378026,16.1383549 C13.766179,16.1808622 13.8965789,16.2193211 14.0290022,16.2523823 C14.0334988,16.2532819 14.038445,16.2544064 14.0429415,16.2550811 C14.1717676,16.2872427 14.3026171,16.3137816 14.4345908,16.3360473 C14.4453825,16.3378466 14.4557246,16.3398707 14.4658418,16.34167 C14.5969161,16.3625862 14.7295643,16.3790044 14.8635614,16.3906995 C14.883571,16.3922738 14.9040303,16.3933983 14.9244896,16.3951976 C15.059386,16.4055433 15.1954066,16.4120655 15.3332257,16.4120655 C15.4699208,16.4120655 15.6048172,16.4055433 15.7388143,16.3956474 C15.7597232,16.3938481 15.7806322,16.3922738 15.8015411,16.3906995 C15.9344141,16.3790044 16.0663877,16.3632609 16.1967876,16.3423447 C16.2060055,16.3407703 16.2152234,16.3389711 16.2246662,16.3376216 C16.3555157,16.315356 16.4847914,16.288817 16.6127182,16.25778 C16.6187886,16.2564306 16.6253085,16.2550811 16.6316037,16.2537317 C16.7638022,16.2206705 16.8935276,16.1831112 17.021904,16.140604 C17.0306723,16.1379051 17.0394405,16.1345315 17.0484336,16.1313828 C17.3090085,16.0438944 17.5605903,15.9375139 17.8018301,15.8129159 C17.8040784,15.8117914 17.8065515,15.810442 17.8090246,15.8093175 C18.0547609,15.6817958 18.2897055,15.5367314 18.5116101,15.3743492 C18.5437604,15.382221 18.5842293,15.3925666 18.634141,15.4062859 C19.130335,15.5394303 20.4069047,15.9627033 21.5305918,16.9212527 C22.5843576,17.8247001 23.5151429,19.1626659 23.6311538,21.2554162 L15.0809694,21.2554162 L15.0809694,21.2554162 Z" id="Fill-5" fill="#1F1F1F"></path>
                            <path d="M14.3889508,13.9743094 L16.3440495,13.9743094 C16.5785445,13.9743094 16.7687484,13.7840389 16.7687484,13.5496869 C16.7687484,13.314885 16.5785445,13.1248394 16.3440495,13.1248394 L14.3889508,13.1248394 C14.1544559,13.1248394 13.9644768,13.314885 13.9644768,13.5496869 C13.9644768,13.7840389 14.1544559,13.9743094 14.3889508,13.9743094" id="Fill-6" fill="#1F1F1F"></path>
                            <path d="M20.3095544,18.5630665 L17.1527535,18.5630665 C17.0405647,18.5630665 16.9315234,18.6084975 16.8521593,18.6872146 C16.7727953,18.7663815 16.7280546,18.8759108 16.7280546,18.987689 L16.7280546,19.5843647 C16.7280546,19.8187167 16.9178089,20.009437 17.1527535,20.009437 C17.3867988,20.009437 17.5772276,19.8187167 17.5772276,19.5843647 L17.5772276,19.4125365 L19.8848556,19.4125365 L19.8848556,19.5562514 C19.8848556,19.7906035 20.0746099,19.9810988 20.3095544,19.9810988 C20.5438245,19.9810988 20.7340285,19.7906035 20.7340285,19.5562514 L20.7340285,18.987689 C20.7340285,18.8741115 20.6899623,18.767731 20.6099238,18.6876644 C20.5292108,18.6071481 20.4228674,18.5630665 20.3095544,18.5630665" id="Fill-7" fill="#1F1F1F"></path>
                            <path d="M15.4314753,8.23200941 C14.4779825,8.23200941 13.7057005,9.00478643 13.7057005,9.95793805 C13.7057005,10.1812697 13.8869113,10.3620941 14.1099401,10.3620941 C14.3331936,10.3620941 14.5148541,10.1812697 14.5148541,9.95793805 L14.5141797,9.95793805 C14.5155286,9.45099993 14.9249392,9.04189592 15.4314753,9.04054648 C15.9375617,9.04189592 16.3469723,9.45099993 16.3483212,9.95793805 C16.3469723,10.4644264 15.9375617,10.87443 15.4314753,10.8748798 C15.3246823,10.8748798 15.2203624,10.9182867 15.1452701,10.9936302 C15.0699529,11.0689737 15.0274605,11.1726554 15.0274605,11.2794857 L15.0274605,12.0725043 C15.0274605,12.2962857 15.2077721,12.4771102 15.4314753,12.4771102 C15.6547288,12.4771102 15.8357149,12.2962857 15.8357149,12.0725043 L15.8357149,11.6364115 C16.5936079,11.4540128 17.1563508,10.7720978 17.1568004,9.95793805 C17.1563508,9.00478643 16.3845184,8.23200941 15.4314753,8.23200941" id="Fill-8" fill="#1F1F1F"></path>
                            <path d="M26.0208438,12.9442399 L23.5695511,12.9442399 L24.4479516,11.9769192 C24.5983611,11.8118382 24.5866701,11.5561201 24.4211971,11.405658 C24.2554994,11.2556457 23.9996458,11.2677906 23.8501357,11.4333214 L22.4125895,13.0164347 C22.3316517,13.1050477 22.2992765,13.2201996 22.3107427,13.3308533 C22.3060214,13.4354346 22.339071,13.5406906 22.4125895,13.621207 L23.8499108,15.2040954 C23.9294997,15.2920337 24.0392155,15.3367899 24.149156,15.3367899 C24.2460566,15.3367899 24.3436317,15.3019295 24.421422,15.2317588 C24.5864452,15.0810718 24.5988107,14.8260284 24.4481764,14.6600478 L23.6253083,13.7530019 L26.0208438,13.7536766 C26.2438725,13.7536766 26.4250834,13.5726273 26.4250834,13.3492956 C26.4250834,13.1257391 26.2438725,12.9442399 26.0208438,12.9442399" id="Fill-9" fill="#1F1F1F"></path>
                            <path d="M26.8785601,8.80237103 C26.8814829,8.70363729 26.8524802,8.60512846 26.7863809,8.52753589 L25.4434871,6.94509728 C25.2984735,6.77439362 25.0437441,6.75347737 24.8737746,6.89831683 C24.7031306,7.04248158 24.6822217,7.2981997 24.8270105,7.46890335 L25.6042387,8.38494549 L19.6116903,8.38854399 L19.9527534,9.19348256 L25.6566235,9.19348256 L24.8272353,10.1718237 C24.6822217,10.3420775 24.7031306,10.5975707 24.8737746,10.7417355 C24.9495414,10.8065084 25.04262,10.8382201 25.1352488,10.8382201 C25.2496859,10.8382201 25.3636734,10.7896404 25.4434871,10.6951799 L26.7866058,9.11184168 C26.8621477,9.022554 26.8913753,8.91055081 26.8785601,8.80237103" id="Fill-10" fill="#1F1F1F"></path>
                        </g>
                    </g>
                </g>
            </g>
        </g>
    </g>
</svg>