<?xml version="1.0" encoding="UTF-8" standalone="no"?>
<svg width="254px" height="45px" viewBox="0 0 254 45" version="1.1" xmlns="http://www.w3.org/2000/svg" xmlns:xlink="http://www.w3.org/1999/xlink" xmlns:sketch="http://www.bohemiancoding.com/sketch/ns">
    <!-- Generator: Sketch 3.2.2 (9983) - http://www.bohemiancoding.com/sketch -->
    <title>citycelebrity</title>
    <desc>Created with Sketch.</desc>
    <defs></defs>
    <g id="Page-1" stroke="none" stroke-width="1" fill="none" fill-rule="evenodd" sketch:type="MSPage">
        <g id="Партнёры" sketch:type="MSArtboardGroup" transform="translate(-725.000000, -1837.000000)">
            <g id="2_block" sketch:type="MSLayerGroup" transform="translate(469.000000, 142.000000)">
                <g id="5" transform="translate(0.000000, 1476.000000)" sketch:type="MSShapeGroup">
                    <g id="citycelebrity" transform="translate(256.000000, 219.000000)">
                        <g id="Page-1">
                            <path d="M135.048978,26.6631618 L154.668403,26.6631618 L154.668403,20.4505147 L143.030222,20.4505147 L143.030222,16.2069485 L152.386719,16.2069485 L152.386719,10.5948529 L143.030222,10.5948529 L143.030222,6.73610294 L154.668403,6.73610294 L154.668403,0.669705882 L135.048978,0.669705882 L135.048978,26.6631618" id="Fill-1" fill="#FFFFFF"></path>
                            <path d="M82.7352706,6.05680147 C84.0673595,6.05680147 86.1956471,6.77084559 86.2354902,10.9369853 L93.6835007,10.5634191 C93.6124471,7.18875 92.1246379,4.76205882 90.7181752,3.36308824 C88.2117098,0.820919118 84.9412523,0.291176471 82.5075007,0.291176471 C80.0010353,0.291176471 77.2206484,0.788161765 74.5969778,3.05371324 C71.4453856,5.82319853 70.3440549,9.65183824 70.3440549,13.9000368 C70.3440549,16.1642647 70.6857098,18.6700368 71.8647346,20.9408824 C73.190515,23.5220956 76.1558405,27.0499632 82.5075007,27.0499632 C86.1581281,27.0499632 88.7416235,25.8306618 90.5299163,24.0898897 C91.972902,22.6846324 93.4607111,20.3366912 93.6835007,17.116875 L86.3872261,16.6579412 C86.3872261,17.6452941 86.1199451,18.5168382 85.6640732,19.3890441 C85.0946484,20.4505147 84.2559503,21.2105515 82.7352706,21.2105515 C81.216251,21.2105515 80.225485,20.4127941 79.5833464,18.9334191 C78.9378876,17.4970588 78.8568732,15.8234559 78.8568732,13.7061397 C78.8568732,11.7761029 78.8568732,6.05680147 82.7352706,6.05680147" id="Fill-2" fill="#FFFFFF"></path>
                            <path d="M123.764073,0.669705882 L94.7878196,0.669705882 L94.7878196,26.6631618 L114.404256,26.6631618 L114.404256,20.4505147 L102.775705,20.4505147 L102.775705,16.2069485 L112.125893,16.2069485 L112.125893,10.5948529 L102.775705,10.5948529 L102.775705,6.73610294 L115.774528,6.73610294 L115.774528,26.6631618 L134.104695,26.6631618 L134.104695,20.4505147 L123.764073,20.4505147 L123.764073,0.669705882" id="Fill-3" fill="#FFFFFF"></path>
                            <path d="M66.0067974,0.669705882 L61.481281,9.23558824 L56.9587529,0.669705882 L24.8309072,0.669705882 L24.8309072,26.6631618 L32.8168,26.6631618 L32.8168,6.73610294 L38.6319059,6.73610294 L38.6319059,26.6631618 L46.6184627,26.6631618 L46.6184627,6.73610294 L51.6390301,6.73610294 L56.807017,15.6722426 L56.807017,26.6631618 L64.7882614,26.6631618 L64.7882614,15.6722426 L73.0039163,0.669705882 L66.0067974,0.669705882" id="Fill-4" fill="#FFFFFF"></path>
                            <path d="M12.7780261,6.05680147 C14.1054667,6.05680147 16.2403948,6.77084559 16.2752575,10.9369853 L23.7295765,10.5634191 C23.6535425,7.18875 22.1707137,4.76205882 20.7609307,3.36308824 C18.2531373,0.820919118 14.9840078,0.291176471 12.5502562,0.291176471 C10.0424627,0.291176471 7.26871634,0.788161765 4.64338562,3.05371324 C1.48814118,5.82319853 0.386810458,9.65183824 0.386810458,13.9000368 C0.386810458,16.1642647 0.726805229,18.6700368 1.90416993,20.9408824 C3.23493072,23.5220956 6.20025621,27.0499632 12.5502562,27.0499632 C16.2022118,27.0499632 18.7880314,25.8306618 20.5726719,24.0898897 C22.0173176,22.6846324 23.5001464,20.3366912 23.7295765,17.116875 L16.4253333,16.6579412 C16.4253333,17.6452941 16.1630327,18.5168382 15.7071608,19.3890441 C15.1374039,20.4505147 14.300366,21.2105515 12.7780261,21.2105515 C11.2576784,21.2105515 10.2702327,20.4127941 9.62145359,18.9334191 C8.9776549,17.4970588 8.89830065,15.8234559 8.89830065,13.7061397 C8.89830065,11.7761029 8.89830065,6.05680147 12.7780261,6.05680147" id="Fill-5" fill="#FFFFFF"></path>
                            <path d="M202.988499,8.47852941 C202.988499,6.20172794 202.194625,4.34878676 201.01228,3.13279412 C198.736905,0.788161765 195.045438,0.669705882 193.410873,0.669705882 L180.256661,0.669705882 L180.256661,26.6631618 L188.246539,26.6631618 L188.246539,16.9640074 L190.828374,16.9640074 L194.630737,26.6631618 L203.523725,26.6631618 L198.507475,15.4882721 C201.700902,14.3473897 202.988499,11.3959191 202.988499,8.47852941" id="Fill-6" fill="#FFFFFF"></path>
                            <path d="M194.246251,10.6355515 C193.529407,11.2857353 192.654518,11.3578676 191.894842,11.3578676 L188.246539,11.3578676 L188.246539,6.35757353 L191.85035,6.35757353 C192.537644,6.35757353 193.600792,6.43036765 194.325273,7.11628676 C194.669252,7.41871324 195.005595,7.98022059 195.005595,8.85540441 C195.005595,9.50194853 194.818996,10.1058088 194.246251,10.6355515 L194.246251,10.6355515 Z" id="Fill-7" fill="#1F1F1F"></path>
                            <path d="M194.246251,10.6355515 C193.529407,11.2857353 192.654518,11.3578676 191.894842,11.3578676 L188.246539,11.3578676 L188.246539,6.35757353 L191.85035,6.35757353 C192.537644,6.35757353 193.600792,6.43036765 194.325273,7.11628676 C194.669252,7.41871324 195.005595,7.98022059 195.005595,8.85540441 C195.005595,9.50194853 194.818996,10.1058088 194.246251,10.6355515 L194.246251,10.6355515 Z" id="Stroke-8" stroke="#1A1918"></path>
                            <path d="M246.675503,0.669705882 L242.154967,9.23558824 L237.629119,0.669705882 L205.501605,0.669705882 L205.501605,26.6631618 L213.482518,26.6631618 L213.482518,6.73610294 L219.304264,6.73610294 L219.304264,26.6631618 L227.285508,26.6631618 L227.285508,6.73610294 L232.308068,6.73610294 L237.474063,15.6722426 L237.474063,26.6631618 L245.458627,26.6631618 L245.458627,15.6722426 L253.667974,0.669705882 L246.675503,0.669705882" id="Fill-9" fill="#FFFFFF"></path>
                            <path d="M173.644029,13.2108088 L173.644029,13.1396691 C175.503375,12.6479779 176.527012,11.5507721 176.987532,10.8608824 C177.710685,9.80470588 178.05234,8.47852941 178.05234,7.22481618 C178.05234,4.87522059 177.058918,3.36308824 176.0728,2.48955882 C174.175935,0.788161765 171.702672,0.669705882 169.305111,0.669705882 L156.039007,0.669705882 L156.039007,26.6631618 L170.10629,26.6631618 C172.083838,26.6631618 174.742371,26.3968015 176.645877,24.5802574 C177.632991,23.6339338 178.696471,21.9265809 178.696471,19.3119485 C178.696471,17.3455147 178.165229,15.8234559 176.68572,14.6127574 C175.847022,13.9380882 174.818073,13.4394485 173.644029,13.2108088" id="Fill-10" fill="#FFFFFF"></path>
                            <path d="M164.025231,6.35757353 L167.25319,6.35757353 C168.052376,6.35757353 168.925605,6.38900735 169.572724,6.958125 C170.10629,7.41871324 170.216855,7.94547794 170.216855,8.51294118 C170.216855,8.97220588 170.140821,9.61213235 169.643778,10.1058088 C169.040818,10.7129779 168.128078,10.7543382 167.409906,10.7543382 L164.025231,10.7543382 L164.025231,6.35757353 L164.025231,6.35757353 Z" id="Fill-11" fill="#1F1F1F"></path>
                            <path d="M164.025231,6.35757353 L167.25319,6.35757353 C168.052376,6.35757353 168.925605,6.38900735 169.572724,6.958125 C170.10629,7.41871324 170.216855,7.94547794 170.216855,8.51294118 C170.216855,8.97220588 170.140821,9.61213235 169.643778,10.1058088 C169.040818,10.7129779 168.128078,10.7543382 167.409906,10.7543382 L164.025231,10.7543382 L164.025231,6.35757353 L164.025231,6.35757353 Z" id="Stroke-12" stroke="#1A1918"></path>
                            <path d="M170.066447,20.2629044 C169.339642,20.9815809 168.545767,20.9815809 167.900308,20.9815809 L164.025231,20.9815809 L164.025231,16.284375 L167.900308,16.284375 C168.509576,16.284375 169.420988,16.3565074 170.10629,17.0460662 C170.370251,17.3058088 170.711906,17.7961765 170.711906,18.6336397 C170.711906,19.3509926 170.447613,19.8827206 170.066447,20.2629044 L170.066447,20.2629044 Z" id="Fill-13" fill="#1F1F1F"></path>
                            <path d="M170.066447,20.2629044 C169.339642,20.9815809 168.545767,20.9815809 167.900308,20.9815809 L164.025231,20.9815809 L164.025231,16.284375 L167.900308,16.284375 C168.509576,16.284375 169.420988,16.3565074 170.10629,17.0460662 C170.370251,17.3058088 170.711906,17.7961765 170.711906,18.6336397 C170.711906,19.3509926 170.447613,19.8827206 170.066447,20.2629044 L170.066447,20.2629044 Z" id="Stroke-14" stroke="#1A1918"></path>
                            <path d="M9.69449935,42.7867279 C9.69449935,42.9525 9.68985098,43.0937868 9.67955817,43.2099265 C9.66959739,43.3260662 9.65465621,43.4259926 9.63473464,43.5090441 C9.61448105,43.5920956 9.58791895,43.6635662 9.55471634,43.723125 C9.5211817,43.7830147 9.46805752,43.8508456 9.39467974,43.9276103 C9.32130196,44.0040441 9.1795268,44.1016544 8.96968627,44.2211029 C8.75984575,44.3408824 8.50318954,44.4553676 8.19971765,44.5648897 C7.89657778,44.6750735 7.54994248,44.7660662 7.15981176,44.8391912 C6.77001307,44.9119853 6.34833987,44.9490441 5.89512418,44.9490441 C5.00861438,44.9490441 4.2087634,44.8127206 3.49523922,44.5404044 C2.78204706,44.2677574 2.17543529,43.8614338 1.67573595,43.3197794 C1.17570458,42.778125 0.792214379,42.1024632 0.525597386,41.2918015 C0.258980392,40.4814706 0.125837908,39.538125 0.125837908,38.4617647 C0.125837908,37.3658824 0.272261438,36.3927574 0.565772549,35.5427206 C0.858951634,34.6923529 1.26900392,33.9783088 1.79559739,33.4002574 C2.32219085,32.8222059 2.95370458,32.3837868 3.69047059,32.085 C4.42690458,31.7858824 5.23837647,31.6363235 6.1252183,31.6363235 C6.48513464,31.6363235 6.83143791,31.6664338 7.16512418,31.7263235 C7.49814641,31.7858824 7.80659869,31.8643015 8.08981699,31.9605882 C8.37303529,32.056875 8.62803137,32.1680515 8.85480523,32.2941176 C9.08124706,32.4201838 9.23962353,32.5283824 9.32960261,32.6177206 C9.4195817,32.7077206 9.48133856,32.7825 9.51454118,32.8420588 C9.54807582,32.9022794 9.57463791,32.9783824 9.59455948,33.0713603 C9.61448105,33.1643382 9.62975425,33.2738603 9.63971503,33.4002574 C9.64967582,33.5263235 9.65465621,33.6828309 9.65465621,33.868125 C9.65465621,34.0679779 9.64801569,34.2373897 9.63473464,34.3766912 C9.62145359,34.5159926 9.59787974,34.6291544 9.56467712,34.7155147 C9.53114248,34.8022059 9.49129935,34.8647426 9.44481569,34.9047794 C9.398,34.9444853 9.34487582,34.9646691 9.28477908,34.9646691 C9.18483922,34.9646691 9.05800523,34.9064338 8.90460915,34.7902941 C8.75121307,34.6741544 8.55299346,34.5444485 8.30995033,34.4015074 C8.06624314,34.2585662 7.77638431,34.1295221 7.44004183,34.0130515 C7.10336732,33.8965809 6.70161569,33.8386765 6.23511895,33.8386765 C5.72180654,33.8386765 5.26361046,33.9432353 4.86019869,34.1526838 C4.45678693,34.3618015 4.11380392,34.6605882 3.83058562,35.049375 C3.54703529,35.4381618 3.33188235,35.9076838 3.18545882,36.4589338 C3.03870327,37.0105147 2.96565752,37.6315809 2.96565752,38.3224632 C2.96565752,39.0795221 3.04401569,39.7359926 3.2004,40.2905515 C3.35711634,40.8451103 3.58056993,41.3017279 3.87042876,41.6607353 C4.16028758,42.0194118 4.51024314,42.2870956 4.92029542,42.4627941 C5.33034771,42.6384926 5.79153203,42.7268382 6.30517647,42.7268382 C6.7716732,42.7268382 7.17508497,42.6722426 7.51474771,42.5623897 C7.85474248,42.4528676 8.14659346,42.3314338 8.38996863,42.1984191 C8.63301176,42.0660662 8.8328915,41.9462868 8.98960784,41.8397426 C9.14632418,41.7338603 9.26817778,41.6805882 9.3548366,41.6805882 C9.42124183,41.6805882 9.47469804,41.6938235 9.51454118,41.7202941 C9.55471634,41.7470956 9.58791895,41.8000368 9.61448105,41.8797794 C9.64137516,41.9591912 9.66129673,42.0706985 9.67457778,42.2136397 C9.68785882,42.3565809 9.69449935,42.5475 9.69449935,42.7867279" id="Fill-15" fill="#FFFFFF"></path>
                            <path d="M21.183268,44.4007721 C21.183268,44.4738971 21.1696549,44.5354412 21.1434248,44.5850735 C21.1165307,44.6347059 21.0534458,44.6763971 20.9531739,44.7098162 C20.853234,44.7429044 20.7064784,44.7660662 20.5132392,44.7796324 C20.32,44.7925368 20.0567033,44.7994853 19.723349,44.7994853 C19.443451,44.7994853 19.2199974,44.7925368 19.0536523,44.7796324 C18.8866431,44.7660662 18.7551608,44.74125 18.6585412,44.7045221 C18.5619216,44.6684559 18.4935242,44.6218015 18.453681,44.5648897 C18.4135059,44.5089706 18.3799712,44.4408088 18.3534092,44.3607353 L17.1936418,41.4810662 C17.0538588,41.1558088 16.9170641,40.8669485 16.7839216,40.6144853 C16.6504471,40.3616912 16.5020314,40.15125 16.3386745,39.9818382 C16.1753176,39.8120956 15.9870588,39.6847059 15.773898,39.5980147 C15.5604052,39.5116544 15.3140418,39.4683088 15.0341438,39.4683088 L14.2140392,39.4683088 L14.2140392,44.3809191 C14.2140392,44.4474265 14.1924575,44.5069853 14.1489621,44.5602574 C14.1057987,44.6135294 14.034081,44.6565441 13.9341412,44.6896324 C13.8342013,44.7230515 13.7007268,44.7495221 13.5343817,44.769375 C13.3673725,44.7892279 13.1542118,44.7994853 12.8942353,44.7994853 C12.6408993,44.7994853 12.4293987,44.7892279 12.2594013,44.769375 C12.0894039,44.7495221 11.9542693,44.7230515 11.8543294,44.6896324 C11.7543895,44.6565441 11.684332,44.6135294 11.6444889,44.5602574 C11.6043137,44.5069853 11.5843922,44.4474265 11.5843922,44.3809191 L11.5843922,32.6726471 C11.5843922,32.3804779 11.6594301,32.1697059 11.8095059,32.04 C11.9595817,31.9102941 12.1445203,31.8457721 12.3643216,31.8457721 L15.7138013,31.8457721 C16.0537961,31.8457721 16.3336941,31.8527206 16.5538275,31.865625 C16.7739608,31.8791912 16.9738405,31.8954044 17.1537987,31.9152574 C17.6737516,31.9887132 18.1419085,32.1151103 18.5586013,32.2941176 C18.9749621,32.4737868 19.3285699,32.7077206 19.6184288,32.9965809 C19.9082876,33.2857721 20.129749,33.6279044 20.2834771,34.0226471 C20.4365412,34.4183824 20.5132392,34.8716912 20.5132392,35.3829044 C20.5132392,35.8147059 20.4584549,36.2084559 20.3482222,36.5638235 C20.2383216,36.9191912 20.0766248,37.2365074 19.8634641,37.5154412 C19.6499712,37.794375 19.3866745,38.0369118 19.0735739,38.2427206 C18.7601412,38.4488603 18.4035451,38.6149632 18.0037856,38.7410294 C18.1970248,38.8340074 18.3786431,38.9471691 18.5486405,39.0795221 C18.7186379,39.2128676 18.8783425,39.3736765 19.0284183,39.5629412 C19.1784941,39.7525368 19.3202693,39.9682721 19.4534118,40.2104779 C19.5868863,40.4533456 19.7167085,40.7276471 19.8435425,41.0327206 L20.9332523,43.5735662 C21.0331922,43.8263603 21.0999294,44.0106618 21.133132,44.1268015 C21.1663346,44.2432721 21.183268,44.3342647 21.183268,44.4007721 L21.183268,44.4007721 Z M17.7936131,35.6519118 C17.7936131,35.2270588 17.6969935,34.8683824 17.5037542,34.5758824 C17.310183,34.2837132 16.9937621,34.0775735 16.5538275,33.958125 C16.4203529,33.9250368 16.268617,33.8982353 16.0989516,33.8787132 C15.9289542,33.8585294 15.6938797,33.8486029 15.3940601,33.8486029 L14.2140392,33.8486029 L14.2140392,37.5055147 L15.5540967,37.5055147 C15.9272941,37.5055147 16.2540078,37.4608456 16.5339059,37.3708456 C16.8138039,37.2811765 17.0468863,37.1551103 17.233817,36.9923162 C17.4204157,36.8295221 17.5601987,36.635625 17.653498,36.4093015 C17.7471294,36.1836397 17.7936131,35.9311765 17.7936131,35.6519118 L17.7936131,35.6519118 Z" id="Fill-16" fill="#FFFFFF"></path>
                            <path d="M34.5516366,38.143125 C34.5516366,39.2128676 34.4181621,40.1691176 34.1515451,41.0128676 C33.8849281,41.8566176 33.4881569,42.5723162 32.9618954,43.1599632 C32.4349699,43.7482721 31.7835346,44.1966176 31.0069255,44.5056618 C30.2303163,44.814375 29.3321856,44.9688971 28.3125333,44.9688971 C27.3058301,44.9688971 26.4276209,44.8375368 25.6775739,44.5751471 C24.9278588,44.3130882 24.3029856,43.9123897 23.8029542,43.3747059 C23.3029229,42.8363603 22.9280654,42.1524265 22.6780497,41.3219118 C22.428034,40.4917279 22.3031922,39.5080147 22.3031922,38.3724265 C22.3031922,37.3294853 22.4363346,36.3911029 22.7029516,35.5576103 C22.9695686,34.7237868 23.3663399,34.0147059 23.8929333,33.4300368 C24.4195268,32.8456985 25.0709621,32.3973529 25.8475712,32.085 C26.6241804,31.7726471 27.5256314,31.6168015 28.5522562,31.6168015 C29.5320654,31.6168015 30.3969935,31.7458456 31.1470405,32.0052574 C31.8967556,32.2643382 32.5236209,32.6630515 33.0266405,33.2007353 C33.5299922,33.7390809 33.9098301,34.4183824 34.1664863,35.2386397 C34.4231425,36.0588971 34.5516366,37.0270588 34.5516366,38.143125 L34.5516366,38.143125 Z M31.7918353,38.2827574 C31.7918353,37.6047794 31.7383791,36.9890074 31.6321307,36.4344485 C31.5252183,35.8795588 31.3436,35.4047426 31.0869438,35.0096691 C30.8302876,34.6139338 30.4886327,34.3088603 30.0619791,34.0924632 C29.6353255,33.8770588 29.1020915,33.7688603 28.4622771,33.7688603 C27.8158222,33.7688603 27.2756157,33.8902941 26.8426536,34.1325 C26.4093595,34.3750368 26.0590719,34.6989706 25.7927869,35.1039706 C25.5258379,35.5089706 25.3375791,35.9827941 25.2276784,36.5241176 C25.1177778,37.0651103 25.0626614,37.6385294 25.0626614,38.2427206 C25.0626614,38.9471691 25.1161176,39.5798162 25.222698,40.1409926 C25.3292784,40.7025 25.5092366,41.1822794 25.7625725,41.5806618 C26.0159085,41.979375 26.3559033,42.283125 26.7825569,42.4925735 C27.2092105,42.7020221 27.7457647,42.8065809 28.3925516,42.8065809 C29.0386745,42.8065809 29.578881,42.6871324 30.0121752,42.4479044 C30.4454693,42.2086765 30.7954248,41.8830882 31.0620418,41.4714706 C31.3286588,41.0595221 31.5169176,40.5797426 31.6268183,40.0314706 C31.737051,39.4835294 31.7918353,38.9005147 31.7918353,38.2827574 L31.7918353,38.2827574 Z" id="Fill-17" fill="#FFFFFF"></path>
                            <path d="M50.1293072,44.071875 C50.0894641,44.2316912 50.0343477,44.3594118 49.9646222,44.4553676 C49.8945647,44.5519853 49.7893124,44.6251103 49.6495294,44.6750735 C49.5094144,44.7247059 49.3294562,44.7577941 49.1096549,44.7743382 C48.8898536,44.7908824 48.6096235,44.7994853 48.2696288,44.7994853 C47.8897908,44.7994853 47.5846588,44.7908824 47.3548967,44.7743382 C47.1248026,44.7577941 46.9431843,44.7247059 46.8097098,44.6750735 C46.6765673,44.6251103 46.5799477,44.5519853 46.519851,44.4553676 C46.4600863,44.3594118 46.4132706,44.2316912 46.3797359,44.071875 L44.310217,35.9013971 L44.2902954,35.9013971 L42.3303451,44.071875 C42.2971425,44.2247426 42.2506588,44.3491544 42.1905621,44.4454412 C42.1304654,44.5417279 42.0355059,44.6168382 41.9053516,44.6697794 C41.7755294,44.7230515 41.5988915,44.7577941 41.3757699,44.7743382 C41.1523163,44.7908824 40.8571451,44.7994853 40.4905882,44.7994853 C40.1041098,44.7994853 39.7956575,44.7908824 39.5658954,44.7743382 C39.3358013,44.7577941 39.154183,44.7247059 39.0207085,44.6750735 C38.887566,44.6251103 38.7909464,44.5519853 38.7308497,44.4553676 C38.671085,44.3594118 38.620949,44.2316912 38.5811059,44.071875 L35.6413464,32.8222059 C35.5812497,32.5833088 35.547715,32.3953676 35.5414065,32.2590441 C35.534434,32.1233824 35.572949,32.0188235 35.6562876,31.9453676 C35.7396261,31.8722426 35.8764209,31.8275735 36.0663399,31.8110294 C36.2562588,31.7944853 36.5212157,31.7858824 36.8612105,31.7858824 C37.1743111,31.7858824 37.4226667,31.7908456 37.6059451,31.8007721 C37.7892235,31.8110294 37.9276784,31.8341912 38.0209778,31.8705882 C38.1142771,31.9073162 38.1773621,31.9605882 38.2112288,32.0304044 C38.2444314,32.0998897 38.2709935,32.1978309 38.290915,32.3238971 L40.5606458,42.1984191 L40.5706065,42.1984191 L42.9303163,32.3937132 C42.9568784,32.2673162 42.9920732,32.1647426 43.0352366,32.085 C43.078732,32.0052574 43.1517778,31.9437132 43.2553699,31.9003676 C43.3586301,31.8573529 43.5004052,31.8275735 43.6803634,31.8110294 C43.8603216,31.7944853 44.1003765,31.7858824 44.4001961,31.7858824 C44.7202693,31.7858824 44.9749333,31.7925 45.1651843,31.8060662 C45.3551033,31.8193015 45.5015268,31.8474265 45.605119,31.8907721 C45.7083791,31.9341176 45.783417,31.9953309 45.8299007,32.0747426 C45.8767163,32.1548162 45.9132392,32.2610294 45.9401333,32.3937132 L48.3795294,42.1984191 L48.399783,42.1984191 L50.6695137,32.3540074 C50.6894353,32.2477941 50.7159974,32.1564706 50.749532,32.0800368 C50.7827346,32.0039338 50.8461516,31.9437132 50.939451,31.9003676 C51.0327503,31.8573529 51.1658928,31.8275735 51.3392105,31.8110294 C51.5125281,31.7944853 51.7559033,31.7858824 52.0693359,31.7858824 C52.362515,31.7858824 52.590949,31.7944853 52.7543059,31.8110294 C52.9173307,31.8275735 53.035532,31.8722426 53.1092418,31.9453676 C53.1822876,32.0188235 53.2141621,32.1266912 53.2042013,32.2693015 C53.1939085,32.4122426 53.1590458,32.6064706 53.099281,32.8523162 L50.1293072,44.071875" id="Fill-18" fill="#FFFFFF"></path>
                            <path d="M65.8175425,38.1030882 C65.8175425,39.2856618 65.6628183,40.2971691 65.3527059,41.1372794 C65.0425935,41.9780515 64.5980105,42.6636397 64.0179608,43.1950368 C63.4379111,43.7264338 62.7330196,44.1165441 61.9029542,44.3660294 C61.0732209,44.6148529 60.0847791,44.7395956 58.9386248,44.7395956 L55.8487895,44.7395956 C55.6289882,44.7395956 55.4440497,44.6750735 55.2939739,44.5450368 C55.143898,44.4156618 55.0688601,44.2052206 55.0688601,43.9123897 L55.0688601,32.6726471 C55.0688601,32.3804779 55.143898,32.1697059 55.2939739,32.04 C55.4440497,31.9102941 55.6289882,31.8457721 55.8487895,31.8457721 L59.1683869,31.8457721 C60.3215137,31.8457721 61.2996627,31.9801103 62.103166,32.2494485 C62.9063373,32.518125 63.5830065,32.9168382 64.1328418,33.4449265 C64.6830092,33.9730147 65.1010301,34.6258456 65.3875686,35.4030882 C65.6741072,36.1803309 65.8175425,37.0803309 65.8175425,38.1030882 L65.8175425,38.1030882 Z M63.0979163,38.1930882 C63.0979163,37.5819485 63.0261987,37.0138235 62.8830954,36.4890441 C62.7396601,35.9642647 62.509566,35.5089706 62.1931451,35.1238235 C61.8763922,34.7386765 61.4696601,34.4382353 60.973281,34.2225 C60.4765699,34.0064338 59.8251346,33.8982353 59.0183111,33.8982353 L57.6888784,33.8982353 L57.6888784,42.6669485 L59.0584863,42.6669485 C59.778319,42.6669485 60.3849307,42.5739706 60.8783216,42.3876838 C61.3713804,42.2020588 61.7830928,41.9211397 62.1131268,41.5459191 C62.4431608,41.1710294 62.6895242,40.7041544 62.852881,40.1459559 C63.0162379,39.5880882 63.0979163,38.9369118 63.0979163,38.1930882 L63.0979163,38.1930882 Z" id="Fill-19" fill="#FFFFFF"></path>
                            <path d="M75.6465124,40.8732353 C75.6465124,41.5508824 75.5196784,42.1454779 75.2666745,42.6570221 C75.0130065,43.1685662 74.6696915,43.5954044 74.2363974,43.9375368 C73.8031033,44.2793382 73.2967634,44.5370956 72.7167137,44.7098162 C72.1369961,44.8825368 71.5167712,44.9688971 70.8570353,44.9688971 C70.4101281,44.9688971 69.9954275,44.9321691 69.6122693,44.8590441 C69.2287791,44.7859191 68.8904444,44.6982353 68.5972654,44.595 C68.3037542,44.4920956 68.058719,44.3842279 67.8624915,44.2710662 C67.6656,44.1585662 67.5241569,44.0586397 67.437498,43.9722794 C67.3508392,43.8859191 67.2890824,43.7615074 67.2525595,43.5987132 C67.2157046,43.4359191 67.1974431,43.2016544 67.1974431,42.89625 C67.1974431,42.6901103 67.2040837,42.5177206 67.2173647,42.3780882 C67.2306458,42.2384559 67.2525595,42.1252941 67.2824418,42.0392647 C67.3123242,41.9529044 67.3521673,41.8913603 67.4023033,41.8546324 C67.4524392,41.8185662 67.5108758,41.8000368 67.577281,41.8000368 C67.6705804,41.8000368 67.8023948,41.8546324 67.9723922,41.9644853 C68.1423895,42.0740074 68.3605307,42.1951103 68.6271477,42.3284559 C68.8937647,42.4611397 69.2121778,42.5822426 69.5820549,42.6917647 C69.9522641,42.8012868 70.3802458,42.8562132 70.8669961,42.8562132 C71.1867373,42.8562132 71.4736078,42.8181618 71.7269438,42.7417279 C71.9799477,42.6652941 72.1951007,42.5570956 72.3717386,42.4177941 C72.5483765,42.2781618 72.6831791,42.1057721 72.7768105,41.8999632 C72.8701098,41.6938235 72.9165935,41.4645221 72.9165935,41.2123897 C72.9165935,40.9202206 72.8369072,40.6690809 72.6768706,40.4599632 C72.516834,40.2505147 72.3083216,40.0645588 72.0516654,39.9017647 C71.7950092,39.7393015 71.5034902,39.5864338 71.1771085,39.4434926 C70.8503948,39.3005515 70.5133882,39.1493382 70.167085,38.9901838 C69.8204497,38.8306985 69.4837752,38.6500368 69.1573935,38.446875 C68.8306797,38.2447059 68.5388288,38.0025 68.2821725,37.7199265 C68.0255163,37.4373529 67.8173359,37.1034926 67.6572993,36.7183456 C67.4975948,36.3331985 67.4172444,35.8712868 67.4172444,35.3332721 C67.4172444,34.7155147 67.5324575,34.1725368 67.7622196,33.7040074 C67.9923137,33.2354779 68.3020941,32.8473529 68.6922248,32.5383088 C69.0820235,32.2292647 69.5422118,31.9986397 70.0721255,31.8457721 C70.6020392,31.6929044 71.1634954,31.6168015 71.7568261,31.6168015 C72.0636183,31.6168015 72.3700784,31.6399632 72.6768706,31.6866176 C72.9833307,31.7329412 73.2698693,31.7958088 73.5368183,31.8758824 C73.8031033,31.9552941 74.0398379,32.0452941 74.2466902,32.1445588 C74.4532105,32.2441544 74.5896732,32.3275368 74.6564105,32.3937132 C74.7231477,32.4602206 74.7679712,32.5168015 74.7915451,32.563125 C74.8147869,32.6097794 74.8347085,32.6713235 74.8513098,32.7477574 C74.8679111,32.8238603 74.879532,32.9201471 74.8865046,33.0366176 C74.8931451,33.1527574 74.8964654,33.2973529 74.8964654,33.4697426 C74.8964654,33.6626471 74.891485,33.8254412 74.8815242,33.958125 C74.8712314,34.0911397 74.8546301,34.2006618 74.8313882,34.2870221 C74.8081464,34.3737132 74.7749438,34.43625 74.7314484,34.4762868 C74.6879529,34.5159926 74.6298484,34.5361765 74.5564706,34.5361765 C74.4830928,34.5361765 74.3665516,34.4895221 74.206515,34.3965441 C74.0464784,34.3038971 73.849919,34.2023162 73.6165046,34.0924632 C73.3834222,33.9832721 73.1131529,33.8833456 72.8066928,33.7940074 C72.4999007,33.7040074 72.1632261,33.6593382 71.7970013,33.6593382 C71.5101307,33.6593382 71.260115,33.6940809 71.0469542,33.7638971 C70.8334614,33.8337132 70.6551634,33.93 70.5120601,34.0527574 C70.3686248,34.1758456 70.2620444,34.3234191 70.1919869,34.4964706 C70.1219294,34.6688603 70.0870667,34.8518382 70.0870667,35.0444118 C70.0870667,35.3299632 70.1654248,35.5774632 70.3221412,35.7865809 C70.4785255,35.9956985 70.688366,36.1819853 70.9519948,36.3447794 C71.2152915,36.5075735 71.513451,36.6601103 71.8468052,36.8030515 C72.1801595,36.9456618 72.5201542,37.096875 72.8667895,37.2566912 C73.2130928,37.4155147 73.5530876,37.5968382 73.8864418,37.7993382 C74.2197961,38.0025 74.5166275,38.2447059 74.7766039,38.5266176 C75.0365804,38.8091912 75.2464209,39.1413971 75.4064575,39.5232353 C75.5664941,39.9050735 75.6465124,40.3554044 75.6465124,40.8732353" id="Fill-20" fill="#FFFFFF"></path>
                            <path d="M89.2947791,38.143125 C89.2947791,39.2128676 89.1613046,40.1691176 88.8946876,41.0128676 C88.6280706,41.8566176 88.2312993,42.5723162 87.7050379,43.1599632 C87.1784444,43.7482721 86.5266771,44.1966176 85.750068,44.5056618 C84.9734588,44.814375 84.0753281,44.9688971 83.0553438,44.9688971 C82.0489725,44.9688971 81.1707634,44.8375368 80.4207163,44.5751471 C79.6710013,44.3130882 79.0461281,43.9123897 78.5460967,43.3747059 C78.0460654,42.8363603 77.6712078,42.1524265 77.4211922,41.3219118 C77.1711765,40.4917279 77.0463346,39.5080147 77.0463346,38.3724265 C77.0463346,37.3294853 77.1794771,36.3911029 77.4460941,35.5576103 C77.7127111,34.7237868 78.1094824,34.0147059 78.6360758,33.4300368 C79.1626693,32.8456985 79.8141046,32.3973529 80.5907137,32.085 C81.3673229,31.7726471 82.2687739,31.6168015 83.2953987,31.6168015 C84.2752078,31.6168015 85.1401359,31.7458456 85.890183,32.0052574 C86.639898,32.2643382 87.2667634,32.6630515 87.769783,33.2007353 C88.2731346,33.7390809 88.6529725,34.4183824 88.9096288,35.2386397 C89.166285,36.0588971 89.2947791,37.0270588 89.2947791,38.143125 L89.2947791,38.143125 Z M86.5349778,38.2827574 C86.5349778,37.6047794 86.4815216,36.9890074 86.3752732,36.4344485 C86.2683608,35.8795588 86.0867425,35.4047426 85.8300863,35.0096691 C85.5734301,34.6139338 85.2317752,34.3088603 84.8054536,34.0924632 C84.378468,33.8770588 83.845234,33.7688603 83.2054196,33.7688603 C82.5589647,33.7688603 82.0187582,33.8902941 81.5857961,34.1325 C81.1521699,34.3750368 80.8022144,34.6989706 80.5359294,35.1039706 C80.2689804,35.5089706 80.0810536,35.9827941 79.9708209,36.5241176 C79.8609203,37.0651103 79.8058039,37.6385294 79.8058039,38.2427206 C79.8058039,38.9471691 79.8592601,39.5798162 79.9658405,40.1409926 C80.0724209,40.7025 80.2523791,41.1822794 80.505715,41.5806618 C80.759051,41.979375 81.0990458,42.283125 81.5256993,42.4925735 C81.9523529,42.7020221 82.4889072,42.8065809 83.1356941,42.8065809 C83.781817,42.8065809 84.3220235,42.6871324 84.7553176,42.4479044 C85.1886118,42.2086765 85.5385673,41.8830882 85.8051843,41.4714706 C86.0718013,41.0595221 86.2600601,40.5797426 86.3699608,40.0314706 C86.4801935,39.4835294 86.5349778,38.9005147 86.5349778,38.2827574 L86.5349778,38.2827574 Z" id="Fill-21" fill="#FFFFFF"></path>
                            <path d="M102.063176,39.9365074 C102.063176,40.7276471 101.946303,41.4347426 101.712889,42.0591176 C101.479807,42.6838235 101.136492,43.2119118 100.683276,43.6433824 C100.229728,44.0751838 99.669932,44.4040809 99.0035556,44.6300735 C98.3368471,44.8557353 97.5701987,44.9688971 96.7036105,44.9688971 C95.8904784,44.9688971 95.1603529,44.8676471 94.513898,44.6644853 C93.8671111,44.4623162 93.3209281,44.1549265 92.8740209,43.7429779 C92.4274458,43.3313603 92.0857908,42.8181618 91.8493882,42.2037132 C91.6126536,41.5889338 91.4944523,40.8702574 91.4944523,40.0463603 L91.4944523,32.2044485 C91.4944523,32.1382721 91.5143739,32.0780515 91.554217,32.0251103 C91.5943922,31.9721691 91.6657778,31.9288235 91.7693699,31.8954044 C91.8726301,31.8623162 92.0074327,31.8358456 92.1741098,31.8156618 C92.3407869,31.7958088 92.5542797,31.7858824 92.8142562,31.7858824 C93.0672601,31.7858824 93.2774327,31.7958088 93.4441098,31.8156618 C93.6104549,31.8358456 93.7439294,31.8623162 93.8442013,31.8954044 C93.9441412,31.9288235 94.0155268,31.9721691 94.0590222,32.0251103 C94.1021856,32.0780515 94.1240993,32.1382721 94.1240993,32.2044485 L94.1240993,39.8170588 C94.1240993,40.3289338 94.1871843,40.7723162 94.3140183,41.1472059 C94.4405203,41.5227574 94.6221386,41.8334559 94.8588732,42.0789706 C95.0956078,42.3251471 95.3788261,42.5094485 95.7088601,42.6322059 C96.0385621,42.7549632 96.4071111,42.8161765 96.8138431,42.8161765 C97.2268837,42.8161765 97.5967608,42.7536397 97.9234745,42.6269118 C98.2501882,42.5008456 98.526766,42.316875 98.7535399,42.0740074 C98.9799817,41.8318015 99.1549595,41.5330147 99.2784732,41.1773162 C99.4016549,40.8219485 99.4634118,40.4186029 99.4634118,39.9666176 L99.4634118,32.2044485 C99.4634118,32.1382721 99.4833333,32.0780515 99.5235085,32.0251103 C99.5633516,31.9721691 99.6334092,31.9288235 99.733349,31.8954044 C99.8332889,31.8623162 99.9680915,31.8358456 100.138421,31.8156618 C100.308086,31.7958088 100.519919,31.7858824 100.773255,31.7858824 C101.026259,31.7858824 101.234771,31.7958088 101.398128,31.8156618 C101.561485,31.8358456 101.692967,31.8623162 101.793239,31.8954044 C101.893179,31.9288235 101.962905,31.9721691 102.00308,32.0251103 C102.043255,32.0780515 102.063176,32.1382721 102.063176,32.2044485 L102.063176,39.9365074" id="Fill-22" fill="#FFFFFF"></path>
                            <path d="M114.471658,44.4007721 C114.471658,44.4738971 114.458044,44.5354412 114.431814,44.5850735 C114.40492,44.6347059 114.341503,44.6763971 114.241563,44.7098162 C114.141624,44.7429044 113.994868,44.7660662 113.801629,44.7796324 C113.60839,44.7925368 113.344761,44.7994853 113.011739,44.7994853 C112.731841,44.7994853 112.508387,44.7925368 112.342042,44.7796324 C112.175033,44.7660662 112.04355,44.74125 111.946931,44.7045221 C111.850311,44.6684559 111.781914,44.6218015 111.741739,44.5648897 C111.701895,44.5089706 111.668361,44.4408088 111.641799,44.3607353 L110.482031,41.4810662 C110.342248,41.1558088 110.205454,40.8669485 110.072311,40.6144853 C109.938837,40.3616912 109.790421,40.15125 109.627064,39.9818382 C109.463707,39.8120956 109.275448,39.6847059 109.062288,39.5980147 C108.848795,39.5116544 108.602431,39.4683088 108.322533,39.4683088 L107.502429,39.4683088 L107.502429,44.3809191 C107.502429,44.4474265 107.480515,44.5069853 107.437352,44.5602574 C107.394188,44.6135294 107.322471,44.6565441 107.222531,44.6896324 C107.122591,44.7230515 106.989116,44.7495221 106.822439,44.769375 C106.655762,44.7892279 106.442601,44.7994853 106.182625,44.7994853 C105.929289,44.7994853 105.717788,44.7892279 105.547791,44.769375 C105.377793,44.7495221 105.242659,44.7230515 105.142719,44.6896324 C105.042779,44.6565441 104.972722,44.6135294 104.932878,44.5602574 C104.892703,44.5069853 104.872782,44.4474265 104.872782,44.3809191 L104.872782,32.6726471 C104.872782,32.3804779 104.94782,32.1697059 105.097895,32.04 C105.247639,31.9102941 105.432578,31.8457721 105.652711,31.8457721 L109.002191,31.8457721 C109.342186,31.8457721 109.622084,31.8527206 109.842217,31.865625 C110.062018,31.8791912 110.261898,31.8954044 110.442188,31.9152574 C110.962141,31.9887132 111.430298,32.1151103 111.846991,32.2941176 C112.263352,32.4737868 112.616959,32.7077206 112.906818,32.9965809 C113.196677,33.2857721 113.418139,33.6279044 113.571867,34.0226471 C113.724931,34.4183824 113.801629,34.8716912 113.801629,35.3829044 C113.801629,35.8147059 113.746512,36.2084559 113.636612,36.5638235 C113.526711,36.9191912 113.365014,37.2365074 113.151854,37.5154412 C112.938361,37.794375 112.675064,38.0369118 112.361963,38.2427206 C112.048531,38.4488603 111.691935,38.6149632 111.291843,38.7410294 C111.485082,38.8340074 111.667033,38.9471691 111.83703,39.0795221 C112.007027,39.2128676 112.166732,39.3736765 112.316808,39.5629412 C112.466884,39.7525368 112.608327,39.9682721 112.741801,40.2104779 C112.874944,40.4533456 113.005098,40.7276471 113.1316,41.0327206 L114.221642,43.5735662 C114.321582,43.8263603 114.388319,44.0106618 114.421522,44.1268015 C114.454724,44.2432721 114.471658,44.3342647 114.471658,44.4007721 L114.471658,44.4007721 Z M111.082003,35.6519118 C111.082003,35.2270588 110.985383,34.8683824 110.792144,34.5758824 C110.598573,34.2837132 110.282152,34.0775735 109.842217,33.958125 C109.708742,33.9250368 109.557007,33.8982353 109.387341,33.8787132 C109.217012,33.8585294 108.982269,33.8486029 108.68245,33.8486029 L107.502429,33.8486029 L107.502429,37.5055147 L108.842154,37.5055147 C109.215352,37.5055147 109.542065,37.4608456 109.822295,37.3708456 C110.102193,37.2811765 110.335276,37.1551103 110.522207,36.9923162 C110.708805,36.8295221 110.848588,36.635625 110.941888,36.4093015 C111.035519,36.1836397 111.082003,35.9311765 111.082003,35.6519118 L111.082003,35.6519118 Z" id="Fill-23" fill="#FFFFFF"></path>
                            <path d="M125.200086,42.7867279 C125.200086,42.9525 125.195438,43.0937868 125.185145,43.2099265 C125.175184,43.3260662 125.160243,43.4259926 125.13999,43.5090441 C125.120068,43.5920956 125.093506,43.6635662 125.060303,43.723125 C125.026769,43.7830147 124.973644,43.8508456 124.900267,43.9276103 C124.826889,44.0040441 124.685114,44.1016544 124.475273,44.2211029 C124.265433,44.3408824 124.008776,44.4553676 123.705305,44.5648897 C123.402165,44.6750735 123.055529,44.7660662 122.665399,44.8391912 C122.2756,44.9119853 121.853927,44.9490441 121.400711,44.9490441 C120.514201,44.9490441 119.71435,44.8127206 119.000826,44.5404044 C118.287634,44.2677574 117.681022,43.8614338 117.181323,43.3197794 C116.681292,42.778125 116.297801,42.1024632 116.031184,41.2918015 C115.764567,40.4814706 115.631425,39.538125 115.631425,38.4617647 C115.631425,37.3658824 115.777848,36.3927574 116.071359,35.5427206 C116.364539,34.6923529 116.774591,33.9783088 117.301184,33.4002574 C117.827778,32.8222059 118.459292,32.3837868 119.196058,32.085 C119.932492,31.7858824 120.743963,31.6363235 121.630805,31.6363235 C121.990722,31.6363235 122.337025,31.6664338 122.670379,31.7263235 C123.003733,31.7858824 123.312186,31.8643015 123.595404,31.9605882 C123.878622,32.056875 124.133618,32.1680515 124.360392,32.2941176 C124.586834,32.4201838 124.74521,32.5283824 124.83519,32.6177206 C124.925169,32.7077206 124.986593,32.7825 125.020128,32.8420588 C125.053663,32.9022794 125.080225,32.9783824 125.100146,33.0713603 C125.120068,33.1643382 125.135341,33.2738603 125.145302,33.4002574 C125.155263,33.5263235 125.160243,33.6828309 125.160243,33.868125 C125.160243,34.0679779 125.153603,34.2373897 125.13999,34.3766912 C125.126708,34.5159926 125.103467,34.6291544 125.070264,34.7155147 C125.036729,34.8022059 124.996886,34.8647426 124.950403,34.9047794 C124.903255,34.9444853 124.850131,34.9646691 124.790366,34.9646691 C124.690094,34.9646691 124.563592,34.9064338 124.410196,34.7902941 C124.2568,34.6741544 124.05858,34.5444485 123.815537,34.4015074 C123.57183,34.2585662 123.281971,34.1295221 122.945629,34.0130515 C122.608622,33.8965809 122.207203,33.8386765 121.740706,33.8386765 C121.227393,33.8386765 120.768865,33.9432353 120.365786,34.1526838 C119.962374,34.3618015 119.619391,34.6605882 119.336173,35.049375 C119.052622,35.4381618 118.837469,35.9076838 118.691046,36.4589338 C118.54429,37.0105147 118.471244,37.6315809 118.471244,38.3224632 C118.471244,39.0795221 118.549271,39.7359926 118.705987,40.2905515 C118.862703,40.8451103 119.086157,41.3017279 119.376016,41.6607353 C119.665875,42.0194118 120.01583,42.2870956 120.425882,42.4627941 C120.835935,42.6384926 121.297119,42.7268382 121.810763,42.7268382 C122.276928,42.7268382 122.680672,42.6722426 123.020335,42.5623897 C123.360329,42.4528676 123.651848,42.3314338 123.895224,42.1984191 C124.138599,42.0660662 124.338478,41.9462868 124.495195,41.8397426 C124.651911,41.7338603 124.773433,41.6805882 124.860424,41.6805882 C124.926829,41.6805882 124.980285,41.6938235 125.020128,41.7202941 C125.060303,41.7470956 125.093506,41.8000368 125.120068,41.8797794 C125.14663,41.9591912 125.166552,42.0706985 125.180165,42.2136397 C125.193446,42.3565809 125.200086,42.5475 125.200086,42.7867279" id="Fill-24" fill="#FFFFFF"></path>
                            <path d="M129.729919,44.3809191 C129.729919,44.4474265 129.708005,44.5069853 129.66451,44.5602574 C129.621014,44.6135294 129.549629,44.6565441 129.449689,44.6896324 C129.349749,44.7230515 129.216275,44.7495221 129.049929,44.769375 C128.88292,44.7892279 128.669759,44.7994853 128.409783,44.7994853 C128.156115,44.7994853 127.944946,44.7892279 127.774949,44.769375 C127.604952,44.7495221 127.469817,44.7230515 127.369877,44.6896324 C127.269937,44.6565441 127.19822,44.6135294 127.155056,44.5602574 C127.111561,44.5069853 127.089979,44.4474265 127.089979,44.3809191 L127.089979,32.2044485 C127.089979,32.1382721 127.111561,32.0780515 127.155056,32.0251103 C127.19822,31.9721691 127.271597,31.9288235 127.374858,31.8954044 C127.478118,31.8623162 127.613252,31.8358456 127.779929,31.8156618 C127.946607,31.7958088 128.156115,31.7858824 128.409783,31.7858824 C128.669759,31.7858824 128.88292,31.7958088 129.049929,31.8156618 C129.216275,31.8358456 129.349749,31.8623162 129.449689,31.8954044 C129.549629,31.9288235 129.621014,31.9721691 129.66451,32.0251103 C129.708005,32.0780515 129.729919,32.1382721 129.729919,32.2044485 L129.729919,44.3809191" id="Fill-25" fill="#FFFFFF"></path>
                            <path d="M143.217817,43.8227206 C143.217817,43.9755882 143.191255,44.1119118 143.137799,44.2316912 C143.084342,44.3511397 143.012625,44.4507353 142.922978,44.5301471 C142.832667,44.6098897 142.726086,44.6684559 142.602905,44.7045221 C142.479391,44.74125 142.354549,44.7594485 142.227715,44.7594485 L141.108123,44.7594485 C140.874708,44.7594485 140.673169,44.7362868 140.503171,44.6896324 C140.333174,44.6433088 140.176458,44.5586029 140.033354,44.4358456 C139.889587,44.3130882 139.751464,44.1466544 139.618322,43.9375368 C139.484847,43.7280882 139.334771,43.4574265 139.168094,43.1252206 L135.948769,37.096875 C135.76217,36.7381985 135.571919,36.3510662 135.37868,35.9361397 C135.185108,35.5208824 135.012123,35.1175368 134.858727,34.7251103 L134.838805,34.7251103 C134.865699,35.2038971 134.885289,35.6803676 134.898902,36.1555147 C134.912183,36.6303309 134.918824,37.1200368 134.918824,37.6249632 L134.918824,44.3709926 C134.918824,44.4375 134.900562,44.4970588 134.864039,44.5503309 C134.827184,44.6036029 134.763767,44.6482721 134.673788,44.6846691 C134.583809,44.7213971 134.462288,44.7495221 134.308892,44.769375 C134.155495,44.7892279 133.958936,44.7994853 133.718881,44.7994853 C133.485467,44.7994853 133.292227,44.7892279 133.138831,44.769375 C132.985435,44.7495221 132.865574,44.7213971 132.778915,44.6846691 C132.692588,44.6482721 132.632492,44.6036029 132.598957,44.5503309 C132.565754,44.4970588 132.549153,44.4375 132.549153,44.3709926 L132.549153,32.7825 C132.549153,32.4704779 132.64046,32.2362132 132.824071,32.0800368 C133.007349,31.9235294 133.232463,31.8457721 133.49908,31.8457721 L134.908863,31.8457721 C135.162199,31.8457721 135.375359,31.8672794 135.548677,31.9102941 C135.721995,31.9536397 135.876719,32.0251103 136.013514,32.1247059 C136.150308,32.2243015 136.278471,32.3626103 136.398664,32.5383088 C136.518525,32.7143382 136.642039,32.9317279 136.768541,33.1908088 L139.288288,37.9042279 C139.434711,38.1897794 139.579807,38.4703676 139.723242,38.7463235 C139.866345,39.0219485 140.0048,39.2975735 140.137942,39.5731985 C140.271417,39.8488235 140.401239,40.1194853 140.528073,40.3851838 C140.654575,40.6505515 140.778089,40.9165809 140.89795,41.1822794 L140.908243,41.1822794 C140.88799,40.7173897 140.873048,40.2326471 140.863088,39.7273897 C140.853127,39.2227941 140.848146,38.7410294 140.848146,38.2827574 L140.848146,32.2345588 C140.848146,32.1680515 140.868068,32.1081618 140.908243,32.0548897 C140.948086,32.0019485 141.014492,31.9552941 141.108123,31.9152574 C141.201422,31.8758824 141.324604,31.8474265 141.478,31.8305515 C141.631064,31.8143382 141.827956,31.8060662 142.06801,31.8060662 C142.294784,31.8060662 142.484703,31.8143382 142.638099,31.8305515 C142.791163,31.8474265 142.909365,31.8758824 142.992703,31.9152574 C143.076042,31.9552941 143.134478,32.0019485 143.167681,32.0548897 C143.201216,32.1081618 143.217817,32.1680515 143.217817,32.2345588 L143.217817,43.8227206" id="Fill-26" fill="#FFFFFF"></path>
                            <path d="M156.41652,33.8486029 C156.41652,34.0415074 156.407888,34.2072794 156.391618,34.3469118 C156.374685,34.4862132 156.351111,34.5973897 156.321229,34.6804412 C156.291346,34.7638235 156.254492,34.8217279 156.211328,34.8551471 C156.168165,34.8879044 156.116369,34.9047794 156.056604,34.9047794 C155.969613,34.9047794 155.82983,34.8452206 155.636591,34.7251103 C155.44302,34.6056618 155.186695,34.4762868 154.866622,34.3366544 C154.546549,34.1973529 154.164719,34.0679779 153.721464,33.9485294 C153.278541,33.82875 152.763569,33.7688603 152.176878,33.7688603 C151.550013,33.7688603 150.983576,33.8770588 150.477237,34.0924632 C149.970565,34.3088603 149.537271,34.6139338 149.177354,35.0096691 C148.817438,35.4047426 148.540528,35.8795588 148.347289,36.4344485 C148.15405,36.9890074 148.05743,37.6018015 148.05743,38.2725 C148.05743,39.0097059 148.15571,39.6592279 148.352601,40.2210662 C148.548829,40.7822426 148.823746,41.2520956 149.177354,41.630625 C149.530298,42.0091544 149.955624,42.2950368 150.452335,42.4876103 C150.948714,42.6805147 151.496889,42.7764706 152.09686,42.7764706 C152.390371,42.7764706 152.68023,42.7433824 152.966769,42.6765441 C153.253307,42.6106985 153.519924,42.5107721 153.76662,42.3780882 L153.76662,39.3885662 L151.316931,39.3885662 C151.197069,39.3885662 151.10377,39.3137868 151.037365,39.1642279 C150.970295,39.015 150.937093,38.7612132 150.937093,38.4022059 C150.937093,38.21625 150.945393,38.0600735 150.961995,37.9336765 C150.978596,37.8079412 151.003498,37.7063603 151.037365,37.6302574 C151.070235,37.5538235 151.11041,37.4969118 151.157226,37.4608456 C151.20371,37.4241176 151.257166,37.4059191 151.316931,37.4059191 L155.686395,37.4059191 C155.792975,37.4059191 155.887935,37.4241176 155.971605,37.4608456 C156.054612,37.4969118 156.12799,37.5518382 156.191407,37.6249632 C156.254492,37.6984191 156.302967,37.7861029 156.33617,37.8893382 C156.369705,37.9919118 156.386306,38.1100368 156.386306,38.2427206 L156.386306,43.3747059 C156.386306,43.5735662 156.351111,43.7482721 156.281386,43.8975 C156.211328,44.0470588 156.067893,44.1651838 155.851744,44.2512132 C155.634599,44.3375735 155.366654,44.4272426 155.04658,44.5205515 C154.726507,44.6135294 154.395145,44.6929412 154.05183,44.7594485 C153.708183,44.8259559 153.361548,44.8755882 153.011924,44.9090074 C152.661969,44.9420956 152.310021,44.9586397 151.957077,44.9586397 C150.923812,44.9586397 149.998787,44.8107353 149.182335,44.5152574 C148.365882,44.2201103 147.674272,43.7916176 147.107503,43.2297794 C146.540735,42.6686029 146.107773,41.9846691 145.807953,41.1773162 C145.507801,40.3702941 145.357725,39.4550735 145.357725,38.4319853 C145.357725,37.3761397 145.517762,36.4278309 145.837503,35.5873897 C146.157576,34.7472794 146.610792,34.0329044 147.197482,33.4449265 C147.784173,32.8572794 148.492384,32.4069485 149.322118,32.0949265 C150.151851,31.7829044 151.077208,31.6263971 152.09686,31.6263971 C152.656656,31.6263971 153.16698,31.6647794 153.626505,31.7412132 C154.086693,31.8176471 154.488112,31.9102941 154.831427,32.0201471 C155.174742,32.1296691 155.459953,32.2477941 155.686395,32.3738603 C155.912837,32.5002574 156.071545,32.6097794 156.161524,32.7027574 C156.251503,32.7957353 156.31658,32.9267647 156.356424,33.0961765 C156.396267,33.2655882 156.41652,33.5167279 156.41652,33.8486029" id="Fill-27" fill="#FFFFFF"></path>
                            <path d="M172.574573,35.7617647 C172.574573,36.4860662 172.46102,37.1266544 172.234246,37.6851838 C172.007804,38.2427206 171.677438,38.7129044 171.244476,39.0947426 C170.811182,39.4769118 170.27994,39.7670956 169.649754,39.9666176 C169.019901,40.1661397 168.278154,40.2654044 167.425179,40.2654044 L166.345098,40.2654044 L166.345098,44.3809191 C166.345098,44.4474265 166.323516,44.5069853 166.280353,44.5602574 C166.236858,44.6135294 166.16514,44.6565441 166.0652,44.6896324 C165.96526,44.7230515 165.831786,44.7495221 165.665108,44.769375 C165.498431,44.7892279 165.285271,44.7994853 165.025294,44.7994853 C164.771958,44.7994853 164.560458,44.7892279 164.39046,44.769375 C164.220463,44.7495221 164.085328,44.7230515 163.98572,44.6896324 C163.885448,44.6565441 163.815391,44.6135294 163.775548,44.5602574 C163.735705,44.5069853 163.715451,44.4474265 163.715451,44.3809191 L163.715451,32.7825 C163.715451,32.4704779 163.797129,32.2362132 163.960486,32.0800368 C164.123843,31.9235294 164.338664,31.8457721 164.605613,31.8457721 L167.654941,31.8457721 C167.961401,31.8457721 168.253252,31.8573529 168.52983,31.8805147 C168.806408,31.9040074 169.138102,31.9536397 169.52458,32.0304044 C169.911059,32.1065074 170.30285,32.2477941 170.699621,32.4536029 C171.096392,32.6597426 171.434395,32.9201471 171.714625,33.2354779 C171.994523,33.5511397 172.207684,33.9200735 172.354439,34.3419485 C172.500863,34.7638235 172.574573,35.2369853 172.574573,35.7617647 L172.574573,35.7617647 Z M169.8244,35.9510294 C169.8244,35.499375 169.744714,35.1274632 169.584677,34.8349632 C169.424641,34.5427941 169.228081,34.3267279 168.994667,34.1874265 C168.761252,34.0477941 168.516549,33.9601103 168.259893,33.9230515 C168.003237,33.8869853 167.73828,33.868125 167.465022,33.868125 L166.345098,33.868125 L166.345098,38.2427206 L167.525119,38.2427206 C167.9448,38.2427206 168.296416,38.1864706 168.579966,38.0733088 C168.863184,37.9604779 169.094607,37.8026471 169.274565,37.6001471 C169.454855,37.3973162 169.591318,37.1551103 169.684949,36.8728676 C169.777916,36.5902941 169.8244,36.2832353 169.8244,35.9510294 L169.8244,35.9510294 Z" id="Fill-28" fill="#FFFFFF"></path>
                            <path d="M181.722889,43.6433824 C181.722889,43.8425735 181.714588,44.0106618 181.697987,44.1466544 C181.681386,44.2829779 181.656152,44.3958088 181.623281,44.4854779 C181.589746,44.5751471 181.548243,44.64 181.498107,44.6797059 C181.447971,44.7194118 181.389867,44.7395956 181.323129,44.7395956 L175.393807,44.7395956 C175.174005,44.7395956 174.988735,44.6750735 174.838991,44.5450368 C174.688915,44.4156618 174.613877,44.2052206 174.613877,43.9123897 L174.613877,32.2044485 C174.613877,32.1382721 174.635791,32.0780515 174.678954,32.0251103 C174.722118,31.9721691 174.793835,31.9288235 174.893775,31.8954044 C174.994047,31.8623162 175.12885,31.8358456 175.298847,31.8156618 C175.468844,31.7958088 175.680345,31.7858824 175.934013,31.7858824 C176.193658,31.7858824 176.40715,31.7958088 176.573827,31.8156618 C176.740505,31.8358456 176.873647,31.8623162 176.973919,31.8954044 C177.073527,31.9288235 177.145244,31.9721691 177.18874,32.0251103 C177.231903,32.0780515 177.253485,32.1382721 177.253485,32.2044485 L177.253485,42.5772794 L181.323129,42.5772794 C181.389867,42.5772794 181.447971,42.5954779 181.498107,42.6322059 C181.548243,42.6686029 181.589746,42.7284926 181.623281,42.8115441 C181.656152,42.8945956 181.681386,43.0044485 181.697987,43.1401103 C181.714588,43.2764338 181.722889,43.4441912 181.722889,43.6433824" id="Fill-29" fill="#FFFFFF"></path>
                            <path d="M193.871393,43.7631618 C193.951744,44.0020588 194.001548,44.1916544 194.021469,44.3309559 C194.041723,44.4705882 194.014829,44.5751471 193.941451,44.6449632 C193.868073,44.7147794 193.738251,44.7577941 193.551652,44.7743382 C193.365054,44.7908824 193.108397,44.7994853 192.781684,44.7994853 C192.442021,44.7994853 192.176732,44.7945221 191.987145,44.7845956 C191.796894,44.7743382 191.652131,44.7544853 191.551859,44.7247059 C191.451919,44.6945956 191.381861,44.6532353 191.342018,44.5999632 C191.301843,44.5470221 191.268308,44.4772059 191.241746,44.3905147 L190.371838,41.8000368 L185.512635,41.8000368 L184.692863,44.3210294 C184.666301,44.4143382 184.631106,44.4920956 184.58761,44.5552941 C184.544447,44.6184926 184.47439,44.6684559 184.378102,44.7045221 C184.280818,44.74125 184.144356,44.7660662 183.967718,44.7796324 C183.79108,44.7925368 183.559658,44.7994853 183.272787,44.7994853 C182.966327,44.7994853 182.726272,44.7892279 182.552954,44.769375 C182.379637,44.7495221 182.259775,44.7015441 182.193038,44.6251103 C182.126301,44.5490074 182.103059,44.4408088 182.123312,44.3011765 C182.142902,44.161875 182.193038,43.9755882 182.273056,43.7429779 L186.26235,32.304375 C186.302525,32.1912132 186.349009,32.0998897 186.402465,32.0304044 C186.45559,31.9605882 186.540588,31.9073162 186.657461,31.8705882 C186.774003,31.8341912 186.936031,31.8110294 187.142552,31.8007721 C187.349072,31.7908456 187.622329,31.7858824 187.962324,31.7858824 C188.355443,31.7858824 188.668544,31.7908456 188.901958,31.8007721 C189.135705,31.8110294 189.317323,31.8341912 189.447145,31.8705882 C189.577299,31.9073162 189.670267,31.9619118 189.727043,32.0347059 C189.78382,32.1081618 189.831963,32.2080882 189.872139,32.3341544 L193.871393,43.7631618 L193.871393,43.7631618 Z M187.932442,34.3072059 L187.922149,34.3072059 L186.092685,39.7872794 L189.761906,39.7872794 L187.932442,34.3072059 L187.932442,34.3072059 Z" id="Fill-30" fill="#FFFFFF"></path>
                            <path d="M202.690672,32.9218015 C202.690672,33.1147059 202.682039,33.2788235 202.66577,33.4151471 C202.648837,33.5511397 202.623935,33.6606618 202.5904,33.7440441 C202.556865,33.8267647 202.515362,33.8883088 202.465558,33.9283456 C202.415754,33.9680515 202.360638,33.9882353 202.300541,33.9882353 L199.060962,33.9882353 L199.060962,44.3809191 C199.060962,44.4474265 199.03938,44.5069853 198.995885,44.5602574 C198.952722,44.6135294 198.881004,44.6565441 198.780732,44.6896324 C198.681124,44.7230515 198.54599,44.7495221 198.376324,44.769375 C198.205995,44.7892279 197.994162,44.7994853 197.741158,44.7994853 C197.487822,44.7994853 197.27599,44.7892279 197.105992,44.769375 C196.936327,44.7495221 196.801524,44.7230515 196.701252,44.6896324 C196.601312,44.6565441 196.529595,44.6135294 196.486099,44.5602574 C196.442604,44.5069853 196.421354,44.4474265 196.421354,44.3809191 L196.421354,33.9882353 L193.181775,33.9882353 C193.115038,33.9882353 193.058261,33.9680515 193.011446,33.9283456 C192.964962,33.8883088 192.925119,33.8267647 192.891584,33.7440441 C192.85805,33.6606618 192.833148,33.5511397 192.816546,33.4151471 C192.800277,33.2788235 192.791644,33.1147059 192.791644,32.9218015 C192.791644,32.7222794 192.800277,32.5531985 192.816546,32.4135662 C192.833148,32.2742647 192.85805,32.1630882 192.891584,32.0800368 C192.925119,31.9966544 192.964962,31.9370956 193.011446,31.9003676 C193.058261,31.8643015 193.115038,31.8457721 193.181775,31.8457721 L202.300541,31.8457721 C202.360638,31.8457721 202.415754,31.8643015 202.465558,31.9003676 C202.515362,31.9370956 202.556865,31.9966544 202.5904,32.0800368 C202.623935,32.1630882 202.648837,32.2742647 202.66577,32.4135662 C202.682039,32.5531985 202.690672,32.7222794 202.690672,32.9218015" id="Fill-31" fill="#FFFFFF"></path>
                            <path d="M211.479736,32.9218015 C211.479736,33.1213235 211.471103,33.2890809 211.454502,33.4250735 C211.437569,33.5613971 211.411339,33.6692647 211.374484,33.7486765 C211.337961,33.82875 211.296125,33.8883088 211.249642,33.9283456 C211.202494,33.9680515 211.14937,33.9882353 211.089605,33.9882353 L206.859924,33.9882353 L206.859924,37.4555515 L210.829629,37.4555515 C210.889393,37.4555515 210.94285,37.4724265 210.989665,37.5055147 C211.036149,37.5389338 211.077984,37.5951838 211.114507,37.6745956 C211.15103,37.7543382 211.177592,37.8608824 211.194525,37.9938971 C211.211127,38.1265809 211.219427,38.2923529 211.219427,38.491875 C211.219427,38.6913971 211.211127,38.8571691 211.194525,38.9901838 C211.177592,39.1228676 211.15103,39.2327206 211.114507,39.31875 C211.077984,39.4054412 211.036149,39.4666544 210.989665,39.5033824 C210.94285,39.5397794 210.889393,39.5579779 210.829629,39.5579779 L206.859924,39.5579779 L206.859924,44.3607353 C206.859924,44.4338603 206.840003,44.4970588 206.800159,44.5503309 C206.760316,44.6036029 206.688267,44.6482721 206.585007,44.6846691 C206.481746,44.7213971 206.346612,44.7495221 206.180267,44.769375 C206.01359,44.7892279 205.800097,44.7994853 205.540452,44.7994853 C205.286784,44.7994853 205.075284,44.7892279 204.905286,44.769375 C204.735289,44.7495221 204.600486,44.7213971 204.500214,44.6846691 C204.400275,44.6482721 204.328557,44.6036029 204.285393,44.5503309 C204.24223,44.4970588 204.220316,44.4338603 204.220316,44.3607353 L204.220316,32.6726471 C204.220316,32.3804779 204.295354,32.1697059 204.44543,32.04 C204.595174,31.9102941 204.780444,31.8457721 205.000246,31.8457721 L211.089605,31.8457721 C211.14937,31.8457721 211.202494,31.8643015 211.249642,31.9003676 C211.296125,31.9370956 211.337961,31.9966544 211.374484,32.0800368 C211.411339,32.1630882 211.437569,32.2742647 211.454502,32.4135662 C211.471103,32.5531985 211.479736,32.7222794 211.479736,32.9218015" id="Fill-32" fill="#FFFFFF"></path>
                            <path d="M225.107417,38.143125 C225.107417,39.2128676 224.974275,40.1691176 224.707658,41.0128676 C224.441041,41.8566176 224.044269,42.5723162 223.517676,43.1599632 C222.991082,43.7482721 222.339315,44.1966176 221.56337,44.5056618 C220.786429,44.814375 219.888298,44.9688971 218.868314,44.9688971 C217.861942,44.9688971 216.983733,44.8375368 216.233686,44.5751471 C215.483971,44.3130882 214.858766,43.9123897 214.359067,43.3747059 C213.859367,42.8363603 213.484178,42.1524265 213.234162,41.3219118 C212.984146,40.4917279 212.859305,39.5080147 212.859305,38.3724265 C212.859305,37.3294853 212.992447,36.3911029 213.259064,35.5576103 C213.525681,34.7237868 213.922452,34.0147059 214.449046,33.4300368 C214.975639,32.8456985 215.627407,32.3973529 216.404016,32.085 C217.179961,31.7726471 218.081744,31.6168015 219.108369,31.6168015 C220.088178,31.6168015 220.953438,31.7458456 221.703153,32.0052574 C222.452868,32.2643382 223.079401,32.6630515 223.583085,33.2007353 C224.086105,33.7390809 224.466275,34.4183824 224.722599,35.2386397 C224.979255,36.0588971 225.107417,37.0270588 225.107417,38.143125 L225.107417,38.143125 Z M222.347948,38.2827574 C222.347948,37.6047794 222.294824,36.9890074 222.187911,36.4344485 C222.081331,35.8795588 221.899712,35.4047426 221.643056,35.0096691 C221.3864,34.6139338 221.044745,34.3088603 220.618424,34.0924632 C220.19177,33.8770588 219.658204,33.7688603 219.018722,33.7688603 C218.371603,33.7688603 217.831728,33.8902941 217.398766,34.1325 C216.96514,34.3750368 216.615184,34.6989706 216.348899,35.1039706 C216.082282,35.5089706 215.893692,35.9827941 215.783791,36.5241176 C215.67389,37.0651103 215.618774,37.6385294 215.618774,38.2427206 C215.618774,38.9471691 215.671898,39.5798162 215.77881,40.1409926 C215.885391,40.7025 216.065349,41.1822794 216.319017,41.5806618 C216.572021,41.979375 216.912016,42.283125 217.338669,42.4925735 C217.764991,42.7020221 218.301545,42.8065809 218.948664,42.8065809 C219.595119,42.8065809 220.134993,42.6871324 220.568288,42.4479044 C221.00125,42.2086765 221.351537,41.8830882 221.618154,41.4714706 C221.884439,41.0595221 222.07303,40.5797426 222.183263,40.0314706 C222.293163,39.4835294 222.347948,38.9005147 222.347948,38.2827574 L222.347948,38.2827574 Z" id="Fill-33" fill="#FFFFFF"></path>
                            <path d="M236.916259,44.4007721 C236.916259,44.4738971 236.902646,44.5354412 236.876084,44.5850735 C236.849522,44.6347059 236.786105,44.6763971 236.686165,44.7098162 C236.586225,44.7429044 236.439469,44.7660662 236.24623,44.7796324 C236.052659,44.7925368 235.789362,44.7994853 235.456008,44.7994853 C235.176442,44.7994853 234.952988,44.7925368 234.786311,44.7796324 C234.619634,44.7660662 234.48782,44.74125 234.3912,44.7045221 C234.29458,44.6684559 234.226183,44.6218015 234.18634,44.5648897 C234.146497,44.5089706 234.112962,44.4408088 234.0864,44.3607353 L232.926633,41.4810662 C232.786518,41.1558088 232.649723,40.8669485 232.51658,40.6144853 C232.383106,40.3616912 232.235022,40.15125 232.071665,39.9818382 C231.908308,39.8120956 231.719718,39.6847059 231.506889,39.5980147 C231.293396,39.5116544 231.046701,39.4683088 230.766803,39.4683088 L229.94703,39.4683088 L229.94703,44.3809191 C229.94703,44.4474265 229.925116,44.5069853 229.881953,44.5602574 C229.83879,44.6135294 229.767072,44.6565441 229.667132,44.6896324 C229.56686,44.7230515 229.433718,44.7495221 229.267041,44.769375 C229.100363,44.7892279 228.886871,44.7994853 228.627226,44.7994853 C228.373558,44.7994853 228.16239,44.7892279 227.992392,44.769375 C227.822063,44.7495221 227.68726,44.7230515 227.58732,44.6896324 C227.487048,44.6565441 227.417323,44.6135294 227.377148,44.5602574 C227.337305,44.5069853 227.317383,44.4474265 227.317383,44.3809191 L227.317383,32.6726471 C227.317383,32.3804779 227.392089,32.1697059 227.542497,32.04 C227.692241,31.9102941 227.877179,31.8457721 228.09698,31.8457721 L231.446792,31.8457721 C231.786787,31.8457721 232.066685,31.8527206 232.286818,31.865625 C232.50662,31.8791912 232.706499,31.8954044 232.886458,31.9152574 C233.406742,31.9887132 233.874899,32.1151103 234.291592,32.2941176 C234.707953,32.4737868 235.061229,32.7077206 235.35142,32.9965809 C235.641278,33.2857721 235.86274,33.6279044 236.016136,34.0226471 C236.169532,34.4183824 236.24623,34.8716912 236.24623,35.3829044 C236.24623,35.8147059 236.191114,36.2084559 236.081213,36.5638235 C235.971312,36.9191912 235.809616,37.2365074 235.596123,37.5154412 C235.382962,37.794375 235.119665,38.0369118 234.806233,38.2427206 C234.4928,38.4488603 234.136536,38.6149632 233.736444,38.7410294 C233.929684,38.8340074 234.111634,38.9471691 234.281299,39.0795221 C234.451297,39.2128676 234.611333,39.3736765 234.761409,39.5629412 C234.911485,39.7525368 235.052928,39.9682721 235.186403,40.2104779 C235.319545,40.4533456 235.449699,40.7276471 235.576201,41.0327206 L236.666243,43.5735662 C236.766183,43.8263603 236.832588,44.0106618 236.866123,44.1268015 C236.899325,44.2432721 236.916259,44.3342647 236.916259,44.4007721 L236.916259,44.4007721 Z M233.526604,35.6519118 C233.526604,35.2270588 233.429984,34.8683824 233.236745,34.5758824 C233.043174,34.2837132 232.726753,34.0775735 232.286818,33.958125 C232.153344,33.9250368 232.001608,33.8982353 231.83161,33.8787132 C231.661945,33.8585294 231.426871,33.8486029 231.126719,33.8486029 L229.94703,33.8486029 L229.94703,37.5055147 L231.286756,37.5055147 C231.659953,37.5055147 231.986667,37.4608456 232.266565,37.3708456 C232.546795,37.2811765 232.779877,37.1551103 232.966476,36.9923162 C233.153075,36.8295221 233.29319,36.635625 233.386489,36.4093015 C233.479788,36.1836397 233.526604,35.9311765 233.526604,35.6519118 L233.526604,35.6519118 Z" id="Fill-34" fill="#FFFFFF"></path>
                            <path d="M253.923966,44.3809191 C253.923966,44.4474265 253.906037,44.5069853 253.869182,44.5602574 C253.832659,44.6135294 253.765922,44.6565441 253.669302,44.6896324 C253.572682,44.7230515 253.444188,44.7495221 253.284484,44.769375 C253.124115,44.7892279 252.920915,44.7994853 252.674552,44.7994853 C252.434497,44.7994853 252.234617,44.7892279 252.07458,44.769375 C251.914544,44.7495221 251.78771,44.7230515 251.694742,44.6896324 C251.601111,44.6565441 251.534374,44.6135294 251.494531,44.5602574 C251.454688,44.5069853 251.434434,44.4474265 251.434434,44.3809191 L251.434434,33.8883088 L251.414512,33.8883088 L247.664941,44.3709926 C247.638379,44.4570221 247.594884,44.5288235 247.534787,44.5850735 C247.475022,44.6416544 247.393344,44.6866544 247.290084,44.7194118 C247.186492,44.7528309 247.055009,44.7743382 246.895305,44.7845956 C246.734936,44.7945221 246.541697,44.7994853 246.314923,44.7994853 C246.088481,44.7994853 245.895242,44.7908824 245.735205,44.7743382 C245.575169,44.7577941 245.443354,44.7309926 245.340426,44.6945956 C245.236834,44.6581985 245.155156,44.6135294 245.095391,44.5602574 C245.035294,44.5069853 244.995451,44.4441176 244.975197,44.3709926 L241.35578,33.8883088 L241.335527,33.8883088 L241.335527,44.3809191 C241.335527,44.4474265 241.317597,44.5069853 241.280742,44.5602574 C241.24422,44.6135294 241.175822,44.6565441 241.075882,44.6896324 C240.97561,44.7230515 240.847448,44.7495221 240.690732,44.769375 C240.534016,44.7892279 240.332476,44.7994853 240.086112,44.7994853 C239.846058,44.7994853 239.646178,44.7892279 239.486141,44.769375 C239.326105,44.7495221 239.19761,44.7230515 239.100991,44.6896324 C239.004371,44.6565441 238.937634,44.6135294 238.901111,44.5602574 C238.864256,44.5069853 238.845995,44.4474265 238.845995,44.3809191 L238.845995,32.8916912 C238.845995,32.5531985 238.936306,32.2941176 239.116264,32.1151103 C239.296222,31.9354412 239.536277,31.8457721 239.836097,31.8457721 L241.555992,31.8457721 C241.86212,31.8457721 242.125749,31.8705882 242.34555,31.9205515 C242.565684,31.9701838 242.755603,32.0535662 242.915639,32.1697059 C243.075676,32.2858456 243.208818,32.4387132 243.315399,32.6279779 C243.422311,32.8175735 243.51561,33.0515074 243.595629,33.3304412 L246.395273,41.0128676 L246.435116,41.0128676 L249.334701,33.3502941 C249.421359,33.0713603 249.516319,32.8354412 249.619911,32.6428676 C249.722839,32.4502941 249.843365,32.2941176 249.979827,32.1743382 C250.11629,32.0548897 250.277987,31.9701838 250.464586,31.9205515 C250.651184,31.8705882 250.867665,31.8457721 251.114693,31.8457721 L252.884392,31.8457721 C253.06435,31.8457721 253.219075,31.8689338 253.349229,31.9152574 C253.479383,31.9619118 253.585963,32.0304044 253.669302,32.1197426 C253.752641,32.2094118 253.815725,32.3192647 253.859221,32.4483088 C253.902384,32.5783456 253.923966,32.7259191 253.923966,32.8916912 L253.923966,44.3809191" id="Fill-35" fill="#FFFFFF"></path>
                        </g>
                    </g>
                </g>
            </g>
        </g>
    </g>
</svg>