<?xml version="1.0" encoding="UTF-8" standalone="no"?>
<svg width="40px" height="45px" viewBox="0 0 40 45" version="1.1" xmlns="http://www.w3.org/2000/svg" xmlns:xlink="http://www.w3.org/1999/xlink" xmlns:sketch="http://www.bohemiancoding.com/sketch/ns">
    <!-- Generator: Sketch 3.2.2 (9983) - http://www.bohemiancoding.com/sketch -->
    <title>2</title>
    <desc>Created with Sketch.</desc>
    <defs></defs>
    <g id="Page-1" stroke="none" stroke-width="1" fill="none" fill-rule="evenodd" sketch:type="MSPage">
        <g id="Партнёры" sketch:type="MSArtboardGroup" transform="translate(-794.000000, -1719.000000)" fill="#FFFFFF">
            <g id="2_block" sketch:type="MSLayerGroup" transform="translate(469.000000, 142.000000)">
                <g id="5" transform="translate(0.000000, 1476.000000)" sketch:type="MSShapeGroup">
                    <g id="2" transform="translate(325.000000, 101.000000)">
                        <g id="Group" transform="translate(4.075067, 0.000000)">
                            <path d="M16.7292225,0.0642857143 C19.227882,0.0642857143 21.5549598,0.460714286 23.7104558,1.25357143 C25.8659517,2.04642857 27.7319035,3.24642857 29.308311,4.83214286 C30.8847185,6.42857143 32.1179625,8.41071429 32.997319,10.8 C33.8873995,13.1892857 34.3270777,15.9857143 34.3270777,19.2107143 C34.3270777,22.0285714 33.9624665,24.6321429 33.2439678,27.0214286 C32.5147453,29.4107143 31.4209115,31.4678571 29.9624665,33.2035714 C28.4932976,34.9392857 26.6702413,36.3107143 24.4825737,37.2964286 C22.2949062,38.2928571 19.7104558,38.7857143 16.7399464,38.7857143 L0,38.7857143 L0,0.0642857143 L16.7292225,0.0642857143 L16.7292225,0.0642857143 Z M16.1286863,31.6392857 C17.3619303,31.6392857 18.5522788,31.4357143 19.7104558,31.0392857 C20.8686327,30.6428571 21.8981233,29.9785714 22.8096515,29.0571429 C23.7104558,28.1357143 24.4396783,26.9357143 24.9865952,25.4464286 C25.5335121,23.9678571 25.8016086,22.1571429 25.8016086,20.025 C25.8016086,18.075 25.6085791,16.3071429 25.233244,14.7321429 C24.8579088,13.1571429 24.2252011,11.8071429 23.3565684,10.6928571 C22.4879357,9.56785714 21.3404826,8.71071429 19.9034853,8.11071429 C18.4772118,7.51071429 16.7077748,7.21071429 14.6058981,7.21071429 L8.52546917,7.21071429 L8.52546917,31.6285714 L16.1286863,31.6285714 L16.1286863,31.6392857 Z" id="Shape"></path>
                        </g>
                        <g id="Group" transform="translate(0.536193, 9.000000)">
                            <path d="M0.0536193029,32.6785714 C0.321715818,32.6035714 0.868632708,32.5071429 1.69436997,32.3571429 C3.33512064,32.0785714 4.41823056,31.6928571 4.93297587,31.2214286 C5.25469169,30.9214286 5.45844504,30.3428571 5.54423592,29.4964286 C5.56568365,29.2821429 5.61930295,26.5928571 5.72654155,21.4285714 L5.70509383,18.5142857 L5.72654155,14.9892857 L5.65147453,5.96785714 L5.65147453,4.90714286 C5.65147453,4.44642857 5.5227882,4.09285714 5.27613941,3.84642857 C5.14745308,3.71785714 4.80428954,3.66428571 4.24664879,3.66428571 C3.78552279,3.66428571 3.26005362,3.71785714 2.65951743,3.825 C1.8766756,3.85714286 1.17962466,3.93214286 0.568364611,4.03928571 C0.461126005,4.06071429 0.289544236,4.08214286 0.0643431635,4.11428571 L0.0428954424,1.77857143 C1.08310992,1.44642857 2.5844504,1.11428571 4.52546917,0.803571429 C7.74262735,0.278571429 11.6997319,0.0107142857 16.4075067,0.0107142857 C20.3324397,0.0107142857 23.2064343,0.235714286 25.0294906,0.675 C27.7855228,1.36071429 30.0268097,2.38928571 31.7640751,3.75 C34.080429,5.57142857 35.8176944,7.67142857 36.9758713,10.0607143 C38.1340483,12.45 38.7131367,15.0642857 38.7131367,17.8821429 C38.7131367,21.45 37.9302949,24.5035714 36.3753351,27.0535714 C34.8203753,29.6035714 32.5790885,31.65 29.6621984,33.1821429 C27.613941,34.275 24.8257373,34.8214286 21.308311,34.8214286 L15.8713137,34.6071429 L14.2841823,34.5321429 L12.1394102,34.575 L11.5067024,34.5321429 L9.27613941,34.575 L6.33780161,34.5535714 C6.230563,34.5535714 5.32975871,34.6071429 3.63538874,34.725 C3.06702413,34.7571429 2.32707775,34.7785714 1.40482574,34.8 C0.836461126,34.8 0.418230563,34.8107143 0.128686327,34.8214286 C0.0643431635,34.4357143 0.0536193029,33.7285714 0.0536193029,32.6785714 L0.0536193029,32.6785714 Z M12.9115282,3.20357143 C12.8793566,3.75 12.8579088,4.13571429 12.8579088,4.37142857 L12.9115282,8.87142857 L12.9115282,12.7928571 C12.9436997,14.0678571 12.9651475,15.1714286 12.9651475,16.125 L12.9115282,18.6428571 L12.9865952,22.8535714 L12.9115282,25.4464286 C12.9115282,27.8678571 13.3619303,29.5071429 14.2627346,30.3642857 C15.5710456,31.5964286 17.3726542,32.2178571 19.6675603,32.2178571 C21.4155496,32.2178571 22.7131367,32.0464286 23.538874,31.7142857 C25.2761394,31.05 26.6487936,30.15 27.6675603,29.0464286 C28.6863271,27.9321429 29.458445,26.3571429 29.9839142,24.3214286 C30.5093834,22.2857143 30.7774799,20.1857143 30.7774799,18.0107143 C30.7774799,14.4535714 30.2091153,11.5392857 29.0723861,9.27857143 C27.9356568,7.01785714 26.3699732,5.325 24.3967828,4.18928571 C22.4128686,3.05357143 20.150134,2.48571429 17.5871314,2.48571429 C15.7747989,2.48571429 14.2198391,2.72142857 12.9115282,3.20357143 L12.9115282,3.20357143 Z" id="Shape"></path>
                        </g>
                        <g id="Group" transform="translate(0.000000, 5.142857)">
                            <path d="M0.0536193029,0.942857143 L0.0536193029,0.182142857 L5.05093834,0.182142857 C6.89544236,0.182142857 8.73994638,0.15 10.5951743,0.0964285714 C12.4396783,0.0428571429 14.2841823,0.0107142857 16.1394102,0.0107142857 C17.769437,0.0107142857 19.4852547,0.117857143 21.2975871,0.332142857 C23.1099196,0.546428571 24.9008043,0.942857143 26.6702413,1.5 C28.4396783,2.05714286 30.1233244,2.80714286 31.7211796,3.75 C33.308311,4.69285714 34.7238606,5.88214286 35.9571046,7.32857143 C37.1903485,8.775 38.1662198,10.4892857 38.8847185,12.4821429 C39.6032172,14.475 39.9678284,16.8 39.9678284,19.4785714 C39.9678284,22.1142857 39.6032172,24.4392857 38.8847185,26.4214286 C38.155496,28.4142857 37.1903485,30.1285714 35.9785523,31.575 C34.766756,33.0214286 33.383378,34.2107143 31.8284182,35.1535714 C30.2734584,36.0964286 28.6541555,36.8464286 26.9705094,37.4035714 C25.2868633,37.9607143 23.6246649,38.3571429 21.9731903,38.5714286 C20.3217158,38.7857143 18.7989276,38.8928571 17.383378,38.8928571 C15.3243968,38.8928571 13.2654155,38.8714286 11.2171582,38.8392857 C9.1689008,38.8071429 7.12064343,38.7857143 5.05093834,38.7857143 L0.0536193029,38.7857143 L0.0536193029,38.025 L5.05093834,38.025 L5.05093834,0.942857143 L0.0536193029,0.942857143 L0.0536193029,0.942857143 Z M15.8069705,38.2178571 C18.155496,38.2178571 20.1715818,37.9392857 21.8337802,37.3714286 C23.4959786,36.8142857 24.9008043,36.0535714 26.0375335,35.0892857 C27.1742627,34.1357143 28.0857909,33.0321429 28.7506702,31.8107143 C29.4155496,30.5785714 29.9302949,29.2928571 30.2734584,27.9321429 C30.616622,26.5714286 30.8418231,25.2214286 30.9490617,23.8607143 C31.0563003,22.5 31.1099196,21.225 31.1099196,20.0357143 C31.1099196,17.1107143 30.9276139,14.4535714 30.5630027,12.0857143 C30.1983914,9.71785714 29.4906166,7.69285714 28.4182306,6.01071429 C27.3458445,4.32857143 25.844504,3.03214286 23.9142091,2.13214286 C21.9731903,1.23214286 19.4316354,0.771428571 16.2788204,0.771428571 C15.5495979,0.771428571 14.9061662,0.782142857 14.3270777,0.803571429 C13.7479893,0.825 13.2761394,0.867857143 12.9115282,0.942857143 L12.9115282,38.0571429 C13.9731903,38.1642857 14.9383378,38.2178571 15.8069705,38.2178571 L15.8069705,38.2178571 Z" id="Shape"></path>
                        </g>
                        <g id="Group" transform="translate(5.040214, 6.214286)">
                            <path d="M14.2091153,0.0428571429 C26.3163539,0.0428571429 32.7828418,9.21428571 32.8364611,18.8678571 C32.9436997,28.575 26.4879357,37.9607143 14.2091153,37.9607143 L0.0965147453,37.9607143 L0.0965147453,0.0321428571 L14.2091153,0.0321428571 L14.2091153,0.0428571429 Z M14.1018767,30.6428571 C21.1045576,30.6428571 24.7506702,24.9964286 24.7506702,18.9214286 C24.7506702,12.8464286 21.0080429,7.36071429 14.1018767,7.36071429 L8.18230563,7.36071429 L8.18230563,30.6428571 L14.1018767,30.6428571 L14.1018767,30.6428571 Z" id="Shape"></path>
                        </g>
                        <g id="Group" transform="translate(5.040214, 6.214286)">
                            <path d="M14.2091153,0.0428571429 C26.3163539,0.0428571429 32.7828418,9.21428571 32.8364611,18.8678571 C32.9436997,28.575 26.4879357,37.9607143 14.2091153,37.9607143 L0.0965147453,37.9607143 L0.0965147453,0.0321428571 L14.2091153,0.0321428571 L14.2091153,0.0428571429 Z M14.1018767,30.6428571 C21.1045576,30.6428571 24.7506702,24.9964286 24.7506702,18.9214286 C24.7506702,12.8464286 21.0080429,7.36071429 14.1018767,7.36071429 L8.18230563,7.36071429 L8.18230563,30.6428571 L14.1018767,30.6428571 L14.1018767,30.6428571 Z" id="Shape"></path>
                        </g>
                        <g id="Group" transform="translate(3.753351, 0.750000)">
                            <path d="M0.0750670241,39.2892857 L0.0750670241,0.075 L16.9651475,0.075 C23.0455764,0.075 27.6997319,1.68214286 30.9383378,4.90714286 C34.1769437,8.13214286 35.7855228,12.7821429 35.7855228,18.8571429 C35.7855228,25.3178571 34.0697051,30.3428571 30.6380697,33.9214286 C27.2064343,37.5 22.4128686,39.2892857 16.2359249,39.2892857 L0.0750670241,39.2892857 L0.0750670241,39.2892857 Z M8.23592493,33.7178571 L14.3378016,33.7178571 C18.6380697,33.7178571 21.8337802,32.5285714 23.9463807,30.15 C26.0589812,27.7714286 27.1099196,24.1714286 27.1099196,19.3285714 C27.1099196,15.5892857 26.2627346,12.4714286 24.5683646,9.975 C23.3994638,8.26071429 21.9946381,7.08214286 20.3538874,6.42857143 C18.7131367,5.775 16.310992,5.44285714 13.1689008,5.44285714 L8.23592493,5.44285714 L8.23592493,33.7178571 L8.23592493,33.7178571 Z" id="Shape"></path>
                        </g>
                        <g id="Group" transform="translate(5.040214, 7.607143)">
                            <path d="M0.0965147453,0.846428571 C3.14209115,0.353571429 7.09919571,0.0857142857 11.2815013,0.0857142857 C18.230563,0.0857142857 22.7345845,1.32857143 26.2734584,3.99642857 C30.0697051,6.81428571 32.461126,11.325 32.461126,17.775 C32.461126,24.7714286 29.9088472,29.6035714 26.3806971,32.5821429 C22.5201072,35.7857143 16.6648794,37.3071429 9.49061662,37.3071429 C5.20107239,37.3071429 2.15549598,37.0392857 0.0965147453,36.7607143 L0.0965147453,0.846428571 L0.0965147453,0.846428571 Z M8.4075067,30.6857143 C9.1152815,30.8464286 10.2520107,30.8464286 11.2815013,30.8464286 C18.7774799,30.9 23.6675603,26.775 23.6675603,18.0428571 C23.7211796,10.4464286 19.2707775,6.42857143 12.150134,6.42857143 C10.30563,6.42857143 9.10455764,6.58928571 8.4075067,6.75 L8.4075067,30.6857143 L8.4075067,30.6857143 Z" id="Shape"></path>
                        </g>
                        <g id="Group" transform="translate(6.434316, 5.678571)">
                            <path d="M0.0536193029,0.6 C0.815013405,0.492857143 1.67292225,0.396428571 2.63806971,0.332142857 C3.5924933,0.257142857 4.57908847,0.203571429 5.59785523,0.171428571 C6.60589812,0.139285714 7.5924933,0.107142857 8.55764075,0.0857142857 C9.51206434,0.0642857143 10.3806971,0.0535714286 11.1420912,0.0535714286 C14.5093834,0.0535714286 17.383378,0.525 19.7747989,1.46785714 C22.1662198,2.41071429 24.0965147,3.72857143 25.5871314,5.43214286 C27.0670241,7.13571429 28.1608579,9.16071429 28.847185,11.5071429 C29.5335121,13.8535714 29.8766756,16.4464286 29.8766756,19.2642857 C29.8766756,21.8357143 29.5549598,24.3107143 28.9008043,26.7 C28.2466488,29.0892857 27.1635389,31.2 25.6407507,33.0535714 C24.1179625,34.8964286 22.1233244,36.3857143 19.6353887,37.5 C17.1581769,38.625 14.0911528,39.1821429 10.4343164,39.1821429 C9.85522788,39.1821429 9.08310992,39.1607143 8.12868633,39.1285714 C7.17426273,39.0964286 6.1769437,39.0428571 5.13672922,38.9892857 C4.10723861,38.9357143 3.12064343,38.8821429 2.1769437,38.8285714 C1.23324397,38.775 0.525469169,38.7107143 0.0643431635,38.6357143 L0.0643431635,0.6 L0.0536193029,0.6 Z M11.7319035,6.675 C10.9383378,6.675 10.1340483,6.69642857 9.31903485,6.72857143 C8.50402145,6.76071429 7.89276139,6.81428571 7.49597855,6.88928571 L7.49597855,32.3357143 C7.63538874,32.3678571 7.88203753,32.4 8.22520107,32.4214286 C8.56836461,32.4428571 8.94369973,32.4535714 9.34048257,32.475 C9.73726542,32.4964286 10.1233244,32.5071429 10.4772118,32.5285714 C10.8418231,32.55 11.1099196,32.5607143 11.2922252,32.5607143 C13.3941019,32.5607143 15.1420912,32.1857143 16.536193,31.4464286 C17.9302949,30.7071429 19.0348525,29.7214286 19.849866,28.4892857 C20.6648794,27.2571429 21.233244,25.8428571 21.5656836,24.225 C21.8873995,22.6178571 22.0589812,20.9571429 22.0589812,19.2642857 C22.0589812,17.7857143 21.9088472,16.2857143 21.6193029,14.7857143 C21.3297587,13.2857143 20.7935657,11.9357143 20.0214477,10.7464286 C19.2386059,9.55714286 18.1876676,8.57142857 16.847185,7.82142857 C15.4959786,7.06071429 13.8016086,6.675 11.7319035,6.675 L11.7319035,6.675 Z" id="Shape"></path>
                        </g>
                        <g id="Group" transform="translate(1.501340, 5.785714)">
                            <path d="M0.0536193029,38.475 L0.0536193029,36.4178571 C0.664879357,36.0535714 1.36193029,35.7428571 2.11260054,35.4642857 C2.87399464,35.1964286 3.66756032,34.9821429 4.50402145,34.8428571 L4.50402145,4.125 C3.66756032,3.94285714 2.86327078,3.71785714 2.09115282,3.45 C1.30831099,3.18214286 0.632707775,2.88214286 0.0536193029,2.55 L0.0536193029,0.492857143 L6.34852547,0.492857143 C6.95978552,0.492857143 7.72117962,0.471428571 8.63270777,0.439285714 C9.53351206,0.407142857 10.4772118,0.353571429 11.4530831,0.3 C12.4289544,0.246428571 13.383378,0.192857143 14.30563,0.139285714 C15.227882,0.0857142857 16.0214477,0.0535714286 16.6648794,0.0535714286 C19.8176944,0.0535714286 22.6273458,0.471428571 25.1045576,1.29642857 C27.5817694,2.13214286 29.6836461,3.34285714 31.3994638,4.92857143 C33.1152815,6.525 34.4450402,8.49642857 35.3672922,10.8428571 C36.2895442,13.2 36.7506702,15.9107143 36.7506702,18.9857143 C36.7506702,21.9857143 36.3217158,24.7178571 35.4423592,27.1821429 C34.5737265,29.6464286 33.2654155,31.7357143 31.5281501,33.4714286 C29.7908847,35.2071429 27.5924933,36.5571429 24.9329759,37.5107143 C22.2734584,38.4642857 19.152815,38.9464286 15.5603217,38.9464286 C15.0884718,38.9464286 14.4557641,38.9142857 13.6621984,38.8607143 C12.8686327,38.8071429 12.0107239,38.7535714 11.1099196,38.7 C10.2091153,38.6464286 9.29758713,38.5928571 8.39678284,38.5392857 C7.49597855,38.4857143 6.69168901,38.4535714 6.00536193,38.4535714 L0.0536193029,38.4535714 L0.0536193029,38.475 Z M15.9571046,3.58928571 C15.3029491,3.58928571 14.6487936,3.61071429 14.0053619,3.64285714 C13.3512064,3.675 12.7935657,3.72857143 12.3217158,3.80357143 L12.3217158,35.2178571 C12.461126,35.25 12.7184987,35.2821429 13.0831099,35.3035714 C13.4477212,35.325 13.8123324,35.3357143 14.1983914,35.3571429 C14.5737265,35.3785714 14.9490617,35.3892857 15.3136729,35.4107143 C15.6782842,35.4321429 15.9463807,35.4428571 16.1286863,35.4428571 C18.230563,35.4428571 20.0107239,35.0142857 21.4798928,34.1357143 C22.9490617,33.2678571 24.150134,32.0892857 25.0938338,30.6107143 C26.0375335,29.1321429 26.7238606,27.3964286 27.152815,25.4035714 C27.5924933,23.4107143 27.8069705,21.3 27.8069705,19.0607143 C27.8069705,17.0678571 27.5817694,15.15 27.1313673,13.3071429 C26.6809651,11.4642857 25.9839142,9.81428571 25.0402145,8.36785714 C24.0965147,6.92142857 22.8739946,5.76428571 21.3726542,4.89642857 C19.8605898,4.01785714 18.0589812,3.58928571 15.9571046,3.58928571 L15.9571046,3.58928571 Z" id="Shape"></path>
                        </g>
                        <g id="Group" transform="translate(4.182306, 6.750000)">
                            <path d="M0.0857908847,0.0321428571 L14.4772118,0.0321428571 C26.3163539,0.0321428571 34.8954424,8.00357143 34.8954424,19.0714286 C34.8954424,29.9785714 26.155496,38.1642857 14.4772118,38.1642857 L0.0857908847,38.1642857 L0.0857908847,0.0321428571 L0.0857908847,0.0321428571 Z M6.87399464,6.21428571 L6.87399464,31.9821429 L14.5308311,31.9821429 C21.919571,31.9821429 27.6675603,26.6142857 27.6675603,19.1785714 C27.6675603,11.6892857 22.1876676,6.21428571 14.5308311,6.21428571 L6.87399464,6.21428571 L6.87399464,6.21428571 Z" id="Shape"></path>
                        </g>
                        <g id="Group" transform="translate(1.501340, 3.535714)">
                            <path d="M0.0857908847,35.3785714 C1.44772118,35.2928571 2.42359249,35.1 3.02412869,34.8 C4.08579088,34.2535714 4.61126005,33.2571429 4.61126005,31.8107143 L4.61126005,5.04642857 C4.61126005,3.65357143 4.10723861,2.67857143 3.09919571,2.13214286 C2.52010724,1.81071429 1.51206434,1.59642857 0.0750670241,1.46785714 L0.0750670241,0.0857142857 L16.6756032,0.0857142857 C23.3780161,0.0857142857 28.4825737,1.86428571 32,5.43214286 C35.1957105,8.67857143 36.8042895,13.0392857 36.8042895,18.5142857 C36.8042895,23.4214286 35.1957105,27.5892857 31.9785523,30.9964286 C28.3538874,34.8321429 23.4423592,36.75 17.233244,36.75 L0.0750670241,36.75 L0.0750670241,35.3785714 L0.0857908847,35.3785714 Z M14.0160858,34.1892857 C14.3806971,34.6821429 15.152815,34.9285714 16.3324397,34.9285714 C19.5495979,34.9285714 22.1876676,33.7928571 24.2573727,31.5214286 C26.3270777,29.25 27.3565684,24.8892857 27.3565684,18.45 C27.3565684,14.6142857 26.7989276,11.325 25.6836461,8.57142857 C23.8820375,4.13571429 20.8364611,1.91785714 16.5576408,1.91785714 C15.1420912,1.91785714 14.2198391,2.21785714 13.8016086,2.81785714 C13.5227882,3.20357143 13.3726542,3.95357143 13.3726542,5.06785714 L13.3726542,31.7678571 C13.4477212,32.8928571 13.6514745,33.6964286 14.0160858,34.1892857 L14.0160858,34.1892857 Z" id="Shape"></path>
                        </g>
                    </g>
                </g>
            </g>
        </g>
    </g>
</svg>