<?xml version="1.0" encoding="UTF-8" standalone="no"?>
<svg width="45px" height="45px" viewBox="0 0 45 45" version="1.1" xmlns="http://www.w3.org/2000/svg" xmlns:xlink="http://www.w3.org/1999/xlink" xmlns:sketch="http://www.bohemiancoding.com/sketch/ns">
    <!-- Generator: Sketch 3.2.2 (9983) - http://www.bohemiancoding.com/sketch -->
    <title>1</title>
    <desc>Created with Sketch.</desc>
    <defs></defs>
    <g id="Page-1" stroke="none" stroke-width="1" fill="none" fill-rule="evenodd" sketch:type="MSPage">
        <g id="Партнёры" sketch:type="MSArtboardGroup" transform="translate(-720.000000, -1719.000000)">
            <g id="2_block" sketch:type="MSLayerGroup" transform="translate(469.000000, 142.000000)">
                <g id="5" transform="translate(0.000000, 1476.000000)" sketch:type="MSShapeGroup">
                    <g id="1" transform="translate(251.000000, 101.000000)">
                        <path d="M7.10542736e-15,0.193695652 L7.10542736e-15,44.9419565 L44.9657039,44.9419565 L44.9657039,0.193695652 L7.10542736e-15,0.193695652 L7.10542736e-15,0.193695652 Z" id="Shape" fill="#D71920"></path>
                        <path d="M23.9421845,36.453913 L25.0826942,36.453913 L25.0826942,33.0886957 C25.0826942,32.8932609 25.1089078,32.7106522 25.1349029,32.553913 C25.2924029,31.6930435 25.8688835,31.0802174 26.6815049,31.0802174 C26.8390049,31.0802174 26.956966,31.0932609 27.0749272,31.1193478 L27.0749272,30.0367391 C26.9700728,30.0108696 26.8783252,29.9976087 26.7472573,29.9976087 C25.9739563,29.9976087 25.2790777,30.5323913 24.9909466,31.3802174 L24.9385194,31.3802174 L24.8989806,30.141087 L23.8899757,30.141087 C23.9292961,30.7280435 23.9421845,31.3671739 23.9421845,32.1106522 L23.9421845,36.453913 L23.9421845,36.453913 L23.9421845,36.453913 Z M33.2860194,30.1408696 L32.1326214,30.1408696 L32.1326214,34.0147826 C32.1326214,34.2234783 32.093301,34.4321739 32.0279854,34.6015217 C31.8182767,35.1104348 31.2808981,35.6452174 30.5075971,35.6452174 C29.458835,35.6452174 29.0920631,34.8363043 29.0920631,33.6365217 L29.0920631,30.1408696 L27.938665,30.1408696 L27.938665,33.8319565 C27.938665,36.0493478 29.1313835,36.5973913 30.1277184,36.5973913 C31.2549029,36.5973913 31.9233495,35.9319565 32.2248058,35.4234783 L32.2510194,35.4234783 L32.3165534,36.453913 L33.3391019,36.453913 C33.2995631,35.9582609 33.2866748,35.3843478 33.2866748,34.7321739 L33.2866748,30.1408696 L33.2860194,30.1408696 L33.2860194,30.1408696 Z" id="Shape" fill="#FFFFFF"></path>
                        <path d="M15.3026214,20.5682609 L14.1492233,20.5682609 L14.1492233,24.4421739 C14.1492233,24.6508696 14.1099029,24.8595652 14.0443689,25.0291304 C13.8346602,25.5378261 13.2972816,26.0726087 12.5239806,26.0726087 C11.4754369,26.0726087 11.1084466,25.263913 11.1084466,24.063913 L11.1084466,20.5682609 L9.95504854,20.5682609 L9.95504854,24.2595652 C9.95504854,26.4767391 11.147767,27.0247826 12.1438835,27.0247826 C13.271068,27.0247826 13.9395146,26.3595652 14.2409709,25.8508696 L14.2671845,25.8508696 L14.3327184,26.8813043 L15.3550485,26.8813043 C15.3157282,26.3856522 15.3026214,25.8117391 15.3026214,25.1595652 L15.3026214,20.5682609 L15.3026214,20.5682609 L15.3026214,20.5682609 Z M16.8948786,26.8813043 L18.0482767,26.8813043 L18.0482767,23.0856522 C18.0482767,22.89 18.0744903,22.6943478 18.1269175,22.5508696 C18.3235194,21.9117391 18.9133252,21.3769565 19.6735194,21.3769565 C20.7613835,21.3769565 21.1414806,22.2247826 21.1414806,23.2421739 L21.1414806,26.8813043 L22.2948786,26.8813043 L22.2948786,23.1117391 C22.2948786,20.9465217 20.9317718,20.4247826 20.0536165,20.4247826 C19.0050728,20.4247826 18.2710922,21.0117391 17.9565291,21.6117391 L17.9303155,21.6117391 L17.8647816,20.5682609 L16.8424515,20.5682609 C16.8817718,21.09 16.8948786,21.6247826 16.8948786,22.2769565 L16.8948786,26.8813043 L16.8948786,26.8813043 L16.8948786,26.8813043 Z M24.9870146,26.8813043 L24.9870146,20.5682609 L23.8336165,20.5682609 L23.8336165,26.8813043 L24.9870146,26.8813043 L24.9870146,26.8813043 Z M24.4103155,18.0769565 C23.9908981,18.0769565 23.6894417,18.39 23.6894417,18.7943478 C23.6894417,19.1856522 23.9775728,19.4986957 24.3841019,19.4986957 C24.8428398,19.4986957 25.1311893,19.1856522 25.1180825,18.7943478 C25.1180825,18.39 24.8428398,18.0769565 24.4103155,18.0769565 L24.4103155,18.0769565 L24.4103155,18.0769565 Z M29.3094175,20.425 C27.5531068,20.425 26.1637864,21.6641304 26.1637864,23.7769565 C26.1637864,25.7728261 27.4877913,27.0247826 29.2047816,27.0247826 C30.7382767,27.0247826 32.3635194,26.0073913 32.3635194,23.6726087 C32.363301,21.7421739 31.1312621,20.425 29.3094175,20.425 L29.3094175,20.425 L29.3094175,20.425 Z M29.2832039,21.2858696 C30.6463107,21.2858696 31.1836893,22.6423913 31.1836893,23.7119565 C31.1836893,25.1336957 30.3579612,26.1641304 29.2569903,26.1641304 C28.1298058,26.1641304 27.3305097,25.1206522 27.3305097,23.7380435 C27.3302913,22.5378261 27.9200971,21.2858696 29.2832039,21.2858696 L29.2832039,21.2858696 L29.2832039,21.2858696 Z M33.5560194,26.8813043 L34.709199,26.8813043 L34.709199,23.0856522 C34.709199,22.89 34.7354126,22.6943478 34.7878398,22.5508696 C34.9844417,21.9117391 35.5742476,21.3769565 36.3344417,21.3769565 C37.4220874,21.3769565 37.8024029,22.2247826 37.8024029,23.2421739 L37.8024029,26.8813043 L38.955801,26.8813043 L38.955801,23.1117391 C38.955801,20.9465217 37.5926942,20.4247826 36.7145388,20.4247826 C35.6657767,20.4247826 34.9320146,21.0117391 34.617233,21.6117391 L34.5910194,21.6117391 L34.5254854,20.5682609 L33.5031553,20.5682609 C33.5424757,21.09 33.5555825,21.6247826 33.5555825,22.2769565 L33.5555825,26.8813043 L33.5560194,26.8813043 L33.5560194,26.8813043 Z" id="Shape" fill="#FFFFFF"></path>
                        <path d="M9.94063107,8.05521739 L9.94063107,11.8247826 L9.91441748,11.8247826 C9.62606796,11.316087 8.97072816,10.8595652 8.00082524,10.8595652 C6.4542233,10.8595652 5.14354369,12.1508696 5.15665049,14.2508696 C5.15665049,16.1682609 6.33626214,17.4595652 7.86975728,17.4595652 C8.90519417,17.4595652 9.67849515,16.9247826 10.0323786,16.2204348 L10.0585922,16.2204348 L10.1110194,17.316087 L11.1464563,17.316087 C11.1071359,16.8856522 11.0940291,16.2465217 11.0940291,15.6856522 L11.0940291,8.05521739 L9.94063107,8.05521739 L9.94063107,8.05521739 Z M9.94063107,14.6684783 C9.94063107,14.851087 9.92752427,15.0076087 9.88820388,15.1641304 C9.67849515,16.025 8.97072816,16.5336957 8.19742718,16.5336957 C6.95228155,16.5336957 6.32315534,15.4771739 6.32315534,14.198913 C6.32315534,12.8032609 7.03092233,11.7597826 8.22364078,11.7597826 C9.08868932,11.7597826 9.71781553,12.3597826 9.88820388,13.0902174 C9.92752427,13.2336957 9.94063107,13.4293478 9.94063107,13.5728261 L9.94063107,14.6684783 L9.94063107,14.6684783 L9.94063107,14.6684783 Z M17.8440291,14.3682609 C17.8571359,14.2508696 17.8833495,14.0682609 17.8833495,13.8334783 C17.8833495,12.6726087 17.3328641,10.8595652 15.2619903,10.8595652 C13.413932,10.8595652 12.2867476,12.3595652 12.2867476,14.263913 C12.2867476,16.1682609 13.4532524,17.4465217 15.406165,17.4465217 C16.4153883,17.4465217 17.1100485,17.2378261 17.5163592,17.0552174 L17.3197573,16.2334783 C16.887233,16.416087 16.3891748,16.5595652 15.5634466,16.5595652 C14.4100485,16.5595652 13.413932,15.9204348 13.3877184,14.3682609 L17.8440291,14.3682609 L17.8440291,14.3682609 L17.8440291,14.3682609 Z M13.4008252,13.5465217 C13.4925728,12.7508696 14.0037379,11.6813043 15.1702427,11.6813043 C16.4678155,11.6813043 16.7823786,12.816087 16.7692718,13.5465217 L13.4008252,13.5465217 L13.4008252,13.5465217 Z M18.5515777,17.016087 C18.9972087,17.2769565 19.6394417,17.4465217 20.3341019,17.4465217 C21.8413835,17.4465217 22.706432,16.663913 22.706432,15.5552174 C22.706432,14.616087 22.1426214,14.0682609 21.0416505,13.6508696 C20.2159223,13.3378261 19.8358252,13.1030435 19.8358252,12.5813043 C19.8358252,12.1117391 20.2159223,11.7204348 20.8974757,11.7204348 C21.4872816,11.7204348 21.9460194,11.9291304 22.1950485,12.0856522 L22.4833981,11.2508696 C22.1295146,11.0421739 21.5659223,10.8595652 20.9236893,10.8595652 C19.5605825,10.8595652 18.7348544,11.6943478 18.7348544,12.7117391 C18.7348544,13.4682609 19.272233,14.0943478 20.4125243,14.4986957 C21.264466,14.8117391 21.5921359,15.1117391 21.5921359,15.6595652 C21.5921359,16.1813043 21.198932,16.5986957 20.3600971,16.5986957 C19.7833981,16.5986957 19.1804854,16.363913 18.8397087,16.1421739 L18.5515777,17.016087 L18.5515777,17.016087 Z M24.9699757,17.316087 L24.9699757,11.0030435 L23.8167961,11.0030435 L23.8167961,17.316087 L24.9699757,17.316087 L24.9699757,17.316087 Z M24.3932767,8.51173913 C23.9738592,8.51173913 23.6724029,8.82478261 23.6724029,9.22913043 C23.6724029,9.62043478 23.960534,9.93347826 24.3670631,9.93347826 C24.825801,9.93347826 25.1141505,9.62043478 25.1010437,9.22913043 C25.1010437,8.82478261 24.8255825,8.51173913 24.3932767,8.51173913 L24.3932767,8.51173913 L24.3932767,8.51173913 Z M31.0344903,11.0030435 L30.9820631,11.9552174 L30.9558495,11.9552174 C30.6806068,11.4334783 30.0774757,10.8595652 28.9765049,10.8595652 C27.5218689,10.8595652 26.1194417,12.0726087 26.1194417,14.2117391 C26.1194417,15.9595652 27.2464078,17.29 28.8192233,17.29 C29.802233,17.29 30.4837864,16.8204348 30.8376699,16.2334783 L30.8638835,16.2334783 L30.8638835,16.9378261 C30.8638835,18.5291304 29.998835,19.1421739 28.8192233,19.1421739 C28.0328155,19.1421739 27.3774757,18.9073913 26.9580583,18.6465217 L26.6697087,19.5204348 C27.1808738,19.8595652 28.0197087,20.0421739 28.7799029,20.0421739 C29.5794175,20.0421739 30.4706796,19.8595652 31.086699,19.2856522 C31.7027184,18.7378261 31.9912864,17.8508696 31.9912864,16.4030435 L31.9912864,12.7378261 C31.9912864,11.9682609 32.0175,11.4595652 32.0434951,11.0030435 L31.0344903,11.0030435 L31.0344903,11.0030435 L31.0344903,11.0030435 Z M30.8509951,14.6291304 C30.8509951,14.8247826 30.825,15.0465217 30.7592476,15.2421739 C30.5102184,15.9726087 29.8679854,16.416087 29.1604369,16.416087 C27.9152913,16.416087 27.286165,15.3856522 27.286165,14.1465217 C27.286165,12.6856522 28.0725728,11.7595652 29.1735437,11.7595652 C30.0123786,11.7595652 30.5759709,12.3073913 30.7856796,12.9726087 C30.8381068,13.1291304 30.8512136,13.2986957 30.8512136,13.4943478 L30.8512136,14.6291304 L30.8509951,14.6291304 L30.8509951,14.6291304 Z M33.5835437,17.316087 L34.7367233,17.316087 L34.7367233,13.5204348 C34.7367233,13.3247826 34.7629369,13.1291304 34.8153641,12.9856522 C35.011966,12.3465217 35.6017718,11.8117391 36.361966,11.8117391 C37.4496117,11.8117391 37.8299272,12.6595652 37.8299272,13.6769565 L37.8299272,17.316087 L38.9833252,17.316087 L38.9833252,13.5465217 C38.9833252,11.3813043 37.6202184,10.8595652 36.7420631,10.8595652 C35.693301,10.8595652 34.9595388,11.4465217 34.6447573,12.0465217 L34.6185437,12.0465217 L34.5530097,11.0030435 L33.5306796,11.0030435 C33.57,11.5247826 33.5831068,12.0595652 33.5831068,12.7117391 L33.5831068,17.316087 L33.5835437,17.316087 L33.5835437,17.316087 Z" id="Shape" fill="#FFFFFF"></path>
                        <path d="M24.3089563,27.5791304 C23.8895388,27.5791304 23.5878641,27.8921739 23.5878641,28.2965217 C23.5878641,28.6880435 23.8762136,29.0008696 24.2827427,29.0008696 C24.7414806,29.0008696 25.0298301,28.6880435 25.0165049,28.2965217 C25.0167233,27.8923913 24.7414806,27.5791304 24.3089563,27.5791304 L24.3089563,27.5791304 L24.3089563,27.5791304 Z" id="Shape" fill="#FFFFFF"></path>
                    </g>
                </g>
            </g>
        </g>
    </g>
</svg>