<?xml version="1.0" encoding="UTF-8" standalone="no"?>
<svg width="215px" height="45px" viewBox="0 0 215 45" version="1.1" xmlns="http://www.w3.org/2000/svg" xmlns:xlink="http://www.w3.org/1999/xlink" xmlns:sketch="http://www.bohemiancoding.com/sketch/ns">
    <!-- Generator: Sketch 3.2.2 (9983) - http://www.bohemiancoding.com/sketch -->
    <title>11</title>
    <desc>Created with Sketch.</desc>
    <defs></defs>
    <g id="Page-1" stroke="none" stroke-width="1" fill="none" fill-rule="evenodd" sketch:type="MSPage">
        <g id="Партнёры" sketch:type="MSArtboardGroup" transform="translate(-693.000000, -1802.000000)">
            <g id="2_block" sketch:type="MSLayerGroup" transform="translate(469.000000, 142.000000)">
                <g id="5" transform="translate(0.000000, 1476.000000)" sketch:type="MSShapeGroup">
                    <g id="11" transform="translate(224.000000, 184.000000)">
                        <path d="M33.6209339,33.5817123 L33.6209339,11.5582192 C33.633908,10.7771918 33.5585345,9.99616438 33.385546,9.22746575 C33.0543966,7.74554795 32.3080747,6.86219178 31.3838218,5.74212329 C30.9612356,5.24650685 30.5015805,4.72561644 29.9918822,4.16773973 C29.4698276,3.62157534 28.9601293,3.1130137 28.4510489,2.63034247 C27.2685489,1.53616438 26.2497701,0.917876712 24.6607471,0.509794521 C23.7785057,0.286027397 22.9456897,0.174452055 22.1369684,0.174452055 L0.438031609,0.174452055 L0.438031609,44.8169178 L22.1369684,44.8169178 C23.0080891,44.8039726 23.865,44.6430822 24.6978161,44.3576712 C26.4876293,43.7449315 27.4236207,43.1919863 28.8365661,41.94 C29.5606466,41.2982877 30.2408621,40.625137 30.9000718,39.9310274 C32.1690661,38.5933562 32.9450431,37.6834932 33.3602155,35.8255479 C33.5406178,35.0186301 33.633908,34.2641096 33.6209339,33.5817123 L33.6209339,33.5817123 Z M24.523592,33.2839726 C24.523592,33.6396575 24.3413362,33.9195205 24.1399282,34.1919863 C23.7321695,34.7461644 23.2471839,35.2633562 22.6349282,35.7219863 C22.3593822,35.9284932 22.0770402,36.1115753 21.7650431,36.1115753 L9.53475575,36.1115753 L9.53475575,8.87917808 L21.7650431,8.87917808 C22.0325575,8.87917808 22.3056322,9.01109589 22.5268103,9.18 C23.2583046,9.73910959 23.7970402,10.3758904 24.2653448,11.0712329 C24.3864368,11.2506164 24.523592,11.6050685 24.523592,11.9299315 L24.523592,33.2839726 L24.523592,33.2839726 Z M72.763908,44.8169178 L72.763908,0.174452055 L63.6659483,0.174452055 L63.6659483,26.8107534 L49.3480603,0.174452055 L40.0283046,0.174452055 L40.0283046,44.8169178 L49.1244109,44.8169178 L49.1244109,18.5523288 L63.5911925,44.8169178 L72.763908,44.8169178 L72.763908,44.8169178 Z" id="Fill-1" fill="#FF6626"></path>
                        <path d="M106.531264,14.6921918 L106.531264,4.88527397 C106.536207,4.58136986 106.501609,4.27191781 106.429325,3.96184932 C106.355805,3.64746575 106.221121,3.34726027 106.017859,3.05876712 C105.91592,2.91452055 105.778147,2.7369863 105.594655,2.51876712 C105.413635,2.30363014 105.204813,2.07431507 104.983635,1.84068493 C104.760603,1.60458904 104.533865,1.38636986 104.309598,1.18356164 C104.08533,0.980753425 103.883922,0.829109589 103.704756,0.718767123 C103.520647,0.604726027 103.31306,0.499931507 103.088793,0.419794521 C102.864526,0.339041096 102.633463,0.280479452 102.403635,0.238561644 C102.174425,0.196027397 101.952011,0.174452055 101.745043,0.174452055 L92.6019828,0.174452055 L92.6019828,19.340137 L101.745043,19.340137 C102.087931,19.334589 102.428966,19.2729452 102.768147,19.1582877 C103.369282,18.954863 103.797428,18.7280137 104.287974,18.3297945 C104.75319,17.9519178 105.21717,17.5068493 105.615661,17.0586986 C106.021566,16.6031507 106.298348,16.2209589 106.434267,15.6057534 C106.504698,15.2907534 106.536207,14.9862329 106.531264,14.6921918 L106.531264,14.6921918 Z M121.940216,19.340137 L121.940216,16.135274 L113.235187,16.135274 L113.235187,11.4238356 L121.330431,11.4238356 L121.330431,8.21835616 L113.235187,8.21835616 L113.235187,3.37869863 L121.940216,3.37869863 L121.940216,0.174452055 L109.862529,0.174452055 L109.862529,19.340137 L121.940216,19.340137 L121.940216,19.340137 Z M138.940043,14.7889726 L138.940043,12.7695205 C138.940043,12.2788356 138.845517,11.7967808 138.655848,11.3221233 C138.46556,10.8456164 138.181365,10.4276712 137.810057,10.0615068 C137.438132,9.6959589 136.979713,9.43089041 136.433563,9.27554795 L128.390833,6.84 C128.306193,6.8190411 128.22773,6.76294521 128.156063,6.66369863 C128.083161,6.56506849 128.043003,6.43993151 128.037443,6.29568493 L128.037443,4.69294521 C128.043003,4.59678082 128.130733,4.45869863 128.283951,4.27130137 C128.435934,4.08513699 128.620043,3.89034247 128.829483,3.70479452 C129.042629,3.51616438 129.241566,3.37315068 129.418879,3.28253425 C129.580129,3.23445205 129.723463,3.23260274 129.892744,3.23260274 L133.770158,3.23136986 C134.033966,3.23075342 134.321868,3.5180137 134.501034,3.68815068 C134.668463,3.84780822 134.817356,4.01486301 134.951422,4.17452055 C134.993434,4.22506849 135.406135,4.73054795 135.406135,4.75643836 L138.650287,3.82746575 C138.542787,3.59260274 138.435905,3.38979452 138.339526,3.21842466 C138.243764,3.04828767 138.133175,2.87506849 138.008376,2.70616438 C137.801408,2.42630137 137.559224,2.13287671 137.290474,1.82958904 C137.018635,1.52445205 136.718994,1.23534247 136.379813,0.964726027 C136.044339,0.695342466 135.668089,0.477739726 135.261566,0.30760274 C134.854425,0.136232877 134.410833,0.0511643836 133.927701,0.0456164384 L129.515259,0.0456164384 C129.156925,0.0511643836 128.798592,0.111575342 128.443966,0.227465753 C128.097371,0.340890411 127.784756,0.470342466 127.52342,0.62260274 C127.068707,0.888287671 126.604109,1.33089041 126.227859,1.70136986 C125.856552,2.06876712 125.435201,2.49472603 125.147299,2.92993151 C124.953922,3.22027397 124.830359,3.5340411 124.761164,3.85458904 C124.691968,4.17452055 124.659224,4.47965753 124.664784,4.75643836 L124.664784,6.48739726 C124.664784,6.98363014 124.75931,7.47678082 124.948362,7.94589041 C125.139885,8.42178082 125.422845,8.8409589 125.794152,9.20157534 C126.166078,9.56219178 126.623879,9.82664384 127.171264,9.98075342 L135.18125,12.3534247 C135.266509,12.3688356 135.349296,12.4304795 135.432701,12.5291096 C135.516106,12.6277397 135.561207,12.7485616 135.566767,12.8977397 L135.566767,14.7889726 C135.561207,14.8580137 135.513017,14.9603425 135.411695,15.0928767 C135.310374,15.2266438 135.18125,15.3708904 135.026178,15.5262329 C134.871106,15.6809589 134.714181,15.8239726 134.549842,15.9589726 C134.358937,16.1149315 134.153822,16.2949315 133.927701,16.2949315 L129.001236,16.2949315 C128.922155,16.2949315 128.862227,16.2887671 128.829483,16.2795205 C128.651552,16.2265068 128.209195,15.7709589 128.069569,15.6223973 C127.858276,15.3967808 127.68158,15.2075342 127.555546,15.0447945 C127.430129,14.8820548 127.368966,14.7945205 127.362787,14.7889726 L124.183506,15.8461644 C124.282974,16.0736301 124.417658,16.3177397 124.55296,16.530411 C124.609799,16.6216438 124.68023,16.7295205 124.761164,16.8404795 C124.968132,17.1240411 125.21217,17.4211644 125.484009,17.7269178 C125.758319,18.0357534 126.062902,18.3242466 126.404555,18.5923973 C126.743736,18.8580822 127.116279,19.0744521 127.52342,19.2439726 C127.925,19.4110274 128.369828,19.4954795 128.840603,19.500411 L134.088951,19.500411 C134.437399,19.4954795 134.784612,19.4338356 135.142945,19.3185616 C135.501279,19.2039041 135.814511,19.0750685 136.080172,18.9228082 C136.253161,18.8241781 136.450244,18.6774658 136.680072,18.4802055 C136.904957,18.2878767 137.128606,18.0727397 137.35967,17.839726 C137.588879,17.6079452 137.805115,17.3847945 137.992313,17.1659589 C138.178276,16.9471233 138.322845,16.7646575 138.425402,16.6160959 C138.628046,16.3214384 138.766437,16.0119863 138.838103,15.6920548 C138.910388,15.3653425 138.940043,15.0663699 138.940043,14.7889726 L138.940043,14.7889726 Z M184.293922,19.340137 L184.293922,0.174452055 L180.921264,0.174452055 L180.921264,13.0580137 L174.199425,0.174452055 L170.569138,0.174452055 L170.569138,19.340137 L173.942414,19.340137 L173.942414,6.61561644 L180.727888,19.340137 L184.293922,19.340137 L184.293922,19.340137 Z M214.843693,3.37869863 L214.843693,0.174452055 L187.944598,0.174452055 L187.944598,19.340137 L200.02352,19.340137 L200.02352,16.135274 L191.317874,16.135274 L191.317874,11.4238356 L199.4125,11.4238356 L199.4125,8.21835616 L191.317874,8.21835616 L191.317874,3.37869863 L205.575833,3.37869863 L205.575833,19.340137 L208.948491,19.340137 L208.948491,3.37869863 L214.843693,3.37869863 L214.843693,3.37869863 Z M156.218506,4.75643836 C156.218506,4.71452055 156.228391,4.6639726 156.250014,4.62883562 C156.380374,4.41863014 156.536681,4.22568493 156.715848,4.04136986 C156.895632,3.85643836 157.076034,3.69431507 157.250876,3.555 C157.423865,3.41753425 157.570287,3.30842466 157.696322,3.25047945 C157.757486,3.22273973 157.786523,3.21842466 157.856336,3.21842466 L162.224914,3.21842466 C162.270014,3.21842466 162.347859,3.22643836 162.386782,3.25047945 C162.658003,3.42246575 162.905129,3.63513699 163.136193,3.85952055 C163.359842,4.08945205 163.54704,4.28671233 163.681106,4.45746575 C163.820733,4.62883562 163.889928,4.71452055 163.895489,4.725 L167.139641,3.79541096 C167.059325,3.60308219 166.956149,3.4119863 166.84,3.2239726 C166.720761,3.03287671 166.591638,2.85164384 166.464986,2.67349315 C166.254928,2.37636986 166.015216,2.06445205 165.742759,1.755 C165.469684,1.44493151 165.162629,1.16506849 164.821595,0.9 C164.481796,0.636164384 164.109253,0.425958904 163.707672,0.264452055 C163.301149,0.0998630137 162.861882,0.0184931507 162.386782,0.0135616438 L157.696322,0.0135616438 C157.337371,0.0135616438 156.977802,0.064109589 156.625647,0.162739726 C156.27658,0.260753425 155.96829,0.395753425 155.703865,0.558493151 C155.535201,0.662671233 155.335029,0.81 155.110144,1.00171233 C154.879698,1.1989726 154.654813,1.41842466 154.424986,1.65328767 C154.19454,1.88815068 153.978922,2.11191781 153.793578,2.32643836 C153.605144,2.54465753 153.457486,2.71972603 153.359253,2.86582192 C153.168348,3.15184932 153.036135,3.45328767 152.957672,3.76890411 C152.880445,4.07773973 152.84523,4.38287671 152.84523,4.69294521 L152.84523,14.8210274 C152.84523,15.1304795 152.879828,15.4411644 152.957672,15.7610959 C153.035517,16.0822603 153.169583,16.3880137 153.359253,16.679589 C153.458721,16.8312329 153.606379,17.0056849 153.793578,17.219589 C153.980158,17.4328767 154.195776,17.6455479 154.424986,17.8711644 C154.656667,18.0992466 154.880934,18.3026712 155.110144,18.4906849 C155.336264,18.6762329 155.535201,18.8192466 155.703865,18.9228082 C155.96829,19.0855479 156.278434,19.2205479 156.625647,19.3290411 C156.979655,19.44 157.337371,19.4954795 157.696322,19.500411 L162.386782,19.500411 C162.637615,19.4954795 162.883506,19.4363014 163.130014,19.3290411 C163.376523,19.2223973 163.611911,19.099726 163.826293,18.9554795 C164.040057,18.8118493 164.227256,18.6830137 164.377385,18.5714384 L164.740661,19.340137 L167.233549,19.340137 L167.236638,8.55369863 L159.719052,8.55369863 L159.719052,11.7579452 L163.862744,11.7579452 L163.862744,14.6921918 C163.857802,14.7945205 163.80467,14.9171918 163.697787,15.0663699 C163.509971,15.3184932 163.120129,15.7179452 162.777859,15.9873288 C162.636997,16.0976712 162.504167,16.1870548 162.396049,16.235137 C162.236034,16.3066438 162.021034,16.2949315 161.847428,16.2949315 L157.856336,16.2949315 C157.706207,16.2949315 157.574612,16.2049315 157.454756,16.1210959 C157.218132,15.9558904 156.929612,15.7037671 156.785661,15.5743151 C156.625647,15.4294521 156.49158,15.2858219 156.38408,15.1471233 C156.277198,15.0071918 156.224066,14.8900685 156.218506,14.7889726 L156.218506,4.75643836 L156.218506,4.75643836 Z M140.939296,19.340137 L150.623563,19.340137 L150.623563,16.1358904 L147.467141,16.1358904 L147.467141,3.37869863 L150.623563,3.37869863 L150.623563,0.174452055 L140.939296,0.174452055 L140.939296,3.37869863 L144.094483,3.37869863 L144.094483,16.1358904 L140.939296,16.1358904 L140.939296,19.340137 L140.939296,19.340137 Z M95.9752586,16.135274 L95.9752586,3.37869863 L101.423779,3.37869863 C101.489267,3.37869863 101.661638,3.3830137 101.712917,3.41136986 C101.843276,3.48226027 101.995876,3.57657534 102.168247,3.72143836 C102.333204,3.85952055 102.508046,4.02287671 102.67671,4.21273973 C102.844756,4.40260274 102.999828,4.60664384 103.125862,4.82116438 C103.153664,4.86739726 103.158606,4.92842466 103.158606,4.98143836 L103.158606,14.6286986 C103.153664,14.730411 103.104856,14.8469178 103.002917,14.9862329 C102.901595,15.1249315 102.773089,15.2697945 102.622342,15.4140411 C102.467888,15.5626027 102.313434,15.6988356 102.157126,15.8196575 C101.948922,15.9817808 101.788908,16.135274 101.520776,16.135274 L95.9752586,16.135274 L95.9752586,16.135274 Z M120.045374,40.1985616 C120.045374,40.2410959 120.036106,40.2910274 120.013247,40.3267808 C119.884124,40.5265068 119.731523,40.7114384 119.564713,40.8969863 C119.395431,41.0843836 119.227385,41.2434247 119.062428,41.3870548 C118.897471,41.5300685 118.758463,41.6385616 118.635517,41.7014384 C118.584856,41.7279452 118.531106,41.7334932 118.475503,41.7334932 L114.662342,41.7334932 C114.611063,41.7334932 114.548046,41.7236301 114.50171,41.7014384 C114.368261,41.6373288 114.219368,41.5294521 114.052557,41.3870548 C113.883276,41.2421918 113.70967,41.0843836 113.540388,40.8969863 C113.373578,40.7114384 113.226537,40.5228082 113.091853,40.3267808 C113.065905,40.2885616 113.059727,40.2127397 113.059727,40.1671233 L113.059727,25.6512329 L109.695101,25.6512329 L109.695101,40.2306164 C109.695101,40.5332877 109.729698,40.8439726 109.806925,41.1521918 C109.884152,41.4622603 110.015129,41.7692466 110.20727,42.0534247 C110.303649,42.1952055 110.454397,42.3715068 110.640359,42.5866438 C110.828175,42.8036301 111.041322,43.0286301 111.269914,43.2628767 C111.500359,43.4971233 111.727098,43.7128767 111.954454,43.9076712 C112.180575,44.1018493 112.377658,44.2510274 112.54694,44.3552055 C112.810129,44.5173288 113.119037,44.6517123 113.465632,44.759589 C113.818405,44.8699315 114.176121,44.925411 114.533836,44.9309589 L118.603391,44.9309589 C118.945043,44.925411 119.291638,44.8693151 119.638851,44.759589 C119.986063,44.6510959 120.293118,44.5142466 120.558161,44.3552055 C120.73671,44.2479452 120.941825,44.1030822 121.167328,43.9076712 C121.389741,43.714726 121.62204,43.4989726 121.85125,43.2628767 C122.076135,43.029863 122.282486,42.8036301 122.469684,42.5866438 C122.655647,42.3715068 122.800216,42.1939726 122.89783,42.0534247 C123.093678,41.7686301 123.22033,41.460411 123.297557,41.1521918 C123.374784,40.8427397 123.41556,40.5345205 123.41,40.2306164 L123.41,25.6512329 L120.045374,25.6512329 L120.045374,40.1985616 L120.045374,40.1985616 Z M106.223592,32.8943836 L106.223592,30.0735616 C106.223592,29.7320548 106.175402,29.3954795 106.079641,29.0589041 C105.983261,28.7223288 105.83931,28.4067123 105.645316,28.1188356 C105.544612,27.9690411 105.383362,27.7816438 105.16898,27.5473973 C104.955216,27.3125342 104.729095,27.0887671 104.494325,26.8637671 C104.263261,26.6406164 104.071739,26.4673973 103.911106,26.3564384 C103.585517,26.1308219 103.221006,25.9526712 102.818807,25.8324658 C102.417845,25.7122603 102.021207,25.6512329 101.630747,25.6512329 L92.604454,25.6512329 L92.604454,37.2643151 C94.9682184,37.2643151 97.3054167,37.2532192 99.6710345,37.2532192 L103.237069,44.8169178 L106.898247,44.8169178 L103.075819,36.9961644 C103.220388,36.9486986 103.366193,36.8852055 103.503966,36.8093836 C103.649152,36.7304795 103.780747,36.6417123 103.911106,36.5480137 C104.069885,36.4333562 104.263261,36.2687671 104.494325,36.0567123 C104.729095,35.8415753 104.955216,35.6289041 105.16898,35.4045205 C105.383362,35.180137 105.546466,34.9952055 105.645316,34.8491096 C105.840546,34.5618493 105.983261,34.2511644 106.079641,33.9195205 C106.175402,33.5884932 106.223592,33.2469863 106.223592,32.8943836 L106.223592,32.8943836 Z M92.604454,44.8169178 L95.9777299,44.8169178 L95.9777299,40.9721918 L92.604454,40.9721918 L92.604454,44.8169178 Z M102.851552,32.8623288 C102.851552,32.9208904 102.844138,32.9424658 102.818807,32.9905479 C102.735402,33.1489726 102.611221,33.3012329 102.459856,33.4658219 C102.31158,33.6267123 102.160216,33.759863 102.010704,33.8714384 C101.860575,33.9836301 101.732069,34.0428082 101.630747,34.0477397 L95.9771121,34.0477397 L95.9771121,28.8554795 L101.790761,28.8554795 C101.903204,28.8715068 102.025532,28.9374658 102.160216,29.0589041 C102.293046,29.1778767 102.41908,29.3085616 102.54079,29.465137 C102.660029,29.6186301 102.757026,29.7573288 102.818807,29.8812329 C102.849698,29.9441096 102.851552,30.0359589 102.851552,30.1056164 L102.851552,32.8623288 L102.851552,32.8623288 Z" id="Fill-2" fill="#FFFFFF"></path>
                    </g>
                </g>
            </g>
        </g>
    </g>
</svg>