<?xml version="1.0" encoding="UTF-8" standalone="no"?>
<svg width="88px" height="60px" viewBox="0 0 88 60" version="1.1" xmlns="http://www.w3.org/2000/svg" xmlns:xlink="http://www.w3.org/1999/xlink" xmlns:sketch="http://www.bohemiancoding.com/sketch/ns">
    <!-- Generator: Sketch 3.2.2 (9983) - http://www.bohemiancoding.com/sketch -->
    <title>2</title>
    <desc>Created with Sketch.</desc>
    <defs></defs>
    <g id="Page-1" stroke="none" stroke-width="1" fill="none" fill-rule="evenodd" sketch:type="MSPage">
        <g id="Партнёры" sketch:type="MSArtboardGroup" transform="translate(-785.000000, -1402.000000)" fill="#FFFFFF">
            <g id="2_block" sketch:type="MSLayerGroup" transform="translate(469.000000, 142.000000)">
                <g id="4" transform="translate(0.000000, 1159.000000)" sketch:type="MSShapeGroup">
                    <g id="2" transform="translate(316.000000, 101.000000)">
                        <path d="M12.3875852,0.216916256 L10.6207704,8.81819704 C12.6184,5.80785222 14.9686222,2.93494581 17.6512889,0.216916256 L12.3875852,0.216916256 Z" id="Fill-2"></path>
                        <path d="M14.8841185,18.2037635 C12.8115259,22.8137143 11.7590815,27.4854384 11.7590815,32.0838621 C11.7590815,35.6203153 12.3901926,38.9933202 13.6358222,42.1133202 C14.7122667,44.8118424 16.2340444,47.2742069 18.1670815,49.4557833 L26.7824889,49.4557833 C25.5738963,48.6852414 24.4592296,47.7914483 23.4476741,46.781202 C18.5783407,41.9250443 16.2675259,35.3037635 16.946637,28.1430739 C17.2823407,24.6069163 18.3261926,21.0680985 20.0494519,17.6220887 C21.8287111,14.0605123 24.2873778,10.7073103 27.354637,7.64465025 C30.2781926,4.72829557 33.5890074,2.35578325 37.1943407,0.599231527 C37.4636741,0.4671133 37.7312296,0.340315271 38.0017481,0.217064039 L29.6737481,0.217064039 C27.7842667,1.59824631 25.9780444,3.14169458 24.2731556,4.8435665 C20.1987852,8.90819704 17.0384889,13.4028768 14.8841185,18.2037635" id="Fill-4"></path>
                        <path d="M25.9032,11.6600099 L30.1159407,11.6600099 C30.3372741,11.429468 30.5627556,11.196266 30.7938667,10.9657241 C35.2629037,6.51035468 40.8166815,3.63212808 46.5177185,2.80454187 L47.0495704,0.216857143 L42.4552,0.216857143 C37.5200889,1.76976355 32.6649778,4.65242365 28.5112,8.79597044 C27.5814222,9.72316256 26.7132741,10.6790246 25.9032,11.6600099" id="Fill-6"></path>
                        <path d="M52.1553778,32.1782069 C55.0821926,29.2577143 56.6937481,25.9000788 56.6937481,22.7180099 C56.6937481,20.2698325 55.764563,18.052197 54.0072296,16.296532 C53.1687111,15.4618522 52.1773037,14.8308177 51.0641185,14.4146601 L50.5002667,17.1663842 C51.0567111,17.469931 51.5642667,17.8441182 52.0090074,18.2880591 C53.5497481,19.8258916 54.2937481,21.9368276 54.1100444,24.2360394 C53.9269333,26.5184039 52.8267852,28.7756453 51.0096,30.5886502 C49.9061926,31.6890443 48.596563,32.56333 47.2161185,33.156532 L46.6875259,35.729734 C48.6220444,35.0103251 50.5121185,33.8183054 52.1553778,32.1782069" id="Fill-8"></path>
                        <path d="M58.3281185,22.718069 C58.3281185,26.3328473 56.5473778,30.1036847 53.3112296,33.3306798 C51.2777481,35.3588571 48.8522667,36.8204335 46.3076741,37.5824039 L45.6863407,40.6066404 C48.9633778,39.7379704 52.196563,37.838069 54.9358222,35.1028966 C62.0481185,28.0095961 63.1248593,18.3835862 57.4377481,12.7084138 C55.9562667,11.22733 54.1118222,10.2037833 52.036563,9.68122167 L51.3924148,12.8124532 C52.8267852,13.3072315 54.1100444,14.0972808 55.1613037,15.1456552 C57.2341926,17.211665 58.3281185,19.8286108 58.3281185,22.718069" id="Fill-10"></path>
                        <path d="M52.4811852,24.1052808 C52.6266667,22.2910936 52.0491852,20.63533 50.8542222,19.4421281 C50.6373333,19.2269557 50.4026667,19.033064 50.1528889,18.8616355 L47.6317037,31.1311921 C48.4311111,30.673064 49.1842963,30.103803 49.8536296,29.434936 C51.397037,27.8956256 52.3291852,26.0028177 52.4811852,24.1052808" id="Fill-12"></path>
                        <path d="M5.12325926,45.837931 C4.60740741,44.5531034 4.1762963,43.2404926 3.82962963,41.8968473 L2.27733333,49.455665 L6.84207407,49.455665 C6.19525926,48.2902463 5.62192593,47.0831527 5.12325926,45.837931" id="Fill-14"></path>
                        <path d="M10.1247111,32.0854286 C10.1247111,27.2549852 11.2251556,22.3568571 13.3919704,17.5349852 C15.6296,12.5552808 18.9024889,7.89892611 23.1178963,3.69242365 C24.360563,2.4513399 25.6541926,1.29331034 26.9922667,0.216857143 L19.9762667,0.216857143 C19.6941926,0.488187192 19.4150815,0.760699507 19.136563,1.03764532 C15.2420444,4.92227586 12.0550815,9.14414778 9.63315556,13.624936 L4.68056296,37.7505517 C5.03019259,40.3468079 5.68382222,42.8499606 6.64056296,45.2331133 C7.22663704,46.6979409 7.92411852,48.1060197 8.72737778,49.4558719 L16.0337481,49.4558719 C14.4023407,47.4093695 13.090637,45.1521281 12.1170074,42.7148867 C10.7955259,39.4066108 10.1247111,35.8281872 10.1247111,32.0854286" id="Fill-16"></path>
                        <path d="M14.6446815,57.3341379 C14.3913481,58.5766995 13.6106074,59.3528571 12.7495704,59.3528571 C12.2156444,59.3528571 11.7196444,59.1193596 11.7140148,58.4753202 C11.7113481,58.3139409 11.7394963,58.1324631 11.776237,57.9837931 L12.4286815,54.8327586 L11.8325333,54.8327586 L11.1886815,57.9672414 C11.1448296,58.1900985 11.1166815,58.3884236 11.1166815,58.5403448 C11.1264593,59.4761084 11.7563852,59.8559113 12.6088296,59.8559113 C13.3400889,59.8559113 13.9794963,59.4004433 14.3460148,58.8258621 L14.3643852,58.8258621 L14.2008296,59.7125616 L14.7516444,59.7125616 L15.7575704,54.8327586 L15.1617185,54.8327586 L14.6446815,57.3341379 Z" id="Fill-18"></path>
                        <path d="M2.12776296,53.5059015 L6.01783704,53.5059015 L6.13487407,52.9576256 L1.59235556,52.9576256 L0.214281481,59.7125025 L4.84420741,59.7125025 L4.96124444,59.1671823 L0.976651852,59.1671823 L1.52183704,56.4967389 L5.14583704,56.4967389 L5.26376296,55.9460985 L1.6288,55.9460985 L2.12776296,53.5059015 Z" id="Fill-20"></path>
                        <path d="M7.65928889,59.3528571 C6.75765926,59.3528571 6.33188148,58.7286207 6.32358519,57.896601 C6.31232593,56.7031034 7.00832593,55.1912808 8.38491852,55.1912808 C9.25691852,55.1912808 9.75706667,55.7504926 9.76536296,56.6005419 C9.7781037,57.8070443 9.03143704,59.3528571 7.65928889,59.3528571 L7.65928889,59.3528571 Z M10.5544,52.9573892 L9.99499259,55.7504926 L9.97543704,55.7504926 C9.74995556,54.9817241 9.14136296,54.6897044 8.37365926,54.6897044 C6.72921481,54.6897044 5.71351111,56.3634975 5.72743704,57.8599507 C5.73899259,59.0534483 6.35054815,59.8559113 7.60565926,59.8559113 C8.46788148,59.8559113 8.96684444,59.4761084 9.3781037,58.8311823 L9.39914074,58.8311823 L9.18936296,59.7125616 L9.76714074,59.7125616 L11.1532148,52.9573892 L10.5544,52.9573892 Z" id="Fill-22"></path>
                        <path d="M23.8871407,29.6077537 C23.8871407,29.8409557 23.8927704,30.0729754 23.9010667,30.3046995 L27.5997333,30.3046995 C27.5392889,29.7454877 27.5081778,29.1777044 27.5081778,28.6013498 C27.5081778,25.2451921 28.5295111,21.8130739 30.4021037,18.6901182 L26.9052148,18.6901182 C24.9324741,22.2035172 23.8871407,25.9282463 23.8871407,29.6077537" id="Fill-24"></path>
                        <path d="M40.4377778,18.6901182 L37.4241481,18.6901182 C34.9684444,21.3744532 33.572,24.6265714 33.572,27.7146502 C33.572,28.622335 33.6875556,29.486867 33.913037,30.3046995 L36.8208889,30.3046995 C36.3251852,29.3012512 36.0614815,28.1713005 36.0614815,26.9848966 C36.0614815,24.3850936 37.2594074,21.7580985 39.4345185,19.5865714 C39.756,19.2664729 40.0896296,18.967064 40.4377778,18.6901182" id="Fill-26"></path>
                        <path d="M29.1410667,28.6014089 C29.1410667,29.1816059 29.1763259,29.7496847 29.2409185,30.3047586 L32.2335111,30.3047586 C32.0391407,29.4727389 31.9378074,28.6043645 31.9378074,27.7147094 C31.9378074,25.8736256 32.3508444,24.0139212 33.1635852,22.1896847 C33.7072889,20.9627882 34.4189926,19.7950049 35.2826963,18.6901773 L32.3309926,18.6901773 C30.2738074,21.7791429 29.1410667,25.2381576 29.1410667,28.6014089" id="Fill-28"></path>
                        <path d="M56.0908444,36.2569655 C52.9341037,39.4065222 49.1495111,41.5313498 45.3252148,42.3704631 L44.6576593,45.6270148 C49.6025481,44.6560788 54.5148444,42.0246502 58.3563259,38.1920394 C62.7130667,33.8480985 65.5302519,28.5748966 66.2946963,23.343665 C66.4324741,22.3963744 66.4991407,21.4644532 66.5000296,20.552335 C66.5000296,20.3374581 66.4961778,20.1208079 66.4890667,19.9074089 C66.3352889,15.6571626 64.665363,11.8511527 61.5652148,8.75775369 C59.251437,6.44997044 56.3216593,5.03775369 53.1059556,4.47381281 L52.3658074,8.0817931 C54.7527704,8.67203941 56.8775111,9.84425616 58.5966222,11.5561773 C64.9391407,17.8863251 63.8624,28.505734 56.0908444,36.2569655" id="Fill-30"></path>
                        <path d="M62.7202074,7.60392118 C64.9219852,9.80204926 66.4772444,12.3459901 67.3403556,15.1680591 C67.3649481,15.2496355 67.3895407,15.3312118 67.4132444,15.4124926 L68.1833185,11.6599803 L70.3634667,11.6599803 C69.3320593,9.04865025 67.7679111,6.68766502 65.7059852,4.62727094 C63.707763,2.63426601 61.3456889,1.16973399 58.7536889,0.216827586 L53.9809481,0.216827586 L53.4351704,2.87337931 C54.2090963,3.0093399 54.9667259,3.19229557 55.7107259,3.41988177 C58.4173926,4.25899507 60.7773926,5.66589163 62.7202074,7.60392118" id="Fill-32"></path>
                        <path d="M72.1088,11.6600099 L77.6696889,11.6600099 C76.6133926,7.3677931 74.5253926,3.47193103 71.4930963,0.216857143 L62.5810963,0.216857143 C64.1499852,1.11065025 65.5813926,2.19863054 66.8610963,3.4748867 C69.2391704,5.85005911 71.0030222,8.59912315 72.1088,11.6600099" id="Fill-34"></path>
                        <path d="M45.4675852,7.92978325 L46.1677333,4.51480788 C41.3917333,5.34091626 36.5111407,7.75717241 32.4195852,11.6601281 L36.877363,11.6601281 C39.5191407,9.7557931 42.4610667,8.47244335 45.4675852,7.92978325" id="Fill-36"></path>
                        <path d="M45.1122667,9.66162562 C43.3288593,10.0550246 41.5721185,10.7295074 39.9054519,11.6599507 L44.7039704,11.6599507 L45.1122667,9.66162562 Z" id="Fill-38"></path>
                        <path d="M18.5727704,28.2962956 C17.9416593,34.9639803 20.0832889,41.1212217 24.6029926,45.6312709 C26.2118815,47.2347192 28.1055111,48.518069 30.2415111,49.4556059 L36.9099556,49.4556059 L37.3312889,47.4368867 C33.4904,46.8466404 30.1090667,45.1663448 27.4237333,42.4885123 C26.0426963,41.1129458 24.9185481,39.5189557 24.0761778,37.7733399 L20.1944,37.7733399 L21.6921778,30.3034877 L22.2669926,30.3034877 C22.2584,30.071468 22.2527704,29.8409261 22.2527704,29.6062463 C22.2527704,25.9255567 23.2192889,22.2123547 25.0509926,18.6900887 L24.0927704,18.6900887 L25.3976593,12.286936 C21.4835852,17.2426995 19.0942519,22.7996453 18.5727704,28.2962956" id="Fill-40"></path>
                        <path d="M39.3443259,37.784601 L39.3487704,37.7733695 L39.3064,37.7733695 L33.0015111,37.7733695 C34.6471407,39.291399 36.5828444,40.3173103 38.7132148,40.8088374 L39.3443259,37.784601 Z" id="Fill-42"></path>
                        <path d="M18.8122074,55.1912808 C19.5153185,55.1912808 20.0409481,55.6281281 20.0012444,56.3534483 L20.5988741,56.3534483 C20.6240593,55.2193596 19.8154667,54.6897044 18.7529481,54.6897044 C17.0735407,54.6897044 16.1096889,56.3197537 16.1239111,57.8404433 C16.1351704,59.043399 16.8172444,59.8559113 18.031763,59.8559113 C19.2151704,59.8559113 19.9505778,59.2485222 20.2999111,58.1324631 L19.7040593,58.1324631 C19.4545778,58.8412315 18.8910222,59.3528571 18.1022815,59.3528571 C17.1736889,59.3528571 16.7325037,58.7091133 16.7242074,57.8404433 C16.7114667,56.569803 17.3808,55.1912808 18.8122074,55.1912808" id="Fill-44"></path>
                        <path d="M38.3794963,42.4057241 C35.7729778,41.8154778 33.4227556,40.5140985 31.4672,38.5645419 C31.2109037,38.3088768 30.9697185,38.0461182 30.7374222,37.7733103 L25.9131259,37.7733103 C26.6260148,39.0803054 27.5193481,40.2779409 28.5789037,41.3363645 C31.0304593,43.7815862 34.1326815,45.3093695 37.6636444,45.8348867 L38.3794963,42.4057241 Z" id="Fill-46"></path>
                        <path d="M46.8440296,59.7125025 L47.4443259,59.7125025 L48.4520296,54.8326995 L47.8526222,54.8326995 L46.8440296,59.7125025 Z" id="Fill-48"></path>
                        <path d="M58.1053333,53.35667 L57.5068148,53.35667 L57.2087407,54.8327291 L56.3245926,54.8327291 L56.2155556,55.3319409 L57.0994074,55.3319409 L56.4573333,58.5686897 C56.412,58.7847488 56.393037,58.9677044 56.393037,59.0687882 C56.3980741,59.6560788 56.8602963,59.7713498 57.3023704,59.7713498 C57.5023704,59.7713498 57.7115556,59.7521379 57.9118519,59.7346995 L58.0099259,59.2124335 C57.7717037,59.2514483 57.5459259,59.2682956 57.3094815,59.2682956 C57.0813333,59.2682956 56.996,59.0998227 56.996,58.9283941 C56.993037,58.7794286 57.0066667,58.6937143 57.054963,58.4625813 L57.697037,55.3319409 L58.692,55.3319409 L58.7820741,54.8327291 L57.8042963,54.8327291 L58.1053333,53.35667 Z" id="Fill-50"></path>
                        <path d="M48.8394074,52.9575074 L48.2417778,52.9575074 L48.0420741,53.9133695 L48.6402963,53.9133695 L48.8394074,52.9575074 Z" id="Fill-52"></path>
                        <path d="M60.4181037,49.4557241 L61.5369185,44.0190739 C59.1203259,46.2003547 56.399437,48.0316847 53.5123259,49.4557241 L60.4181037,49.4557241 Z" id="Fill-54"></path>
                        <path d="M51.8998815,54.7739113 C51.7952889,54.7653399 51.6826963,54.7653399 51.5778074,54.7653399 C50.7049185,54.7564729 50.1864,55.2556847 49.815437,55.957064 L49.7970667,55.957064 L50.0344,54.8327291 L49.493363,54.8327291 L48.4838815,59.712532 L49.0832889,59.712532 L49.6115852,57.1600197 C49.7997333,56.2411034 50.3612148,55.3810049 51.4305481,55.361202 C51.5461037,55.361202 51.6572148,55.3697734 51.7715852,55.3697734 L51.8998815,54.7739113 Z" id="Fill-56"></path>
                        <path d="M54.0280593,55.1898325 C54.701837,55.1898325 55.2307259,55.5128867 55.1848,56.2609655 L55.7853926,56.2609655 C55.7951704,55.1336749 55.0485037,54.687665 54.0224296,54.687665 C53.2369481,54.687665 52.2156148,55.0772217 52.2245037,56.0218522 C52.2316148,56.8284532 52.8929481,57.121064 53.5480593,57.3782069 C54.1945778,57.6226404 54.8695407,57.8221478 54.8766519,58.4573202 C54.8822815,59.0800788 54.1809481,59.3555468 53.6508741,59.3555468 C52.9602074,59.3555468 52.2529481,59.0688473 52.2591704,58.1271724 L51.6570963,58.1271724 C51.6135407,59.3443153 52.5747259,59.8559409 53.5151704,59.8559409 C54.4428741,59.8559409 55.4822815,59.4569261 55.4742815,58.3603744 C55.4642074,57.4609655 54.5409481,57.1866798 53.8680593,56.9239212 C53.3142815,56.703133 52.8292444,56.4761379 52.8242074,56.0218522 C52.8165037,55.3526897 53.509837,55.1898325 54.0280593,55.1898325" id="Fill-58"></path>
                        <path d="M71.8023704,20.5523941 L68.1315556,20.5523941 C68.1315556,21.5457931 68.0616296,22.5566305 67.9114074,23.5795862 C67.4874074,26.4832315 66.4737778,29.3939704 64.9502222,32.1669754 L68.6136296,32.1669754 C70.2088889,29.0230345 71.2408889,25.754069 71.6394074,22.4989951 C71.7205926,21.845202 71.7721481,21.1976158 71.8023704,20.5523941" id="Fill-60"></path>
                        <path d="M81.3773037,0.216916256 L73.6712296,0.216916256 C76.4573037,3.54499507 78.3743407,7.42962562 79.3521185,11.660069 L85.3109333,11.660069 C84.9453037,9.11908374 84.2943407,6.66499507 83.3701926,4.33208867 C82.8033778,2.90272906 82.1384889,1.53100493 81.3773037,0.216916256" id="Fill-62"></path>
                        <path d="M83.2520296,0.216916256 C83.8632889,1.34952709 84.4096593,2.52174384 84.8887704,3.73208867 C85.4692148,5.19484729 85.9459556,6.69868966 86.3142519,8.24184236 L87.9604741,0.216916256 L83.2520296,0.216916256 Z" id="Fill-64"></path>
                        <path d="M78.3987259,20.5523941 L73.4366519,20.5523941 C73.4085037,21.2635271 73.3504296,21.9761379 73.2630222,22.6955468 C72.8710222,25.8832315 71.907763,29.08067 70.4307259,32.1669754 L75.4722074,32.1669754 C76.9682074,28.7375172 77.9285037,25.2028374 78.3006519,21.6737734 C78.3427259,21.2986995 78.3744296,20.9277635 78.3987259,20.5523941" id="Fill-66"></path>
                        <path d="M79.9267852,21.843931 C79.5602667,25.3156552 78.6497481,28.7897438 77.2464889,32.1683645 L81.0144889,32.1683645 L83.3611556,20.5523054 L80.0367111,20.5523054 C80.008563,20.9823547 79.9712296,21.4138818 79.9267852,21.843931" id="Fill-68"></path>
                        <path d="M44.3023704,47.3443153 L43.8700741,49.4558424 L49.3604444,49.4558424 C53.870963,47.832 58.1281481,45.174266 61.6057778,41.7028374 C61.7805926,41.5314089 61.9506667,41.354069 62.1198519,41.1802759 L63.4822222,34.5604729 C62.3438519,36.2386995 61.0167407,37.8451034 59.5133333,39.3448079 C55.2739259,43.5749557 49.7915556,46.4197833 44.3023704,47.3443153" id="Fill-70"></path>
                        <path d="M30.1300741,52.9575074 L29.933037,53.9133695 L30.5288889,53.9133695 L30.7288889,52.9575074 L30.1300741,52.9575074 Z" id="Fill-72"></path>
                        <path d="M28.7381333,59.7125025 L29.3313185,59.7125025 L30.3399111,54.8326995 L29.7399111,54.8326995 L28.7381333,59.7125025 Z" id="Fill-74"></path>
                        <path d="M24.4141926,57.9235271 C24.2340444,58.7762365 23.6278222,59.3528867 22.6728593,59.3528867 C22.1033778,59.3528867 21.5821926,59.0995862 21.5750815,58.4753498 C21.5653037,57.4523941 22.768563,57.4186995 23.4983407,57.3569261 C23.7996741,57.3341675 24.3860444,57.318798 24.5747852,57.0841182 L24.5943407,57.1039212 L24.4141926,57.9235271 Z M25.3893037,55.7774187 C25.3807111,54.9185025 24.3436741,54.689734 23.6814519,54.689734 C22.6275259,54.689734 21.7792296,55.1812611 21.6272296,56.2887488 L22.224563,56.2887488 C22.3401185,55.4732808 22.992563,55.1913103 23.7519704,55.1913103 C24.2109333,55.1913103 24.7860444,55.3145616 24.7916741,55.8953498 C24.7973037,56.5331823 24.5999704,56.7554483 24.2168593,56.847665 C23.8364148,56.941064 23.2841185,56.8934778 22.6571556,56.9913103 C21.7878222,57.1405714 20.9679704,57.4695369 20.9762667,58.5007685 C20.9863407,59.4569261 21.6639704,59.8559409 22.5543407,59.8559409 C23.2390815,59.8559409 23.9069333,59.5243153 24.2479704,58.9577143 L24.2618963,58.9760394 C24.2550815,59.0602759 24.2479704,59.1560394 24.250637,59.242936 C24.2592296,59.56333 24.4423407,59.7714089 24.7721185,59.7714089 C24.9327111,59.7714089 25.1327111,59.7545616 25.266637,59.7238227 L25.3469333,59.2482562 C25.2621926,59.2597833 25.1961185,59.2683547 25.1101926,59.2683547 C24.9664889,59.2683547 24.7973037,59.242936 24.794637,59.0703251 C24.7916741,58.7762365 24.8933037,58.5220493 25.1001185,57.4246108 C25.1931556,56.9913103 25.394637,56.2523941 25.3893037,55.7774187 L25.3893037,55.7774187 Z" id="Fill-76"></path>
                        <path d="M43.710637,53.5073498 L47.4018963,53.5073498 L47.5061926,52.9575961 L43.1752296,52.9575961 L41.790637,59.7124729 L42.4341926,59.7124729 L43.0964148,56.4967094 L46.3847111,56.4967094 L46.4833778,55.946069 L43.2119704,55.946069 L43.710637,53.5073498 Z" id="Fill-78"></path>
                        <path d="M32.7323556,59.3528571 C31.7376889,59.3528571 31.2570963,58.7091133 31.2473185,57.7647783 C31.2360593,56.6206404 31.9462815,55.1912808 33.253837,55.1912808 C34.211763,55.1912808 34.7021333,55.8164039 34.7104296,56.7243842 C34.7202074,57.8599507 34.0399111,59.3528571 32.7323556,59.3528571 M33.3522074,54.6897044 C31.6052444,54.6897044 30.6330963,56.22133 30.6485037,57.8203448 C30.6612444,59.043399 31.3643556,59.8559113 32.6209481,59.8559113 C34.4342815,59.8559113 35.3234667,58.247734 35.3065778,56.6005419 C35.2953185,55.4005419 34.4908741,54.6897044 33.3522074,54.6897044" id="Fill-80"></path>
                        <path d="M40.5912889,20.7393103 C38.7231407,22.6028571 37.6946963,24.8193103 37.6946963,26.9849261 C37.6946963,28.2360591 38.0466963,29.3671921 38.7175111,30.3032512 L40.467437,30.3032512 L42.7329185,19.0921182 C41.9723259,19.5307389 41.2464,20.084335 40.5912889,20.7393103" id="Fill-82"></path>
                        <path d="M38.7709926,54.6896158 C38.0415111,54.6896158 37.3988444,55.1418325 37.0352889,55.7211429 L37.0210667,55.7211429 L37.1789926,54.83267 L36.6296593,54.83267 L35.623437,59.7124729 L36.2237333,59.7124729 L36.7381037,57.2081379 C36.9917333,55.9682365 37.7709926,55.1911921 38.6358815,55.1911921 C39.1656593,55.1911921 39.6598815,55.4270542 39.6669926,56.0722759 C39.6669926,56.2327685 39.6388444,56.4109951 39.6065481,56.5632118 L38.951437,59.7124729 L39.5502519,59.7124729 L40.1941037,56.5839015 C40.2421037,56.3533596 40.2631407,56.1565123 40.2616593,56.0016355 C40.2530667,55.0688276 39.623437,54.6896158 38.7709926,54.6896158" id="Fill-84"></path>
                        <path d="M28.0308148,53.35667 L27.432,53.35667 L27.136,54.8327291 L26.2539259,54.8327291 L26.1416296,55.3334187 L27.0260741,55.3334187 L26.381037,58.5686897 C26.3386667,58.7877044 26.3217778,58.9662266 26.3217778,59.070266 C26.3274074,59.6590345 26.784,59.7713498 27.229037,59.7713498 C27.4278519,59.7713498 27.6376296,59.7545025 27.834963,59.7320394 L27.9365926,59.2124335 C27.6998519,59.2484926 27.4714074,59.2682956 27.2334815,59.2682956 C27.0094815,59.2682956 26.9205926,59.0998227 26.9191111,58.9295764 C26.9164444,58.7761773 26.9333333,58.692532 26.9825185,58.4646502 L27.6222222,55.3334187 L28.6213333,55.3334187 L28.7087407,54.8327291 L27.7306667,54.8327291 L28.0308148,53.35667 Z" id="Fill-86"></path>
                    </g>
                </g>
            </g>
        </g>
    </g>
</svg>