<?xml version="1.0" encoding="UTF-8" standalone="no"?>
<svg width="81px" height="45px" viewBox="0 0 81 45" version="1.1" xmlns="http://www.w3.org/2000/svg" xmlns:xlink="http://www.w3.org/1999/xlink" xmlns:sketch="http://www.bohemiancoding.com/sketch/ns">
    <!-- Generator: Sketch 3.2.2 (9983) - http://www.bohemiancoding.com/sketch -->
    <title>12</title>
    <desc>Created with Sketch.</desc>
    <defs></defs>
    <g id="Page-1" stroke="none" stroke-width="1" fill="none" fill-rule="evenodd" sketch:type="MSPage">
        <g id="Партнёры" sketch:type="MSArtboardGroup" transform="translate(-938.000000, -1802.000000)" fill="#FFFFFF">
            <g id="2_block" sketch:type="MSLayerGroup" transform="translate(469.000000, 142.000000)">
                <g id="5" transform="translate(0.000000, 1476.000000)" sketch:type="MSShapeGroup">
                    <g id="12" transform="translate(469.000000, 184.000000)">
                        <path d="M8.43754909,0.681720779 C8.31442909,0.955811688 8.14594909,1.31405844 7.93093091,1.755 C7.71591273,2.19681818 7.49971636,2.66814935 7.28617091,3.17045455 C7.07144727,3.67305195 6.87233455,4.16863636 6.68736,4.65545455 C6.50356364,5.14285714 6.39546545,5.5837987 6.36453818,5.98003247 C6.36453818,6.0411039 6.33361091,6.0712013 6.27205091,6.0712013 C6.20990182,6.0712013 6.18015273,6.0411039 6.18015273,5.98003247 C6.18015273,5.85905844 6.16454182,5.64428571 6.13479273,5.3400974 C6.10386545,5.03590909 6.07205455,4.7025 6.04318909,4.33461039 C6.01196727,3.96905844 5.98192364,3.59766234 5.95099636,3.21574675 C5.92065818,2.83646104 5.88914182,2.52409091 5.85939273,2.27922078 C5.82846545,2.09746753 5.76749455,1.86896104 5.67559636,1.59516234 C5.58310909,1.32077922 5.42847273,1.18285714 5.21463273,1.18285714 L3.41878909,1.18285714 C3.35693455,1.33655844 3.32689091,1.5188961 3.32689091,1.7325 L3.32689091,35.5318831 C3.32689091,35.6852922 3.34986545,35.8606169 3.39640364,36.0578571 C3.44205818,36.2550974 3.58609091,36.4310065 3.83292,36.5826623 C3.95574545,36.6434416 4.01789455,36.6966234 4.01789455,36.7419156 L4.01789455,36.9023377 L0.150218182,36.9023377 L0.150218182,36.7419156 C0.150218182,36.6966234 0.2106,36.6434416 0.334014545,36.5826623 C0.580254545,36.4310065 0.72576,36.2790584 0.771414545,36.1250649 C0.817363636,35.9731169 0.840927273,35.775 0.840927273,35.5318831 L0.840927273,1.7325 C0.840927273,1.57967532 0.817363636,1.40522727 0.771414545,1.20623377 C0.72576,1.00928571 0.580254545,0.835422078 0.334014545,0.681720779 C0.2106,0.620357143 0.150218182,0.566298701 0.150218182,0.520714286 L0.150218182,0.362045455 L8.3916,0.361753247 C8.48379273,0.361753247 8.49852,0.468993506 8.43754909,0.681720779" id="Fill-1"></path>
                        <path d="M18.1057091,36.9023377 L14.2386218,36.9023377 L14.2386218,36.7419156 C14.2386218,36.6975 14.2995927,36.6434416 14.4221236,36.5826623 C14.6683636,36.4310065 14.8141636,36.2550974 14.8598182,36.0578571 C14.9060618,35.8606169 14.9293309,35.685 14.9293309,35.5318831 L14.9293309,11.5518506 C14.4065127,13.1961039 13.9149164,14.9490584 13.4560145,16.8051623 C12.9953455,18.6627273 12.5800364,20.4136364 12.2127382,22.058474 C12.5181818,22.2101299 12.7332,22.4544156 12.8572036,22.7881169 C12.9791455,23.1235714 13.0106618,23.4581494 12.9493964,23.7938961 C12.7953491,24.4329545 12.3968291,24.8297727 11.7526582,24.9811364 C11.5370509,26.9605519 11.3830036,28.8032143 11.2908109,30.5070779 C11.1995018,32.2135714 11.0916982,34.0413312 10.9697564,35.9886039 C11.0310218,36.2638636 11.1995018,36.4616883 11.4749018,36.5826623 C11.5986109,36.6434416 11.6601709,36.6975 11.6601709,36.7419156 L11.6601709,36.9023377 L8.02282909,36.9023377 L8.02282909,36.7419156 C8.02282909,36.6975 8.0838,36.6434416 8.20750909,36.5826623 C8.54476364,36.4310065 8.83430182,36.1873052 9.08230909,35.8518506 C9.23458909,34.2075974 9.46610182,32.4265909 9.77301818,30.5070779 C10.0781673,28.5896104 10.4171891,26.7165584 10.78596,24.8908442 C10.4469382,24.7377273 10.2104182,24.4946104 10.0719818,24.1582792 C9.93354545,23.8239935 9.91057091,23.4736364 10.0015855,23.1080844 C10.1547491,22.3173701 10.6163018,21.8904545 11.3830036,21.8287987 C11.4439745,21.6169481 11.4905127,21.4182468 11.52144,21.2359091 C11.5520727,21.0538636 11.5986109,20.8554545 11.6601709,20.6418506 C11.8748945,19.5770455 12.12732,18.487987 12.4192145,17.3749675 C12.7122873,16.2648701 13.0106618,15.1910065 13.3184618,14.1548377 C13.6244945,13.1212987 13.9149164,12.1689935 14.1926727,11.3005519 C14.4683673,10.4341558 14.7149018,9.69633117 14.9293309,9.08503247 L14.9293309,1.7325 C14.9293309,1.67172078 14.8984036,1.48821429 14.8371382,1.18285714 L13.5479127,1.18285714 C13.3334836,1.18285714 13.1797309,1.32077922 13.0869491,1.59516234 C12.9953455,1.86896104 12.9334909,2.09746753 12.9034473,2.27922078 C12.8415927,2.79788961 12.7800327,3.33058442 12.7178836,3.87730519 C12.6557345,4.42665584 12.6097855,4.82288961 12.5800364,5.06688312 C12.5800364,5.12766234 12.5494036,5.15805195 12.4884327,5.15805195 C12.4268727,5.15805195 12.3968291,5.12766234 12.3968291,5.06688312 C12.3656073,4.67094156 12.3049309,4.24402597 12.2127382,3.78730519 C12.1220182,3.33058442 12.0036109,2.88935065 11.8672364,2.46243506 C11.7290945,2.03668831 11.5600255,1.65623377 11.3612073,1.32077922 C11.1606218,0.986493506 10.9391236,0.772597403 10.6934727,0.681720779 C10.6313236,0.651331169 10.60776,0.589967532 10.6230764,0.498506494 C10.6386873,0.40762987 10.6778618,0.361753247 10.7400109,0.361753247 L18.1057091,0.361753247 L18.1057091,0.522175325 C18.1057091,0.566883117 18.0441491,0.620357143 17.9213236,0.681720779 C17.6747891,0.83512987 17.5307564,1.00928571 17.4848073,1.20623377 C17.4382691,1.40522727 17.415,1.57967532 17.415,1.7325 L17.415,35.5318831 C17.415,35.7761688 17.4382691,35.9731169 17.4848073,36.1250649 C17.5307564,36.2790584 17.6747891,36.4310065 17.9213236,36.5826623 C18.0441491,36.6434416 18.1057091,36.6975 18.1057091,36.7419156 L18.1057091,36.9023377" id="Fill-2"></path>
                        <path d="M30.35232,36.9023377 L26.4852327,36.9023377 L26.4852327,36.7419156 C26.4852327,36.6975 26.5447309,36.6434416 26.6675564,36.5826623 C26.9143855,36.4310065 27.0601855,36.2550974 27.1064291,36.0578571 C27.1520836,35.8606169 27.1747636,35.685 27.1747636,35.5318831 L27.1747636,13.8363312 C26.8372145,14.6892857 26.5305927,15.5419481 26.2551927,16.394026 C25.9780255,17.2469805 25.6861309,18.2065909 25.3786255,19.2705195 C25.1644909,20.0638636 24.9727418,20.7873701 24.8024945,21.4416234 C24.6348982,22.0958766 24.4820291,22.7355195 24.3444764,23.3596753 C24.2066291,23.9844156 24.08292,24.6085714 23.9754109,25.2312662 C23.8676073,25.8562987 23.7527345,26.519026 23.6307927,27.2182792 C23.93712,27.3722727 24.1656873,27.6007792 24.3206182,27.9037987 C24.4746655,28.2085714 24.5194364,28.5282468 24.4599382,28.8631169 C24.3050073,29.5334416 23.8902873,29.9147727 23.2160727,30.0056494 C23.0932473,31.0406494 23.0157818,32.0233442 22.9848545,32.9519805 C22.9539273,33.8806169 22.9073891,34.8773377 22.8461236,35.9438961 C22.9073891,36.2483766 23.0779309,36.4616883 23.35392,36.5826623 C23.47704,36.6434416 23.5388945,36.6975 23.5388945,36.7419156 L23.5388945,36.9023377 L19.6715127,36.9023377 L19.6715127,36.7419156 C19.6715127,36.6975 19.7324836,36.6434416 19.85472,36.5826623 C20.1307091,36.4909091 20.3754764,36.3091558 20.5916727,36.0344805 C20.9298109,34.9381169 21.25116,33.9104221 21.5574873,32.9519805 C21.8649927,31.9923701 22.12596,30.9494805 22.3415673,29.8224351 C22.0337673,29.670487 21.8119745,29.4507468 21.6747164,29.16 C21.5353964,28.8712987 21.5109491,28.5586364 21.6031418,28.223474 C21.7574836,27.5847078 22.1571818,27.2182792 22.8010582,27.1285714 C22.8608509,26.6402922 22.9477418,26.1543506 23.0549564,25.6657792 C23.1624655,25.178961 23.2614327,24.6781169 23.35392,24.1582792 C23.2302109,23.610974 23.1159273,23.1080844 23.0095964,22.6516558 C22.9020873,22.1946429 22.7389091,21.5251948 22.5259527,20.6418506 C22.2499636,19.5449026 21.9642545,18.4032468 21.6747164,17.2168831 C21.3813491,16.028474 21.2361382,14.9028896 21.2361382,13.8363312 C21.2361382,13.1359091 21.3277418,12.4588636 21.5109491,11.8037338 C21.6956291,11.1491883 21.9498218,10.5323377 22.2705818,9.95376623 C22.5945818,9.37577922 22.9692436,8.86470779 23.3995745,8.42230519 C23.8296109,7.98194805 24.2899855,7.62399351 24.7818764,7.35107143 C25.21044,7.13834416 25.60248,7.00012987 25.9544618,6.93876623 C26.3082109,6.87886364 26.7132109,6.83094156 27.1747636,6.80230519 L27.1747636,1.7325 C27.1747636,1.67172078 27.1435418,1.48821429 27.0834545,1.18373377 L25.4251636,1.18373377 C25.21044,1.18373377 25.0575709,1.32077922 24.9659673,1.59516234 C24.8746582,1.86896104 24.8122145,2.09746753 24.7818764,2.2800974 C24.7197273,2.79788961 24.6587564,3.33058442 24.5966073,3.87730519 C24.5350473,4.42665584 24.4899818,4.82288961 24.4599382,5.06688312 C24.4599382,5.12766234 24.4281273,5.15805195 24.3671564,5.15805195 C24.3050073,5.15805195 24.2743745,5.12766234 24.2743745,5.06688312 C24.2434473,4.67094156 24.1812982,4.24402597 24.0894,3.78730519 C23.9989745,3.33058442 23.8832182,2.88935065 23.7453709,2.46243506 C23.60664,2.03727273 23.4363927,1.65623377 23.2387527,1.32077922 C23.03964,0.986493506 22.8154909,0.772597403 22.5716073,0.682012987 C22.5094582,0.651331169 22.4864836,0.589967532 22.5026836,0.498506494 C22.5174109,0.40762987 22.5554073,0.361753247 22.6175564,0.361753247 L30.35232,0.361753247 L30.35232,0.522175325 C30.35232,0.566883117 30.2904655,0.620357143 30.1679345,0.681720779 C29.9231673,0.83512987 29.7767782,1.00928571 29.73024,1.20623377 C29.6845855,1.40522727 29.6607273,1.57967532 29.6607273,1.7325 L29.6607273,35.5318831 C29.6607273,35.7761688 29.6845855,35.9731169 29.73024,36.1250649 C29.7767782,36.2790584 29.9231673,36.4310065 30.1679345,36.5826623 C30.2904655,36.6434416 30.35232,36.6975 30.35232,36.7419156 L30.35232,36.9023377 L30.35232,36.9023377 Z M25.2413673,8.08100649 C24.9044073,8.35451299 24.5966073,8.73584416 24.3206182,9.22324675 C24.04404,9.71064935 23.8145891,10.2582468 23.6307927,10.8672078 C23.4461127,11.4761688 23.3000182,12.1161039 23.1928036,12.7858442 C23.085,13.456461 23.0313927,14.1092532 23.0313927,14.7500649 C23.0313927,15.7234091 23.0470036,16.7221753 23.0779309,17.7413961 C23.1085636,18.7620779 23.2160727,19.6360714 23.3995745,20.3677597 C23.5545055,21.0076948 23.6764473,21.6169481 23.7683455,22.1946429 C23.8902873,21.6774351 24.0128182,21.1602273 24.1353491,20.6418506 C24.2587636,20.1249351 24.3977891,19.605974 24.5506582,19.0887662 C24.9500618,17.6262662 25.3482873,16.3569156 25.74828,15.2751623 C26.1476836,14.1948701 26.6219018,13.0450325 27.1747636,11.826526 L27.1747636,7.62399351 C26.7750655,7.65467532 26.4163091,7.69938312 26.0920145,7.75987013 C25.7715491,7.82181818 25.48584,7.92876623 25.2413673,8.08100649 L25.2413673,8.08100649 Z" id="Fill-3"></path>
                        <path d="M33.5740582,19.4087338 C33.5740582,18.6487013 33.6270764,17.7720779 33.7345855,16.7820779 C33.8423891,15.7923701 33.9731673,14.8573052 34.1263309,13.9727922 C33.78996,13.9727922 33.5281091,13.8214286 33.3449018,13.5163636 C33.0968945,13.0903247 33.0762764,12.6718831 33.2762727,12.2604545 C33.4745018,11.8499026 33.7752327,11.5226299 34.1728691,11.2786364 C34.2939273,11.2184416 34.4176364,11.1564935 34.5413455,11.0968831 C34.6638764,11.0355195 34.8017236,10.9899351 34.9560655,10.9592532 C35.56872,8.97954545 36.2517709,7.16055195 37.0058073,5.49964286 C37.7563091,3.84107143 38.4858982,2.40165584 39.1919236,1.18373377 L35.7843273,1.18373377 C35.2939091,1.76230519 34.9404545,2.42474026 34.7260255,3.17045455 C34.5101236,3.91792208 34.4329527,4.65545455 34.4951018,5.38597403 C34.4951018,5.44762987 34.4568109,5.48503247 34.3814073,5.49964286 C34.3036473,5.51571429 34.2491564,5.49409091 34.2179345,5.43214286 C34.1569636,5.21912338 34.0874509,4.98185065 34.0120473,4.72353896 C33.9351709,4.46493506 33.8665418,4.16863636 33.8058655,3.83288961 C33.7440109,3.40685065 33.7033636,3.0412987 33.6889309,2.73623377 C33.6727309,2.43233766 33.6512291,2.06824675 33.6203018,1.64074675 C33.6203018,1.48821429 33.5970327,1.32077922 33.5513782,1.13756494 C33.5051345,0.955811688 33.4055782,0.818474026 33.25212,0.727012987 C33.0668509,0.605746753 32.9749527,0.483019481 32.9749527,0.361753247 L42.9208691,0.361753247 C42.9821345,0.483019481 42.9665236,0.589967532 42.8755091,0.681720779 C41.5862836,1.96100649 40.3730509,3.45974026 39.2375782,5.18084416 C38.1021055,6.90048701 37.0426255,8.82701299 36.0612,10.9592532 C36.2759236,11.0498377 36.4299709,11.2324675 36.52128,11.5062662 C36.6435164,11.9632792 36.5981564,12.359513 36.3843164,12.6935065 C36.1675309,13.0298377 35.8771091,13.3027597 35.5083382,13.5163636 C35.3245418,13.6387987 35.1704945,13.7144805 35.0491418,13.7451623 C34.8939164,14.4149026 34.7710909,15.0995455 34.6797818,15.8002597 C34.5875891,16.5006818 34.5101236,17.1707143 34.4485636,17.8097727 C34.7260255,17.2323701 35.0491418,16.6824351 35.4161455,16.1655195 C35.7843273,15.6480195 36.1834364,15.1834091 36.6137673,14.7713961 C37.0426255,14.3614286 37.5103636,14.0423377 38.0169818,13.8126623 C38.5241891,13.5841558 39.0540764,13.4710714 39.6054655,13.4710714 C40.1282836,13.4710714 40.5568473,13.5926299 40.8946909,13.8363312 C41.2319455,14.0797403 41.49468,14.3833442 41.6778873,14.7500649 C41.8619782,15.1141558 41.9924618,15.5343506 42.0699273,16.005974 C42.1468036,16.4778896 42.1839164,16.9574026 42.1839164,17.4442208 C42.1839164,19.4551948 41.7082255,21.411526 40.7556655,23.3135065 C39.8057564,25.2178247 38.6225673,27.2799351 37.2125782,29.5027597 C36.5371855,30.569026 35.8924255,31.6428896 35.2785927,32.7231818 C34.6638764,33.8046429 34.3557818,34.755487 34.3557818,35.5774675 C34.3557818,36.4310065 34.6797818,36.8567532 35.3245418,36.8567532 C35.6603236,36.8567532 35.9690073,36.7351948 36.2452909,36.4909091 C36.52128,36.2483766 36.7810691,35.9886039 37.0270145,35.7153896 C37.1807673,35.5026623 37.3339309,35.3106818 37.4879782,35.1432468 C37.64232,34.9766883 37.8408436,34.8171429 38.0859055,34.6646104 C38.5772073,34.2981818 39.0838255,34.1167208 39.6054655,34.1167208 C40.5568473,34.1167208 41.2319455,34.4808117 41.6322327,35.2130844 C41.7851018,35.4562013 41.8914327,35.7153896 41.9535818,35.9894805 C42.0142582,36.2638636 42.0752291,36.5224675 42.1373782,36.7655844 C41.7998291,36.8567532 41.4637527,36.9482143 41.1250255,37.0385065 C40.7860036,37.1305519 40.419,37.206526 40.0201855,37.2681818 C39.9892582,36.9935065 39.9209236,36.704513 39.8134145,36.4000325 C39.7056109,36.0946753 39.4817564,35.9438961 39.1453855,35.9438961 C38.5312582,35.9438961 37.9633745,36.1411364 37.4423236,36.5379545 C37.1351127,36.7810714 36.8205382,37.0177597 36.4983055,37.245974 C36.1748945,37.4733117 35.7690109,37.5884416 35.2785927,37.5884416 C34.75548,37.5884416 34.3345745,37.3891558 34.0120473,36.9943831 C33.6889309,36.5999026 33.5281091,36.1411364 33.5281091,35.6233442 C33.5281091,34.5573701 33.8423891,33.4534091 34.4733055,32.311461 C35.1009818,31.1698052 35.7377891,29.9457468 36.3843164,28.6357792 C36.8119964,27.7825325 37.2193527,26.9839286 37.6016727,26.2370455 C37.9869382,25.4916234 38.31624,24.7526299 38.5934073,24.0212338 C38.87028,23.2910065 39.0917782,22.5528896 39.2605527,21.8068831 C39.4296218,21.0602922 39.5123891,20.2912013 39.5123891,19.500487 C39.5123891,19.1343506 39.4914764,18.7462987 39.4452327,18.3342857 C39.3989891,17.9246104 39.3215236,17.5432792 39.2148982,17.1923377 C39.1065055,16.8437338 38.9462727,16.5617532 38.73096,16.3487338 C38.5165309,16.1357143 38.2540909,16.0293506 37.9489418,16.0293506 C37.0891636,16.0293506 36.3843164,16.4103896 35.8308655,17.1707143 C35.2785927,17.9322078 34.8173345,18.8453571 34.4485636,19.9116234 C34.3864145,20.0942532 34.3257382,20.2619805 34.2641782,20.4136364 C34.2023236,20.5652922 34.1419418,20.7181169 34.0809709,20.8700649 L33.85152,20.8700649 C33.7289891,20.8084091 33.6512291,20.6196429 33.6203018,20.2987987 C33.58908,19.9794156 33.5740582,19.6822403 33.5740582,19.4087338" id="Fill-4"></path>
                        <path d="M55.5359564,30.8737987 C55.5359564,31.6344156 55.4284473,32.4029221 55.2137236,33.1807792 C54.9981164,33.9560065 54.6900218,34.6494156 54.2932691,35.2580844 C53.8935709,35.8673377 53.4249491,36.3708117 52.8871091,36.7655844 C52.3516255,37.1606494 51.74604,37.3602273 51.06888,37.3602273 C50.1787636,37.3602273 49.41972,37.123539 48.7902764,36.6513312 C48.1614218,36.1797078 47.6465564,35.5707468 47.2477418,34.8238636 C46.8492218,34.0787338 46.5588,33.2476948 46.3732364,32.3342532 C46.18944,31.4213961 46.0975418,30.5389286 46.0975418,29.685974 C46.0975418,28.9542857 46.1968036,28.2231818 46.3956218,27.4938312 C46.5953236,26.7624351 46.8710182,26.1002922 47.22624,25.5071104 C47.5776327,24.9124675 48.0011891,24.4098701 48.4904291,23.9981494 C48.9826145,23.588474 49.5345927,23.3354221 50.14872,23.2451299 L50.1943745,22.6060714 L45.1767927,1.31931818 C44.96148,1.04668831 44.6846073,0.834545455 44.3479418,0.681720779 C44.2251164,0.620357143 44.1638509,0.566883117 44.1638509,0.521298701 L44.1638509,0.361753247 L48.3982364,0.361753247 L48.3982364,0.521298701 C48.3982364,0.566883117 48.3366764,0.620357143 48.2147345,0.681720779 C47.9405127,0.834545455 47.7552436,1.06188312 47.6621673,1.36636364 L50.79348,14.5206818 L51.6232145,3.96905844 C51.6532582,3.69525974 51.7056873,3.34665584 51.7831527,2.92003247 C51.8591455,2.49311688 51.9749018,2.06737013 52.1280655,1.63987013 C52.28064,1.21441558 52.4894727,0.849155844 52.7501455,0.544090909 C53.0105236,0.23961039 53.3404145,0.0873701299 53.7398182,0.0873701299 C53.9845855,0.0873701299 54.2013709,0.156623377 54.3845782,0.293084416 C54.5686691,0.43012987 54.7362655,0.589967532 54.8897236,0.772597403 C54.9518727,0.681720779 54.9981164,0.597857143 55.0293382,0.521298701 C55.0596764,0.445616883 55.1056255,0.361753247 55.1677745,0.270292208 C55.3200545,0.149025974 55.4658545,0.126818182 55.6045855,0.201623377 C55.7430218,0.278181818 55.8116509,0.421655844 55.8116509,0.635844156 C55.62756,0.909935065 55.4905964,1.25970779 55.39752,1.68603896 C55.3056218,2.11353896 55.2587891,2.5538961 55.2587891,3.01061688 C55.2587891,3.285 55.2964909,3.5587987 55.3739564,3.83288961 C55.44936,4.10727273 55.5053236,4.36616883 55.5359564,4.60987013 C55.5978109,4.94444805 55.6045855,5.22672078 55.5580473,5.45493506 C55.5115091,5.68256494 55.4593745,5.88886364 55.39752,6.0712013 C55.2735164,6.22461039 55.1677745,6.2474026 55.0749927,6.14045455 C54.9830945,6.03350649 54.9206509,5.93415584 54.8897236,5.84327922 C54.9518727,5.53850649 54.9612982,5.31 54.9150545,5.15805195 C54.8691055,5.00464286 54.8131418,4.85327922 54.7521709,4.70162338 C54.6900218,4.54967532 54.6367091,4.41146104 54.5922327,4.28931818 C54.5465782,4.16863636 54.4917927,4.03071429 54.4311164,3.87730519 C54.1548327,3.60409091 53.8935709,3.46704545 53.6473309,3.46704545 C53.3713418,3.46704545 53.1415964,3.67305195 52.9586836,4.08477273 C52.7728255,4.49561688 52.6196618,5.03590909 52.4962473,5.70594156 C52.3734218,6.37568182 52.2750436,7.12227273 52.1978727,7.94337662 C52.1204073,8.76681818 52.0511891,9.60428571 51.9911018,10.4560714 L50.9758036,23.2451299 C51.6847745,23.3354221 52.3206982,23.6328896 52.8871091,24.1357792 C53.4558764,24.6377922 53.9321564,25.2552273 54.3150655,25.9854545 C54.6988582,26.7165584 54.9981164,27.5093182 55.2137236,28.3616883 C55.4284473,29.2140584 55.5359564,30.0512338 55.5359564,30.8737987 L55.5359564,30.8737987 Z M49.5490255,24.2509091 C49.2132436,24.3406169 48.9513927,24.5618182 48.7681855,24.9124675 C48.5832109,25.2634091 48.4438909,25.6830195 48.3525818,26.1698377 C48.2598,26.6563636 48.2061927,27.181461 48.1914655,27.7445455 C48.1758545,28.3079221 48.16908,28.8338961 48.16908,29.3204221 C48.16908,30.1131818 48.2751164,30.9421753 48.4904291,31.8100325 C48.7057418,32.677013 48.9982255,33.4697727 49.3664073,34.1853896 C49.7334109,34.8998377 50.1546109,35.4646753 50.6320691,35.8743506 C51.1089382,36.2857792 51.6073091,36.4161039 52.1280655,36.2638636 C52.4352764,36.1712338 52.6803382,35.9512013 52.8656073,35.6011364 C53.0502873,35.2507792 53.18784,34.8238636 53.2800327,34.3218506 C53.3713418,33.8180844 53.4249491,33.2783766 53.44056,32.700974 C53.4558764,32.1224026 53.4629455,31.5742208 53.4629455,31.0552597 C53.4629455,30.4162013 53.4167018,29.7394481 53.3253927,29.0241234 C53.2334945,28.3079221 53.0876945,27.6302922 52.8871091,26.9909416 C52.6885855,26.3515909 52.4285018,25.7887987 52.1050909,25.3005195 C51.7831527,24.8137013 51.3757964,24.4782468 50.8844945,24.2962013 L50.5640291,28.8184091 C50.4412036,28.9703571 50.2871564,29.0314286 50.10336,29.0004545 C49.9189745,28.9703571 49.7952655,28.8794805 49.7334109,28.7266558 L50.0571164,24.1582792 C49.9646291,24.1582792 49.8806836,24.166461 49.8041018,24.1819481 C49.72752,24.1980195 49.6415127,24.2202273 49.5490255,24.2509091 L49.5490255,24.2509091 Z" id="Fill-5"></path>
                        <path d="M67.7822727,6.25383117 C67.6282255,7.22922078 67.29156,8.0436039 66.7690364,8.69785714 C66.2465127,9.3524026 65.6329745,9.68084416 64.9272436,9.68084416 C64.4980909,9.68084416 64.1142982,9.55051948 63.7758655,9.29133117 C63.4394945,9.03272727 63.1779382,8.75133117 62.9935527,8.44685065 C62.8704327,8.50850649 62.7487855,8.5912013 62.6262545,8.69785714 C62.5022509,8.80451299 62.4097636,8.91818182 62.3490873,9.03915584 C61.7043273,9.95376623 61.3214182,11.1120779 61.1982982,12.5111688 L61.1982982,35.5318831 C61.1982982,35.6844156 61.2212727,35.8603247 61.2672218,36.0578571 C61.31376,36.2556818 61.4592655,36.4310065 61.7043273,36.5826623 C61.8268582,36.6443182 61.8890073,36.6975 61.8890073,36.7419156 L61.8890073,36.9020455 L58.02192,36.9020455 L58.02192,36.7419156 C58.02192,36.6975 58.0828909,36.6443182 58.2060109,36.5826623 C58.4507782,36.4310065 58.5968727,36.2790584 58.6437055,36.1271104 C58.6899491,35.9745779 58.71204,35.7752922 58.71204,35.5318831 L58.71204,8.85827922 C58.71204,7.69938312 58.8422291,6.59600649 59.1034909,5.54581169 C59.3635745,4.49561688 59.7400036,3.56698052 60.2321891,2.75902597 C60.7229018,1.95311688 61.3214182,1.30587662 62.0277382,0.818474026 C62.7331745,0.331363636 63.5305091,0.0873701299 64.42092,0.0873701299 C65.4035236,0.0873701299 66.1708145,0.505811688 66.7233818,1.34444805 C67.2765382,2.18133117 67.6282255,3.10149351 67.7822727,4.10727273 C67.87476,4.83837662 67.87476,5.55399351 67.7822727,6.25383117 L67.7822727,6.25383117 Z M61.7043273,8.58418831 C61.85808,8.34077922 62.0730982,8.10438312 62.3490873,7.87558442 C62.6262545,7.64707792 62.8400945,7.50243506 62.9935527,7.44194805 C63.0545236,7.41185065 63.1473055,7.39577922 63.2710145,7.39577922 C63.3629127,7.63831169 63.4698327,7.82181818 63.5923636,7.94337662 C63.7146,8.06551948 63.8995745,8.12542208 64.1452255,8.12542208 C64.4515527,8.12542208 64.6980873,7.96762987 64.8812945,7.64707792 C65.06568,7.3274026 65.205,6.92327922 65.2966036,6.43646104 C65.4491782,5.64428571 65.4491782,4.74691558 65.2966036,3.74172078 C65.2656764,3.49801948 65.2117745,3.20902597 65.1348982,2.87386364 C65.0577273,2.5387013 64.9502182,2.22720779 64.8123709,1.93675325 C64.6748182,1.64892857 64.5134073,1.39762987 64.3281382,1.18373377 C64.1452255,0.971590909 63.9458182,0.864642857 63.7299164,0.864642857 C63.3629127,0.864642857 63.0165273,1.06188312 62.6954727,1.45724026 C62.3729455,1.85347403 62.1037309,2.35577922 61.8890073,2.96444805 C61.6734,3.57545455 61.5058036,4.2375974 61.3826836,4.95087662 C61.2595636,5.66737013 61.1982982,6.345 61.1982982,6.98464286 L61.1982982,9.54262987 C61.3214182,9.23844156 61.4910764,8.91818182 61.7043273,8.58418831 L61.7043273,8.58418831 Z" id="Fill-6"></path>
                        <path d="M80.8111964,36.9020455 L70.4072618,36.9020455 L70.4072618,36.7419156 C70.4072618,36.6975 70.4682327,36.6443182 70.5901745,36.5826623 C70.8358255,36.4310065 70.9825091,36.2790584 71.0287527,36.1256494 C71.0747018,35.9745779 71.0982655,35.7752922 71.0982655,35.5318831 L71.0982655,1.73133117 C71.0982655,1.57967532 71.0747018,1.4061039 71.0287527,1.20623377 C70.9825091,1.00928571 70.8358255,0.834545455 70.5901745,0.681720779 C70.4682327,0.620357143 70.4072618,0.566883117 70.4072618,0.521298701 L70.4072618,0.361753247 L74.2749382,0.361753247 L74.2749382,0.521298701 C74.2749382,0.566883117 74.2130836,0.620357143 74.0896691,0.681720779 C73.8440182,0.834545455 73.6993964,1.00928571 73.6531527,1.20623377 C73.6072036,1.4061039 73.5839345,1.57967532 73.5839345,1.73133117 L73.5839345,17.3533442 C74.1977673,17.6262662 74.7959891,17.9856818 75.3791891,18.4263312 C75.9615055,18.8681494 76.4065636,19.2711039 76.7140691,19.6366558 C77.0513236,20.0638636 77.3664873,20.6111688 77.6580873,21.2812013 C77.9496873,21.9518182 78.1950436,22.6668506 78.3944509,23.4280519 C78.5941527,24.1892532 78.77088,24.9279545 78.9234545,25.6438636 C79.0769127,26.3586039 79.1844218,26.9605519 79.2468655,27.4482468 C79.3393527,27.9955519 79.4230036,28.6275974 79.5001745,29.3437987 C79.5755782,30.0582468 79.6527491,30.781461 79.7296255,31.5128571 C79.8062073,32.243961 79.87572,32.9592857 79.9375745,33.6594156 C79.9991345,34.3610065 80.0601055,34.9845779 80.1210764,35.5318831 C80.15112,35.7460714 80.1826364,35.9357143 80.21268,36.1031494 C80.2427236,36.2705844 80.3808655,36.4310065 80.6279891,36.5826623 C80.7493418,36.6443182 80.8111964,36.6966234 80.8111964,36.7419156 L80.8111964,36.9020455 L80.8111964,36.9020455 Z M73.6770109,36.0809416 L77.3591236,36.0794805 C77.4209782,35.9894805 77.4516109,35.805974 77.4516109,35.5318831 C77.4209782,33.7055844 77.3823927,32.0142857 77.3358545,30.4612013 C77.2899055,28.9098701 77.1894655,27.3567857 77.0368909,25.8031169 C76.9747418,25.3168831 76.9058182,24.7526299 76.8298255,24.112987 C76.7529491,23.4736364 76.6295345,22.8339935 76.4604655,22.1946429 C76.2925745,21.5552922 76.0769673,20.9539286 75.816,20.3908442 C75.5562109,19.8283442 75.2401636,19.3783442 74.8734545,19.0425974 C74.6569636,18.8903571 74.44224,18.7462987 74.2286945,18.6086688 C74.0124982,18.4722078 73.79748,18.3427597 73.5839345,18.2209091 L73.5839345,35.5318831 L73.5839345,35.7831818 C73.5839345,35.8910065 73.6139782,35.9894805 73.6770109,36.0809416 L73.6770109,36.0809416 Z" id="Fill-7"></path>
                        <path d="M0.750207273,40.8243506 L2.07742909,43.8647727 L3.40906909,40.8243506 L4.15102909,44.6537338 L3.73483636,44.6537338 L3.26415273,42.202987 L3.25384364,42.202987 L2.07742909,44.8027597 L0.905138182,42.202987 L0.895123636,42.202987 L0.425912727,44.6537338 L0.00824727273,44.6537338 L0.750207273,40.8243506" id="Fill-8"></path>
                        <path d="M8.50146545,43.6257468 L8.05846909,44.6537338 L7.61458909,44.6537338 L9.29968364,40.8570779 L10.9420691,44.6537338 L10.4917091,44.6537338 L10.0607891,43.6257468 L8.50146545,43.6257468 L8.50146545,43.6257468 Z M9.29055273,41.7991558 L8.66376,43.2508442 L9.90114545,43.2508442 L9.29055273,41.7991558 L9.29055273,41.7991558 Z" id="Fill-9"></path>
                        <path d="M14.6760218,41.0294805 L15.3652582,41.0294805 C15.6383018,41.0332792 15.8910218,41.0622078 16.1195891,41.1177273 C16.3502182,41.1709091 16.5720109,41.2901299 16.7882073,41.4724675 C16.9999855,41.6483766 17.1528545,41.8558442 17.2488764,42.0925325 C17.3463709,42.3289286 17.3937927,42.5819805 17.3937927,42.8516883 C17.3937927,43.1140909 17.3460764,43.3601299 17.2482873,43.589513 C17.1478473,43.8183117 16.9999855,44.0222727 16.7982218,44.2022727 C16.5820255,44.3942532 16.3599382,44.5178571 16.1304873,44.5722078 C15.9013309,44.6268506 15.6421309,44.6537338 15.3546545,44.6537338 L14.6760218,44.6537338 L14.6760218,41.0294805 L14.6760218,41.0294805 Z M15.3799855,44.2791234 C15.6023673,44.2820455 15.8082545,44.2612987 15.9961745,44.2151299 C16.1855673,44.1686688 16.3637673,44.0652273 16.53372,43.9091883 C16.6845273,43.7680519 16.7979273,43.6055844 16.8750982,43.423539 C16.9502073,43.2412013 16.9887927,43.0480519 16.9887927,42.8473052 C16.9887927,42.638961 16.94844,42.4402597 16.8689127,42.2503247 C16.7887964,42.0615584 16.6715673,41.8987987 16.5131018,41.7608766 C16.3463891,41.6133117 16.1670109,41.5183442 15.9817418,41.4748052 C15.7964727,41.4312662 15.5958873,41.4105195 15.3799855,41.4105195 L15.0845564,41.4105195 L15.0845564,44.2791234 L15.3799855,44.2791234 L15.3799855,44.2791234 Z" id="Fill-10"></path>
                        <path d="M21.29976,41.0294805 L23.1936873,41.0294805 L23.1936873,41.4052597 L21.7062327,41.4052597 L21.7062327,42.4811688 L23.1506836,42.4811688 L23.1506836,42.8566558 L21.7062327,42.8566558 L21.7062327,44.2791234 L23.1936873,44.2791234 L23.1936873,44.6537338 L21.29976,44.6537338 L21.29976,41.0294805" id="Fill-11"></path>
                        <path id="Fill-12" d="M32.0633345,41.0294805 L32.4706909,41.0294805 L32.4706909,44.6534416 L32.0633345,44.6534416 L32.0633345,41.0294805 Z"></path>
                        <path d="M36.5740036,40.8757792 L39.4216691,43.8367208 L39.4216691,41.0294805 L39.8296145,41.0294805 L39.8296145,44.8162013 L36.9804764,41.8613961 L36.9804764,44.6537338 L36.5740036,44.6537338 L36.5740036,40.8757792" id="Fill-13"></path>
                        <path d="M49.1643491,44.6537338 L48.75552,44.6537338 L48.75552,41.0294805 L49.2839345,41.0294805 C49.6309091,41.0332792 49.9398873,41.099026 50.2129309,41.2264286 C50.48568,41.3552922 50.6211709,41.625 50.6211709,42.0343831 C50.6211709,42.3128571 50.5395818,42.5428247 50.3749309,42.7242857 C50.2105745,42.9051623 49.9876036,43.0086039 49.7066073,43.034026 L50.8682945,44.6537338 L50.3699236,44.6537338 L49.2659673,43.0632468 L49.1643491,43.0632468 L49.1643491,44.6537338 L49.1643491,44.6537338 Z M49.1643491,42.7076299 L49.2910036,42.7076299 C49.2930655,42.7102597 49.2957164,42.7117208 49.2974836,42.7117208 L49.3045527,42.7117208 C49.5304691,42.7117208 49.7390073,42.674026 49.9301673,42.5968831 C50.1201491,42.5200325 50.2144036,42.3403247 50.2144036,42.0612662 C50.2144036,41.7626299 50.1210327,41.578539 49.9342909,41.5084091 C49.7472545,41.4400325 49.5304691,41.4052597 49.2839345,41.4052597 L49.1643491,41.4052597 L49.1643491,42.7076299 L49.1643491,42.7076299 Z" id="Fill-14"></path>
                        <path d="M55.1179964,43.1880195 L55.1179964,43.2125649 L55.1179964,43.2359416 L55.1179964,43.3519481 C55.1179964,43.3896429 55.1191745,43.4293831 55.1224145,43.4717532 C55.1247709,43.5646753 55.13832,43.6567208 55.161,43.748474 C55.18368,43.8390584 55.2228545,43.9226299 55.27764,43.9994805 C55.3392,44.0865584 55.4181382,44.1572727 55.52064,44.2122078 C55.6199018,44.2656818 55.7235818,44.3048377 55.8305018,44.3267532 C55.8629018,44.333474 55.8944182,44.3381494 55.9250509,44.3416558 C55.9562727,44.3448701 55.9854327,44.3457468 56.0140036,44.3457468 C56.0363891,44.3457468 56.0590691,44.3454545 56.08116,44.3437013 C56.1035455,44.3422403 56.1274036,44.3401948 56.1483164,44.3369805 C56.2581818,44.3212013 56.3656909,44.2852597 56.4693709,44.2306169 C56.5721673,44.175974 56.6599418,44.1073052 56.7315164,44.024026 C56.8013236,43.9413312 56.8478618,43.8492857 56.87172,43.748474 C56.8938109,43.6470779 56.9067709,43.5436364 56.9094218,43.4381494 L56.9094218,43.3408442 L56.9094218,43.2508442 L56.9094218,43.221039 L56.9094218,43.1926948 L56.9094218,41.0294805 L57.3170727,41.0294805 L57.3170727,43.298474 C57.3170727,43.4971753 57.2994,43.6777597 57.2664109,43.8390584 C57.2331273,44.0012338 57.1424073,44.1572727 56.9974909,44.3077597 C56.87172,44.4424675 56.7220909,44.5441558 56.5494873,44.6134091 C56.376,44.6814935 56.1969164,44.715974 56.0140036,44.715974 L55.9721782,44.715974 C55.9577455,44.715974 55.9433127,44.714513 55.9268182,44.7118831 C55.7698255,44.7019481 55.6146,44.6660065 55.4640873,44.6055195 C55.3135745,44.5450325 55.1822073,44.4602922 55.0699855,44.3512987 C54.9112255,44.1999351 54.8116691,44.0392208 54.7713164,43.8676948 C54.7309636,43.696461 54.7112291,43.5085714 54.7112291,43.3037338 L54.7112291,41.0294805 L55.1179964,41.0294805 L55.1179964,43.1880195" id="Fill-15"></path>
                        <path d="M63.3573164,41.5303247 L63.0327273,41.7366234 C62.9617418,41.6147727 62.8780909,41.5192208 62.78148,41.4505519 C62.6836909,41.3818831 62.5582145,41.347987 62.4032836,41.347987 C62.2415782,41.347987 62.1001964,41.3991234 61.9800218,41.5031494 C61.85808,41.6083442 61.7974036,41.7427597 61.7974036,41.9099026 C61.7974036,42.0343831 61.8424691,42.135487 61.9311273,42.2146753 C62.02008,42.292987 62.1155127,42.3581494 62.2197818,42.4098701 C62.2457018,42.4227273 62.2698545,42.4344156 62.2975418,42.4458117 C62.3234618,42.4572078 62.3467309,42.4671429 62.37,42.4767857 L62.6109382,42.5778896 C62.8509927,42.6830844 63.0562909,42.809026 63.2300727,42.9516234 C63.4026764,43.0965584 63.4886836,43.3130844 63.4886836,43.6012013 C63.4886836,43.9188312 63.3767564,44.1841558 63.1523127,44.3971753 C62.9284582,44.6096104 62.6574764,44.715974 62.3396618,44.715974 C62.046,44.715974 61.7974036,44.6312338 61.5944618,44.461461 C61.39152,44.2919805 61.2601527,44.0652273 61.2027164,43.7838312 L61.6000582,43.6681169 C61.6256836,43.8580519 61.7037382,44.0178896 61.8359891,44.1493831 C61.9688291,44.2805844 62.13348,44.3457468 62.3308255,44.3457468 C62.5269927,44.3457468 62.7028364,44.28 62.8539382,44.146461 C63.0062182,44.0146753 63.0822109,43.8451948 63.0822109,43.6397727 C63.0822109,43.4346429 63.0153491,43.2841558 62.8848655,43.1880195 C62.7543818,43.0921753 62.6068145,43.0071429 62.4418691,42.9337987 C62.4356836,42.93 62.4309709,42.9276623 62.4247855,42.9259091 C62.4206618,42.9244481 62.41536,42.921526 62.4085855,42.9194805 L62.1850255,42.8180844 C61.9729527,42.7245779 61.7868,42.6126623 61.6283345,42.4811688 C61.4695745,42.3505519 61.39152,42.1541883 61.39152,41.8952922 C61.39152,41.6130195 61.4931382,41.3886039 61.6987309,41.2223377 C61.9040291,41.0560714 62.1423164,40.9727922 62.4135927,40.9727922 C62.6174182,40.9727922 62.8003309,41.0215909 62.9658655,41.1186039 C63.1305164,41.2170779 63.2612945,41.3552922 63.3573164,41.5341234 L63.3573164,41.5303247" id="Fill-16"></path>
                        <path d="M69.40404,41.5303247 L69.0797455,41.7366234 C69.0081709,41.6147727 68.9242255,41.5192208 68.8264364,41.4505519 C68.7310036,41.3818831 68.6043491,41.347987 68.4500073,41.347987 C68.2880073,41.347987 68.14692,41.3991234 68.0249782,41.5031494 C67.9042145,41.6083442 67.8444218,41.7427597 67.8444218,41.9099026 C67.8444218,42.0343831 67.8874255,42.135487 67.9772618,42.2146753 C68.0653309,42.292987 68.1625309,42.3581494 68.2650327,42.4098701 C68.2909527,42.4227273 68.3171673,42.4344156 68.3424982,42.4458117 C68.3678291,42.4572078 68.3919818,42.4671429 68.4149564,42.4767857 L68.6570727,42.5778896 C68.8959491,42.6830844 69.1024255,42.809026 69.2747345,42.9516234 C69.4470436,43.0965584 69.5339345,43.3130844 69.5339345,43.6012013 C69.5339345,43.9188312 69.4220073,44.1841558 69.1969745,44.3971753 C68.9725309,44.6096104 68.7021382,44.715974 68.3869745,44.715974 C68.0930182,44.715974 67.8444218,44.6312338 67.6405964,44.461461 C67.4364764,44.2919805 67.3054036,44.0652273 67.2476727,43.7838312 L67.6444255,43.6681169 C67.6703455,43.8580519 67.7501673,44.0178896 67.8830073,44.1493831 C68.0152582,44.2805844 68.1799091,44.3457468 68.3760764,44.3457468 C68.5746,44.3457468 68.7472036,44.28 68.9003673,44.146461 C69.05088,44.0146753 69.1271673,43.8451948 69.1271673,43.6397727 C69.1271673,43.4346429 69.0629564,43.2841558 68.9315891,43.1880195 C68.8005164,43.0921753 68.6529491,43.0071429 68.4882982,42.9337987 C68.4818182,42.93 68.4750436,42.9276623 68.4703309,42.9259091 C68.4662073,42.9244481 68.4600218,42.921526 68.4532473,42.9194805 L68.23116,42.8180844 C68.01732,42.7245779 67.8317564,42.6126623 67.6744691,42.4811688 C67.5160036,42.3505519 67.4364764,42.1541883 67.4364764,41.8952922 C67.4364764,41.6130195 67.5395673,41.3886039 67.7445709,41.2223377 C67.9483964,41.0560714 68.1872727,40.9727922 68.4588436,40.9727922 C68.6614909,40.9727922 68.8470545,41.0215909 69.0105273,41.1186039 C69.1748836,41.2170779 69.3062509,41.3552922 69.40404,41.5341234 L69.40404,41.5303247" id="Fill-17"></path>
                        <path id="Fill-18" d="M73.4773091,41.0294805 L73.8837818,41.0294805 L73.8837818,44.6531494 L73.4773091,44.6531494 L73.4773091,41.0294805 Z"></path>
                        <path d="M78.5102073,43.6254545 L78.0695673,44.6534416 L77.6236255,44.6534416 L79.3098982,40.8570779 L80.9528727,44.6534416 L80.5022182,44.6534416 L80.0704145,43.6254545 L78.5102073,43.6254545 L78.5102073,43.6254545 Z M79.3007673,41.7991558 L78.6751527,43.2505519 L79.9104764,43.2505519 L79.3007673,41.7991558 L79.3007673,41.7991558 Z" id="Fill-19"></path>
                    </g>
                </g>
            </g>
        </g>
    </g>
</svg>