<?xml version="1.0" encoding="UTF-8" standalone="no"?>
<svg width="92px" height="45px" viewBox="0 0 92 45" version="1.1" xmlns="http://www.w3.org/2000/svg" xmlns:xlink="http://www.w3.org/1999/xlink" xmlns:sketch="http://www.bohemiancoding.com/sketch/ns">
    <!-- Generator: Sketch 3.2.2 (9983) - http://www.bohemiancoding.com/sketch -->
    <title>Group</title>
    <desc>Created with Sketch.</desc>
    <defs>
        <path id="path-1" d="M0,0.130714286 L91.9429971,0.130714286 L91.9429971,44.9839286 L0,44.9839286 L0,0.130714286 Z"></path>
    </defs>
    <g id="Page-1" stroke="none" stroke-width="1" fill="none" fill-rule="evenodd" sketch:type="MSPage">
        <g id="Партнёры" sketch:type="MSArtboardGroup" transform="translate(-1293.000000, -1719.000000)">
            <g id="2_block" sketch:type="MSLayerGroup" transform="translate(469.000000, 142.000000)">
                <g id="5" transform="translate(0.000000, 1476.000000)">
                    <g id="8" transform="translate(824.000000, 101.000000)">
                        <g id="Group">
                            <path d="M37.9570259,38.9191071 C37.707804,38.8245536 37.4601729,38.7771429 37.2154582,38.7889286 C36.6213026,38.8173214 36.3614755,39.2544643 36.4269625,40.6548214 C36.4905937,42.020625 36.7909856,42.4545536 37.3034813,42.4296429 C37.5948588,42.4157143 37.8920692,42.2839286 38.1036427,42.0616071 L37.9570259,38.9191071 L37.9570259,38.9191071 Z M40.2037349,43.0234821 C40.206121,43.0824107 40.1602536,43.0960714 40.0807147,43.1357143 L38.9801614,43.576875 C38.8998271,43.6044643 38.8417637,43.6191964 38.7837003,43.621875 C38.6556427,43.6280357 38.5286455,43.4215179 38.4318732,43.0840179 C37.9493372,43.5083036 37.4227896,43.7335714 36.8983631,43.75875 C35.546732,43.8230357 34.8041037,42.6666964 34.7224438,40.9130357 C34.6214294,38.7474107 35.4205303,37.6004464 36.8766225,37.5310714 C37.2260634,37.5144643 37.5444841,37.5819643 37.9024092,37.7416071 L37.7952968,35.446875 C37.7891988,35.3169643 37.7992738,35.2813393 37.926536,35.2516071 L39.369902,34.9119643 C39.404634,34.9100893 39.4279654,34.8972321 39.4510317,34.8958929 C39.5324265,34.8921429 39.5695447,34.9371429 39.5767032,35.090625 L39.8948588,41.9057143 C39.9179251,42.3999107 40.0062133,42.5488393 40.16317,42.9072321 C40.1886225,42.9535714 40.2024092,42.9999107 40.2037349,43.0234821 L40.2037349,43.0234821 Z" id="Fill-1" fill="#B6B9B5" sketch:type="MSShapeGroup"></path>
                            <path d="M43.4213487,38.4109821 C42.8738559,38.4372321 42.6662594,38.7417857 42.5896369,39.6066964 L44.2557118,39.5276786 C44.1801499,38.6582143 43.9460403,38.3860714 43.4213487,38.4109821 L43.4213487,38.4109821 Z M45.8141441,40.6449107 L42.6336484,40.7959821 C42.7224669,41.7 43.1021326,42.0830357 43.8129452,42.0492857 C44.3837695,42.0222321 44.7843804,41.8497321 45.2268818,41.5813393 C45.2727493,41.5553571 45.3180865,41.5296429 45.3533487,41.5280357 C45.4114121,41.5250893 45.4596657,41.5580357 45.5097752,41.638125 L45.9435274,42.42 C45.9687147,42.4540179 45.9819712,42.4891071 45.983562,42.5244643 C46.0039769,42.9597321 44.3315389,43.4051786 43.7840461,43.430625 C41.9665821,43.5176786 40.9821556,42.4435714 40.8917464,40.5016071 C40.805049,38.6416071 41.7698559,37.2983036 43.4354006,37.2190179 C45.125072,37.1383929 45.9589049,38.2430357 46.0596542,40.3971429 C46.069464,40.6090179 46.0005303,40.6360714 45.8141441,40.6449107 L45.8141441,40.6449107 Z" id="Fill-2" fill="#B6B9B5" sketch:type="MSShapeGroup"></path>
                            <path d="M49.1778444,43.1742857 C48.3392392,43.2141964 46.795389,42.9101786 46.7800115,42.5804464 C46.7778905,42.5335714 46.7874352,42.4858929 46.8073199,42.4141071 L47.0538905,41.4353571 C47.0735101,41.3635714 47.1069164,41.3263393 47.1649798,41.3233929 C47.2002421,41.3217857 47.24717,41.3314286 47.2837579,41.3533929 C47.7721268,41.5658036 48.5314582,41.8245536 48.9742248,41.8033929 C49.3236657,41.7873214 49.5376254,41.6236607 49.5235735,41.3177679 C49.5092565,41.0116071 49.2488991,40.929375 48.596415,40.7129464 C47.3622363,40.2878571 46.8579597,39.9934821 46.8091758,38.9458929 C46.7548242,37.7807143 47.6769452,37.0173214 48.9466513,36.9565179 C49.7157925,36.9203571 50.8831585,37.1710714 50.8950893,37.4303571 C50.8969452,37.4657143 50.8876657,37.5133929 50.8661902,37.5613393 L50.5472392,38.4846429 C50.5156888,38.5572321 50.4942133,38.5936607 50.4472853,38.5958036 C50.424219,38.5971429 50.3886916,38.5866964 50.3417637,38.5773214 C49.9379712,38.4313393 49.4517233,38.2655357 49.1017522,38.2824107 C48.7287147,38.3000893 48.4672968,38.4423214 48.481879,38.7602679 C48.496196,39.0658929 48.7215562,39.1379464 49.2788588,39.3238393 C50.6904092,39.7995536 51.1750663,40.1657143 51.2217291,41.1776786 C51.2782017,42.3902679 50.4244841,43.1150893 49.1778444,43.1742857" id="Fill-3" fill="#B6B9B5" sketch:type="MSShapeGroup"></path>
                            <g id="Group-7">
                                <mask id="mask-2" sketch:name="Clip 5" fill="white">
                                    <use xlink:href="#path-1"></use>
                                </mask>
                                <g id="Clip-5"></g>
                                <path d="M53.233268,36.2335714 C52.615781,36.2633036 52.1255562,35.7675 52.0974524,35.1672321 C52.0704092,34.5782143 52.5123804,34.03875 53.141268,34.0090179 C53.7584899,33.9790179 54.2603804,34.4742857 54.2879539,35.0627679 C54.3041268,35.6635714 53.8740865,36.2033036 53.233268,36.2335714 L53.233268,36.2335714 Z M54.3067781,42.7296429 L52.8970836,42.796875 C52.7337637,42.804375 52.6985014,42.7941964 52.6905476,42.6297321 L52.4924957,38.3804464 L51.746951,38.4160714 C51.5952968,38.4233036 51.5589741,38.3892857 51.5518156,38.2366071 L51.5046225,37.224375 C51.4969337,37.059375 51.5306052,37.0341964 51.6822594,37.0272321 L54.0360807,36.9152679 C54.1988703,36.9075 54.2232622,36.9297321 54.2306859,37.0947321 L54.4849452,42.5442857 C54.4928991,42.7208036 54.4812334,42.7213393 54.3067781,42.7296429 L54.3067781,42.7296429 Z" id="Fill-4" fill="#B6B9B5" sketch:type="MSShapeGroup" mask="url(#mask-2)"></path>
                                <path d="M58.6928184,38.1324107 C58.4401499,37.9676786 58.2497867,37.8940179 57.9581441,37.9082143 C57.469245,37.9309821 57.1569222,38.5004464 57.209683,39.6305357 C57.2619135,40.7488393 57.5888184,41.2521429 58.0201844,41.2315179 C58.3576945,41.2154464 58.6082421,41.0740179 58.8198156,40.8514286 L58.6928184,38.1324107 L58.6928184,38.1324107 Z M60.4805879,38.4133929 L60.562513,40.1673214 C60.6017522,41.0145536 60.6876542,41.8478571 60.7263631,42.6835714 C60.7929107,44.1080357 59.9670317,44.9258036 58.452611,44.9978571 C57.870121,45.0257143 55.9203573,44.7763393 55.9017983,44.3879464 C55.901268,44.364375 55.9105476,44.3282143 55.9203573,44.2808036 L56.1762075,43.2538393 C56.1963573,43.1823214 56.2416945,43.1566071 56.2883573,43.1539286 C56.334755,43.1520536 56.3944092,43.1729464 56.4651988,43.1933036 C57.060415,43.43625 57.6633199,43.5961607 58.2688761,43.5675 C58.8049683,43.5417857 58.9948012,43.3558929 58.9664323,42.7438393 C58.9608646,42.62625 58.9094294,42.2745536 58.8762882,42.0758036 C58.5149164,42.3289286 58.1363112,42.4767857 57.6932795,42.4976786 C56.3657752,42.5608929 55.5809914,41.5130357 55.5014524,39.80625 C55.4142248,37.935 56.1698444,36.613125 57.6381326,36.5429464 C58.1506282,36.5188393 58.5300288,36.6423214 58.9542363,36.9760714 C59.0693026,36.6875893 59.2201614,36.4205357 59.3718156,36.4133036 C59.3834813,36.4130357 59.4070778,36.4234821 59.4187435,36.4229464 L60.6447032,36.6715179 C60.703562,36.6803571 60.7176138,36.7266964 60.7202651,36.785625 C60.7239769,36.868125 60.6823516,36.9763393 60.6728069,37.02375 C60.529902,37.4673214 60.458317,37.9307143 60.4805879,38.4133929 L60.4805879,38.4133929 Z" id="Fill-6" fill="#B6B9B5" sketch:type="MSShapeGroup" mask="url(#mask-2)"></path>
                            </g>
                            <path d="M67.0056945,42.1253571 L65.5726686,42.1936607 C65.3982133,42.2016964 65.3852219,42.1786607 65.3777983,42.0141964 L65.2044035,38.2947321 C65.1797464,37.7651786 65.0047608,37.5254464 64.6319885,37.5433929 C64.3408761,37.5573214 64.1009337,37.6749107 63.7655447,37.985625 L63.9567032,42.09375 C63.9638617,42.2464286 63.9649222,42.27 63.778536,42.2791071 L62.3455101,42.3471429 C62.1824553,42.3549107 62.1699942,42.3321429 62.1625706,42.1789286 L61.9798963,38.2596429 C61.9525879,37.670625 61.8271816,37.2401786 61.6842767,36.9283929 C61.6590893,36.8825893 61.6450375,36.8359821 61.6434467,36.8008929 C61.6405303,36.7419643 61.6744669,36.7165179 61.7550663,36.6894643 L62.9274697,36.2914286 C62.9847378,36.2649107 63.0420058,36.2504464 63.0889337,36.2483036 C63.2519885,36.2408036 63.402317,36.4575 63.5651066,36.945 C64.0786628,36.4374107 64.5932795,36.2121429 65.2110317,36.1829464 C66.3874121,36.1264286 66.9298674,36.7497321 66.9897867,38.0209821 L67.1716657,41.92875 C67.1796196,42.0932143 67.1573487,42.118125 67.0056945,42.1253571" id="Fill-8" fill="#B6B9B5" sketch:type="MSShapeGroup"></path>
                            <path d="M70.6491066,37.115625 C70.1013487,37.1413393 69.8937522,37.4464286 69.8173948,38.3110714 L71.4834697,38.2317857 C71.4079078,37.3623214 71.1735331,37.0904464 70.6491066,37.115625 L70.6491066,37.115625 Z M73.041902,39.3492857 L69.8608761,39.5003571 C69.9496945,40.4041071 70.3296254,40.7874107 71.040438,40.7536607 C71.6115274,40.7266071 72.0118732,40.5541071 72.4549049,40.2851786 C72.5002421,40.2594643 72.5458444,40.23375 72.5811066,40.2324107 C72.63917,40.2294643 72.6871585,40.2624107 72.7377983,40.3427679 L73.1710202,41.124375 C73.1962075,41.1583929 73.2097291,41.1932143 73.2113199,41.2283036 C73.2314697,41.6641071 71.5587666,42.1092857 71.0115389,42.135 C69.1938098,42.2217857 68.2099135,41.1479464 68.1192392,39.2059821 C68.0325418,37.34625 68.9973487,36.0024107 70.6631585,35.923125 C72.35283,35.8427679 73.1866628,36.9471429 73.287147,39.1015179 C73.2966916,39.313125 73.2277579,39.3404464 73.041902,39.3492857 L73.041902,39.3492857 Z" id="Fill-9" fill="#B6B9B5" sketch:type="MSShapeGroup"></path>
                            <path d="M78.0926225,35.9825893 C78.0952738,36.04125 78.0748588,36.10125 78.0533833,36.15 L77.7177291,37.2152679 C77.6978444,37.2873214 77.6652334,37.3358036 77.6069049,37.33875 C77.4555159,37.3459821 77.2715159,37.1659821 76.9806686,37.1796429 C76.7359539,37.1916964 76.5543401,37.3063393 76.2446686,37.6746429 L76.4223055,41.4883929 C76.4310548,41.6764286 76.4196542,41.6772321 76.2446686,41.6860714 L74.8119078,41.7541071 C74.6485879,41.7616071 74.6371873,41.7621429 74.628438,41.5738393 L74.4598156,37.9604464 C74.4213718,37.13625 74.0406455,36.4821429 74.0289798,36.2349107 C74.0268588,36.1877679 74.0480692,36.1395536 74.1286686,36.1122321 L75.2326686,35.7530357 C75.3013372,35.7259821 75.335804,35.7128571 75.3938674,35.7099107 C75.568853,35.7016071 75.7342939,36.0005357 75.8981441,36.4998214 C76.4087839,35.9333036 76.6516427,35.6383929 77.2460634,35.61 C77.5721729,35.5944643 77.8805187,35.6975893 78.0531182,35.8901786 C78.0777752,35.9244643 78.0907666,35.9469643 78.0926225,35.9825893" id="Fill-10" fill="#B6B9B5" sketch:type="MSShapeGroup"></path>
                            <path d="M79.7311239,41.6108036 C79.0905706,41.6416071 78.5409568,41.1369643 78.510732,40.4890179 C78.4810375,39.841875 78.9805418,39.2874107 79.6216254,39.2566071 C80.2619135,39.2263393 80.810732,39.7309821 80.8409568,40.3786607 C80.8714467,41.0260714 80.3716772,41.5805357 79.7311239,41.6108036" id="Fill-11" fill="#E0555A" sketch:type="MSShapeGroup"></path>
                            <path d="M27.5668588,19.3858929 C26.3329452,19.3858929 25.7525764,20.3389286 25.7525764,23.1492857 C25.7525764,25.9103571 26.3329452,26.8633929 27.5668588,26.8633929 C28.8005072,26.8633929 29.3567493,25.8859821 29.3567493,23.1249107 C29.3567493,20.3633036 28.8005072,19.3858929 27.5668588,19.3858929" id="Fill-12" fill="#E0555A" sketch:type="MSShapeGroup"></path>
                            <path d="M27.5907205,29.57625 C23.9868127,29.57625 21.9792507,27.1079464 21.9792507,23.1002679 C21.9792507,19.2147321 24.0597233,16.6733036 27.6151124,16.6733036 C31.1466398,16.6733036 33.1544669,19.1903571 33.1544669,23.1492857 C33.1544669,27.0101786 31.0742594,29.57625 27.5907205,29.57625 L27.5907205,29.57625 Z M20.4287723,22.4895536 C20.4287723,22.8313393 20.3563919,22.9047321 20.0419481,22.9047321 L19.1227435,22.9047321 L19.1227435,27.5721429 C19.1227435,27.9632143 18.9774524,28.0366071 18.5906282,28.3055357 C17.4052334,29.1361607 15.5185706,29.57625 13.8254524,29.57625 C9.20556772,29.57625 7.14975216,26.5457143 7.14975216,20.7297321 C7.14975216,17.773125 7.70572911,15.57375 9.03614986,14.0341071 C10.1971527,12.6902679 11.8176254,11.9815179 13.7528069,11.9815179 C15.4944438,11.9815179 17.5261326,12.4459821 18.469464,13.39875 C18.6388818,13.5699107 18.7356542,13.7410714 18.7356542,13.9363393 L18.7356542,17.0890179 C18.7356542,17.4310714 18.6871354,17.5041964 18.3485648,17.5041964 L15.9056599,17.5041964 C15.5670893,17.5041964 15.4944438,17.4310714 15.4944438,17.0890179 L15.4944438,15.3782143 C14.9382017,15.1826786 14.5511124,15.1095536 13.9948703,15.1095536 C12.301487,15.1095536 11.164611,16.6486607 11.164611,20.4123214 C11.164611,22.4895536 11.3828127,24.0776786 11.7934986,24.9816964 C12.2291066,25.935 13.0274121,26.3504464 14.0913775,26.3504464 C14.5511124,26.3504464 14.9864553,26.2526786 15.4944438,26.0571429 L15.4944438,22.9047321 L13.9707435,22.9047321 C13.5112738,22.9047321 13.4624899,22.8559821 13.4624899,22.3915179 L13.4624899,20.5344643 C13.4624899,20.07 13.5112738,20.0458929 13.9707435,20.0458929 L20.0419481,20.0458929 C20.3563919,20.0458929 20.4287723,20.11875 20.4287723,20.4608036 L20.4287723,22.4895536 L20.4287723,22.4895536 Z M19.8611297,0.130714286 C8.89244957,0.130714286 0,9.11464286 0,20.1961607 C0,31.2782143 8.89244957,40.261875 19.8611297,40.261875 C20.7747666,40.261875 21.6735562,40.1983929 22.554317,40.0778571 L30.1810375,44.8291071 L31.9719885,36.0996429 C36.6849337,32.4305357 39.7227896,26.6724107 39.7227896,20.1961607 C39.7227896,9.11464286 30.8303401,0.130714286 19.8611297,0.130714286 L19.8611297,0.130714286 Z" id="Fill-13" fill="#E0555A" sketch:type="MSShapeGroup"></path>
                            <g id="Group-17" fill="#B6B9B5" sketch:type="MSShapeGroup">
                                <path d="M85.9629971,35.5990179 C85.9661787,35.6576786 85.9454986,35.7171429 85.9253487,35.765625 L85.5989741,36.8308929 C85.5796196,36.9021429 85.547804,36.9511607 85.4892104,36.9546429 C85.3386167,36.9624107 85.1538213,36.7842857 84.8640346,36.800625 C84.6201153,36.8140179 84.4403573,36.9302679 84.1346628,37.2996429 L84.3409337,41.0986607 C84.3507435,41.2864286 84.3393429,41.2869643 84.1648876,41.296875 L82.7374294,41.3758929 C82.5754352,41.385 82.5635043,41.3855357 82.5534294,41.1977679 L82.3580288,37.5983036 C82.3132219,36.7773214 81.9287839,36.1285714 81.9152622,35.8821429 C81.912611,35.8352679 81.9332911,35.7875893 82.0133602,35.7591964 L83.1112622,35.3925 C83.1791354,35.3649107 83.2136023,35.3515179 83.272196,35.3483036 C83.4455908,35.3383929 83.6128876,35.6349107 83.7799193,36.13125 C84.2844611,35.5623214 84.5246686,35.266875 85.116438,35.2339286 C85.4420173,35.21625 85.7498329,35.3166964 85.9226974,35.5066071 C85.9476196,35.5408929 85.9611412,35.5636607 85.9629971,35.5990179" id="Fill-14"></path>
                                <path d="M91.942732,40.6658036 C91.9453833,40.7126786 91.9233775,40.7373214 91.8544438,40.7528571 L90.6146974,41.0804464 C90.5576945,41.0957143 90.5346282,41.0965179 90.4760346,41.1 C90.3137752,41.1088393 90.1976484,40.903125 90.0733026,40.5458036 C89.6331873,41.0172321 89.2137522,41.2170536 88.5867205,41.251875 C87.9718847,41.2858929 87.4509049,41.1265179 87.1184323,40.7922321 C86.7125187,40.3915179 86.6377522,40.0896429 86.5810144,39.0340179 L86.3954236,35.6217857 C86.3856138,35.4460714 86.3959539,35.4219643 86.5457522,35.3903571 L87.9384784,35.1008036 C87.984611,35.0986607 88.0190778,35.0847321 88.0424092,35.0833929 C88.1354697,35.0788393 88.1611873,35.124375 88.1688761,35.265 L88.3762075,39.0873214 C88.4096138,39.6972321 88.5501326,39.9366964 88.9913084,39.9123214 C89.3046916,39.8946429 89.5539135,39.7633929 89.818513,39.4899107 L89.5979251,35.4324107 C89.5883804,35.2566964 89.5984553,35.2325893 89.7482536,35.20125 L91.1417752,34.9240179 C91.1990432,34.90875 91.2337752,34.906875 91.2687723,34.9044643 C91.3501671,34.9004464 91.3647493,34.9467857 91.3719078,35.0874107 L91.603366,39.3439286 C91.6351816,39.93 91.7216138,40.2428571 91.8891758,40.539375 C91.9151585,40.5846429 91.9408761,40.6304464 91.942732,40.6658036" id="Fill-16"></path>
                            </g>
                        </g>
                    </g>
                </g>
            </g>
        </g>
    </g>
</svg>