<?xml version="1.0" encoding="UTF-8" standalone="no"?>
<svg width="72px" height="100px" viewBox="0 0 72 100" version="1.1" xmlns="http://www.w3.org/2000/svg" xmlns:xlink="http://www.w3.org/1999/xlink" xmlns:sketch="http://www.bohemiancoding.com/sketch/ns">
    <!-- Generator: Sketch 3.2.2 (9983) - http://www.bohemiancoding.com/sketch -->
    <title>2</title>
    <desc>Created with Sketch.</desc>
    <defs></defs>
    <g id="Page-1" stroke="none" stroke-width="1" fill="none" fill-rule="evenodd" sketch:type="MSPage">
        <g id="Партнёры" sketch:type="MSArtboardGroup" transform="translate(-797.000000, -234.000000)">
            <g id="2_block" sketch:type="MSLayerGroup" transform="translate(469.000000, 142.000000)">
                <g id="1" sketch:type="MSShapeGroup">
                    <g id="2" transform="translate(328.000000, 92.000000)">
                        <path d="M52.9443529,49.8 L52.9443529,31.7673575 L36.9862941,40.7829016 L52.9443529,49.8" id="Fill-1" fill="#E05437"></path>
                        <path d="M36.6077647,62.4580311 L36.6077647,80.4906736 L52.5637059,71.4735751 L36.6077647,62.4580311" id="Fill-2" fill="#E05437"></path>
                        <path d="M36.6077647,41.4279793 L36.6077647,60.742487 L53.7268235,51.0860104 L36.6077647,41.4279793" id="Fill-3" fill="#E05437"></path>
                        <path d="M71.5521176,43.1404145 L56.3532353,51.7264249 L71.5521176,60.3160622 L71.5521176,43.1404145" id="Fill-4" fill="#E05437"></path>
                        <path d="M54.081,70.6170984 L54.081,51.7264249 L36.6077647,61.6020725 L53.3223529,71.0466321 L54.081,70.6170984" id="Fill-5" fill="#E05437"></path>
                        <path d="M54.8385882,51.7264249 L54.8385882,70.1906736 L71.1735882,60.957513 L54.8385882,51.7264249" id="Fill-6" fill="#E05437"></path>
                        <path d="M36.2297647,39.5 L52.1862353,30.4813472 L36.2297647,21.4668394 L36.2297647,39.5" id="Fill-7" fill="#E05437"></path>
                        <path d="M18.7549412,49.8 L34.7124706,40.7829016 L18.7549412,31.7673575 L18.7549412,49.8" id="Fill-8" fill="#E05437"></path>
                        <path d="M35.4705882,21.4668394 L19.5146471,30.4813472 L35.4705882,39.5 L35.4705882,21.4668394" id="Fill-9" fill="#E05437"></path>
                        <path d="M35.0915294,41.4279793 L18.7549412,50.6564767 L17.9571176,51.0860104 L35.0915294,60.742487 L35.0915294,41.4279793" id="Fill-10" fill="#E05437"></path>
                        <path d="M35.0915294,62.4580311 L19.1345294,71.4735751 L35.0915294,80.4906736 L35.0915294,62.4580311" id="Fill-11" fill="#E05437"></path>
                        <path d="M17.6182941,51.7264249 L17.6182941,70.6170984 L18.3758824,71.0466321 L35.0915294,61.6020725 L17.6182941,51.7264249" id="Fill-12" fill="#E05437"></path>
                        <path d="M0.145588235,60.3160622 L15.3439412,51.7264249 L0.145588235,43.1404145 L0.145588235,60.3160622" id="Fill-13" fill="#E05437"></path>
                        <path d="M16.8607059,51.7264249 L16.8607059,51.7264249 L0.525176471,60.957513 L16.8607059,70.1906736 L16.8607059,51.7264249" id="Fill-14" fill="#E05437"></path>
                        <path d="M17.6182941,10.5233161 L17.6182941,28.1253886 L33.9543529,18.8963731 L18.3758824,10.0948187 L17.6182941,10.5233161" id="Fill-15" fill="#4DBFE2"></path>
                        <path d="M15.723,31.3388601 L0.525176471,39.9259067 L15.723,48.5165803 L15.723,31.3388601" id="Fill-16" fill="#4DBFE2"></path>
                        <path d="M0.145588235,39.2839378 L15.723,30.4813472 L15.723,30.0554404 L0.145588235,21.253886 L0.145588235,39.2839378" id="Fill-17" fill="#4DBFE2"></path>
                        <path d="M16.8607059,28.5533679 L16.8607059,10.9492228 L0.903705882,19.9658031 L16.4811176,28.7683938 L16.8607059,28.5533679" id="Fill-18" fill="#4DBFE2"></path>
                        <path d="M71.5521176,21.253886 L55.9747059,30.0554404 L55.9747059,30.4813472 L71.5521176,39.2839378 L71.5521176,21.253886" id="Fill-19" fill="#4DBFE2"></path>
                        <path d="M54.8385882,28.5533679 L55.2160588,28.7683938 L70.7950588,19.9658031 L54.8385882,10.9492228 L54.8385882,28.5533679" id="Fill-20" fill="#4DBFE2"></path>
                        <path d="M55.9747059,48.5165803 L71.1735882,39.9259067 L55.9747059,31.3388601 L55.9747059,48.5165803" id="Fill-21" fill="#4DBFE2"></path>
                        <path d="M54.081,10.5233161 L53.3223529,10.0948187 L37.7444118,18.8963731 L54.081,28.1253886 L54.081,10.5233161" id="Fill-22" fill="#4DBFE2"></path>
                        <path d="M37.0042941,18.4580311 L52.5637059,9.66476684 L36.2297647,0.435233161 L36.2297647,18.0186528 L37.0042941,18.4580311" id="Fill-23" fill="#4DBFE2"></path>
                        <path d="M35.4705882,18.0238342 L35.4705882,0.435233161 L19.1345294,9.66476684 L34.6997647,18.4606218 L35.4705882,18.0238342" id="Fill-24" fill="#4DBFE2"></path>
                        <path d="M8.748,89.7165803 L3.34905882,89.7165803 L3.34905882,99.8202073 L0.145588235,99.8202073 L0.145588235,87.3352332 L8.748,87.3352332 L8.748,89.7165803" id="Fill-25" fill="#FFFFFF"></path>
                        <path d="M18.6845294,99.8202073 L15.7378235,99.8202073 L15.7378235,94.1010363 L12.0541765,99.8202073 L9.54370588,99.8202073 L9.54370588,90.4020725 L12.4909412,90.4020725 L12.4909412,95.519171 L15.867,90.4020725 L18.6845294,90.4020725 L18.6845294,99.8202073" id="Fill-26" fill="#FFFFFF"></path>
                        <path d="M29.8064118,99.8202073 L26.8078235,99.8202073 L26.8078235,92.4751295 L24.4514118,92.4751295 C24.4355294,92.8777202 24.4222941,93.2010363 24.4127647,93.4471503 C24.4042941,93.692228 24.3942353,93.9683938 24.3831176,94.2787565 C24.3423529,95.1787565 24.2661176,95.9098446 24.1512353,96.4782383 C24.0374118,97.0466321 23.8923529,97.5103627 23.715,97.8735751 C23.5434706,98.2373057 23.3671765,98.5227979 23.1887647,98.7253886 C23.0077059,98.9295337 22.8112941,99.1196891 22.6011176,99.2984456 C22.4004706,99.4683938 22.1182941,99.6046632 21.7535294,99.715544 C21.3882353,99.8248705 21.0541765,99.8792746 20.7502941,99.8792746 C20.4935294,99.8792746 20.2378235,99.8699482 19.9837059,99.8492228 C19.7301176,99.8295337 19.5765882,99.8202073 19.5252353,99.8202073 L19.5252353,97.4398964 L19.6115294,97.4398964 C19.6348235,97.4398964 19.6718824,97.442487 19.7269412,97.4455959 C19.7809412,97.4518135 19.8338824,97.4554404 19.8857647,97.4554404 C20.0223529,97.4554404 20.1652941,97.4409326 20.3140588,97.4093264 C20.4622941,97.3772021 20.5851176,97.3139896 20.682,97.2217617 C21.0764118,96.8290155 21.3294706,96.3062176 21.4411765,95.653886 C21.5528824,94.9979275 21.6275294,94.265285 21.6672353,93.4564767 C21.6894706,93.0139896 21.7132941,92.519171 21.7355294,91.9751295 C21.7593529,91.4316062 21.7762941,90.9056995 21.7863529,90.4020725 L29.8064118,90.4020725 L29.8064118,99.8202073" id="Fill-27" fill="#FFFFFF"></path>
                        <path d="M40.0616471,96.6585492 C40.0616471,97.1398964 39.9642353,97.5818653 39.771,97.9870466 C39.5767059,98.3927461 39.3225882,98.7243523 39.0086471,98.9813472 C38.619,99.2896373 38.2182353,99.5051813 37.8047647,99.6295337 C37.3902353,99.7564767 36.8327647,99.8202073 36.1297059,99.8202073 L31.4004706,99.8202073 L31.4004706,90.4020725 L34.3900588,90.4020725 L34.3900588,93.580829 L36.1381765,93.580829 C36.8285294,93.580829 37.3875882,93.6290155 37.8127059,93.7227979 C38.2388824,93.8202073 38.6428235,94.0046632 39.0255882,94.2865285 C39.3628235,94.5305699 39.6201176,94.8642487 39.7964118,95.2849741 C39.9727059,95.7031088 40.0616471,96.1611399 40.0616471,96.6585492 L40.0616471,96.6585492 Z M36.7628824,97.4709845 C36.8613529,97.3492228 36.927,97.2227979 36.9608824,97.0901554 C36.9947647,96.9595855 37.0122353,96.8238342 37.0122353,96.6849741 C37.0122353,96.280829 36.8883529,95.984456 36.6448235,95.7870466 C36.3981176,95.5901554 36.0439412,95.4937824 35.5812353,95.4937824 L34.3900588,95.4937824 L34.3900588,97.9160622 L35.5812353,97.9160622 C35.8904118,97.9160622 36.1413529,97.8735751 36.3351176,97.784456 C36.5294118,97.6994819 36.6718235,97.5937824 36.7628824,97.4709845 L36.7628824,97.4709845 Z" id="Fill-28" fill="#FFFFFF"></path>
                        <path d="M61.3291765,99.8202073 L58.3819412,99.8202073 L58.3819412,94.1010363 L54.6977647,99.8202073 L52.1883529,99.8202073 L52.1883529,90.4020725 L55.1350588,90.4020725 L55.1350588,95.519171 L58.5111176,90.4020725 L61.3291765,90.4020725 L61.3291765,99.8202073" id="Fill-29" fill="#FFFFFF"></path>
                        <path d="M71.6622353,99.8202073 L68.6721176,99.8202073 L68.6721176,96.5492228 L67.7636471,96.5492228 L65.4596471,99.8202073 L62.1015882,99.8202073 L64.8603529,96.1295337 C64.1737059,95.8227979 63.6739412,95.4492228 63.36,95.0129534 C63.0460588,94.5715026 62.8893529,93.9860104 62.8893529,93.2554404 C62.8893529,92.734715 62.9936471,92.2953368 63.2022353,91.9414508 C63.4102941,91.5870466 63.6914118,91.2875648 64.0461176,91.0414508 C64.3600588,90.8305699 64.7295882,90.6678756 65.1547059,90.5632124 C65.5803529,90.4580311 66.0568235,90.4020725 66.582,90.4020725 L71.6622353,90.4020725 L71.6622353,99.8202073 L71.6622353,99.8202073 Z M68.6721176,94.7041451 L68.6721176,92.3549223 L67.2919412,92.3549223 C66.8710588,92.3549223 66.5401765,92.4507772 66.3035294,92.6367876 C66.0668824,92.8264249 65.9477647,93.0984456 65.9477647,93.4564767 C65.9477647,93.8968912 66.0647647,94.2160622 66.2992941,94.4134715 C66.5332941,94.6062176 66.8811176,94.7041451 67.3448824,94.7041451 L68.6721176,94.7041451 L68.6721176,94.7041451 Z" id="Fill-30" fill="#FFFFFF"></path>
                        <path d="M50.7197647,99.8202073 L50.7197647,90.4673575 L42.8966471,90.4673575 C42.8966471,91.9046632 42.7674706,93.2590674 42.507,94.5326425 C42.2465294,95.8067358 41.8997647,96.8865285 41.4656471,97.7704663 L40.7721176,97.7704663 L40.7721176,99.8170984 L50.7197647,99.8202073 L50.7197647,99.8202073 Z M47.7370588,97.7704663 L44.2937647,97.7704663 C44.6188235,97.1103627 44.8967647,96.3357513 45.1291765,95.4450777 C45.3605294,94.5523316 45.5241176,93.5834197 45.621,92.5378238 L47.7370588,92.5378238 L47.7370588,97.7704663 L47.7370588,97.7704663 Z" id="Fill-31" fill="#FFFFFF"></path>
                    </g>
                </g>
            </g>
        </g>
    </g>
</svg>