<?xml version="1.0" encoding="UTF-8" standalone="no"?>
<svg width="138px" height="100px" viewBox="0 0 138 100" version="1.1" xmlns="http://www.w3.org/2000/svg" xmlns:xlink="http://www.w3.org/1999/xlink" xmlns:sketch="http://www.bohemiancoding.com/sketch/ns">
    <!-- Generator: Sketch 3.2.2 (9983) - http://www.bohemiancoding.com/sketch -->
    <title>6</title>
    <desc>Created with Sketch.</desc>
    <defs></defs>
    <g id="Page-1" stroke="none" stroke-width="1" fill="none" fill-rule="evenodd" sketch:type="MSPage">
        <g id="Партнёры" sketch:type="MSArtboardGroup" transform="translate(-1312.000000, -603.000000)" fill="#DE4B4E">
            <g id="2_block" sketch:type="MSLayerGroup" transform="translate(469.000000, 142.000000)">
                <g id="2" transform="translate(0.000000, 361.000000)" sketch:type="MSShapeGroup">
                    <g id="6" transform="translate(843.000000, 100.000000)">
                        <path d="M0.386733032,41.2051443 L5.04196078,41.2051443 L5.04196078,50.097003 C5.04196078,51.2948599 4.82909804,53.34452 4.82909804,53.34452 L4.88266063,53.34452 C4.88266063,53.34452 5.73383409,51.3481844 6.47843741,50.097003 L11.7456109,41.2051443 L16.4544012,41.2051443 L16.4544012,60.2400431 L11.7991735,60.2400431 L11.7991735,51.3748466 C11.7991735,50.1769897 12.0117587,48.1262187 12.0117587,48.1262187 L11.9584736,48.1262187 C11.9584736,48.1262187 11.1073002,50.1236652 10.3626968,51.3748466 L5.06860332,60.2400431 L0.386733032,60.2400431 L0.386733032,41.2051443" id="Fill-2"></path>
                        <path d="M40.765991,41.2904079 L45.4214962,41.2904079 L45.4214962,48.6372451 L47.3369834,48.6372451 L51.2736953,41.2904079 L56.2755535,41.2904079 L51.1410377,50.3944537 L51.1410377,50.4480559 L56.5677888,60.3253067 L51.3539005,60.3253067 L47.3369834,52.6043649 L45.4214962,52.6043649 L45.4214962,60.3253067 L40.765991,60.3253067 L40.765991,41.2904079" id="Fill-3"></path>
                        <path d="M126.146431,41.3895581 L131.040887,41.3895581 L137.505587,60.424457 L132.717979,60.424457 L131.54654,56.4303971 L125.614136,56.4303971 L124.470727,60.424457 L119.681732,60.424457 L126.146431,41.3895581 L126.146431,41.3895581 Z M130.456416,52.7035152 L129.391548,49.0035732 C129.046027,47.8057163 128.620302,45.729394 128.620302,45.729394 L128.567017,45.729394 C128.567017,45.729394 128.141291,47.8057163 127.795771,49.0035732 L126.705647,52.7035152 L130.456416,52.7035152 L130.456416,52.7035152 Z" id="Fill-4"></path>
                        <path d="M81.4052911,41.4709335 L89.305635,41.4709335 C93.0031192,41.4709335 95.503632,44.1857611 95.503632,48.019292 C95.503632,51.8531006 93.0031192,54.6223636 89.305635,54.6223636 L86.0607964,54.6223636 L86.0607964,60.5058324 L81.4052911,60.5058324 L81.4052911,41.4709335 L81.4052911,41.4709335 Z M88.3476139,50.6285815 C89.9703107,50.6285815 90.7693092,49.5376513 90.7693092,48.019292 C90.7693092,46.5023213 89.9703107,45.4636047 88.427819,45.4636047 L86.0607964,45.4636047 L86.0607964,50.6285815 L88.3476139,50.6285815 L88.3476139,50.6285815 Z" id="Fill-5"></path>
                        <path d="M5.8265279,0.297483834 L10.4820332,0.297483834 L10.4820332,19.3323827 L5.8265279,19.3323827 L5.8265279,0.297483834 Z" id="Fill-6"></path>
                        <path d="M80.4117466,0.29692837 L87.0365792,0.29692837 C88.9778763,0.29692837 89.9092549,0.429128669 90.7337858,0.749631073 C92.8887783,1.57477201 94.2458824,3.51750539 94.2458824,6.2870461 C94.2458824,8.31004394 93.2878612,10.5199552 91.3995716,11.4772965 L91.3995716,11.5308987 C91.3995716,11.5308987 91.6651644,11.8780633 92.1175324,12.676542 L95.8150166,19.3315495 L90.6272157,19.3315495 L87.2486094,12.9153913 L85.0669744,12.9153913 L85.0669744,19.3315495 L80.4117466,19.3315495 L80.4117466,0.29692837 L80.4117466,0.29692837 Z M87.0898643,8.92160919 C88.5790709,8.92160919 89.5104495,8.09646825 89.5104495,6.5794976 C89.5104495,5.6207677 89.2701116,4.90227574 88.3934057,4.55649975 C87.9676802,4.3695863 87.4087421,4.28959957 86.6374962,4.28959957 L85.0669744,4.28959957 L85.0669744,8.92160919 L87.0898643,8.92160919 L87.0898643,8.92160919 Z" id="Fill-7"></path>
                        <path d="M125.561961,0.297483834 L130.457526,0.297483834 L136.921116,19.3323827 L132.133508,19.3323827 L130.962069,15.3383228 L125.029665,15.3383228 L123.886256,19.3323827 L119.097261,19.3323827 L125.561961,0.297483834 L125.561961,0.297483834 Z M129.871946,11.6114409 L128.807077,7.91149892 C128.461557,6.71364202 128.035831,4.63731968 128.035831,4.63731968 L127.982546,4.63731968 C127.982546,4.63731968 127.556821,6.71364202 127.2113,7.91149892 L126.121176,11.6114409 L129.871946,11.6114409 L129.871946,11.6114409 Z" id="Fill-8"></path>
                        <path d="M40.1604284,0.296095175 L44.8159336,0.296095175 L44.8159336,7.64321008 L46.7319759,7.64321008 L50.6695204,0.296095175 L55.670546,0.296095175 L50.5363077,9.40041867 L50.5363077,9.45374316 L55.9627813,19.330994 L50.7483379,19.330994 L46.7319759,11.61033 L44.8159336,11.61033 L44.8159336,19.330994 L40.1604284,19.330994 L40.1604284,0.296095175" id="Fill-9"></path>
                        <path d="M5.45825038,80.9596626 L10.1137557,80.9596626 L10.1137557,99.9945614 L5.45825038,99.9945614 L5.45825038,80.9596626 Z" id="Fill-10"></path>
                        <path d="M80.2274691,80.9582739 L86.8523017,80.9582739 C88.7935988,80.9582739 89.7249774,81.0904742 90.5497858,81.4109766 C92.7045008,82.2361176 94.0616048,84.1791287 94.0616048,86.9483916 C94.0616048,88.9713895 93.1035837,91.1813008 91.214184,92.1389197 L91.214184,92.1922442 C91.214184,92.1922442 91.4808869,92.538298 91.9332549,93.3378876 L95.6307391,99.9931728 L90.4429382,99.9931728 L87.0643318,93.5770146 L84.8826968,93.5770146 L84.8826968,99.9931728 L80.2274691,99.9931728 L80.2274691,80.9582739 L80.2274691,80.9582739 Z M86.9055867,89.5832325 C88.3947934,89.5832325 89.3261719,88.7578138 89.3261719,87.2411209 C89.3261719,86.282391 89.0872217,85.563899 88.2091282,85.218123 C87.7836802,85.0309319 87.2244646,84.9509451 86.4532187,84.9509451 L84.8826968,84.9509451 L84.8826968,89.5832325 L86.9055867,89.5832325 L86.9055867,89.5832325 Z" id="Fill-11"></path>
                        <path d="M125.376573,80.9596626 L130.272139,80.9596626 L136.735729,99.9942837 L131.948121,99.9942837 L130.776682,96.0005016 L124.844278,96.0005016 L123.700591,99.9942837 L118.911873,99.9942837 L125.376573,80.9596626 L125.376573,80.9596626 Z M129.686281,92.2736196 L128.621689,88.5736777 C128.276169,87.3758208 127.850443,85.2981098 127.850443,85.2981098 L127.797158,85.2981098 C127.797158,85.2981098 127.371433,87.3758208 127.025913,88.5736777 L125.935511,92.2736196 L129.686281,92.2736196 L129.686281,92.2736196 Z" id="Fill-12"></path>
                        <path d="M40.1604284,80.9582739 L44.8159336,80.9582739 L44.8159336,88.3051111 L46.7319759,88.3051111 L50.6695204,80.9582739 L55.670546,80.9582739 L50.5363077,90.0625974 L50.5363077,90.1159219 L55.9627813,99.9931728 L50.7483379,99.9931728 L46.7319759,92.2725087 L44.8159336,92.2725087 L44.8159336,99.9931728 L40.1604284,99.9931728 L40.1604284,80.9582739" id="Fill-13"></path>
                    </g>
                </g>
            </g>
        </g>
    </g>
</svg>