<?xml version="1.0" encoding="UTF-8" standalone="no"?>
<svg width="258px" height="45px" viewBox="0 0 258 45" version="1.1" xmlns="http://www.w3.org/2000/svg" xmlns:xlink="http://www.w3.org/1999/xlink" xmlns:sketch="http://www.bohemiancoding.com/sketch/ns">
    <!-- Generator: Sketch 3.2.2 (9983) - http://www.bohemiancoding.com/sketch -->
    <title>intize</title>
    <desc>Created with Sketch.</desc>
    <defs></defs>
    <g id="Page-1" stroke="none" stroke-width="1" fill="none" fill-rule="evenodd" sketch:type="MSPage">
        <g id="Партнёры" sketch:type="MSArtboardGroup" transform="translate(-242.000000, -1887.000000)" fill="#FFFFFF">
            <g id="2_block" sketch:type="MSLayerGroup" transform="translate(242.000000, 192.000000)">
                <g id="5" transform="translate(0.000000, 1476.000000)" sketch:type="MSShapeGroup">
                    <g id="intize" transform="translate(0.000000, 219.000000)">
                        <path d="M0.273572594,0.501728972 L12.6373703,0.501728972 L12.6373703,44.6244393 L0.273572594,44.6244393 L0.273572594,0.501728972 Z" id="Fill-1"></path>
                        <path d="M18.8192692,0.501728972 L30.3000587,0.501728972 L48.4042512,23.8870093 L48.4042512,0.501728972 L60.4734323,0.501728972 L60.4734323,44.6244393 L49.7287635,44.6244393 L30.8888711,20.357243 L30.8888711,44.6244393 L18.8192692,44.6244393 L18.8192692,0.501728972" id="Fill-2"></path>
                        <path d="M79.9025579,11.0914486 L66.6553312,11.0914486 L66.6553312,0.35453271 L105.365853,0.35453271 L105.365853,11.0914486 L92.1190473,11.0914486 L92.1190473,44.4776636 L79.9025579,44.4776636 C79.9025579,44.6244393 79.9025579,11.0914486 79.9025579,11.0914486" id="Fill-3"></path>
                        <path d="M110.664744,35.6530374 L132.890202,10.7970561 L111.547752,10.7970561 L111.547752,0.501728972 L149.81677,0.501728972 L149.81677,9.32635514 L127.73862,34.1823364 L149.81677,34.1823364 L149.81677,44.4776636 L110.664744,44.4776636 L110.664744,35.6530374" id="Fill-4"></path>
                        <path d="M174.397057,0.501728972 L185.877847,0.501728972 L203.982039,23.8870093 L203.982039,0.501728972 L216.05122,0.501728972 L216.05122,44.6244393 L205.306551,44.6244393 L186.466659,20.357243 L186.466659,44.6244393 L174.397057,44.6244393 L174.397057,0.501728972" id="Fill-5"></path>
                        <path d="M222.233119,0.501728972 L257.705804,0.501728972 L257.705804,10.9442523 L234.302721,10.9442523 L234.302721,17.5626168 L255.497863,17.5626168 L255.497863,27.1223832 L234.302721,27.1223832 L234.302721,34.1823364 L258,34.1823364 L258,44.6244393 L222.233119,44.6244393 L222.233119,0.501728972" id="Fill-6"></path>
                        <path d="M155.998669,0.501728972 L168.362467,0.501728972 L168.362467,44.6244393 L155.998669,44.6244393 L155.998669,0.501728972 Z" id="Fill-7"></path>
                    </g>
                </g>
            </g>
        </g>
    </g>
</svg>