<?xml version="1.0" encoding="UTF-8" standalone="no"?>
<svg width="119px" height="50px" viewBox="0 0 119 50" version="1.1" xmlns="http://www.w3.org/2000/svg" xmlns:xlink="http://www.w3.org/1999/xlink" xmlns:sketch="http://www.bohemiancoding.com/sketch/ns">
    <!-- Generator: Sketch 3.2.2 (9983) - http://www.bohemiancoding.com/sketch -->
    <title>Group</title>
    <desc>Created with Sketch.</desc>
    <defs></defs>
    <g id="Page-1" stroke="none" stroke-width="1" fill="none" fill-rule="evenodd" sketch:type="MSPage">
        <g id="Партнёры" sketch:type="MSArtboardGroup" transform="translate(-921.000000, -1642.000000)" fill="#FFFFFF">
            <g id="2_block" sketch:type="MSLayerGroup" transform="translate(242.000000, 192.000000)">
                <g id="4" transform="translate(275.000000, 1159.000000)" sketch:type="MSShapeGroup">
                    <g id="Group" transform="translate(404.000000, 291.000000)">
                        <path d="M22.9924509,23.2746575 C22.9924509,25.1780822 22.4304682,26.8520548 20.2389422,26.8520548 C18.1884277,26.8520548 17.3953237,25.2712329 17.1614509,23.460274 L15.7141908,13.060274 L15.7616532,11.7123288 C15.7616532,11.3417808 15.7616532,11.1082192 15.4369827,10.7856164 C14.6425029,10.9232877 14.5042428,11.9452055 14.2710578,12.5013699 L10.4940116,19.6972603 C9.60667052,20.3965753 8.62853179,21.9746575 7.92966474,23.1356164 L7.60293064,23.7390411 C7.64901734,24.0650685 7.64901734,24.3438356 7.64901734,24.6691781 C7.64901734,26.2 7.08909827,27.4547945 5.17684393,27.4547945 C3.82382081,27.4547945 2.70535838,26.8979452 2.37862428,25.4568493 C2.00511561,23.5986301 1.26016185,18.2143836 1.26016185,16.0294521 C1.26016185,15.9363014 1.26016185,15.8917808 1.30693642,15.8458904 L1.30693642,14.3130137 C1.30693642,13.9876712 1.30693642,13.7554795 1.26016185,13.6157534 C1.02697688,12.0842466 0,8.9260274 0,7.57876712 L0,6.09178082 C0,4.37465753 0.233872832,2.28835616 2.23898844,2.28835616 C2.9839422,2.28835616 3.87128324,2.75068493 4.10446821,3.49315068 L4.43189017,5.5369863 C4.57221387,5.86164384 4.66438728,6.09178082 4.71116185,6.42054795 C5.45817919,10.1794521 6.66950289,14.7780822 7.04094798,18.539726 C7.41514451,18.1650685 12.0802197,9.62260274 12.8237977,8.46164384 C12.8237977,8.36917808 14.6892775,6.60547945 14.8777514,6.42054795 C14.8296012,5.90890411 14.7828266,5.35205479 14.7828266,4.8390411 C14.7828266,3.35547945 15.2044855,2.05479452 17.255,2.05479452 C18.9347572,2.05479452 19.7264855,3.16917808 20.0545954,4.70068493 C20.4714393,6.79041096 20.7981734,8.88013699 21.2184566,11.0616438 C21.3587803,11.3876712 21.4516416,11.6657534 21.4984162,11.8986301 L22.9456763,22.2986301 C22.9924509,22.6232877 22.9924509,22.9493151 22.9924509,23.2746575" id="Fill-2"></path>
                        <path d="M45.8459538,14.8568493 C45.8459538,21.0349315 41.6775145,23.4212329 36.7579306,25.8917808 C36.5357514,26.0260274 35.620896,26.7328767 33.3365087,26.7328767 C31.054185,26.7328767 30.7274509,26.1582192 30.7274509,26.1582192 C29.8407977,26.1582192 27.9801329,24.1273973 27.4037052,23.4212329 C26.9153237,22.890411 26.8265896,22.1849315 26.8265896,21.4349315 C26.8265896,19.4452055 27.9801329,16.2684932 30.4619364,16.2684932 C32.1905318,16.2684932 33.5641908,17.4143836 34.5849769,18.7849315 C35.2494509,19.7130137 35.3815202,20.9479452 35.3815202,22.0506849 C38.7080173,22.0506849 42.5648555,18.7417808 42.5648555,15.3849315 L42.5648555,15.2089041 C41.6334913,13.9294521 39.5946705,11.8979452 38.1763006,11.8979452 C36.3135723,11.8979452 34.3627977,13.0465753 33.3433873,13.0465753 C32.1471965,13.0465753 31.7922601,12.2958904 31.7922601,11.2369863 C31.7922601,6.11438356 42.031763,10.1780822 42.031763,4.9239726 C42.031763,4.17260274 41.3686647,3.55410959 40.6147688,3.42260274 C39.5066243,3.24589041 38.0868786,3.11369863 36.89,3.11369863 C36.4023064,3.11369863 34.0085491,3.82054795 33.4754566,3.95273973 C33.1659191,6.0260274 32.1471965,7.26164384 29.9756185,7.26164384 C28.3350694,7.26164384 28.203,5.18767123 28.203,3.99726027 C28.203,2.3630137 28.6886301,0.950684932 30.5946936,0.950684932 L30.9950289,0.950684932 C31.7461734,1.43561644 31.9697283,1.5239726 32.8556936,1.5239726 C34.4068208,1.5239726 36.7579306,0.684931507 37.3343584,0.684931507 L40.6147688,0.684931507 C41.7662486,0.684931507 44.2054046,3.64178082 44.2054046,4.88013699 C44.2054046,6.51438356 43.2300173,7.88150685 42.031763,8.89589041 L42.031763,9.1630137 L45.3135491,12.1643836 C45.8012428,12.7808219 45.8459538,14.1054795 45.8459538,14.8568493" id="Fill-4"></path>
                        <path d="M64.8473841,12.4691781 C64.8473841,11.2335616 64.6864246,7.60616438 63.6064824,6.96986301 C62.8064997,6.49315068 61.9260373,6.17328767 61.0868466,5.69452055 C60.4065518,5.3369863 59.7661529,3.70547945 59.4848177,3.70547945 C59.4449217,3.70547945 59.3658177,3.74178082 59.3272974,3.78287671 C57.6055807,4.42260274 56.1651992,5.49657534 55.4044246,7.24931507 C55.0061529,8.16575342 54.0053148,9.99726027 53.8842512,10.9136986 C53.8457309,11.1924658 53.8044593,11.3910959 53.8044593,11.5116438 L53.8457309,11.95 L53.8457309,13.5417808 C53.8457309,17.0883562 53.8842512,21.1109589 58.6071067,21.1109589 C62.9261876,21.1109589 64.8473841,16.1321918 64.8473841,12.4691781 L64.8473841,12.4691781 Z M69.8089275,11.3123288 C69.8089275,13.7034247 69.8089275,16.1726027 68.8067136,18.3643836 C68.6471298,18.6431507 68.5267541,18.960274 68.368546,19.2808219 C66.8875807,22.4664384 65.2635402,25.8157534 61.0868466,26.4924658 C58.997124,26.8143836 57.5140951,26.6671233 56.1259911,26.4924658 C54.737887,26.3164384 54.1662743,25.8938356 53.4054997,25.2554795 C49.3244188,21.9486301 48.8449795,19.319863 48.8449795,14.3794521 L48.8449795,12.5883562 C48.8449795,12.1486301 48.8037078,11.7910959 48.9240835,11.4321918 C49.8843379,4.66027397 54.7660893,0.797260274 61.3289737,0.0390410959 C61.4472859,0 61.6467656,0 61.9260373,0 C63.1676269,0 67.8065633,0.874657534 67.8065633,2.35 L67.5272916,3.38493151 L67.5272916,3.50547945 C68.9669853,5.73493151 69.8089275,8.16575342 69.8089275,10.8328767 L69.8089275,11.3123288 Z" id="Fill-6"></path>
                        <path d="M11.3022486,39.969863 C11.1247803,39.7910959 10.8943468,39.7671233 10.6666647,39.7671233 C9.67408092,39.7671233 8.68149711,39.8945205 7.68753757,40.0705479 L7.51075723,40.0965753 C6.13572254,40.3239726 5.44923699,41.1342466 5.44923699,42.5041096 C5.44923699,43.8205479 6.72109249,43.8979452 7.76320231,43.8979452 C9.11416185,43.8979452 10.8943468,41.0849315 11.3022486,39.969863 M14.0254913,36.4739726 C14.0254913,38.2986301 13.9745896,40.1965753 13.6939422,42.0212329 C13.6175896,42.7061644 13.3637688,43.3643836 13.3637688,44.0493151 L13.4408092,44.7821918 C13.4408092,45.5691781 13.0576705,45.9746575 12.3202832,45.9746575 C11.5306185,45.9746575 10.9720751,45.6184932 10.9720751,44.8075342 L10.997526,44.5308219 C10.0042543,45.4178082 9.11416185,46.1267123 7.71436416,46.1267123 C5.80554913,46.1267123 3.56656069,44.6554795 3.56656069,42.5280822 C3.56656069,40.5013699 4.76137572,39.1835616 6.56769942,38.3739726 C7.25556069,38.0691781 8.2997341,38.0438356 9.01167052,38.0438356 C9.98017919,38.0438356 11.4047399,38.0691781 12.2446185,38.5506849 C12.7268092,38.2219178 12.7268092,37.0068493 12.7268092,36.5 C12.7268092,34.5993151 11.5051676,33.939726 9.77588439,33.939726 C8.52810405,33.939726 7.28169942,34.5232877 6.08550867,34.9027397 C6.13572254,35.1321918 6.16117341,35.3849315 6.16117341,35.6136986 C6.16117341,36.7267123 5.57511561,37.2842466 4.43051445,37.2842466 C3.3106763,37.2842466 2.75144509,36.7267123 2.75144509,35.6390411 C2.75144509,34.65 3.0816185,33.7890411 4.20214451,33.7890411 L5.29653179,33.9910959 L5.47468786,33.9671233 C6.97560116,32.9767123 8.2997341,32.1917808 10.1321965,32.1917808 C12.371185,32.1917808 14.0254913,34.3452055 14.0254913,36.4739726" id="Fill-56"></path>
                        <path d="M32.7215607,34.2191781 C32.7215607,35.4616438 31.8307803,35.3349315 30.964763,35.7150685 L30.964763,38.5760274 C30.964763,38.8561644 30.9902139,41.869863 31.1174682,41.9965753 L31.9071329,42.960274 L31.9071329,44.6828767 C31.9071329,44.9616438 31.1174682,45.6986301 30.8388844,45.8993151 L30.8120578,45.9260274 C30.6084509,46.1013699 30.2266879,46.1013699 29.9990058,46.1013699 C28.674185,46.1013699 27.7840925,45.569863 27.7840925,44.1506849 C27.7840925,43.3657534 28.1651676,42.6794521 28.7505376,42.1493151 L28.7505376,40.0452055 C28.7505376,38.5267123 28.674185,37.0575342 28.5985202,35.5616438 L28.421052,35.4109589 C28.2167572,35.3856164 28.0131503,35.3856164 27.8095434,35.3856164 L27.5055087,35.3856164 C26.8169595,35.3856164 25.748711,35.3856164 25.748711,36.0691781 C25.748711,36.8047945 25.7996127,37.5630137 25.9770809,38.2739726 C26.0534335,38.5520548 26.1290983,38.7780822 26.204763,39.0075342 C26.2302139,39.1835616 26.2570405,39.3123288 26.2570405,39.4376712 L26.2302139,39.7424658 L26.2302139,40.8315068 C26.2302139,43.339726 26.0272948,48.1815068 22.515763,48.1815068 C20.5051445,48.1815068 20.6839884,46.9130137 19.7168555,46.5589041 C18.3665838,46.1506849 17.1965318,46.3568493 17.1965318,44.2780822 C17.1965318,42.7342466 18.3934104,42.3020548 19.7429942,42.3020548 C21.1159653,42.3020548 21.8031387,43.009589 21.8031387,44.4047945 C21.8031387,44.7075342 21.8031387,45.1890411 21.6236069,45.4671233 C21.8285896,45.5445205 22.0315087,45.619863 22.2605665,45.619863 C22.6430173,45.619863 22.8720751,45.290411 23.0502312,45.0123288 C23.9403237,43.5178082 24.0173642,42.580137 24.0173642,40.8815068 C24.0173642,39.1835616 23.864659,37.5630137 23.6851272,35.8664384 C22.9745665,35.789726 22.2110405,35.7150685 21.4722775,35.7150685 L21.345711,35.7150685 C20.7087514,35.7150685 19.868185,35.7390411 19.868185,34.8541096 C19.868185,34.2691781 20.5051445,33.9917808 20.9880231,33.8157534 C22.0074335,33.4856164 25.0085723,32.8767123 26.0534335,32.8767123 L30.964763,32.8767123 C31.8803064,32.8767123 32.7215607,33.1287671 32.7215607,34.2191781" id="Fill-58"></path>
                        <path d="M52.8958439,38.0383562 C52.8958439,36.140411 52.057341,34.390411 49.9449191,34.390411 C48.5196705,34.390411 47.297341,35.0486301 46.7133468,36.3410959 C46.5097399,36.7226027 46.533815,37.9616438 46.533815,38.4191781 C46.533815,38.8 46.533815,39.4821918 46.7133468,39.8116438 C46.9933064,40.3424658 47.2732659,40.8239726 47.5525376,41.4061644 C47.6536532,41.6869863 47.7052428,41.9650685 47.833185,42.1924658 C48.0367919,42.5993151 49.0025491,42.6486301 49.385,42.6486301 C51.7512428,42.6486301 52.8958439,40.0657534 52.8958439,38.0136986 L52.8958439,38.0383562 Z M43.8883006,34.060274 C43.8883006,33.960274 43.836711,33.8082192 43.7101445,33.8082192 L42.4369133,33.8082192 C41.2420983,34.3410959 40.7832948,34.7452055 39.9172775,35.7342466 C38.6447341,37.2547945 38.6192832,38.5452055 38.6192832,40.469863 C38.6192832,41.5616438 38.9762832,43.0020548 39.6111792,43.9171233 C39.8147861,44.2205479 40.2735896,44.2705479 40.603763,44.2705479 C41.7497399,44.2705479 42.4369133,42.319863 42.7677746,41.3821918 C43.5567514,39.0246575 43.8883006,36.569863 43.8883006,34.060274 L43.8883006,34.060274 Z M55.2634624,39.0773973 C55.2634624,41.4061644 53.9916069,43.1308219 52.2588844,44.5246575 C51.8784971,44.8027397 51.3192659,45.1061644 50.8343237,45.1842466 C50.6066416,45.209589 50.3782717,45.209589 50.0983121,45.209589 L49.385,45.209589 C48.5458092,45.209589 47.7052428,45.0568493 46.8901272,44.8547945 L46.6349306,44.8787671 L46.6349306,49.2376712 C46.6349306,49.6171233 46.484289,49.8712329 46.0763873,49.8712329 L44.3443526,49.8712329 C43.9398902,49.8712329 43.811948,49.6171233 43.811948,49.2376712 L43.811948,45.3349315 C42.9713815,46.2726027 41.9547225,46.8815068 40.6553526,46.8815068 C38.6192832,46.8815068 37.3735665,45.8164384 36.7372948,43.9171233 C36.557763,43.4342466 36.4566474,42.9527397 36.4566474,42.4726027 L36.4566474,38.5452055 C36.4566474,37.4554795 38.3393237,34.1630137 39.2823815,33.6815068 L41.9547225,32.2623288 L44.0162428,32.2623288 C44.0162428,31.9828767 44.0403179,31.2239726 44.1682601,30.9958904 C44.2686879,30.7171233 44.5238844,30.4876712 44.5238844,30.210274 C44.5238844,30.1328767 44.5238844,30.0835616 44.4984335,30.0568493 C44.1682601,29.7534247 43.861474,29.3486301 43.861474,28.8657534 C43.861474,28.3349315 44.7281792,27.6739726 45.1347052,27.3972603 C46.380422,27.3972603 46.9417168,27.3972603 46.9417168,28.8417808 C46.9417168,29.6006849 46.6349306,29.6006849 46.2290925,30.210274 L46.2290925,30.2849315 C46.2290925,31.5027397 46.4588382,32.7952055 46.5599538,33.9842466 C46.7381098,33.9089041 46.8653642,33.7835616 47.0428324,33.6815068 C47.7554566,33.0732877 48.4942197,32.4643836 49.385,32.0842466 L49.6381329,32.0842466 C51.675578,32.0842466 54.601052,33.7315068 54.9326012,35.8842466 C55.1100694,36.9246575 55.2634624,37.9883562 55.2634624,39.0773973 L55.2634624,39.0773973 Z" id="Fill-60"></path>
                        <path d="M67.7089364,39.969863 C67.5300925,39.7910959 67.3017225,39.7671233 67.0706012,39.7671233 C66.0780173,39.7671233 65.0861214,39.8945205 64.0935376,40.0705479 L63.9160694,40.0965753 C62.5410347,40.3239726 61.8545491,41.1342466 61.8545491,42.5041096 C61.8545491,43.8205479 63.1277803,43.8979452 64.1692023,43.8979452 C65.5180983,43.8979452 67.3017225,41.0849315 67.7089364,39.969863 M70.4321792,36.4739726 C70.4321792,38.2986301 70.3805896,40.1965753 70.1006301,42.0212329 C70.0242775,42.7061644 69.7697688,43.3643836 69.7697688,44.0493151 L69.8454335,44.7821918 C69.8454335,45.5691781 69.4629827,45.9746575 68.7262832,45.9746575 C67.9373064,45.9746575 67.378763,45.6184932 67.378763,44.8075342 L67.4028382,44.5308219 C66.4109422,45.4178082 65.5180983,46.1267123 64.1196763,46.1267123 C62.2115491,46.1267123 59.9725607,44.6554795 59.9725607,42.5280822 C59.9725607,40.5013699 61.1680636,39.1835616 62.9750751,38.3739726 C63.6615607,38.0691781 64.7050462,38.0438356 65.4183584,38.0438356 C66.3841156,38.0438356 67.810052,38.0691781 68.6485549,38.5506849 C69.1334971,38.2219178 69.1334971,37.0068493 69.1334971,36.5 C69.1334971,34.5993151 67.9118555,33.939726 66.1811965,33.939726 C64.9347919,33.939726 63.6856358,34.5232877 62.4908208,34.9027397 C62.5410347,35.1321918 62.5671734,35.3849315 62.5671734,35.6136986 C62.5671734,36.7267123 61.9818035,37.2842466 60.8365145,37.2842466 C59.7173642,37.2842466 59.1560694,36.7267123 59.1560694,35.6390411 C59.1560694,34.65 59.4883064,33.7890411 60.6088324,33.7890411 L61.7018439,33.9910959 L61.8806879,33.9671233 C63.3816012,32.9767123 64.7050462,32.1917808 66.5375087,32.1917808 C68.7778728,32.1917808 70.4321792,34.3452055 70.4321792,36.4739726" id="Fill-62"></path>
                        <path d="M82.6609769,40.0431507 C82.6609769,39.0315068 81.7461214,38.8794521 81.2116532,38.1952055 C80.1922428,38.6527397 77.5467283,40.0958904 76.6057341,40.0958904 L76.6057341,40.5527397 C76.6057341,41.5657534 78.54,42.1472603 79.3791908,42.1472603 C79.8111676,42.1472603 80.6758092,42.1472603 81.0596358,41.9705479 C81.8726879,41.5910959 82.6609769,41.0342466 82.6609769,40.0431507 L82.6609769,40.0431507 Z M81.2116532,34.4965753 C81.2116532,34.0657534 80.9048671,33.9150685 80.5244798,33.9150685 C79.6075607,33.9150685 77.9030405,34.3712329 76.9352197,34.5732877 C76.7577514,34.5993151 76.4777919,34.6760274 76.4777919,34.8767123 L76.4777919,36.6260274 C77.6987457,36.0945205 78.2332139,35.789726 79.6591503,35.789726 C79.9638728,35.789726 80.2692832,35.7650685 80.5760694,35.8390411 C80.855341,35.4609589 81.2116532,34.9787671 81.2116532,34.4965753 L81.2116532,34.4965753 Z M76.9352197,37.410274 C76.655948,37.410274 76.4014393,37.5116438 76.4014393,37.8164384 C77.0879249,37.8164384 77.7503353,37.7410959 78.3611561,37.410274 L76.9352197,37.410274 Z M81.847237,44.3280822 C81.6436301,44.6075342 79.1501329,44.9849315 78.7422312,44.9849315 C77.4187861,44.9849315 77.1642775,44.6568493 75.9942254,44.1753425 L75.9178728,44.1753425 L75.2809133,44.3280822 C74.5937399,44.3280822 74.0097457,43.9212329 73.9333931,43.2376712 C73.7290983,41.919863 73.6011561,39.4609589 73.6011561,38.0705479 C73.6011561,37.840411 73.6781965,37.689726 73.8563526,37.5643836 L73.8563526,33.7630137 C73.8563526,33.4835616 74.3901329,33.2554795 74.5689769,33.1541096 C76.5541445,33.0280822 77.3671965,31.5068493 79.8875202,31.5068493 C82.0253931,31.5068493 83.1197803,32.3438356 83.1197803,34.5732877 C83.1197803,35.6630137 82.6609769,35.8650685 82.4566821,36.7280822 C83.2477225,37.310274 83.8330925,38.0458904 84.2134798,38.9794521 L84.2134798,41.6150685 L81.847237,44.3280822 Z" id="Fill-64"></path>
                        <path d="M101.280006,44.4547945 C101.280006,45.4931507 100.975971,46.4068493 99.7790925,46.4068493 C98.6592543,46.4068493 98.2272775,45.5452055 98.0986474,44.5561644 L97.3103584,38.8787671 L97.3364971,38.1472603 C97.3364971,37.9452055 97.3364971,37.8157534 97.1590289,37.640411 C96.7256763,37.7157534 96.6493237,38.2732877 96.5220694,38.5760274 L94.4605491,42.5027397 C93.9776705,42.8828767 93.4411387,43.7445205 93.0614393,44.3787671 L92.8819075,44.7089041 C92.9087341,44.8842466 92.9087341,45.0383562 92.9087341,45.2130137 C92.9087341,46.0520548 92.6026358,46.7356164 91.5584624,46.7356164 C90.8210751,46.7356164 90.2102543,46.4308219 90.0320983,45.6438356 C89.8284913,44.6315068 89.4205896,41.6924658 89.4205896,40.5020548 C89.4205896,40.4520548 89.4205896,40.4239726 89.448104,40.4013699 L89.448104,39.5650685 C89.448104,39.3869863 89.448104,39.260274 89.4205896,39.1849315 C89.2926474,38.3479452 88.734104,36.6273973 88.734104,35.8917808 L88.734104,35.0808219 C88.734104,34.1431507 88.8620462,33.0020548 89.9557457,33.0020548 C90.3629595,33.0020548 90.846526,33.2561644 90.9737803,33.6623288 L91.1526243,34.7760274 C91.2289769,34.9520548 91.2791908,35.0808219 91.3046416,35.2589041 C91.7125434,37.309589 92.373578,39.8171233 92.5778728,41.8705479 C92.7814798,41.6671233 95.3265665,37.0068493 95.7324046,36.3732877 C95.7324046,36.3232877 96.7504393,35.360274 96.8522428,35.2589041 C96.826104,34.9780822 96.8020289,34.6760274 96.8020289,34.3958904 C96.8020289,33.5856164 97.0310867,32.8767123 98.150237,32.8767123 C99.0671561,32.8767123 99.4991329,33.4835616 99.6779769,34.3212329 C99.9070347,35.459589 100.085879,36.6027397 100.313561,37.7910959 C100.390601,37.969863 100.440127,38.1205479 100.465578,38.2472603 L101.255931,43.9239726 C101.280006,44.1 101.280006,44.2767123 101.280006,44.4547945" id="Fill-66"></path>
                        <path d="M118.960104,35.0780822 C118.960104,36.3726027 118.427012,37.1328767 117.102191,37.1328767 C116.238237,37.1328767 115.728532,35.9164384 115.448572,35.2328767 L113.565208,35.3849315 L113.565208,44.2006849 C113.843792,44.5554795 115.95759,44.2760274 115.95759,45.5184932 C115.95759,45.7965753 115.855786,45.9746575 115.625353,46.0753425 L115.090197,46.0753425 C114.455301,46.0753425 113.843792,46.0253425 113.233659,45.9226027 C112.851896,46.4534247 112.368329,46.7089041 111.756821,46.7089041 C111.324844,46.7089041 110.919006,46.6075342 110.56063,46.4041096 C109.568734,46.5835616 108.729543,46.9109589 107.890353,47.4958904 C107.710821,47.5972603 107.507902,47.6486301 107.329746,47.6486301 C106.743688,47.6486301 106.438277,47.3431507 106.438277,46.760274 C106.438277,45.2883562 108.933838,44.909589 109.951873,44.5047945 C110.128653,44.4280822 110.23252,44.0739726 110.23252,43.8972603 C110.460202,41.4636986 110.484965,38.9554795 110.56063,36.4993151 L110.56063,35.739726 C110.357023,35.7143836 110.15548,35.6890411 109.925734,35.6890411 C109.620324,35.6890411 108.296191,35.790411 108.016231,35.8643836 C107.507902,36.3726027 106.743688,37.310274 105.954711,37.310274 C104.554913,37.310274 104.554913,35.8643836 104.554913,34.8267123 L104.554913,34.7253425 C104.554913,33.7116438 104.88715,32.1917808 106.210595,32.1917808 C106.616434,32.1917808 106.82004,32.5712329 107.890353,32.5712329 L110.460202,32.3938356 L113.818341,32.3938356 C114.354185,32.3938356 114.862514,32.4445205 115.321318,32.5712329 L115.37222,32.5958904 C115.448572,32.6212329 115.474023,32.6465753 115.448572,32.6465753 C115.67763,32.8006849 115.881237,32.8753425 116.058705,32.8753425 L116.110295,32.8506849 C116.516821,32.4184932 116.618624,32.3691781 117.229445,32.3691781 C118.832162,32.3691781 118.960104,33.7883562 118.960104,35.0780822" id="Fill-68"></path>
                    </g>
                </g>
            </g>
        </g>
    </g>
</svg>