<?xml version="1.0" encoding="UTF-8" standalone="no"?>
<svg width="111px" height="60px" viewBox="0 0 111 60" version="1.1" xmlns="http://www.w3.org/2000/svg" xmlns:xlink="http://www.w3.org/1999/xlink" xmlns:sketch="http://www.bohemiancoding.com/sketch/ns">
    <!-- Generator: Sketch 3.2.2 (9983) - http://www.bohemiancoding.com/sketch -->
    <title>4</title>
    <desc>Created with Sketch.</desc>
    <defs>
        <path d="M104.9712,0.170909091 L6.1536,0.170909091 C2.8404,0.170909091 0.1524,2.88545455 0.1524,6.23333333 L0.1524,33.2333333 C0.1524,36.5806061 2.3454,38.4630303 6.1536,39.2951515 L104.9712,59.9727273 C108.285,59.9727273 110.9706,57.2581818 110.9706,53.9109091 L110.9706,6.23333333 C110.9706,2.88545455 108.285,0.170909091 104.9712,0.170909091 L104.9712,0.170909091 Z M5.9064,8.37939394 C4.5972,8.37939394 3.5352,7.30606061 3.5352,5.98363636 C3.5352,4.66 4.5972,3.58727273 5.9064,3.58727273 C7.2168,3.58727273 8.2776,4.66 8.2776,5.98363636 C8.2776,7.30606061 7.2168,8.37939394 5.9064,8.37939394 L5.9064,8.37939394 Z" id="path-1"></path>
        <path id="path-3" d="M33.9669176,58.9255815 L27.6352626,0.170909091 L4.82394166,0.170909091 L0.334942321,51.8880931 L33.9669176,58.9255815"></path>
    </defs>
    <g id="Page-1" stroke="none" stroke-width="1" fill="none" fill-rule="evenodd" sketch:type="MSPage">
        <g id="Партнёры" sketch:type="MSArtboardGroup" transform="translate(-1339.000000, -949.000000)">
            <g id="2_block" sketch:type="MSLayerGroup" transform="translate(469.000000, 142.000000)">
                <g id="3" transform="translate(0.000000, 717.000000)">
                    <g id="4" transform="translate(870.000000, 90.000000)">
                        <g id="Group-5">
                            <mask id="mask-2" sketch:name="Clip 2" fill="white">
                                <use xlink:href="#path-1"></use>
                            </mask>
                            <g id="Clip-2"></g>
                            <path d="M104.9712,0.170909091 L6.1536,0.170909091 C2.8404,0.170909091 0.1524,2.88545455 0.1524,6.23333333 L0.1524,33.2333333 C0.1524,36.5806061 2.3454,38.4630303 6.1536,39.2951515 L104.9712,59.9727273 C108.285,59.9727273 110.9706,57.2581818 110.9706,53.9109091 L110.9706,6.23333333 C110.9706,2.88545455 108.285,0.170909091 104.9712,0.170909091 L104.9712,0.170909091 Z M5.9064,8.37939394 C4.5972,8.37939394 3.5352,7.30606061 3.5352,5.98363636 C3.5352,4.66 4.5972,3.58727273 5.9064,3.58727273 C7.2168,3.58727273 8.2776,4.66 8.2776,5.98363636 C8.2776,7.30606061 7.2168,8.37939394 5.9064,8.37939394 L5.9064,8.37939394 Z" id="Fill-1" fill="#84BF41" sketch:type="MSShapeGroup" mask="url(#mask-2)"></path>
                            <path d="M88.7142,32.5769697 L18.612,11.1751515 C16.2612,10.4575758 13.7784,11.8012121 13.0668,14.1769697 L7.3362,33.330303 C6.6252,35.7054545 7.7814,37.5157576 10.3062,38.9309091 L76.0194,75.0030303 C78.3714,75.7206061 80.8518,74.3757576 81.5628,72.0006061 L91.683,38.1775758 C92.394,35.8018182 91.0662,33.2945455 88.7142,32.5769697" id="Fill-3" fill="#0D8B42" sketch:type="MSShapeGroup" mask="url(#mask-2)"></path>
                            <path d="M112.1484,69.0581818 L103.1862,-14.1066667 C102.8862,-16.8957576 100.4982,-18.9212121 97.8522,-18.6309091 L76.5234,-16.2866667 C73.878,-15.9951515 72.5898,-13.9860606 72.2778,-10.7090909 L64.9032,74.2527273 C65.205,77.0430303 67.593,79.0654545 70.2378,78.7751515 L107.9028,74.6345455 C110.5488,74.3424242 112.4502,71.8478788 112.1484,69.0581818" id="Fill-4" fill="#572A79" sketch:type="MSShapeGroup" mask="url(#mask-2)"></path>
                        </g>
                        <g id="Group-8" transform="translate(66.000000, 0.000000)">
                            <mask id="mask-4" sketch:name="Clip 7" fill="white">
                                <use xlink:href="#path-3"></use>
                            </mask>
                            <g id="Clip-7"></g>
                            <path d="M22.7142,32.5769697 L-47.388,11.1751515 C-49.7388,10.4575758 -52.2216,11.8012121 -52.9332,14.1769697 L-58.6638,33.330303 C-59.3748,35.7054545 -58.2186,37.5157576 -55.6938,38.9309091 L10.0194,75.0030303 C12.3714,75.7206061 14.8518,74.3757576 15.5628,72.0006061 L25.683,38.1775758 C26.394,35.8018182 25.0662,33.2945455 22.7142,32.5769697" id="Fill-6" fill="#1A1918" sketch:type="MSShapeGroup" mask="url(#mask-4)"></path>
                        </g>
                        <path d="M17.5098,24.4 C16.923,24.5393939 15.2178,24.6781818 14.1792,24.6781818 C11.6304,24.6781818 9.6522,23.9848485 9.6522,20.6193939 L9.6522,10.2066667 C9.6522,9.98969697 9.8286,9.81090909 10.044,9.81090909 L11.9838,9.81090909 C12.1992,9.81090909 12.3756,9.98969697 12.3756,10.2066667 L12.3756,20.6193939 C12.3756,21.9260606 12.768,22.3218182 13.905,22.3218182 L17.5098,22.3218182 C17.7258,22.3218182 17.9022,22.4993939 17.9022,22.7175758 L17.9022,23.9848485 C17.9022,24.2618182 17.8044,24.3412121 17.5098,24.4" id="Fill-9" fill="#FFFFFF" sketch:type="MSShapeGroup"></path>
                        <path d="M30.2286,24.5193939 L28.1514,24.5193939 C27.9756,24.5193939 27.8178,24.3612121 27.7788,24.1824242 L26.877,20.4212121 L22.3698,20.4212121 L21.4686,24.1824242 C21.429,24.3612121 21.2718,24.5193939 21.0966,24.5193939 L19.0182,24.5193939 C18.8232,24.5193939 18.6654,24.3806061 18.6654,24.1824242 C18.6654,24.1630303 18.6858,24.1236364 18.6858,24.0842424 L21.8994,11.6715152 C22.3698,9.83090909 23.7804,9.65272727 24.624,9.65272727 C25.4664,9.65272727 26.877,9.83090909 27.348,11.6715152 L30.561,24.0842424 C30.561,24.1236364 30.5808,24.1630303 30.5808,24.1824242 C30.5808,24.3806061 30.4248,24.5193939 30.2286,24.5193939 L30.2286,24.5193939 Z M24.9372,12.2854545 C24.8784,12.0484848 24.8202,11.9690909 24.624,11.9690909 C24.4272,11.9690909 24.369,12.0484848 24.3096,12.2854545 L22.899,18.1648485 L26.3478,18.1648485 L24.9372,12.2854545 L24.9372,12.2854545 Z" id="Fill-10" fill="#FFFFFF" sketch:type="MSShapeGroup"></path>
                        <path d="M36.7548,24.6781818 C35.1672,24.6781818 33.9714,24.5781818 33.3636,24.4606061 C32.7174,24.3412121 32.424,24.1236364 32.424,23.3909091 L32.424,10.9193939 C32.424,10.2066667 32.6784,9.94969697 33.3048,9.85090909 C33.8154,9.77151515 35.0496,9.65272727 36.5784,9.65272727 C40.1256,9.65272727 42.6138,10.6824242 42.6138,13.6709091 L42.6138,14.0666667 C42.6138,15.3739394 42.006,16.5418182 40.8114,17.0563636 C42.006,17.5709091 42.7122,18.5806061 42.7122,20.0654545 L42.7122,20.4018182 C42.7122,23.549697 40.3998,24.6781818 36.7548,24.6781818 L36.7548,24.6781818 Z M39.969,13.830303 C39.969,12.4436364 39.0864,11.9290909 36.5784,11.9290909 C36.108,11.9290909 35.559,11.949697 35.148,11.9690909 L35.148,15.9872727 L37.6356,15.9872727 C39.4578,15.9872727 39.969,15.1169697 39.969,14.1066667 L39.969,13.830303 L39.969,13.830303 Z M40.0464,20.1048485 C40.0464,19.0157576 39.4776,18.0060606 37.6356,18.0060606 L35.148,18.0060606 L35.148,22.3618182 C35.6178,22.3618182 36.3426,22.4012121 36.7548,22.4012121 C39.2634,22.4012121 40.0464,21.7472727 40.0464,20.3618182 L40.0464,20.1048485 L40.0464,20.1048485 Z" id="Fill-11" fill="#FFFFFF" sketch:type="MSShapeGroup"></path>
                        <path d="M53.4114,24.4 C52.7856,24.4993939 52.0206,24.6781818 49.6884,24.6781818 C47.1402,24.6781818 45.1614,23.9848485 45.1614,20.6193939 L45.1614,13.710303 C45.1614,10.3454545 47.1402,9.65272727 49.6884,9.65272727 C52.0206,9.65272727 52.7856,9.83090909 53.4114,9.93030303 C53.706,9.96909091 53.8038,10.0684848 53.8038,10.3454545 L53.8038,11.6121212 C53.8038,11.830303 53.6274,12.0090909 53.4114,12.0090909 L49.4142,12.0090909 C48.2778,12.0090909 47.8656,12.4042424 47.8656,13.710303 L47.8656,15.849697 L53.1774,15.849697 C53.3928,15.849697 53.5692,16.0266667 53.5692,16.2448485 L53.5692,17.670303 C53.5692,17.8872727 53.3928,18.0660606 53.1774,18.0660606 L47.8656,18.0660606 L47.8656,20.6193939 C47.8656,21.9260606 48.2778,22.3218182 49.4142,22.3218182 L53.4114,22.3218182 C53.6274,22.3218182 53.8038,22.4993939 53.8038,22.7175758 L53.8038,23.9848485 C53.8038,24.2618182 53.706,24.3612121 53.4114,24.4" id="Fill-12" fill="#FFFFFF" sketch:type="MSShapeGroup"></path>
                        <path d="M64.308,24.4 C63.72,24.5393939 62.0154,24.6781818 60.9762,24.6781818 C58.428,24.6781818 56.4498,23.9848485 56.4498,20.6193939 L56.4498,10.2066667 C56.4498,9.98969697 56.6256,9.81090909 56.8416,9.81090909 L58.7814,9.81090909 C58.9974,9.81090909 59.1732,9.98969697 59.1732,10.2066667 L59.1732,20.6193939 C59.1732,21.9260606 59.5656,22.3218182 60.702,22.3218182 L64.308,22.3218182 C64.524,22.3218182 64.6998,22.4993939 64.6998,22.7175758 L64.6998,23.9848485 C64.6998,24.2618182 64.6032,24.3412121 64.308,24.4" id="Fill-13" fill="#FFFFFF" sketch:type="MSShapeGroup"></path>
                        <path d="M77.9358,24.490303 L77.7396,24.490303 C77.5446,24.490303 77.4072,24.3127273 77.4072,24.1139394 L77.4072,10.6533333 C77.4072,10.5545455 77.3478,10.5145455 77.2686,10.5145455 C77.1714,10.5145455 77.1318,10.5545455 77.0742,10.6933333 L73.683,17.9175758 C73.4082,18.4921212 73.1154,18.6315152 72.6846,18.6315152 C72.252,18.6315152 71.958,18.4921212 71.6844,17.9175758 L68.2944,10.6933333 C68.2356,10.5545455 68.1966,10.5145455 68.0976,10.5145455 C68.019,10.5145455 67.9602,10.5545455 67.9602,10.6533333 L67.9602,24.1139394 C67.9602,24.3127273 67.8234,24.490303 67.6278,24.490303 L67.4316,24.490303 C67.2348,24.490303 67.098,24.3127273 67.098,24.1139394 L67.098,10.6533333 C67.098,10 67.4904,9.6830303 68.0976,9.6830303 C68.568,9.6830303 68.8428,9.96060606 68.9988,10.2963636 L72.429,17.5618182 C72.507,17.74 72.5658,17.82 72.6846,17.82 C72.801,17.82 72.8598,17.74 72.9384,17.5618182 L76.368,10.2963636 C76.524,9.96060606 76.7988,9.6830303 77.2686,9.6830303 C77.877,9.6830303 78.2694,10 78.2694,10.6533333 L78.2694,24.1139394 C78.2694,24.3127273 78.1314,24.490303 77.9358,24.490303" id="Fill-14" fill="#FFFFFF" sketch:type="MSShapeGroup"></path>
                        <path d="M88.8318,24.490303 L83.7756,24.490303 C82.2852,24.490303 81.405,23.9363636 81.405,22.2733333 L81.405,11.9993939 C81.405,10.3363636 82.2852,9.78242424 83.7756,9.78242424 L88.8318,9.78242424 C89.0472,9.78242424 89.2038,9.92121212 89.2038,10.1187879 L89.2038,10.2769697 C89.2038,10.4751515 89.0472,10.5933333 88.8318,10.5933333 L83.7756,10.5933333 C82.8348,10.5933333 82.2654,10.7721212 82.2654,11.9993939 L82.2654,16.3539394 L88.8318,16.3539394 C89.0472,16.3539394 89.2038,16.4727273 89.2038,16.670303 L89.2038,16.8690909 C89.2038,17.0666667 89.0472,17.2054545 88.8318,17.2054545 L82.2654,17.2054545 L82.2654,22.2733333 C82.2654,23.5012121 82.8348,23.6775758 83.7756,23.6775758 L88.8318,23.6775758 C89.0472,23.6775758 89.2038,23.7969697 89.2038,23.9951515 L89.2038,24.1533333 C89.2038,24.3515152 89.0472,24.490303 88.8318,24.490303" id="Fill-15" fill="#FFFFFF" sketch:type="MSShapeGroup"></path>
                        <path d="M100.59,24.6084848 L100.5702,24.6084848 C100.2762,24.6084848 100.1004,24.6084848 99.924,24.470303 C99.8064,24.3715152 99.6684,24.2127273 99.5712,24.0157576 L92.9664,10.6533333 C92.9274,10.5739394 92.8878,10.5145455 92.8092,10.5145455 C92.7702,10.5145455 92.712,10.5545455 92.712,10.6533333 L92.712,24.1139394 C92.712,24.3127273 92.574,24.490303 92.3784,24.490303 L92.1828,24.490303 C91.9872,24.490303 91.8486,24.3127273 91.8486,24.1139394 L91.8486,10.6533333 C91.8486,10.0593939 92.241,9.6830303 92.8092,9.6830303 C93.3582,9.6830303 93.5742,9.92121212 93.75,10.2963636 L100.335,23.6393939 C100.374,23.7181818 100.413,23.7769697 100.4916,23.7769697 C100.5702,23.7769697 100.59,23.6775758 100.59,23.5993939 L100.59,10.1581818 C100.59,9.96060606 100.707,9.78242424 100.9026,9.78242424 L101.1384,9.78242424 C101.3538,9.78242424 101.472,9.96060606 101.472,10.1581818 L101.472,23.5993939 C101.472,24.2321212 101.0796,24.6084848 100.59,24.6084848" id="Fill-16" fill="#FFFFFF" sketch:type="MSShapeGroup"></path>
                        <path d="M47.3598,34.1224242 L45.8556,34.1224242 C45.8016,34.1224242 45.7782,34.0915152 45.7782,34.0442424 L45.7782,29.3672727 C45.7782,29.32 45.7938,29.2890909 45.8484,29.2890909 L47.2602,29.2890909 C48.0504,29.2890909 48.5628,29.7121212 48.5628,30.5181818 C48.5628,30.8793939 48.3522,31.2951515 47.9886,31.490303 C47.9724,31.5060606 47.9724,31.529697 47.9964,31.5454545 C48.4692,31.7406061 48.702,32.2345455 48.702,32.72 C48.702,33.5424242 48.1896,34.1224242 47.3598,34.1224242 L47.3598,34.1224242 Z M47.2512,29.7193939 L46.329,29.7193939 C46.29,29.7193939 46.2744,29.7272727 46.2744,29.7745455 L46.2744,31.2551515 C46.2744,31.3030303 46.2822,31.3187879 46.329,31.3187879 L47.2602,31.3187879 C47.7708,31.3187879 48.0738,30.9733333 48.0738,30.5115152 C48.0738,30.0339394 47.7792,29.7193939 47.2512,29.7193939 L47.2512,29.7193939 Z M47.2674,31.7484848 L46.329,31.7484848 C46.29,31.7484848 46.2744,31.7648485 46.2744,31.8109091 L46.2744,33.6290909 C46.2744,33.6678788 46.2978,33.6836364 46.3362,33.6836364 L47.3448,33.6836364 C47.8878,33.6836364 48.2058,33.2769697 48.2058,32.7351515 C48.2058,32.2187879 47.9028,31.7484848 47.2674,31.7484848 L47.2674,31.7484848 Z" id="Fill-17" fill="#FFFFFF" sketch:type="MSShapeGroup"></path>
                        <path d="M51.6108,31.96 C51.588,31.9763636 51.588,32 51.5958,32.0224242 C51.6108,32.0460606 51.9444,32.7830303 52.5108,33.989697 C52.5576,34.0915152 52.4952,34.1224242 52.4412,34.1224242 L52.1388,34.1224242 C52.014,34.1224242 51.984,34.0842424 51.9528,33.9969697 L51.1068,32.1478788 C51.0834,32.1012121 51.0606,32.069697 50.9826,32.069697 L50.052,32.069697 C50.0058,32.069697 49.9902,32.0933333 49.9902,32.1333333 L49.9902,34.0442424 C49.9902,34.0915152 49.9674,34.1224242 49.9212,34.1224242 L49.5792,34.1224242 C49.533,34.1224242 49.5024,34.0987879 49.5024,34.0521212 L49.5024,29.3751515 C49.5024,29.32 49.533,29.2890909 49.587,29.2890909 L50.9676,29.2890909 C51.8904,29.2890909 52.3482,29.8218182 52.3482,30.6206061 C52.3482,31.2006061 51.984,31.6939394 51.6108,31.96 L51.6108,31.96 Z M50.0598,29.7193939 C50.0136,29.7193939 49.9902,29.7430303 49.9902,29.7830303 L49.9902,31.5769697 C49.9902,31.6157576 50.0058,31.6393939 50.0436,31.6393939 L51.1842,31.6393939 C51.2466,31.6393939 51.2934,31.6157576 51.3168,31.6 C51.6342,31.4042424 51.8436,31.0121212 51.8436,30.6757576 C51.8436,30.2369697 51.6654,29.7193939 50.8824,29.7193939 L50.0598,29.7193939 L50.0598,29.7193939 Z" id="Fill-18" fill="#FFFFFF" sketch:type="MSShapeGroup"></path>
                        <path d="M55.6368,34.1224242 C55.5828,34.1224242 55.5588,34.1066667 55.5432,34.0678788 L55.2486,32.9945455 C55.2414,32.970303 55.233,32.9630303 55.2102,32.9630303 L53.6346,32.9630303 C53.6046,32.9630303 53.5968,32.970303 53.5884,32.9866667 C53.5422,33.2054545 53.3568,33.8490909 53.3016,34.0678788 C53.2944,34.1066667 53.2632,34.1224242 53.2164,34.1224242 L52.899,34.1224242 C52.8372,34.1224242 52.8054,34.1066667 52.821,34.0278788 L54.0702,29.3672727 C54.0774,29.3278788 54.1008,29.2890909 54.1626,29.2890909 L54.6822,29.2890909 C54.7362,29.2890909 54.7602,29.3042424 54.7758,29.3587879 L56.0478,34.0127273 C56.0628,34.06 56.0706,34.1224242 55.9926,34.1224242 L55.6368,34.1224242 L55.6368,34.1224242 Z M54.1548,30.8406061 L53.7126,32.4848485 C53.7054,32.5327273 53.7126,32.54 53.7432,32.54 L55.086,32.54 C55.1328,32.54 55.14,32.5327273 55.1328,32.4848485 L54.6906,30.8484848 L54.4422,29.8375758 C54.4344,29.8054545 54.4116,29.8054545 54.4038,29.8375758 L54.1548,30.8406061 L54.1548,30.8406061 Z" id="Fill-19" fill="#FFFFFF" sketch:type="MSShapeGroup"></path>
                        <path d="M57.0018,29.2890909 C57.1026,29.2890909 57.126,29.3363636 57.165,29.3909091 L59.1816,33.1121212 C59.1894,33.1272727 59.2044,33.1357576 59.2044,33.1121212 L59.2044,29.3672727 C59.2044,29.32 59.22,29.2890909 59.2746,29.2890909 L59.6076,29.2890909 C59.6544,29.2890909 59.6778,29.32 59.6778,29.3587879 L59.6778,33.9969697 C59.6778,34.0987879 59.6154,34.1224242 59.5614,34.1224242 L59.3208,34.1224242 C59.2284,34.1224242 59.1972,34.0915152 59.166,34.0278788 L57.15,30.3230303 C57.1422,30.3066667 57.126,30.2993939 57.126,30.3230303 L57.126,34.0442424 C57.126,34.0915152 57.1104,34.1224242 57.0492,34.1224242 L56.7222,34.1224242 C56.6766,34.1224242 56.6532,34.0915152 56.6532,34.0442424 L56.6532,29.4375758 C56.6532,29.3442424 56.6676,29.2890909 56.7774,29.2890909 L57.0018,29.2890909" id="Fill-20" fill="#FFFFFF" sketch:type="MSShapeGroup"></path>
                        <path d="M62.091,34.1224242 L60.6792,34.1224242 C60.6324,34.1224242 60.6012,34.0915152 60.6012,34.0442424 L60.6012,29.3672727 C60.6012,29.32 60.6324,29.2890909 60.6792,29.2890909 L62.0982,29.2890909 C62.982,29.2890909 63.4638,29.7672727 63.4638,30.6290909 L63.4638,32.7351515 C63.4638,33.6369697 62.9592,34.1224242 62.091,34.1224242 L62.091,34.1224242 Z M62.9592,30.5969697 C62.9592,30.0412121 62.6802,29.7193939 62.067,29.7193939 L61.1598,29.7193939 C61.1214,29.7193939 61.098,29.7272727 61.098,29.7745455 L61.098,33.6290909 C61.098,33.6678788 61.1136,33.6836364 61.1598,33.6836364 L62.0982,33.6836364 C62.6484,33.6836364 62.9592,33.370303 62.9592,32.8060606 L62.9592,30.5969697 L62.9592,30.5969697 Z" id="Fill-21" fill="#FFFFFF" sketch:type="MSShapeGroup"></path>
                        <path d="M68.5674,34.1224242 L66.054,34.1224242 C66.0078,34.1224242 65.9694,34.0915152 65.9694,34.0442424 L65.9694,29.3672727 C65.9694,29.32 66,29.2890909 66.054,29.2890909 L68.505,29.2890909 C68.5518,29.2890909 68.583,29.32 68.583,29.3672727 L68.583,29.6490909 C68.583,29.6957576 68.5596,29.7193939 68.505,29.7193939 L66.528,29.7193939 C66.489,29.7193939 66.4656,29.7272727 66.4656,29.7745455 L66.4656,31.3418182 C66.4656,31.3806061 66.4806,31.3963636 66.5202,31.3963636 L68.2026,31.3963636 C68.2572,31.3963636 68.28,31.42 68.28,31.4751515 L68.28,31.7648485 C68.28,31.8109091 68.2572,31.8345455 68.211,31.8345455 L66.528,31.8345455 C66.489,31.8345455 66.4656,31.850303 66.4656,31.8975758 L66.4656,33.6290909 C66.4656,33.6678788 66.489,33.6836364 66.5202,33.6836364 L68.5674,33.6836364 C68.6136,33.6836364 68.6448,33.7072727 68.6448,33.7545455 L68.6448,34.0442424 C68.6448,34.0915152 68.6208,34.1224242 68.5674,34.1224242" id="Fill-22" fill="#FFFFFF" sketch:type="MSShapeGroup"></path>
                        <path d="M69.6924,29.2890909 C69.7932,29.2890909 69.8166,29.3363636 69.855,29.3909091 L71.8722,33.1121212 C71.8794,33.1272727 71.8944,33.1357576 71.8944,33.1121212 L71.8944,29.3672727 C71.8944,29.32 71.9106,29.2890909 71.9646,29.2890909 L72.2976,29.2890909 C72.345,29.2890909 72.3684,29.32 72.3684,29.3587879 L72.3684,33.9969697 C72.3684,34.0987879 72.3054,34.1224242 72.2514,34.1224242 L72.0114,34.1224242 C71.9184,34.1224242 71.8866,34.0915152 71.856,34.0278788 L69.8394,30.3230303 C69.8328,30.3066667 69.8166,30.2993939 69.8166,30.3230303 L69.8166,34.0442424 C69.8166,34.0915152 69.8004,34.1224242 69.7386,34.1224242 L69.4128,34.1224242 C69.3672,34.1224242 69.3438,34.0915152 69.3438,34.0442424 L69.3438,29.4375758 C69.3438,29.3442424 69.3588,29.2890909 69.468,29.2890909 L69.6924,29.2890909" id="Fill-23" fill="#FFFFFF" sketch:type="MSShapeGroup"></path>
                        <path d="M74.6952,34.169697 C73.881,34.169697 73.2678,33.7 73.2678,32.8769697 L73.2678,30.5181818 C73.2678,29.7509091 73.8888,29.2260606 74.6952,29.2260606 C75.1752,29.2260606 75.6954,29.4060606 75.9438,29.7981818 C75.9744,29.8612121 75.9666,29.8842424 75.9126,29.9315152 L75.6954,30.1036364 C75.648,30.1430303 75.5868,30.1193939 75.5478,30.0642424 C75.3468,29.7830303 74.997,29.6721212 74.703,29.6721212 C74.106,29.6721212 73.764,30.0727273 73.764,30.5660606 L73.764,32.8612121 C73.764,33.3866667 74.1522,33.7387879 74.6952,33.7387879 C75.2064,33.7387879 75.5706,33.4254545 75.5706,32.8690909 L75.5706,32.0151515 C75.5706,31.9763636 75.5634,31.9521212 75.525,31.9521212 L74.8968,31.9521212 C74.85,31.9521212 74.8188,31.9363636 74.8188,31.8818182 L74.8188,31.5848485 C74.8188,31.5375758 74.8416,31.5060606 74.8968,31.5060606 L75.9978,31.5060606 C76.0446,31.5060606 76.083,31.5375758 76.083,31.5848485 L76.083,32.8769697 C76.083,33.6290909 75.525,34.169697 74.6952,34.169697" id="Fill-24" fill="#FFFFFF" sketch:type="MSShapeGroup"></path>
                        <path d="M77.4954,34.1224242 L77.1468,34.1224242 C77.1,34.1224242 77.0694,34.0987879 77.0694,34.0521212 L77.0694,29.3587879 C77.0694,29.3121212 77.0922,29.2890909 77.1468,29.2890909 L77.4954,29.2890909 C77.5428,29.2890909 77.5734,29.32 77.5734,29.3587879 L77.5734,34.0442424 C77.5734,34.0915152 77.55,34.1224242 77.4954,34.1224242" id="Fill-25" fill="#FFFFFF" sketch:type="MSShapeGroup"></path>
                        <path d="M79.0002,29.2890909 C79.101,29.2890909 79.1244,29.3363636 79.1628,29.3909091 L81.18,33.1121212 C81.1872,33.1272727 81.2022,33.1357576 81.2022,33.1121212 L81.2022,29.3672727 C81.2022,29.32 81.219,29.2890909 81.2724,29.2890909 L81.606,29.2890909 C81.6534,29.2890909 81.6762,29.32 81.6762,29.3587879 L81.6762,33.9969697 C81.6762,34.0987879 81.6132,34.1224242 81.5592,34.1224242 L81.3192,34.1224242 C81.2262,34.1224242 81.1944,34.0915152 81.1644,34.0278788 L79.1478,30.3230303 C79.1406,30.3066667 79.1244,30.2993939 79.1244,30.3230303 L79.1244,34.0442424 C79.1244,34.0915152 79.1082,34.1224242 79.047,34.1224242 L78.7212,34.1224242 C78.675,34.1224242 78.6516,34.0915152 78.6516,34.0442424 L78.6516,29.4375758 C78.6516,29.3442424 78.6666,29.2890909 78.7758,29.2890909 L79.0002,29.2890909" id="Fill-26" fill="#FFFFFF" sketch:type="MSShapeGroup"></path>
                        <path d="M85.1904,34.1224242 L82.6776,34.1224242 C82.6308,34.1224242 82.5918,34.0915152 82.5918,34.0442424 L82.5918,29.3672727 C82.5918,29.32 82.6236,29.2890909 82.6776,29.2890909 L85.128,29.2890909 C85.1748,29.2890909 85.2054,29.32 85.2054,29.3672727 L85.2054,29.6490909 C85.2054,29.6957576 85.1826,29.7193939 85.128,29.7193939 L83.1504,29.7193939 C83.112,29.7193939 83.088,29.7272727 83.088,29.7745455 L83.088,31.3418182 C83.088,31.3806061 83.1036,31.3963636 83.1426,31.3963636 L84.825,31.3963636 C84.879,31.3963636 84.903,31.42 84.903,31.4751515 L84.903,31.7648485 C84.903,31.8109091 84.879,31.8345455 84.8334,31.8345455 L83.1504,31.8345455 C83.112,31.8345455 83.088,31.850303 83.088,31.8975758 L83.088,33.6290909 C83.088,33.6678788 83.112,33.6836364 83.1426,33.6836364 L85.1904,33.6836364 C85.2366,33.6836364 85.2672,33.7072727 85.2672,33.7545455 L85.2672,34.0442424 C85.2672,34.0915152 85.2438,34.1224242 85.1904,34.1224242" id="Fill-27" fill="#FFFFFF" sketch:type="MSShapeGroup"></path>
                        <path d="M88.5636,34.1224242 L86.0514,34.1224242 C86.0046,34.1224242 85.9662,34.0915152 85.9662,34.0442424 L85.9662,29.3672727 C85.9662,29.32 85.9968,29.2890909 86.0514,29.2890909 L88.503,29.2890909 C88.5492,29.2890909 88.5798,29.32 88.5798,29.3672727 L88.5798,29.6490909 C88.5798,29.6957576 88.5564,29.7193939 88.503,29.7193939 L86.5248,29.7193939 C86.4858,29.7193939 86.4624,29.7272727 86.4624,29.7745455 L86.4624,31.3418182 C86.4624,31.3806061 86.4774,31.3963636 86.517,31.3963636 L88.1994,31.3963636 C88.2534,31.3963636 88.2774,31.42 88.2774,31.4751515 L88.2774,31.7648485 C88.2774,31.8109091 88.2534,31.8345455 88.2072,31.8345455 L86.5248,31.8345455 C86.4858,31.8345455 86.4624,31.850303 86.4624,31.8975758 L86.4624,33.6290909 C86.4624,33.6678788 86.4858,33.6836364 86.517,33.6836364 L88.5636,33.6836364 C88.611,33.6836364 88.6416,33.7072727 88.6416,33.7545455 L88.6416,34.0442424 C88.6416,34.0915152 88.6188,34.1224242 88.5636,34.1224242" id="Fill-28" fill="#FFFFFF" sketch:type="MSShapeGroup"></path>
                        <path d="M91.4724,31.96 C91.4502,31.9763636 91.4502,32 91.458,32.0224242 C91.4724,32.0460606 91.8066,32.7830303 92.373,33.989697 C92.4192,34.0915152 92.3568,34.1224242 92.3028,34.1224242 L92.0004,34.1224242 C91.8762,34.1224242 91.8456,34.0842424 91.815,33.9969697 L90.969,32.1478788 C90.9456,32.1012121 90.9222,32.069697 90.8448,32.069697 L89.9142,32.069697 C89.868,32.069697 89.8518,32.0933333 89.8518,32.1333333 L89.8518,34.0442424 C89.8518,34.0915152 89.8296,34.1224242 89.7828,34.1224242 L89.4414,34.1224242 C89.3952,34.1224242 89.364,34.0987879 89.364,34.0521212 L89.364,29.3751515 C89.364,29.32 89.3952,29.2890909 89.4492,29.2890909 L90.8292,29.2890909 C91.7526,29.2890909 92.2104,29.8218182 92.2104,30.6206061 C92.2104,31.2006061 91.8456,31.6939394 91.4724,31.96 L91.4724,31.96 Z M89.922,29.7193939 C89.8752,29.7193939 89.8518,29.7430303 89.8518,29.7830303 L89.8518,31.5769697 C89.8518,31.6157576 89.868,31.6393939 89.9064,31.6393939 L91.0464,31.6393939 C91.1082,31.6393939 91.155,31.6157576 91.1784,31.6 C91.4964,31.4042424 91.7058,31.0121212 91.7058,30.6757576 C91.7058,30.2369697 91.5276,29.7193939 90.744,29.7193939 L89.922,29.7193939 L89.922,29.7193939 Z" id="Fill-29" fill="#FFFFFF" sketch:type="MSShapeGroup"></path>
                        <path d="M93.5742,34.1224242 L93.2256,34.1224242 C93.18,34.1224242 93.1482,34.0987879 93.1482,34.0521212 L93.1482,29.3587879 C93.1482,29.3121212 93.1722,29.2890909 93.2256,29.2890909 L93.5742,29.2890909 C93.6216,29.2890909 93.6528,29.32 93.6528,29.3587879 L93.6528,34.0442424 C93.6528,34.0915152 93.6288,34.1224242 93.5742,34.1224242" id="Fill-30" fill="#FFFFFF" sketch:type="MSShapeGroup"></path>
                        <path d="M95.0802,29.2890909 C95.181,29.2890909 95.2044,29.3363636 95.2422,29.3909091 L97.2594,33.1121212 C97.2672,33.1272727 97.2822,33.1357576 97.2822,33.1121212 L97.2822,29.3672727 C97.2822,29.32 97.2978,29.2890909 97.3518,29.2890909 L97.686,29.2890909 C97.7322,29.2890909 97.7556,29.32 97.7556,29.3587879 L97.7556,33.9969697 C97.7556,34.0987879 97.6938,34.1224242 97.6392,34.1224242 L97.3986,34.1224242 C97.3056,34.1224242 97.275,34.0915152 97.2438,34.0278788 L95.2278,30.3230303 C95.2194,30.3066667 95.2044,30.2993939 95.2044,30.3230303 L95.2044,34.0442424 C95.2044,34.0915152 95.1882,34.1224242 95.1264,34.1224242 L94.8006,34.1224242 C94.7544,34.1224242 94.731,34.0915152 94.731,34.0442424 L94.731,29.4375758 C94.731,29.3442424 94.746,29.2890909 94.8552,29.2890909 L95.0802,29.2890909" id="Fill-31" fill="#FFFFFF" sketch:type="MSShapeGroup"></path>
                        <path d="M100.083,34.169697 C99.2688,34.169697 98.6556,33.7 98.6556,32.8769697 L98.6556,30.5181818 C98.6556,29.7509091 99.2766,29.2260606 100.083,29.2260606 C100.5642,29.2260606 101.0838,29.4060606 101.3322,29.7981818 C101.3634,29.8612121 101.3556,29.8842424 101.3004,29.9315152 L101.0838,30.1036364 C101.0376,30.1430303 100.9752,30.1193939 100.9362,30.0642424 C100.7352,29.7830303 100.3848,29.6721212 100.0908,29.6721212 C99.4932,29.6721212 99.1524,30.0727273 99.1524,30.5660606 L99.1524,32.8612121 C99.1524,33.3866667 99.54,33.7387879 100.083,33.7387879 C100.5942,33.7387879 100.9596,33.4254545 100.9596,32.8690909 L100.9596,32.0151515 C100.9596,31.9763636 100.9518,31.9521212 100.9128,31.9521212 L100.2852,31.9521212 C100.2384,31.9521212 100.2078,31.9363636 100.2078,31.8818182 L100.2078,31.5848485 C100.2078,31.5375758 100.23,31.5060606 100.2852,31.5060606 L101.3862,31.5060606 C101.433,31.5060606 101.472,31.5375758 101.472,31.5848485 L101.472,32.8769697 C101.472,33.6290909 100.9128,34.169697 100.083,34.169697" id="Fill-32" fill="#FFFFFF" sketch:type="MSShapeGroup"></path>
                        <path d="M67.899,39.5727273 C67.899,40.4187879 67.4418,41.0690909 66.4956,41.0690909 L66.3864,41.0690909 C65.4876,41.0690909 65.0142,40.5206061 65.0142,39.7133333 L65.0142,37.9509091 C65.0142,37.1921212 65.6118,36.6745455 66.4098,36.6745455 L67.4418,36.6745455 C67.4886,36.6745455 67.5192,36.6975758 67.5192,36.7454545 L67.5192,37.0193939 C67.5192,37.0660606 67.4958,37.089697 67.4496,37.089697 L66.4098,37.089697 C65.868,37.089697 65.4876,37.4418182 65.4876,37.9509091 L65.4876,39.7054545 C65.4876,40.2072727 65.7048,40.6618182 66.3864,40.6618182 L66.4956,40.6618182 C67.1928,40.6618182 67.434,40.1533333 67.434,39.6515152 L67.434,38.7575758 C67.434,38.7345455 67.434,38.6793939 67.3566,38.6793939 L66.4488,38.6793939 C66.4026,38.6793939 66.3792,38.6557576 66.3792,38.6090909 L66.3792,38.3509091 C66.3792,38.3036364 66.4182,38.2727273 66.4566,38.2727273 L67.9764,38.2727273 C68.2254,38.2727273 68.5122,38.2175758 68.7912,38.0212121 C68.8146,37.9975758 68.8374,37.990303 68.8614,37.990303 C68.8848,37.990303 68.9076,38.0066667 68.931,38.029697 L69.0246,38.1775758 C69.0468,38.2090909 69.0552,38.2327273 69.0552,38.2563636 C69.0552,38.2878788 69.039,38.3036364 69.0162,38.3266667 C68.799,38.5460606 68.31,38.6557576 68.0238,38.6721212 C67.9386,38.6793939 67.899,38.7109091 67.899,38.7890909 L67.899,39.5727273" id="Fill-33" fill="#FFFFFF" sketch:type="MSShapeGroup"></path>
                        <path d="M74.7954,41.0218182 L74.469,41.0218182 C74.4072,41.0218182 74.391,40.9909091 74.391,40.9515152 L74.391,37.4963636 C74.391,37.4654545 74.3766,37.4745455 74.361,37.4890909 L73.8642,38.8527273 C73.74,39.1660606 73.2438,40.450303 73.1352,40.7557576 C73.1118,40.7945455 73.0812,40.849697 73.0104,40.849697 L72.771,40.849697 C72.7008,40.849697 72.6702,40.8418182 72.6384,40.7630303 C72.5226,40.4345455 72.0342,39.149697 71.91,38.8212121 C71.871,38.7109091 71.4762,37.6145455 71.4294,37.5048485 C71.4216,37.4890909 71.406,37.4818182 71.406,37.5048485 L71.406,40.9436364 C71.406,40.9909091 71.3898,41.0218182 71.3358,41.0218182 L71.0106,41.0218182 C70.9632,41.0218182 70.9326,40.9981818 70.9326,40.9515152 L70.9326,36.3145455 C70.9326,36.2436364 70.9632,36.1884848 71.049,36.1884848 L71.2896,36.1884848 C71.3982,36.1884848 71.4132,36.2042424 71.4444,36.2824242 C71.6226,36.7690909 72.3282,38.6721212 72.5142,39.1569697 L72.8712,40.1684848 C72.8868,40.2 72.9174,40.2 72.933,40.1684848 C73.0494,39.8387879 73.1658,39.4793939 73.2906,39.149697 L74.3532,36.2751515 C74.391,36.2121212 74.4222,36.1884848 74.4996,36.1884848 L74.7492,36.1884848 C74.85,36.1884848 74.8644,36.2436364 74.8644,36.3145455 L74.8644,40.9436364 C74.8644,40.9981818 74.8416,41.0218182 74.7954,41.0218182" id="Fill-34" fill="#FFFFFF" sketch:type="MSShapeGroup"></path>
                        <path d="M78.216,41.0218182 C78.162,41.0218182 78.1386,41.0060606 78.1224,40.9666667 L77.8284,39.8939394 C77.8206,39.870303 77.8128,39.8624242 77.7894,39.8624242 L76.2156,39.8624242 C76.1838,39.8624242 76.1766,39.870303 76.1676,39.8860606 C76.1226,40.1054545 75.936,40.7484848 75.8808,40.9666667 C75.8736,41.0060606 75.8424,41.0218182 75.7962,41.0218182 L75.4776,41.0218182 C75.4164,41.0218182 75.3846,41.0060606 75.4002,40.9278788 L76.6494,36.2672727 C76.6572,36.2272727 76.68,36.1884848 76.7418,36.1884848 L77.2614,36.1884848 C77.316,36.1884848 77.3394,36.2042424 77.355,36.2593939 L78.6276,40.9127273 C78.6426,40.96 78.6504,41.0218182 78.5724,41.0218182 L78.216,41.0218182 L78.216,41.0218182 Z M76.7346,37.74 L76.2924,39.3848485 C76.2846,39.4321212 76.2924,39.44 76.323,39.44 L77.6658,39.44 C77.7126,39.44 77.7198,39.4321212 77.7126,39.3848485 L77.2698,37.7478788 L77.0214,36.7375758 C77.0136,36.7054545 76.9908,36.7054545 76.983,36.7375758 L76.7346,37.74 L76.7346,37.74 Z" id="Fill-35" fill="#FFFFFF" sketch:type="MSShapeGroup"></path>
                        <path d="M81.3654,38.86 C81.3426,38.8757576 81.3426,38.8993939 81.3504,38.9224242 C81.3654,38.9460606 81.6984,39.6824242 82.2648,40.8890909 C82.3122,40.9909091 82.2492,41.0218182 82.1946,41.0218182 L81.8928,41.0218182 C81.7686,41.0218182 81.7374,40.9830303 81.7068,40.8963636 L80.8614,39.0478788 C80.838,39.0006061 80.8152,38.9690909 80.7372,38.9690909 L79.8072,38.9690909 C79.7598,38.9690909 79.7442,38.9933333 79.7442,39.0321212 L79.7442,40.9436364 C79.7442,40.9909091 79.7214,41.0218182 79.6746,41.0218182 L79.3338,41.0218182 C79.287,41.0218182 79.2558,40.9981818 79.2558,40.9515152 L79.2558,36.2751515 C79.2558,36.2193939 79.287,36.1884848 79.341,36.1884848 L80.7222,36.1884848 C81.6444,36.1884848 82.1022,36.7212121 82.1022,37.5206061 C82.1022,38.0993939 81.7374,38.5933333 81.3654,38.86 L81.3654,38.86 Z M79.8144,36.6193939 C79.7676,36.6193939 79.7442,36.6430303 79.7442,36.6824242 L79.7442,38.4763636 C79.7442,38.5157576 79.7598,38.5381818 79.7988,38.5381818 L80.9394,38.5381818 C81.0018,38.5381818 81.0474,38.5157576 81.0708,38.4993939 C81.3882,38.3036364 81.5976,37.9115152 81.5976,37.5751515 C81.5976,37.1363636 81.4206,36.6193939 80.637,36.6193939 L79.8144,36.6193939 L79.8144,36.6193939 Z" id="Fill-36" fill="#FFFFFF" sketch:type="MSShapeGroup"></path>
                        <path d="M85.779,36.1884848 C85.8636,36.1884848 85.8714,36.2436364 85.8402,36.2824242 L84.2898,38.1157576 C84.2502,38.170303 84.2742,38.1866667 84.3282,38.1866667 C84.429,38.170303 84.5448,38.1630303 84.6378,38.170303 C85.4448,38.2090909 85.7394,38.750303 85.794,39.4472727 L85.9026,40.9515152 C85.9026,41.0060606 85.8798,41.0218182 85.8324,41.0218182 L85.5066,41.0218182 C85.4598,41.0218182 85.437,41.0060606 85.437,40.96 L85.3362,39.5418182 C85.3134,39.1260606 85.212,38.5624242 84.414,38.5624242 C83.7,38.5624242 83.4204,39.04 83.4204,39.5654545 L83.4204,40.9515152 C83.4204,40.9981818 83.4048,41.0218182 83.3664,41.0218182 L82.9938,41.0218182 C82.9476,41.0218182 82.9236,40.9981818 82.9236,40.96 L82.9236,36.2672727 C82.9236,36.2121212 82.9398,36.1884848 82.9938,36.1884848 L83.3664,36.1884848 C83.4048,36.1884848 83.4204,36.2121212 83.4204,36.2593939 L83.4204,38.3424242 C83.4204,38.4206061 83.4522,38.4290909 83.4984,38.3745455 L85.3062,36.2436364 C85.344,36.2042424 85.368,36.1884848 85.4058,36.1884848 L85.779,36.1884848" id="Fill-37" fill="#FFFFFF" sketch:type="MSShapeGroup"></path>
                        <path d="M89.1456,41.0218182 L86.6334,41.0218182 C86.5866,41.0218182 86.5482,40.9909091 86.5482,40.9436364 L86.5482,36.2672727 C86.5482,36.2193939 86.5788,36.1884848 86.6334,36.1884848 L89.0838,36.1884848 C89.1306,36.1884848 89.1612,36.2193939 89.1612,36.2672727 L89.1612,36.5484848 C89.1612,36.5957576 89.1384,36.6193939 89.0838,36.6193939 L87.1062,36.6193939 C87.0678,36.6193939 87.0444,36.6272727 87.0444,36.6745455 L87.0444,38.2412121 C87.0444,38.28 87.0594,38.2963636 87.0984,38.2963636 L88.7808,38.2963636 C88.8354,38.2963636 88.8588,38.3193939 88.8588,38.3745455 L88.8588,38.6642424 C88.8588,38.7109091 88.8354,38.7345455 88.7898,38.7345455 L87.1062,38.7345455 C87.0678,38.7345455 87.0444,38.750303 87.0444,38.7975758 L87.0444,40.5284848 C87.0444,40.5684848 87.0678,40.5830303 87.0984,40.5830303 L89.1456,40.5830303 C89.1918,40.5830303 89.223,40.6072727 89.223,40.6539394 L89.223,40.9436364 C89.223,40.9909091 89.1996,41.0218182 89.1456,41.0218182" id="Fill-38" fill="#FFFFFF" sketch:type="MSShapeGroup"></path>
                        <path d="M92.451,36.6193939 L91.341,36.6193939 C91.3026,36.6193939 91.2792,36.6272727 91.2792,36.6745455 L91.2792,40.9436364 C91.2792,40.9909091 91.2636,41.0218182 91.2096,41.0218182 L90.8604,41.0218182 C90.8136,41.0218182 90.783,40.9981818 90.783,40.9515152 L90.783,36.6824242 C90.783,36.6357576 90.7674,36.6193939 90.72,36.6193939 L89.6352,36.6193939 C89.5884,36.6193939 89.565,36.6115152 89.565,36.5484848 L89.565,36.2672727 C89.565,36.2193939 89.5884,36.1884848 89.6352,36.1884848 L92.451,36.1884848 C92.4966,36.1884848 92.52,36.2193939 92.52,36.2593939 L92.52,36.5484848 C92.52,36.5957576 92.4966,36.6193939 92.451,36.6193939" id="Fill-39" fill="#FFFFFF" sketch:type="MSShapeGroup"></path>
                        <path d="M93.5748,41.0218182 L93.2268,41.0218182 C93.18,41.0218182 93.1488,40.9981818 93.1488,40.9515152 L93.1488,36.2593939 C93.1488,36.2121212 93.1722,36.1884848 93.2268,36.1884848 L93.5748,36.1884848 C93.6222,36.1884848 93.6528,36.2193939 93.6528,36.2593939 L93.6528,40.9436364 C93.6528,40.9909091 93.6294,41.0218182 93.5748,41.0218182" id="Fill-40" fill="#FFFFFF" sketch:type="MSShapeGroup"></path>
                        <path d="M95.0802,36.1884848 C95.181,36.1884848 95.2044,36.2357576 95.2428,36.2909091 L97.2594,40.0115152 C97.2672,40.0272727 97.2816,40.0357576 97.2816,40.0115152 L97.2816,36.2672727 C97.2816,36.2193939 97.2984,36.1884848 97.3518,36.1884848 L97.686,36.1884848 C97.7322,36.1884848 97.7556,36.2193939 97.7556,36.2593939 L97.7556,40.8963636 C97.7556,40.9981818 97.6932,41.0218182 97.6392,41.0218182 L97.3992,41.0218182 C97.3056,41.0218182 97.2744,40.9909091 97.2432,40.9278788 L95.2278,37.2230303 C95.22,37.2066667 95.2044,37.1993939 95.2044,37.2230303 L95.2044,40.9436364 C95.2044,40.9909091 95.1888,41.0218182 95.1264,41.0218182 L94.8006,41.0218182 C94.7544,41.0218182 94.7316,40.9909091 94.7316,40.9436364 L94.7316,36.3369697 C94.7316,36.2436364 94.746,36.1884848 94.8552,36.1884848 L95.0802,36.1884848" id="Fill-41" fill="#FFFFFF" sketch:type="MSShapeGroup"></path>
                        <path d="M100.0836,41.0690909 C99.2694,41.0690909 98.6556,40.5993939 98.6556,39.7769697 L98.6556,37.4181818 C98.6556,36.6509091 99.2772,36.1254545 100.0836,36.1254545 C100.5642,36.1254545 101.0838,36.3060606 101.3322,36.6975758 C101.3634,36.7606061 101.3556,36.7842424 101.2998,36.8309091 L101.0838,37.0036364 C101.0364,37.0424242 100.9752,37.0193939 100.9362,36.9636364 C100.7352,36.6824242 100.386,36.5721212 100.0908,36.5721212 C99.4938,36.5721212 99.1524,36.9727273 99.1524,37.4654545 L99.1524,39.7612121 C99.1524,40.2854545 99.5394,40.6375758 100.0836,40.6375758 C100.5948,40.6375758 100.959,40.3254545 100.959,39.7684848 L100.959,38.9145455 C100.959,38.8757576 100.9512,38.8527273 100.9134,38.8527273 L100.2852,38.8527273 C100.2384,38.8527273 100.2078,38.8363636 100.2078,38.7818182 L100.2078,38.4842424 C100.2078,38.4363636 100.2306,38.4060606 100.2852,38.4060606 L101.3862,38.4060606 C101.4324,38.4060606 101.472,38.4363636 101.472,38.4842424 L101.472,39.7769697 C101.472,40.5284848 100.9134,41.0690909 100.0836,41.0690909" id="Fill-42" fill="#FFFFFF" sketch:type="MSShapeGroup"></path>
                        <path d="M79.3698,47.9690909 C78.5322,47.9690909 77.919,47.4684848 77.919,46.6684848 L77.919,43.16 C77.919,43.1127273 77.9424,43.0890909 77.997,43.0890909 L78.3462,43.0890909 C78.3918,43.0890909 78.4152,43.1206061 78.4152,43.16 L78.4152,46.6684848 C78.4152,47.1545455 78.78,47.5381818 79.3698,47.5381818 C79.9584,47.5381818 80.3076,47.1466667 80.3076,46.6539394 L80.3076,43.16 C80.3076,43.1127273 80.3394,43.0890909 80.3856,43.0890909 L80.7348,43.0890909 C80.781,43.0890909 80.8044,43.1206061 80.8044,43.16 L80.8044,46.6684848 C80.8044,47.4830303 80.1678,47.9690909 79.3698,47.9690909" id="Fill-43" fill="#FFFFFF" sketch:type="MSShapeGroup"></path>
                        <path d="M83.2404,45.7909091 L82.317,45.7909091 C82.2708,45.7909091 82.2552,45.8151515 82.2552,45.8618182 L82.2552,47.8442424 C82.2552,47.8915152 82.2318,47.9224242 82.1766,47.9224242 L81.8442,47.9224242 C81.7974,47.9224242 81.7584,47.8981818 81.7584,47.8515152 L81.7584,43.1678788 C81.7584,43.1206061 81.7896,43.0890909 81.8442,43.0890909 L83.232,43.0890909 C84.0852,43.0890909 84.5976,43.6690909 84.5976,44.4515152 C84.5976,45.2115152 84.0312,45.7909091 83.2404,45.7909091 L83.2404,45.7909091 Z M82.317,43.52 C82.2708,43.52 82.2474,43.5357576 82.2474,43.5751515 L82.2474,45.3054545 C82.2474,45.3448485 82.2624,45.3684848 82.3092,45.3684848 L83.232,45.3684848 C83.775,45.3684848 84.1092,45 84.1092,44.4442424 C84.1092,43.9745455 83.8056,43.52 83.232,43.52 L82.317,43.52 L82.317,43.52 Z" id="Fill-44" fill="#FFFFFF" sketch:type="MSShapeGroup"></path>
                        <path d="M86.73,47.9224242 L85.3188,47.9224242 C85.272,47.9224242 85.2414,47.8915152 85.2414,47.8442424 L85.2414,43.1678788 C85.2414,43.1206061 85.272,43.0890909 85.3188,43.0890909 L86.7378,43.0890909 C87.6222,43.0890909 88.104,43.5672727 88.104,44.4290909 L88.104,46.5357576 C88.104,47.4375758 87.5988,47.9224242 86.73,47.9224242 L86.73,47.9224242 Z M87.5988,44.3969697 C87.5988,43.8412121 87.3204,43.52 86.7072,43.52 L85.7994,43.52 C85.7604,43.52 85.7382,43.5272727 85.7382,43.5751515 L85.7382,47.4290909 C85.7382,47.4684848 85.7532,47.4830303 85.7994,47.4830303 L86.7378,47.4830303 C87.2886,47.4830303 87.5988,47.170303 87.5988,46.6066667 L87.5988,44.3969697 L87.5988,44.3969697 Z" id="Fill-45" fill="#FFFFFF" sketch:type="MSShapeGroup"></path>
                        <path d="M91.4616,47.9224242 C91.4082,47.9224242 91.3848,47.9060606 91.3686,47.8672727 L91.074,46.7939394 C91.0668,46.7709091 91.0584,46.7636364 91.035,46.7636364 L89.4606,46.7636364 C89.4294,46.7636364 89.4228,46.7709091 89.4144,46.7866667 C89.3676,47.0060606 89.1828,47.6484848 89.1264,47.8672727 C89.1198,47.9060606 89.0886,47.9224242 89.0424,47.9224242 L88.7244,47.9224242 C88.662,47.9224242 88.6308,47.9060606 88.6464,47.8278788 L89.8956,43.1678788 C89.9034,43.1278788 89.9262,43.0890909 89.9874,43.0890909 L90.5076,43.0890909 C90.5622,43.0890909 90.5856,43.1042424 90.6012,43.16 L91.8726,47.8133333 C91.8882,47.86 91.896,47.9224242 91.8186,47.9224242 L91.4616,47.9224242 L91.4616,47.9224242 Z M89.9808,44.64 L89.5386,46.2848485 C89.5314,46.3321212 89.5386,46.34 89.5692,46.34 L90.9114,46.34 C90.9576,46.34 90.9654,46.3321212 90.9576,46.2848485 L90.516,44.6478788 L90.267,43.6375758 C90.2598,43.6060606 90.2364,43.6060606 90.2292,43.6375758 L89.9808,44.64 L89.9808,44.64 Z" id="Fill-46" fill="#FFFFFF" sketch:type="MSShapeGroup"></path>
                        <path d="M94.8522,43.52 L93.7422,43.52 C93.705,43.52 93.681,43.5272727 93.681,43.5751515 L93.681,47.8442424 C93.681,47.8915152 93.6654,47.9224242 93.6108,47.9224242 L93.2622,47.9224242 C93.216,47.9224242 93.1842,47.8981818 93.1842,47.8515152 L93.1842,43.5830303 C93.1842,43.5357576 93.1686,43.52 93.1218,43.52 L92.037,43.52 C91.9902,43.52 91.9668,43.5127273 91.9668,43.4490909 L91.9668,43.1678788 C91.9668,43.1206061 91.9902,43.0890909 92.037,43.0890909 L94.8522,43.0890909 C94.8978,43.0890909 94.9212,43.1206061 94.9212,43.16 L94.9212,43.4490909 C94.9212,43.4963636 94.8978,43.52 94.8522,43.52" id="Fill-47" fill="#FFFFFF" sketch:type="MSShapeGroup"></path>
                        <path d="M98.0934,47.9224242 L95.5812,47.9224242 C95.5344,47.9224242 95.4966,47.8915152 95.4966,47.8442424 L95.4966,43.1678788 C95.4966,43.1206061 95.5266,43.0890909 95.5812,43.0890909 L98.0316,43.0890909 C98.079,43.0890909 98.1096,43.1206061 98.1096,43.1678788 L98.1096,43.4490909 C98.1096,43.4963636 98.0862,43.52 98.0316,43.52 L96.054,43.52 C96.0156,43.52 95.9928,43.5272727 95.9928,43.5751515 L95.9928,45.1418182 C95.9928,45.1806061 96.0072,45.1963636 96.0468,45.1963636 L97.7292,45.1963636 C97.7832,45.1963636 97.8072,45.22 97.8072,45.2751515 L97.8072,45.5648485 C97.8072,45.6115152 97.7832,45.6345455 97.7376,45.6345455 L96.054,45.6345455 C96.0156,45.6345455 95.9928,45.650303 95.9928,45.6981818 L95.9928,47.4290909 C95.9928,47.4684848 96.0156,47.4830303 96.0468,47.4830303 L98.0934,47.4830303 C98.1402,47.4830303 98.1714,47.5066667 98.1714,47.5539394 L98.1714,47.8442424 C98.1714,47.8915152 98.148,47.9224242 98.0934,47.9224242" id="Fill-48" fill="#FFFFFF" sketch:type="MSShapeGroup"></path>
                        <path d="M100.0812,48.0709091 C99.825,48.0709091 99.5754,48.0242424 99.3384,47.9327273 C99.099,47.8406061 98.9034,47.7127273 98.757,47.5533333 C98.7096,47.5054545 98.7114,47.4636364 98.7216,47.4369697 C98.73,47.4151515 98.7468,47.3921212 98.7744,47.3642424 L98.8764,47.2618182 C98.9106,47.2272727 98.9466,47.2193939 98.9706,47.2193939 C99.0018,47.2193939 99.0342,47.2321212 99.066,47.2557576 C99.189,47.3587879 99.3456,47.4515152 99.534,47.5327273 C99.7206,47.6133333 99.9036,47.6539394 100.077,47.6539394 C100.4064,47.6539394 100.6836,47.5745455 100.9008,47.4175758 C101.1156,47.2630303 101.2194,47.0357576 101.2194,46.7230303 C101.2194,46.569697 101.1948,46.4375758 101.1468,46.3309091 C101.0982,46.2236364 101.031,46.129697 100.9464,46.0515152 C100.86,45.9721212 100.7556,45.9006061 100.6356,45.8406061 C100.512,45.7781818 100.3806,45.7181818 100.2414,45.6612121 C100.0908,45.6036364 99.9324,45.5387879 99.7674,45.4672727 C99.6006,45.3951515 99.4452,45.3084848 99.306,45.2084848 C99.165,45.1066667 99.045,44.9818182 98.9502,44.8375758 C98.853,44.6884848 98.8038,44.5060606 98.8038,44.2945455 C98.8038,44.0806061 98.844,43.889697 98.9232,43.7266667 C99.0018,43.5648485 99.1074,43.4260606 99.2352,43.3133333 C99.3636,43.2006061 99.5124,43.1157576 99.6786,43.0606061 C99.843,43.0060606 100.017,42.9787879 100.194,42.9787879 C100.407,42.9787879 100.6236,43.0072727 100.839,43.0636364 C101.0568,43.1206061 101.2572,43.2181818 101.4354,43.3545455 C101.5032,43.3951515 101.4954,43.449697 101.4882,43.4709091 C101.4816,43.490303 101.4726,43.5109091 101.4612,43.5351515 L101.3634,43.6836364 C101.334,43.7333333 101.295,43.7442424 101.2674,43.7442424 C101.2146,43.7339394 101.1894,43.7230303 101.1678,43.7084848 C101.0364,43.6121212 100.884,43.5381818 100.7142,43.4878788 C100.5426,43.4369697 100.377,43.4109091 100.2216,43.4109091 C100.1076,43.4109091 99.99,43.4278788 99.873,43.46 C99.7578,43.4921212 99.6522,43.5436364 99.5598,43.6121212 C99.4686,43.68 99.3942,43.770303 99.339,43.8824242 C99.2832,43.9939394 99.255,44.1333333 99.255,44.2963636 C99.255,44.4218182 99.2862,44.5260606 99.3492,44.6157576 C99.4152,44.710303 99.4998,44.7939394 99.6006,44.8660606 C99.7026,44.9393939 99.8184,45.0048485 99.945,45.0612121 C100.0746,45.1187879 100.1988,45.1709091 100.3182,45.2181818 C100.4868,45.2872727 100.6512,45.36 100.8108,45.4369697 C100.974,45.5151515 101.121,45.6133333 101.2476,45.7272727 C101.3754,45.8424242 101.4786,45.9787879 101.5548,46.1327273 C101.6316,46.2884848 101.6706,46.4781818 101.6706,46.6975758 C101.6706,46.9218182 101.6298,47.1218182 101.5482,47.2933333 C101.466,47.4642424 101.3514,47.609697 101.2074,47.7254545 C101.064,47.8406061 100.893,47.9278788 100.6986,47.9854545 C100.5072,48.0418182 100.2996,48.0709091 100.0812,48.0709091" id="Fill-49" fill="#FFFFFF" sketch:type="MSShapeGroup"></path>
                    </g>
                </g>
            </g>
        </g>
    </g>
</svg>