<?xml version="1.0" encoding="UTF-8" standalone="no"?>
<svg width="60px" height="60px" viewBox="0 0 60 60" version="1.1" xmlns="http://www.w3.org/2000/svg" xmlns:xlink="http://www.w3.org/1999/xlink" xmlns:sketch="http://www.bohemiancoding.com/sketch/ns">
    <!-- Generator: Sketch 3.2.2 (9983) - http://www.bohemiancoding.com/sketch -->
    <title>7</title>
    <desc>Created with Sketch.</desc>
    <defs></defs>
    <g id="Page-1" stroke="none" stroke-width="1" fill="none" fill-rule="evenodd" sketch:type="MSPage">
        <g id="Партнёры" sketch:type="MSArtboardGroup" transform="translate(-913.000000, -1402.000000)">
            <g id="2_block" sketch:type="MSLayerGroup" transform="translate(469.000000, 142.000000)">
                <g id="4" transform="translate(0.000000, 1159.000000)" sketch:type="MSShapeGroup">
                    <g id="7" transform="translate(444.000000, 101.000000)">
                        <path d="M0.505605096,0.0378343949 L59.2043312,0.0378343949 C59.4477707,0.0378343949 59.6457325,0.235796178 59.6457325,0.479235669 L59.6457325,50.7924841 C59.6457325,55.6543949 55.6807643,59.6193631 50.8188535,59.6193631 L0.505605096,59.6193631 C0.262165605,59.6193631 0.0642038217,59.4210191 0.0642038217,59.1779618 L0.0642038217,0.479235669 C0.0642038217,0.235796178 0.262165605,0.0378343949 0.505605096,0.0378343949" id="Fill-1" fill="#DC3D2A"></path>
                        <path d="M24.3382166,19.8982166 C26.7756688,19.8982166 28.751465,17.9224204 28.751465,15.4849682 L28.751465,8.86471338 C28.751465,6.42726115 26.7756688,4.4510828 24.3382166,4.4510828 L22.1312102,4.4510828 C19.6941401,4.4510828 17.7179618,6.42726115 17.7179618,8.86471338 L17.7179618,15.4849682 C17.7179618,17.9224204 19.6941401,19.8982166 22.1312102,19.8982166 L24.3382166,19.8982166 L24.3382166,19.8982166 Z M24.3382166,6.65808917 C25.5569427,6.65808917 26.5448408,7.64598726 26.5448408,8.86471338 L26.5448408,15.4849682 C26.5448408,16.7036943 25.5569427,17.6915924 24.3382166,17.6915924 L22.1312102,17.6915924 C20.9124841,17.6915924 19.924586,16.7036943 19.924586,15.4849682 L19.924586,8.86471338 C19.924586,7.64598726 20.9124841,6.65808917 22.1312102,6.65808917 L24.3382166,6.65808917 L24.3382166,6.65808917 Z" id="Fill-2" fill="#FFFFFF"></path>
                        <path d="M4.9188535,4.4510828 L6.24305732,4.4510828 C6.48611465,4.4510828 6.6844586,4.64942675 6.6844586,4.89248408 L6.6844586,17.6915924 L15.0699363,17.6915924 C15.3129936,17.6915924 15.5113376,17.8899363 15.5113376,18.1329936 L15.5113376,19.4568153 C15.5113376,19.6998726 15.3129936,19.8982166 15.0699363,19.8982166 L4.9188535,19.8982166 C4.67579618,19.8982166 4.47745223,19.6998726 4.47745223,19.4568153 L4.47745223,4.89248408 C4.47745223,4.64942675 4.67579618,4.4510828 4.9188535,4.4510828" id="Fill-3" fill="#FFFFFF"></path>
                        <path d="M31.3994904,4.4510828 L41.5505732,4.4510828 C41.7936306,4.4510828 41.9919745,4.64942675 41.9919745,4.89248408 L41.9919745,6.2166879 C41.9919745,6.45974522 41.7936306,6.65808917 41.5505732,6.65808917 L33.1650955,6.65808917 L33.1650955,11.0713376 L37.1373248,11.0713376 C37.3803822,11.0713376 37.5783439,11.2696815 37.5783439,11.5127389 L37.5783439,12.8369427 C37.5783439,13.08 37.3803822,13.2779618 37.1373248,13.2779618 L33.1650955,13.2779618 L33.1650955,19.4568153 C33.1650955,19.6998726 32.9667516,19.8982166 32.7236943,19.8982166 L31.3994904,19.8982166 C31.1564331,19.8982166 30.9584713,19.6998726 30.9584713,19.4568153 L30.9584713,4.89248408 C30.9584713,4.64942675 31.1564331,4.4510828 31.3994904,4.4510828" id="Fill-4" fill="#FFFFFF"></path>
                        <path d="M54.7910828,4.4510828 L44.64,4.4510828 C44.3969427,4.4510828 44.1985987,4.64942675 44.1985987,4.89248408 L44.1985987,6.2166879 C44.1985987,6.45974522 44.3969427,6.65808917 44.64,6.65808917 L48.6122293,6.65808917 L48.6122293,19.4568153 C48.6122293,19.6998726 48.8105732,19.8982166 49.0536306,19.8982166 L50.3774522,19.8982166 C50.6205096,19.8982166 50.8188535,19.6998726 50.8188535,19.4568153 L50.8188535,6.65808917 L54.7910828,6.65808917 C55.0341401,6.65808917 55.2324841,6.45974522 55.2324841,6.2166879 L55.2324841,4.89248408 C55.2324841,4.64942675 55.0341401,4.4510828 54.7910828,4.4510828" id="Fill-5" fill="#FFFFFF"></path>
                        <path d="M8.8910828,30.9321019 L11.097707,30.9321019 C12.3164331,30.9321019 13.3043312,29.9438217 13.3043312,28.7250955 L13.3043312,22.546242 C13.3043312,22.3031847 13.5026752,22.1048408 13.7457325,22.1048408 L15.0699363,22.1048408 C15.3129936,22.1048408 15.5113376,22.3031847 15.5113376,22.546242 L15.5113376,28.7250955 C15.5113376,31.1625478 13.5351592,33.1387261 11.097707,33.1387261 L11.097707,37.1109554 C11.097707,37.3540127 10.8993631,37.5519745 10.6563057,37.5519745 L9.33248408,37.5519745 C9.08942675,37.5519745 8.8910828,37.3540127 8.8910828,37.1109554 L8.8910828,33.1387261 C6.45363057,33.1387261 4.47745223,31.1625478 4.47745223,28.7250955 L4.47745223,22.546242 C4.47745223,22.3031847 4.67579618,22.1048408 4.9188535,22.1048408 L6.24305732,22.1048408 C6.48611465,22.1048408 6.6844586,22.3031847 6.6844586,22.546242 L6.6844586,28.7250955 C6.6844586,29.9438217 7.67235669,30.9321019 8.8910828,30.9321019" id="Fill-6" fill="#FFFFFF"></path>
                        <path d="M4.9188535,39.7589809 L6.4333758,39.7589809 C6.59350318,39.7589809 6.73070064,39.8369427 6.81248408,39.9745223 L12.2010191,49.033758 L17.5895541,39.9745223 C17.6713376,39.8369427 17.8089172,39.7589809 17.9690446,39.7589809 L19.4831847,39.7589809 C19.726242,39.7589809 19.924586,39.9569427 19.924586,40.2003822 L19.924586,54.7647134 C19.924586,55.0077707 19.726242,55.2061146 19.4831847,55.2061146 L18.1593631,55.2061146 C17.9163057,55.2061146 17.7179618,55.0077707 17.7179618,54.7647134 L17.7179618,44.0755414 L12.5805096,52.7128662 C12.4987261,52.8504459 12.3611465,52.9284076 12.2010191,52.9284076 C12.0408917,52.9284076 11.9036943,52.8504459 11.8219108,52.7128662 L6.6844586,44.0755414 L6.6844586,54.7647134 C6.6844586,55.0077707 6.48611465,55.2061146 6.24305732,55.2061146 L4.9188535,55.2061146 C4.67579618,55.2061146 4.47745223,55.0077707 4.47745223,54.7647134 L4.47745223,40.2003822 C4.47745223,39.9569427 4.67579618,39.7589809 4.9188535,39.7589809" id="Fill-7" fill="#FFFFFF"></path>
                        <path d="M40.2267516,39.7589809 L41.5505732,39.7589809 C41.7936306,39.7589809 41.9919745,39.9569427 41.9919745,40.2003822 L41.9919745,54.7647134 C41.9919745,55.0077707 41.7936306,55.2061146 41.5505732,55.2061146 L40.0364331,55.2061146 C39.8763057,55.2061146 39.7387261,55.1277707 39.6569427,54.9901911 L33.1650955,44.0755414 L33.1650955,54.7647134 C33.1650955,55.0077707 32.9667516,55.2061146 32.7236943,55.2061146 L31.3994904,55.2061146 C31.1564331,55.2061146 30.9584713,55.0077707 30.9584713,54.7647134 L30.9584713,40.2003822 C30.9584713,39.9569427 31.1564331,39.7589809 31.3994904,39.7589809 L32.9140127,39.7589809 C33.0741401,39.7589809 33.2117197,39.8369427 33.2935032,39.9745223 L39.7853503,50.8887898 L39.7853503,40.2003822 C39.7853503,39.9569427 39.9836943,39.7589809 40.2267516,39.7589809" id="Fill-8" fill="#FFFFFF"></path>
                        <path d="M37.5783439,37.5519745 C40.0161783,37.5519745 41.9919745,35.5761783 41.9919745,33.1387261 L41.9919745,22.546242 C41.9919745,22.3031847 41.7936306,22.1048408 41.5505732,22.1048408 L40.2267516,22.1048408 C39.9836943,22.1048408 39.7853503,22.3031847 39.7853503,22.546242 L39.7853503,33.1387261 C39.7853503,34.3574522 38.7974522,35.3453503 37.5783439,35.3453503 L35.3717197,35.3453503 C34.1529936,35.3453503 33.1650955,34.3574522 33.1650955,33.1387261 L33.1650955,22.546242 C33.1650955,22.3031847 32.9667516,22.1048408 32.7236943,22.1048408 L31.3994904,22.1048408 C31.1564331,22.1048408 30.9584713,22.3031847 30.9584713,22.546242 L30.9584713,33.1387261 C30.9584713,35.5761783 32.9342675,37.5519745 35.3717197,37.5519745 L37.5783439,37.5519745" id="Fill-9" fill="#FFFFFF"></path>
                        <path d="M24.3382166,37.5519745 C26.7756688,37.5519745 28.751465,35.5761783 28.751465,33.1387261 L28.751465,26.5184713 C28.751465,24.0810191 26.7756688,22.1048408 24.3382166,22.1048408 L22.1312102,22.1048408 C19.6941401,22.1048408 17.7179618,24.0810191 17.7179618,26.5184713 L17.7179618,33.1387261 C17.7179618,35.5761783 19.6941401,37.5519745 22.1312102,37.5519745 L24.3382166,37.5519745 L24.3382166,37.5519745 Z M24.3382166,24.3118471 C25.5569427,24.3118471 26.5448408,25.2997452 26.5448408,26.5184713 L26.5448408,33.1387261 C26.5448408,34.3574522 25.5569427,35.3453503 24.3382166,35.3453503 L22.1312102,35.3453503 C20.9124841,35.3453503 19.924586,34.3574522 19.924586,33.1387261 L19.924586,26.5184713 C19.924586,25.2997452 20.9124841,24.3118471 22.1312102,24.3118471 L24.3382166,24.3118471 L24.3382166,24.3118471 Z" id="Fill-10" fill="#FFFFFF"></path>
                        <path d="M50.8188535,39.7589809 C53.2563057,39.7589809 55.2324841,41.7347771 55.2324841,44.1722293 L55.2324841,50.7924841 C55.2324841,53.2299363 53.2563057,55.2061146 50.8188535,55.2061146 L44.64,55.2061146 C44.3969427,55.2061146 44.1985987,55.0077707 44.1985987,54.7647134 L44.1985987,40.2003822 C44.1985987,39.9569427 44.3969427,39.7589809 44.64,39.7589809 L50.8188535,39.7589809 L50.8188535,39.7589809 Z M46.4056051,52.9991083 L50.8188535,52.9991083 C52.0375796,52.9991083 53.0254777,52.0112102 53.0254777,50.7924841 L53.0254777,44.1722293 C53.0254777,42.9535032 52.0375796,41.9656051 50.8188535,41.9656051 L46.4056051,41.9656051 L46.4056051,52.9991083 L46.4056051,52.9991083 Z" id="Fill-11" fill="#FFFFFF"></path>
                        <path d="M22.5726115,52.9991083 L24.3382166,52.9991083 L24.3382166,41.9656051 L22.5726115,41.9656051 C22.3295541,41.9656051 22.1312102,41.7672611 22.1312102,41.5242038 L22.1312102,40.2003822 C22.1312102,39.9569427 22.3295541,39.7589809 22.5726115,39.7589809 L28.3104459,39.7589809 C28.5535032,39.7589809 28.751465,39.9569427 28.751465,40.2003822 L28.751465,41.5242038 C28.751465,41.7672611 28.5535032,41.9656051 28.3104459,41.9656051 L26.5448408,41.9656051 L26.5448408,52.9991083 L28.3104459,52.9991083 C28.5535032,52.9991083 28.751465,53.1974522 28.751465,53.4405096 L28.751465,54.7647134 C28.751465,55.0077707 28.5535032,55.2061146 28.3104459,55.2061146 L22.5726115,55.2061146 C22.3295541,55.2061146 22.1312102,55.0077707 22.1312102,54.7647134 L22.1312102,53.4405096 C22.1312102,53.1974522 22.3295541,52.9991083 22.5726115,52.9991083" id="Fill-12" fill="#FFFFFF"></path>
                        <path d="M44.2008917,22.1048408 L50.8207643,22.1048408 C53.2582166,22.1048408 55.2343949,24.0810191 55.2343949,26.5184713 L55.2343949,28.7250955 C55.2343949,30.5950318 54.071465,32.1932484 52.4292994,32.8364331 L54.837707,36.8850955 C54.9210191,37.0253503 54.9225478,37.1873885 54.8419108,37.329172 C54.7612739,37.4705732 54.6214013,37.5519745 54.4582166,37.5519745 L52.917707,37.5519745 C52.7575796,37.5519745 52.6203822,37.4740127 52.5385987,37.3364331 L50.0415287,33.1387261 L46.4075159,33.1387261 L46.4075159,37.1109554 C46.4075159,37.3540127 46.209172,37.5519745 45.9661146,37.5519745 L44.6419108,37.5519745 C44.3988535,37.5519745 44.2008917,37.3540127 44.2008917,37.1109554 L44.2008917,22.1048408 L44.2008917,22.1048408 Z M50.8207643,30.9321019 C52.0394904,30.9321019 53.0277707,29.9438217 53.0277707,28.7250955 L53.0277707,26.5184713 C53.0277707,25.2997452 52.0394904,24.3118471 50.8207643,24.3118471 L46.4075159,24.3118471 L46.4075159,30.9321019 L50.8207643,30.9321019 L50.8207643,30.9321019 Z" id="Fill-13" fill="#FFFFFF"></path>
                    </g>
                </g>
            </g>
        </g>
    </g>
</svg>