<?xml version="1.0" encoding="UTF-8" standalone="no"?>
<svg width="208px" height="45px" viewBox="0 0 208 45" version="1.1" xmlns="http://www.w3.org/2000/svg" xmlns:xlink="http://www.w3.org/1999/xlink" xmlns:sketch="http://www.bohemiancoding.com/sketch/ns">
    <!-- Generator: Sketch 3.2.2 (9983) - http://www.bohemiancoding.com/sketch -->
    <title>4</title>
    <desc>Created with Sketch.</desc>
    <defs></defs>
    <g id="Page-1" stroke="none" stroke-width="1" fill="none" fill-rule="evenodd" sketch:type="MSPage">
        <g id="Партнёры" sketch:type="MSArtboardGroup" transform="translate(-748.000000, -630.000000)">
            <g id="2_block" sketch:type="MSLayerGroup" transform="translate(469.000000, 142.000000)">
                <g id="2" transform="translate(0.000000, 361.000000)" sketch:type="MSShapeGroup">
                    <g id="4" transform="translate(279.000000, 127.000000)">
                        <path d="M73.6125165,26.0195294 L72.3692557,29.5173529 L72.2986937,29.5173529 C72.0764759,28.6972941 71.7041823,27.5352353 71.1207291,26.0576471 L64.4678886,9.27741176 L57.9630177,9.27741176 L57.9630177,35.9555294 L62.2530835,35.9555294 L62.2530835,19.5559412 C62.2530835,18.5431765 62.2314937,17.3202353 62.1893671,15.9199412 C62.1672506,15.2115882 62.0872101,14.6440588 62.0677266,14.2120588 L62.1619848,14.2120588 C62.3799899,15.2168824 62.6064203,15.9829412 62.7701873,16.4948824 L70.7479089,35.9555294 L73.7494278,35.9555294 L81.6681722,16.3191176 C81.8477367,15.8712353 82.0383595,14.9977059 82.2131848,14.2120588 L82.307443,14.2120588 C82.2037063,16.1555294 82.1157671,17.9311765 82.1041823,19.0032353 L82.1041823,35.9555294 L86.6807089,35.9555294 L86.6807089,9.27741176 L80.4338633,9.27741176 L73.6125165,26.0195294" id="Fill-1" fill="#FFFFFF"></path>
                        <path d="M90.9897316,16.8374118 L95.4630481,16.8374118 L95.4630481,35.9555294 L90.9897316,35.9555294 L90.9897316,16.8374118 Z" id="Fill-2" fill="#FFFFFF"></path>
                        <path d="M93.2724658,8.71252941 C92.5352506,8.71252941 91.8944,8.96558824 91.3667646,9.46376471 C90.8364962,9.96405882 90.5684658,10.5956471 90.5684658,11.3394706 C90.5684658,12.0716471 90.8338633,12.69 91.3578127,13.1781176 C91.8791291,13.6641176 92.5236658,13.9102941 93.2724658,13.9102941 C94.0212658,13.9102941 94.6684354,13.6641176 95.1955443,13.1786471 C95.7263392,12.69 95.9954228,12.0716471 95.9954228,11.3394706 C95.9954228,10.6215882 95.7331848,9.99741176 95.2171342,9.48441176 C94.7010835,8.97194118 94.0470684,8.71252941 93.2724658,8.71252941" id="Fill-3" fill="#FFFFFF"></path>
                        <path d="M111.298957,16.6457647 C110.438522,16.4668235 109.598096,16.3768235 108.799271,16.3768235 C106.746653,16.3768235 104.916253,16.8188824 103.359149,17.6913529 C101.799413,18.5648824 100.592486,19.8132353 99.7725975,21.4004118 C98.9542886,22.9833529 98.5393418,24.8315294 98.5393418,26.8941176 C98.5393418,28.7004706 98.9421772,30.3575294 99.7367899,31.8192353 C100.532456,33.2830588 101.658815,34.4276471 103.084273,35.2217647 C104.508152,36.0142941 106.153195,36.4166471 107.974116,36.4166471 C110.099929,36.4166471 111.915585,35.9899412 113.370005,35.1471176 L113.428982,35.1121765 L113.428982,30.9928235 L113.241519,31.131 C112.581185,31.6138235 111.845023,31.9987059 111.053043,32.2761176 C110.262116,32.553 109.541225,32.6938235 108.909327,32.6938235 C107.154228,32.6938235 105.74562,32.1416471 104.722471,31.0526471 C103.697215,29.9631176 103.178005,28.4336471 103.178005,26.5071176 C103.178005,24.5684118 103.719332,22.9981765 104.787241,21.8403529 C105.853043,20.6851765 107.264284,20.0996471 108.982522,20.0996471 C110.453792,20.0996471 111.886623,20.5999412 113.241519,21.5883529 L113.428982,21.7254706 L113.428982,17.3842941 L113.368952,17.3504118 C112.858694,17.0634706 112.162552,16.8262941 111.298957,16.6457647" id="Fill-4" fill="#FFFFFF"></path>
                        <path d="M126.037995,16.5054706 C124.914795,16.5054706 123.908496,16.8681176 123.046481,17.5838824 C122.289782,18.2112353 121.743716,19.0725882 121.325084,20.1478235 L121.277691,20.1478235 L121.277691,16.8374118 L116.804901,16.8374118 L116.804901,35.9555294 L121.277691,35.9555294 L121.277691,26.1751765 C121.277691,24.5122941 121.653144,23.1464118 122.392992,22.1151176 C123.123362,21.0954706 124.097013,20.5787647 125.286035,20.5787647 C125.689397,20.5787647 126.141732,20.6454706 126.631453,20.7772941 C127.115909,20.9085882 127.466613,21.0515294 127.674086,21.2013529 L127.862076,21.3379412 L127.862076,16.8040588 L127.789934,16.7733529 C127.373934,16.5954706 126.784162,16.5054706 126.037995,16.5054706" id="Fill-5" fill="#FFFFFF"></path>
                        <path d="M138.187301,16.3768235 C135.050977,16.3768235 132.560243,17.3006471 130.785134,19.1223529 C129.010025,20.9435294 128.110623,23.4656471 128.110623,26.6177647 C128.110623,29.6115882 128.988962,32.0188235 130.721418,33.7727647 C132.453873,35.5267059 134.811909,36.4166471 137.728648,36.4166471 C140.767554,36.4166471 143.209316,35.4806471 144.984425,33.633 C146.758481,31.7874706 147.65841,29.2907647 147.65841,26.2122353 C147.65841,23.1707647 146.814299,20.745 145.149772,19.0037647 C143.483666,17.2604118 141.140901,16.3768235 138.187301,16.3768235 L138.187301,16.3768235 Z M141.743838,31.0971176 C140.903413,32.157 139.639089,32.6938235 137.985094,32.6938235 C136.342157,32.6938235 135.045711,32.1469412 134.133144,31.0674706 C133.214785,29.9821765 132.748759,28.4357647 132.748759,26.4700588 C132.748759,24.4434706 133.214785,22.8562941 134.133144,21.753 C135.046765,20.6560588 136.330572,20.0996471 137.948759,20.0996471 C139.518501,20.0996471 140.768608,20.6311765 141.663797,21.6804706 C142.563727,22.7345294 143.020273,24.309 143.020273,26.3594118 C143.020273,28.4362941 142.590582,30.0303529 141.743838,31.0971176 L141.743838,31.0971176 Z" id="Fill-6" fill="#FFFFFF"></path>
                        <path d="M157.578694,24.7372941 C156.168506,24.1671176 155.264891,23.6954118 154.893651,23.3332941 C154.534522,22.9833529 154.351797,22.4883529 154.351797,21.861 C154.351797,21.3045882 154.577175,20.8588235 155.040041,20.4988235 C155.505013,20.1356471 156.153235,19.9519412 156.966278,19.9519412 C157.721924,19.9519412 158.493367,20.0710588 159.260597,20.3061176 C160.027301,20.5411765 160.701327,20.8556471 161.264243,21.24 L161.4496,21.3665294 L161.4496,17.2095882 L161.377458,17.1783529 C160.859301,16.9549412 160.175271,16.7638235 159.344324,16.6087059 C158.515484,16.4546471 157.765104,16.3768235 157.112668,16.3768235 C154.98001,16.3768235 153.215433,16.9252941 151.866856,18.0068824 C150.511433,19.0942941 149.823716,20.5215882 149.823716,22.248 C149.823716,23.1458824 149.972213,23.9431765 150.264466,24.6181765 C150.557772,25.2968824 151.013266,25.8951176 151.618309,26.3959412 C152.216506,26.8930588 153.143291,27.4134706 154.370228,27.9439412 C155.400749,28.3706471 156.170086,28.7317059 156.659281,29.0165294 C157.136891,29.295 157.47601,29.5750588 157.666633,29.8482353 C157.85357,30.1155882 157.947828,30.4798235 157.947828,30.9319412 C157.947828,32.2173529 156.991028,32.841 155.022663,32.841 C154.291767,32.841 153.459241,32.688 152.546673,32.3862353 C151.63358,32.0839412 150.780516,31.6492941 150.011706,31.0934118 L149.823716,30.9578824 L149.823716,35.3414118 L149.892172,35.3731765 C150.533549,35.6707059 151.3408,35.9216471 152.293387,36.1191176 C153.245448,36.3171176 154.10799,36.4166471 154.85679,36.4166471 C157.172699,36.4166471 159.035747,35.865 160.395909,34.7775882 C161.76397,33.6832941 162.458005,32.2221176 162.458005,30.4342941 C162.458005,29.1462353 162.085185,28.0408235 161.348496,27.1498235 C160.6176,26.2657059 159.349063,25.4541176 157.578694,24.7372941" id="Fill-7" fill="#FFFFFF"></path>
                        <path d="M174.485671,16.3768235 C171.349347,16.3768235 168.859666,17.3006471 167.08403,19.1223529 C165.309448,20.9435294 164.409519,23.4656471 164.409519,26.6177647 C164.409519,29.6115882 165.287858,32.0188235 167.020841,33.7727647 C168.753296,35.5267059 171.110278,36.4166471 174.027544,36.4166471 C177.066451,36.4166471 179.508213,35.4806471 181.283322,33.633 C183.057904,31.7874706 183.957833,29.2907647 183.957833,26.2122353 C183.957833,23.1707647 183.113195,20.745 181.448142,19.0037647 C179.782562,17.2604118 177.439797,16.3768235 174.485671,16.3768235 L174.485671,16.3768235 Z M178.042734,31.0971176 C177.202835,32.157 175.937458,32.6938235 174.284516,32.6938235 C172.64158,32.6938235 171.345134,32.1469412 170.431514,31.0674706 C169.513154,29.9821765 169.047656,28.4357647 169.047656,26.4700588 C169.047656,24.4434706 169.513681,22.8562941 170.432041,21.753 C171.345661,20.6560588 172.628942,20.0996471 174.247656,20.0996471 C175.817397,20.0996471 177.06803,20.6311765 177.96322,21.6804706 C178.863149,22.7345294 179.31917,24.309 179.31917,26.3594118 C179.31917,28.4362941 178.889478,30.0303529 178.042734,31.0971176 L178.042734,31.0971176 Z" id="Fill-8" fill="#FFFFFF"></path>
                        <path d="M207.808324,20.5046471 L207.808324,16.8374118 L203.278137,16.8374118 L203.278137,11.1345882 L203.125428,11.1817059 L198.870643,12.4914706 L198.786916,12.5174118 L198.786916,16.8374118 L192.075099,16.8374118 L192.075099,14.4307059 C192.075099,13.3104706 192.324172,12.4528235 192.816527,11.8810588 C193.304668,11.3145882 194.001863,11.0276471 194.890208,11.0276471 C195.530005,11.0276471 196.192972,11.1795882 196.860152,11.4792353 L197.026552,11.5533529 L197.026552,7.69023529 L196.948618,7.66270588 C196.327251,7.43770588 195.481033,7.32335294 194.432081,7.32335294 C193.110886,7.32335294 191.909752,7.614 190.863959,8.18576471 C189.816061,8.76017647 188.991433,9.57917647 188.414825,10.62 C187.838744,11.6597647 187.547018,12.861 187.547018,14.1908824 L187.547018,16.8374118 L184.39279,16.8374118 L184.39279,20.5046471 L187.547018,20.5046471 L187.547018,35.9555294 L192.075099,35.9555294 L192.075099,20.5046471 L198.786916,20.5046471 L198.786916,30.3236471 C198.786916,34.3667647 200.683666,36.4166471 204.425559,36.4166471 C205.040608,36.4166471 205.687777,36.3441176 206.348111,36.2022353 C207.02161,36.0561176 207.47921,35.9105294 207.74882,35.7554118 L207.808324,35.7215294 L207.808324,32.0177647 L207.62402,32.1416471 C207.378633,32.3062941 207.072162,32.4407647 206.713559,32.5413529 C206.352851,32.6424706 206.052172,32.6938235 205.818896,32.6938235 C204.942137,32.6938235 204.293914,32.4566471 203.891078,31.9881176 C203.484557,31.5148235 203.278137,30.6889412 203.278137,29.5305882 L203.278137,20.5046471 L207.808324,20.5046471" id="Fill-9" fill="#FFFFFF"></path>
                        <path d="M0.406521519,0.366352941 L21.4492759,0.366352941 L21.4492759,21.5221765 L0.406521519,21.5221765 L0.406521519,0.366352941 Z" id="Fill-10" fill="#E15D29"></path>
                        <path d="M23.6398582,0.366352941 L44.6820861,0.366352941 L44.6820861,21.5216471 L23.6398582,21.5216471 L23.6398582,0.366352941 Z" id="Fill-11" fill="#84BF41"></path>
                        <path d="M0.406521519,23.733 L21.4487494,23.733 L21.4487494,44.8882941 L0.406521519,44.8882941 L0.406521519,23.733 Z" id="Fill-12" fill="#00A3DB"></path>
                        <path d="M23.6398582,23.733 L44.6820861,23.733 L44.6820861,44.8882941 L23.6398582,44.8882941 L23.6398582,23.733 Z" id="Fill-13" fill="#F6BC25"></path>
                    </g>
                </g>
            </g>
        </g>
    </g>
</svg>