<?xml version="1.0" encoding="UTF-8" standalone="no"?>
<svg width="135px" height="30px" viewBox="0 0 135 30" version="1.1" xmlns="http://www.w3.org/2000/svg" xmlns:xlink="http://www.w3.org/1999/xlink" xmlns:sketch="http://www.bohemiancoding.com/sketch/ns">
    <!-- Generator: Sketch 3.2.2 (9983) - http://www.bohemiancoding.com/sketch -->
    <title>9</title>
    <desc>Created with Sketch.</desc>
    <defs></defs>
    <g id="Page-1" stroke="none" stroke-width="1" fill="none" fill-rule="evenodd" sketch:type="MSPage">
        <g id="Партнёры" sketch:type="MSArtboardGroup" transform="translate(-1013.000000, -1417.000000)" fill="#FFFFFF">
            <g id="2_block" sketch:type="MSLayerGroup" transform="translate(469.000000, 142.000000)">
                <g id="4" transform="translate(0.000000, 1159.000000)" sketch:type="MSShapeGroup">
                    <g id="9" transform="translate(544.000000, 116.000000)">
                        <path d="M13.011975,5.55204545 L13.011975,8.50840909 C13.011975,8.82818182 13.002525,8.82818182 12.983625,9.18681818 C13.136175,8.83772727 13.2894,8.63454545 13.442625,8.4225 L15.269175,5.97818182 L15.269175,5.55204545 L15.996825,5.55204545 L15.996825,10.4809091 L15.269175,10.4809091 L15.269175,7.57090909 C15.269175,7.39909091 15.279975,7.09840909 15.309,6.86590909 C15.269175,6.95318182 15.20235,7.11818182 14.86755,7.55386364 L13.011975,10.0070455 L13.011975,10.4809091 L12.285675,10.4809091 L12.285675,5.55204545 L13.011975,5.55204545" id="Fill-1"></path>
                        <path d="M16.887825,6.80863636 C17.032275,6.18068182 17.423775,5.85204545 17.7876,5.6775 C17.9604,5.59090909 18.322875,5.45590909 18.927,5.45590909 C19.3374,5.45590909 19.8261,5.51318182 20.169675,5.72590909 C20.628675,6.00681818 20.77245,6.43159091 20.77245,6.78 C20.77245,7.215 20.5524,7.46590909 20.457225,7.56340909 C20.304,7.7175 20.054925,7.84295455 19.76805,7.87090909 L19.76805,7.89068182 C20.054925,7.90977273 20.389725,8.04545455 20.600325,8.26840909 C20.78325,8.46068182 20.906775,8.75181818 20.906775,9.09954545 C20.906775,9.66954545 20.58075,10.0459091 20.29455,10.2402273 C19.844325,10.5484091 19.2618,10.5777273 18.8595,10.5777273 C18.46665,10.5777273 17.7876,10.5572727 17.30025,10.1222727 C17.02215,9.87136364 16.840575,9.51409091 16.77375,9.1575 L17.481825,9.01227273 C17.5392,9.31159091 17.6823,9.50386364 17.758575,9.58227273 C17.940825,9.77590909 18.266175,9.97772727 18.82035,9.97772727 C19.1079,9.97772727 19.4805,9.92045455 19.710675,9.76636364 C19.9017,9.63954545 20.06505,9.43772727 20.06505,9.10772727 C20.06505,8.79954545 19.949625,8.60522727 19.834875,8.49954545 C19.567575,8.24863636 19.184175,8.22 18.86895,8.22 L18.322875,8.22 L18.322875,7.62136364 L18.86895,7.62136364 C19.069425,7.62136364 19.366425,7.58181818 19.547325,7.49454545 C19.9017,7.33090909 19.9692,7.05 19.9692,6.79977273 C19.9692,6.51886364 19.8153,6.35454545 19.701225,6.26727273 C19.509525,6.11318182 19.174725,6.05522727 18.849375,6.05522727 C18.57195,6.05522727 18.2277,6.11318182 17.940825,6.35454545 C17.7876,6.48068182 17.624925,6.69204545 17.56755,6.99204545 L16.887825,6.80863636" id="Fill-2"></path>
                        <path d="M25.345575,5.55204545 L25.345575,9.88159091 L25.84305,9.88159091 L25.84305,11.8043182 L25.17345,11.8043182 L25.17345,10.4809091 L21.930075,10.4809091 L21.930075,11.8043182 L21.260475,11.8043182 L21.260475,9.88159091 L21.6243,9.88159091 C21.786975,9.63954545 21.94965,9.34977273 22.083975,9.00272727 C22.437675,8.09386364 22.475475,7.12704545 22.5045,5.99659091 L22.51395,5.55204545 L25.345575,5.55204545 L25.345575,5.55204545 Z M23.116725,6.4125 C23.0877,7.13659091 23.00265,8.33590909 22.686075,9.18681818 C22.590225,9.43772727 22.437675,9.76636364 22.3803,9.88159091 L24.6186,9.88159091 L24.6186,6.15136364 L23.126175,6.15136364 L23.116725,6.4125 L23.116725,6.4125 Z" id="Fill-3"></path>
                        <path d="M26.4033,6.79977273 C26.613225,5.74704545 27.407025,5.45590909 28.4688,5.45590909 C28.794825,5.45590909 29.42595,5.46477273 29.8566,5.81318182 C30.3831,6.23795455 30.391875,6.915 30.391875,7.55386364 L30.391875,9.44727273 C30.391875,9.71727273 30.4209,10.0459091 30.516075,10.4809091 L29.7513,10.4809091 C29.693925,10.1222727 29.67435,9.80386364 29.6649,9.5625 C29.53125,9.84204545 29.109375,10.5777273 27.96255,10.5777273 C27.3402,10.5777273 26.948025,10.3656818 26.709075,10.1427273 C26.49915,9.94909091 26.268975,9.61159091 26.268975,9.09954545 C26.268975,8.43272727 26.64225,8.04545455 26.929125,7.85386364 C27.521775,7.44681818 28.2879,7.43590909 29.033775,7.43590909 L29.6649,7.43590909 L29.6649,7.23409091 C29.6649,6.97227273 29.646,6.645 29.4732,6.4125 C29.225475,6.075 28.804275,6.05522727 28.460025,6.05522727 C28.0584,6.05522727 27.216,6.11318182 27.10125,6.915 L26.4033,6.79977273 L26.4033,6.79977273 Z M29.043225,8.03590909 C28.2771,8.03590909 27.837675,8.13340909 27.5697,8.27795455 C27.168075,8.48931818 27.072225,8.84795455 27.072225,9.09954545 C27.072225,9.2925 27.1485,9.57204545 27.4266,9.75613636 C27.560925,9.85227273 27.78975,9.93886364 28.125225,9.93886364 C28.603125,9.93886364 29.024325,9.70704545 29.28285,9.38795455 C29.53125,9.07909091 29.6649,8.62636364 29.6649,8.27795455 L29.6649,8.03590909 L29.043225,8.03590909 L29.043225,8.03590909 Z" id="Fill-4"></path>
                        <path d="M34.6302,5.55204545 L34.6302,6.15136364 L33.0993,6.15136364 L33.0993,10.4809091 L32.372325,10.4809091 L32.372325,6.15136364 L30.841425,6.15136364 L30.841425,5.55204545 L34.6302,5.55204545" id="Fill-5"></path>
                        <path d="M39.039975,9.13772727 C38.906325,9.5625 38.6586,9.92045455 38.246175,10.2109091 C37.86345,10.4706818 37.4625,10.5777273 36.9927,10.5777273 C36.304875,10.5777273 35.7588,10.3459091 35.338275,9.8625 C34.907625,9.36954545 34.745625,8.74159091 34.745625,8.055 C34.745625,6.74113636 35.4726,5.45590909 37.012275,5.45590909 C38.830725,5.45590909 39.126375,7.15568182 39.126375,7.94931818 L39.126375,8.12318182 L35.586675,8.12318182 C35.577225,8.45113636 35.635275,8.79954545 35.74935,9.07909091 C35.9883,9.66954545 36.4284,9.93886364 37.021725,9.93886364 C37.548225,9.93886364 37.86345,9.70704545 38.03625,9.51409091 C38.1699,9.36954545 38.2752,9.16704545 38.33325,8.9925 L39.039975,9.13772727 L39.039975,9.13772727 Z M38.28465,7.52386364 C38.2752,7.22522727 38.198925,6.86590909 38.05515,6.62522727 C37.901925,6.375 37.59615,6.05522727 37.021725,6.05522727 C36.543825,6.05522727 36.18,6.28636364 35.95995,6.55704545 C35.7588,6.81886364 35.635275,7.17477273 35.62515,7.52386364 L38.28465,7.52386364 L38.28465,7.52386364 Z" id="Fill-6"></path>
                        <path d="M43.373475,5.55204545 L43.373475,10.4809091 L42.6465,10.4809091 L42.6465,6.15136364 L41.0778,6.15136364 C41.0022,8.35431818 40.9158,9.01227273 40.772025,9.44727273 C40.446675,10.4045455 39.69,10.4809091 39.355875,10.4809091 L39.3174,10.4809091 L39.3174,9.84204545 L39.393675,9.84204545 C39.6144,9.83318182 39.9492,9.66954545 40.13145,9.33136364 C40.27455,9.07022727 40.37985,8.5875 40.427775,6.10227273 L40.437225,5.55204545 L43.373475,5.55204545" id="Fill-7"></path>
                        <path d="M45.289125,5.55204545 L45.289125,7.49454545 L46.6479,7.49454545 C47.029275,7.49454545 47.508525,7.53409091 47.852775,7.87090909 C48.01545,8.03590909 48.245625,8.36454545 48.245625,8.95431818 C48.245625,9.4275 48.1113,9.83318182 47.75625,10.1427273 C47.422125,10.4420455 47.058975,10.4809091 46.772775,10.4809091 L44.56215,10.4809091 L44.56215,5.55204545 L45.289125,5.55204545 L45.289125,5.55204545 Z M45.289125,9.88159091 L46.427175,9.88159091 C46.63845,9.88159091 46.90575,9.88159091 47.145375,9.67772727 C47.3175,9.52363636 47.442375,9.27272727 47.442375,8.94409091 C47.442375,8.55818182 47.269575,8.35431818 47.117025,8.24863636 C46.934775,8.13340909 46.6479,8.09386364 46.4562,8.09386364 L45.289125,8.09386364 L45.289125,9.88159091 L45.289125,9.88159091 Z" id="Fill-8"></path>
                        <path d="M52.03845,7.27295455 C52.00065,7.00159091 51.89535,6.71181818 51.770475,6.52772727 C51.636825,6.33545455 51.3594,6.09340909 50.880825,6.09340909 C50.4603,6.09340909 50.15385,6.29590909 49.94325,6.645 C49.67595,7.08 49.628025,7.63909091 49.628025,8.03590909 C49.628025,8.96386364 49.885875,9.36954545 49.94325,9.44727273 C50.105925,9.68727273 50.393475,9.93886364 50.871375,9.93886364 C51.2352,9.93886364 51.503175,9.81409091 51.723225,9.53386364 C51.89535,9.31159091 52.00065,9.01227273 52.03845,8.73272727 L52.72695,8.8575 C52.6608,9.33136364 52.4502,9.76636364 52.1721,10.0554545 C51.828525,10.4127273 51.3783,10.5777273 50.8518,10.5777273 C50.24025,10.5777273 49.80015,10.3547727 49.5126,10.0936364 C49.035375,9.64909091 48.785625,8.8575 48.785625,8.02568182 C48.785625,7.36977273 48.9294,6.76977273 49.293225,6.25772727 C49.628025,5.79477273 50.11605,5.45590909 50.9004,5.45590909 C51.435675,5.45590909 51.8859,5.61886364 52.23015,6.01636364 C52.507575,6.33545455 52.669575,6.78954545 52.72695,7.14613636 L52.03845,7.27295455" id="Fill-9"></path>
                        <path d="M56.6973,5.55204545 L56.6973,6.15136364 L55.167075,6.15136364 L55.167075,10.4809091 L54.4401,10.4809091 L54.4401,6.15136364 L52.908525,6.15136364 L52.908525,5.55204545 L56.6973,5.55204545" id="Fill-10"></path>
                        <path d="M59.429025,5.55204545 C59.8212,5.55204545 60.2424,5.57181818 60.567075,5.76409091 C60.749325,5.87113636 61.0848,6.14181818 61.0848,6.71181818 C61.0848,7.03977273 60.988275,7.32068182 60.758775,7.53409091 C60.681825,7.60090909 60.4719,7.785 60.128325,7.84295455 L60.128325,7.86136364 C60.48135,7.89068182 60.83505,8.04545455 61.0362,8.24863636 C61.13205,8.34409091 61.36155,8.61545455 61.36155,9.08931818 C61.36155,9.54272727 61.170525,9.93068182 60.854625,10.1815909 C60.48135,10.4706818 60.060825,10.4809091 59.667975,10.4809091 L57.267675,10.4809091 L57.267675,5.55204545 L59.429025,5.55204545 L59.429025,5.55204545 Z M57.993975,7.61045455 L59.352075,7.61045455 C59.58225,7.61045455 59.878575,7.59136364 60.08985,7.35954545 C60.213375,7.22522727 60.2802,7.02068182 60.2802,6.79977273 C60.2802,6.645 60.2424,6.46977273 60.0696,6.32590909 C59.869125,6.15136364 59.639625,6.15136364 59.4189,6.15136364 L57.993975,6.15136364 L57.993975,7.61045455 L57.993975,7.61045455 Z M57.993975,9.88159091 L59.524875,9.88159091 C59.878575,9.88159091 60.1371,9.78545455 60.290325,9.63954545 C60.442875,9.49568182 60.519825,9.26318182 60.519825,9.04159091 C60.519825,8.69318182 60.33825,8.49954545 60.2235,8.41295455 C59.983875,8.22886364 59.639625,8.20909091 59.45805,8.20909091 L57.993975,8.20909091 L57.993975,9.88159091 L57.993975,9.88159091 Z" id="Fill-11"></path>
                        <path d="M64.1601,5.45590909 C65.423025,5.45590909 66.359925,6.40295455 66.359925,8.0175 C66.359925,9.63136364 65.423025,10.5777273 64.1601,10.5777273 C62.897175,10.5777273 61.9596,9.63136364 61.9596,8.0175 C61.9596,6.40295455 62.897175,5.45590909 64.1601,5.45590909 L64.1601,5.45590909 Z M65.518875,8.0175 C65.518875,6.40295455 64.743975,6.09340909 64.1601,6.09340909 C63.57555,6.09340909 62.80065,6.40295455 62.80065,8.0175 C62.80065,9.63136364 63.57555,9.93886364 64.1601,9.93886364 C64.743975,9.93886364 65.518875,9.63136364 65.518875,8.0175 L65.518875,8.0175 Z" id="Fill-12"></path>
                        <path d="M14.37345,15.3559091 L16.067025,21.5338636 L17.796375,15.3559091 L19.81125,15.3559091 L19.81125,23.9188636 L18.476775,23.9188636 L18.476775,16.6172727 L16.462575,23.9188636 L15.448725,23.9188636 L13.47165,16.6043182 L13.47165,23.9188636 L12.285675,23.9188636 L12.285675,15.3559091 L14.37345,15.3559091" id="Fill-13"></path>
                        <path d="M24.636825,15.3559091 L26.910225,23.9188636 L25.4772,23.9188636 L24.9453,21.7718182 L22.474125,21.7718182 L21.95505,23.9188636 L20.60775,23.9188636 L23.054625,15.3559091 L24.636825,15.3559091 L24.636825,15.3559091 Z M23.71005,16.7420455 L22.7583,20.6481818 L24.67395,20.6481818 L23.71005,16.7420455 L23.71005,16.7420455 Z" id="Fill-14"></path>
                        <path d="M29.159325,15.3559091 L29.159325,18.9122727 L31.655475,18.9122727 L31.655475,15.3559091 L33.0642,15.3559091 L33.0642,23.9188636 L31.655475,23.9188636 L31.655475,20.0856818 L29.159325,20.0856818 L29.159325,23.9188636 L27.7506,23.9188636 L27.7506,15.3559091 L29.159325,15.3559091" id="Fill-15"></path>
                        <path d="M35.930925,15.3559091 L35.930925,18.9122727 L38.427075,18.9122727 L38.427075,15.3559091 L39.8358,15.3559091 L39.8358,23.9188636 L38.427075,23.9188636 L38.427075,20.0856818 L35.930925,20.0856818 L35.930925,23.9188636 L34.5222,23.9188636 L34.5222,15.3559091 L35.930925,15.3559091" id="Fill-16"></path>
                        <path d="M42.717375,22.3077273 L42.717375,23.8445455 L41.77845,25.7270455 L41.172975,25.7270455 L41.950575,23.9188636 L41.2965,23.9188636 L41.2965,22.3077273 L42.717375,22.3077273" id="Fill-17"></path>
                        <path d="M46.917225,15.3559091 L46.917225,20.4361364 C46.917225,20.8104545 46.855125,21.0477273 46.818,21.4718182 C47.077875,20.8234091 47.12715,20.7238636 47.152125,20.6727273 L49.574025,15.9545455 L49.574025,15.3559091 L50.98275,15.3559091 L50.98275,23.9188636 L49.574025,23.9188636 L49.574025,18.8127273 C49.574025,18.5897727 49.61115,18.4629545 49.67325,17.7020455 C49.40055,18.3013636 49.52475,18.1015909 49.2777,18.5761364 L46.917225,23.22 L46.917225,23.9188636 L45.5085,23.9188636 L45.5085,15.3559091 L46.917225,15.3559091" id="Fill-18"></path>
                        <path d="M55.036125,15.3559091 C55.69155,15.3559091 56.345625,15.3559091 56.8404,15.6681818 C57.321675,15.9790909 57.705075,16.6172727 57.705075,17.5022727 C57.705075,18.2263636 57.482325,18.6252273 57.309525,18.8372727 C57.0996,19.0875 56.7783,19.2865909 56.445525,19.3997727 C56.8404,19.5 57.148875,19.7106818 57.371625,19.9363636 C57.853575,20.4231818 57.964275,20.9979545 57.964275,21.51 C57.964275,22.6704545 57.40875,23.2445455 57.00105,23.5070455 C56.4084,23.8936364 55.728,23.9188636 55.07325,23.9188636 L52.441425,23.9188636 L52.441425,15.3559091 L55.036125,15.3559091 L55.036125,15.3559091 Z M54.7398,18.8890909 C55.07325,18.8890909 55.592325,18.8502273 55.839375,18.6756818 C56.1357,18.4629545 56.27205,17.9638636 56.27205,17.6386364 C56.27205,17.2895455 56.1357,16.89 55.8765,16.6915909 C55.604475,16.4788636 55.146825,16.4788636 54.875475,16.4788636 L53.85015,16.4788636 L53.85015,18.8890909 L54.7398,18.8890909 L54.7398,18.8890909 Z M54.974025,22.7959091 C55.2096,22.7959091 55.642275,22.7706818 55.9872,22.545 C56.46915,22.2327273 56.53125,21.7718182 56.53125,21.4090909 C56.53125,21.1977273 56.494125,20.6113636 56.03715,20.2731818 C55.703025,20.0243182 55.271025,20.0120455 54.875475,20.0120455 L53.85015,20.0120455 L53.85015,22.7959091 L54.974025,22.7959091 L54.974025,22.7959091 Z" id="Fill-19"></path>
                        <path d="M62.450325,15.3559091 L64.7244,23.9188636 L63.2907,23.9188636 L62.759475,21.7718182 L60.287625,21.7718182 L59.76855,23.9188636 L58.421925,23.9188636 L60.868125,15.3559091 L62.450325,15.3559091 L62.450325,15.3559091 Z M61.52355,16.7420455 L60.5718,20.6481818 L62.48745,20.6481818 L61.52355,16.7420455 L61.52355,16.7420455 Z" id="Fill-20"></path>
                        <path d="M66.972825,15.3559091 L66.972825,18.9122727 L69.468975,18.9122727 L69.468975,15.3559091 L70.8777,15.3559091 L70.8777,23.9188636 L69.468975,23.9188636 L69.468975,20.0856818 L66.972825,20.0856818 L66.972825,23.9188636 L65.5641,23.9188636 L65.5641,15.3559091 L66.972825,15.3559091" id="Fill-21"></path>
                        <path d="M77.101875,16.0165909 C78.053625,17.04 78.127875,18.9006818 78.127875,19.6370455 C78.127875,20.3488636 78.053625,22.2579545 77.101875,23.2568182 C76.7313,23.6447727 76.0644,24.0790909 75.087675,24.0790909 C74.23515,24.0790909 73.53045,23.7436364 73.073475,23.2697727 C72.764325,22.9445455 72.035325,22.0084091 72.035325,19.6493182 C72.035325,18.825 72.133875,16.965 73.073475,15.9927273 C73.431225,15.6170455 74.0988,15.1936364 75.087675,15.1936364 C76.075875,15.1936364 76.71915,15.6054545 77.101875,16.0165909 L77.101875,16.0165909 Z M73.6911,17.7143182 C73.591875,18.1513636 73.5183,19.1120455 73.5183,19.6370455 C73.5183,20.16 73.591875,21.1227273 73.6911,21.5590909 C73.864575,22.2961364 74.272275,22.9063636 75.087675,22.9063636 C75.54465,22.9063636 76.175775,22.7325 76.459275,21.5590909 C76.583475,21.0477273 76.644225,20.4361364 76.644225,19.6370455 C76.644225,18.7125 76.5585,18.1377273 76.459275,17.7143182 C76.33575,17.2281818 76.027275,16.3670455 75.087675,16.3670455 C74.840625,16.3670455 73.987425,16.4420455 73.6911,17.7143182 L73.6911,17.7143182 Z" id="Fill-22"></path>
                        <path d="M81.8991,15.3559091 C82.55385,15.3559091 83.2086,15.3559091 83.7027,15.6681818 C84.185325,15.9790909 84.56805,16.6172727 84.56805,17.5022727 C84.56805,18.2263636 84.3453,18.6252273 84.1725,18.8372727 C83.962575,19.0875 83.641275,19.2865909 83.307825,19.3997727 C83.7027,19.5 84.012525,19.7106818 84.2346,19.9363636 C84.71655,20.4231818 84.82725,20.9979545 84.82725,21.51 C84.82725,22.6704545 84.271725,23.2445455 83.86335,23.5070455 C83.270025,23.8936364 82.590975,23.9188636 81.936225,23.9188636 L79.3044,23.9188636 L79.3044,15.3559091 L81.8991,15.3559091 L81.8991,15.3559091 Z M81.602775,18.8890909 C81.936225,18.8890909 82.4553,18.8502273 82.701675,18.6756818 C82.998675,18.4629545 83.13435,17.9638636 83.13435,17.6386364 C83.13435,17.2895455 82.998675,16.89 82.7388,16.6915909 C82.46745,16.4788636 82.01115,16.4788636 81.73845,16.4788636 L80.713125,16.4788636 L80.713125,18.8890909 L81.602775,18.8890909 L81.602775,18.8890909 Z M81.837,22.7959091 C82.072575,22.7959091 82.5039,22.7706818 82.8495,22.545 C83.332125,22.2327273 83.394225,21.7718182 83.394225,21.4090909 C83.394225,21.1977273 83.3571,20.6113636 82.89945,20.2731818 C82.566,20.0243182 82.134,20.0120455 81.73845,20.0120455 L80.713125,20.0120455 L80.713125,22.7959091 L81.837,22.7959091 L81.837,22.7959091 Z" id="Fill-23"></path>
                        <path d="M89.38215,15.3559091 L89.38215,20.4361364 C89.38215,20.8104545 89.32005,21.0477273 89.282925,21.4718182 C89.5428,20.8234091 89.5914,20.7238636 89.61705,20.6727273 L92.038275,15.9545455 L92.038275,15.3559091 L93.447675,15.3559091 L93.447675,23.9188636 L92.038275,23.9188636 L92.038275,18.8127273 C92.038275,18.5897727 92.0754,18.4629545 92.1375,17.7020455 C91.86615,18.3013636 91.989675,18.1015909 91.74195,18.5761364 L89.38215,23.22 L89.38215,23.9188636 L87.973425,23.9188636 L87.973425,15.3559091 L89.38215,15.3559091" id="Fill-24"></path>
                        <path d="M100.905075,15.1056818 L100.905075,16.2047727 L100.96785,16.2047727 C101.374875,16.2047727 102.2517,16.23 102.981375,16.8531818 C103.43835,17.2397727 104.007375,18.0388636 104.007375,19.4625 C104.007375,20.5847727 103.67325,21.4227273 103.21695,21.9088636 C102.59865,22.5702273 101.7711,22.7202273 100.905075,22.7447727 L100.905075,24.0054545 L99.546975,24.0054545 L99.546975,22.7447727 C98.68095,22.7202273 97.854075,22.5702273 97.235775,21.9088636 C96.7788,21.4227273 96.444675,20.5847727 96.444675,19.4625 C96.444675,18.0388636 97.0137,17.2397727 97.470675,16.8531818 C98.199,16.23 99.0765,16.2047727 99.484875,16.2047727 L99.546975,16.2047727 L99.546975,15.1056818 L100.905075,15.1056818 L100.905075,15.1056818 Z M99.583425,17.3277273 L99.49635,17.3277273 C98.966475,17.3277273 98.458875,17.5022727 98.1747,17.8015909 C97.742025,18.2515909 97.7049,19.0759091 97.7049,19.4754545 C97.7049,20.3243182 97.854075,21.0102273 98.42175,21.3722727 C98.805825,21.6088636 99.36135,21.6340909 99.583425,21.6225 L99.583425,17.3277273 L99.583425,17.3277273 Z M100.868625,21.6225 C101.091375,21.6340909 101.6469,21.6088636 102.029625,21.3722727 C102.59865,21.0102273 102.746475,20.3243182 102.746475,19.4754545 C102.746475,19.0759091 102.70935,18.2515909 102.27735,17.8015909 C102.178125,17.7020455 101.796075,17.3277273 100.95435,17.3277273 L100.868625,17.3277273 L100.868625,21.6225 L100.868625,21.6225 Z" id="Fill-25"></path>
                        <path d="M109.931175,15.3559091 L109.931175,16.5286364 L106.48395,16.5286364 L106.48395,18.9122727 L109.1907,18.9122727 L109.1907,20.0856818 L106.48395,20.0856818 L106.48395,22.7447727 L109.993275,22.7447727 L109.993275,23.9188636 L105.075225,23.9188636 L105.075225,15.3559091 L109.931175,15.3559091" id="Fill-26"></path>
                        <path d="M112.990275,15.3559091 C113.879925,15.3559091 114.768225,15.4056818 115.42365,16.0670455 C115.8192,16.4652273 116.10405,17.1279545 116.10405,18.0013636 C116.10405,18.6136364 115.930575,19.3002273 115.54785,19.7495455 C114.8931,20.535 113.84145,20.5731818 113.02605,20.5731818 L112.28625,20.5731818 L112.28625,23.9188636 L110.87685,23.9188636 L110.87685,15.3559091 L112.990275,15.3559091 L112.990275,15.3559091 Z M112.28625,19.4495455 L112.990275,19.4495455 C113.557275,19.4495455 114.089175,19.4386364 114.39765,18.9504545 C114.47325,18.825 114.621075,18.5379545 114.621075,17.9768182 C114.621075,17.6768182 114.58395,17.2397727 114.336225,16.9159091 C114.0156,16.4788636 113.5701,16.4788636 112.990275,16.4788636 L112.28625,16.4788636 L112.28625,19.4495455 L112.28625,19.4495455 Z" id="Fill-27"></path>
                        <path d="M121.923225,16.4788636 L118.463175,16.4788636 L118.463175,18.8502273 L119.909025,18.8502273 C120.291075,18.8502273 121.10715,18.8890909 121.724775,19.4120455 C122.046075,19.6997727 122.47875,20.2609091 122.47875,21.3095455 C122.47875,21.9968182 122.280975,22.7447727 121.873275,23.22 C121.3164,23.8684091 120.5874,23.9188636 120.131775,23.9188636 L117.05445,23.9188636 L117.05445,15.3559091 L121.923225,15.3559091 L121.923225,16.4788636 L121.923225,16.4788636 Z M118.463175,22.7959091 L119.734875,22.7959091 C120.106125,22.7959091 120.4902,22.6459091 120.69945,22.4202273 C120.909375,22.1965909 121.04505,21.8215909 121.04505,21.3334091 C121.04505,21.1227273 121.020075,20.6481818 120.69945,20.3359091 C120.4767,20.1238636 120.057525,19.9738636 119.661975,19.9738636 L118.463175,19.9738636 L118.463175,22.7959091 L118.463175,22.7959091 Z" id="Fill-28"></path>
                        <path d="M128.4768,15.3559091 L128.4768,16.5286364 L125.0289,16.5286364 L125.0289,18.9122727 L127.73565,18.9122727 L127.73565,20.0856818 L125.0289,20.0856818 L125.0289,22.7447727 L128.5389,22.7447727 L128.5389,23.9188636 L123.620175,23.9188636 L123.620175,15.3559091 L128.4768,15.3559091" id="Fill-29"></path>
                        <path d="M131.535225,15.3559091 C132.424875,15.3559091 133.3152,15.4056818 133.970625,16.0670455 C134.3655,16.4652273 134.649,17.1279545 134.649,18.0013636 C134.649,18.6136364 134.476875,19.3002273 134.0928,19.7495455 C133.438725,20.535 132.388425,20.5731818 131.57235,20.5731818 L130.8312,20.5731818 L130.8312,23.9188636 L129.4218,23.9188636 L129.4218,15.3559091 L131.535225,15.3559091 L131.535225,15.3559091 Z M130.8312,19.4495455 L131.535225,19.4495455 C132.103575,19.4495455 132.6348,19.4386364 132.94395,18.9504545 C133.0182,18.825 133.166025,18.5379545 133.166025,17.9768182 C133.166025,17.6768182 133.1289,17.2397727 132.882525,16.9159091 C132.561225,16.4788636 132.1164,16.4788636 131.535225,16.4788636 L130.8312,16.4788636 L130.8312,19.4495455 L130.8312,19.4495455 Z" id="Fill-30"></path>
                        <path d="M4.052025,26.2227273 L4.052025,3.675 L7.120575,3.675 L7.120575,0.453409091 L0.065475,0.453409091 L0.065475,29.4443182 L7.120575,29.4443182 L7.120575,26.2227273 L4.052025,26.2227273" id="Fill-31"></path>
                    </g>
                </g>
            </g>
        </g>
    </g>
</svg>