<?xml version="1.0" encoding="UTF-8" standalone="no"?>
<svg width="117px" height="60px" viewBox="0 0 117 60" version="1.1" xmlns="http://www.w3.org/2000/svg" xmlns:xlink="http://www.w3.org/1999/xlink" xmlns:sketch="http://www.bohemiancoding.com/sketch/ns">
    <!-- Generator: Sketch 3.2.2 (9983) - http://www.bohemiancoding.com/sketch -->
    <title>1</title>
    <desc>Created with Sketch.</desc>
    <defs></defs>
    <g id="Page-1" stroke="none" stroke-width="1" fill="none" fill-rule="evenodd" sketch:type="MSPage">
        <g id="Партнёры" sketch:type="MSArtboardGroup" transform="translate(-470.000000, -1402.000000)">
            <g id="2_block" sketch:type="MSLayerGroup" transform="translate(469.000000, 142.000000)">
                <g id="4" transform="translate(0.000000, 1159.000000)" sketch:type="MSShapeGroup">
                    <g id="1" transform="translate(1.000000, 101.000000)">
                        <path d="M54.3914404,4.26260188 C54.3966592,2.00523511 56.1943681,0.178902821 58.404359,0.185485893 C60.6158848,0.191442006 62.4040772,2.02749216 62.3991654,4.28548589 C62.3957886,6.10335423 61.2286285,7.64128527 59.6203298,8.16761755 L59.6203298,18.1096238 C59.6203298,18.1459875 59.5644584,18.1767085 59.4978425,18.1767085 L57.2930704,18.1767085 C57.2246125,18.1767085 57.1699691,18.1459875 57.1699691,18.1096238 L57.1699691,8.16761755 C55.5552237,7.63752351 54.3868357,6.08799373 54.3914404,4.26260188" id="Fill-1" fill="#B95390"></path>
                        <path d="M45.9291002,11.2286207 C44.3702262,9.62924765 44.3769799,7.03833856 45.9438355,5.44868339 C47.5106911,3.85557994 50.0473149,3.86247649 51.6080308,5.46310345 C52.8632958,6.75056426 53.1036657,8.68003135 52.3303684,10.2160815 L59.2157532,17.2458621 C59.2403121,17.2709404 59.2228139,17.331442 59.1746171,17.3806583 L57.6151292,18.9721944 C57.5678534,19.0201567 57.5086051,19.0405329 57.4831253,19.0145141 L50.5977405,11.9828527 C49.0882912,12.7753292 47.1914259,12.5232915 45.9291002,11.2286207" id="Fill-3" fill="#4D5897"></path>
                        <path d="M44.7699525,22.2656113 C42.5602686,22.2596552 40.7702343,20.423605 40.777295,18.1671787 C40.7825137,15.909185 42.5799157,14.0825392 44.7914415,14.0881818 C46.5719592,14.0910031 48.0786456,15.2837931 48.5946887,16.9261129 L58.3301298,16.9261129 C58.3657402,16.9261129 58.3952108,16.9825392 58.3952108,17.0505643 L58.3952108,19.3032288 C58.3952108,19.3715674 58.3657402,19.4273668 58.3301298,19.4273668 L48.5937678,19.4273668 C48.0749617,21.077837 46.5584518,22.269373 44.7699525,22.2656113" id="Fill-5" fill="#006FAC"></path>
                        <path d="M51.5927429,30.9071473 C50.0255803,32.4989969 47.4892635,32.4921003 45.9313105,30.8917868 C44.3709016,29.2902194 44.3770413,26.7011912 45.9454318,25.1084013 C47.2065296,23.8253292 49.0966412,23.5811285 50.5990298,24.3698433 L57.4844146,17.3391223 C57.5095875,17.3140439 57.5679148,17.3334796 57.6158046,17.3817555 L59.1746785,18.9723511 C59.2225683,19.0225078 59.2406805,19.0830094 59.2158146,19.1068339 L52.3301228,26.1388088 C53.105876,27.6792476 52.8593663,29.6184326 51.5927429,30.9071473" id="Fill-7" fill="#00A3DB"></path>
                        <path d="M62.3994417,32.0892476 C62.393916,34.3475549 60.596207,36.1748276 58.3862162,36.1673041 C56.1746903,36.161348 54.386805,34.3262382 54.3914098,32.0673041 C54.3947866,30.2513166 55.5622536,28.7115047 57.1714733,28.1851724 L57.1714733,18.2422257 C57.1714733,18.2055486 57.2258098,18.1767085 57.2939606,18.1767085 L59.4984258,18.1767085 C59.5656556,18.1767085 59.6206061,18.2055486 59.6206061,18.2422257 L59.6206061,28.1851724 C61.2353515,28.7162069 62.4040465,30.2638558 62.3994417,32.0892476" id="Fill-9" fill="#6AAD40"></path>
                        <path d="M70.8608917,25.1229154 C72.4203796,26.7241693 72.4136259,29.3144514 70.8464634,30.9041066 C69.2802217,32.4968966 66.7439049,32.4903135 65.183803,30.8896865 C63.9276171,29.6019122 63.6872472,27.6718182 64.4605445,26.1367085 L57.5757736,19.1069279 C57.5502938,19.0809091 57.5690199,19.020094 57.6156818,18.9721317 L59.1754767,17.3805956 C59.2233665,17.3313793 59.2823077,17.312884 59.3074806,17.3382759 L66.1922514,24.3699373 C67.7023147,23.5774608 69.599487,23.8301254 70.8608917,25.1229154" id="Fill-11" fill="#BBD236"></path>
                        <path d="M72.0208069,14.0874608 C74.2304908,14.0943574 76.0208321,15.930094 76.0134644,18.1865204 C76.0079386,20.4438871 74.2105367,22.2702194 71.9983969,22.2655172 C70.2191072,22.2605016 68.7133417,21.069906 68.1960706,19.4263323 L58.4603225,19.4263323 C58.4250192,19.4263323 58.3958555,19.3714734 58.3958555,19.3012539 L58.3958555,17.0504702 C58.3958555,16.9824451 58.4250192,16.9247649 58.4603225,16.9247649 L68.1966846,16.9247649 C68.7157976,15.2761755 70.2323075,14.0833856 72.0208069,14.0874608" id="Fill-13" fill="#E7772B"></path>
                        <path d="M65.1980165,5.44777429 C66.765486,3.85404389 69.3018028,3.8615674 70.8603698,5.46094044 C72.4195508,7.06125392 72.4134111,9.65090909 70.8453275,11.244326 C69.5845368,12.5283386 67.6938111,12.7725392 66.1914226,11.982884 L59.3066517,19.0145455 C59.2820929,19.0393103 59.2228446,19.0201881 59.1746478,18.9715987 L57.6157739,17.3803762 C57.5678841,17.3314734 57.5500789,17.2709718 57.5749447,17.2458934 L64.4606366,10.2145455 C63.6842694,8.67253918 63.931086,6.73429467 65.1980165,5.44777429" id="Fill-15" fill="#DF4F2A"></path>
                        <path d="M54.2985158,18.167116 C54.3040416,15.7298119 56.2454199,13.7564577 58.6319276,13.7646082 C61.0202772,13.7699373 62.951218,15.751442 62.9459992,18.1909404 C62.9401665,20.627931 60.9987882,22.6000313 58.6113595,22.5937618 C56.2236239,22.5865517 54.2929901,20.605674 54.2985158,18.167116" id="Fill-17" fill="#00A3DB"></path>
                        <path d="M31.2709267,59.6607524 L31.2709267,57.8939812 L32.62719,57.8939812 L32.62719,49.7068339 L30.0325459,49.7068339 L30.0325459,50.8375549 L28.0837999,50.8375549 L28.0837999,47.7275235 L39.7554006,47.7275235 L39.7554006,50.8375549 L37.8152502,50.8375549 L37.8152502,49.7068339 L35.1751722,49.7068339 L35.1751722,57.8939812 L36.5295936,57.8939812 L36.5295936,59.6607524 L31.2709267,59.6607524 Z" id="Fill-19" fill="#FFFFFF"></path>
                        <path d="M81.0344016,59.6607524 L81.0344016,57.8939812 L82.1481461,57.8939812 L82.1481461,49.6817555 L81.0344016,49.6817555 L81.0344016,47.7275235 L90.0990787,47.7275235 L90.0990787,50.8115361 L88.167524,50.8115361 L88.167524,49.6817555 L84.6958214,49.6817555 L84.6958214,57.8939812 L85.7975935,57.8939812 L85.7975935,59.6607524 L81.0344016,59.6607524 Z" id="Fill-21" fill="#FFFFFF"></path>
                        <path d="M110.804535,53.6939185 L113.119515,53.6939185 L113.119515,49.6816928 L111.15542,49.6816928 C109.285569,49.6816928 108.438595,50.3932915 108.438595,51.5594357 C108.438595,52.9920376 109.355562,53.6939185 110.804535,53.6939185 L110.804535,53.6939185 Z M113.119515,59.6606897 L113.119515,55.3879624 L110.688494,55.3879624 L109.060549,58.6584953 L108.290014,59.6606897 L105.876492,59.6606897 L105.876492,57.8929781 L106.945723,57.8929781 L108.49109,54.9102194 C106.738201,54.2860815 105.999286,53.1124138 105.999286,51.5130408 C105.999286,49.2340439 107.509656,47.7274608 110.89878,47.7274608 L116.780935,47.7274608 L116.780935,49.6816928 L115.666576,49.6816928 L115.666576,57.8939185 L116.780935,57.8939185 L116.780935,59.6606897 L113.119515,59.6606897 Z" id="Fill-23" fill="#FFFFFF"></path>
                        <path d="M73.3960112,57.9543574 C75.6161327,57.9543574 77.4632663,56.1399373 77.4632663,53.6101567 C77.4632663,51.1035737 75.6161327,49.314232 73.3960112,49.314232 C71.151638,49.314232 69.3281422,51.1035737 69.3281422,53.6101567 C69.3281422,56.1399373 71.151638,57.9543574 73.3960112,57.9543574 M73.3960112,47.3085893 C76.9254272,47.3085893 79.7767114,49.9581191 79.7767114,53.6101567 C79.7767114,57.2853918 76.9254272,59.9587461 73.3960112,59.9587461 C69.8669023,59.9587461 67.0150041,57.2853918 67.0150041,53.6101567 C67.0150041,49.9581191 69.8669023,47.3085893 73.3960112,47.3085893" id="Fill-25" fill="#FFFFFF"></path>
                        <path d="M46.7757978,57.9543574 C48.9965331,57.9543574 50.8436668,56.1399373 50.8436668,53.6101567 C50.8436668,51.1035737 48.9965331,49.314232 46.7757978,49.314232 C44.5314245,49.314232 42.7091567,51.1035737 42.7091567,53.6101567 C42.7091567,56.1399373 44.5314245,57.9543574 46.7757978,57.9543574 M46.7757978,47.3085893 C50.3055207,47.3085893 53.1564979,49.9581191 53.1564979,53.6101567 C53.1564979,57.2853918 50.3055207,59.9587461 46.7757978,59.9587461 C43.2473028,59.9587461 40.3950976,57.2853918 40.3950976,53.6101567 C40.3950976,49.9581191 43.2473028,47.3085893 46.7757978,47.3085893" id="Fill-27" fill="#FFFFFF"></path>
                        <path d="M64.7320734,57.8940439 L64.7320734,47.7272727 L55.7146721,47.7272727 L55.7146721,49.6818182 L56.7854386,49.6818182 C56.5407709,55.4858934 56.2822889,57.6510972 53.5568688,57.6510972 L53.5568688,59.7322884 C53.6741374,59.7413793 54.0326968,59.7322884 54.1441327,59.7322884 C57.5940393,59.7322884 58.789749,57.0833856 59.0049461,49.7068966 L62.1613742,49.7068966 L62.1613742,57.8940439 L61.0599091,57.8940439 L61.0599091,59.660815 L65.8335385,59.660815 L65.8335385,57.8940439 L64.7320734,57.8940439 Z" id="Fill-29" fill="#FFFFFF"></path>
                        <path d="M21.1220984,49.3143887 C23.035234,49.3143887 24.6683986,50.6441693 25.0846713,52.6150157 L17.1595255,52.6150157 C17.5715005,50.6441693 19.1887018,49.3143887 21.1220984,49.3143887 L21.1220984,49.3143887 Z M24.2733078,56.3952665 C23.5224205,57.3661129 22.3841171,57.9545141 21.1220984,57.9545141 C19.1530914,57.9545141 17.5088754,56.5570219 17.1358876,54.5052978 L27.3447009,54.5052978 C27.8318874,50.8375862 25.3581957,47.3087461 21.1220984,47.3087461 C17.5936035,47.3087461 14.812619,49.9582759 14.812619,53.61 C14.812619,57.2855486 17.5936035,59.9585893 21.1220984,59.9585893 C23.6737645,59.9585893 25.8638013,58.5576489 26.8854501,56.3952665 L24.2733078,56.3952665 Z" id="Fill-31" fill="#FFFFFF"></path>
                        <path d="M8.29583203,47.7273981 L8.29583203,47.728652 L8.27618494,47.728652 L8.27618494,49.498558 L9.37151033,49.498558 L9.37151033,52.5951097 L3.92496801,52.5951097 L3.92496801,47.7273981 L0.269994908,47.7273981 L0.269994908,47.728652 L0.269994908,49.2183072 L0.269994908,49.498558 L1.37790671,49.498558 L1.37790671,57.8941693 L0.269994908,57.8941693 L0.269994908,59.660627 L5.04730815,59.660627 L5.04730815,57.8941693 L3.92496801,57.8941693 L3.92496801,54.4574922 L9.37151033,54.4574922 L9.37151033,59.660627 L13.0433676,59.660627 L13.0433676,57.8941693 L13.0433676,57.8910345 L11.9194926,57.8910345 L11.9194926,49.498558 L13.0433676,49.498558 L13.0433676,49.2023197 L13.0433676,47.728652 L13.0433676,47.7273981 L8.29583203,47.7273981 Z" id="Fill-33" fill="#FFFFFF"></path>
                        <path d="M103.077702,57.8854859 L103.077702,47.7274922 L100.717288,47.7274922 L94.7332138,55.7701254 L94.7332138,49.498652 L95.8445024,49.498652 L95.8445024,47.7287461 L91.0770127,47.7274922 L91.0770127,47.7287461 L91.0770127,49.498652 L92.1861525,49.498652 L92.1861525,59.660721 L94.056003,59.660721 L94.079334,59.6121317 L100.506389,51.0447335 L100.506389,57.8854859 L99.4325526,57.8854859 L99.4325526,59.6550784 L104.200042,59.660721 L104.200042,59.6550784 L104.200042,57.8939498 L104.200042,57.8854859 L103.077702,57.8854859 Z" id="Fill-35" fill="#FFFFFF"></path>
                    </g>
                </g>
            </g>
        </g>
    </g>
</svg>