<?xml version="1.0" encoding="UTF-8" standalone="no"?>
<svg width="160px" height="30px" viewBox="0 0 160 30" version="1.1" xmlns="http://www.w3.org/2000/svg" xmlns:xlink="http://www.w3.org/1999/xlink" xmlns:sketch="http://www.bohemiancoding.com/sketch/ns">
    <!-- Generator: Sketch 3.2.2 (9983) - http://www.bohemiancoding.com/sketch -->
    <title>Imported Layers</title>
    <desc>Created with Sketch.</desc>
    <defs></defs>
    <g id="Page-1" stroke="none" stroke-width="1" fill="none" fill-rule="evenodd" sketch:type="MSPage">
        <g id="Партнёры" sketch:type="MSArtboardGroup" transform="translate(-877.000000, -1819.000000)" fill="#FFFFFF">
            <g id="2_block" sketch:type="MSLayerGroup" transform="translate(242.000000, 192.000000)">
                <g id="5" transform="translate(0.000000, 1450.000000)" sketch:type="MSShapeGroup">
                    <g id="Imported-Layers" transform="translate(635.000000, 177.000000)">
                        <path d="M24.0390157,25.8946429 C23.5522148,25.5485714 23.3084564,24.9810714 23.3084564,24.1907143 C23.3084564,23.4746429 23.7952573,21.67 24.7695749,18.7789286 C25.1103356,17.7832143 25.372349,16.9996429 25.5548993,16.4282143 C25.7861298,15.7239286 26.1147204,14.7217857 26.5410291,13.4217857 C28.2212081,8.33142857 29.0612975,5.21535714 29.0612975,4.07357143 C29.0612975,2.95571429 28.720179,2.06321429 28.0386577,1.395 C27.3567785,0.727142857 26.4497539,0.392857143 25.3175839,0.392857143 C23.5643848,0.392857143 21.7746756,1.30678571 19.9477405,3.135 C18.1218792,4.96357143 15.9727964,8.04 13.5012081,12.3646429 C13.8663087,11.0892857 14.1340492,9.98071429 14.3047875,9.03928571 C14.4751678,8.09785714 14.5607159,7.2625 14.5607159,6.53357143 C14.5607159,4.71142857 14.0703356,3.25678571 13.0902908,2.16928571 C12.1102461,1.08214286 10.8044743,0.538571429 9.17297539,0.538571429 C6.77404922,0.538571429 4.68295302,1.59821429 2.8996868,3.71821429 C1.11606264,5.83857143 0.224071588,8.34964286 0.224071588,11.2532143 C0.224071588,12.7232143 0.488948546,13.8407143 1.01870246,14.6060714 C1.54809843,15.3714286 2.31803132,15.7539286 3.32885906,15.7539286 C3.60876957,15.7539286 3.86434004,15.7207143 4.09592841,15.6539286 C4.32680089,15.5871429 4.54621924,15.4871429 4.75346756,15.3532143 C4.49753915,14.6853571 4.3089038,14.05 4.18720358,13.4489286 C4.06550336,12.8475 4.0042953,12.2492857 4.0042953,11.6539286 C4.0042953,9.74714286 4.46102908,8.0825 5.3741387,6.66107143 C6.28724832,5.23964286 7.32850112,4.52928571 8.49718121,4.52928571 C9.1790604,4.52928571 9.71167785,4.75071429 10.0953915,5.19392857 C10.4787472,5.63785714 10.6702461,6.26 10.6702461,7.06178571 C10.6702461,8.53214286 10.2564653,10.6946429 9.42854586,13.5492857 C8.6006264,16.4039286 7.46809843,19.5017857 6.03167785,22.8425 C5.78791946,23.4010714 5.45897092,24.1364286 5.0455481,25.0475 C4.22979866,26.8821429 3.82174497,27.9814286 3.82174497,28.3453571 C3.82174497,28.6739286 3.94988814,28.9042857 4.20545861,29.0382143 C4.46102908,29.1717857 4.91740492,29.2385714 5.57530201,29.2385714 C6.2203132,29.2385714 6.76223714,29.1775 7.20035794,29.0560714 C7.63883669,28.935 7.93736018,28.7646429 8.09557047,28.5460714 C8.13208054,28.4975 8.25986577,28.1757143 8.47892617,27.5803571 C9.42854586,24.9810714 10.5181208,22.4232143 11.7480089,19.9085714 C12.5880984,18.1839286 13.6229083,16.3371429 14.8527964,14.3692857 C16.0826846,12.4010714 17.44,10.4271429 18.9258166,8.44678571 C19.9359284,7.12321429 20.8035794,6.13928571 21.5280537,5.495 C22.25217,4.85142857 22.8581655,4.52928571 23.3453244,4.52928571 C23.661387,4.52928571 23.8958389,4.6175 24.0483221,4.79321429 C24.2000895,4.96964286 24.2763311,5.23964286 24.2763311,5.60428571 C24.2763311,6.07821429 24.1517673,6.7675 23.9019239,7.6725 C23.6524385,8.5775 23.2293512,9.85642857 22.6326622,11.5082143 C22.3162416,12.4075 21.8591499,13.6707143 21.2628188,15.2985714 C19.5829978,19.8296429 18.7425503,22.7942857 18.7425503,24.1907143 C18.7425503,25.7582143 19.2909172,26.9457143 20.3865772,27.7535714 C21.4825951,28.5617857 23.077226,28.9653571 25.1715436,28.9653571 L25.8469799,28.9653571 L26.5592841,26.5053571 C25.365906,26.4446429 24.5258166,26.2410714 24.0390157,25.8946429" id="Fill-1"></path>
                        <path d="M40.5397763,20.6103571 C41.5928412,18.8792857 42.1197315,17.2967857 42.1197315,15.8635714 C42.1197315,14.5514286 41.7514094,13.5157143 41.0147651,12.7564286 C40.2777629,11.9975 39.2765996,11.6175 38.0102013,11.6175 C35.7455034,11.6175 33.7825503,12.5167857 32.1206264,14.3146429 C30.4587025,16.1125 29.6279195,18.2260714 29.6279195,20.6557143 C29.6279195,21.7010714 29.7374497,22.6121429 29.9561521,23.3889286 C30.1755705,24.1664286 30.5163311,24.8592857 30.9791499,25.4664286 C30.3094407,25.7582143 29.618255,25.9892857 28.9063087,26.1589286 C28.1940045,26.3296429 27.4179866,26.4446429 26.5775391,26.5053571 L25.8469799,28.9653571 C27.052528,28.9167857 28.2484116,28.7403571 29.4357047,28.4367857 C30.6229978,28.1332143 31.8067114,27.7017857 32.9879195,27.1428571 C33.7428188,27.7621429 34.6376734,28.2214286 35.6728412,28.5189286 C36.707651,28.8160714 37.9067562,28.9653571 39.2705145,28.9653571 L39.7637584,28.9653571 L40.4757047,26.5053571 L40.2197763,26.5053571 C39.3431767,26.5053571 38.6043848,26.405 38.0012528,26.2046429 C37.3984787,26.0039286 36.8415213,25.6667857 36.3300224,25.1932143 C38.0835794,23.8692857 39.4863535,22.3414286 40.5397763,20.6103571 L40.5397763,20.6103571 Z M34.8689038,23.2978571 C34.5646532,22.9457143 34.3455928,22.5539286 34.2117226,22.1225 C34.0774944,21.6917857 34.0109172,21.1782143 34.0109172,20.5832143 C34.0109172,19.0160714 34.4003579,17.64 35.1795973,16.4557143 C35.9584787,15.2710714 36.8533333,14.6789286 37.8641611,14.6789286 C38.3513199,14.6789286 38.7225056,14.8157143 38.978434,15.0889286 C39.2340045,15.3621429 39.3617897,15.7603571 39.3617897,16.2825 C39.3617897,17.3275 38.9297539,18.5510714 38.0653244,19.9542857 C37.2005369,21.3575 36.135302,22.4721429 34.8689038,23.2978571 L34.8689038,23.2978571 Z" id="Fill-2"></path>
                        <path d="M79.778434,26.4875 C80.3021029,25.8942857 80.9671588,24.6860714 81.3032662,23.7807143 C81.6379418,22.8760714 81.8051007,21.9432143 81.8051007,20.9839286 C81.8051007,19.9267857 81.5677852,18.8975 81.0927964,17.895 C80.6181655,16.8932143 79.8442953,15.7967857 78.7733333,14.6060714 C79.3821924,14.0957143 79.8385682,13.5796429 80.1431767,13.0571429 C80.4474273,12.535 80.5995526,12.0185714 80.5995526,11.5082143 C80.5995526,10.9617857 80.4195078,10.5271429 80.0608501,10.2053571 C79.7018345,9.88357143 79.2178971,9.7225 78.609038,9.7225 C77.5867562,9.7225 76.7097987,10.0625 75.9792394,10.7432143 C75.2486801,11.4232143 74.8832215,12.2371429 74.8832215,13.1846429 C74.8832215,13.5614286 74.935481,13.8925 75.0385682,14.1778571 C75.1416555,14.4635714 75.3152573,14.7275 75.5593736,14.9703571 C73.5255481,18.3964286 71.5686801,21.1389286 69.6876957,23.1978571 C67.8067114,25.2567857 66.5213423,26.5792857 64.7896197,26.7521429 C63.0575391,26.9253571 61.7617897,26.0925 61.7617897,26.0925 L61.7363758,26.1175 C62.4068009,25.3214286 63.0639821,24.3610714 63.7064877,23.2253571 C64.5465772,21.7310714 65.2374049,20.1639286 65.7789709,18.5239286 C66.3208949,16.8839286 66.5922148,15.6021429 66.5922148,14.6789286 C66.5922148,13.7432143 66.3731544,13.0235714 65.9343177,12.5196429 C65.4961969,12.0157143 64.8751678,11.7632143 64.0715884,11.7632143 C63.2314989,11.7632143 62.5496197,12.0671429 62.0263087,12.6746429 C61.5029978,13.2821429 61.2409843,14.0714286 61.2409843,15.0432143 C61.2409843,15.7239286 61.3716331,16.2707143 61.6336465,16.6832143 C61.895302,17.0964286 62.3004922,17.4003571 62.8485011,17.5946429 C62.3123043,19.8660714 61.4689933,21.8132143 60.3189262,23.4346429 C59.1681432,25.0564286 58.129396,25.8678571 57.2044743,25.8678571 C56.7914094,25.8678571 56.492528,25.7310714 56.3096197,25.4575 C56.1274273,25.1842857 56.0361521,24.7378571 56.0361521,24.1178571 C56.0361521,23.5835714 56.1395973,22.8971429 56.3461298,22.0589286 C56.5533781,21.2207143 56.8876957,20.1396429 57.3508725,18.8153571 C57.643311,17.9771429 57.9722595,17.1421429 58.3370022,16.31 C58.7028188,15.4778571 58.8850112,15.0314286 58.8850112,14.9703571 C58.8850112,14.6425 58.6412528,14.3753571 58.1544519,14.1685714 C57.6672931,13.9621429 57.046264,13.8589286 56.2917226,13.8589286 C55.7555257,13.8589286 55.3574944,13.9410714 55.095123,14.105 C54.8334676,14.2689286 54.6111857,14.5817857 54.4286353,15.0432143 C53.8326622,16.4528571 53.354094,17.8314286 52.9950783,19.1796429 C52.6360626,20.5282143 52.4016107,21.8039286 52.2920805,23.0064286 C51.5250112,23.845 50.8127069,24.4885714 50.1555257,24.9378571 C49.4976286,25.3875 48.9381655,25.6125 48.4753468,25.6125 C48.0973602,25.6125 47.8235347,25.4939286 47.6531544,25.2567857 C47.4824161,25.0203571 47.3975839,24.6403571 47.3975839,24.1178571 C47.3975839,23.3164286 47.5708277,22.3078571 47.9183893,21.0932143 C48.2652349,19.8785714 48.7552573,18.5725 49.3880984,17.1753571 C49.7778971,16.3010714 50.2468009,15.3835714 50.7948098,14.4239286 C51.3428188,13.4642857 51.6166443,12.8867857 51.6166443,12.6928571 C51.6166443,12.3403571 51.3635794,12.0489286 50.8585235,11.8182143 C50.3531096,11.5875 49.723132,11.4717857 48.9685906,11.4717857 C48.2741834,11.4717857 47.7931096,11.5717857 47.5253691,11.7725 C47.2572707,11.9728571 46.88,12.6196429 46.3928412,13.7132143 C45.4310515,15.815 44.6790157,17.765 44.1378076,19.5625 C43.5958837,21.3603571 43.3249217,22.7817857 43.3249217,23.8264286 C43.3249217,24.0817857 43.3492617,24.3642857 43.3979418,24.6739286 C43.4466219,24.9835714 43.5318121,25.3692857 43.6535123,25.8307143 C43.2153915,26.0253571 42.7404027,26.1771429 42.2292617,26.2864286 C41.7177629,26.3957143 41.1400447,26.4682143 40.4939597,26.5053571 L39.7637584,28.9653571 C40.7251902,28.9285714 41.6021477,28.8253571 42.3931991,28.655 C43.1849664,28.4857143 43.9395078,28.2425 44.658255,27.9260714 C45.0716779,28.3153571 45.4861745,28.5978571 45.8999553,28.7735714 C46.314094,28.9496429 46.7640268,29.0382143 47.2515436,29.0382143 C48.0304251,29.0382143 48.8068009,28.8160714 49.5799553,28.3732143 C50.3531096,27.9296429 51.2690828,27.1735714 52.3282327,26.1042857 C52.4993289,27.0639286 52.9245638,27.7928571 53.6068009,28.2910714 C54.289038,28.7889286 55.1957047,29.0382143 56.3282327,29.0382143 C57.7156152,29.0382143 59.0127964,28.5642857 60.2179866,27.6164286 C60.2179866,27.6164286 61.8455481,28.5228571 63.2418792,28.6621429 C64.6374944,28.8017857 64.9646532,28.8160714 66.701745,28.3821429 C67.5543624,28.0342857 68.0533333,27.7382143 68.6374944,27.2885714 C69.1976734,27.8357143 69.9038926,28.2639286 70.7561521,28.5735714 C71.6080537,28.8832143 72.5089933,29.0382143 73.4589709,29.0382143 C74.055302,29.0382143 74.6970917,28.9653571 75.3854139,28.8192857 C76.0726622,28.6739286 76.7885459,28.4485714 77.5312752,28.1453571 C78.6942282,27.5996429 79.255123,27.08 79.778434,26.4875 L79.778434,26.4875 Z M76.3719016,24.7739286 C75.7200895,25.6975 74.8220134,26.2742857 73.6783893,26.5053571 C73.470783,25.9707143 73.200179,25.5242857 72.8655034,25.1660714 C72.5301119,24.8075 72.1320805,24.5435714 71.6692617,24.3728571 C72.8017897,23.2071429 73.7990157,22.0289286 74.664519,20.8382143 C75.5289485,19.6478571 76.1982998,18.53 76.6732886,17.4853571 C76.9041611,18.2385714 77.0745414,18.9217857 77.1844295,19.535 C77.2939597,20.1489286 77.3487248,20.7289286 77.3487248,21.2753571 C77.3487248,22.685 77.0229978,23.8510714 76.3719016,24.7739286 L76.3719016,24.7739286 Z" id="Fill-3"></path>
                        <path d="M145.957584,1.41321429 C145.562416,0.9275 145.060224,0.684285714 144.451723,0.684285714 C143.538255,0.684285714 142.731812,1.13714286 142.031678,2.04178571 C141.331544,2.94678571 140.579508,4.58392857 139.775928,6.95285714 C138.814139,9.82 137.976913,12.72 137.264609,15.6539286 C136.552662,18.5875 135.995705,21.4335714 135.593736,24.1907143 C134.692796,24.9928571 133.882774,25.5789286 133.165101,25.9492857 C132.446711,26.32 131.770917,26.5053571 131.137718,26.5053571 L131.132707,26.5210714 C130.062461,26.4242857 129.37557,26.2828571 129.073826,26.095 C128.769217,25.9067857 128.616734,25.57 128.616734,25.0835714 C128.616734,24.3796429 128.820761,23.3739286 129.228814,22.0682143 C129.636868,20.7625 130.242864,19.1921429 131.046443,17.3575 C131.448054,16.4346429 131.910515,15.4625 132.434541,14.4421429 C132.957494,13.4217857 133.219508,12.8507143 133.219508,12.7292857 C133.219508,12.3403571 132.906309,12.0035714 132.279195,11.7178571 C131.652081,11.4325 130.9183,11.2896429 130.077852,11.2896429 C129.77396,11.2896429 129.541655,11.3564286 129.384519,11.49 C129.225951,11.6239286 129.06774,11.9396429 128.90953,12.4375 L128.65396,13.2575 C128.142819,12.7475 127.600537,12.3767857 127.028904,12.1460714 C126.455481,11.9153571 125.774318,11.8 124.982908,11.8 C123.400089,11.8 121.86953,12.2585714 120.389799,13.1757143 C118.910425,14.0928571 117.562058,15.4260714 116.34434,17.1753571 C115.552573,18.33 114.937987,19.505 114.499866,20.7014286 C114.061745,21.8978571 113.842685,23.0003571 113.842685,24.0089286 C113.842685,24.3246429 113.854139,24.6192857 113.878837,24.8925 C113.903535,25.1660714 113.940045,25.43 113.988725,25.685 C113.562774,25.9285714 112.505772,26.6967857 110.849933,26.7625 C110.091096,26.7935714 108.912036,26.3428571 108.177539,25.9664286 C108.843311,25.3153571 109.45217,24.5660714 110.003043,23.7171429 C111.183535,21.9071429 112.115615,19.9178571 112.797494,17.7492857 C113.479016,15.5810714 113.819776,13.5735714 113.819776,11.7267857 C113.819776,9.35821429 113.329396,7.39642857 112.350425,5.84107143 C111.370022,4.28642857 109.954362,3.24178571 108.104161,2.70678571 C108.444206,2.05071429 108.667204,1.60178571 108.770649,1.35857143 C108.873378,1.11571429 108.925996,0.939285714 108.925996,0.83 C108.925996,0.623571429 108.806801,0.465714286 108.569485,0.356428571 C108.33217,0.246785714 107.987472,0.192142857 107.537897,0.192142857 C106.81915,0.192142857 106.292975,0.253214286 105.9583,0.374285714 C105.62255,0.496071429 105.388814,0.696428571 105.254944,0.975714286 L104.743445,2.03285714 L104.068009,2.03285714 C101.876331,2.03285714 99.8761521,2.38821429 98.06783,3.09857143 C96.2602237,3.80964286 94.467651,4.95464286 92.6897539,6.53357143 C90.6323043,8.3925 88.9940045,10.5425 87.7770022,12.9842857 C86.5596421,15.4260714 85.950783,17.7707143 85.950783,20.0182143 C85.950783,20.9414286 86.1361969,21.6371429 86.5080984,22.1046429 C86.8789262,22.5725 87.4301566,22.8060714 88.1607159,22.8060714 C88.3912304,22.8060714 88.5923937,22.785 88.762774,22.7425 C88.9338702,22.7 89.0981655,22.6239286 89.2563758,22.5146429 C89.2442058,22.4660714 89.2381208,22.3989286 89.2381208,22.3142857 C89.2016107,21.8160714 89.1833557,21.4575 89.1833557,21.2389286 C89.1833557,19.3803571 89.7521253,17.3275 90.8914541,15.0796429 C92.0289933,12.8325 93.5663535,10.7732143 95.5024609,8.9025 C96.7685011,7.65142857 98.043132,6.69142857 99.3285011,6.02321429 C100.612796,5.35535714 101.802953,5.02107143 102.899329,5.02107143 L102.971991,5.02107143 C101.072394,8.37428571 99.2758837,12.3828571 97.5846085,17.0478571 C95.8915436,21.7128571 94.8331096,24.4946429 94.4068009,25.3939286 C93.882774,25.2842857 93.4138702,25.2053571 93.0000895,25.1571429 C92.5859508,25.1085714 92.184698,25.0835714 91.7948993,25.0835714 C90.4919911,25.0835714 89.4815213,25.3 88.762774,25.7310714 C88.0443848,26.1621429 87.6857271,26.7725 87.6857271,27.5621429 C87.6857271,28.2542857 87.9806711,28.7860714 88.5716331,29.1567857 C89.1618792,29.5271429 90.0109172,29.7121429 91.1191051,29.7121429 C92.0687248,29.7121429 92.9789709,29.5603571 93.8494855,29.2564286 C94.7196421,28.9528571 95.4960179,28.5217857 96.1778971,27.9632143 C97.0297987,28.3028571 97.858434,28.5553571 98.6620134,28.7192857 C99.4655928,28.8832143 100.244474,28.9653571 100.999374,28.9653571 C102.801253,28.9653571 104.478926,28.5125 106.03132,27.6075 C107.181029,28.5771429 109.434989,28.9657143 110.233557,28.9657143 C112.4417,28.9657143 114.237494,28.2182143 114.847069,27.89 C115.139508,28.2667857 115.543624,28.5525 116.061208,28.7464286 C116.578434,28.9403571 117.184787,29.0382143 117.878837,29.0382143 C119.339597,29.0382143 120.709441,28.5035714 121.988009,27.4342857 C123.266219,26.3657143 124.5566,24.6771429 125.859866,22.3685714 C125.518747,23.3410714 125.274989,24.1364286 125.129306,24.7557143 C124.982908,25.3753571 124.909888,25.8978571 124.909888,26.3228571 C124.909888,27.2828571 125.299329,27.9632143 126.078568,28.3639286 C126.85745,28.7646429 128.203311,28.9653571 130.115078,28.9653571 L130.443669,28.9653571 C131.417629,28.9167857 132.360805,28.6921429 133.274273,28.2910714 C134.18774,27.89 135.046085,27.3189286 135.849306,26.5782143 C136.068725,27.3917857 136.555526,27.9935714 137.310425,28.3821429 C138.065682,28.7710714 139.124832,28.9653571 140.488233,28.9653571 L140.908456,28.9653571 L141.620761,26.5053571 C140.853333,26.5053571 140.305682,26.3596429 139.977092,26.0678571 C139.648143,25.7764286 139.483848,25.3028571 139.483848,24.6464286 C139.483848,23.8203571 139.767338,22.15 140.333602,19.6353571 C140.89915,17.1207143 141.650828,14.3632143 142.588277,11.3625 C143.805996,9.85642857 144.771007,8.37142857 145.482953,6.90714286 C146.195615,5.44321429 146.551767,4.2375 146.551767,3.29 C146.551767,2.52464286 146.353826,1.89892857 145.957584,1.41321429 L145.957584,1.41321429 Z M105.638658,22.4782143 C104.883043,23.6325 104.012886,24.4978571 103.026756,25.0746429 C102.040626,25.6517857 100.938166,25.9403571 99.7211633,25.9403571 C99.513915,25.9403571 99.2619239,25.9310714 98.9630425,25.9132143 C98.664519,25.8946429 98.3208949,25.8678571 97.9314541,25.8307143 C99.3195526,23.45 100.874094,19.9178571 102.597584,15.2346429 C104.32,10.5514286 105.704519,7.22 106.752215,5.23964286 C107.775213,5.51964286 108.530112,6.02321429 109.016913,6.75214286 C109.503356,7.48107143 109.747472,8.45892857 109.747472,9.68607143 C109.747472,11.63 109.37557,13.7653571 108.633557,16.0910714 C107.891186,18.4175 106.891812,20.5464286 105.638658,22.4782143 L105.638658,22.4782143 Z M123.266219,23.28 C121.841611,25.0535714 120.532975,25.9403571 119.339597,25.9403571 C118.913289,25.9403571 118.596868,25.7975 118.389978,25.5121429 C118.182729,25.2267857 118.079642,24.7860714 118.079642,24.1907143 C118.079642,23.365 118.308009,22.4025 118.764385,21.3028571 C119.220761,20.2032143 119.838568,19.1617857 120.618166,18.1778571 C121.470067,17.1085714 122.362058,16.2642857 123.293781,15.6446429 C124.225145,15.0253571 125.049485,14.7153571 125.768233,14.7153571 C126.096823,14.7153571 126.422908,14.7764286 126.745414,14.8975 C127.067562,15.0189286 127.393647,15.2075 127.722237,15.4625 C126.176286,18.9003571 124.690828,21.5064286 123.266219,23.28 L123.266219,23.28 Z" id="Fill-4"></path>
                        <path d="M155.600895,20.6103571 C156.65396,18.8792857 157.18085,17.2967857 157.18085,15.8635714 C157.18085,14.5514286 156.812528,13.5157143 156.075884,12.7564286 C155.339239,11.9975 154.337718,11.6175 153.071678,11.6175 C150.806264,11.6175 148.843311,12.5167857 147.182103,14.3146429 C145.519821,16.1125 144.68868,18.2260714 144.68868,20.6557143 C144.68868,21.7010714 144.79821,22.6121429 145.017629,23.3889286 C145.236331,24.1664286 145.57745,24.8592857 146.040626,25.4664286 C145.370559,25.7582143 144.679374,25.9892857 143.967427,26.1589286 C143.255481,26.3296429 142.479463,26.4446429 141.639016,26.5053571 L140.908456,28.9653571 C142.113647,28.9167857 143.309888,28.7403571 144.496823,28.4367857 C145.684116,28.1332143 146.868188,27.7017857 148.049396,27.1428571 C148.803937,27.7621429 149.69915,28.2214286 150.733602,28.5189286 C151.76877,28.8160714 152.481074,29.0610714 154.331633,28.9653571 C156.182192,28.8692857 157.949351,28.3342857 159.832483,26.6664286 C159.821387,24.6428571 159.832483,24.345 159.832483,24.345 C158.344519,25.8482143 156.823266,26.4732143 155.280895,26.5053571 C154.156957,26.5285714 153.665503,26.405 153.062371,26.2046429 C152.459955,26.0039286 151.90264,25.6667857 151.391141,25.1932143 C153.144698,23.8692857 154.548188,22.3414286 155.600895,20.6103571 L155.600895,20.6103571 Z M149.93038,23.2978571 C149.625772,22.9457143 149.406353,22.5539286 149.272483,22.1225 C149.138613,21.6917857 149.072036,21.1782143 149.072036,20.5832143 C149.072036,19.0160714 149.461834,17.64 150.240716,16.4557143 C151.019597,15.2710714 151.91481,14.6789286 152.92528,14.6789286 C153.412438,14.6789286 153.783982,14.8157143 154.039553,15.0889286 C154.295123,15.3621429 154.422908,15.7603571 154.422908,16.2825 C154.422908,17.3275 153.990872,18.5510714 153.126085,19.9542857 C152.262013,21.3575 151.196421,22.4721429 149.93038,23.2978571 L149.93038,23.2978571 Z" id="Fill-5"></path>
                    </g>
                </g>
            </g>
        </g>
    </g>
</svg>