<?xml version="1.0" encoding="UTF-8" standalone="no"?>
<svg width="174px" height="59px" viewBox="0 0 174 59" version="1.1" xmlns="http://www.w3.org/2000/svg" xmlns:xlink="http://www.w3.org/1999/xlink" xmlns:sketch="http://www.bohemiancoding.com/sketch/ns">
    <!-- Generator: Sketch 3.2.2 (9983) - http://www.bohemiancoding.com/sketch -->
    <title>6</title>
    <desc>Created with Sketch.</desc>
    <defs></defs>
    <g id="Page-1" stroke="none" stroke-width="1" fill="none" fill-rule="evenodd" sketch:type="MSPage">
        <g id="Партнёры" sketch:type="MSArtboardGroup" transform="translate(-760.000000, -1087.000000)">
            <g id="2_block" sketch:type="MSLayerGroup" transform="translate(469.000000, 142.000000)">
                <g id="3" transform="translate(0.000000, 717.000000)" sketch:type="MSShapeGroup">
                    <g id="6" transform="translate(291.000000, 228.000000)">
                        <path d="M12.272288,39.3530977 C9.95647668,33.5539802 7.71743693,24.5287271 25.0369516,13.4417593 C24.8161343,12.2075841 24.693458,10.9377391 24.693458,9.63935822 C24.693458,9.33497589 24.703747,9.03376421 24.7164104,8.73175987 C20.1647251,11.2334021 11.9834052,16.2303454 9.17055711,21.1892408 C5.19268019,28.2003389 5.6707219,35.3699696 10.2042036,40.3891073 C14.7384768,45.4074524 24.2850648,52.1799593 24.2850648,52.1799593 C24.2850648,52.1799593 14.6593308,45.3289789 12.272288,39.3530977" id="Fill-2" fill="#984CBB"></path>
                        <path d="M6.59277256,35.3541163 C3.05890458,26.608673 5.77756897,20.3934078 12.1377399,14.6180702 C15.924875,11.1787084 21.3115503,7.87647723 25.0504064,5.76799548 C25.412895,3.79030301 26.0468543,1.90852268 26.9150857,0.1622876 C19.448454,3.60719801 6.44397812,10.6222595 1.97302175,19.4025799 C-4.44255134,31.9979841 10.1258491,43.3837856 16.8675036,47.5095929 C21.1065623,50.1039767 23.1524858,51.3270546 24.0871998,51.8771623 C21.1033964,50.1087326 9.65730488,42.939102 6.59277256,35.3541163" id="Fill-3" fill="#984CBB"></path>
                        <path d="M23.335313,19.1893538 C25.6511244,24.9868859 27.8901641,34.0129317 10.5706495,45.0998995 C10.7922582,46.3348674 10.914143,47.6039197 10.914143,48.9015079 C10.914143,49.2066829 10.9038541,49.5086873 10.8911907,49.8098989 C15.442876,47.3082567 23.6249873,42.3113135 26.437044,37.3532107 C30.4149209,30.3421125 29.9376706,23.1724819 25.402606,18.1525515 C20.8691243,13.1342064 11.3225363,6.36169955 11.3225363,6.36169955 C11.3225363,6.36169955 20.9482703,13.2134726 23.335313,19.1893538" id="Fill-4" fill="#984CBB"></path>
                        <path d="M10.8919822,6.29828657 C10.8302483,6.26261676 10.8033387,6.24755618 10.8033387,6.24755618 C10.8033387,6.24755618 10.8342056,6.26499475 10.8919822,6.29828657" id="Fill-5" fill="#984CBB"></path>
                        <path d="M29.0148285,23.1883351 C32.5486965,31.9337784 29.8300321,38.1490436 23.4698612,43.9243813 C19.6827261,47.3629504 14.2968422,50.6643889 10.5579861,52.7736633 C10.1947061,54.7521485 9.56074679,56.6331361 8.69251539,58.3793712 C16.1591471,54.9352535 29.163623,47.9193993 33.6337879,39.1390789 C40.0501524,26.5436747 25.481752,15.1578732 18.739306,11.0328586 C14.5010388,8.43768215 12.4551153,7.21618953 11.5204012,6.66449656 C14.5042047,8.43371884 25.9502962,15.6033495 29.0148285,23.1883351" id="Fill-6" fill="#984CBB"></path>
                        <path d="M11.5204012,6.66449656 C11.2196465,6.48614754 11.0043695,6.36169955 10.8919822,6.29749391 C10.9901232,6.35535825 11.1832394,6.46553832 11.5204012,6.66449656" id="Fill-7" fill="#984CBB"></path>
                        <path d="M47.1589964,31.1413243 C47.1589964,29.6297173 47.5293996,28.1965838 48.2702059,26.8427166 C49.0118038,25.4904347 50.050199,24.4036946 51.3877661,23.5832891 C52.7245417,22.764469 54.20378,22.3625892 55.8231067,22.3768571 C57.4733004,22.393503 58.9525388,22.8072727 60.2584474,23.6205443 C61.5651475,24.4314378 62.5885051,25.5110439 63.3301029,26.8553992 C64.0709093,28.2005471 64.4421039,29.6297173 64.4421039,31.1413243 C64.4421039,32.6386634 64.0709093,34.055151 63.3301029,35.3923723 C62.5885051,36.7295936 61.5611903,37.8036511 60.247367,38.6161299 C58.9327523,39.4278161 57.4582627,39.8344519 55.8231067,39.8344519 C54.1570839,39.8344519 52.6628078,39.4278161 51.3418614,38.6161299 C50.0201235,37.8036511 48.9928087,36.7295936 48.2591255,35.3923723 C47.5262337,34.055151 47.1589964,32.6386634 47.1589964,31.1413243 M49.588778,31.1413243 C49.588778,32.9882275 50.1657521,34.5450163 51.3197005,35.8101053 C52.4728574,37.0751944 53.9663421,37.7085316 55.8001544,37.7085316 C56.6857979,37.7085316 57.5199965,37.5373165 58.298793,37.1956791 C59.0783809,36.8532489 59.7384583,36.3832002 60.2813998,35.7855328 C60.8235497,35.1894507 61.2477722,34.4895299 61.5532757,33.6849777 C61.8587791,32.8804254 62.0123223,32.0330694 62.0123223,31.1413243 C62.0123223,29.8841619 61.7408516,28.7498621 61.1979102,27.738425 C60.6557602,26.7293659 59.9070393,25.9367036 58.9525388,25.362816 C57.9972468,24.7889285 56.9461882,24.5027774 55.8001544,24.5027774 C54.6390829,24.5027774 53.584067,24.7889285 52.6374811,25.362816 C51.6893122,25.9367036 50.9445486,26.7325365 50.4023986,27.7511076 C49.8594572,28.7696787 49.588778,29.9000151 49.588778,31.1413243" id="Fill-8" fill="#FFFFFF"></path>
                        <path d="M67.9379818,36.2516182 C69.2890037,37.2234222 70.7437068,37.7085316 72.3020911,37.7085316 C73.1758627,37.7085316 73.8675986,37.4905494 74.3772987,37.0514145 C74.8846244,36.6138649 75.1545122,36.0130269 75.1869621,35.2489004 C75.2035827,34.2937423 74.6622242,33.4574836 73.5652609,32.7417095 C72.8980603,32.3271471 72.0709848,31.8975242 71.0864089,31.4520479 C69.9886541,30.8630998 69.1030106,30.2345186 68.427104,29.5655116 C67.7511973,28.8965046 67.4456938,27.9651264 67.5090106,26.771377 C67.5572896,25.5617743 68.0337484,24.5265573 68.9399699,23.6665187 C69.8453999,22.8072727 71.1251904,22.3768571 72.7793414,22.3768571 C73.7172212,22.3768571 74.5625003,22.4846592 75.3183444,22.6994707 C76.0726056,22.9142822 76.6179214,23.118789 76.9519174,23.3082353 L75.9024417,25.3144636 C74.9004536,24.7738679 73.8675986,24.5027774 72.8022937,24.5027774 C71.9119014,24.5027774 71.2367862,24.7255155 70.7753652,25.1717844 C70.3147356,25.6172606 70.0678001,26.1190159 70.0361417,26.6754648 C70.0203125,27.2009999 70.1793959,27.6591588 70.513392,28.048356 C70.8481795,28.4399311 71.2613215,28.7815686 71.752818,29.076439 C72.2458975,29.3705167 72.8893543,29.7081908 73.6855628,30.0902541 C74.9732679,30.7751143 75.7908459,31.2689429 76.1414626,31.5709473 C76.5704338,31.921304 76.9432113,32.4032427 77.2621696,33.0159707 C77.579545,33.6294913 77.7299224,34.3809352 77.7148846,35.2726803 C77.6666056,36.6741073 77.1339531,37.7838345 76.1169273,38.6034473 C75.09911,39.4238528 73.8034903,39.8336592 72.2300683,39.8336592 C70.3867584,39.8336592 68.6138885,39.3089168 66.9130414,38.2578466 L67.9379818,36.2516182" id="Fill-9" fill="#FFFFFF"></path>
                        <path d="M93.0272573,35.5136496 L94.6093854,36.8270911 C93.0193427,38.8317341 90.9868739,39.8360372 88.5111877,39.8360372 C87.1823267,39.8360372 86.0085918,39.5974459 84.9939404,39.1202632 C83.9761231,38.6422878 83.0983941,37.9653542 82.3583792,37.0894623 C81.61599,36.2143631 81.0619681,35.2267059 80.6955222,34.1288686 C80.3290763,33.0302386 80.1676185,31.8999021 80.2151061,30.7370665 C80.2602193,29.1461933 80.679693,27.6979992 81.4743187,26.3916917 C82.2697357,25.0861769 83.3310833,24.0794958 84.6615272,23.3708556 C85.9895968,22.6630082 87.4569632,22.3316754 89.0620437,22.3800278 C90.9108938,22.459294 92.5840398,23.2242131 94.0822732,24.6716145 L92.4993536,26.2490125 C91.5978809,25.1495899 90.3837815,24.5677757 88.8562641,24.5043628 C87.8629821,24.456803 86.8989841,24.6763705 85.9674359,25.1606872 C85.0343048,25.6481745 84.2642144,26.3718752 83.6516245,27.3357525 C83.0406176,28.2972519 82.7050386,29.4648435 82.6433048,30.8329787 C82.5831538,32.0909338 82.7818102,33.2379161 83.2400655,34.2715478 C83.6975292,35.3067648 84.3591896,36.1263776 85.2234637,36.7319716 C86.0861549,37.3367729 87.0754796,37.6633498 88.1914379,37.7101169 C90.1012304,37.8385282 91.7126425,37.1061082 93.0272573,35.5136496" id="Fill-10" fill="#FFFFFF"></path>
                        <path d="M95.9730706,30.5381083 C95.9730706,29.4046012 96.2627449,28.3297511 96.841302,27.3143507 C97.4190677,26.2989502 98.2303139,25.484886 99.2734579,24.8697801 C100.31581,24.2554668 101.469759,23.9534624 102.732929,23.9653524 C104.019842,23.978035 105.173791,24.2879659 106.193191,24.8967306 C107.212591,25.5062879 108.011966,26.3148035 108.590523,27.3238626 C109.168288,28.3329217 109.457171,29.4046012 109.457171,30.5381083 C109.457171,31.6605181 109.168288,32.7234783 108.590523,33.7261961 C108.011966,34.7289139 107.210217,35.5350515 106.185276,36.1446088 C105.159544,36.7533735 104.009553,37.0577558 102.732929,37.0577558 C101.434143,37.0577558 100.268323,36.7533735 99.2370508,36.1446088 C98.2057787,35.5350515 97.4048214,34.7289139 96.831013,33.7261961 C96.2595791,32.7234783 95.9730706,31.6605181 95.9730706,30.5381083 M97.8694083,30.5381083 C97.8694083,31.9228893 98.3197489,33.0904809 99.2196387,34.0392977 C100.119528,34.9889072 101.284557,35.4637119 102.715517,35.4637119 C103.407252,35.4637119 104.057041,35.3353006 104.664882,35.078478 C105.271932,34.8224481 105.788755,34.4697134 106.212186,34.0226518 C106.634825,33.5740049 106.965656,33.0484698 107.204677,32.4460465 C107.442114,31.8436231 107.561625,31.2071153 107.561625,30.5381083 C107.561625,29.5964255 107.349514,28.7451061 106.926874,27.9865283 C106.504235,27.2287431 105.920137,26.6342464 105.173791,26.2046234 C104.429819,25.7742078 103.609866,25.560189 102.715517,25.560189 C101.809295,25.560189 100.986177,25.7742078 100.248536,26.2046234 C99.5085215,26.6342464 98.92759,27.2311211 98.504159,27.9952476 C98.080728,28.7593741 97.8694083,29.6075227 97.8694083,30.5381083" id="Fill-11" fill="#FFFFFF"></path>
                        <path d="M118.756032,33.0992002 L122.81543,23.9653524 L126.553494,36.7890433 L124.747383,36.7890433 L122.45769,28.8013852 L118.756032,37.0577558 L115.055166,28.8013852 L112.748061,36.7890433 L110.959362,36.7890433 L114.714839,23.9653524 L118.756032,33.0992002" id="Fill-12" fill="#FFFFFF"></path>
                        <path d="M130.093694,31.6850907 L130.093694,36.7890433 L128.287583,36.7890433 L128.287583,24.2340649 L132.239341,24.2340649 C133.228666,24.2340649 134.171295,24.4607663 135.065644,24.9149618 C135.959994,25.3683647 136.406377,26.3901064 136.406377,27.9786017 C136.430121,28.9202845 136.156276,29.7747745 135.584842,30.5381083 C135.011825,31.3022348 133.932274,31.6850907 132.34698,31.6850907 L130.093694,31.6850907 L130.093694,31.6850907 Z M130.093694,30.1084853 L132.043059,30.1084853 C133.735992,30.1084853 134.570982,29.37448 134.547238,27.9056767 C134.475215,26.5082131 133.605401,25.8106702 131.936212,25.8106702 L130.093694,25.8106702 L130.093694,30.1084853 L130.093694,30.1084853 Z" id="Fill-13" fill="#FFFFFF"></path>
                        <path d="M139.696475,33.4218138 L138.105641,36.7890433 L136.156276,36.7890433 L142.325705,23.9653524 L148.47693,36.7890433 L146.54656,36.7890433 L144.918527,33.4218138 L139.696475,33.4218138 L139.696475,33.4218138 Z M140.358136,31.8277699 L144.310686,31.8277699 L142.325705,27.9786017 L140.358136,31.8277699 L140.358136,31.8277699 Z" id="Fill-14" fill="#FFFFFF"></path>
                        <path d="M151.820848,27.9413465 L151.820848,36.7890433 L150.211019,36.7890433 L150.211019,23.9653524 L158.814187,33.0278606 L158.814187,24.2340649 L160.368614,24.2340649 L160.368614,37.0577558 L151.820848,27.9413465" id="Fill-15" fill="#FFFFFF"></path>
                        <path d="M166.431987,32.6870158 L161.907212,24.2340649 L163.837582,24.2340649 L167.343749,31.0041937 L170.812717,24.2340649 L172.762083,24.2340649 L168.237307,32.6870158 L168.237307,36.7890433 L166.431987,36.7890433 L166.431987,32.6870158" id="Fill-16" fill="#FFFFFF"></path>
                        <path d="M147.45753,18.7171352 C147.45753,18.7639023 147.454364,18.8027427 147.449616,18.8336566 C147.444867,18.8661557 147.438535,18.8923136 147.427455,18.9137155 C147.417166,18.93591 147.404502,18.9517633 147.389465,18.9636532 C147.374427,18.9731651 147.356223,18.9779211 147.335645,18.9779211 L145.345915,18.9779211 C145.292888,18.9779211 145.242234,18.9604825 145.194747,18.9248127 C145.147259,18.8883503 145.123515,18.8257299 145.123515,18.7345738 L145.123515,14.5612067 C145.123515,14.5421828 145.128264,14.5263296 145.13697,14.5128543 C145.146468,14.4985864 145.163088,14.4874891 145.186041,14.4787698 C145.208993,14.4724285 145.23986,14.4645019 145.279433,14.4581606 C145.319006,14.452612 145.366493,14.4494413 145.422687,14.4494413 C145.480464,14.4494413 145.52716,14.452612 145.566733,14.4581606 C145.604723,14.4645019 145.63559,14.4724285 145.659334,14.4787698 C145.682286,14.4874891 145.698115,14.4985864 145.707613,14.5128543 C145.71711,14.5263296 145.721859,14.5421828 145.721859,14.5612067 L145.721859,18.4587273 L147.335645,18.4587273 C147.356223,18.4587273 147.374427,18.4650686 147.389465,18.4745805 C147.404502,18.4848851 147.417166,18.5007384 147.427455,18.5197623 C147.438535,18.5395788 147.444867,18.567322 147.449616,18.5982359 C147.454364,18.6323203 147.45753,18.6711608 147.45753,18.7171352" id="Fill-17" fill="#984CBB"></path>
                        <path d="M150.722302,17.1880896 C150.722302,17.2784531 150.700141,17.3426588 150.654236,17.3814992 C150.609123,17.419547 150.557678,17.4385709 150.49911,17.4385709 L148.437357,17.4385709 C148.437357,17.6129566 148.455561,17.7699037 148.490385,17.9094123 C148.525209,18.0489209 148.582986,18.1678202 148.664506,18.2676957 C148.746027,18.3675711 148.852874,18.4444594 148.982673,18.4975677 C149.113264,18.5514688 149.272347,18.5776266 149.461506,18.5776266 C149.611092,18.5776266 149.744058,18.5657367 149.859611,18.5411642 C149.976747,18.5173843 150.077262,18.4896411 150.161948,18.4587273 C150.247426,18.4293988 150.317074,18.4016556 150.372477,18.3778757 C150.426296,18.3533032 150.468243,18.3414133 150.495944,18.3414133 C150.512565,18.3414133 150.526811,18.3453766 150.540266,18.3533032 C150.552138,18.3612298 150.562427,18.3739124 150.56955,18.388973 C150.575882,18.4064116 150.581422,18.4278135 150.585379,18.457142 C150.588545,18.4864705 150.590128,18.5221403 150.590128,18.5641514 C150.590128,18.5934799 150.589337,18.6196377 150.586962,18.6426249 C150.584588,18.6640268 150.581422,18.6846361 150.578256,18.701282 C150.574299,18.7187205 150.56955,18.7345738 150.560844,18.748049 C150.552929,18.762317 150.541849,18.7757922 150.529977,18.7884748 C150.516522,18.8011574 150.479324,18.820974 150.416007,18.8503025 C150.354273,18.879631 150.272753,18.9081668 150.17382,18.9367027 C150.073305,18.9644458 149.957752,18.9882257 149.827161,19.0112129 C149.695778,19.0334075 149.55569,19.0437121 149.408479,19.0437121 C149.150463,19.0437121 148.924897,19.0080423 148.730989,18.9367027 C148.537873,18.8645704 148.374832,18.757561 148.242658,18.6164671 C148.110484,18.4745805 148.010761,18.2962315 147.943486,18.0822127 C147.876212,17.8689865 147.84218,17.6208832 147.84218,17.3379028 C147.84218,17.0683976 147.877795,16.8266356 147.947444,16.6102388 C148.017092,16.3970126 148.116816,16.2139076 148.248199,16.0648871 C148.378789,15.9134886 148.537081,15.8001379 148.723074,15.7184937 C148.908276,15.6392274 149.11643,15.5995943 149.345162,15.5995943 C149.590514,15.5995943 149.79946,15.6384348 149.973581,15.7169084 C150.145328,15.7969672 150.28779,15.903184 150.399386,16.0371439 C150.510191,16.1703112 150.592502,16.3272583 150.643947,16.5064 C150.696975,16.687127 150.722302,16.8781586 150.722302,17.0834582 L150.722302,17.1880896 L150.722302,17.1880896 Z M150.145328,17.0176672 C150.151659,16.7156629 150.085177,16.4786568 149.944297,16.3066491 C149.803417,16.1346414 149.59368,16.0482412 149.315878,16.0482412 C149.172624,16.0482412 149.049156,16.0759844 148.941517,16.1290928 C148.833879,16.1814085 148.743652,16.2535407 148.671629,16.3407336 C148.599607,16.4303044 148.543413,16.5325579 148.50384,16.6498719 C148.464267,16.7663933 148.442106,16.8900486 148.437357,17.0176672 L150.145328,17.0176672 L150.145328,17.0176672 Z" id="Fill-18" fill="#984CBB"></path>
                        <path d="M153.184533,18.6616488 C153.184533,18.7290251 153.179784,18.7821335 153.171078,18.820974 C153.161581,18.8613997 153.147335,18.8899356 153.129131,18.9089595 C153.110927,18.9271907 153.082435,18.9446293 153.046028,18.9604825 C153.008829,18.9771284 152.966882,18.9906037 152.918603,19.0009083 C152.871907,19.0112129 152.820462,19.0199322 152.767434,19.0270662 C152.714406,19.0349928 152.660587,19.0381634 152.608351,19.0381634 C152.44531,19.0381634 152.306013,19.0159689 152.19046,18.9731651 C152.074115,18.9303614 151.97914,18.8653631 151.904743,18.7773775 C151.830346,18.6909773 151.777318,18.579212 151.743285,18.4460447 C151.710044,18.3136701 151.692632,18.1551376 151.692632,17.9752033 L151.692632,16.142568 L151.255746,16.142568 C151.22013,16.142568 151.192429,16.1243368 151.17106,16.0870817 C151.150482,16.0498265 151.139401,15.9895842 151.139401,15.905562 C151.139401,15.8627582 151.142567,15.8247104 151.148899,15.7945893 C151.154439,15.7652608 151.162353,15.7383102 151.17106,15.7192863 C151.180557,15.7002624 151.19322,15.6859945 151.207467,15.6764826 C151.223296,15.6709339 151.239125,15.666178 151.258912,15.666178 L151.692632,15.666178 L151.692632,14.9194901 C151.692632,14.9044295 151.696589,14.8885762 151.705295,14.875101 C151.713209,14.8608331 151.728247,14.8481505 151.7512,14.8394312 C151.772569,14.8275412 151.801853,14.8204073 151.839052,14.8156513 C151.87625,14.811688 151.922946,14.8085173 151.978349,14.8085173 C152.036125,14.8085173 152.083613,14.811688 152.120811,14.8156513 C152.157218,14.8204073 152.187294,14.8275412 152.207872,14.8394312 C152.22845,14.8481505 152.243488,14.8608331 152.252985,14.875101 C152.261691,14.8885762 152.26644,14.9044295 152.26644,14.9194901 L152.26644,15.666178 L153.070563,15.666178 C153.088767,15.666178 153.105387,15.6709339 153.118842,15.6764826 C153.133088,15.6859945 153.145752,15.7002624 153.155249,15.7192863 C153.16633,15.7383102 153.173453,15.7652608 153.178993,15.7945893 C153.182159,15.8247104 153.184533,15.8627582 153.184533,15.905562 C153.184533,15.9895842 153.175036,16.0498265 153.153666,16.0870817 C153.133088,16.1243368 153.105387,16.142568 153.070563,16.142568 L152.26644,16.142568 L152.26644,17.8903884 C152.26644,18.1075779 152.29889,18.2708663 152.362207,18.3810464 C152.426315,18.4912264 152.540285,18.5451275 152.706492,18.5451275 C152.757936,18.5451275 152.806215,18.5411642 152.847371,18.5308596 C152.889319,18.5189696 152.926517,18.5102503 152.958967,18.4975677 C152.991417,18.4848851 153.019118,18.4761659 153.042862,18.4642759 C153.065814,18.4539713 153.086392,18.44763 153.105387,18.44763 C153.116468,18.44763 153.127548,18.4508007 153.138629,18.457142 C153.148126,18.4634833 153.156832,18.4745805 153.162372,18.4904338 C153.168704,18.5070797 153.173453,18.5284816 153.178993,18.5562248 C153.182159,18.5839679 153.184533,18.6196377 153.184533,18.6616488" id="Fill-19" fill="#984CBB"></path>
                        <path d="M154.949489,14.386821 C154.949489,14.4589533 154.946323,14.5247442 154.938408,14.5834012 C154.932076,14.6436436 154.920205,14.6999226 154.904375,14.7546163 C154.887755,14.80931 154.867177,14.8624184 154.839476,14.9147341 C154.813357,14.9662571 154.779325,15.0209508 154.740543,15.0772299 L154.264876,15.7945893 C154.252212,15.8104425 154.239549,15.8255031 154.224511,15.8389783 C154.208682,15.8532463 154.190479,15.8643435 154.169109,15.8722702 C154.146948,15.8809894 154.12083,15.8873307 154.091546,15.8905014 C154.063845,15.893672 154.025855,15.8952574 153.982325,15.8952574 C153.942752,15.8952574 153.910302,15.893672 153.882601,15.8905014 C153.856483,15.8873307 153.836696,15.8809894 153.825616,15.8722702 C153.813744,15.8643435 153.807412,15.8532463 153.805829,15.8389783 C153.805038,15.8255031 153.808995,15.8080645 153.818493,15.788248 L154.281497,14.8299192 L154.281497,14.386821 C154.281497,14.3265787 154.287828,14.2774336 154.2997,14.2401785 C154.313946,14.2045087 154.333733,14.1751802 154.362225,14.1529856 C154.389926,14.133169 154.423959,14.1189011 154.465907,14.1117672 C154.507063,14.1054259 154.558507,14.1022552 154.618658,14.1022552 C154.677226,14.1022552 154.727088,14.1054259 154.768244,14.1117672 C154.810192,14.1189011 154.844224,14.133169 154.870343,14.1529856 C154.898044,14.1751802 154.917039,14.2045087 154.930494,14.2401785 C154.943157,14.2774336 154.949489,14.3265787 154.949489,14.386821" id="Fill-20" fill="#984CBB"></path>
                        <path d="M157.498781,18.0378236 C157.498781,18.1979414 157.468705,18.3414133 157.410137,18.4666539 C157.351569,18.5918946 157.266883,18.6973186 157.158453,18.7821335 C157.04844,18.8693264 156.918641,18.9343247 156.769055,18.9787138 C156.617094,19.0223102 156.451679,19.0437121 156.271226,19.0437121 C156.159631,19.0437121 156.052784,19.0365781 155.952268,19.0175542 C155.851753,19.0009083 155.760735,18.9787138 155.68238,18.9509706 C155.601651,18.9256054 155.533586,18.8978622 155.478184,18.8685337 C155.42199,18.8399979 155.382417,18.8130473 155.356299,18.7900601 C155.330972,18.7670729 155.312769,18.7345738 155.300105,18.6925627 C155.289025,18.6505516 155.283485,18.5942725 155.283485,18.5221403 C155.283485,18.4793365 155.285068,18.4420814 155.290608,18.4111676 C155.293774,18.3810464 155.300105,18.3548885 155.30802,18.33745 C155.314352,18.3176334 155.324641,18.3057435 155.337304,18.2970242 C155.349967,18.2883049 155.363422,18.2851342 155.380834,18.2851342 C155.405369,18.2851342 155.444151,18.3009875 155.493221,18.3319013 C155.543083,18.3636078 155.604817,18.3976923 155.677632,18.4349474 C155.751237,18.4722026 155.836715,18.506287 155.93723,18.5379935 C156.036163,18.5689074 156.151716,18.5839679 156.281515,18.5839679 C156.378865,18.5839679 156.467508,18.5752487 156.545863,18.5530541 C156.625009,18.5324449 156.693074,18.5015311 156.751643,18.4611053 C156.808628,18.4198868 156.853741,18.3691565 156.884608,18.3057435 C156.915475,18.2439158 156.932887,18.1694055 156.932887,18.0822127 C156.932887,17.9942272 156.909143,17.9213022 156.864821,17.8594746 C156.818125,17.8000249 156.759557,17.7469165 156.68516,17.7001495 C156.610763,17.6533824 156.527659,17.6121639 156.435059,17.5764941 C156.342458,17.5400317 156.246691,17.5027765 156.146967,17.4631434 C156.048035,17.424303 155.952268,17.3791212 155.858084,17.3283908 C155.765484,17.2792458 155.680797,17.2182108 155.6064,17.1460785 C155.532003,17.0739462 155.473435,16.9883387 155.426739,16.8884632 C155.382417,16.7885878 155.360256,16.6688958 155.360256,16.5301799 C155.360256,16.4057319 155.384,16.2884179 155.431488,16.1750672 C155.478184,16.0640944 155.549415,15.9650117 155.645182,15.8794041 C155.739365,15.7953819 155.858084,15.727213 156.00213,15.6764826 C156.144593,15.6249595 156.310008,15.5995943 156.501541,15.5995943 C156.584645,15.5995943 156.668539,15.6067283 156.751643,15.6202035 C156.835537,15.6352641 156.909143,15.65191 156.977209,15.6717266 C157.043691,15.6939211 157.101468,15.715323 157.148955,15.7398956 C157.197234,15.7652608 157.23285,15.7866626 157.257385,15.8048939 C157.281921,15.8239178 157.29775,15.8389783 157.304873,15.8532463 C157.31437,15.8675142 157.319119,15.8833674 157.323868,15.9015987 C157.327034,15.9182446 157.3302,15.9396465 157.332574,15.9650117 C157.337323,15.9911695 157.338906,16.0220833 157.338906,16.0593385 C157.338906,16.0997642 157.337323,16.1338487 157.332574,16.1631772 C157.3302,16.1909204 157.323868,16.2147003 157.317536,16.2337242 C157.308039,16.2519554 157.29775,16.2654307 157.286669,16.2725646 C157.274006,16.2812839 157.262134,16.2852472 157.247888,16.2852472 C157.228101,16.2852472 157.197234,16.2725646 157.158453,16.2471994 C157.119671,16.2218342 157.067435,16.1948837 157.00491,16.1663479 C156.941593,16.1362267 156.86957,16.1084835 156.784092,16.083911 C156.699406,16.0585458 156.602057,16.0450705 156.493627,16.0450705 C156.396277,16.0450705 156.310008,16.0561678 156.237194,16.0775697 C156.162796,16.1005569 156.101063,16.1322634 156.052784,16.1718965 C156.006879,16.213115 155.96968,16.26226 155.946728,16.3169537 C155.921401,16.3716474 155.909529,16.4334751 155.909529,16.4984734 C155.909529,16.5888369 155.932482,16.6641398 155.979178,16.7267601 C156.025082,16.7877951 156.085233,16.8416962 156.159631,16.8884632 C156.234028,16.933645 156.318714,16.9764488 156.412898,17.0137039 C156.508664,17.050959 156.605222,17.0905921 156.704155,17.1286399 C156.803087,17.1674804 156.900437,17.2126621 156.996204,17.2602219 C157.09197,17.3101596 157.176656,17.3688166 157.252637,17.4385709 C157.325451,17.5083252 157.385602,17.5915547 157.430715,17.6890522 C157.47662,17.7865497 157.498781,17.903071 157.498781,18.0378236" id="Fill-21" fill="#984CBB"></path>
                        <path d="M162.610028,18.8907283 C162.610028,18.9105448 162.607654,18.9263981 162.599739,18.940666 C162.591824,18.9541412 162.57837,18.9652385 162.557792,18.9731651 C162.538005,18.9818844 162.511095,18.9866404 162.479437,18.992189 C162.446196,18.996945 162.408206,18.999323 162.36151,18.999323 C162.312439,18.999323 162.272075,18.996945 162.239625,18.992189 C162.207175,18.9866404 162.181057,18.9818844 162.158896,18.9731651 C162.139109,18.9652385 162.12328,18.9541412 162.114574,18.940666 C162.105077,18.9263981 162.100328,18.9105448 162.100328,18.8907283 L162.100328,18.4769585 C161.934913,18.6553075 161.764749,18.7948161 161.58667,18.8946916 C161.409383,18.994567 161.216267,19.0437121 161.004156,19.0437121 C160.775424,19.0437121 160.579142,19.0001157 160.416893,18.9105448 C160.254644,18.820974 160.123261,18.7004893 160.022746,18.5482981 C159.920648,18.396107 159.847833,18.2169653 159.801929,18.0116657 C159.755232,17.8063662 159.73228,17.5899694 159.73228,17.3624753 C159.73228,17.0929701 159.759981,16.8496228 159.818549,16.6316407 C159.875534,16.4152438 159.962595,16.2297609 160.076565,16.0759844 C160.189744,15.9230006 160.330624,15.8048939 160.499205,15.7232496 C160.665411,15.6408128 160.860902,15.5995943 161.081719,15.5995943 C161.263755,15.5995943 161.432336,15.6392274 161.584296,15.7184937 C161.735465,15.8001379 161.885842,15.9166593 162.033845,16.0728137 L162.033845,14.2512757 C162.033845,14.2354225 162.038594,14.2195692 162.046509,14.2045087 C162.053632,14.1886554 162.069461,14.1775581 162.093996,14.1696315 C162.115366,14.1609122 162.147024,14.1545709 162.18264,14.1490223 C162.217464,14.142681 162.26416,14.1395103 162.319562,14.1395103 C162.377339,14.1395103 162.424826,14.142681 162.462025,14.1490223 C162.499224,14.1545709 162.528508,14.1609122 162.548294,14.1696315 C162.570455,14.1775581 162.585493,14.1886554 162.596573,14.2045087 C162.606071,14.2195692 162.610028,14.2354225 162.610028,14.2512757 L162.610028,18.8907283 L162.610028,18.8907283 Z M162.033845,16.6863344 C161.879511,16.4937174 161.729133,16.3454896 161.584296,16.2448215 C161.438667,16.1441533 161.287499,16.0942156 161.129207,16.0942156 C160.984369,16.0942156 160.859319,16.1290928 160.758803,16.198847 C160.655122,16.2678087 160.57281,16.3605501 160.509494,16.4739009 C160.444594,16.5880442 160.398689,16.7164555 160.368614,16.8607201 C160.340913,17.0033993 160.327458,17.1508345 160.327458,17.2990623 C160.327458,17.4568021 160.337747,17.6121639 160.363074,17.7619771 C160.387609,17.9141683 160.429556,18.0481282 160.489707,18.1646496 C160.549858,18.2819636 160.630587,18.3762904 160.731102,18.44763 C160.829243,18.5173843 160.955085,18.5530541 161.106254,18.5530541 C161.182234,18.5530541 161.256632,18.5427495 161.325489,18.5221403 C161.39672,18.5007384 161.469534,18.4666539 161.543932,18.4167162 C161.618329,18.3691565 161.6951,18.3057435 161.777412,18.2264772 C161.85735,18.1503817 161.94441,18.0544695 162.033845,17.9403261 L162.033845,16.6863344 L162.033845,16.6863344 Z" id="Fill-22" fill="#984CBB"></path>
                        <path d="M166.583156,17.2887577 C166.583156,17.543995 166.549123,17.7794157 166.482641,17.9942272 C166.414575,18.208246 166.315643,18.3953143 166.181095,18.5498835 C166.048129,18.7060379 165.881131,18.8273153 165.6801,18.9137155 C165.480653,19.0009083 165.247963,19.0437121 164.983616,19.0437121 C164.726391,19.0437121 164.502408,19.006457 164.310875,18.9295687 C164.119342,18.8526805 163.960258,18.7417077 163.832833,18.5950652 C163.704617,18.4484227 163.610433,18.271659 163.547116,18.0623961 C163.485382,17.8531333 163.452933,17.6169199 163.452933,17.3521707 C163.452933,17.0961408 163.486965,16.8607201 163.551865,16.6459086 C163.618348,16.4310971 163.718863,16.2464068 163.851828,16.0902523 C163.984794,15.9356831 164.151792,15.8144058 164.351239,15.7280056 C164.550687,15.6423981 164.782585,15.5995943 165.050098,15.5995943 C165.308114,15.5995943 165.532097,15.6384348 165.722048,15.7137377 C165.913581,15.7914186 166.072665,15.903184 166.201672,16.0482412 C166.328306,16.1956764 166.424073,16.3724401 166.487389,16.5824956 C166.552289,16.7909658 166.583156,17.0263865 166.583156,17.2887577 M165.989561,17.3268055 C165.989561,17.1579684 165.972941,16.997058 165.941282,16.8472448 C165.908832,16.6958463 165.858179,16.5634717 165.785365,16.4493283 C165.71255,16.335185 165.613618,16.2464068 165.49015,16.1798231 C165.366682,16.1132395 165.212348,16.0807404 165.026355,16.0807404 C164.856191,16.0807404 164.709771,16.1100689 164.586303,16.1703112 C164.463627,16.2313462 164.363111,16.3161611 164.283174,16.4271338 C164.204028,16.5365212 164.143877,16.6673105 164.105095,16.8179163 C164.066314,16.9693148 164.04811,17.1341886 164.04811,17.3133302 C164.04811,17.485338 164.063148,17.6462484 164.095598,17.7976469 C164.127256,17.9490454 164.179493,18.0806274 164.25389,18.1923928 C164.325913,18.3057435 164.424845,18.3953143 164.550687,18.4618979 C164.674155,18.5268963 164.82849,18.5609807 165.0129,18.5609807 C165.181481,18.5609807 165.327901,18.5300669 165.451369,18.4698246 C165.575628,18.4095822 165.676935,18.3247674 165.757664,18.21538 C165.836809,18.1059926 165.895378,17.9759959 165.932576,17.8253901 C165.969775,17.6739916 165.989561,17.5083252 165.989561,17.3268055" id="Fill-23" fill="#984CBB"></path>
                        <path d="M169.703882,18.8875576 C169.703882,18.9065815 169.699925,18.9224347 169.690427,18.9374953 C169.68093,18.9501779 169.664309,18.9612752 169.640565,18.9699945 C169.617613,18.9771284 169.588329,18.9842624 169.549547,18.9906037 C169.510766,18.9961523 169.463278,18.999323 169.40471,18.999323 C169.348517,18.999323 169.301029,18.9961523 169.262247,18.9906037 C169.221883,18.9842624 169.192599,18.9771284 169.168064,18.9699945 C169.14432,18.9612752 169.129282,18.9501779 169.119785,18.9374953 C169.110287,18.9224347 169.10633,18.9065815 169.10633,18.8875576 L169.10633,14.5612067 C169.10633,14.5437681 169.110287,14.5263296 169.121368,14.5128543 C169.132448,14.4985864 169.149069,14.4874891 169.173604,14.4787698 C169.197348,14.4724285 169.229798,14.4645019 169.266996,14.4581606 C169.305778,14.4518193 169.351682,14.4494413 169.40471,14.4494413 C169.463278,14.4494413 169.510766,14.4518193 169.549547,14.4581606 C169.588329,14.4645019 169.617613,14.4724285 169.640565,14.4787698 C169.664309,14.4874891 169.68093,14.4985864 169.690427,14.5128543 C169.699925,14.5263296 169.703882,14.5437681 169.703882,14.5612067 L169.703882,18.8875576" id="Fill-24" fill="#984CBB"></path>
                        <path d="M173.722123,14.7284584 C173.722123,14.7728475 173.718958,14.811688 173.714209,14.8441871 C173.70946,14.8766863 173.701545,14.9028442 173.690465,14.921868 C173.681759,14.9416846 173.667513,14.9559525 173.654058,14.9654645 C173.638229,14.9757691 173.621608,14.9781471 173.602613,14.9781471 L172.337069,14.9781471 L172.337069,18.8875576 C172.337069,18.9065815 172.33232,18.9224347 172.322822,18.9374953 C172.313325,18.9501779 172.296704,18.9612752 172.274543,18.9699945 C172.250008,18.9771284 172.220724,18.9842624 172.181943,18.9906037 C172.143161,18.9961523 172.095674,18.999323 172.038688,18.999323 C171.982495,18.999323 171.935007,18.9961523 171.894643,18.9906037 C171.855861,18.9842624 171.823411,18.9771284 171.802042,18.9699945 C171.777507,18.9612752 171.761678,18.9501779 171.75218,18.9374953 C171.743474,18.9224347 171.738725,18.9065815 171.738725,18.8875576 L171.738725,14.9781471 L170.47239,14.9781471 C170.454186,14.9781471 170.436774,14.9757691 170.421736,14.9654645 C170.40749,14.9559525 170.394826,14.9416846 170.38612,14.921868 C170.376623,14.9028442 170.368708,14.8766863 170.362377,14.8441871 C170.356836,14.811688 170.355253,14.7728475 170.355253,14.7284584 C170.355253,14.6840694 170.356836,14.6460216 170.362377,14.6119371 C170.368708,14.5794379 170.376623,14.5509021 170.38612,14.5295002 C170.394826,14.5096836 170.40749,14.4938304 170.421736,14.4843185 C170.436774,14.4755992 170.454186,14.4708432 170.47239,14.4708432 L173.602613,14.4708432 C173.621608,14.4708432 173.638229,14.4755992 173.654058,14.4843185 C173.667513,14.4938304 173.681759,14.5096836 173.690465,14.5295002 C173.701545,14.5509021 173.70946,14.5794379 173.714209,14.6119371 C173.718958,14.6460216 173.722123,14.6840694 173.722123,14.7284584" id="Fill-25" fill="#984CBB"></path>
                        <path d="M87.8004568,46.0798383 L87.3627795,47.4059623 L86.8008431,47.4059623 L88.2310109,43.1905841 L88.8863396,43.1905841 L90.3228391,47.4059623 L89.7419077,47.4059623 L89.2923585,46.0798383 L87.8004568,46.0798383 L87.8004568,46.0798383 Z M89.1799712,45.6549713 L88.7676206,44.4414053 C88.6742284,44.1671441 88.6117031,43.9158701 88.5491777,43.6725228 L88.5365144,43.6725228 C88.4747805,43.9222114 88.4059235,44.179034 88.3244032,44.4358566 L87.9128441,45.6549713 L89.1799712,45.6549713 L89.1799712,45.6549713 Z" id="Fill-26" fill="#FFFFFF"></path>
                        <path d="M92.766867,44.3787849 L92.766867,44.8234685 L91.4562096,44.8234685 L91.4562096,47.4059623 L90.9132681,47.4059623 L90.9132681,44.3787849 L92.766867,44.3787849" id="Fill-27" fill="#FFFFFF"></path>
                        <path d="M93.5124221,45.9918527 C93.524294,46.7369553 93.9991699,47.042923 94.548443,47.042923 C94.9417985,47.042923 95.1792364,46.974754 95.3858074,46.8867685 L95.4791997,47.279929 C95.285292,47.3687072 94.9544619,47.4685826 94.4740458,47.4685826 C93.543289,47.4685826 92.9876843,46.855062 92.9876843,45.9427077 C92.9876843,45.0295607 93.524294,44.3098233 94.4051888,44.3098233 C95.3913477,44.3098233 95.6541123,45.1793739 95.6541123,45.7358228 C95.6541123,45.8491735 95.641449,45.9363664 95.6351173,45.9918527 L93.5124221,45.9918527 L93.5124221,45.9918527 Z M95.1230428,45.5978996 C95.1293745,45.2483355 94.9797886,44.7045692 94.3616585,44.7045692 C93.8052622,44.7045692 93.5622841,45.2174217 93.5187538,45.5978996 L95.1230428,45.5978996 L95.1230428,45.5978996 Z" id="Fill-28" fill="#FFFFFF"></path>
                        <path d="M96.8682116,44.3787849 L96.8682116,45.5978996 L98.3047112,45.5978996 L98.3047112,44.3787849 L98.8468611,44.3787849 L98.8468611,47.4059623 L98.3047112,47.4059623 L98.3047112,46.0362418 L96.8682116,46.0362418 L96.8682116,47.4059623 L96.3252702,47.4059623 L96.3252702,44.3787849 L96.8682116,44.3787849" id="Fill-29" fill="#FFFFFF"></path>
                        <path d="M101.772097,44.3787849 L101.772097,44.8171272 L100.829468,44.8171272 L100.829468,47.4059623 L100.286526,47.4059623 L100.286526,44.8171272 L99.3438979,44.8171272 L99.3438979,44.3787849 L101.772097,44.3787849" id="Fill-30" fill="#FFFFFF"></path>
                        <path d="M104.328512,47.2934043 C104.185257,47.3687072 103.866299,47.4685826 103.461072,47.4685826 C102.54931,47.4685826 101.955715,46.8495134 101.955715,45.9236838 C101.955715,44.9923056 102.59284,44.3161646 103.579791,44.3161646 C103.904289,44.3161646 104.191589,44.3978088 104.341175,44.4723191 L104.216124,44.8987714 C104.084742,44.8234685 103.878962,44.7545069 103.579791,44.7545069 C102.886472,44.7545069 102.51132,45.2665667 102.51132,45.8983186 C102.51132,46.5990321 102.960869,47.0302404 103.560796,47.0302404 C103.872631,47.0302404 104.07841,46.9485962 104.235119,46.8804272 L104.328512,47.2934043" id="Fill-31" fill="#FFFFFF"></path>
                        <path d="M107.115242,44.3787849 L107.115242,44.8171272 L106.172613,44.8171272 L106.172613,47.4059623 L105.629672,47.4059623 L105.629672,44.8171272 L104.687043,44.8171272 L104.687043,44.3787849 L107.115242,44.3787849" id="Fill-32" fill="#FFFFFF"></path>
                        <path d="M107.58616,44.4168327 C107.798271,44.3787849 108.191627,44.3478711 108.547784,44.3478711 C109.053527,44.3478711 109.8901,44.4295153 109.8901,45.104071 C109.8901,45.4797929 109.6028,45.7112503 109.259306,45.7865532 L109.259306,45.7984431 C109.702524,45.8610635 110.027022,46.1115448 110.027022,46.5490944 C110.027022,47.343342 109.0282,47.4432174 108.435397,47.4432174 C108.098235,47.4432174 107.748409,47.4178522 107.58616,47.4059623 L107.58616,44.4168327 L107.58616,44.4168327 Z M108.104566,47.042923 C108.260484,47.0619469 108.372871,47.0682882 108.547784,47.0682882 C108.915813,47.0682882 109.465877,46.9810953 109.465877,46.5427531 C109.465877,46.1052035 109.0282,46.0116693 108.504254,46.0116693 L108.104566,46.0116693 L108.104566,47.042923 L108.104566,47.042923 Z M108.110898,45.64863 L108.523249,45.64863 C108.928476,45.64863 109.347158,45.5297306 109.347158,45.1730326 C109.347158,44.8726136 109.085185,44.7299343 108.53512,44.7299343 C108.353876,44.7299343 108.241489,44.7418243 108.110898,44.7545069 L108.110898,45.64863 L108.110898,45.64863 Z" id="Fill-33" fill="#FFFFFF"></path>
                        <path d="M113.458,45.8674048 C113.458,46.986644 112.683161,47.4749239 111.953435,47.4749239 C111.135066,47.4749239 110.505064,46.8740859 110.505064,45.9173425 C110.505064,44.9043201 111.165933,44.3098233 112.003297,44.3098233 C112.871529,44.3098233 113.458,44.9415752 113.458,45.8674048 L113.458,45.8674048 Z M111.060669,45.8983186 C111.060669,46.5609843 111.441361,47.0619469 111.977971,47.0619469 C112.502708,47.0619469 112.896064,46.5681182 112.896064,45.8864287 C112.896064,45.3735761 112.640422,44.7228004 111.990634,44.7228004 C111.341637,44.7228004 111.060669,45.3236384 111.060669,45.8983186 L111.060669,45.8983186 Z" id="Fill-34" fill="#FFFFFF"></path>
                        <path d="M115.98434,44.3787849 L115.98434,45.6549713 C115.98434,46.1361173 115.9788,46.4365363 115.953473,46.8677446 L115.972468,46.8740859 C116.152921,46.5054979 116.258977,46.2922718 116.459216,45.9427077 L117.401845,44.3787849 L118.045301,44.3787849 L118.045301,47.4059623 L117.520563,47.4059623 L117.520563,46.1234347 C117.520563,45.6296061 117.532435,45.3735761 117.558554,44.8860888 L117.538767,44.8860888 C117.345651,45.272908 117.214269,45.517048 117.039356,45.8238083 C116.752847,46.2922718 116.421226,46.8740859 116.096727,47.4059623 L115.466725,47.4059623 L115.466725,44.3787849 L115.98434,44.3787849" id="Fill-35" fill="#FFFFFF"></path>
                        <path d="M119.471512,44.3787849 L119.471512,45.5978996 L120.90722,45.5978996 L120.90722,44.3787849 L121.450953,44.3787849 L121.450953,47.4059623 L120.90722,47.4059623 L120.90722,46.0362418 L119.471512,46.0362418 L119.471512,47.4059623 L118.92857,47.4059623 L118.92857,44.3787849 L119.471512,44.3787849" id="Fill-36" fill="#FFFFFF"></path>
                        <path d="M124.376188,44.3787849 L124.376188,44.8171272 L123.432768,44.8171272 L123.432768,47.4059623 L122.890618,47.4059623 L122.890618,44.8171272 L121.94799,44.8171272 L121.94799,44.3787849 L124.376188,44.3787849" id="Fill-37" fill="#FFFFFF"></path>
                        <path d="M125.083753,45.9918527 C125.096417,46.7369553 125.571293,47.042923 126.119774,47.042923 C126.51313,47.042923 126.750568,46.974754 126.957139,46.8867685 L127.050531,47.279929 C126.857415,47.3687072 126.526584,47.4685826 126.045377,47.4685826 C125.115412,47.4685826 124.559015,46.855062 124.559015,45.9427077 C124.559015,45.0295607 125.096417,44.3098233 125.97652,44.3098233 C126.962679,44.3098233 127.225443,45.1793739 127.225443,45.7358228 C127.225443,45.8491735 127.21278,45.9363664 127.206448,45.9918527 L125.083753,45.9918527 L125.083753,45.9918527 Z M126.695165,45.5978996 C126.700706,45.2483355 126.55112,44.7045692 125.93299,44.7045692 C125.377385,44.7045692 125.133615,45.2174217 125.090085,45.5978996 L126.695165,45.5978996 L126.695165,45.5978996 Z" id="Fill-38" fill="#FFFFFF"></path>
                        <path d="M127.909265,45.3672348 C127.909265,44.979623 127.896601,44.667314 127.883938,44.3787849 L128.377017,44.3787849 L128.402344,44.8987714 L128.414216,44.8987714 C128.639782,44.5293908 128.995148,44.3098233 129.488227,44.3098233 C130.219536,44.3098233 130.768018,44.9296852 130.768018,45.8491735 C130.768018,46.9367062 130.106357,47.4749239 129.394835,47.4749239 C128.995148,47.4749239 128.645322,47.2997456 128.46487,46.9993265 L128.452206,46.9993265 L128.452206,48.6433082 L127.909265,48.6433082 L127.909265,45.3672348 L127.909265,45.3672348 Z M128.452206,46.1741651 C128.452206,46.2550166 128.46487,46.3303196 128.477533,46.3984885 C128.577257,46.7805517 128.908087,47.042923 129.301443,47.042923 C129.881583,47.042923 130.219536,46.5681182 130.219536,45.8737461 C130.219536,45.2665667 129.900578,44.7481656 129.319646,44.7481656 C128.945286,44.7481656 128.59546,45.0168781 128.489405,45.4298552 C128.471201,45.4980241 128.452206,45.5796683 128.452206,45.6549713 L128.452206,46.1741651 L128.452206,46.1741651 Z" id="Fill-39" fill="#FFFFFF"></path>
                        <path d="M131.995572,44.3787849 L131.995572,45.5978996 L133.43128,45.5978996 L133.43128,44.3787849 L133.975013,44.3787849 L133.975013,47.4059623 L133.43128,47.4059623 L133.43128,46.0362418 L131.995572,46.0362418 L131.995572,47.4059623 L131.45263,47.4059623 L131.45263,44.3787849 L131.995572,44.3787849" id="Fill-40" fill="#FFFFFF"></path>
                        <path d="M135.18278,45.9918527 C135.195444,46.7369553 135.669528,47.042923 136.218801,47.042923 C136.612157,47.042923 136.849595,46.974754 137.055374,46.8867685 L137.149558,47.279929 C136.95565,47.3687072 136.62482,47.4685826 136.144404,47.4685826 C135.213647,47.4685826 134.658042,46.855062 134.658042,45.9427077 C134.658042,45.0295607 135.195444,44.3098233 136.075547,44.3098233 C137.061706,44.3098233 137.323679,45.1793739 137.323679,45.7358228 C137.323679,45.8491735 137.311807,45.9363664 137.305475,45.9918527 L135.18278,45.9918527 L135.18278,45.9918527 Z M136.793401,45.5978996 C136.799733,45.2483355 136.650147,44.7045692 136.031225,44.7045692 C135.47562,44.7045692 135.232642,45.2174217 135.189112,45.5978996 L136.793401,45.5978996 L136.793401,45.5978996 Z" id="Fill-41" fill="#FFFFFF"></path>
                        <path d="M140.02414,44.3787849 L140.02414,44.8171272 L139.081511,44.8171272 L139.081511,47.4059623 L138.53857,47.4059623 L138.53857,44.8171272 L137.595941,44.8171272 L137.595941,44.3787849 L140.02414,44.3787849" id="Fill-42" fill="#FFFFFF"></path>
                        <path d="M140.070044,45.5107067 L141.6126,45.5107067 L141.6126,45.9173425 L140.070044,45.9173425 L140.070044,45.5107067 Z" id="Fill-43" fill="#575757"></path>
                        <path d="M142.288506,44.3787849 L142.96283,44.3787849 L143.512103,45.9046599 C143.5865,46.129776 143.717883,46.4991566 143.78674,46.7369553 L143.799403,46.7369553 C143.86826,46.5118392 144.036841,46.0299005 144.154768,45.6985677 L144.642308,44.3787849 L145.322963,44.3787849 L145.535074,47.4059623 L145.010336,47.4059623 L144.941479,45.9609389 C144.923276,45.6359474 144.898741,45.2483355 144.886077,44.8789549 L144.866291,44.8789549 C144.785562,45.1548013 144.704042,45.3981487 144.536252,45.8610635 L143.955321,47.3869384 L143.555633,47.3869384 L143.019024,45.8919773 C142.92484,45.6042409 142.793458,45.1666913 142.71906,44.8860888 L142.693734,44.8860888 C142.681862,45.2419942 142.662867,45.6422887 142.644663,45.9736215 L142.569474,47.4059623 L142.063732,47.4059623 L142.288506,44.3787849" id="Fill-44" fill="#FFFFFF"></path>
                        <path d="M147.924491,47.4059623 L147.88017,47.0238991 L147.861966,47.0238991 C147.693385,47.2616978 147.368887,47.4749239 146.937541,47.4749239 C146.325743,47.4749239 146.013908,47.042923 146.013908,46.6053734 C146.013908,45.8737461 146.662905,45.4734516 147.830308,45.4797929 L147.830308,45.4171726 C147.830308,45.1666913 147.762242,44.7164591 147.144112,44.7164591 C146.862352,44.7164591 146.569512,44.8036519 146.35661,44.9415752 L146.231559,44.5793285 C146.48166,44.4168327 146.844149,44.3098233 147.224841,44.3098233 C148.148475,44.3098233 148.373249,44.9415752 148.373249,45.5487545 L148.373249,46.6806763 C148.373249,46.9430475 148.385913,47.1990775 148.423903,47.4059623 L147.924491,47.4059623 L147.924491,47.4059623 Z M147.842971,45.8610635 C147.243045,45.8491735 146.563181,45.9553903 146.563181,46.5427531 C146.563181,46.8994511 146.800619,47.0682882 147.080795,47.0682882 C147.474151,47.0682882 147.724252,46.8178069 147.811313,46.5609843 C147.830308,46.5054979 147.842971,46.4428776 147.842971,46.3865986 L147.842971,45.8610635 L147.842971,45.8610635 Z" id="Fill-45" fill="#FFFFFF"></path>
                        <path d="M149.26285,45.3672348 C149.26285,44.979623 149.250978,44.667314 149.237523,44.3787849 L149.731394,44.3787849 L149.755929,44.8987714 L149.768593,44.8987714 C149.993367,44.5293908 150.348733,44.3098233 150.841812,44.3098233 C151.573121,44.3098233 152.122394,44.9296852 152.122394,45.8491735 C152.122394,46.9367062 151.460734,47.4749239 150.74842,47.4749239 C150.348733,47.4749239 149.999699,47.2997456 149.818455,46.9993265 L149.806583,46.9993265 L149.806583,48.6433082 L149.26285,48.6433082 L149.26285,45.3672348 L149.26285,45.3672348 Z M149.806583,46.1741651 C149.806583,46.2550166 149.818455,46.3303196 149.831118,46.3984885 C149.930842,46.7805517 150.261672,47.042923 150.655028,47.042923 C151.235168,47.042923 151.573121,46.5681182 151.573121,45.8737461 C151.573121,45.2665667 151.254954,44.7481656 150.673231,44.7481656 C150.299662,44.7481656 149.949046,45.0168781 149.843781,45.4298552 C149.824786,45.4980241 149.806583,45.5796683 149.806583,45.6549713 L149.806583,46.1741651 L149.806583,46.1741651 Z" id="Fill-46" fill="#FFFFFF"></path>
                        <path d="M153.36182,44.3787849 L153.36182,45.6930191 L153.492411,45.6930191 L154.628156,44.3787849 L155.296939,44.3787849 L153.979159,45.7485054 C154.465907,45.7984431 154.759538,46.1234347 154.996976,46.6679937 C155.078497,46.8677446 155.184552,47.1618223 155.321475,47.4059623 L154.747666,47.4059623 C154.666146,47.2743804 154.56009,47.0365817 154.465907,46.7861004 C154.260919,46.2986131 153.979159,46.073497 153.467876,46.073497 L153.36182,46.073497 L153.36182,47.4059623 L152.818087,47.4059623 L152.818087,44.3787849 L153.36182,44.3787849" id="Fill-47" fill="#FFFFFF"></path>
                        <path d="M156.080485,45.9918527 C156.093148,46.7369553 156.568024,47.042923 157.116505,47.042923 C157.509861,47.042923 157.747299,46.974754 157.95387,46.8867685 L158.047262,47.279929 C157.854146,47.3687072 157.523316,47.4685826 157.042108,47.4685826 C156.112143,47.4685826 155.555747,46.855062 155.555747,45.9427077 C155.555747,45.0295607 156.093148,44.3098233 156.973251,44.3098233 C157.960202,44.3098233 158.222175,45.1793739 158.222175,45.7358228 C158.222175,45.8491735 158.209511,45.9363664 158.20318,45.9918527 L156.080485,45.9918527 L156.080485,45.9918527 Z M157.691897,45.5978996 C157.697437,45.2483355 157.547851,44.7045692 156.929721,44.7045692 C156.374116,44.7045692 156.130347,45.2174217 156.086816,45.5978996 L157.691897,45.5978996 L157.691897,45.5978996 Z" id="Fill-48" fill="#FFFFFF"></path>
                        <path d="M160.921844,44.3787849 L160.921844,44.8171272 L159.978424,44.8171272 L159.978424,47.4059623 L159.436274,47.4059623 L159.436274,44.8171272 L158.492854,44.8171272 L158.492854,44.3787849 L160.921844,44.3787849" id="Fill-49" fill="#FFFFFF"></path>
                        <path d="M161.911169,44.3787849 L161.911169,45.6549713 C161.911169,46.1361173 161.904837,46.4365363 161.880302,46.8677446 L161.898506,46.8740859 C162.07975,46.5054979 162.185014,46.2922718 162.385253,45.9427077 L163.328673,44.3787849 L163.971339,44.3787849 L163.971339,47.4059623 L163.446601,47.4059623 L163.446601,46.1234347 C163.446601,45.6296061 163.459264,45.3735761 163.484591,44.8860888 L163.465596,44.8860888 C163.271688,45.272908 163.140306,45.517048 162.966185,45.8238083 C162.678885,46.2922718 162.347263,46.8740859 162.022765,47.4059623 L161.392763,47.4059623 L161.392763,44.3787849 L161.911169,44.3787849" id="Fill-50" fill="#FFFFFF"></path>
                        <path d="M165.397549,44.3787849 L165.397549,45.5978996 L166.833257,45.5978996 L166.833257,44.3787849 L167.37699,44.3787849 L167.37699,47.4059623 L166.833257,47.4059623 L166.833257,46.0362418 L165.397549,46.0362418 L165.397549,47.4059623 L164.854608,47.4059623 L164.854608,44.3787849 L165.397549,44.3787849" id="Fill-51" fill="#FFFFFF"></path>
                        <path d="M170.121773,44.3787849 L170.121773,44.8234685 L168.810324,44.8234685 L168.810324,47.4059623 L168.267383,47.4059623 L168.267383,44.3787849 L170.121773,44.3787849" id="Fill-52" fill="#FFFFFF"></path>
                        <path d="M172.270586,47.4059623 L172.227056,47.0238991 L172.208061,47.0238991 C172.040271,47.2616978 171.714981,47.4749239 171.283636,47.4749239 C170.672629,47.4749239 170.360794,47.042923 170.360794,46.6053734 C170.360794,45.8737461 171.009791,45.4734516 172.176402,45.4797929 L172.176402,45.4171726 C172.176402,45.1666913 172.108337,44.7164591 171.490207,44.7164591 C171.209239,44.7164591 170.916398,44.8036519 170.703496,44.9415752 L170.578445,44.5793285 C170.828546,44.4168327 171.190244,44.3098233 171.571727,44.3098233 C172.495361,44.3098233 172.720135,44.9415752 172.720135,45.5487545 L172.720135,46.6806763 C172.720135,46.9430475 172.732799,47.1990775 172.769997,47.4059623 L172.270586,47.4059623 L172.270586,47.4059623 Z M172.189857,45.8610635 C171.589931,45.8491735 170.910067,45.9553903 170.910067,46.5427531 C170.910067,46.8994511 171.147505,47.0682882 171.427681,47.0682882 C171.821037,47.0682882 172.071138,46.8178069 172.158199,46.5609843 C172.176402,46.5054979 172.189857,46.4428776 172.189857,46.3865986 L172.189857,45.8610635 L172.189857,45.8610635 Z" id="Fill-53" fill="#FFFFFF"></path>
                    </g>
                </g>
            </g>
        </g>
    </g>
</svg>