<?xml version="1.0" encoding="UTF-8" standalone="no"?>
<svg width="221px" height="45px" viewBox="0 0 221 45" version="1.1" xmlns="http://www.w3.org/2000/svg" xmlns:xlink="http://www.w3.org/1999/xlink" xmlns:sketch="http://www.bohemiancoding.com/sketch/ns">
    <!-- Generator: Sketch 3.2.2 (9983) - http://www.bohemiancoding.com/sketch -->
    <title>0</title>
    <desc>Created with Sketch.</desc>
    <defs></defs>
    <g id="Page-1" stroke="none" stroke-width="1" fill="none" fill-rule="evenodd" sketch:type="MSPage">
        <g id="Партнёры" sketch:type="MSArtboardGroup" transform="translate(-470.000000, -1719.000000)" fill="#FFFFFF">
            <g id="2_block" sketch:type="MSLayerGroup" transform="translate(469.000000, 142.000000)">
                <g id="5" transform="translate(0.000000, 1476.000000)" sketch:type="MSShapeGroup">
                    <g id="0" transform="translate(1.000000, 101.000000)">
                        <path d="M9.35369169,4.62967105 L9.35369169,9.30789474 L13.8045013,9.30789474 C15.4030483,9.30789474 16.5607802,9.11960526 17.2771046,8.74243421 C17.993429,8.36585526 18.3512949,7.76782895 18.3512949,6.95013158 C18.3512949,6.09335526 18.0165362,5.49296053 17.3440563,5.14717105 C16.6733539,4.80256579 15.4350429,4.62967105 13.6314933,4.62967105 L9.35369169,4.62967105 L9.35369169,4.62967105 Z M2.56194102,21.0801316 L2.56194102,20.5247368 C2.97076139,20.4347368 3.23619839,20.3192763 3.3588445,20.1783553 C3.47971314,20.0386184 3.54014745,19.7763158 3.54014745,19.3932237 L3.54014745,2.15644737 C3.54014745,1.77276316 3.47971314,1.51105263 3.3588445,1.37072368 C3.23619839,1.22980263 2.97076139,1.10842105 2.56194102,1.00598684 L2.56194102,0.468947368 L15.646563,0.468947368 C18.2043566,0.468947368 20.1933566,1.04151316 21.6129705,2.18486842 C23.0325845,3.32940789 23.7429839,4.93046053 23.7429839,6.98743421 C23.7429839,8.10059211 23.5053941,9.11960526 23.0325845,10.0456579 C22.5597748,10.9734868 21.9009223,11.7047368 21.0572118,12.2417763 C20.3663646,12.6888158 19.5250241,13.0055921 18.5337828,13.1903289 C17.5425416,13.3756579 16.0938954,13.4692105 14.188437,13.4692105 L9.35369169,13.4692105 L9.35369169,19.3932237 C9.35369169,19.7508553 9.41708847,20.0030921 9.54565952,20.1505263 C9.67304558,20.2973684 9.94796247,20.4223026 10.3704102,20.5247368 L10.3704102,21.0801316 L2.56194102,21.0801316 L2.56194102,21.0801316 Z" id="Fill-1"></path>
                        <path d="M33.2205067,19.3932237 C33.2205067,19.7508553 33.2839035,20.0030921 33.4124745,20.1505263 C33.5398606,20.2973684 33.8147775,20.4223026 34.2366327,20.5247368 L34.2366327,21.0801316 L27.1196032,21.0801316 L27.1196032,20.5247368 C27.5284236,20.4347368 27.7968231,20.3192763 27.9253941,20.1783553 C28.0527802,20.0386184 28.1173619,19.7763158 28.1173619,19.3932237 L28.1173619,5.87664474 C28.1173619,5.49296053 28.0527802,5.22769737 27.9253941,5.08085526 C27.7968231,4.93342105 27.5284236,4.80256579 27.1196032,4.68710526 L27.1196032,4.15006579 L34.2366327,4.15006579 L34.2366327,4.70664474 C33.8272198,4.80907895 33.5552654,4.93638158 33.4219544,5.08973684 C33.286866,5.24309211 33.2205067,5.50539474 33.2205067,5.87664474 L33.2205067,19.3932237" id="Fill-2"></path>
                        <path d="M41.3352949,8.34927632 C40.977429,8.34927632 40.7244343,8.41677632 40.5780885,8.55059211 C40.4311501,8.685 40.3055416,8.96269737 40.2036327,9.38486842 L39.6472815,9.38486842 L39.6472815,3.1725 L40.2036327,3.1725 C40.3055416,3.58223684 40.4270027,3.8475 40.5680161,3.96828947 C40.7090295,4.08967105 40.9643941,4.15006579 41.3352949,4.15006579 L56.0700107,4.15006579 C56.4657962,4.15006579 56.7383432,4.08671053 56.885874,3.95940789 C57.0322198,3.83092105 57.1566434,3.56861842 57.2591448,3.1725 L57.7965362,3.1725 L57.7965362,9.38486842 L57.2591448,9.38486842 C57.1566434,8.97572368 57.0292574,8.70098684 56.8758016,8.56065789 C56.7223458,8.41973684 56.4533539,8.34927632 56.0700107,8.34927632 L51.2933298,8.34927632 L51.2933298,19.3932237 C51.2933298,19.7763158 51.3531716,20.0386184 51.4758177,20.1783553 C51.5966863,20.3192763 51.8615308,20.4347368 52.2709437,20.5247368 L52.2709437,21.0801316 L45.1539142,21.0801316 L45.1539142,20.5247368 C45.5757694,20.4223026 45.8506863,20.2973684 45.9780724,20.1505263 C46.1060509,20.0030921 46.1700402,19.7508553 46.1700402,19.3932237 L46.1700402,8.34927632 L41.3352949,8.34927632" id="Fill-3"></path>
                        <path d="M69.2506166,8.34927632 L69.2506166,10.7455263 L74.699185,10.7455263 C75.0831206,10.7455263 75.3444102,10.6886842 75.4854236,10.5732237 C75.626437,10.4583553 75.7603405,10.1901316 75.8889115,9.76796053 L76.4257105,9.76796053 L76.4257105,15.42375 L75.8889115,15.42375 C75.7603405,15.0027632 75.6234745,14.7274342 75.4759437,14.5995395 C75.3290054,14.4722368 75.0694933,14.4076974 74.699185,14.4076974 L69.2506166,14.4076974 L69.2506166,16.8809211 L78.7085871,16.8809211 C79.0925228,16.8809211 79.3544048,16.8175658 79.4954182,16.6896711 C79.6358391,16.5617763 79.7573003,16.2994737 79.8598016,15.9033553 L80.3966005,15.9033553 L80.3966005,22.0582895 L79.8598016,22.0582895 C79.7573003,21.6491447 79.6358391,21.3838816 79.4954182,21.2625 C79.3544048,21.1405263 79.0925228,21.0801316 78.7085871,21.0801316 L63.1497131,21.0801316 L63.1497131,20.5247368 C63.5715684,20.4223026 63.8494477,20.2973684 63.9833512,20.1505263 C64.1184397,20.0030921 64.1853914,19.7508553 64.1853914,19.3932237 L64.1853914,5.87664474 C64.1853914,5.50539474 64.1148847,5.24309211 63.9744638,5.08973684 C63.8334504,4.93638158 63.5585335,4.80907895 63.1497131,4.70664474 L63.1497131,4.15006579 L78.7085871,4.15006579 C79.0925228,4.15006579 79.3544048,4.08967105 79.4954182,3.96828947 C79.6358391,3.8475 79.7573003,3.58223684 79.8598016,3.1725 L80.3966005,3.1725 L80.3966005,9.34638158 L79.8598016,9.34638158 C79.7573003,8.93723684 79.6328767,8.66842105 79.4853458,8.54111842 C79.339,8.41381579 79.0794879,8.34927632 78.7085871,8.34927632 L69.2506166,8.34927632" id="Fill-4"></path>
                        <path d="M92.5800402,7.85072368 L92.5800402,11.1872368 L96.3785147,11.1872368 C97.7465818,11.1872368 98.7318981,11.0522368 99.3332788,10.7846053 C99.934067,10.5151974 100.234461,10.0876974 100.234461,9.49973684 C100.234461,8.88631579 99.9595442,8.45822368 99.4097105,8.21486842 C98.8592842,7.97210526 97.8111635,7.85072368 96.263571,7.85072368 L92.5800402,7.85072368 L92.5800402,7.85072368 Z M98.6613914,4.15006579 C100.822807,4.15006579 102.495416,4.62671053 103.678625,5.57881579 C104.861834,6.53151316 105.453142,7.86315789 105.453142,9.57671053 C105.453142,10.8675 105.078686,11.9569737 104.33096,12.8451316 C103.582048,13.7338816 102.492453,14.3698026 101.059804,14.7528947 L103.227737,18.2042763 C103.752094,19.0480263 104.177504,19.62 104.503375,19.9201974 C104.829839,20.2209868 105.203702,20.4223026 105.62615,20.5247368 L105.62615,21.0801316 L98.2395362,21.0801316 L98.2395362,20.5247368 C98.4309115,20.4856579 98.5814048,20.4157895 98.6904236,20.3133553 C98.7994424,20.2109211 98.8533592,20.0895395 98.8533592,19.9486184 C98.8533592,19.7319079 98.7194558,19.3932237 98.4504638,18.9325658 C98.3989169,18.84375 98.3669223,18.7857237 98.3544799,18.7608553 L95.9566595,14.8298684 L92.5800402,14.8298684 L92.5800402,19.3932237 C92.5800402,19.7508553 92.643437,20.0030921 92.772008,20.1505263 C92.8993941,20.2973684 93.174311,20.4223026 93.5961662,20.5247368 L93.5961662,21.0801316 L86.4791367,21.0801316 L86.4791367,20.5247368 C86.8879571,20.4347368 87.1563566,20.3192763 87.2849276,20.1783553 C87.4123137,20.0386184 87.4768954,19.7763158 87.4768954,19.3932237 L87.4768954,5.87664474 C87.4768954,5.49296053 87.4123137,5.22769737 87.2849276,5.08085526 C87.1563566,4.93342105 86.8879571,4.80256579 86.4791367,4.68710526 L86.4791367,4.15006579 L98.6613914,4.15006579 L98.6613914,4.15006579 Z" id="Fill-5"></path>
                        <path d="M125.022011,9.42276316 C125.034453,9.38486842 125.04808,9.33394737 125.060523,9.26940789 C125.086,9.12848684 125.099035,9.03315789 125.099035,8.98164474 C125.099035,8.53460526 124.443145,8.11006579 123.13255,7.70684211 C121.821362,7.30480263 120.385751,7.10348684 118.825716,7.10348684 C117.572,7.10348684 116.552319,7.27875 115.765488,7.62986842 C114.979249,7.98217105 114.585241,8.41973684 114.585241,8.94434211 C114.585241,9.73598684 116.06292,10.2025658 119.017684,10.3434868 C119.529005,10.3689474 119.924791,10.3878947 120.206818,10.4015132 C122.982056,10.54125 124.996534,11.0208553 126.249657,11.8385526 C127.503373,12.6568421 128.130231,13.8901974 128.130231,15.5398026 C128.130231,17.2776316 127.308442,18.6933553 125.664866,19.7857895 C124.02129,20.8788158 121.856912,21.4253289 119.171139,21.4253289 C116.075362,21.4253289 113.274646,20.9848026 110.767807,20.1019737 C110.447268,20.0001316 110.261818,19.9486184 110.210863,19.9486184 C110.134432,19.9486184 110.047928,19.9805921 109.952536,20.0445395 C109.85596,20.1090789 109.718501,20.2428947 109.540161,20.4477632 L109.041282,20.2553289 L111.439102,15.0400658 L111.937389,15.2330921 C111.937389,15.2455263 111.931464,15.2638816 111.919021,15.2899342 C111.880509,15.4048026 111.860957,15.4876974 111.860957,15.5398026 C111.860957,16.1780921 112.606314,16.7696053 114.096434,17.3131579 C115.585962,17.8561184 117.290566,18.1273026 119.209059,18.1273026 C120.526172,18.1273026 121.562442,17.9449342 122.317279,17.5813816 C123.071523,17.2166447 123.448941,16.7210526 123.448941,16.0951974 C123.448941,14.8807895 121.786405,14.2164474 118.46074,14.1009868 C118.307284,14.1009868 118.19234,14.0950658 118.115316,14.0826316 C115.417102,13.9926316 113.40618,13.5455921 112.081957,12.7397368 C110.758327,11.9350658 110.09592,10.7650658 110.09592,9.23151316 C110.09592,7.62098684 110.873271,6.31361842 112.426788,5.31059211 C113.981491,4.30756579 116.030925,3.80605263 118.575684,3.80605263 C120.136311,3.80605263 121.80181,4.05473684 123.573957,4.55328947 C125.345512,5.05184211 126.300611,5.30052632 126.441625,5.30052632 C126.59508,5.30052632 126.726614,5.26618421 126.835633,5.19572368 C126.943466,5.12526316 127.049523,5.01335526 127.152024,4.86 L127.612391,5.05184211 L125.50193,9.61460526 L125.022011,9.42276316" id="Fill-6"></path>
                        <path d="M134.959901,8.34927632 C134.602035,8.34927632 134.34904,8.41677632 134.202694,8.55059211 C134.055756,8.685 133.930147,8.96269737 133.828831,9.38486842 L133.271887,9.38486842 L133.271887,3.1725 L133.828831,3.1725 C133.930147,3.58223684 134.051609,3.8475 134.192622,3.96828947 C134.333635,4.08967105 134.589,4.15006579 134.959901,4.15006579 L149.694617,4.15006579 C150.090995,4.15006579 150.362949,4.08671053 150.51048,3.95940789 C150.656826,3.83092105 150.781249,3.56861842 150.883751,3.1725 L151.421142,3.1725 L151.421142,9.38486842 L150.883751,9.38486842 C150.781249,8.97572368 150.653863,8.70098684 150.500408,8.56065789 C150.346952,8.41973684 150.07796,8.34927632 149.694617,8.34927632 L144.917936,8.34927632 L144.917936,19.3932237 C144.917936,19.7763158 144.977777,20.0386184 145.100424,20.1783553 C145.221292,20.3192763 145.486137,20.4347368 145.89555,20.5247368 L145.89555,21.0801316 L138.77852,21.0801316 L138.77852,20.5247368 C139.200375,20.4223026 139.475292,20.2973684 139.602678,20.1505263 C139.730657,20.0030921 139.794646,19.7508553 139.794646,19.3932237 L139.794646,8.34927632 L134.959901,8.34927632" id="Fill-7"></path>
                        <path d="M160.975689,12.5674342 C160.975689,13.9097368 161.417097,15.0086842 162.299912,15.8648684 C163.182134,16.7210526 164.326239,17.1503289 165.73341,17.1503289 C167.140582,17.1503289 168.285279,16.7210526 169.168094,15.8648684 C170.050316,15.0086842 170.491724,13.9097368 170.491724,12.5674342 C170.491724,11.2251316 170.050316,10.1226316 169.168094,9.26052632 C168.285279,8.39723684 167.140582,7.96559211 165.73341,7.96559211 C164.339866,7.96559211 163.198131,8.39368421 162.308799,9.25105263 C161.420059,10.1072368 160.975689,11.2126974 160.975689,12.5674342 L160.975689,12.5674342 Z M165.694898,3.76638158 C168.63722,3.76638158 171.048075,4.60065789 172.928649,6.26921053 C174.80863,7.93717105 175.748324,10.0492105 175.748324,12.6059211 C175.748324,15.1365789 174.805668,17.2391447 172.917984,18.9142105 C171.031485,20.5880921 168.623592,21.4253289 165.694898,21.4253289 C162.817158,21.4253289 160.435335,20.5845395 158.548836,18.9035526 C156.662338,17.22375 155.718496,15.1241447 155.718496,12.6059211 C155.718496,10.0746711 156.65582,7.96914474 158.529284,6.28815789 C160.40334,4.60776316 162.791681,3.76638158 165.694898,3.76638158 L165.694898,3.76638158 Z" id="Fill-8"></path>
                        <path d="M186.204646,7.85072368 L186.204646,11.1872368 L190.003121,11.1872368 C191.371188,11.1872368 192.356504,11.0522368 192.957885,10.7846053 C193.558673,10.5151974 193.859067,10.0876974 193.859067,9.49973684 C193.859067,8.88631579 193.58415,8.45822368 193.034909,8.21486842 C192.48389,7.97210526 191.435769,7.85072368 189.888177,7.85072368 L186.204646,7.85072368 L186.204646,7.85072368 Z M192.285997,4.15006579 C194.447413,4.15006579 196.120021,4.62671053 197.303231,5.57881579 C198.48644,6.53151316 199.077748,7.86315789 199.077748,9.57671053 C199.077748,10.8675 198.703292,11.9569737 197.955566,12.8451316 C197.206654,13.7338816 196.117059,14.3698026 194.68441,14.7528947 L196.852343,18.2042763 C197.3767,19.0480263 197.80211,19.62 198.127981,19.9201974 C198.454445,20.2209868 198.828901,20.4223026 199.250756,20.5247368 L199.250756,21.0801316 L191.864142,21.0801316 L191.864142,20.5247368 C192.055517,20.4856579 192.206011,20.4157895 192.315029,20.3133553 C192.424048,20.2109211 192.477965,20.0895395 192.477965,19.9486184 C192.477965,19.7319079 192.344062,19.3932237 192.075662,18.9325658 C192.023523,18.84375 191.991528,18.7857237 191.979086,18.7608553 L189.581265,14.8298684 L186.204646,14.8298684 L186.204646,19.3932237 C186.204646,19.7508553 186.268043,20.0030921 186.396614,20.1505263 C186.524,20.2973684 186.798917,20.4223026 187.221365,20.5247368 L187.221365,21.0801316 L180.103743,21.0801316 L180.103743,20.5247368 C180.512563,20.4347368 180.780962,20.3192763 180.909534,20.1783553 C181.03692,20.0386184 181.101501,19.7763158 181.101501,19.3932237 L181.101501,5.87664474 C181.101501,5.49296053 181.03692,5.22769737 180.909534,5.08085526 C180.780962,4.93342105 180.512563,4.80256579 180.103743,4.68710526 L180.103743,4.15006579 L192.285997,4.15006579 L192.285997,4.15006579 Z" id="Fill-9"></path>
                        <path d="M214.023391,6.24019737 C214.215359,5.97197368 214.359335,5.73868421 214.454727,5.54092105 C214.551303,5.34256579 214.599295,5.19276316 214.599295,5.08973684 C214.599295,4.98730263 214.537676,4.89848684 214.416807,4.82151316 C214.295346,4.74513158 214.138335,4.70664474 213.94696,4.70664474 L213.73544,4.70664474 L213.73544,4.15006579 L220.411654,4.15006579 L220.411654,4.70664474 C220.028311,4.97486842 219.656818,5.35855263 219.298952,5.85710526 C219.22252,5.98440789 219.165048,6.07440789 219.126536,6.12532895 L213.619903,13.6598684 L213.619903,19.3932237 C213.619903,19.7508553 213.684485,20.0030921 213.811871,20.1505263 C213.93985,20.2973684 214.215359,20.4223026 214.637214,20.5247368 L214.637214,21.0801316 L207.538552,21.0801316 L207.538552,20.5247368 C207.961,20.4223026 208.235917,20.2973684 208.363303,20.1505263 C208.491282,20.0030921 208.555271,19.7508553 208.555271,19.3932237 L208.555271,14.2164474 L202.895775,6.35565789 C202.537316,5.84467105 202.223887,5.46394737 201.955488,5.21467105 C201.687088,4.96539474 201.412172,4.79546053 201.130737,4.70664474 L201.130737,4.15006579 L209.112214,4.15006579 L209.112214,4.70664474 L208.900694,4.70664474 C208.721169,4.70664474 208.58134,4.74809211 208.478247,4.83098684 C208.375745,4.91447368 208.324791,5.03289474 208.324791,5.18625 C208.324791,5.30052632 208.366265,5.45802632 208.450399,5.65578947 C208.533349,5.85355263 208.644737,6.04835526 208.785158,6.24019737 L211.376131,9.88342105 L214.023391,6.24019737" id="Fill-10"></path>
                        <path d="M114.200713,26.80875 C114.174643,27.7827632 111.520273,28.5761842 110.206123,28.5761842 C111.533901,28.5761842 114.198343,29.3778947 114.225005,30.3619737 L220.411654,28.5856579 L114.200713,26.80875" id="Fill-11"></path>
                        <path d="M106.210941,26.80875 C106.237603,27.7827632 108.891381,28.5761842 110.206123,28.5761842 C108.877753,28.5761842 106.213311,29.3778947 106.186649,30.3619737 L0,28.5856579 L106.210941,26.80875" id="Fill-12"></path>
                        <path d="M25.8481126,39.7379605 L28.6541609,36.9094737 L30.4109035,36.9094737 L27.2872788,39.8723684 L30.9968794,43.2011842 L28.947445,43.2011842 L25.8481126,40.2264474 L25.8481126,43.2011842 L24.3834692,43.2011842 L24.3834692,40.2264474 L21.2847292,43.2011842 L19.2352949,43.2011842 L22.9443029,39.8723684 L19.8206783,36.9094737 L21.5780134,36.9094737 L24.3834692,39.7379605 L24.3834692,36.9094737 L25.8481126,36.9094737 L25.8481126,39.7379605" id="Fill-13"></path>
                        <path d="M33.7193861,39.6278289 L38.0629544,39.6278289 L38.0629544,36.9094737 L39.5394477,36.9094737 L39.5394477,41.88375 C39.5394477,42.2621053 39.4298365,42.6765789 39.1981716,42.89625 C38.8930375,43.1769079 38.3437962,43.2011842 38.1482735,43.2011842 L33.768563,43.2011842 C33.499571,43.2011842 32.9509223,43.18875 32.6457882,42.89625 C32.3045121,42.5670395 32.3045121,41.9814474 32.3045121,41.7132237 L32.3045121,41.5184211 L33.7193861,41.2501974 L33.7193861,42.0542763 L38.0629544,42.0542763 L38.0629544,40.6527632 L33.7193861,40.6527632 C33.499571,40.6527632 32.9384799,40.6278947 32.6457882,40.3602632 C32.3045121,40.0428947 32.3045121,39.4336184 32.3045121,39.1648026 L32.3045121,36.9094737 L33.7193861,36.9094737 L33.7193861,39.6278289" id="Fill-14"></path>
                        <path d="M44.2260697,37.9817763 L44.2260697,39.6769737 L47.4474558,39.6769737 C47.691563,39.6769737 47.8497587,39.6526974 47.9475201,39.5798684 C48.1057158,39.4573026 48.1057158,39.2749342 48.1057158,39.1772368 L48.1057158,38.4821053 C48.1057158,38.3844079 48.1057158,38.2014474 47.9475201,38.0794737 C47.8497587,38.0066447 47.691563,37.9817763 47.4474558,37.9817763 L44.2260697,37.9817763 L44.2260697,37.9817763 Z M48.2034772,36.9094737 C48.5086113,36.9094737 48.9239491,36.9455921 49.2041984,37.1776974 C49.546067,37.4459211 49.5703592,37.8361184 49.5703592,38.1286184 L49.5703592,39.5313158 C49.5703592,39.6894079 49.5579169,40.1773026 49.240933,40.4573684 C48.9239491,40.7380263 48.3255308,40.7504605 48.1548928,40.7504605 L44.2260697,40.7504605 L44.2260697,43.2011842 L42.7620188,43.2011842 L42.7620188,36.9094737 L48.2034772,36.9094737 L48.2034772,36.9094737 Z" id="Fill-15"></path>
                        <path d="M53.2929946,39.3477632 L57.8806702,39.3477632 L57.8806702,36.9094737 L59.3441287,36.9094737 L59.3441287,43.2011842 L57.8806702,43.2011842 L57.8806702,40.4934868 L53.2929946,40.4934868 L53.2929946,43.2011842 L51.8289437,43.2011842 L51.8289437,36.9094737 L53.2929946,36.9094737 L53.2929946,39.3477632" id="Fill-16"></path>
                        <path d="M66.9345603,40.6894737 L65.5682708,38.1286184 L64.1533968,40.6894737 L66.9345603,40.6894737 L66.9345603,40.6894737 Z M66.3373271,36.9094737 L69.9485737,43.2011842 L68.3014424,43.2011842 L67.5572708,41.8357895 L63.5549786,41.8357895 L62.8350992,43.2011842 L61.3586059,43.2011842 L64.9218606,36.9094737 L66.3373271,36.9094737 L66.3373271,36.9094737 Z" id="Fill-17"></path>
                        <path d="M75.4285442,36.9094737 L78.893445,43.2011842 L77.1858794,43.2011842 L74.6725228,38.2381579 L72.1218391,43.2011842 L70.5967614,43.2011842 L74.0130777,36.9094737 L75.4285442,36.9094737" id="Fill-18"></path>
                        <path d="M85.0927024,42.0542763 L89.9250777,42.0542763 L89.9250777,38.0557895 L85.0927024,38.0557895 L85.0927024,42.0542763 Z M83.629244,38.3968421 C83.629244,38.1286184 83.629244,37.5430263 83.9705201,37.2138158 C84.2756542,36.9219079 84.7881609,36.9094737 85.1910563,36.9094737 L89.8273164,36.9094737 C90.2302118,36.9094737 90.742126,36.9219079 91.0472601,37.2138158 C91.3885362,37.5430263 91.3885362,38.1286184 91.3885362,38.3968421 L91.3885362,41.7132237 C91.3885362,41.9814474 91.3885362,42.5670395 91.0472601,42.89625 C90.742126,43.18875 90.2302118,43.2011842 89.8273164,43.2011842 L85.1910563,43.2011842 C84.7881609,43.2011842 84.2756542,43.18875 83.9705201,42.89625 C83.629244,42.5670395 83.629244,41.9814474 83.629244,41.7132237 L83.629244,38.3968421 L83.629244,38.3968421 Z" id="Fill-19"></path>
                        <path d="M98.6862761,42.1282895 L96.6978686,38.1777632 L94.7574531,42.1282895 L98.6862761,42.1282895 L98.6862761,42.1282895 Z M97.4787748,36.9094737 L100.126627,42.0542763 L100.882649,42.0542763 L100.882649,44.4078947 L99.492067,44.4078947 L99.492067,43.2011842 L94.099193,43.2011842 L94.099193,44.4078947 L92.7080188,44.4078947 L92.7080188,42.0542763 L93.4646327,42.0542763 L96.0633083,36.9094737 L97.4787748,36.9094737 L97.4787748,36.9094737 Z" id="Fill-20"></path>
                        <path d="M104.264008,39.3477632 L108.851684,39.3477632 L108.851684,36.9094737 L110.315735,36.9094737 L110.315735,43.2011842 L108.851684,43.2011842 L108.851684,40.4934868 L104.264008,40.4934868 L104.264008,43.2011842 L102.799957,43.2011842 L102.799957,36.9094737 L104.264008,36.9094737 L104.264008,39.3477632" id="Fill-21"></path>
                        <path d="M114.867861,42.0542763 L119.699051,42.0542763 L119.699051,38.0557895 L114.867861,38.0557895 L114.867861,42.0542763 Z M113.40381,38.3968421 C113.40381,38.1286184 113.40381,37.5430263 113.745086,37.2138158 C114.05022,36.9219079 114.563319,36.9094737 114.965622,36.9094737 L119.602475,36.9094737 C120.004185,36.9094737 120.517284,36.9219079 120.821826,37.2138158 C121.163694,37.5430263 121.163694,38.1286184 121.163694,38.3968421 L121.163694,41.7132237 C121.163694,41.9814474 121.163694,42.5670395 120.821826,42.89625 C120.517284,43.18875 120.004185,43.2011842 119.602475,43.2011842 L114.965622,43.2011842 C114.563319,43.2011842 114.05022,43.18875 113.745086,42.89625 C113.40381,42.5670395 113.40381,41.9814474 113.40381,41.7132237 L113.40381,38.3968421 L113.40381,38.3968421 Z" id="Fill-22"></path>
                        <path d="M130.181442,36.9094737 L130.181442,38.0557895 L125.71582,38.0557895 L125.71582,43.2011842 L124.251769,43.2011842 L124.251769,36.9094737 L130.181442,36.9094737" id="Fill-23"></path>
                        <path d="M132.989268,42.0542763 L137.821051,42.0542763 L137.821051,38.0557895 L132.989268,38.0557895 L132.989268,42.0542763 Z M131.525217,38.3968421 C131.525217,38.1286184 131.525217,37.5430263 131.866493,37.2138158 C132.171627,36.9219079 132.684134,36.9094737 133.087029,36.9094737 L137.72329,36.9094737 C138.126185,36.9094737 138.638099,36.9219079 138.943233,37.2138158 C139.285102,37.5430263 139.285102,38.1286184 139.285102,38.3968421 L139.285102,41.7132237 C139.285102,41.9814474 139.285102,42.5670395 138.943233,42.89625 C138.638099,43.18875 138.126185,43.2011842 137.72329,43.2011842 L133.087029,43.2011842 C132.684134,43.2011842 132.171627,43.18875 131.866493,42.89625 C131.525217,42.5670395 131.525217,41.9814474 131.525217,41.7132237 L131.525217,38.3968421 L131.525217,38.3968421 Z" id="Fill-24"></path>
                        <path d="M151.145633,36.9094737 L151.145633,38.0557895 L146.680011,38.0557895 L146.680011,43.2011842 L145.21596,43.2011842 L145.21596,36.9094737 L151.145633,36.9094737" id="Fill-25"></path>
                        <path d="M153.953458,42.0542763 L158.785241,42.0542763 L158.785241,38.0557895 L153.953458,38.0557895 L153.953458,42.0542763 Z M152.489408,38.3968421 C152.489408,38.1286184 152.489408,37.5430263 152.830684,37.2138158 C153.135818,36.9219079 153.648324,36.9094737 154.05122,36.9094737 L158.68748,36.9094737 C159.090375,36.9094737 159.60229,36.9219079 159.907424,37.2138158 C160.249292,37.5430263 160.249292,38.1286184 160.249292,38.3968421 L160.249292,41.7132237 C160.249292,41.9814474 160.249292,42.5670395 159.907424,42.89625 C159.60229,43.18875 159.090375,43.2011842 158.68748,43.2011842 L154.05122,43.2011842 C153.648324,43.2011842 153.135818,43.18875 152.830684,42.89625 C152.489408,42.5670395 152.489408,41.9814474 152.489408,41.7132237 L152.489408,38.3968421 L152.489408,38.3968421 Z" id="Fill-26"></path>
                        <path d="M164.802011,37.9817763 L164.802011,39.6769737 L168.022804,39.6769737 C168.266912,39.6769737 168.4257,39.6526974 168.522869,39.5798684 C168.682249,39.4573026 168.682249,39.2749342 168.682249,39.1772368 L168.682249,38.4821053 C168.682249,38.3844079 168.682249,38.2014474 168.522869,38.0794737 C168.4257,38.0066447 168.266912,37.9817763 168.022804,37.9817763 L164.802011,37.9817763 L164.802011,37.9817763 Z M168.778826,36.9094737 C169.08396,36.9094737 169.499298,36.9455921 169.779547,37.1776974 C170.120823,37.4459211 170.145708,37.8361184 170.145708,38.1286184 L170.145708,39.5313158 C170.145708,39.6894079 170.133265,40.1773026 169.816874,40.4573684 C169.499298,40.7380263 168.901472,40.7504605 168.730834,40.7504605 L164.802011,40.7504605 L164.802011,43.2011842 L163.33796,43.2011842 L163.33796,36.9094737 L168.778826,36.9094737 L168.778826,36.9094737 Z" id="Fill-27"></path>
                        <path d="M173.733847,42.0542763 L178.56563,42.0542763 L178.56563,38.0557895 L173.733847,38.0557895 L173.733847,42.0542763 Z M172.269796,38.3968421 C172.269796,38.1286184 172.269796,37.5430263 172.611072,37.2138158 C172.916206,36.9219079 173.428713,36.9094737 173.831609,36.9094737 L178.467869,36.9094737 C178.870764,36.9094737 179.382678,36.9219079 179.687812,37.2138158 C180.029681,37.5430263 180.029681,38.1286184 180.029681,38.3968421 L180.029681,41.7132237 C180.029681,41.9814474 180.029681,42.5670395 179.687812,42.89625 C179.382678,43.18875 178.870764,43.2011842 178.467869,43.2011842 L173.831609,43.2011842 C173.428713,43.2011842 172.916206,43.18875 172.611072,42.89625 C172.269796,42.5670395 172.269796,41.9814474 172.269796,41.7132237 L172.269796,38.3968421 L172.269796,38.3968421 Z" id="Fill-28"></path>
                        <path d="M187.327421,42.1282895 L185.339013,38.1777632 L183.39919,42.1282895 L187.327421,42.1282895 L187.327421,42.1282895 Z M186.11992,36.9094737 L188.767772,42.0542763 L189.524386,42.0542763 L189.524386,44.4078947 L188.133212,44.4078947 L188.133212,43.2011842 L182.740338,43.2011842 L182.740338,44.4078947 L181.349164,44.4078947 L181.349164,42.0542763 L182.10637,42.0542763 L184.705046,36.9094737 L186.11992,36.9094737 L186.11992,36.9094737 Z" id="Fill-29"></path>
                        <path d="M195.807777,40.6894737 L194.441488,38.1286184 L193.026021,40.6894737 L195.807777,40.6894737 L195.807777,40.6894737 Z M195.209952,36.9094737 L198.821791,43.2011842 L197.17466,43.2011842 L196.430488,41.8357895 L192.428196,41.8357895 L191.708909,43.2011842 L190.232416,43.2011842 L193.795078,36.9094737 L195.209952,36.9094737 L195.209952,36.9094737 Z" id="Fill-30"></path>
                    </g>
                </g>
            </g>
        </g>
    </g>
</svg>