<?xml version="1.0" encoding="UTF-8" standalone="no"?>
<svg width="106px" height="30px" viewBox="0 0 106 30" version="1.1" xmlns="http://www.w3.org/2000/svg" xmlns:xlink="http://www.w3.org/1999/xlink" xmlns:sketch="http://www.bohemiancoding.com/sketch/ns">
    <!-- Generator: Sketch 3.2.2 (9983) - http://www.bohemiancoding.com/sketch -->
    <title>5</title>
    <desc>Created with Sketch.</desc>
    <defs></defs>
    <g id="Page-1" stroke="none" stroke-width="1" fill="none" fill-rule="evenodd" sketch:type="MSPage">
        <g id="Партнёры" sketch:type="MSArtboardGroup" transform="translate(-1188.000000, -1417.000000)" fill="#FFFFFF">
            <g id="2_block" sketch:type="MSLayerGroup" transform="translate(469.000000, 142.000000)">
                <g id="4" transform="translate(0.000000, 1159.000000)" sketch:type="MSShapeGroup">
                    <g id="5" transform="translate(719.000000, 116.000000)">
                        <path d="M85.4512167,28.6055305 L85.8607067,28.6055305 L87.0815794,25.4733014 L87.0952544,25.4733014 L87.0884169,25.6173206 L87.0884169,28.6055305 L87.5898333,28.6055305 L87.5898333,24.8768659 L86.8308713,24.8768659 L85.6563415,27.9427405 L84.4810521,24.8768659 L83.7220901,24.8768659 L83.7220901,28.6055305 L84.2303439,28.6055305 L84.2303439,25.6173206 L84.2166689,25.4733014 L84.2303439,25.4733014 L85.4512167,28.6055305 Z M78.8363199,26.737805 L78.8431574,26.6526 L78.8431574,26.5538224 L78.8560727,26.4422264 L78.8765852,26.3245981 L78.9024157,26.1933974 L78.9358435,26.0697369 L78.9814268,25.9385362 L79.0346073,25.8073355 L79.068035,25.7409811 L79.1067808,25.6821669 L79.1462864,25.6233528 L79.1933891,25.5645387 L79.2389724,25.5125108 L79.2982307,25.4597289 L79.3514112,25.4144873 L79.417507,25.3684916 L79.4836028,25.3285282 L79.5557764,25.2893188 L79.6287096,25.2568956 L79.7145582,25.2297506 L79.8004067,25.2108999 L79.8930928,25.1973274 L79.9910969,25.184509 L80.0974579,25.184509 L80.1772287,25.184509 L80.25548,25.1920493 L80.3284133,25.1973274 L80.4013466,25.2108999 L80.4666827,25.2297506 L80.5327785,25.2508634 L80.5988742,25.2757463 L80.6581325,25.3021372 L80.7181506,25.3345604 L80.7705713,25.3684916 L80.8237519,25.4009148 L80.8769324,25.4469105 L80.9225157,25.4861199 L80.9688587,25.5321155 L81.0083642,25.5773572 L81.0478698,25.6308931 L81.120803,25.7409811 L81.1800613,25.8586093 L81.2324821,25.98981 L81.2795849,26.1285511 L81.3122529,26.2725703 L81.3320057,26.4226217 L81.3517584,26.5734271 L81.3517584,26.737805 L81.3517584,26.875038 L81.3456807,27.0062387 L81.3251682,27.123867 L81.3122529,27.236217 L81.2864224,27.3402728 L81.2590724,27.4390504 L81.2256446,27.5302876 L81.1937363,27.6154927 L81.1542308,27.6939116 L81.1139656,27.7662982 L81.0676225,27.8326526 L81.028117,27.8914667 L80.9749365,27.9502808 L80.9293532,27.9955224 L80.8769324,28.0415181 L80.8237519,28.0814815 L80.7705713,28.1139047 L80.7181506,28.1463279 L80.66497,28.1802591 L80.6125492,28.1991098 L80.5069479,28.2390732 L80.4013466,28.2639561 L80.3086606,28.2843149 L80.2296495,28.2903471 L80.1567162,28.2978874 L80.0974579,28.2978874 L79.9979344,28.2903471 L79.9060081,28.2843149 L79.8201595,28.2714964 L79.734311,28.2518917 L79.6552999,28.231533 L79.5823666,28.205142 L79.5101931,28.1727188 L79.4440973,28.1402957 L79.384839,28.1003322 L79.3316585,28.0550906 L79.2784779,28.0090949 L79.2260571,27.9630993 L79.1797141,27.9103174 L79.1402086,27.8590435 L79.1007031,27.8002294 L79.068035,27.7466935 L79.0019393,27.6215249 L78.9548365,27.4978645 L78.915331,27.3666637 L78.8826629,27.236217 L78.8629102,27.1050163 L78.8499949,26.9798478 L78.8431574,26.8561873 L78.8363199,26.737805 Z M78.3022356,26.737805 L78.3083133,26.9150014 L78.3212286,27.0854116 L78.3417411,27.2414952 L78.3683314,27.3862685 L78.4078369,27.5242554 L78.4465827,27.6479159 L78.4936854,27.7662982 L78.5461062,27.8703539 L78.6053645,27.9691315 L78.6714603,28.0618768 L78.7375561,28.1463279 L78.8036519,28.2255007 L78.8765852,28.2903471 L78.9548365,28.3567015 L79.0277698,28.4079753 L79.1067808,28.4615113 L79.1865516,28.5067529 L79.2655627,28.5467163 L79.3445737,28.5791395 L79.4235848,28.6055305 L79.5694514,28.6515261 L79.7145582,28.6839493 L79.8399123,28.704308 L79.9523511,28.7103402 L80.0381996,28.7171265 L80.0974579,28.7171265 L80.1567162,28.7171265 L80.2433245,28.7103402 L80.3481661,28.704308 L80.4735202,28.6839493 L80.6125492,28.6515261 L80.7637339,28.6055305 L80.8435046,28.5791395 L80.9225157,28.5467163 L81.0022865,28.5067529 L81.0812975,28.4615113 L81.1603086,28.4079753 L81.2324821,28.3567015 L81.3122529,28.2903471 L81.3844265,28.2255007 L81.4505223,28.1463279 L81.5234555,28.0618768 L81.5827138,27.9691315 L81.6419721,27.8703539 L81.6951526,27.7662982 L81.7475734,27.6479159 L81.7878387,27.5242554 L81.8205067,27.3862685 L81.8539345,27.2414952 L81.8729275,27.0854116 L81.8866025,26.9150014 L81.8926803,26.737805 L81.8866025,26.5998181 L81.879765,26.4686173 L81.86609,26.3374166 L81.847097,26.2197884 L81.8265845,26.1021601 L81.7946762,25.98981 L81.7673262,25.8925405 L81.7285804,25.7869767 L81.6883152,25.6957394 L81.6419721,25.6097803 L81.5963888,25.5245753 L81.5424486,25.4469105 L81.4900278,25.3745238 L81.4307695,25.3021372 L81.3715112,25.2433231 L81.3054154,25.184509 L81.2393196,25.1256949 L81.1732238,25.0721589 L81.1002906,25.0269173 L81.0349545,24.9884619 L80.9559434,24.9484985 L80.8830102,24.9160753 L80.8108366,24.8821441 L80.7310658,24.8572612 L80.572284,24.8180518 L80.4142619,24.7856286 L80.25548,24.7645158 L80.0974579,24.7584836 L79.9979344,24.7645158 L79.9060081,24.7720561 L79.8064845,24.7780883 L79.7213957,24.7909068 L79.6287096,24.8105115 L79.5428611,24.8308702 L79.4570125,24.8572612 L79.371164,24.8896843 L79.2921529,24.9221075 L79.2192197,24.9545307 L79.1402086,25.0005263 L79.068035,25.047276 L79.0019393,25.0932717 L78.929006,25.1445455 L78.8697477,25.2033597 L78.8104894,25.2621738 L78.7512311,25.3285282 L78.6919728,25.3933745 L78.6448701,25.4657611 L78.5924493,25.5381477 L78.5461062,25.6173206 L78.505841,25.7025257 L78.4670952,25.7869767 L78.4344271,25.8797221 L78.4078369,25.9769916 L78.3804869,26.0757692 L78.3546564,26.1737927 L78.3349036,26.2786025 L78.3212286,26.3901985 L78.3083133,26.5010405 L78.3022356,26.6201768 L78.3022356,26.737805 Z M76.2092023,27.3666637 L76.1955273,27.4654413 L76.1757746,27.5627108 L76.149944,27.6554562 L76.1096788,27.7399072 L76.0640955,27.8190801 L76.010915,27.8974989 L75.9516567,27.9691315 L75.8855609,28.0354859 L75.8126276,28.0943 L75.7336165,28.1463279 L75.6485277,28.1855373 L75.5558417,28.2255007 L75.4631556,28.2579239 L75.3575543,28.2767746 L75.251953,28.2903471 L75.1463517,28.2978874 L75.0673406,28.2978874 L75.0004851,28.2903471 L74.9283115,28.2767746 L74.8622158,28.2639561 L74.7968797,28.2518917 L74.7307839,28.231533 L74.6715256,28.205142 L74.6115076,28.1802591 L74.5514896,28.1531141 L74.4922313,28.120691 L74.4398105,28.0867597 L74.3934675,28.0490584 L74.3410467,28.0015547 L74.2939439,27.9630993 L74.2483606,27.9178576 L74.2088551,27.8650757 L74.1685898,27.8115398 L74.129844,27.760266 L74.097176,27.7014518 L74.0637483,27.6426377 L74.00449,27.5174692 L73.9581469,27.3862685 L73.9178817,27.2414952 L73.8920512,27.097476 L73.8791359,26.9413924 L73.8722984,26.7838007 L73.8722984,26.6322412 L73.8852137,26.4821898 L73.9049664,26.3313844 L73.9315567,26.1873652 L73.9649844,26.0486242 L74.0105677,25.9181775 L74.0705858,25.793763 L74.1359218,25.6761347 L74.1754273,25.6233528 L74.2156926,25.572079 L74.2551981,25.518543 L74.3007814,25.4733014 L74.3539619,25.4273057 L74.400305,25.3873423 L74.4595633,25.3549191 L74.5188215,25.3157097 L74.5780798,25.2893188 L74.6441756,25.2621738 L74.7102714,25.2372909 L74.7832047,25.2169322 L74.856138,25.2033597 L74.935149,25.1920493 L75.0209976,25.184509 L75.1068461,25.184509 L75.2587905,25.1920493 L75.3970598,25.2108999 L75.5231736,25.2372909 L75.6280152,25.2757463 L75.726779,25.322496 L75.8065498,25.3820641 L75.8787234,25.4408782 L75.9448192,25.5057246 L75.9979997,25.572079 L76.0375052,25.6437116 L76.0770107,25.7145901 L76.1028413,25.7809445 L76.1233538,25.8457909 L76.1431065,25.9121452 L76.149944,25.9709594 L76.1567815,26.0237413 L76.6650353,26.0237413 L76.6513603,25.9181775 L76.6316076,25.8073355 L76.5989395,25.7025257 L76.5655118,25.5909297 L76.5191688,25.4793336 L76.4599105,25.3745238 L76.3938147,25.2757463 L76.3148036,25.184509 L76.2684606,25.1385133 L76.2160398,25.0932717 L76.1628593,25.0533082 L76.1096788,25.0133448 L76.0504205,24.9756434 L75.9843247,24.9417122 L75.9182289,24.9092891 L75.8460553,24.8821441 L75.7670443,24.8572612 L75.6872735,24.8308702 L75.601425,24.8105115 L75.5163361,24.7909068 L75.4168126,24.7780883 L75.3180488,24.7720561 L75.2185252,24.7645158 L75.1068461,24.7584836 L75.0339129,24.7645158 L74.9412268,24.7645158 L74.8227102,24.7780883 L74.6973561,24.8044793 L74.5514896,24.8369024 L74.4071425,24.8821441 L74.3273717,24.9160753 L74.2551981,24.9545307 L74.1754273,24.9944941 L74.1024941,25.0397358 L74.0242427,25.0932717 L73.9513094,25.1520858 L73.8791359,25.2169322 L73.8130401,25.2893188 L73.7469443,25.3684916 L73.6808485,25.4536967 L73.6215902,25.544934 L73.5684097,25.6497438 L73.5152292,25.7620938 L73.4696459,25.8797221 L73.4301404,26.0109228 L73.3967126,26.1474017 L73.3708821,26.2989612 L73.3503696,26.4550448 L73.3374543,26.626209 L73.3306168,26.8026514 L73.3374543,26.9150014 L73.3435321,27.0190572 L73.3503696,27.123867 L73.3640446,27.2286768 L73.3830376,27.3274543 L73.4035501,27.4262319 L73.4301404,27.5174692 L73.4559709,27.6087065 L73.4893987,27.6939116 L73.5220667,27.7791166 L73.5623319,27.8590435 L73.6010777,27.9367083 L73.6474208,28.0090949 L73.7006013,28.0814815 L73.7537818,28.1463279 L73.8062026,28.205142 L73.8654609,28.2714964 L73.9315567,28.3242783 L73.9976525,28.3755522 L74.0637483,28.4290881 L74.1359218,28.4743297 L74.2088551,28.5142932 L74.2886259,28.5527486 L74.3737147,28.5866798 L74.4527258,28.6191029 L74.539334,28.6454939 L74.6312604,28.6643446 L74.7239464,28.6839493 L74.8227102,28.6967678 L74.9153963,28.7103402 L75.0209976,28.7171265 L75.1197614,28.7171265 L75.2322002,28.7171265 L75.3370418,28.7103402 L75.4365654,28.6967678 L75.5353292,28.6839493 L75.6219374,28.6643446 L75.707786,28.6379536 L75.7928748,28.6115627 L75.8658081,28.5866798 L75.9387414,28.5527486 L76.010915,28.5142932 L76.0770107,28.4743297 L76.136269,28.4343663 L76.1955273,28.3891246 L76.2487078,28.343129 L76.2950509,28.2978874 L76.3413939,28.2443514 L76.4264827,28.1402957 L76.499416,28.0354859 L76.5586743,27.9178576 L76.6050173,27.8055076 L76.6445228,27.6939116 L76.6711131,27.5838236 L76.6977034,27.4714735 L76.7106186,27.3666637 L76.2092023,27.3666637 Z M70.7825103,28.6055305 L71.3097571,28.6055305 L71.3097571,28.0279456 L70.7825103,28.0279456 L70.7825103,28.6055305 Z M66.3662481,25.296105 L67.4161835,25.296105 L67.5012723,25.296105 L67.5871208,25.3021372 L67.6668916,25.3157097 L67.7459027,25.3285282 L67.8180762,25.3421007 L67.884172,25.3684916 L67.9434303,25.3933745 L68.0034483,25.4273057 L68.0566288,25.4657611 L68.1022121,25.5125108 L68.1417177,25.5645387 L68.1751454,25.6233528 L68.2017357,25.6897072 L68.2207287,25.7620938 L68.2275662,25.8397586 L68.2344037,25.9309959 L68.2275662,26.0373138 L68.214651,26.1285511 L68.1880607,26.2062159 L68.1546329,26.2786025 L68.1090496,26.3449569 L68.0627066,26.3962307 L68.0102858,26.4422264 L67.9571053,26.4821898 L67.897847,26.514613 L67.8317512,26.5410039 L67.7717332,26.5613627 L67.7124749,26.5802134 L67.5939583,26.5937858 L67.4944348,26.5998181 L66.3662481,26.5998181 L66.3662481,25.296105 Z M65.8579943,28.6055305 L66.3662481,28.6055305 L66.3662481,27.0190572 L67.442014,27.0190572 L67.5605306,27.0250894 L67.6600541,27.0386619 L67.7519804,27.0650529 L67.8317512,27.0914438 L67.9039248,27.1314073 L67.9571053,27.1698626 L68.0034483,27.2226445 L68.0429539,27.2754265 L68.0756219,27.3342406 L68.1022121,27.3938087 L68.1158871,27.4654413 L68.1288024,27.5302876 L68.1417177,27.6750609 L68.1485552,27.8115398 L68.1485552,27.982704 L68.1546329,28.120691 L68.1614704,28.2390732 L68.1683079,28.3303105 L68.1880607,28.4155156 L68.2078135,28.4803619 L68.2412412,28.5467163 L68.2868245,28.6055305 L68.8216686,28.6055305 L68.7692478,28.5263576 L68.7289825,28.4479388 L68.7099895,28.3695199 L68.689477,28.2767746 L68.6765617,28.0415181 L68.6697242,27.7142703 L68.6628868,27.5702511 L68.6507312,27.4390504 L68.6370562,27.372696 L68.6241409,27.3078496 L68.6036285,27.2490355 L68.5846354,27.1902214 L68.5512077,27.1314073 L68.5185396,27.0786253 L68.4714369,27.0250894 L68.4258536,26.9798478 L68.3597578,26.9338521 L68.293662,26.8886105 L68.214651,26.848647 L68.1288024,26.8162239 L68.1288024,26.7973732 L68.2017357,26.7762604 L68.2739092,26.7513775 L68.340005,26.7174463 L68.3992633,26.6789909 L68.4592813,26.6322412 L68.5117021,26.5802134 L68.5580452,26.5274315 L68.6036285,26.4625851 L68.6438937,26.403771 L68.6765617,26.3313844 L68.703152,26.2597518 L68.7289825,26.1873652 L68.749495,26.1074383 L68.7624103,26.0297735 L68.7692478,25.9513547 L68.7692478,25.8721818 L68.7692478,25.7869767 L68.7624103,25.7085579 L68.749495,25.6308931 L68.73582,25.5645387 L68.716827,25.4921521 L68.689477,25.433338 L68.6628868,25.3745238 L68.6302187,25.322496 L68.596791,25.2697141 L68.5641229,25.2244724 L68.5253771,25.184509 L68.4851119,25.1445455 L68.4387689,25.1060902 L68.3931856,25.0796992 L68.3460828,25.047276 L68.3004995,25.0208851 L68.2017357,24.9756434 L68.0953746,24.9417122 L67.9966108,24.9160753 L67.8910095,24.8957166 L67.6927222,24.8768659 L67.5278625,24.8768659 L65.8579943,24.8768659 L65.8579943,28.6055305 Z M61.9165581,26.4686173 L61.9165581,25.296105 L64.0886024,25.296105 L64.0886024,24.8768659 L61.4143821,24.8768659 L61.4143821,28.6055305 L64.1478607,28.6055305 L64.1478607,28.1855373 L61.9165581,28.1855373 L61.9165581,26.8886105 L63.8903151,26.8886105 L63.8903151,26.4686173 L61.9165581,26.4686173 Z M57.9948748,25.296105 L57.9948748,28.6055305 L58.4970508,28.6055305 L58.4970508,25.296105 L59.7186833,25.296105 L59.7186833,24.8768659 L56.7671645,24.8768659 L56.7671645,25.296105 L57.9948748,25.296105 Z M54.5161091,28.6055305 L55.0243629,28.6055305 L55.0243629,24.8768659 L54.5161091,24.8768659 L54.5161091,28.6055305 Z M50.4364037,25.296105 L51.3602252,25.296105 L51.4665863,25.296105 L51.5585126,25.3021372 L51.6511986,25.3157097 L51.7370472,25.3345604 L51.8160582,25.3549191 L51.882154,25.3820641 L51.9482498,25.4144873 L52.0075081,25.4536967 L52.0538511,25.4996924 L52.1001942,25.544934 L52.1328622,25.5969619 L52.1655302,25.655776 L52.1860427,25.7221304 L52.2057955,25.793763 L52.212633,25.8721818 L52.2187107,25.9573869 L52.212633,26.043346 L52.2057955,26.1285511 L52.1860427,26.2062159 L52.1655302,26.2786025 L52.1396997,26.3449569 L52.1001942,26.403771 L52.0606886,26.4625851 L52.0143456,26.5085808 L51.9550873,26.5538224 L51.8889915,26.5937858 L51.8228957,26.626209 L51.743125,26.6526 L51.6580361,26.6722047 L51.5653501,26.6850231 L51.4665863,26.6925634 L51.3602252,26.6985956 L50.4364037,26.6985956 L50.4364037,25.296105 Z M49.9281498,24.8768659 L49.9281498,28.6055305 L50.4364037,28.6055305 L50.4364037,27.1178348 L51.4134057,27.1178348 L51.5851028,27.1110485 L51.7499625,27.097476 L51.895829,27.0725931 L52.0272609,27.0326297 L52.0933567,27.013779 L52.1465372,26.9873881 L52.2057955,26.9602431 L52.258976,26.9338521 L52.3045593,26.901429 L52.3509023,26.8690058 L52.3972453,26.8297964 L52.4367509,26.7973732 L52.5096841,26.7114141 L52.5689424,26.626209 L52.6213632,26.5274315 L52.6608688,26.4226217 L52.6942965,26.3110256 L52.7140493,26.1933974 L52.7269646,26.0757692 L52.733802,25.9445684 L52.7269646,25.8073355 L52.7072118,25.6761347 L52.6806215,25.5585065 L52.641116,25.4536967 L52.6213632,25.4009148 L52.594773,25.3549191 L52.5621049,25.3096775 L52.5355147,25.2697141 L52.4633411,25.1920493 L52.3843301,25.1196626 L52.2977218,25.0608485 L52.198958,25.0080666 L52.0933567,24.9681032 L51.9809179,24.93568 L51.8624013,24.9092891 L51.7370472,24.8896843 L51.5980181,24.8768659 L51.4597488,24.8768659 L49.9281498,24.8768659 Z M47.1620032,28.6055305 L47.6968472,28.6055305 L47.6968472,28.0279456 L47.1620032,28.0279456 L47.1620032,28.6055305 Z M43.5571237,25.4657611 L44.3365982,28.6055305 L44.9831214,28.6055305 L45.9798762,24.8768659 L45.4123641,24.8768659 L44.6268119,28.0090949 L43.8480971,24.8768659 L43.26691,24.8768659 L42.4881953,28.0090949 L41.7026431,24.8768659 L41.1343713,24.8768659 L42.1311261,28.6055305 L42.778409,28.6055305 L43.5571237,25.4657611 Z M37.6426904,25.4657611 L38.4214051,28.6055305 L39.068688,28.6055305 L40.0654428,24.8768659 L39.4979307,24.8768659 L38.7123785,28.0090949 L37.9329041,24.8768659 L37.351717,24.8768659 L36.5730022,28.0090949 L35.78745,24.8768659 L35.2199379,24.8768659 L36.2166928,28.6055305 L36.8632159,28.6055305 L37.6426904,25.4657611 Z M31.7274973,25.4657611 L32.5069717,28.6055305 L33.1534949,28.6055305 L34.1502498,24.8768659 L33.5827376,24.8768659 L32.7971854,28.0090949 L32.017711,24.8768659 L31.4372836,24.8768659 L30.6578091,28.0090949 L29.8722569,24.8768659 L29.3047448,24.8768659 L30.3014997,28.6055305 L30.9487825,28.6055305 L31.7274973,25.4657611 Z M103.751393,11.1083289 L103.751393,11.0683655 L103.744555,11.0291561 L103.737718,10.9907007 L103.724803,10.9575235 L103.70429,10.9243463 L103.685297,10.8919231 L103.658707,10.8655322 L103.632116,10.8459275 L103.599448,10.8195365 L103.566021,10.806718 L103.526515,10.7871133 L103.48701,10.7742949 L103.387486,10.7607224 L103.275807,10.7539361 L102.840486,10.7539361 L102.840486,11.5072093 L103.315313,11.5072093 L103.367733,11.5011771 L103.414836,11.5011771 L103.460419,11.4883586 L103.499925,11.4747862 L103.54019,11.4619677 L103.578936,11.442363 L103.605526,11.4227583 L103.638194,11.3971214 L103.665544,11.3707304 L103.685297,11.3383072 L103.70429,11.30513 L103.724803,11.2719528 L103.737718,11.2327434 L103.744555,11.193534 L103.751393,11.1535706 L103.751393,11.1083289 Z M104.233056,12.8124304 L103.790898,12.8124304 L103.777223,12.7988579 L103.763548,12.7860395 L103.757471,12.772467 L103.744555,12.7536163 L103.73164,12.7000804 L103.724803,12.6412663 L103.711128,12.4836746 L103.711128,12.2936597 L103.70429,12.2348456 L103.691375,12.1835717 L103.67846,12.1368221 L103.658707,12.0908264 L103.638194,12.0448307 L103.619201,12.0056213 L103.585773,11.9724441 L103.559943,11.940021 L103.526515,11.91363 L103.48701,11.8879931 L103.447504,11.8683884 L103.407999,11.8487837 L103.354818,11.8359652 L103.308475,11.8284249 L103.256054,11.8223927 L103.196036,11.8223927 L102.840486,11.8223927 L102.840486,12.8124304 L102.358063,12.8124304 L102.358063,10.4395068 L103.394324,10.4395068 L103.493087,10.4395068 L103.592611,10.446293 L103.67846,10.4591115 L103.757471,10.4794702 L103.836482,10.4983209 L103.902577,10.5247119 L103.968673,10.557135 L104.021094,10.5970985 L104.068197,10.6430941 L104.11378,10.6883358 L104.146448,10.7471499 L104.179876,10.806718 L104.200388,10.8723184 L104.219381,10.944705 L104.226219,11.0231239 L104.233056,11.1083289 L104.233056,11.1535706 L104.226219,11.1995662 L104.212544,11.2395297 L104.200388,11.2787391 L104.186713,11.3171945 L104.166961,11.3571579 L104.14037,11.3895811 L104.11378,11.4295445 L104.08719,11.4619677 L104.054522,11.4883586 L104.021094,11.5147496 L103.982348,11.5403865 L103.936005,11.5667775 L103.889662,11.5871362 L103.843319,11.6059869 L103.790898,11.6255916 L103.790898,11.664801 L103.836482,11.6715873 L103.876747,11.6851598 L103.916252,11.7047645 L103.94892,11.7236151 L103.982348,11.7439739 L104.008938,11.7771511 L104.041606,11.802788 L104.061359,11.8359652 L104.080352,11.8751746 L104.100865,11.91363 L104.11378,11.9596257 L104.127455,11.9995891 L104.146448,12.1036449 L104.153286,12.2159949 L104.160123,12.3404094 L104.179876,12.4836746 L104.200388,12.6412663 L104.233056,12.8124304 Z M14.3389872,15.2230554 L14.1148693,14.9154123 L13.8899917,14.6138015 L13.6658738,14.3257631 L13.4349184,14.0437569 L13.2100408,13.7685369 L12.9790854,13.5068895 L12.7549675,13.244488 L12.5232524,13.0024453 L12.292297,12.7588945 L12.0613416,12.5304243 L11.8303862,12.3072322 L11.5994308,12.0908264 L11.3677157,11.8879931 L11.1306825,11.691192 L10.8997271,11.5011771 L10.6619342,11.3247347 L10.4309788,11.1535706 L10.1931859,10.9907007 L9.95539304,10.8391412 L9.71760016,10.695122 L9.47980727,10.557135 L9.24201438,10.4266883 L8.99814371,10.3083061 L8.76035082,10.2042503 L8.51648016,10.0994405 L8.27868727,10.0066952 L8.03481661,9.92827634 L7.79018622,9.84985751 L7.54555584,9.79104339 L7.30168518,9.73222927 L7.05705479,9.68547958 L6.81318413,9.64627016 L2.91125352,22.3011089 L3.19538943,22.0387074 L3.49244062,21.7838462 L3.7894918,21.527477 L4.09945825,21.278648 L4.41626219,21.0222788 L4.73990363,20.7734498 L5.07722006,20.5246208 L5.41301705,20.2833321 L5.75717098,20.0405353 L6.10664296,19.7969845 L6.46978992,19.5556958 L6.83293689,19.3189313 L7.20899913,19.0829208 L7.58506137,18.8476643 L7.96872082,18.617686 L8.36453582,18.3816754 L8.60840649,18.2376563 L8.87278963,18.0876048 L9.15692555,17.9300131 L9.45397673,17.7663892 L9.77078067,17.5899469 L10.1004999,17.4052102 L10.4507316,17.2227356 L10.8138786,17.0259345 L11.1967783,16.8223472 L11.5925933,16.6134816 L12.0089208,16.402354 L12.4442413,16.179916 L12.8932368,15.9506917 L13.3551476,15.7146812 L13.8368112,15.4726385 L14.3389872,15.2230554 Z M93.6372179,2.60818014 L93.6372179,2.51618882 L93.6243026,2.43098374 L93.6106277,2.34653269 L93.5908749,2.26735984 L93.5650444,2.2025135 L93.5316166,2.1361591 L93.4989486,2.07734498 L93.4526055,2.0253171 L93.399425,1.97328922 L93.3470042,1.93332578 L93.2869862,1.90090261 L93.2148127,1.87451166 L93.1418794,1.8481207 L93.063628,1.83530224 L92.9770198,1.82172975 L92.8774962,1.82172975 L92.7924074,1.82172975 L92.7065588,1.828516 L92.6207103,1.8481207 L92.5416992,1.86093917 L92.4626882,1.88733012 L92.3897549,1.91975329 L92.3168216,1.95293049 L92.2438883,1.9921399 L92.1717148,2.03813556 L92.105619,2.09091747 L92.0395232,2.14294535 L91.9734274,2.2025135 L91.9073316,2.26735984 L91.8480733,2.33974645 L91.788815,2.41213306 L91.7227193,2.49055189 L91.6702985,2.56972475 L91.6171179,2.65492982 L91.5646971,2.73259463 L91.5244319,2.81855373 L91.4849264,2.90375881 L91.4461806,2.98217764 L91.4127528,3.06738271 L91.3869223,3.14580154 L91.3595723,3.23100662 L91.3398195,3.31621169 L91.3261445,3.40141677 L91.313989,3.48662184 L91.2934765,3.65703199 L91.2873987,3.83422839 L91.2934765,3.93903817 L91.300314,4.03027546 L91.313989,4.11548054 L91.332982,4.19389937 L91.3595723,4.26628598 L91.3922403,4.33264038 L91.4256681,4.3914545 L91.4720111,4.43669613 L91.5175944,4.48269179 L91.5776124,4.52265524 L91.6376304,4.55507841 L91.709804,4.58146936 L91.7819775,4.60032004 L91.8617483,4.61389253 L91.9475969,4.62671099 L92.0463607,4.62671099 L92.1253717,4.62671099 L92.2051425,4.61992475 L92.2841536,4.60786031 L92.3631646,4.58674755 L92.4421757,4.56789687 L92.515109,4.54150592 L92.59412,4.50908275 L92.6670533,4.47665958 L92.7399866,4.42990989 L92.8060824,4.38466826 L92.8774962,4.33264038 L92.943592,4.27910445 L93.0096878,4.21425811 L93.0757836,4.14790371 L93.1350419,4.07627112 L93.2011377,3.99106605 L93.3006612,3.82744214 L93.3865098,3.66381824 L93.4586833,3.49265406 L93.5247791,3.31621169 L93.5711221,3.13976932 L93.6106277,2.96860515 L93.6174652,2.87736785 L93.6311401,2.79216278 L93.6372179,2.70092548 L93.6372179,2.60818014 Z M105.189546,11.6255916 L105.183468,11.5207818 L105.17739,11.4227583 L105.170553,11.3171945 L105.1508,11.2259572 L105.130288,11.1271796 L105.104457,11.0359423 L105.077867,10.944705 L105.045199,10.8519597 L105.004934,10.7675086 L104.966188,10.6755173 L104.919085,10.5970985 L104.866664,10.5118934 L104.813484,10.4327205 L104.754225,10.3543017 L104.694967,10.2758829 L104.628871,10.19671 L104.555938,10.1318637 L104.476927,10.0594771 L104.397916,10.000663 L104.318905,9.94184883 L104.233056,9.88906693 L104.146448,9.83703905 L104.061359,9.79782963 L103.975511,9.75786619 L103.883584,9.71865678 L103.790898,9.69301985 L103.691375,9.6666289 L103.599448,9.64627016 L103.499925,9.62666545 L103.401161,9.62063324 L103.301638,9.60781477 L103.196036,9.60781477 L103.10411,9.60781477 L103.018261,9.62063324 L102.932413,9.62666545 L102.845805,9.64627016 L102.760716,9.6666289 L102.674867,9.69301985 L102.589019,9.71865678 L102.510008,9.75786619 L102.424159,9.79782963 L102.344388,9.83703905 L102.265377,9.88906693 L102.186366,9.94184883 L102.107355,10.000663 L102.034422,10.0594771 L101.955411,10.1318637 L101.882477,10.19671 L101.810304,10.2758829 L101.743448,10.3543017 L101.678112,10.4327205 L101.618094,10.5118934 L101.565673,10.5970985 L101.51933,10.6755173 L101.473747,10.7675086 L101.433482,10.8519597 L101.400814,10.944705 L101.367386,11.0359423 L101.341556,11.1271796 L101.321803,11.2259572 L101.30129,11.3171945 L101.294453,11.4227583 L101.289135,11.5207818 L101.282297,11.6255916 L101.289135,11.7311554 L101.294453,11.8419974 L101.30129,11.9468072 L101.321803,12.0448307 L101.341556,12.1436083 L101.367386,12.2423859 L101.400814,12.3404094 L101.433482,12.4324007 L101.473747,12.5168518 L101.51933,12.6088431 L101.565673,12.6940482 L101.618094,12.772467 L101.678112,12.8576721 L101.743448,12.9368449 L101.810304,13.0152638 L101.882477,13.0876504 L101.955411,13.160037 L102.034422,13.2248833 L102.107355,13.2904837 L102.186366,13.3425116 L102.265377,13.4013257 L102.344388,13.4473214 L102.424159,13.494071 L102.510008,13.5325264 L102.589019,13.5657036 L102.674867,13.5988808 L102.760716,13.6252718 L102.845805,13.6441225 L102.932413,13.6576949 L103.018261,13.6705134 L103.10411,13.6765456 L103.196036,13.6840859 L103.301638,13.6765456 L103.401161,13.6705134 L103.499925,13.6576949 L103.599448,13.6441225 L103.691375,13.6252718 L103.790898,13.5988808 L103.883584,13.5657036 L103.975511,13.5325264 L104.061359,13.494071 L104.146448,13.4473214 L104.233056,13.4013257 L104.318905,13.3425116 L104.397916,13.2904837 L104.476927,13.2248833 L104.555938,13.160037 L104.628871,13.0876504 L104.694967,13.0152638 L104.754225,12.9368449 L104.813484,12.8576721 L104.866664,12.772467 L104.919085,12.6940482 L104.966188,12.6088431 L105.004934,12.5168518 L105.045199,12.4324007 L105.077867,12.3404094 L105.104457,12.2423859 L105.130288,12.1436083 L105.1508,12.0448307 L105.170553,11.9468072 L105.17739,11.8419974 L105.183468,11.7311554 L105.189546,11.6255916 Z M26.9678409,19.4893414 L26.0896026,22.1774485 L25.7925514,22.3403183 L25.4757475,22.5039422 L25.1323533,22.6675661 L24.7760438,22.8326981 L24.3863066,22.996322 L23.9836541,23.1591919 L23.5544113,23.3228158 L23.099338,23.4804075 L22.7096008,23.6304589 L22.3267011,23.7827724 L21.9369638,23.9267916 L21.5411488,24.076843 L21.1514116,24.2268944 L20.7555966,24.3716676 L20.3529441,24.5232271 L19.9571291,24.6672463 L19.375942,24.8957166 L18.8015924,25.1385133 L18.2272428,25.4009148 L17.6460557,25.6685945 L17.0648686,25.9513547 L16.4844413,26.2522115 L15.9032542,26.5673949 L15.3220671,26.8886105 L14.7348022,27.2286768 L14.1475373,27.5762833 L13.5602725,27.9427405 L12.9722479,28.3242783 L12.3781455,28.7171265 L11.7840432,29.1227931 L11.1899408,29.536 L10.5958384,29.9680576 L9.28227963,28.4290881 L9.66517936,28.1267232 L10.0541569,27.8326526 L10.4438941,27.5378279 L10.8404688,27.2550677 L11.2423616,26.9738156 L11.6457738,26.6985956 L12.0545041,26.4301619 L12.4639941,26.1685145 L12.8803216,25.9121452 L13.3027268,25.655776 L13.7251321,25.406947 L14.1536151,25.1649043 L14.5828579,24.9221075 L15.0189381,24.686851 L15.4542586,24.4568727 L15.8903389,24.2344347 L16.1805526,24.0904155 L16.4776038,23.9456423 L16.7883299,23.8016231 L17.1112117,23.6515717 L17.4416906,23.49398 L17.7850848,23.3431745 L18.1353165,23.1787966 L18.4977037,23.022713 L18.8745257,22.857581 L19.2635032,22.6879249 L19.6593182,22.5175147 L20.0688082,22.3463505 L20.4919732,22.1699082 L20.9272937,21.9927118 L21.3694517,21.8087291 L21.8252848,21.6262546 L22.2811178,21.4498122 L22.7164383,21.278648 L23.1320061,21.1150241 L23.5346586,20.9574324 L23.9175583,20.807381 L24.2875428,20.6633618 L24.630937,20.5185886 L24.9606562,20.3806016 L25.2774601,20.2494009 L25.5684335,20.1257404 L25.8449722,20.0081122 L26.1025179,19.8897299 L26.3471483,19.7841661 L26.5720259,19.6793563 L26.776391,19.5805787 L26.9678409,19.4893414 Z M28.6779744,13.5589174 L27.7594709,16.5275225 L27.6341168,16.6398726 L27.4829322,16.763533 L27.3043976,16.8887016 L27.1061102,17.0259345 L26.8751548,17.1639215 L26.6183689,17.3071867 L26.334233,17.4647784 L26.0235068,17.62237 L25.6869501,17.7927802 L25.3238031,17.9624363 L24.9348256,18.1403867 L24.5184981,18.3304016 L24.0763401,18.5204165 L23.6007543,18.7164635 L23.1061755,18.9268371 L22.5842467,19.1357027 L22.215022,19.2729356 L21.851875,19.4169548 L21.4818905,19.5556958 L21.1187436,19.699715 L20.7555966,19.836948 L20.3856121,19.9809672 L20.0224652,20.1182001 L19.6532404,20.2629734 L19.2900935,20.4009603 L18.9269465,20.5457336 L18.556962,20.6822125 L18.1945748,20.8269857 L17.8245903,20.9634646 L17.4614434,21.1082379 L17.0922186,21.2462248 L16.7283119,21.3909981 L15.9891027,21.7370966 L15.2764838,22.0847031 L14.5828579,22.4262774 L13.9165819,22.7663437 L13.2624616,23.10641 L12.6356912,23.4479843 L12.0279138,23.7880506 L11.440649,24.1228387 L10.8799743,24.4568727 L10.3314553,24.7909068 L9.8102862,25.1196626 L9.31494766,25.4536967 L8.83328411,25.7809445 L8.37745109,26.1074383 L7.94213056,26.4361942 L7.52580308,26.763442 L6.17273874,25.3820641 L6.54272321,25.0533082 L6.92562294,24.7260604 L7.32143794,24.4055989 L7.72409044,24.0828752 L8.1396582,23.7752321 L8.56890096,23.4615568 L9.00498121,23.1591919 L9.45397673,22.8651213 L9.91588752,22.5702966 L10.3846358,22.274718 L10.8662994,21.9927118 L11.3548004,21.7114596 L11.8562167,21.4362397 L12.3652303,21.167052 L12.8932368,20.8986183 L13.4212434,20.6369708 L13.599778,20.5510117 L13.8170584,20.4522342 L14.0746041,20.3421462 L14.3716552,20.2109455 L14.7082119,20.059386 L15.0918714,19.8897299 L15.5074392,19.7117795 L15.96935,19.5097002 L16.471526,19.2932944 L17.0192853,19.0640701 L17.5997127,18.8152411 L18.2272428,18.5452994 L18.8942785,18.2640472 L19.6068974,17.9624363 L20.3529441,17.648761 L21.1514116,17.3200051 L21.7325987,17.0711761 L22.3001108,16.8298874 L22.8547076,16.5870907 L23.3895517,16.3435399 L23.9114805,16.1082834 L24.4197343,15.8654866 L24.9143131,15.6294761 L25.3898989,15.3942196 L25.8518097,15.1582091 L26.3008052,14.9282308 L26.7368855,14.6997606 L27.1524533,14.462996 L27.5551057,14.240558 L27.944843,14.0113337 L28.3209052,13.7888957 L28.6779744,13.5589174 Z M30.7109897,7.15722633 L29.634464,10.5186797 L29.4498516,10.6823036 L29.2318115,10.8595 L28.9940186,11.0359423 L28.7303952,11.2191709 L28.433344,11.415972 L28.1097026,11.6127731 L27.7594709,11.8156065 L27.3834086,12.0320123 L26.9739187,12.2484181 L26.5454356,12.4716101 L26.0827651,12.7076207 L25.5881863,12.9436312 L25.073095,13.1856739 L24.5253356,13.4345029 L23.9441485,13.6969044 L23.3439684,13.9585518 L22.9078882,14.1365022 L22.4725676,14.3129446 L22.0433249,14.489387 L21.6072446,14.6605511 L21.1719241,14.8369935 L20.7358438,15.0141899 L20.3066011,15.1846001 L19.8712806,15.3617965 L19.4352003,15.5314526 L18.9998798,15.708649 L18.5637995,15.8858454 L18.128479,16.0547475 L17.6855613,16.2334519 L17.2502407,16.4098943 L16.807323,16.5870907 L16.3720025,16.763533 L15.9298444,16.9475157 L15.4937642,17.1375305 L15.0652811,17.3275454 L14.6360384,17.5175603 L14.2067956,17.7136073 L13.7843904,17.9164407 L13.3619851,18.120028 L12.9524951,18.3304016 L12.5361676,18.5392671 L12.1274374,18.7556729 L11.7179474,18.9728328 L11.3152949,19.1952708 L10.9194799,19.4169548 L10.5236649,19.6469331 L10.1270901,19.8769114 L9.73735292,20.1121679 L9.34837541,20.3557187 L8.96547568,20.5970074 L8.58865372,20.8398042 L8.21259148,21.0886332 L7.83652925,21.3434944 L7.46654478,21.5998636 L7.09656032,21.8622651 L6.73417307,22.1239125 L6.37710388,22.3923462 L6.0207944,22.6615339 L5.66448493,22.9367539 L5.31501295,23.2127278 L4.96478125,23.49398 L4.62138705,23.7752321 L4.27799284,24.0640245 L3.94143614,24.3520629 L0,24.3520629 L5.21548941,7.27485457 L5.42669204,7.28088679 L5.63789467,7.3004915 L5.84225981,7.31406399 L6.04738466,7.33366869 L6.2517498,7.36005965 L6.46295243,7.39248282 L6.66807729,7.42490599 L6.87244242,7.45732916 L7.07072978,7.50407884 L7.27509492,7.54253423 L7.48021977,7.59607016 L7.67774741,7.64809804 L7.88211255,7.70012592 L8.08039991,7.75969407 L8.28552477,7.82454041 L8.48305241,7.89014078 L8.68133977,7.96252739 L8.87886741,8.04170025 L9.08399226,8.12011908 L9.28227963,8.20532415 L9.47980727,8.29052923 L9.67125713,8.38252055 L9.86954449,8.47375784 L10.0678319,8.57253541 L10.2653595,8.67055895 L10.4636469,8.77536873 L10.6550967,8.88696476 L10.8533841,8.99780676 L11.2423616,9.24060352 L11.6320988,9.4894325 L11.9686555,9.73222927 L12.305972,9.98105825 L12.6288537,10.2366735 L12.9524951,10.5051072 L13.2692991,10.7803271 L13.5731877,11.0623333 L13.8770764,11.3571579 L14.1672901,11.6587688 L14.4575038,11.9671659 L14.7416397,12.2876275 L15.0121006,12.6148753 L15.2833213,12.9564496 L15.5469447,13.2965159 L15.7976529,13.6576949 L16.048361,14.0173659 L16.2929914,14.3906094 L17.1575547,14.0437569 L17.9765347,13.7225413 L18.7423341,13.4216844 L19.4488753,13.1389242 L20.1083137,12.8772768 L20.7092536,12.635234 L21.2638504,12.4188282 L21.759189,12.2159949 L22.2081845,12.0387985 L22.5979217,11.8812068 L22.9405562,11.7439739 L23.2315296,11.6255916 L23.462485,11.5283221 L23.6470974,11.4483952 L23.7792889,11.3895811 L23.8583,11.3435854 L24.4326496,11.0887242 L24.9872464,10.8263228 L25.5220905,10.5639213 L26.0364221,10.3022738 L26.5317606,10.0398724 L27.0141839,9.7774709 L27.4692572,9.51582345 L27.9121749,9.25342198 L28.3277427,8.99102051 L28.7303952,8.7301271 L29.1064574,8.46772563 L29.4696044,8.19853791 L29.8129986,7.93613644 L30.1298026,7.68127524 L30.2817469,7.5500745 L30.4268537,7.41887377 L30.5719606,7.28842706 L30.7109897,7.15722633 Z M11.4338115,0.871655461 L9.95539304,5.61674873 L8.60232871,5.61674873 L9.67809463,2.21533196 L9.53298778,2.28771857 L9.38788094,2.3661374 L9.24201438,2.45134248 L9.10374503,2.52976131 L8.83328411,2.70620367 L8.56890096,2.89018632 L8.3181928,3.08623339 L8.07356242,3.28982074 L7.83652925,3.50019433 L7.60557385,3.71584612 L7.05097702,5.61674873 L5.69715296,5.61674873 L7.12998807,0.871655461 L8.48305241,0.871655461 L8.12674293,2.1361591 L8.37745109,1.91975329 L8.62815925,1.72446024 L8.87278963,1.53972357 L9.1166603,1.37006745 L9.2359366,1.29089459 L9.35445319,1.21926201 L9.47980727,1.15441567 L9.59908357,1.08806127 L9.71760016,1.02321493 L9.83687646,0.970433026 L9.95539304,0.917651121 L10.0739096,0.871655461 L11.4338115,0.871655461 Z M15.4937642,3.08623339 L15.5666975,3.10734615 L15.6327932,3.13976932 L15.698889,3.16616028 L15.7649848,3.20461566 L15.8174056,3.24382508 L15.8705861,3.28378852 L15.9169292,3.32978418 L15.9632722,3.37502581 L16.002018,3.42780772 L16.0354457,3.4798356 L16.062036,3.53940375 L16.0886263,3.60500412 L16.108379,3.66381824 L16.1212943,3.73620485 L16.1281318,3.80105119 L16.1281318,3.87268378 L16.1281318,3.99106605 L16.1144568,4.10266208 L16.094704,4.21425811 L16.062036,4.31228164 L16.0286082,4.41784545 L15.9830249,4.50908275 L15.9298444,4.60032004 L15.8705861,4.69231136 L15.7976529,4.77751643 L15.7186418,4.85668929 L15.6327932,4.94189437 L15.5408669,5.01352695 L15.4413434,5.09194578 L15.3357421,5.1643324 L15.2172255,5.22993276 L15.0979492,5.30156535 L14.9991854,5.34756101 L14.8996618,5.3943107 L14.7948202,5.43955233 L14.6952967,5.47876174 L14.5828579,5.51193894 L14.4772566,5.54436211 L14.3716552,5.57678528 L14.2592164,5.60317624 L14.1475373,5.62353497 L14.028261,5.64313968 L13.9165819,5.65595814 L13.7980654,5.6687766 L13.553435,5.68838131 L13.3027268,5.69441353 L13.1507825,5.69441353 L13.0056756,5.68838131 L12.8537313,5.68234909 L12.7078647,5.6687766 L12.5566801,5.65595814 L12.4047358,5.64313968 L12.2596289,5.62956719 L12.1076846,5.61674873 L12.4244885,4.54904619 L12.6022634,4.56111062 L12.7610453,4.57468311 L12.9129896,4.59428782 L13.0512589,4.60032004 L13.1834505,4.61389253 L13.3027268,4.61992475 L13.4083281,4.62671099 L13.5002545,4.62671099 L13.6256085,4.62671099 L13.7448848,4.61992475 L13.8573237,4.60786031 L13.9621652,4.58674755 L14.0685263,4.56789687 L14.1604526,4.54150592 L14.2463012,4.51586899 L14.3321497,4.47665958 L14.405083,4.43669613 L14.4711788,4.39748672 L14.5372746,4.34545884 L14.5896954,4.29267694 L14.6360384,4.23386281 L14.6755439,4.17504869 L14.7082119,4.10266208 L14.7348022,4.03027546 L14.7484772,3.97824759 L14.754555,3.92621971 L14.754555,3.87268378 L14.7484772,3.82744214 L14.7416397,3.78144648 L14.7218869,3.74148304 L14.6952967,3.70905987 L14.6687064,3.6766367 L14.6292009,3.65024575 L14.5896954,3.6238548 L14.5372746,3.60500412 L14.4772566,3.59143163 L14.4179983,3.57861316 L14.345065,3.56504067 L14.2660539,3.55900846 L14.1802054,3.55900846 L13.143945,3.55900846 L13.4212434,2.60818014 L14.4179983,2.60818014 L14.4772566,2.60818014 L14.5372746,2.60214792 L14.5896954,2.59536167 L14.6421162,2.58254321 L14.6884592,2.56972475 L14.7416397,2.54936601 L14.7811452,2.52976131 L14.8274883,2.50337035 L14.8669938,2.47773343 L14.8996618,2.44455623 L14.9391673,2.41213306 L14.9657576,2.37970989 L14.9923479,2.33974645 L15.0189381,2.29978301 L15.0386909,2.25454137 L15.0584436,2.21533196 L15.0652811,2.15651784 L15.0713589,2.10448996 L15.0713589,2.05095403 L15.0652811,2.00571239 L15.0455284,1.96650298 L15.0257756,1.92729356 L14.9923479,1.89411636 L14.9528423,1.86093917 L14.9133368,1.83530224 L14.8601563,1.80966532 L14.800898,1.78930658 L14.7287244,1.76970187 L14.6557911,1.75688341 L14.5699426,1.75009717 L14.4772566,1.74331092 L14.3784927,1.74331092 L14.2402234,1.74331092 L14.1011943,1.75009717 L13.9621652,1.76291563 L13.8238959,1.77648812 L13.6917043,1.79609283 L13.553435,1.82172975 L13.4280809,1.85490695 L13.3027268,1.90090261 L13.5792655,0.871655461 L13.7578001,0.846018535 L13.9294972,0.819627583 L14.0875193,0.799268848 L14.2463012,0.780418168 L14.391408,0.766845678 L14.5372746,0.76081346 L14.6823814,0.753273188 L14.8138133,0.753273188 L15.0257756,0.753273188 L15.2233033,0.766845678 L15.4018379,0.786450385 L15.573535,0.812841338 L15.7254793,0.846018535 L15.8637486,0.884473923 L15.9891027,0.938009856 L16.108379,0.990037733 L16.154722,1.02321493 L16.2071428,1.0556381 L16.2534859,1.08806127 L16.2929914,1.12123847 L16.3324969,1.16044788 L16.365165,1.1996573 L16.3985927,1.24565296 L16.425183,1.2856164 L16.4517732,1.33085803 L16.471526,1.37685369 L16.490519,1.42888157 L16.504194,1.48090945 L16.517869,1.53444538 L16.5239468,1.58571923 L16.5307843,1.64528738 L16.5307843,1.69731526 L16.5239468,1.82172975 L16.5110315,1.94086605 L16.490519,2.0584943 L16.4646885,2.16330408 L16.425183,2.26735984 L16.3788399,2.35935116 L16.3256594,2.45134248 L16.2664011,2.5433338 L16.1942276,2.62175263 L16.1212943,2.70092548 L16.0354457,2.77859029 L15.9427597,2.84494468 L15.8439959,2.90979102 L15.7315571,2.97614542 L15.619878,3.02741927 L15.4937642,3.08623339 Z M23.5810016,0.871655461 L22.4657301,4.54904619 L22.9405562,4.54904619 L22.6237522,5.61674873 L17.4021851,5.61674873 L17.7250668,4.54904619 L21.1119061,4.54904619 L21.9042958,1.90090261 L21.6269974,1.90090261 L21.4682156,1.90768885 L21.3101934,1.92729356 L21.2380199,1.94086605 L21.1650866,1.95971673 L21.0921533,1.97856741 L21.01922,1.99968017 L20.953884,2.03210334 L20.8877882,2.0584943 L20.8216924,2.09091747 L20.7555966,2.13088091 L20.6963383,2.16858227 L20.63708,2.20854571 L20.577062,2.25454137 L20.5178037,2.30732328 L20.4053649,2.41213306 L20.3005233,2.52976131 L20.2009998,2.66096204 L20.1083137,2.798195 L20.0224652,2.95503266 L19.9434541,3.11941059 L19.8644431,3.28982074 L19.7983473,3.4798356 L19.7656792,3.64421353 L19.7322515,3.83422839 L19.7056612,4.05666642 L19.6729932,4.31228164 L18.3199289,4.31228164 L18.3267664,4.17504869 L18.3328441,4.03706171 L18.3525969,3.89907473 L18.3791872,3.75505553 L18.4057774,3.61782258 L18.4384455,3.47380338 L18.477951,3.3358164 L18.524294,3.20461566 L18.570637,3.06059647 L18.61698,2.9173313 L18.6694008,2.77859029 L18.7286591,2.64738955 L18.7879174,2.52372909 L18.8479354,2.39856057 L18.9132715,2.28771857 L18.9862048,2.16858227 L19.0591381,2.06452651 L19.1320714,1.95971673 L19.2110824,1.86093917 L19.2900935,1.76970187 L19.375942,1.6844968 L19.4678683,1.59929172 L19.5613141,1.52087289 L19.6532404,1.44245406 L19.7520043,1.37685369 L19.8576056,1.31125333 L19.9632069,1.24565296 L20.0688082,1.19287105 L20.181247,1.14084318 L20.3005233,1.09484752 L20.4122024,1.04885186 L20.5375565,1.01567466 L20.6629106,0.983251488 L20.7890244,0.950828318 L20.9212159,0.924437366 L21.0526478,0.904832658 L21.1916769,0.892014195 L21.3367837,0.879195733 L21.4818905,0.871655461 L21.6269974,0.871655461 L23.5810016,0.871655461 Z M46.9971436,9.13579374 L43.0557074,22.1774485 L38.7913896,22.1774485 L41.8211597,12.0584032 L37.2795434,12.0584032 L34.2558511,22.1774485 L29.9125222,22.1774485 L33.8531986,9.13579374 L46.9971436,9.13579374 Z M28.9545131,5.61674873 L27.6014488,5.61674873 L27.6082863,5.4719755 L27.628039,5.28874689 L27.6546293,5.05952261 L27.6804598,4.78430268 L26.3273955,4.78430268 L26.4527496,4.56789687 L26.5910189,4.33791857 L26.7368855,4.09662986 L26.8819923,3.83422839 L27.7199654,3.83422839 L27.7199654,3.65703199 L27.7199654,3.4798356 L27.7138876,3.3026392 L27.7070501,3.12619683 L27.6941348,2.94975447 L27.6675446,2.77255807 L27.6409543,2.58857543 L27.6014488,2.41213306 L27.3370656,2.77255807 L27.0734422,3.14580154 L26.8158965,3.5326175 L26.5651884,3.92621971 L26.320558,4.33264038 L26.0896026,4.74433924 L25.9771638,4.96149908 L25.8654847,5.17790489 L25.7530459,5.3943107 L25.6474446,5.61674873 L24.2936205,5.61674873 L24.4850704,5.24275123 L24.6704425,4.87553997 L24.8618924,4.52793343 L25.0533422,4.18108091 L25.2447921,3.8538331 L25.436242,3.5326175 L25.6276918,3.21743413 L25.8259792,2.9173313 L26.0235068,2.62853887 L26.2217942,2.34653269 L26.4200815,2.07206679 L26.6183689,1.81569753 L26.822734,1.56008231 L27.0270992,1.32331776 L27.2314643,1.09484752 L27.4434267,0.871655461 L28.7174799,0.871655461 L28.7699007,1.01567466 L28.8162438,1.16044788 L28.8557493,1.31125333 L28.8952548,1.46205877 L28.9347603,1.61889643 L28.9681881,1.78327436 L28.9940186,1.94689827 L29.0206089,2.10976815 L29.0411214,2.28093233 L29.0601144,2.45737469 L29.0798672,2.62853887 L29.0935422,2.81176749 L29.1064574,3.17897874 L29.1132949,3.55900846 L29.1132949,3.81386965 L29.1003797,4.06269863 L29.0867047,4.31906789 L29.0669519,4.57468311 L29.0411214,4.83029834 L29.0145311,5.08591357 L28.9879409,5.34756101 L28.9545131,5.61674873 Z M35.1272518,0.871655461 L34.8104479,1.90090261 L33.6549112,1.90090261 L32.5396398,5.61674873 L31.1858157,5.61674873 L32.3018469,1.90090261 L31.1470699,1.90090261 L31.5033794,0.871655461 L35.1272518,0.871655461 Z M40.2303024,0.871655461 L39.8671555,1.90090261 L38.1577817,1.90090261 L37.3190489,4.54904619 L39.2335476,4.54904619 L38.8772381,5.61674873 L35.6484209,5.61674873 L37.1207616,0.871655461 L40.2303024,0.871655461 Z M40.0654428,2.29375079 L39.7091334,3.36145332 L37.9199888,3.36145332 L38.2762983,2.29375079 L40.0654428,2.29375079 Z M62.4514022,9.13579374 L58.5502313,22.1774485 L54.2061427,22.1774485 L57.0383852,12.8508858 L56.681316,13.021296 L56.331844,13.1984924 L55.9747748,13.3952935 L55.6184653,13.5988808 L55.2553183,13.8152866 L54.8921714,14.0505431 L54.5297841,14.2933399 L54.1658774,14.5421689 L53.8034902,14.8106026 L53.4335057,15.0918547 L53.064281,15.3881874 L52.687459,15.6882902 L52.3113968,16.0095058 L51.9414123,16.3375077 L51.5585126,16.6851142 L51.1824504,17.038753 L49.6645264,22.1774485 L45.3660211,22.1774485 L49.3074572,9.13579374 L53.5717751,9.13579374 L52.5355147,12.6148753 L52.9450047,12.2876275 L53.3544947,11.9724441 L53.7503097,11.6783735 L54.1400469,11.3895811 L54.5229466,11.1211474 L54.8921714,10.8655322 L55.2553183,10.6227354 L55.6123875,10.3995434 L55.9557817,10.1838916 L56.2984162,9.98784449 L56.6288952,9.8106481 L56.9456991,9.64627016 L57.262503,9.49546472 L57.5663917,9.35898579 L57.8634429,9.24060352 L58.1475788,9.13579374 L62.4514022,9.13579374 Z M46.6408341,0.871655461 L45.1684934,5.61674873 L43.7759236,5.61674873 L44.9238631,1.90090261 L44.7658409,1.90090261 L44.6799924,1.90090261 L44.5941438,1.90768885 L44.5082953,1.9144751 L44.4224467,1.92729356 L44.3434357,1.94689827 L44.2636649,1.96650298 L44.1846539,1.9921399 L44.1117206,2.01853085 L44.0327095,2.05095403 L43.960536,2.08413122 L43.8944402,2.12334064 L43.8215069,2.16858227 L43.7554111,2.21533196 L43.6893153,2.26735984 L43.6232195,2.32089577 L43.5639612,2.37970989 L43.5047029,2.43852401 L43.4454446,2.50337035 L43.3861864,2.57575697 L43.3330058,2.64738955 L43.2737475,2.72656241 L43.2213267,2.81176749 L43.1681462,2.89621853 L43.1218032,2.98217764 L43.0298769,3.17219249 L42.9371908,3.37502581 L42.8513423,3.59821787 L42.778409,3.83422839 L42.7191507,4.03027546 L42.6598924,4.23386281 L42.6006341,4.45026862 L42.5413758,4.66667443 L42.4881953,4.88911246 L42.4350148,5.12436895 L42.382594,5.36791974 L42.336251,5.61674873 L40.9831866,5.61674873 L41.0287699,5.35434725 L41.0819505,5.10551827 L41.1282935,4.86272151 L41.181474,4.64028348 L41.2338948,4.41784545 L41.2863156,4.21425811 L41.3326586,4.017457 L41.3790016,3.83422839 L41.4382599,3.65024575 L41.498278,3.47380338 L41.563614,3.3026392 L41.6297098,3.13976932 L41.6958056,2.98217764 L41.7619014,2.83137219 L41.8348347,2.68056675 L41.9138457,2.53654755 L41.9928568,2.40534682 L42.0718678,2.27414608 L42.1584761,2.14973159 L42.2435649,2.03210334 L42.3294135,1.9144751 L42.4220995,1.80966532 L42.5140259,1.71088775 L42.6135494,1.61211019 L42.7123132,1.52087289 L42.8118368,1.44245406 L42.9174381,1.3632812 L43.0230394,1.29089459 L43.1347185,1.21926201 L43.2471573,1.16044788 L43.3656739,1.10766598 L43.4849502,1.0556381 L43.6034668,1.01567466 L43.7295806,0.976465244 L43.8549346,0.943288046 L43.9863665,0.917651121 L44.1185581,0.898046413 L44.2507496,0.884473923 L44.3897787,0.871655461 L44.5280481,0.871655461 L46.6408341,0.871655461 Z M52.0538511,4.3914545 L51.9611651,4.5354737 L51.8624013,4.67270665 L51.7499625,4.79787517 L51.6314459,4.91550342 L51.5060918,5.02634542 L51.3739002,5.12436895 L51.2287934,5.21636027 L51.0836865,5.30156535 L50.9249047,5.37319793 L50.7600451,5.43276608 L50.588348,5.49233423 L50.4098134,5.53078962 L50.225201,5.57075307 L50.0337512,5.59714402 L49.8354638,5.60996248 L49.6242612,5.61674873 L47.5183126,5.61674873 L48.9511477,0.871655461 L50.3042121,0.871655461 L49.1889406,4.54904619 L49.5847556,4.54904619 L49.7169472,4.54904619 L49.8423013,4.5354737 L49.9608179,4.52265524 L50.0732567,4.5022965 L50.178858,4.47665958 L50.2783815,4.44348238 L50.3703079,4.41030518 L50.4561564,4.36506355 L50.5359272,4.31906789 L50.6081008,4.26025377 L50.667359,4.20143964 L50.7266173,4.12905303 L50.7797979,4.05666642 L50.8261409,3.97824759 L50.8717242,3.89379654 L50.9051519,3.79501897 L50.9249047,3.70378168 L50.9446575,3.61782258 L50.951495,3.53940375 L50.951495,3.46023089 L50.9446575,3.39463052 L50.9309825,3.3358164 L50.9051519,3.27700228 L50.8785617,3.23100662 L50.8390561,3.18501096 L50.7866354,3.14580154 L50.7334548,3.11941059 L50.6741965,3.09377366 L50.6012633,3.07416896 L50.5222522,3.05381022 L50.4364037,3.047778 L50.3444773,3.047778 L50.225201,3.05381022 L50.1066844,3.06738271 L49.9874081,3.09377366 L49.8688915,3.12619683 L50.1856955,2.0584943 L50.3968981,2.0253171 L50.6012633,2.00571239 L50.8124659,1.98610768 L51.0244282,1.97856741 L51.1885281,1.97856741 L51.3412322,1.99968017 L51.4855793,2.01853085 L51.6246084,2.05095403 L51.7499625,2.09091747 L51.8624013,2.14294535 L51.9680026,2.2025135 L52.0606886,2.27414608 L52.1001942,2.3133555 L52.1465372,2.35331894 L52.1792052,2.39856057 L52.212633,2.44455623 L52.245301,2.49055189 L52.277969,2.53654755 L52.3045593,2.58857543 L52.3243121,2.64738955 L52.3638176,2.75973961 L52.3904078,2.8841541 L52.4101606,3.02138705 L52.4169981,3.16616028 L52.4101606,3.31017947 L52.3904078,3.46023089 L52.3638176,3.61103633 L52.3243121,3.7625958 L52.2718913,3.91264722 L52.212633,4.07023891 L52.1396997,4.22707657 L52.0538511,4.3914545 Z M58.1073136,0.871655461 L57.7905096,1.90090261 L57.7175763,1.86847944 L57.6454028,1.8481207 L57.5663917,1.828516 L57.4934584,1.80966532 L57.4205252,1.79609283 L57.3415141,1.78930658 L57.2685808,1.78327436 L57.1964073,1.78327436 L57.0110352,1.78327436 L56.8400978,1.80212504 L56.6684007,1.828516 L56.5164563,1.86847944 L56.4374453,1.89411636 L56.364512,1.91975329 L56.2915787,1.95293049 L56.2254829,1.97856741 L56.1540691,2.01853085 L56.0879733,2.0584943 L56.0279553,2.09770371 L55.9626192,2.14294535 L55.9018415,2.18969503 L55.8494207,2.23493667 L55.7901624,2.28771857 L55.7377416,2.34653269 L55.6389778,2.46491497 L55.5394543,2.59536167 L55.4536057,2.73938087 L55.3745946,2.89621853 L55.3084989,3.06738271 L55.2424031,3.24382508 L55.2158128,3.3689936 L55.1899823,3.50019433 L55.1702295,3.63139507 L55.163392,3.75505553 L55.1702295,3.86665156 L55.1831448,3.96542912 L55.2028975,4.06269863 L55.2294878,4.14790371 L55.2682336,4.23386281 L55.3153364,4.3054954 L55.3677572,4.37109577 L55.4270154,4.43669613 L55.4931112,4.48947804 L55.572882,4.5354737 L55.6579708,4.57468311 L55.7506569,4.60786031 L55.8494207,4.63349724 L55.9626192,4.65310194 L56.0742983,4.66667443 L56.1996524,4.66667443 L56.3052537,4.66667443 L56.4047773,4.65913416 L56.5096189,4.65310194 L56.6091424,4.64028348 L56.7079062,4.61992475 L56.8074298,4.60032004 L56.9061936,4.57468311 L56.9988796,4.54904619 L56.6752382,5.61674873 L56.5559619,5.62956719 L56.4306078,5.64313968 L56.2984162,5.65595814 L56.1662246,5.6687766 L56.0340331,5.68234909 L55.889686,5.68838131 L55.7506569,5.69441353 L55.5987125,5.69441353 L55.3677572,5.68838131 L55.1565545,5.6687766 L55.0509532,5.65595814 L54.9514297,5.64313968 L54.8595033,5.62353497 L54.7736548,5.59714402 L54.6809687,5.57075307 L54.6027174,5.54436211 L54.5229466,5.51193894 L54.4500133,5.47876174 L54.3778398,5.43955233 L54.311744,5.3943107 L54.2456482,5.35434725 L54.1863899,5.30156535 L54.1332094,5.25556969 L54.0807886,5.19675557 L54.0276081,5.14472769 L53.9881026,5.08591357 L53.9417595,5.0203132 L53.9083318,4.95471283 L53.869586,4.88232622 L53.8429957,4.81069363 L53.8164055,4.73152077 L53.7898152,4.65310194 L53.7700624,4.57468311 L53.7571472,4.48947804 L53.7442319,4.39748672 L53.7373944,4.3054954 L53.7305569,4.21425811 L53.7305569,4.11548054 L53.7305569,4.01142478 L53.7373944,3.90586097 L53.7442319,3.80105119 L53.7571472,3.69020919 L53.7966527,3.47380338 L53.8490735,3.24382508 L53.8961762,3.10734615 L53.948597,2.96860515 L54.0017775,2.83137219 L54.0610358,2.70092548 L54.1202941,2.57575697 L54.1863899,2.45134248 L54.2585635,2.33371423 L54.3383343,2.21533196 L54.4165856,2.10448996 L54.5031939,1.9921399 L54.5958799,1.88733012 L54.6878062,1.78930658 L54.7873298,1.69128304 L54.8921714,1.59929172 L55.0046102,1.5073004 L55.1231268,1.42888157 L55.2363253,1.35046274 L55.3548419,1.27204391 L55.4733585,1.20568952 L55.5918751,1.14084318 L55.7172291,1.08806127 L55.8425832,1.03603339 L55.9747748,0.990037733 L56.1069664,0.943288046 L56.2459954,0.910864876 L56.3842648,0.879195733 L56.5232938,0.852050753 L56.6684007,0.833200073 L56.8135075,0.812841338 L56.9654519,0.799268848 L57.1173962,0.79323663 L57.2754183,0.79323663 L57.4805432,0.799268848 L57.6917458,0.819627583 L57.9029484,0.846018535 L58.1073136,0.871655461 Z M74.9549018,9.13579374 L74.083501,12.0584032 L70.4596286,12.0584032 L67.428339,22.1774485 L63.1313531,22.1774485 L66.1550454,12.0584032 L62.6489298,12.0584032 L63.5279278,9.13579374 L74.9549018,9.13579374 Z M64.523923,0.871655461 L64.4183217,0.996823978 L64.3066426,1.11445222 L64.1942038,1.23208047 L64.081765,1.34443052 L63.9632484,1.4545185 L63.8447318,1.56008231 L63.7193777,1.66489209 L63.5932639,1.76291563 L63.4679098,1.86093917 L63.336478,1.95293049 L63.2042864,2.04492181 L63.0652573,2.13088091 L62.926988,2.21533196 L62.7811214,2.29978301 L62.6360146,2.37970989 L62.4909077,2.45134248 L62.5896716,2.62175263 L62.6823576,2.798195 L62.7682061,2.97614542 L62.8472172,3.15862 L62.9201505,3.34260264 L62.9794088,3.5326175 L63.0386671,3.72263236 L63.0857698,3.91264722 L63.1245156,4.11548054 L63.1511059,4.31906789 L63.1776961,4.52265524 L63.1906114,4.73152077 L63.1974489,4.94792659 L63.1974489,5.1643324 L63.1837739,5.38677042 L63.1708586,5.61674873 L61.7714513,5.61674873 L61.7912041,5.44558455 L61.8041193,5.27592842 L61.8041193,5.10551827 L61.7972818,4.94189437 L61.7851263,4.77751643 L61.7646138,4.61389253 L61.731186,4.45026862 L61.6924402,4.28664472 L61.6529347,4.12226678 L61.5997542,3.96542912 L61.5397362,3.80783744 L61.4736404,3.65024575 L61.4022265,3.50019433 L61.3156183,3.34863486 L61.2297697,3.1917972 L61.1378434,3.047778 L61.0785851,3.07416896 L61.0185671,3.09980588 L60.9593088,3.11941059 L60.9000505,3.12619683 L60.1410885,5.61674873 L58.7872645,5.61674873 L60.2200996,0.871655461 L61.5731639,0.871655461 L61.2958655,1.82172975 L61.4143821,1.78327436 L61.5275806,1.74331092 L61.6392597,1.69731526 L61.7516985,1.65207363 L61.8565401,1.59929172 L61.9629012,1.54726385 L62.0685025,1.49448194 L62.168026,1.43566782 L62.2660301,1.37685369 L62.3587162,1.31125333 L62.4514022,1.24565296 L62.5440882,1.17326635 L62.6360146,1.10087973 L62.7218631,1.02924715 L62.8077117,0.950828318 L62.8874825,0.871655461 L64.523923,0.871655461 Z M85.6692568,9.13579374 L84.797856,12.0584032 L79.2192197,12.0584032 L77.0676878,19.2932944 L83.001874,19.2932944 L82.1243954,22.1774485 L71.8917039,22.1774485 L75.8331401,9.13579374 L85.6692568,9.13579374 Z M70.8949491,0.871655461 L69.4226084,5.61674873 L68.0695441,5.61674873 L69.1058045,2.21533196 L68.8216686,2.3661374 L68.5512077,2.52976131 L68.2868245,2.70620367 L68.0292789,2.89018632 L67.7785707,3.08623339 L67.5347,3.28982074 L67.2969072,3.50019433 L67.0727893,3.71584612 L66.4718494,5.61674873 L65.1180253,5.61674873 L66.5508604,0.871655461 L67.9107623,0.871655461 L67.548375,2.1361591 L67.7990832,1.91975329 L68.0497913,1.72446024 L68.293662,1.53972357 L68.5375327,1.37006745 L68.6628868,1.29089459 L68.7829228,1.21926201 L68.9014394,1.15441567 L69.0199559,1.08806127 L69.14531,1.02321493 L69.2638266,0.970433026 L69.3831029,0.917651121 L69.5016195,0.871655461 L70.8949491,0.871655461 Z M85.3919584,13.1268598 L84.5144798,16.0494693 L78.8226449,16.0494693 L79.6948054,13.1268598 L85.3919584,13.1268598 Z M77.5030084,0.871655461 L76.0701732,5.61674873 L74.6768437,5.61674873 L75.7533693,2.21533196 L75.4631556,2.3661374 L75.1790197,2.52976131 L75.0407504,2.60818014 L74.9085588,2.70092548 L74.7763672,2.78613056 L74.6441756,2.87736785 L74.5127438,2.96860515 L74.3934675,3.06738271 L74.2681134,3.16616028 L74.1495968,3.27021603 L74.0303205,3.37502581 L73.9118039,3.48662184 L73.7925276,3.59821787 L73.6808485,3.71584612 L73.1262517,5.61674873 L71.7724276,5.61674873 L73.2052627,0.871655461 L74.5583271,0.871655461 L74.2020176,2.1361591 L74.3144564,2.0253171 L74.4261355,1.91975329 L74.539334,1.82172975 L74.6578506,1.72446024 L74.7763672,1.63246892 L74.888806,1.53972357 L75.0141601,1.4545185 L75.1326767,1.37006745 L75.251953,1.29089459 L75.3773071,1.21926201 L75.5026611,1.15441567 L75.6280152,1.08806127 L75.7602068,1.02321493 L75.8855609,0.970433026 L76.0177524,0.917651121 L76.1567815,0.871655461 L77.5030084,0.871655461 Z M76.5123313,0 L76.4735855,0.0723866126 L76.4264827,0.13798698 L76.3808994,0.203587348 L76.3345564,0.262401471 L76.2752981,0.314429349 L76.2228773,0.360425009 L76.1567815,0.406420669 L76.0906857,0.445630084 L76.0245899,0.478053254 L75.9516567,0.511230452 L75.8726456,0.536867377 L75.7928748,0.557980139 L75.707786,0.57683082 L75.6219374,0.583617064 L75.5284917,0.590403309 L75.4365654,0.596435527 L75.3438793,0.590403309 L75.251953,0.583617064 L75.1729419,0.57683082 L75.1000086,0.557980139 L75.0339129,0.536867377 L74.9678171,0.511230452 L74.9153963,0.478053254 L74.8690532,0.445630084 L74.8295477,0.406420669 L74.7900422,0.360425009 L74.7634519,0.314429349 L74.7436992,0.262401471 L74.7239464,0.203587348 L74.7171089,0.13798698 L74.7171089,0.0723866126 L74.7171089,0 L76.5123313,0 Z M91.6429485,19.2540849 L91.4188306,19.2480527 L91.1817974,19.2344802 L90.9432448,19.2080893 L90.6925366,19.1756661 L90.4418285,19.1357027 L90.1842828,19.090461 L89.9206594,19.0376791 L89.6562763,18.978111 L90.5284368,16.0494693 L90.6796214,16.1082834 L90.8315657,16.153525 L90.9766726,16.1995207 L91.1225391,16.2334519 L91.2668862,16.2583348 L91.4127528,16.2719073 L91.5510221,16.2847258 L91.6832137,16.292266 L91.8412358,16.2847258 L92.0000177,16.2786935 L92.1458842,16.2719073 L92.2970689,16.2583348 L92.4353382,16.2394841 L92.5743673,16.2198794 L92.7133963,16.1934885 L92.8448282,16.1610653 L92.9701823,16.1271341 L93.0962961,16.0886787 L93.2148127,16.0494693 L93.3272515,16.0034736 L93.4396903,15.9506917 L93.5513694,15.8986638 L93.6569707,15.8398497 L93.7564942,15.7734953 L93.855258,15.708649 L93.9479441,15.6370164 L94.0337926,15.5646298 L94.1188815,15.4854569 L94.20473,15.4002518 L94.2845008,15.3082605 L94.3574341,15.2170232 L94.4296076,15.1182457 L94.4949437,15.0202221 L94.5610395,14.9154123 L94.6210575,14.8038163 L94.6803158,14.6929743 L94.7334963,14.5753461 L94.7790796,14.4501775 L94.8254226,14.3257631 L94.8717657,14.1953164 L94.8983559,14.0377247 L94.9249462,13.880133 L94.9446989,13.7293275 L94.9507767,13.5988808 L94.9507767,13.5068895 L94.9446989,13.4148982 L94.9317837,13.3229069 L94.9112712,13.2377018 L94.8915184,13.160037 L94.8656879,13.0740779 L94.8383379,13.0024453 L94.7995921,12.9232724 L94.7593269,12.8576721 L94.7198213,12.7860395 L94.6674005,12.7264713 L94.6149797,12.660871 L94.5549617,12.6020568 L94.4949437,12.550029 L94.4296076,12.4972471 L94.3574341,12.4452192 L94.2776633,12.3992235 L94.1986522,12.3524738 L94.1067259,12.3147725 L94.0201176,12.274809 L93.9205941,12.2423859 L93.82259,12.2092087 L93.716229,12.1835717 L93.6037902,12.1571808 L93.4921111,12.1368221 L93.3735945,12.1172173 L93.2482404,12.0976126 L93.1228863,12.0847942 L92.8516657,12.0644354 L92.5606923,12.0584032 L90.9705948,12.0584032 L87.9005594,22.1774485 L83.6028138,22.1774485 L87.5039847,9.13579374 L94.2373981,9.13579374 L94.5610395,9.13579374 L94.8717657,9.1486122 L95.1756543,9.16897094 L95.465868,9.18782162 L95.7500039,9.22024479 L96.0204649,9.26020823 L96.284848,9.30544986 L96.5355562,9.35898579 L96.7725893,9.41779992 L97.0043045,9.48264626 L97.2284223,9.55427884 L97.439625,9.63420573 L97.6379123,9.72544302 L97.8293622,9.81668031 L98.0071371,9.92224412 L98.1795939,10.0270539 L98.337616,10.1454362 L98.4827229,10.2690966 L98.6217519,10.3942652 L98.7539435,10.5307441 L98.8724601,10.6755173 L98.9780614,10.8263228 L99.0775849,10.9831604 L99.1626738,11.1535706 L99.2416848,11.3247347 L99.3077806,11.5011771 L99.3609611,11.691192 L99.4073042,11.8812068 L99.4468097,12.0847942 L99.4733999,12.2936597 L99.4863152,12.5100655 L99.492393,12.7332576 L99.4863152,12.910454 L99.4794777,13.0876504 L99.4665625,13.2640927 L99.4536472,13.4412891 L99.4270569,13.6116993 L99.4004667,13.7821094 L99.3738764,13.9517656 L99.3343709,14.1153895 L99.2948654,14.2797674 L99.2485223,14.4441453 L99.1961015,14.601737 L99.142921,14.7585747 L99.0775849,14.9154123 L99.0175669,15.0662178 L98.9453934,15.2230554 L98.8724601,15.3670746 L98.7866115,15.5186341 L98.7068408,15.6626533 L98.6149144,15.8059185 L98.5222284,15.9446595 L98.4234646,16.0886787 L98.3178633,16.2198794 L98.2122619,16.3571124 L98.0998231,16.4883131 L97.9813065,16.6195138 L97.8559525,16.7499606 L97.7298387,16.8751291 L97.5984068,16.9987895 L97.4601375,17.1239581 L97.3211084,17.2423403 L97.1760016,17.3599686 L97.0232975,17.4775968 L96.8789504,17.5824066 L96.727006,17.6872164 L96.5811395,17.7927802 L96.4299549,17.8900497 L96.2780105,17.9888273 L96.1260662,18.0800646 L95.9680441,18.1652696 L95.8160997,18.2512287 L95.6573179,18.3364338 L95.4992958,18.4140986 L95.3336765,18.4864852 L95.1756543,18.5588718 L95.010035,18.6252262 L94.8451754,18.6900726 L94.6803158,18.7488867 L94.5154562,18.8077008 L94.3437591,18.8604827 L94.172062,18.9132646 L94.0003649,18.9592603 L93.8286678,19.005256 L93.6569707,19.0444654 L93.4784361,19.0829208 L93.3006612,19.116852 L93.1228863,19.1417349 L92.943592,19.1681258 L92.7658171,19.1877305 L92.5812048,19.2080893 L92.3965924,19.22694 L92.2112203,19.2405124 L92.0266079,19.2480527 L91.8351581,19.2540849 L91.6429485,19.2540849 Z M88.3434772,0.871655461 L87.227446,4.54904619 L87.7022721,4.54904619 L87.3854681,5.61674873 L82.1243954,5.61674873 L82.4875424,4.54904619 L85.8743817,4.54904619 L86.6265061,1.90090261 L86.3492077,1.90090261 L86.1911856,1.90768885 L86.0324038,1.92729356 L85.9594705,1.94086605 L85.8865372,1.95971673 L85.8151234,1.97856741 L85.7421901,1.99968017 L85.6760943,2.03210334 L85.6099985,2.0584943 L85.5439027,2.09091747 L85.4846444,2.13088091 L85.4185487,2.16858227 L85.3592904,2.20854571 L85.3000321,2.25454137 L85.2460918,2.30732328 L85.1344127,2.41213306 L85.0356489,2.52976131 L84.9361254,2.66096204 L84.8502768,2.798195 L84.765188,2.95503266 L84.6922547,3.11941059 L84.6193214,3.28982074 L84.5532256,3.4798356 L84.5205576,3.64421353 L84.4810521,3.83422839 L84.4605396,3.94507039 L84.4483841,4.05666642 L84.4415466,4.18108091 L84.4347091,4.31228164 L83.0816447,4.31228164 L83.0884822,4.17504869 L83.0884822,4.03706171 L83.1006378,3.89907473 L83.1211503,3.75505553 L83.140903,3.61782258 L83.1667336,3.47380338 L83.2001613,3.3358164 L83.2465043,3.20461566 L83.2920876,3.06059647 L83.3391904,2.9173313 L83.3916112,2.77859029 L83.4508695,2.64738955 L83.5101278,2.52372909 L83.5693861,2.39856057 L83.6354818,2.28771857 L83.7084151,2.16858227 L83.7813484,2.06452651 L83.853522,1.95971673 L83.9332927,1.86093917 L84.0183816,1.76970187 L84.0981524,1.6844968 L84.1908384,1.59929172 L84.2827647,1.52087289 L84.3754508,1.44245406 L84.4742146,1.37685369 L84.5805756,1.31125333 L84.6854172,1.24565296 L84.7910185,1.19287105 L84.9034573,1.14084318 L85.0158962,1.09484752 L85.1344127,1.04885186 L85.2597668,1.01567466 L85.3851209,0.983251488 L85.510475,0.950828318 L85.6426666,0.924437366 L85.7748581,0.904832658 L85.9131275,0.892014195 L86.058994,0.879195733 L86.2033412,0.871655461 L86.3492077,0.871655461 L88.3434772,0.871655461 Z M94.9112712,3.24382508 L94.8717657,3.38181206 L94.8254226,3.51904501 L94.7730018,3.65024575 L94.7198213,3.77466024 L94.6537255,3.90586097 L94.5876298,4.02424325 L94.521534,4.14262552 L94.4425229,4.26025377 L94.3627521,4.37109577 L94.2776633,4.47665958 L94.1849773,4.58146936 L94.0930509,4.68552511 L93.9935274,4.78430268 L93.8947636,4.87553997 L93.7891623,4.97431754 L93.6767234,5.05952261 L93.5650444,5.13794144 L93.4526055,5.21032806 L93.3333292,5.28196064 L93.2148127,5.34077476 L93.0962961,5.40034291 L92.9701823,5.45312482 L92.8516657,5.49836645 L92.7263116,5.54436211 L92.6009575,5.57678528 L92.4756034,5.60996248 L92.3434119,5.63559941 L92.2112203,5.65595814 L92.0858662,5.67556285 L91.9544344,5.68234909 L91.8154053,5.69441353 L91.6832137,5.69441353 L91.4583361,5.68838131 L91.2478932,5.6687766 L91.1483697,5.65595814 L91.0564433,5.64313968 L90.9637573,5.62353497 L90.8710712,5.59714402 L90.7852227,5.57075307 L90.7062116,5.54436211 L90.6272006,5.51193894 L90.5474298,5.47876174 L90.4752562,5.43955233 L90.4091604,5.3943107 L90.3491424,5.35434725 L90.2838064,5.30156535 L90.2306258,5.25556969 L90.1782051,5.19675557 L90.1250245,5.14472769 L90.0794412,5.08591357 L90.039176,5.0203132 L89.9996705,4.95471283 L89.9662427,4.88232622 L89.9335747,4.81069363 L89.9069844,4.73152077 L89.8811539,4.65310194 L89.8614011,4.57468311 L89.8408886,4.48947804 L89.8287331,4.39748672 L89.8218956,4.3054954 L89.8150581,4.21425811 L89.8150581,4.11548054 L89.8150581,4.01142478 L89.8287331,3.90586097 L89.8408886,3.80105119 L89.8614011,3.69020919 L89.9138219,3.47380338 L89.9730802,3.24382508 L90.025501,3.09377366 L90.0794412,2.94296822 L90.131862,2.798195 L90.1911203,2.66096204 L90.2572161,2.52976131 L90.3233119,2.39856057 L90.3894077,2.27414608 L90.4684187,2.15651784 L90.541352,2.04492181 L90.6203631,1.94086605 L90.7062116,1.83530224 L90.7920602,1.7372787 L90.8779087,1.64528738 L90.9705948,1.56008231 L91.0693586,1.47563126 L91.1681224,1.39570438 L91.2668862,1.32331776 L91.3732473,1.2524392 L91.4849264,1.18683884 L91.5973652,1.12802471 L91.709804,1.07448878 L91.8290803,1.02924715 L91.9544344,0.983251488 L92.0797884,0.943288046 L92.2051425,0.904832658 L92.3365744,0.879195733 L92.4756034,0.852050753 L92.6138728,0.833200073 L92.7521421,0.812841338 L92.8980087,0.799268848 L93.049953,0.79323663 L93.2011377,0.79323663 L93.4328528,0.799268848 L93.6440554,0.819627583 L93.7496567,0.833200073 L93.8423428,0.846018535 L93.9411066,0.865623243 L94.0269551,0.892014195 L94.112044,0.910864876 L94.1986522,0.943288046 L94.2776633,0.976465244 L94.3505966,1.00964244 L94.4235299,1.04885186 L94.4888659,1.08806127 L94.5549617,1.1333029 L94.6149797,1.18005259 L94.6674005,1.22529422 L94.7198213,1.27807613 L94.7661643,1.33689025 L94.8125074,1.39570438 L94.8520129,1.4545185 L94.8915184,1.52087289 L94.9249462,1.58571923 L94.9576142,1.65810585 L94.9842045,1.72973843 L95.0039572,1.80966532 L95.02371,1.88733012 L95.0434628,1.97328922 L95.0571378,2.0584943 L95.0632155,2.14973159 L95.070053,2.24096888 L95.070053,2.33371423 L95.070053,2.43852401 L95.0632155,2.54936601 L95.0503003,2.66096204 L95.0366253,2.77255807 L95.0168725,2.89018632 L94.9842045,3.00856859 L94.9507767,3.12619683 L94.9112712,3.24382508 Z M105.626386,11.6255916 L105.626386,11.7500061 L105.612711,11.8751746 L105.599796,11.9935569 L105.579283,12.1111851 L105.553453,12.2288134 L105.526862,12.3404094 L105.487357,12.4512514 L105.447092,12.5636015 L105.394671,12.6676572 L105.34225,12.772467 L105.289069,12.8712446 L105.222974,12.9700221 L105.1508,13.0612594 L105.077867,13.1524967 L104.992018,13.2377018 L104.90617,13.3229069 L104.827159,13.408866 L104.734473,13.4865308 L104.649384,13.5657036 L104.54986,13.6373362 L104.451096,13.6969044 L104.351573,13.7564725 L104.245972,13.8077464 L104.14037,13.8605283 L104.034769,13.8997377 L103.92233,13.9389471 L103.803814,13.9653381 L103.685297,13.991729 L103.566021,14.0113337 L103.447504,14.0241522 L103.32139,14.0309384 L103.196036,14.0377247 L103.084357,14.0309384 L102.972678,14.0241522 L102.866317,14.0113337 L102.753878,13.991729 L102.649037,13.9653381 L102.542676,13.9389471 L102.437074,13.8997377 L102.331473,13.8605283 L102.232709,13.8077464 L102.133945,13.7564725 L102.034422,13.6969044 L101.935658,13.6373362 L101.842972,13.5657036 L101.743448,13.4865308 L101.651522,13.408866 L101.565673,13.3229069 L101.473747,13.2316696 L101.393976,13.1389242 L101.321803,13.0476869 L101.24887,12.9564496 L101.182774,12.8576721 L101.123515,12.7536163 L101.071095,12.6548388 L101.024752,12.550029 L100.984486,12.4452192 L100.945741,12.3336232 L100.918391,12.2212731 L100.89256,12.1036449 L100.872807,11.9935569 L100.859132,11.8683884 L100.846217,11.7500061 L100.846217,11.6255916 L100.846217,11.5072093 L100.859132,11.3895811 L100.872807,11.2719528 L100.89256,11.1603568 L100.918391,11.0427286 L100.945741,10.9318866 L100.984486,10.8263228 L101.024752,10.7147267 L101.071095,10.610671 L101.123515,10.5051072 L101.182774,10.3995434 L101.24887,10.3022738 L101.321803,10.2042503 L101.393976,10.1054727 L101.473747,10.0142354 L101.565673,9.92224412 L101.651522,9.83703905 L101.743448,9.75786619 L101.842972,9.68547958 L101.935658,9.62063324 L102.034422,9.55427884 L102.133945,9.50300499 L102.232709,9.4562553 L102.331473,9.41101367 L102.437074,9.37180426 L102.542676,9.33862706 L102.649037,9.31299013 L102.753878,9.2926314 L102.866317,9.27302669 L102.972678,9.26020823 L103.084357,9.25342198 L103.196036,9.25342198 L103.32139,9.25342198 L103.447504,9.26020823 L103.566021,9.27302669 L103.685297,9.2926314 L103.803814,9.31299013 L103.92233,9.33862706 L104.034769,9.37180426 L104.14037,9.41101367 L104.245972,9.4562553 L104.351573,9.50300499 L104.451096,9.55427884 L104.54986,9.62063324 L104.649384,9.68547958 L104.734473,9.75786619 L104.827159,9.83703905 L104.90617,9.92224412 L104.992018,10.0142354 L105.077867,10.1054727 L105.1508,10.2042503 L105.222974,10.3022738 L105.289069,10.3995434 L105.34225,10.5051072 L105.394671,10.610671 L105.447092,10.7147267 L105.487357,10.8263228 L105.526862,10.9318866 L105.553453,11.0427286 L105.579283,11.1603568 L105.599796,11.2719528 L105.612711,11.3895811 L105.626386,11.5072093 L105.626386,11.6255916 Z M103.196036,0.871655461 L101.763961,5.61674873 L100.410137,5.61674873 L101.242032,2.80498124 L101.136431,2.89621853 L101.024752,2.9949961 L100.918391,3.09377366 L100.813549,3.19858345 L100.707948,3.31017947 L100.608424,3.42780772 L100.50966,3.54618999 L100.410137,3.66985046 L100.31821,3.79501897 L100.225524,3.9314979 L100.139676,4.07023891 L100.054587,4.20747186 L99.9679788,4.3582773 L99.8889677,4.50908275 L99.8091969,4.66667443 L99.7309456,4.82351209 L98.8527073,4.82351209 L98.8792976,4.67270665 L98.8922129,4.5022965 L98.9119656,4.33264038 L98.9385559,4.15544398 L98.9317184,3.95261066 L98.9119656,3.75505553 L98.8861351,3.56504067 L98.8458698,3.3885983 L98.8200393,3.31017947 L98.793449,3.2249744 L98.7668588,3.14580154 L98.733431,3.07416896 L98.6946852,3.00178234 L98.6612575,2.93618198 L98.6217519,2.87058161 L98.5746492,2.80498124 L97.7435137,5.61674873 L96.3836118,5.61674873 L97.8225247,0.871655461 L99.175589,0.871655461 L99.2621973,0.976465244 L99.3412084,1.08806127 L99.4141417,1.1996573 L99.4863152,1.31803957 L99.552411,1.43566782 L99.6116693,1.56008231 L99.6648498,1.6844968 L99.7111928,1.80966532 L99.7499386,1.94086605 L99.7902039,2.07734498 L99.8160344,2.21533196 L99.8426247,2.35331894 L99.8631372,2.49055189 L99.8752927,2.63457109 L99.8889677,2.77859029 L99.8889677,2.92260949 L99.9816538,2.77859029 L100.07358,2.63457109 L100.173104,2.49733814 L100.278705,2.35331894 L100.384306,2.2221182 L100.496745,2.08413122 L100.615262,1.95293049 L100.733778,1.828516 L100.852295,1.69731526 L100.984486,1.57290077 L101.116678,1.4545185 L101.24887,1.33085803 L101.393976,1.21322979 L101.539843,1.09484752 L101.691028,0.983251488 L101.842972,0.871655461 L103.196036,0.871655461 Z" id="Logo-Piter"></path>
                    </g>
                </g>
            </g>
        </g>
    </g>
</svg>