<?xml version="1.0" encoding="UTF-8" standalone="no"?>
<svg width="103px" height="46px" viewBox="0 0 103 46" version="1.1" xmlns="http://www.w3.org/2000/svg" xmlns:xlink="http://www.w3.org/1999/xlink" xmlns:sketch="http://www.bohemiancoding.com/sketch/ns">
    <!-- Generator: Sketch 3.2.2 (9983) - http://www.bohemiancoding.com/sketch -->
    <title>school_design</title>
    <desc>Created with Sketch.</desc>
    <defs></defs>
    <g id="Page-1" stroke="none" stroke-width="1" fill="none" fill-rule="evenodd" sketch:type="MSPage">
        <g id="Партнёры" sketch:type="MSArtboardGroup" transform="translate(-1049.000000, -1801.000000)">
            <g id="2_block" sketch:type="MSLayerGroup" transform="translate(469.000000, 142.000000)">
                <g id="5" transform="translate(0.000000, 1476.000000)" sketch:type="MSShapeGroup">
                    <g id="school_design" transform="translate(581.000000, 184.000000)">
                        <path d="M16.6399443,18.2192308 L14.5675367,18.2192308 L14.5675367,22.3603846 L12.9301139,22.3603846 L12.9301139,18.2192308 L10.8564152,18.2192308 L10.8564152,22.3603846 L9.21937975,22.3603846 L9.21937975,18.2192308 L7.14568101,18.2192308 L7.14568101,23.7278205 L16.6399443,23.7278205 L16.6399443,18.2192308" id="Fill-1" fill="#009D90"></path>
                        <path d="M21.1524759,20.8083333 L23.5107418,18.2192308 L20.9728785,18.2192308 L19.2424937,20.465 L19.2424937,18.2192308 L17.1695696,18.2192308 L17.1695696,23.7278205 L19.2424937,23.7278205 L19.2424937,21.2874359 L21.1040582,23.7278205 L23.7241671,23.7278205 L21.1524759,20.8083333" id="Fill-2" fill="#009D90"></path>
                        <path d="M26.8360709,23.9338462 C29.2087975,23.9338462 30.2640456,22.5425641 30.2640456,20.9682051 C30.2640456,19.4167949 29.2087975,18.0126923 26.8360709,18.0126923 C24.4673468,18.0126923 23.4114532,19.4167949 23.4114532,20.9682051 C23.4114532,22.5425641 24.4673468,23.9338462 26.8360709,23.9338462 L26.8360709,23.9338462 Z M26.8360709,19.4505128 C27.6678228,19.4505128 28.1172684,20.0661538 28.1172684,20.9682051 C28.1172684,21.8811538 27.6678228,22.4966667 26.8360709,22.4966667 C26.008838,22.4966667 25.5582304,21.8811538 25.5582304,20.9682051 C25.5582304,20.0661538 26.008838,19.4505128 26.8360709,19.4505128 L26.8360709,19.4505128 Z" id="Fill-3" fill="#009D90"></path>
                        <path d="M31.236919,21.3682051 C31.236919,22.2105128 30.8077443,22.3361538 30.4272456,22.3361538 C30.3096228,22.3361538 30.190838,22.3253846 30.0721823,22.2903846 L30.0721823,23.7278205 C30.3096228,23.7625641 30.8215595,23.854359 31.1635823,23.854359 C33.1070051,23.854359 33.2263063,22.5876923 33.2263063,21.8920513 L33.2263063,19.5869231 L34.554243,19.5869231 L34.554243,23.7278205 L36.6287165,23.7278205 L36.6287165,18.2192308 L31.236919,18.2192308 L31.236919,21.3682051" id="Fill-4" fill="#009D90"></path>
                        <path d="M39.6022101,23.9338462 C40.4445494,23.9338462 41.0739797,23.5802564 41.4760405,23.0783333 L41.4760405,23.7278205 L43.4668481,23.7278205 L43.4668481,18.2192308 L41.4760405,18.2192308 L41.4760405,18.8914103 C40.966557,18.2632051 40.3974228,18.0126923 39.6022101,18.0126923 C37.7073342,18.0126923 36.9356203,19.5748718 36.9356203,20.9682051 C36.9356203,22.8278205 38.1450304,23.9338462 39.6022101,23.9338462 L39.6022101,23.9338462 Z M40.3145316,19.6558974 C41.0484152,19.6558974 41.5584152,20.17 41.5584152,20.9682051 C41.5584152,21.7785897 41.0484152,22.2903846 40.3145316,22.2903846 C39.4623797,22.2903846 39.0813646,21.629359 39.0813646,20.9682051 C39.0813646,20.329359 39.4481772,19.6558974 40.3145316,19.6558974 L40.3145316,19.6558974 Z" id="Fill-5" fill="#009D90"></path>
                        <path d="M51.8484076,18.2192308 L46.6207139,18.2192308 L46.6207139,20.3062821 C46.6207139,20.6598718 46.6207139,20.9682051 46.4998633,21.3780769 C46.322719,22.0182051 45.8978051,22.3603846 45.375281,22.3603846 L45.375281,25.3253846 L47.2008228,25.3253846 L47.2008228,23.7278205 L50.8529392,23.7278205 L50.8529392,25.3253846 L52.6770608,25.3253846 L52.6770608,22.3603846 L51.8484076,22.3603846 L51.8484076,18.2192308 L51.8484076,18.2192308 Z M49.8581165,22.3603846 L47.8408405,22.3603846 C48.3970633,21.8364103 48.4807291,21.2994872 48.4807291,20.5801282 L48.4807291,19.5869231 L49.8581165,19.5869231 L49.8581165,22.3603846 L49.8581165,22.3603846 Z" id="Fill-6" fill="#009D90"></path>
                        <path d="M56.9929519,20.6937179 L56.9929519,23.7278205 L59.0661342,23.7278205 L59.0661342,18.2192308 L57.0741646,18.2192308 L54.999562,21.1739744 L54.999562,18.2192308 L52.9265089,18.2192308 L52.9265089,23.7278205 L54.9410734,23.7278205 L56.9929519,20.6937179" id="Fill-7" fill="#009D90"></path>
                        <path d="M64.6233266,22.2346154 C64.6233266,21.6519231 64.2527696,21.0582051 63.4245038,20.8758974 L63.4245038,20.8528205 C63.9454785,20.6369231 64.2769139,20.1578205 64.2769139,19.5641026 C64.2769139,18.2765385 62.8203797,18.0126923 61.9297519,18.0126923 C61.1000658,18.0126923 60.1412658,18.2402564 59.5120937,18.5601282 L60.0702532,19.7934615 C60.5091114,19.5194872 61.1000658,19.3257692 61.6103241,19.3257692 C61.8702304,19.3257692 62.4397519,19.3589744 62.4397519,19.8273077 C62.4397519,20.2839744 61.9421468,20.2947436 61.7398253,20.2947436 L60.7204709,20.2947436 L60.7204709,21.4926923 L61.6216861,21.4926923 C61.917357,21.4926923 62.4743544,21.5167949 62.4743544,21.9602564 C62.4743544,22.1437179 62.3566025,22.4966667 61.6349848,22.4966667 C60.9111722,22.4966667 60.4488152,22.315 59.8437873,21.9723077 L59.3101595,23.2724359 C60.4488152,23.8766667 61.4792734,23.9338462 61.9553165,23.9338462 C64.3240405,23.9338462 64.6233266,22.6560256 64.6233266,22.2346154" id="Fill-8" fill="#009D90"></path>
                        <path d="M71.2169165,23.7278205 L71.2169165,18.2192308 L69.2231392,18.2192308 L69.2231392,18.8914103 C68.7131392,18.2632051 68.1455544,18.0126923 67.3522785,18.0126923 C65.4544329,18.0126923 64.6833646,19.5748718 64.6833646,20.9682051 C64.6833646,22.8278205 65.893162,23.9338462 67.3522785,23.9338462 C68.1933266,23.9338462 68.8214658,23.5802564 69.2231392,23.0783333 L69.2231392,23.7278205 L71.2169165,23.7278205 L71.2169165,23.7278205 Z M68.0625342,22.2903846 C67.2079291,22.2903846 66.8288506,21.629359 66.8288506,20.9682051 C66.8288506,20.329359 67.1969544,19.6558974 68.0625342,19.6558974 C68.7960304,19.6558974 69.3066759,20.17 69.3066759,20.9682051 C69.3066759,21.7785897 68.7960304,22.2903846 68.0625342,22.2903846 L68.0625342,22.2903846 Z" id="Fill-9" fill="#009D90"></path>
                        <path d="M77.9376835,23.7278205 L77.9376835,18.2192308 L75.9444228,18.2192308 L73.8690456,21.1739744 L73.8690456,18.2192308 L71.7959924,18.2192308 L71.7959924,23.7278205 L73.8118481,23.7278205 L75.8625646,20.6937179 L75.8625646,23.7278205 L77.9376835,23.7278205" id="Fill-10" fill="#009D90"></path>
                        <path d="M75.0333949,16.4162821 C74.7959544,16.4162821 74.214038,16.3819231 74.0487722,15.7441026 L72.696562,16.2226923 C73.1230253,17.1578205 74.0965443,17.5 75.0333949,17.5 C75.9680506,17.5 76.9414405,17.1578205 77.3663544,16.2226923 L76.0164684,15.7441026 C75.8501696,16.3819231 75.269157,16.4162821 75.0333949,16.4162821" id="Fill-11" fill="#009D90"></path>
                        <path d="M84.5740101,23.7278205 L84.5740101,18.2192308 L82.4996658,18.2192308 L82.4996658,20.1578205 L80.5920076,20.1578205 L80.5920076,18.2192308 L78.5167595,18.2192308 L78.5167595,23.7278205 L80.5920076,23.7278205 L80.5920076,21.5264103 L82.4996658,21.5264103 L82.4996658,23.7278205 L84.5740101,23.7278205" id="Fill-12" fill="#009D90"></path>
                        <path d="M89.422238,18.8914103 C88.9148203,18.2632051 88.3428456,18.0126923 87.5502152,18.0126923 C85.6526278,18.0126923 84.8816886,19.5748718 84.8816886,20.9682051 C84.8816886,22.8278205 86.0920025,23.9338462 87.5502152,23.9338462 C88.3916506,23.9338462 89.0200481,23.5802564 89.422238,23.0783333 L89.422238,23.7278205 L91.4142076,23.7278205 L91.4142076,18.2192308 L89.422238,18.2192308 L89.422238,18.8914103 L89.422238,18.8914103 Z M88.2606,22.2903846 C87.4058658,22.2903846 87.0283367,21.629359 87.0283367,20.9682051 C87.0283367,20.329359 87.3955367,19.6558974 88.2606,19.6558974 C88.9942253,19.6558974 89.5052582,20.17 89.5052582,20.9682051 C89.5052582,21.7785897 88.9942253,22.2903846 88.2606,22.2903846 L88.2606,22.2903846 Z" id="Fill-13" fill="#009D90"></path>
                        <path d="M9.9514557,13.1939744 L9.9514557,10.5078205 L9.26056709,10.5078205 L8.66767595,12.4452564 L8.08730886,10.5078205 L7.37227595,10.5078205 L7.37227595,13.1939744 L7.77911392,13.1939744 L7.77911392,10.9005128 L8.45747848,13.1939744 L8.8035038,13.1939744 L9.49361772,10.9039744 L9.49361772,13.1939744 L9.9514557,13.1939744" id="Fill-14" fill="#009D90"></path>
                        <path d="M16.6777747,10.8776923 L16.6777747,10.5078205 L15.0123342,10.5078205 L15.0123342,13.1939744 L16.6972709,13.1939744 L16.6972709,12.8260256 L15.4948329,12.8260256 L15.4948329,11.9920513 L16.422,11.9920513 L16.422,11.6244872 L15.4948329,11.6244872 L15.4948329,10.8776923 L16.6777747,10.8776923" id="Fill-15" fill="#009D90"></path>
                        <path d="M22.8975797,13.1939744 L22.8975797,11.9794872 L23.0287595,11.9794872 C23.1079063,11.9794872 23.250319,11.9794872 23.3363089,12.0547436 C23.4297873,12.1332051 23.4434734,12.294359 23.4565139,12.435 C23.4891797,12.8416667 23.5250734,12.9508974 23.5572228,13.0105128 C23.6523797,13.1862821 23.8247468,13.2182051 23.9821367,13.2182051 C24.0286177,13.2182051 24.066319,13.2128205 24.1134456,13.1939744 L24.1134456,12.8489744 L24.0951114,12.8489744 C24.0495342,12.8489744 23.9946608,12.8416667 23.9514076,12.7747436 C23.9149975,12.7119231 23.9109949,12.6105128 23.8965342,12.4307692 C23.8783291,12.1797436 23.8332684,12.0705128 23.8077038,12.0239744 C23.713838,11.8424359 23.5315291,11.7958974 23.422557,11.785 L23.422557,11.7729487 C23.5029949,11.7573077 23.5833038,11.7217949 23.6438582,11.6674359 C23.7360456,11.5810256 23.7576076,11.4707692 23.7698734,11.384359 C23.7777494,11.3379487 23.7817519,11.2964103 23.7861418,11.249359 C23.7946633,11.1737179 23.7946633,11.1032051 23.8077038,11.0302564 C23.838562,10.8485897 23.9488253,10.8528205 23.9893671,10.8528205 L24.0246152,10.8528205 L24.0246152,10.5078205 C23.976843,10.4896154 23.9448228,10.4858974 23.8887873,10.4858974 C23.7998278,10.4858974 23.6980861,10.4974359 23.6047367,10.5558974 C23.5205544,10.6061538 23.4695544,10.6808974 23.4434734,10.7701282 C23.4186835,10.8557692 23.4148101,10.9669231 23.3969924,11.1087179 C23.3723316,11.3579487 23.3592911,11.4170513 23.3428937,11.4634615 C23.3219772,11.5220513 23.2579367,11.6288462 23.0287595,11.6288462 L22.8975797,11.6288462 L22.8975797,10.5078205 L22.4483924,10.5078205 L22.4483924,11.6288462 L22.3170835,11.6288462 C22.0885519,11.6288462 22.0252861,11.5220513 22.0044987,11.4634615 C21.9874557,11.4170513 21.9755772,11.3579487 21.9496253,11.1087179 C21.9332278,10.9669231 21.9267722,10.8557692 21.9010785,10.7701282 C21.8777089,10.6808974 21.8254177,10.6061538 21.7413646,10.5558974 C21.6478861,10.4974359 21.5474354,10.4858974 21.4587342,10.4858974 C21.4032152,10.4858974 21.3677089,10.4896154 21.3209696,10.5078205 L21.3209696,10.8528205 L21.3573797,10.8528205 C21.398438,10.8528205 21.5093468,10.8485897 21.5381392,11.0302564 C21.5498886,11.1032051 21.5498886,11.1737179 21.5590557,11.249359 C21.5643494,11.2964103 21.5683519,11.3379487 21.5759696,11.384359 C21.5891392,11.4707692 21.6088937,11.5810256 21.7026304,11.6674359 C21.7615063,11.7217949 21.8425899,11.7573077 21.9248354,11.7729487 L21.9248354,11.785 C21.8137975,11.7958974 21.6322633,11.8424359 21.5381392,12.0239744 C21.5114127,12.0705128 21.4651899,12.1797436 21.4508582,12.4307692 C21.4362684,12.6105128 21.4312329,12.7119231 21.3945646,12.7747436 C21.3515696,12.8416667 21.2978582,12.8489744 21.2489241,12.8489744 L21.235238,12.8489744 L21.235238,13.1939744 C21.2797823,13.2128205 21.3169671,13.2182051 21.3646101,13.2182051 C21.5213544,13.2182051 21.6948835,13.1862821 21.788362,13.0105128 C21.8228354,12.9508974 21.8542101,12.8416667 21.8907494,12.435 C21.9010785,12.294359 21.9151519,12.1332051 22.0095342,12.0547436 C22.0972025,11.9794872 22.2369038,11.9794872 22.3170835,11.9794872 L22.4483924,11.9794872 L22.4483924,13.1939744 L22.8975797,13.1939744" id="Fill-16" fill="#009D90"></path>
                        <path d="M30.9580329,13.7962821 L30.9580329,12.8260256 L30.6865063,12.8260256 L30.6865063,10.5078205 L29.2974987,10.5078205 L29.2974987,10.69 C29.2974987,10.8926923 29.2662532,11.315641 29.2245494,11.595641 C29.1852987,11.8714103 29.1259063,12.1019231 29.0588962,12.3251282 C28.9960177,12.5242308 28.938562,12.6782051 28.869357,12.8260256 L28.6488304,12.8260256 L28.6488304,13.7962821 L29.0639316,13.7962821 L29.0639316,13.1939744 L30.5420278,13.1939744 L30.5420278,13.7962821 L30.9580329,13.7962821 L30.9580329,13.7962821 Z M30.2038785,12.8260256 L29.3145418,12.8260256 C29.4614734,12.4778205 29.5668304,12.0596154 29.6222203,11.6832051 C29.6477848,11.509359 29.6830329,11.2523077 29.6867772,11.0917949 L29.6947823,10.8776923 L30.2038785,10.8776923 L30.2038785,12.8260256 L30.2038785,12.8260256 Z" id="Fill-17" fill="#009D90"></path>
                        <path d="M36.928519,10.5078205 L36.4505392,11.9570513 L36.4386608,11.9570513 L35.8863114,10.5078205 L35.3961949,10.5078205 L36.247443,12.505 C36.224719,12.5839744 36.1742354,12.7052564 36.1156177,12.7669231 C36.0386658,12.8489744 35.9588734,12.8680769 35.8393139,12.8680769 C35.7511291,12.8680769 35.6715949,12.8589744 35.5776,12.8337179 L35.5776,13.2091026 C35.6650101,13.2325641 35.7511291,13.2441026 35.8610051,13.2441026 C36.0482203,13.2441026 36.2225241,13.2182051 36.3819797,13.0480769 C36.4954709,12.9320513 36.572681,12.7602564 36.6737772,12.4657692 L37.3600177,10.5078205 L36.928519,10.5078205" id="Fill-18" fill="#009D90"></path>
                        <path d="M43.8189418,13.1939744 L43.8189418,10.5078205 L43.3356684,10.5078205 L43.3356684,11.6244872 L42.479643,11.6244872 L42.479643,10.5078205 L41.9984354,10.5078205 L41.9984354,13.1939744 L42.479643,13.1939744 L42.479643,11.9920513 L43.3356684,11.9920513 L43.3356684,13.1939744 L43.8189418,13.1939744" id="Fill-19" fill="#009D90"></path>
                        <path d="M49.3740684,10.5078205 L48.5357316,13.1939744 L48.9952481,13.1939744 L49.1735544,12.5188462 L50.0213165,12.5188462 L50.2059494,13.1939744 L50.6942582,13.1939744 L49.9151848,10.5078205 L49.3740684,10.5078205 L49.3740684,10.5078205 Z M49.2712937,12.1683333 L49.5989848,10.9433333 L49.9287418,12.1683333 L49.2712937,12.1683333 L49.2712937,12.1683333 Z" id="Fill-20" fill="#009D90"></path>
                        <path d="M55.9680456,12.1441026 L56.2226582,12.1441026 C56.5007696,12.1441026 56.8612557,12.1332051 57.0851392,11.8870513 C57.216319,11.7446154 57.276357,11.5303846 57.276357,11.3379487 C57.276357,11.0641026 57.1784886,10.8557692 57.0426608,10.7310256 C56.8194228,10.5239744 56.5139392,10.5078205 56.2080684,10.5078205 L55.483481,10.5078205 L55.483481,13.1939744 L55.9680456,13.1939744 L55.9680456,12.1441026 L55.9680456,12.1441026 Z M55.9680456,10.8594872 L56.2080684,10.8594872 C56.4085823,10.8594872 56.5615823,10.8594872 56.6712,10.9976923 C56.7546076,11.0996154 56.7664861,11.2365385 56.7664861,11.3312821 C56.7664861,11.5069231 56.7172937,11.595641 56.6921165,11.6365385 C56.5855975,11.7875641 56.4040633,11.7923077 56.2080684,11.7923077 L55.9680456,11.7923077 L55.9680456,10.8594872 L55.9680456,10.8594872 Z" id="Fill-21" fill="#009D90"></path>
                        <path d="M62.3984354,10.7079487 C62.0786203,11.0133333 62.0428557,11.595641 62.0428557,11.8538462 C62.0428557,12.5948718 62.294757,12.8887179 62.3984354,12.9888462 C62.5545342,13.1385897 62.7989468,13.2441026 63.0907443,13.2441026 C63.4245038,13.2441026 63.6534228,13.1088462 63.7816329,12.9865385 C64.1064835,12.6721795 64.1326937,12.0741026 64.1326937,11.8514103 C64.1326937,11.6192308 64.1064835,11.0367949 63.7816329,10.7165385 C63.6489038,10.5860256 63.4290228,10.4575641 63.0907443,10.4575641 C62.7523367,10.4575641 62.5227722,10.5910256 62.3984354,10.7079487 L62.3984354,10.7079487 Z M63.5599443,11.249359 C63.5948051,11.3820513 63.6235975,11.5619231 63.6235975,11.8514103 C63.6235975,12.1019231 63.6025519,12.294359 63.5599443,12.4548718 C63.4627215,12.8216667 63.2473595,12.8771795 63.0907443,12.8771795 C62.8119873,12.8771795 62.6713823,12.6853846 62.6127646,12.4548718 C62.5768709,12.3173077 62.5516937,12.015 62.5516937,11.8514103 C62.5516937,11.6873077 62.5768709,11.384359 62.6127646,11.249359 C62.7128278,10.8485897 63.0043671,10.8269231 63.0907443,10.8269231 C63.4118506,10.8269231 63.5164329,11.0960256 63.5599443,11.249359 L63.5599443,11.249359 Z" id="Fill-22" fill="#009D90"></path>
                        <path d="M71.0759241,13.7962821 L71.0759241,12.8260256 L70.805043,12.8260256 L70.805043,10.5078205 L69.4161646,10.5078205 L69.4161646,10.69 C69.4161646,10.8926923 69.3875013,11.315641 69.3451519,11.595641 C69.3018987,11.8714103 69.2463797,12.1019231 69.1792405,12.3251282 C69.1166203,12.5242308 69.0558076,12.6782051 68.9875063,12.8260256 L68.7665924,12.8260256 L68.7665924,13.7962821 L69.1831139,13.7962821 L69.1831139,13.1939744 L70.6613392,13.1939744 L70.6613392,13.7962821 L71.0759241,13.7962821 L71.0759241,13.7962821 Z M70.3217696,12.8260256 L69.4319165,12.8260256 C69.5806557,12.4778205 69.6878203,12.0596154 69.7423063,11.6832051 C69.7682582,11.509359 69.8000203,11.2523077 69.8072506,11.0917949 L69.8131899,10.8776923 L70.3217696,10.8776923 L70.3217696,12.8260256 L70.3217696,12.8260256 Z" id="Fill-23" fill="#009D90"></path>
                        <path d="M75.9364177,10.5078205 L75.9364177,13.1939744 L76.421757,13.1939744 L76.421757,11.9920513 L77.2757165,11.9920513 L77.2757165,13.1939744 L77.757957,13.1939744 L77.757957,10.5078205 L77.2757165,10.5078205 L77.2757165,11.6244872 L76.421757,11.6244872 L76.421757,10.5078205 L75.9364177,10.5078205" id="Fill-24" fill="#009D90"></path>
                        <path d="M83.1167013,12.5188462 L83.9627848,12.5188462 L84.1458684,13.1939744 L84.6368886,13.1939744 L83.8563949,10.5078205 L83.3137291,10.5078205 L82.4752633,13.1939744 L82.9377494,13.1939744 L83.1167013,12.5188462 L83.1167013,12.5188462 Z M83.5386456,10.9433333 L83.8681443,12.1683333 L83.2108253,12.1683333 L83.5386456,10.9433333 L83.5386456,10.9433333 Z" id="Fill-25" fill="#009D90"></path>
                        <path d="M89.7640025,13.1939744 L90.2342354,12.0855128 L90.6573418,12.0855128 L90.6573418,13.1939744 L91.1399696,13.1939744 L91.1399696,10.5079487 L90.2604456,10.5079487 C90.0520557,10.5079487 89.7993797,10.5239744 89.5845342,10.7014103 C89.436957,10.8269231 89.3248861,11.0370513 89.3248861,11.3078205 C89.3248861,11.5303846 89.3999013,11.7252564 89.5319848,11.8465385 C89.6076456,11.9188462 89.7175215,11.9755128 89.8008,12.0074359 L89.2252101,13.1939744 L89.7640025,13.1939744 L89.7640025,13.1939744 Z M89.9630962,10.9435897 C90.0697443,10.8691026 90.182719,10.8597436 90.2774886,10.8597436 L90.6573418,10.8597436 L90.6573418,11.7344872 L90.2604456,11.7344872 C90.1494076,11.7344872 90.0222304,11.7029487 89.9425671,11.6369231 C89.8777519,11.5810256 89.8046734,11.479359 89.8046734,11.2989744 C89.8046734,11.1934615 89.8236532,11.0446154 89.9630962,10.9435897 L89.9630962,10.9435897 Z" id="Fill-26" fill="#009D90"></path>
                        <path d="M7.33044304,27.9237179 L8.2471519,27.9237179 L8.2471519,33.0175641 L7.33044304,33.0175641 L7.33044304,27.9237179 Z" id="Fill-27" fill="#009D90"></path>
                        <path d="M11.0861089,29.1485897 C10.8274937,29.1485897 10.594443,29.2071795 10.3784354,29.3861538 C10.1916076,29.5420513 10.1198203,29.705 10.0818608,29.8165385 L10.0818608,29.2292308 L9.2931038,29.2292308 L9.2931038,33.0175641 L10.1368633,33.0175641 L10.1368633,30.9026923 C10.1368633,30.6271795 10.1275671,30.2551282 10.3443494,29.9730769 C10.4750127,29.8101282 10.6198785,29.7424359 10.812,29.7424359 C11.0129013,29.7424359 11.1251013,29.8465385 11.173519,29.9135897 C11.2852025,30.0548718 11.2938532,30.2692308 11.2938532,30.6271795 L11.2938532,33.0175641 L12.1392911,33.0175641 L12.1392911,30.5812821 C12.1392911,30.1283333 12.1701494,29.7217949 11.8650532,29.4235897 C11.696043,29.2669231 11.4295519,29.1485897 11.0861089,29.1485897" id="Fill-28" fill="#009D90"></path>
                        <path d="M14.1248051,32.2601282 C14.0459165,32.134359 14.0459165,31.9425641 14.0459165,31.5329487 L14.0459165,29.8675641 L14.8169848,29.8675641 L14.8169848,29.2292308 L14.0459165,29.2292308 L14.0459165,28.1830769 L13.265681,28.2494872 L13.2252684,29.2292308 L12.6700785,29.2292308 L12.6700785,29.8675641 L13.2002203,29.8675641 L13.2002203,31.5876923 C13.2002203,32.0815385 13.1938937,32.5880769 13.5159038,32.8705128 C13.7161595,33.05 14.0459165,33.1165385 14.3424911,33.1165385 C14.431838,33.1165385 14.5910354,33.1084615 14.9539747,33.05 L14.9539747,32.4394872 C14.7352557,32.4535897 14.664243,32.4611538 14.5686987,32.4611538 C14.3195089,32.4611538 14.1914278,32.3567949 14.1248051,32.2601282" id="Fill-29" fill="#009D90"></path>
                        <path d="M16.8044354,29.1485897 C16.2728734,29.1485897 15.9263316,29.3638462 15.702319,29.5926923 C15.4032911,29.899359 15.1950304,30.4182051 15.1950304,31.1916667 C15.1950304,31.5030769 15.2204658,32.2761538 15.7507367,32.7448718 C15.8878557,32.8630769 16.2403367,33.1165385 16.834519,33.1165385 C17.3575595,33.1165385 17.6963544,32.9088462 17.9040987,32.7075641 C17.9922835,32.6170513 18.259162,32.3489744 18.3323696,31.9052564 L17.5585899,31.8079487 C17.5344456,31.9573077 17.4705342,32.1860256 17.3424532,32.320641 C17.2458759,32.425 17.0852582,32.5228205 16.8265139,32.5228205 C16.6829392,32.5228205 16.482038,32.4842308 16.3114785,32.305 C16.1189696,32.090641 16.0550582,31.7408974 16.045762,31.2507692 L18.3610329,31.2507692 C18.3714911,31.0271795 18.3806582,30.2855128 18.0645873,29.8015385 C17.8904127,29.5344872 17.5174025,29.1485897 16.8044354,29.1485897 L16.8044354,29.1485897 Z M16.070681,30.7164103 C16.0784278,30.5748718 16.114838,30.3884615 16.1527975,30.2551282 C16.2403367,29.9653846 16.4323291,29.7132051 16.7861013,29.7132051 C17.1166329,29.7132051 17.3254101,29.9280769 17.4214709,30.1810256 C17.4777646,30.3365385 17.5025544,30.5453846 17.4940329,30.7164103 L16.070681,30.7164103 L16.070681,30.7164103 Z" id="Fill-30" fill="#009D90"></path>
                        <path d="M20.2375747,29.3998718 C20.0436456,29.5794872 19.8994253,29.8387179 19.8263468,30.0837179 L19.8263468,29.2292308 L19.0780025,29.2292308 L19.0780025,33.0175641 L19.9242152,33.0175641 L19.9242152,31.0953846 C19.9242152,30.8270513 19.939838,30.3884615 20.2766962,30.1358974 C20.4132987,30.0333333 20.6320177,29.9653846 20.7992203,29.9653846 C20.8245266,29.9653846 20.8645519,29.9653846 21.0016709,29.9808974 L21.0016709,29.17 C20.9604835,29.1632051 20.8800456,29.1551282 20.8245266,29.1551282 C20.6489316,29.1551282 20.446481,29.2071795 20.2375747,29.3998718" id="Fill-31" fill="#009D90"></path>
                        <path d="M23.2136506,29.1485897 C22.9551646,29.1485897 22.7227595,29.2071795 22.504557,29.3861538 C22.3204405,29.5420513 22.2485241,29.705 22.2078532,29.8165385 L22.2078532,29.2292308 L21.4193544,29.2292308 L21.4193544,33.0175641 L22.2650506,33.0175641 L22.2650506,30.9026923 C22.2650506,30.6271795 22.2557544,30.2551282 22.4738278,29.9730769 C22.6017797,29.8101282 22.7475494,29.7424359 22.9400582,29.7424359 C23.1405722,29.7424359 23.2529013,29.8465385 23.3009316,29.9135897 C23.413519,30.0548718 23.4207494,30.2692308 23.4207494,30.6271795 L23.4207494,33.0175641 L24.2676076,33.0175641 L24.2676076,30.5812821 C24.2676076,30.1283333 24.2969165,29.7217949 23.9931114,29.4235897 C23.8235848,29.2669231 23.5572228,29.1485897 23.2136506,29.1485897" id="Fill-32" fill="#009D90"></path>
                        <path d="M28.1256608,31.9791026 L28.1256608,30.6789744 C28.1256608,30.0475641 28.0864101,29.6528205 27.6600759,29.3638462 C27.3846759,29.1785897 27.0724785,29.1485897 26.7917848,29.1485897 C26.4208405,29.1485897 25.9467342,29.1934615 25.584957,29.5191026 C25.4167215,29.6688462 25.2558456,29.9047436 25.2011013,30.2171795 L26.0200709,30.3069231 C26.0276886,30.1141026 26.1251696,29.9808974 26.1976025,29.9047436 C26.3413063,29.7579487 26.5026987,29.7132051 26.6714506,29.7132051 C26.9771924,29.7132051 27.1116,29.8675641 27.1690557,29.95 C27.2163114,30.025 27.2735089,30.1670513 27.2735089,30.5303846 L27.2735089,30.6789744 C26.6225165,30.6703846 25.7627468,30.7015385 25.3291823,31.2060256 C25.1272481,31.4371795 25.0471975,31.7476923 25.0471975,31.9996154 C25.0471975,32.2908974 25.1410633,32.6110256 25.335638,32.8020513 C25.5361519,33.0033333 25.8984456,33.1165385 26.2367241,33.1165385 C26.5502127,33.1165385 26.8400734,32.9898718 27.025481,32.8171795 C27.1534329,32.6992308 27.2984278,32.4694872 27.3454253,32.3947436 C27.3375494,32.6029487 27.3545924,32.7735897 27.3950051,33.0175641 L28.1987392,33.0175641 C28.1668481,32.9088462 28.1504506,32.8171795 28.1418,32.6619231 C28.1172684,32.3426923 28.1256608,32.1860256 28.1256608,31.9791026 L28.1256608,31.9791026 Z M27.2735089,31.3619231 C27.2735089,31.6067949 27.2567241,31.875641 27.1207671,32.1117949 C27.0076633,32.2988462 26.7995316,32.5228205 26.493919,32.5228205 C26.3568,32.5228205 26.1799139,32.4842308 26.0758481,32.3865385 C25.9467342,32.2679487 25.9388582,32.0678205 25.9388582,31.9791026 C25.9388582,31.7202564 25.9943772,31.4138462 26.3966962,31.2580769 C26.6866861,31.1460256 27.0553063,31.1538462 27.2735089,31.1684615 L27.2735089,31.3619231 L27.2735089,31.3619231 Z" id="Fill-33" fill="#009D90"></path>
                        <path d="M30.0876759,32.2601282 C30.0080127,32.134359 30.0080127,31.9425641 30.0080127,31.5329487 L30.0080127,29.8675641 L30.7810177,29.8675641 L30.7810177,29.2292308 L30.0080127,29.2292308 L30.0080127,28.1830769 L29.2284228,28.2494872 L29.1877519,29.2292308 L28.6341114,29.2292308 L28.6341114,29.8675641 L29.1645114,29.8675641 L29.1645114,31.5876923 C29.1645114,32.0815385 29.1579266,32.5880769 29.4765797,32.8705128 C29.6789013,33.05 30.0080127,33.1165385 30.3051038,33.1165385 C30.3947089,33.1165385 30.5561013,33.1084615 30.9168456,33.05 L30.9168456,32.4394872 C30.7001924,32.4535897 30.6282759,32.4611538 30.5323443,32.4611538 C30.2803139,32.4611538 30.1531367,32.3567949 30.0876759,32.2601282" id="Fill-34" fill="#009D90"></path>
                        <path d="M31.3346582,27.8996154 L32.2278684,27.8996154 L32.2278684,28.7316667 L31.3346582,28.7316667 L31.3346582,27.8996154 Z" id="Fill-35" fill="#009D90"></path>
                        <path d="M31.3584152,29.2292308 L32.2030785,29.2292308 L32.2030785,33.0175641 L31.3584152,33.0175641 L31.3584152,29.2292308 Z" id="Fill-36" fill="#009D90"></path>
                        <path d="M34.6320987,29.1485897 C34.3174481,29.1485897 33.900281,29.1934615 33.5468962,29.5260256 C33.0558759,29.9942308 33.0159797,30.7830769 33.0159797,31.1251282 C33.0159797,31.4887179 33.0558759,32.2601282 33.5468962,32.7296154 C33.8916304,33.0573077 34.3109924,33.1165385 34.6320987,33.1165385 C34.9129215,33.1165385 35.3313797,33.0626923 35.6846354,32.7510256 C36.1920532,32.2988462 36.2396962,31.6155128 36.2396962,31.1251282 C36.2396962,30.6789744 36.1991544,29.9653846 35.6846354,29.5046154 C35.3397722,29.1934615 34.9526886,29.1485897 34.6320987,29.1485897 L34.6320987,29.1485897 Z M35.2269266,32.0303846 C35.1715367,32.2161538 35.0264127,32.5228205 34.6243519,32.5228205 C34.2312,32.5228205 34.094081,32.2235897 34.0288785,32.0303846 C33.9152582,31.6891026 33.9152582,31.4064103 33.9152582,31.1251282 C33.9152582,30.8342308 33.9242962,30.5748718 34.0288785,30.240641 C34.094081,30.0548718 34.2312,29.7424359 34.6320987,29.7424359 C34.8807722,29.7424359 35.1138228,29.8675641 35.2269266,30.240641 C35.2431949,30.2855128 35.3397722,30.6039744 35.3397722,31.1178205 C35.3397722,31.4138462 35.3072354,31.7783333 35.2269266,32.0303846 L35.2269266,32.0303846 Z" id="Fill-37" fill="#009D90"></path>
                        <path d="M38.8454734,29.1485897 C38.5889241,29.1485897 38.356519,29.2071795 38.1384456,29.3861538 C37.953038,29.5420513 37.8797013,29.705 37.8418709,29.8165385 L37.8418709,29.2292308 L37.0531139,29.2292308 L37.0531139,33.0175641 L37.8954532,33.0175641 L37.8954532,30.9026923 C37.8954532,30.6271795 37.8888684,30.2551282 38.1070709,29.9730769 C38.2338608,29.8101282 38.3798886,29.7424359 38.571881,29.7424359 C38.7731696,29.7424359 38.8865316,29.8465385 38.9335291,29.9135897 C39.0458582,30.0548718 39.0551544,30.2692308 39.0551544,30.6271795 L39.0551544,33.0175641 L39.8991722,33.0175641 L39.8991722,30.5812821 C39.8991722,30.1283333 39.9319671,29.7217949 39.6257089,29.4235897 C39.4557949,29.2669231 39.1909823,29.1485897 38.8454734,29.1485897" id="Fill-38" fill="#009D90"></path>
                        <path d="M43.7587747,31.9791026 L43.7587747,30.6789744 C43.7587747,30.0475641 43.7170709,29.6528205 43.2920278,29.3638462 C43.019081,29.1785897 42.7049468,29.1485897 42.4227038,29.1485897 C42.0546,29.1485897 41.5798481,29.1934615 41.2200076,29.5191026 C41.0484152,29.6688462 40.8871519,29.9047436 40.8309873,30.2171795 L41.6524101,30.3069231 C41.6608025,30.1141026 41.7575089,29.9808974 41.8287797,29.9047436 C41.9742911,29.7579487 42.1349089,29.7132051 42.3053392,29.7132051 C42.6083696,29.7132051 42.7440684,29.8675641 42.8015241,29.95 C42.8511038,30.025 42.9071392,30.1670513 42.9071392,30.5303846 L42.9071392,30.6789744 C42.2556304,30.6703846 41.3950861,30.7015385 40.9602304,31.2060256 C40.760362,31.4371795 40.6794076,31.7476923 40.6794076,31.9996154 C40.6794076,32.2908974 40.7746937,32.6110256 40.9693975,32.8020513 C41.1691367,33.0033333 41.5322051,33.1165385 41.8690633,33.1165385 C42.1831975,33.1165385 42.4725418,32.9898718 42.6567873,32.8171795 C42.7860304,32.6992308 42.932962,32.4694872 42.9804759,32.3947436 C42.9707924,32.6029487 42.9856405,32.7735897 43.028119,33.0175641 L43.8310785,33.0175641 C43.7985418,32.9088462 43.7827899,32.8171795 43.775043,32.6619231 C43.7521899,32.3426923 43.7587747,32.1860256 43.7587747,31.9791026 L43.7587747,31.9791026 Z M42.9071392,31.3619231 C42.9071392,31.6067949 42.887643,31.875641 42.7531063,32.1117949 C42.6409063,32.2988462 42.432,32.5228205 42.1276785,32.5228205 C41.9899139,32.5228205 41.8140608,32.4842308 41.7085747,32.3865385 C41.5798481,32.2679487 41.5714557,32.0678205 41.5714557,31.9791026 C41.5714557,31.7202564 41.6263291,31.4138462 42.0298101,31.2580769 C42.3196709,31.1460256 42.6891949,31.1538462 42.9071392,31.1684615 L42.9071392,31.3619231 L42.9071392,31.3619231 Z" id="Fill-39" fill="#009D90"></path>
                        <path d="M44.7239013,27.9066667 L45.5693392,27.9066667 L45.5693392,33.0175641 L44.7239013,33.0175641 L44.7239013,27.9066667 Z" id="Fill-40" fill="#009D90"></path>
                        <path d="M49.749919,27.9237179 L48.4958354,27.9237179 L48.4958354,33.0175641 L49.8143468,33.0175641 C50.529638,33.0175641 51.0996759,32.8791026 51.582562,32.3947436 C52.1465316,31.8302564 52.2751291,31.0724359 52.2751291,30.4339744 C52.2751291,29.4526923 51.9524734,28.8794872 51.6324,28.5541026 C51.0037443,27.9297436 50.0954278,27.9237179 49.749919,27.9237179 L49.749919,27.9237179 Z M50.9873468,31.7476923 C50.6183392,32.2838462 50.1116962,32.320641 49.8062127,32.320641 L49.4117696,32.320641 L49.4117696,28.6205128 L49.8062127,28.6205128 C50.2976203,28.6205128 50.6825089,28.74 50.9793418,29.17 C51.2530633,29.5708974 51.3092278,30.0475641 51.3092278,30.44 C51.3092278,30.8502564 51.2614557,31.3533333 50.9873468,31.7476923 L50.9873468,31.7476923 Z" id="Fill-41" fill="#009D90"></path>
                        <path d="M54.5419823,29.1485897 C54.0124861,29.1485897 53.6662025,29.3638462 53.4415443,29.5926923 C53.1458734,29.899359 52.9342557,30.4182051 52.9342557,31.1916667 C52.9342557,31.5030769 52.9578835,32.2761538 53.4893165,32.7448718 C53.6257899,32.8630769 53.9791747,33.1165385 54.5738734,33.1165385 C55.0969139,33.1165385 55.4350633,32.9088462 55.6433241,32.7075641 C55.731638,32.6170513 55.9978709,32.3489744 56.0695291,31.9052564 L55.2985899,31.8079487 C55.2732835,31.9573077 55.2097595,32.1860256 55.081162,32.320641 C54.9838101,32.425 54.8247418,32.5228205 54.5667722,32.5228205 C54.4219063,32.5228205 54.2206177,32.4842308 54.0530278,32.305 C53.8601316,32.090641 53.7954456,31.7408974 53.7876987,31.2507692 L56.101162,31.2507692 C56.1104582,31.0271795 56.1189797,30.2855128 55.8039418,29.8015385 C55.6283468,29.5344872 55.2588228,29.1485897 54.5419823,29.1485897 L54.5419823,29.1485897 Z M53.8119722,30.7164103 C53.8184278,30.5748718 53.8509646,30.3884615 53.8908608,30.2551282 C53.9791747,29.9653846 54.1742658,29.7132051 54.528038,29.7132051 C54.8558582,29.7132051 55.0648937,29.9280769 55.1609544,30.1810256 C55.2168608,30.3365385 55.2413924,30.5453846 55.2319671,30.7164103 L53.8119722,30.7164103 L53.8119722,30.7164103 Z" id="Fill-42" fill="#009D90"></path>
                        <path d="M59.0288203,31.1251282 C58.8126835,30.9684615 58.5458051,30.8776923 58.210238,30.775 C57.8718304,30.6703846 57.7112127,30.6271795 57.6070177,30.5533333 C57.5259342,30.4933333 57.4061165,30.3816667 57.4061165,30.1810256 C57.4061165,30.0623077 57.4447215,29.9565385 57.5422025,29.8617949 C57.6629241,29.7424359 57.7828709,29.7132051 57.9357418,29.7132051 C58.1042354,29.7132051 58.2906759,29.7652564 58.4351544,29.9353846 C58.5075873,30.025 58.5796329,30.16 58.6110076,30.2855128 L59.2883392,30.1225641 C59.2160354,29.8761538 59.0856304,29.6528205 58.9248835,29.4979487 C58.6110076,29.1858974 58.2577519,29.1485897 57.9522684,29.1485897 C57.6629241,29.1485897 57.2999848,29.1858974 56.9721646,29.4816667 C56.706319,29.7217949 56.5855975,30.0333333 56.5855975,30.3147436 C56.5855975,30.6185897 56.7304633,30.864359 56.9552506,31.0505128 C57.2292304,31.2730769 57.5335519,31.3619231 57.8794481,31.4582051 C58.2243114,31.5548718 58.5860886,31.674359 58.5860886,32.0448718 C58.5860886,32.1785897 58.5157215,32.335 58.4254709,32.4097436 C58.3223089,32.4987179 58.1441316,32.5362821 57.9605316,32.5362821 C57.6629241,32.5362821 57.4873291,32.4394872 57.3737089,32.320641 C57.2587975,32.2024359 57.1960481,32.0162821 57.1717747,31.8819231 L56.451319,32.0162821 C56.4895367,32.2988462 56.6253646,32.5726923 56.8350456,32.7589744 C57.108638,33.0033333 57.5259342,33.1165385 57.9281241,33.1165385 C58.2812506,33.1165385 58.6822785,33.0264103 58.9646506,32.8171795 C59.1908582,32.6555128 59.4230051,32.3567949 59.4230051,31.8978205 C59.4230051,31.5623077 59.3022835,31.3180769 59.0288203,31.1251282" id="Fill-43" fill="#009D90"></path>
                        <path d="M60.078,29.2292308 L60.9202101,29.2292308 L60.9202101,33.0175641 L60.078,33.0175641 L60.078,29.2292308 Z" id="Fill-44" fill="#009D90"></path>
                        <path d="M60.051919,27.8996154 L60.9430633,27.8996154 L60.9430633,28.7316667 L60.051919,28.7316667 L60.051919,27.8996154 Z" id="Fill-45" fill="#009D90"></path>
                        <path d="M63.5716937,32.2303846 C63.1074,32.2091026 62.9298684,32.2024359 62.7759646,32.1571795 C62.6159924,32.1117949 62.5443342,32.0448718 62.5443342,31.8819231 C62.5443342,31.7996154 62.5677038,31.7408974 62.6473671,31.674359 C62.7045646,31.6297436 62.7935241,31.5876923 62.8483975,31.5623077 C62.9646,31.5876923 63.1621443,31.6221795 63.3882228,31.6221795 C63.7175924,31.6221795 64.0863418,31.5474359 64.4018962,31.2730769 C64.6434684,31.0578205 64.8026658,30.7535897 64.8026658,30.410641 C64.8026658,30.16 64.7157722,29.8165385 64.4754911,29.5926923 C64.4891772,29.5344872 64.5217139,29.4235897 64.5780076,29.3416667 C64.6667089,29.2148718 64.7882051,29.1785897 64.949081,29.1785897 C64.9800684,29.1785897 65.0434633,29.1858974 65.1250633,29.1992308 L65.1250633,28.6355128 C65.0273241,28.6205128 64.9555367,28.6126923 64.8672228,28.6126923 C64.7066051,28.6126923 64.5062203,28.6278205 64.3456025,28.7621795 C64.209,28.8723077 64.1117772,29.1039744 64.0863418,29.304359 C63.9023544,29.2071795 63.6776962,29.1485897 63.2988759,29.1485897 C63.0114684,29.1485897 62.6094076,29.1934615 62.2556354,29.5191026 C61.9263949,29.8232051 61.8846911,30.16 61.8846911,30.3884615 C61.8846911,30.6496154 61.9408557,31.0798718 62.4241291,31.3533333 C62.3523418,31.3839744 62.1668051,31.4733333 62.0388532,31.5876923 C61.917357,31.6967949 61.8036076,31.875641 61.8036076,32.1117949 C61.8036076,32.2908974 61.8773316,32.544359 62.2556354,32.7365385 C62.1097367,32.7735897 61.9584152,32.8483333 61.8528,32.9517949 C61.7488633,33.0573077 61.6515114,33.2192308 61.6515114,33.4875641 C61.6515114,33.7851282 61.8036076,34.0067949 62.0538304,34.1626923 C62.2556354,34.2889744 62.6159924,34.415641 63.3479392,34.415641 C63.8711089,34.415641 64.4754911,34.3487179 64.8758734,33.9625641 C65.1166709,33.7319231 65.1742557,33.4939744 65.1742557,33.2192308 C65.1742557,32.8630769 65.0371367,32.6555128 64.8913671,32.5362821 C64.5635468,32.2535897 63.9342456,32.2466667 63.5716937,32.2303846 L63.5716937,32.2303846 Z M62.9208304,29.8465385 C63.0664709,29.6602564 63.2278633,29.6528205 63.3636911,29.6528205 C63.5164329,29.6528205 63.6371544,29.6902564 63.75,29.8316667 C63.8863443,29.9942308 63.9204304,30.2020513 63.9204304,30.3816667 C63.9204304,30.5367949 63.8863443,30.775 63.7893797,30.9178205 C63.702357,31.0437179 63.5485823,31.1319231 63.371438,31.1319231 C63.2278633,31.1319231 63.0509772,31.0869231 62.9469114,30.9841026 C62.818443,30.8569231 62.7701544,30.6185897 62.7701544,30.4016667 C62.7701544,30.240641 62.7935241,30.0174359 62.9208304,29.8465385 L62.9208304,29.8465385 Z M64.1679418,33.7174359 C63.9501266,33.8515385 63.6606532,33.8658974 63.4118506,33.8658974 C63.0509772,33.8658974 62.8338076,33.8370513 62.6822278,33.7537179 C62.4561494,33.6355128 62.4241291,33.4583333 62.4241291,33.3301282 C62.4241291,33.2130769 62.4793899,33.0925641 62.5516937,33.0112821 C62.6094076,32.945 62.7045646,32.8924359 62.7851316,32.8546154 C63.0025595,32.8705128 63.1874506,32.8791026 63.4686608,32.8855128 C63.75,32.8924359 64.0068076,32.8924359 64.1756886,32.9898718 C64.3600633,33.0925641 64.3842076,33.2261538 64.3842076,33.3383333 C64.3842076,33.4939744 64.3456025,33.6129487 64.1679418,33.7174359 L64.1679418,33.7174359 Z" id="Fill-46" fill="#009D90"></path>
                        <path d="M67.4170937,29.1485897 C67.1604152,29.1485897 66.926719,29.2071795 66.7105823,29.3861538 C66.5262076,29.5420513 66.4532582,29.705 66.4123291,29.8165385 L66.4123291,29.2292308 L65.6235722,29.2292308 L65.6235722,33.0175641 L66.467719,33.0175641 L66.467719,30.9026923 C66.467719,30.6271795 66.4612633,30.2551282 66.6766253,29.9730769 C66.8063848,29.8101282 66.9508633,29.7424359 67.1441468,29.7424359 C67.3445316,29.7424359 67.4554405,29.8465385 67.5057949,29.9135897 C67.6174785,30.0548718 67.6257418,30.2692308 67.6257418,30.6271795 L67.6257418,33.0175641 L68.4704051,33.0175641 L68.4704051,30.5812821 C68.4704051,30.1283333 68.5035873,29.7217949 68.1972,29.4235897 C68.0293519,29.2669231 67.7637646,29.1485897 67.4170937,29.1485897" id="Fill-47" fill="#009D90"></path>
                        <path d="M73.2385823,30.0091026 C72.7318101,29.8232051 72.5077975,29.7424359 72.3635772,29.6170513 C72.2336886,29.5046154 72.1448582,29.3339744 72.1448582,29.1632051 C72.1448582,28.9978205 72.2185823,28.8137179 72.3720987,28.6883333 C72.5483392,28.5394872 72.7318101,28.5234615 72.8707367,28.5234615 C73.1590481,28.5234615 73.3906785,28.5921795 73.5931291,28.8137179 C73.7137215,28.9482051 73.8110734,29.1632051 73.8659468,29.3129487 L74.646957,29.0580769 C74.5587722,28.7621795 74.3641975,28.4266667 74.1394101,28.2266667 C73.9228861,28.0324359 73.5440658,27.8251282 72.9584051,27.8251282 C72.2977291,27.8251282 71.9137443,28.0715385 71.7518354,28.2046154 C71.4391215,28.4574359 71.2453215,28.8282051 71.2453215,29.259359 C71.2453215,29.7579487 71.5115544,30.0921795 71.7518354,30.3011538 C72.0972152,30.5891026 72.5322,30.7223077 72.9108911,30.8502564 C73.3345139,30.9910256 73.8516152,31.1615385 73.8516152,31.7116667 C73.8516152,31.9791026 73.7137215,32.1428205 73.5846076,32.2303846 C73.400362,32.3646154 73.1098557,32.4175641 72.9427823,32.4175641 C72.6522759,32.4175641 72.3466633,32.3128205 72.1369823,32.0978205 C71.9692633,31.9203846 71.8733316,31.6597436 71.8406658,31.4733333 L71.0276354,31.6891026 C71.0921924,32.0303846 71.2692076,32.3865385 71.5344076,32.6323077 C71.8406658,32.9161538 72.3466633,33.1165385 72.9427823,33.1165385 C73.4802835,33.1165385 73.9228861,32.9517949 74.2296608,32.7158974 C74.4921494,32.4987179 74.7814937,32.1210256 74.7814937,31.5716667 C74.7814937,31.0578205 74.5344987,30.7223077 74.2853089,30.5226923 C74.0344405,30.3147436 73.6739544,30.1733333 73.2385823,30.0091026" id="Fill-48" fill="#009D90"></path>
                        <path d="M76.9707494,29.7424359 C77.1247823,29.7424359 77.2690025,29.7870513 77.3883038,29.9280769 C77.508638,30.0758974 77.5662228,30.2855128 77.5904962,30.5965385 L78.4083038,30.5074359 C78.3777038,30.1889744 78.2420051,29.7715385 77.984681,29.5125641 C77.6706759,29.1934615 77.2835924,29.1485897 76.9955392,29.1485897 C76.6417671,29.1485897 76.2146582,29.2071795 75.8778,29.5420513 C75.3875544,30.0174359 75.363281,30.8776923 75.363281,31.1460256 C75.363281,31.465641 75.4113114,32.2161538 75.8292532,32.67 C76.0377722,32.8989744 76.3836684,33.1165385 76.9312405,33.1165385 C77.4779089,33.1165385 77.8396861,32.8989744 78.0250937,32.6992308 C78.2980405,32.4097436 78.3850633,31.9638462 78.4083038,31.7116667 L77.5904962,31.6529487 C77.5812,31.8978205 77.5172886,32.1716667 77.3961797,32.3283333 C77.2835924,32.4769231 77.139243,32.5228205 76.9620987,32.5228205 C76.7781114,32.5228205 76.6487392,32.4611538 76.5293089,32.335 C76.2941924,32.090641 76.2637215,31.7257692 76.2637215,31.1460256 C76.2637215,30.4258974 76.3582329,30.1283333 76.488638,29.9653846 C76.5939949,29.8316667 76.7453165,29.7424359 76.9707494,29.7424359" id="Fill-49" fill="#009D90"></path>
                        <path d="M80.8059494,29.1485897 C80.581162,29.1485897 80.3242253,29.2071795 80.1399797,29.3416667 C79.9780709,29.4526923 79.8760709,29.6234615 79.8174532,29.7339744 L79.8174532,27.9066667 L78.9738228,27.9066667 L78.9738228,33.0175641 L79.8174532,33.0175641 L79.8174532,30.8569231 C79.8174532,30.5367949 79.8252,30.2332051 80.0270051,29.9730769 C80.1322329,29.8387179 80.2586354,29.7424359 80.4774835,29.7424359 C80.6616,29.7424359 80.7819342,29.8387179 80.8552709,29.9280769 C80.9501696,30.0623077 80.982319,30.2692308 80.982319,30.6414103 L80.9758633,33.0175641 L81.8192354,33.0175641 L81.8192354,30.6414103 C81.8192354,30.1141026 81.8356329,29.6983333 81.5542937,29.4142308 C81.3935468,29.259359 81.1279595,29.1485897 80.8059494,29.1485897" id="Fill-50" fill="#009D90"></path>
                        <path d="M84.2244987,29.1485897 C83.9113975,29.1485897 83.4919063,29.1934615 83.1389089,29.5260256 C82.6486633,29.9942308 82.6076051,30.7830769 82.6076051,31.1251282 C82.6076051,31.4887179 82.6486633,32.2601282 83.1389089,32.7296154 C83.4844177,33.0573077 83.9033924,33.1165385 84.2244987,33.1165385 C84.5046759,33.1165385 84.9224886,33.0626923 85.2770354,32.7510256 C85.7844532,32.2988462 85.8319671,31.6155128 85.8319671,31.1251282 C85.8319671,30.6789744 85.7911671,29.9653846 85.2770354,29.5046154 C84.9333342,29.1934615 84.544443,29.1485897 84.2244987,29.1485897 L84.2244987,29.1485897 Z M84.818681,32.0303846 C84.7638076,32.2161538 84.6184253,32.5228205 84.2161063,32.5228205 C83.8219215,32.5228205 83.6859646,32.2235897 83.6221823,32.0303846 C83.5084329,31.6891026 83.5084329,31.4064103 83.5084329,31.1251282 C83.5084329,30.8342308 83.5177291,30.5748718 83.6221823,30.240641 C83.6859646,30.0548718 83.8219215,29.7424359 84.2244987,29.7424359 C84.4734304,29.7424359 84.7079013,29.8675641 84.818681,30.240641 C84.8344329,30.2855128 84.9333342,30.6039744 84.9333342,31.1178205 C84.9333342,31.4138462 84.9000228,31.7783333 84.818681,32.0303846 L84.818681,32.0303846 Z" id="Fill-51" fill="#009D90"></path>
                        <path d="M88.0591823,29.1485897 C87.7473722,29.1485897 87.3286557,29.1934615 86.9750127,29.5260256 C86.4845089,29.9942308 86.4435797,30.7830769 86.4435797,31.1251282 C86.4435797,31.4887179 86.4845089,32.2601282 86.9750127,32.7296154 C87.3209089,33.0573077 87.7387215,33.1165385 88.0591823,33.1165385 C88.3428456,33.1165385 88.7601418,33.0626923 89.1136557,32.7510256 C89.6199114,32.2988462 89.6676835,31.6155128 89.6676835,31.1251282 C89.6676835,30.6789744 89.6284329,29.9653846 89.1136557,29.5046154 C88.767243,29.1934615 88.3832582,29.1485897 88.0591823,29.1485897 L88.0591823,29.1485897 Z M88.6542684,32.0303846 C88.5979747,32.2161538 88.4550456,32.5228205 88.0527266,32.5228205 C87.6578962,32.5228205 87.5220684,32.2235897 87.4573823,32.0303846 C87.3440203,31.6891026 87.3440203,31.4064103 87.3440203,31.1251282 C87.3440203,30.8342308 87.3522835,30.5748718 87.4573823,30.240641 C87.5220684,30.0548718 87.6578962,29.7424359 88.0591823,29.7424359 C88.3095342,29.7424359 88.5431013,29.8675641 88.6542684,30.240641 C88.6700203,30.2855128 88.767243,30.6039744 88.767243,31.1178205 C88.767243,31.4138462 88.7340608,31.7783333 88.6542684,32.0303846 L88.6542684,32.0303846 Z" id="Fill-52" fill="#009D90"></path>
                        <path d="M90.4805848,27.9066667 L91.3246025,27.9066667 L91.3246025,33.0175641 L90.4805848,33.0175641 L90.4805848,27.9066667 Z" id="Fill-53" fill="#009D90"></path>
                        <path d="M100.119197,0.0898717949 L10.4468658,0.0898717949 L0.124078481,8.39525641 L0.124078481,43.1647436 L90.0341089,43.1647436 L100.119197,35.0505128 L100.119197,0.0898717949 L100.119197,0.0898717949 Z" id="Stroke-54" stroke="#009D90" stroke-width="2"></path>
                    </g>
                </g>
            </g>
        </g>
    </g>
</svg>