<?xml version="1.0" encoding="UTF-8" standalone="no"?>
<svg width="198px" height="40px" viewBox="0 0 198 40" version="1.1" xmlns="http://www.w3.org/2000/svg" xmlns:xlink="http://www.w3.org/1999/xlink" xmlns:sketch="http://www.bohemiancoding.com/sketch/ns">
    <!-- Generator: Sketch 3.2.2 (9983) - http://www.bohemiancoding.com/sketch -->
    <title>5</title>
    <desc>Created with Sketch.</desc>
    <defs>
        <path id="path-1" d="M0.020915493,0.107017544 L197.696028,0.107017544 L197.696028,39.9789474 L0.020915493,39.9789474"></path>
    </defs>
    <g id="Page-1" stroke="none" stroke-width="1" fill="none" fill-rule="evenodd" sketch:type="MSPage">
        <g id="Партнёры" sketch:type="MSArtboardGroup" transform="translate(-469.000000, -1096.000000)">
            <g id="2_block" sketch:type="MSLayerGroup" transform="translate(469.000000, 142.000000)">
                <g id="3" transform="translate(0.000000, 717.000000)">
                    <g id="5" transform="translate(0.000000, 237.000000)">
                        <g id="Group-3">
                            <mask id="mask-2" sketch:name="Clip 2" fill="white">
                                <use xlink:href="#path-1"></use>
                            </mask>
                            <g id="Clip-2"></g>
                            <path d="M25.0163239,31.6796491 L34.9884824,26.602807 C35.0777218,24.6733333 34.8019859,22.6161404 34.2442394,20.5273684 L23.2242148,20.5273684 L32.6518732,16.0491228 C31.6747711,13.8214035 30.4536549,11.6480702 29.0997254,9.65824561 L21.5426092,9.65824561 L26.8492183,6.66105263 C23.7146831,2.88842105 20.2577007,0.281403509 17.6118908,0.112631579 C17.5745915,0.10877193 17.5390352,0.10877193 17.5034789,0.107017544 C17.4682711,0.10877193 17.4327148,0.10877193 17.3971585,0.112631579 C14.7384507,0.281403509 11.2664789,2.91298246 8.12427465,6.70807018 L13.1757148,9.56280702 L5.98008803,9.56280702 C4.5909507,11.5915789 3.33602113,13.8175439 2.33835211,16.0978947 L11.4937606,20.4466667 L0.792697183,20.4466667 C0.231464789,22.5207018 -0.0630950704,24.5663158 0.0115035211,26.4863158 L10.0376937,31.5933333 L0.986514085,31.5933333 C2.74480986,36.7245614 6.42767958,38.9957895 10.8934859,40 L24.1138204,40 C28.5573169,39.0014035 32.2213627,36.7529825 33.9908134,31.6796491 L25.0163239,31.6796491" id="Fill-1" fill="#FFFFFF" sketch:type="MSShapeGroup" mask="url(#mask-2)"></path>
                        </g>
                        <path d="M58.7090915,28.7533333 C58.7090915,27.3287719 58.3807183,26.2045614 57.724669,25.3789474 C57.0661796,24.5512281 55.8896831,23.7459649 54.1927394,22.9614035 C50.8866972,21.6684211 48.4012394,20.2024561 46.7342746,18.5659649 C45.0655669,16.9312281 44.2320845,14.6392982 44.2320845,11.6947368 C44.2320845,8.76491228 45.1847852,6.37929825 47.0884437,4.53824561 C48.9924507,2.69684211 51.4182993,1.77719298 54.3701725,1.77719298 C57.4987817,1.77719298 60.0142183,2.75894737 61.9182254,4.72210526 C63.8218838,6.68701754 64.7449542,9.32035088 64.6853451,12.6273684 L64.6403768,12.7736842 L58.5766268,12.7736842 C58.5766268,10.9249123 58.2036338,9.52105263 57.4579965,8.56385965 C56.7120106,7.60666667 55.6453204,7.12807018 54.2600176,7.12807018 C53.0646972,7.12807018 52.1343063,7.56561404 51.470588,8.44210526 C50.8065211,9.31649123 50.474662,10.4087719 50.474662,11.7189474 C50.474662,12.9294737 50.8514894,13.9280702 51.6030528,14.7126316 C52.3563592,15.4989474 53.6464965,16.3585965 55.4776479,17.2894737 C58.5916162,18.4361404 60.9484437,19.8835088 62.5502218,21.634386 C64.1499085,23.385614 64.9520176,25.742807 64.9520176,28.7045614 C64.9520176,31.7638596 64.0139577,34.1701754 62.1399296,35.9192982 C60.2659014,37.6705263 57.7787007,38.5470175 54.6793732,38.5470175 C51.6253627,38.5470175 49.0130176,37.6010526 46.8444296,35.7129825 C44.6758415,33.8210526 43.6279754,30.945614 43.7004824,27.0831579 L43.7454507,26.9368421 L49.8332535,26.9368421 C49.8332535,29.1796491 50.2418028,30.7898246 51.0602958,31.7715789 C51.8787887,32.7529825 53.087007,33.2449123 54.6793732,33.2449123 C56.0238908,33.2449123 57.0309718,32.8357895 57.7002676,32.017193 C58.3733979,31.1989474 58.7090915,30.1122807 58.7090915,28.7533333" id="Fill-4" fill="#FFFFFF" sketch:type="MSShapeGroup"></path>
                        <path d="M92.5660458,38.0315789 L86.3471725,38.0315789 L86.3471725,23.1329825 L75.9650704,23.1329825 L75.9650704,38.0315789 L69.7221444,38.0315789 L69.7221444,2.2922807 L75.9650704,2.2922807 L75.9650704,17.7333333 L86.3471725,17.7333333 L86.3471725,2.2922807 L92.5660458,2.2922807 L92.5660458,38.0315789" id="Fill-5" fill="#FFFFFF" sketch:type="MSShapeGroup"></path>
                        <path d="M98.5548486,2.29192982 L104.773373,2.29192982 L104.773373,38.0312281 L98.5548486,38.0312281 L98.5548486,2.29192982 Z" id="Fill-6" fill="#FFFFFF" sketch:type="MSShapeGroup"></path>
                        <path d="M124.763704,28.7533333 C124.763704,27.3287719 124.435331,26.2045614 123.778933,25.3789474 C123.120792,24.5512281 121.944296,23.7459649 120.247352,22.9614035 C116.94131,21.6684211 114.455852,20.2024561 112.788887,18.5659649 C111.119831,16.9312281 110.286349,14.6392982 110.286349,11.6947368 C110.286349,8.76491228 111.239398,6.37929825 113.143056,4.53824561 C115.047063,2.69684211 117.472912,1.77719298 120.424437,1.77719298 C123.553394,1.77719298 126.068831,2.75894737 127.972489,4.72210526 C129.876496,6.68701754 130.797475,9.32035088 130.739609,12.6273684 L130.694989,12.7736842 L124.631239,12.7736842 C124.631239,10.9249123 124.258246,9.52105263 123.512261,8.56385965 C122.766623,7.60666667 121.699933,7.12807018 120.31463,7.12807018 C119.11931,7.12807018 118.188919,7.56561404 117.525201,8.44210526 C116.861134,9.31649123 116.529275,10.4087719 116.529275,11.7189474 C116.529275,12.9294737 116.906102,13.9280702 117.657317,14.7126316 C118.410623,15.4989474 119.701109,16.3585965 121.532261,17.2894737 C124.646229,18.4361404 127.003056,19.8835088 128.604835,21.634386 C130.204521,23.385614 131.006282,25.742807 131.006282,28.7045614 C131.006282,31.7638596 130.06857,34.1701754 128.194542,35.9192982 C126.318771,37.6705263 123.832965,38.5470175 120.733986,38.5470175 C117.679975,38.5470175 115.067282,37.6010526 112.899042,35.7129825 C110.730454,33.8210526 109.682239,30.945614 109.755095,27.0831579 L109.799715,26.9368421 L115.886123,26.9368421 C115.886123,29.1796491 116.296415,30.7898246 117.114908,31.7715789 C117.933401,32.7529825 119.139877,33.2449123 120.733986,33.2449123 C122.076761,33.2449123 123.085585,32.8357895 123.756623,32.017193 C124.428011,31.1989474 124.763704,30.1122807 124.763704,28.7533333" id="Fill-7" fill="#FFFFFF" sketch:type="MSShapeGroup"></path>
                        <path d="M158.62031,38.0315789 L152.401785,38.0315789 L152.401785,23.1329825 L142.019683,23.1329825 L142.019683,38.0315789 L135.776757,38.0315789 L135.776757,2.2922807 L142.019683,2.2922807 L142.019683,17.7333333 L152.401785,17.7333333 L152.401785,2.2922807 L158.62031,2.2922807 L158.62031,38.0315789" id="Fill-8" fill="#FFFFFF" sketch:type="MSShapeGroup"></path>
                        <path d="M172.403968,23.0340351 L170.699704,23.0340351 L170.699704,38.0319298 L164.457127,38.0319298 L164.457127,2.29263158 L170.699704,2.29263158 L170.699704,16.922807 L171.984613,16.922807 L178.823979,2.29263158 L186.571775,2.29263158 L177.274489,18.6157895 L187.257803,38.0319298 L179.288303,38.0319298 L172.403968,23.0340351" id="Fill-9" fill="#FFFFFF" sketch:type="MSShapeGroup"></path>
                        <path d="M191.477504,2.29368421 L197.696028,2.29368421 L197.696028,38.0329825 L191.477504,38.0329825 L191.477504,2.29368421 Z" id="Fill-10" fill="#FFFFFF" sketch:type="MSShapeGroup"></path>
                    </g>
                </g>
            </g>
        </g>
    </g>
</svg>