<?xml version="1.0" encoding="UTF-8" standalone="no"?>
<svg width="215px" height="30px" viewBox="0 0 215 30" version="1.1" xmlns="http://www.w3.org/2000/svg" xmlns:xlink="http://www.w3.org/1999/xlink" xmlns:sketch="http://www.bohemiancoding.com/sketch/ns">
    <!-- Generator: Sketch 3.2.2 (9983) - http://www.bohemiancoding.com/sketch -->
    <title>Imported Layers</title>
    <desc>Created with Sketch.</desc>
    <defs></defs>
    <g id="Page-1" stroke="none" stroke-width="1" fill="none" fill-rule="evenodd" sketch:type="MSPage">
        <g id="Партнёры" sketch:type="MSArtboardGroup" transform="translate(-662.000000, -1652.000000)">
            <g id="2_block" sketch:type="MSLayerGroup" transform="translate(242.000000, 192.000000)">
                <g id="4" transform="translate(275.000000, 1159.000000)" sketch:type="MSShapeGroup">
                    <g id="Imported-Layers" transform="translate(145.000000, 301.000000)">
                        <path d="M163.0474,25.1020408 L140.410357,13.9481633 L117.773929,25.1020408 L117.773929,0.535714286 L140.410357,11.695102 L163.0474,0.535714286 L163.0474,25.1020408 L163.0474,25.1020408 Z M142.722529,12.8216327 L161.0178,21.8608163 L161.0178,3.77693878 L142.722529,12.8216327 L142.722529,12.8216327 Z M119.803529,3.77693878 L119.803529,21.8608163 L138.0988,12.8216327 L119.803529,3.77693878 L119.803529,3.77693878 Z" id="Fill-1" fill="#DA2B6F"></path>
                        <path d="M57.1150571,24.1022449 C50.8739143,24.1022449 45.7962286,19.0420408 45.7962286,12.8216327 C45.7962286,6.60244898 50.8739143,1.54102041 57.1150571,1.54102041 C63.3562,1.54102041 68.4338857,6.60244898 68.4338857,12.8216327 C68.4338857,19.0420408 63.3562,24.1022449 57.1150571,24.1022449 L57.1150571,24.1022449 Z M57.1150571,3.60061224 C52.0128,3.60061224 47.8620714,7.73693878 47.8620714,12.8216327 C47.8620714,17.9069388 52.0128,22.0432653 57.1150571,22.0432653 C62.2173143,22.0432653 66.3680429,17.9069388 66.3680429,12.8216327 C66.3680429,7.73693878 62.2173143,3.60061224 57.1150571,3.60061224 L57.1150571,3.60061224 Z" id="Fill-2" fill="#FFFFFF"></path>
                        <path d="M102.387914,24.1022449 C96.1467714,24.1022449 91.0690857,19.0420408 91.0690857,12.8216327 C91.0690857,6.60244898 96.1467714,1.54102041 102.387914,1.54102041 C108.629057,1.54102041 113.706129,6.60244898 113.706129,12.8216327 C113.706129,19.0420408 108.629057,24.1022449 102.387914,24.1022449 L102.387914,24.1022449 Z M102.387914,3.60061224 C97.2862714,3.60061224 93.1355429,7.73693878 93.1355429,12.8216327 C93.1355429,17.9069388 97.2862714,22.0432653 102.387914,22.0432653 C107.488943,22.0432653 111.640286,17.9069388 111.640286,12.8216327 C111.640286,7.73693878 107.488943,3.60061224 102.387914,3.60061224 L102.387914,3.60061224 Z" id="Fill-3" fill="#FFFFFF"></path>
                        <path d="M178.434029,24.1022449 C172.1935,24.1022449 167.1152,19.0420408 167.1152,12.8216327 C167.1152,6.60244898 172.1935,1.54102041 178.434029,1.54102041 C184.674557,1.54102041 189.752243,6.60244898 189.752243,12.8216327 C189.752243,19.0420408 184.674557,24.1022449 178.434029,24.1022449 L178.434029,24.1022449 Z M178.434029,3.60061224 C173.331771,3.60061224 169.181043,7.73693878 169.181043,12.8216327 C169.181043,17.9069388 173.331771,22.0432653 178.434029,22.0432653 C183.535057,22.0432653 187.685786,17.9069388 187.685786,12.8216327 C187.685786,7.73693878 183.535057,3.60061224 178.434029,3.60061224 L178.434029,3.60061224 Z" id="Fill-4" fill="#FFFFFF"></path>
                        <path d="M74.0920714,1.54102041 L74.0920714,3.60061224 C79.1937143,3.60061224 83.3450571,7.73693878 83.3450571,12.8216327 C83.3450571,17.9069388 79.1937143,22.0432653 74.0920714,22.0432653 L74.0920714,29.5646939 L76.1259714,29.5646939 L76.1259714,23.9093878 C81.3983857,22.9512245 85.4115143,18.3489796 85.4115143,12.8216327 C85.4115143,6.60244898 80.3332143,1.54102041 74.0920714,1.54102041" id="Fill-5" fill="#FFFFFF"></path>
                        <path d="M19.8082571,17.487551 C18.1976,20.2083673 15.2336714,22.0432653 11.8409714,22.0432653 C6.73932857,22.0432653 2.58921429,17.9069388 2.58921429,12.8216327 C2.58921429,7.73693878 6.73932857,3.60061224 11.8409714,3.60061224 C15.2398143,3.60061224 18.2074286,5.44102041 19.8162429,8.16918367 L21.3181714,6.67285714 C19.2959429,3.5877551 15.8061857,1.54102041 11.8409714,1.54102041 C5.60044286,1.54102041 0.522757143,6.60244898 0.522757143,12.8216327 C0.522757143,19.0420408 5.60044286,24.1022449 11.8409714,24.1022449 C15.8006571,24.1022449 19.2861143,22.0616327 21.3095714,18.9838776 L19.8082571,17.487551" id="Fill-6" fill="#FFFFFF"></path>
                        <path d="M39.2725143,24.1132653 L27.9536857,12.8320408 L39.2946286,1.53 L40.7695286,2.99938776 L30.9047143,12.8320408 L40.7474143,22.6426531 L39.2725143,24.1132653" id="Fill-7" fill="#FFFFFF"></path>
                        <path d="M203.103743,1.54102041 L191.785529,24.1028571 L214.422571,24.1028571 L203.103743,1.54102041 L203.103743,1.54102041 Z M195.0566,22.075102 L203.104357,6.20265306 L211.101129,22.075102 L195.0566,22.075102 L195.0566,22.075102 Z" id="Fill-8" fill="#FFFFFF"></path>
                    </g>
                </g>
            </g>
        </g>
    </g>
</svg>