<?xml version="1.0" encoding="UTF-8" standalone="no"?>
<svg width="60px" height="60px" viewBox="0 0 60 60" version="1.1" xmlns="http://www.w3.org/2000/svg" xmlns:xlink="http://www.w3.org/1999/xlink" xmlns:sketch="http://www.bohemiancoding.com/sketch/ns">
    <!-- Generator: Sketch 3.2.2 (9983) - http://www.bohemiancoding.com/sketch -->
    <title>7</title>
    <desc>Created with Sketch.</desc>
    <defs></defs>
    <g id="Page-1" stroke="none" stroke-width="1" fill="none" fill-rule="evenodd" sketch:type="MSPage">
        <g id="Партнёры" sketch:type="MSArtboardGroup" transform="translate(-1028.000000, -1086.000000)">
            <g id="2_block" sketch:type="MSLayerGroup" transform="translate(469.000000, 142.000000)">
                <g id="3" transform="translate(0.000000, 717.000000)" sketch:type="MSShapeGroup">
                    <g id="7" transform="translate(559.000000, 227.000000)">
                        <path d="M59.9096341,29.9509756 C59.9096341,46.4515244 46.5321951,59.8285976 30.0310976,59.8285976 C13.5298171,59.8285976 0.152743902,46.4515244 0.152743902,29.9509756 C0.152743902,13.449878 13.5298171,0.0733536585 30.0310976,0.0733536585 C46.5321951,0.0733536585 59.9096341,13.449878 59.9096341,29.9509756" id="Fill-1" fill="#FFFFFF"></path>
                        <path d="M17.1073171,21.1117683 C16.6240244,21.1117683 15.8326829,20.9359756 15.3493902,20.5622561 C16.2065854,19.8810366 16.360061,18.9579878 16.360061,18.5184146 C16.360061,17.8154268 15.8326829,17.4854268 15.107378,17.4854268 C14.1188415,17.4854268 12.6682317,18.0788415 11.2395732,20.7819512 C10.4264634,22.3426829 9.85518293,24.6497561 9.85518293,27.0673171 C9.85518293,29.5064634 10.8,30.9131707 12.9316463,30.9131707 C13.29,30.9131707 14.095061,30.8143902 15.0525,30.4242073 C15.722561,30.1509146 16.467439,29.7347561 17.1856098,29.109878 C17.4215854,28.9048171 17.7680488,28.9426829 17.8284146,29.2454268 C17.8832927,29.5201829 17.5212805,29.8856707 17.3557317,30.0627439 C17.1417073,30.2914024 16.990061,30.4364634 16.7685366,30.6144512 C15.8473171,31.3560366 15.0409756,31.8614634 14.2940854,32.2033537 C13.0489024,32.7740854 11.9698171,32.8913415 10.8,32.8913415 C8.86628049,32.8913415 6.07518293,32.0560976 6.07518293,27.4187195 C6.07518293,23.7488415 7.5477439,20.6945122 9.28371951,18.9140854 C11.1298171,17.0240854 13.3055488,16.3864024 14.9754878,16.3864024 C18.4260366,16.3864024 18.9755488,17.9469512 18.9755488,19.0020732 C18.9755488,20.1226829 18.2061585,21.1117683 17.1073171,21.1117683" id="Fill-2" fill="#000106"></path>
                        <path d="M32.0659756,30.675 C31.4859146,31.4667073 30.1721341,32.8690244 28.3386585,32.8690244 C27.6353049,32.8690244 26.6464024,32.6054268 26.6464024,31.3306098 C26.6464024,30.2978049 26.8441463,29.5064634 27.0640244,28.3642683 L27.1959146,27.7708537 L24.0314634,27.7708537 L23.0645122,32.2757927 C22.3611585,32.5615244 20.6906707,32.7155488 19.5481098,32.7155488 L20.6469512,27.5946951 C20.9981707,26.0121951 21.1960976,24.8696341 21.1960976,24.6279878 C21.1960976,24.1004268 21.1081098,23.8805488 20.7568902,23.8805488 C20.4492073,23.8805488 20.0742073,24.0492073 19.5728049,24.5028659 C19.5014634,24.5683537 19.2484756,24.5546341 19.1584756,24.375 C19.0487195,24.1553049 19.2128049,23.927561 19.309939,23.8238415 C20.0504268,23.0308537 22.0304268,21.6395122 23.7014634,21.6395122 C24.4046341,21.6395122 24.8884756,21.924878 24.8884756,22.8479268 C24.8884756,23.6610366 24.5804268,25.3088415 24.2292073,26.847622 L27.4154268,26.7378659 L28.2506707,22.6059146 C28.3606098,22.0346341 29.745,21.6395122 30.799939,21.6395122 C31.5471951,21.6395122 31.6130488,21.6609146 31.9867683,21.7489024 C31.7229878,22.6715854 30.8656098,25.8806707 30.7342683,26.5181707 L30.4042683,27.9901829 C30.2504268,28.6715854 30.1183537,29.4406098 30.1183537,29.8801829 C30.1183537,30.3413415 30.2504268,30.627622 30.6243293,30.627622 C30.9182927,30.627622 31.2446341,30.4730488 31.7039634,30.0607317 C31.7442073,30.0252439 31.9353659,29.882378 32.037439,29.8721341 C32.1307317,29.8629878 32.2456098,29.8790854 32.284939,29.959939 C32.3921341,30.1810976 32.1391463,30.5753049 32.0659756,30.675" id="Fill-3" fill="#000106"></path>
                        <path d="M38.9987195,27.3528659 C38.3835366,27.3528659 37.5482927,27.2654268 37.5482927,27.2654268 L37.7330488,26.6747561 L37.7687195,26.5618902 C37.7687195,26.5618902 38.0979878,26.6277439 38.5152439,26.6277439 C40.3172561,26.6277439 40.7789634,24.5839024 40.7789634,23.7702439 C40.7789634,22.8479268 40.5373171,22.4963415 39.8341463,22.4963415 C38.9771341,22.4963415 38.119939,23.1993293 37.4604878,25.4407317 C37.1747561,26.4301829 36.9771951,27.9243293 36.9771951,28.5395122 C36.9771951,30.4079268 37.6145122,31.044878 38.8009756,31.044878 C39.5015854,31.044878 40.5713415,30.9016463 41.8911585,29.9603049 C41.937622,29.9271951 42.102439,29.8787195 42.1794512,29.91 C42.2566463,29.9409146 42.3395122,29.982622 42.362561,30.0259756 C42.4029878,30.1007927 42.4011585,30.2023171 42.3839634,30.2985366 C42.3579878,30.447622 42.2065244,30.6711585 42.1622561,30.7139634 C40.3384756,32.4667683 38.5088415,32.7810366 37.3284146,32.7810366 C35.3288415,32.7810366 33.4827439,31.9020732 33.4827439,28.7815244 C33.4827439,26.7155488 34.3397561,24.8917683 35.6586585,23.5070122 C36.9993293,22.1008537 38.7570732,21.5072561 40.0095732,21.5072561 C42.3395122,21.5072561 43.4160366,22.3642683 43.4160366,23.9904878 C43.4160366,25.7046951 41.8117683,27.3528659 38.9987195,27.3528659" id="Fill-4" fill="#000106"></path>
                        <path d="M50.844878,26.9795122 L49.7897561,27.5946951 C48.7787195,28.1882927 48.207439,28.8252439 48.207439,29.7484756 C48.207439,30.4516463 48.6252439,31.0007927 49.6359146,31.0007927 C50.5569512,31.0007927 51.9164634,30.462439 53.012378,29.3670732 C53.0668902,29.3121951 53.1980488,29.2564024 53.2827439,29.2509146 C53.3548171,29.2465244 53.5445122,29.3330488 53.5739634,29.3994512 C53.6180488,29.4984146 53.6279268,29.5935366 53.612561,29.6577439 C53.5686585,29.8390244 53.4819512,29.9581098 53.4479268,30.0069512 C52.0227439,32.0506098 49.5470122,32.8470732 47.6582927,32.8470732 C45.6140854,32.8470732 44.3619512,32.0560976 44.3619512,30.4079268 C44.3619512,28.8029268 45.5482317,28.0342683 47.1526829,27.155122 L48.7130488,26.2981098 C49.8118902,25.7046951 50.2732317,25.2429878 50.2732317,24.3865244 C50.2732317,23.6392683 49.8556098,23.2432317 49.0205488,23.2432317 C48.4734146,23.2432317 47.5271341,23.3994512 46.3207317,24.5919512 C46.2457317,24.6662195 46.0717683,24.7681098 45.9115244,24.7820122 C45.7503659,24.7959146 45.6018293,24.7210976 45.5416463,24.6439024 C45.4842073,24.5710976 45.4445122,24.4425 45.4882317,24.2985366 C45.5321341,24.152378 45.66,23.9904878 45.7285976,23.922622 C47.3537195,22.3295122 49.4396341,21.5072561 51.0203049,21.5072561 C53.0643293,21.5072561 53.987378,22.2327439 53.987378,23.485061 C53.987378,25.0017073 52.8005488,25.8369512 50.844878,26.9795122" id="Fill-5" fill="#000106"></path>
                        <path d="M11.9956098,41.6184146 C11.6469512,41.6184146 11.3039634,41.5256707 11.0965244,41.4111585 L11.865,37.2810366 L12.3228659,37.2810366 L12.0554268,38.7032927 C12.2193293,38.6326829 12.4481707,38.5832927 12.6713415,38.5832927 C13.3137805,38.5832927 13.7118293,39.0195732 13.7118293,39.694939 C13.7118293,40.5010976 13.3137805,41.6184146 11.9956098,41.6184146 L11.9956098,41.6184146 Z M12.5570122,38.937622 C12.3605488,38.937622 12.137561,38.9862805 11.990122,39.057439 L11.5979268,41.154878 C11.6903049,41.2039024 11.8812805,41.2478049 12.0830488,41.2478049 C12.9384146,41.2478049 13.2598171,40.3706707 13.2598171,39.7328049 C13.2598171,39.2317683 12.9980488,38.937622 12.5570122,38.937622 L12.5570122,38.937622 Z" id="Fill-6" fill="#000106"></path>
                        <path d="M15.8473171,38.9482317 C15.7818293,38.937622 15.699878,38.9323171 15.6235976,38.9323171 C15.4110366,38.9323171 15.1657317,38.9813415 15.0131707,39.0468293 L14.5501829,41.5584146 L14.0925,41.5584146 L14.6103659,38.7685976 C14.9045122,38.6431098 15.3078659,38.5615244 15.699878,38.5615244 C15.8089024,38.5615244 15.9179268,38.5668293 16.0104878,38.5832927 L15.8473171,38.9482317" id="Fill-7" fill="#000106"></path>
                        <path d="M18.4452439,39.542561 L18.0910976,41.4111585 C17.8516463,41.5309756 17.4535976,41.6184146 17.0557317,41.6184146 C16.3478049,41.6184146 15.9936585,41.2911585 15.9936585,40.8393293 C15.9936585,39.8147561 17.2084756,39.7494512 17.9765854,39.7059146 L18.0204878,39.482561 C18.0309146,39.4333537 18.0309146,39.3841463 18.0309146,39.3407927 C18.0309146,39.0195732 17.7859756,38.91 17.4265244,38.91 C17.1539634,38.91 16.8106098,38.9978049 16.592561,39.0958537 L16.5329268,38.7685976 C16.772378,38.659939 17.1376829,38.5615244 17.502622,38.5615244 C18.0748171,38.5615244 18.4615244,38.8123171 18.4615244,39.3078659 C18.4615244,39.3788415 18.4615244,39.4604268 18.4452439,39.542561 L18.4452439,39.542561 Z M16.4295732,40.7956098 C16.4295732,41.0732927 16.6362805,41.274878 17.0994512,41.274878 C17.3229878,41.274878 17.589878,41.2262195 17.7042073,41.1770122 L17.9164024,40.0220122 C17.3718293,40.0490854 16.4295732,40.0759756 16.4295732,40.7956098 L16.4295732,40.7956098 Z" id="Fill-8" fill="#000106"></path>
                        <path d="M21.4796341,39.5917683 L21.1146951,41.5584146 L20.6625,41.5584146 L21.0270732,39.5917683 C21.0382317,39.5259146 21.0382317,39.482561 21.0382317,39.4333537 C21.0382317,39.0958537 20.8093902,38.9323171 20.4279878,38.9323171 C20.1667683,38.9323171 19.9371951,38.9862805 19.7848171,39.0468293 L19.3220122,41.5584146 L18.8643293,41.5584146 L19.3818293,38.7685976 C19.6816463,38.6431098 20.0571951,38.5615244 20.4715244,38.5615244 C21.1253049,38.5615244 21.4959146,38.8668293 21.4959146,39.3788415 C21.4959146,39.4443293 21.4904268,39.5204268 21.4796341,39.5917683" id="Fill-9" fill="#000106"></path>
                        <path d="M24.1646341,41.4111585 C23.9359756,41.5256707 23.5761585,41.6184146 23.2060976,41.6184146 C22.4485976,41.6184146 22.0456098,41.1387805 22.0456098,40.4412805 C22.0456098,39.5535366 22.5793902,38.5942683 23.6906707,38.5942683 C23.9089024,38.5942683 24.1209146,38.6378049 24.2193293,38.6760366 L24.4807317,37.2810366 L24.9331098,37.2810366 L24.1646341,41.4111585 L24.1646341,41.4111585 Z M23.679878,38.9537195 C22.8517683,38.9537195 22.4923171,39.8257317 22.4923171,40.4304878 C22.4923171,40.9156098 22.7427439,41.2478049 23.2496341,41.2478049 C23.4347561,41.2478049 23.6634146,41.1984146 23.7614634,41.1495732 L24.1593293,39.0245122 C24.077378,38.9862805 23.8596951,38.9537195 23.679878,38.9537195 L23.679878,38.9537195 Z" id="Fill-10" fill="#000106"></path>
                        <path d="M25.4114634,41.5584146 L24.9590854,41.5584146 L25.5040244,38.6215244 L25.9564024,38.6215244 L25.4114634,41.5584146 L25.4114634,41.5584146 Z M25.8583537,38.027561 C25.7167683,38.027561 25.602439,37.9130488 25.602439,37.7820732 C25.602439,37.6082927 25.7438415,37.4667073 25.9287805,37.4667073 C26.0707317,37.4667073 26.185061,37.5808537 26.185061,37.7110976 C26.185061,37.8804878 26.0432927,38.027561 25.8583537,38.027561 L25.8583537,38.027561 Z" id="Fill-11" fill="#000106"></path>
                        <path d="M28.8440854,39.5917683 L28.4789634,41.5584146 L28.0267683,41.5584146 L28.3913415,39.5917683 C28.4026829,39.5259146 28.4026829,39.482561 28.4026829,39.4333537 C28.4026829,39.0958537 28.1738415,38.9323171 27.792439,38.9323171 C27.5308537,38.9323171 27.3018293,38.9862805 27.1490854,39.0468293 L26.6860976,41.5584146 L26.2284146,41.5584146 L26.7462805,38.7685976 C27.0457317,38.6431098 27.4216463,38.5615244 27.8357927,38.5615244 C28.4897561,38.5615244 28.8603659,38.8668293 28.8603659,39.3788415 C28.8603659,39.4443293 28.8545122,39.5204268 28.8440854,39.5917683" id="Fill-12" fill="#000106"></path>
                        <path d="M31.5020122,41.5688415 C31.3545732,42.3589024 30.8643293,42.7842073 30.0746341,42.7842073 C29.687561,42.7842073 29.3438415,42.6914634 29.1261585,42.5659756 L29.3281098,42.2178659 C29.4965854,42.3155488 29.8022561,42.3973171 30.0907317,42.3973171 C30.6190244,42.3973171 30.9568902,42.092378 31.054939,41.5688415 L31.0988415,41.3239024 C30.9296341,41.4001829 30.6953049,41.4493902 30.4719512,41.4493902 C29.840122,41.4493902 29.4257927,41.0242683 29.4257927,40.3543902 C29.4257927,39.5917683 29.8348171,38.5615244 31.1314024,38.5615244 C31.4908537,38.5615244 31.8179268,38.6540854 32.0193293,38.7685976 L31.5020122,41.5688415 L31.5020122,41.5688415 Z M31.0331707,38.9264634 C30.1613415,38.9264634 29.8783537,39.7712195 29.8783537,40.3267683 C29.8783537,40.7844512 30.117622,41.0897561 30.5864634,41.0897561 C30.782561,41.0897561 31.0059146,41.0462195 31.1637805,40.969939 L31.5234146,39.0139024 C31.4308537,38.9646951 31.2402439,38.9264634 31.0331707,38.9264634 L31.0331707,38.9264634 Z" id="Fill-13" fill="#000106"></path>
                        <path d="M36.0682317,41.2020732 C35.8960976,41.3259146 35.7107927,41.4241463 35.5123171,41.4973171 C35.3131098,41.569939 35.104939,41.6061585 34.887439,41.6061585 C34.7292073,41.6061585 34.587439,41.5878659 34.4619512,41.5516463 C34.3353659,41.515061 34.2289024,41.462378 34.1410976,41.3935976 C34.0531098,41.3242683 33.9859756,41.2406707 33.9387805,41.1435366 C33.8915854,41.0456707 33.8683537,40.9377439 33.8683537,40.8190244 C33.8683537,40.7090854 33.8862805,40.6004268 33.9215854,40.4928659 C33.9568902,40.3858537 34.0126829,40.2815854 34.0891463,40.1806098 C34.1654268,40.08 34.2636585,39.9814024 34.3829268,39.8864634 C34.5027439,39.7918902 34.6467073,39.7015244 34.8153659,39.6162805 C34.7659756,39.5259146 34.7248171,39.4423171 34.6929878,39.3654878 C34.6607927,39.2879268 34.6364634,39.2176829 34.6198171,39.1536585 C34.6029878,39.0901829 34.5907317,39.0329268 34.5839634,38.982439 C34.5768293,38.9319512 34.5733537,38.8878659 34.5733537,38.8507317 C34.5733537,38.7920122 34.5806707,38.7290854 34.5962195,38.6619512 C34.6108537,38.5942683 34.6351829,38.5273171 34.6686585,38.4614634 C34.7023171,38.3946951 34.7467683,38.3312195 34.8021951,38.2710366 C34.8570732,38.2110366 34.9253049,38.1568902 35.0070732,38.109878 C35.0881098,38.0626829 35.1845122,38.0259146 35.2953659,37.9986585 C35.4060366,37.9706707 35.5337195,37.9571341 35.6773171,37.9571341 C35.8434146,37.9571341 35.9829878,37.9743293 36.0945732,38.0087195 C36.2061585,38.0434756 36.2961585,38.0888415 36.3645732,38.1455488 C36.432622,38.202622 36.4816463,38.2664634 36.5110976,38.337439 C36.54,38.4080488 36.5546341,38.4793902 36.5546341,38.55 C36.5546341,38.6548171 36.5372561,38.754878 36.5017683,38.8507317 C36.4659146,38.9464024 36.4046341,39.0413415 36.3177439,39.135 C36.2308537,39.2292073 36.1139634,39.324878 35.9668902,39.422561 C35.8194512,39.5196951 35.6346951,39.6210366 35.4109756,39.7258537 C35.4678659,39.8196951 35.5232927,39.9060366 35.5772561,39.984878 C35.6315854,40.0639024 35.6866463,40.1396341 35.7433537,40.2128049 C35.800061,40.285061 35.8580488,40.3565854 35.9176829,40.4281098 C35.9771341,40.4987195 36.0402439,40.5717073 36.1079268,40.6461585 C36.2054268,40.5340244 36.2864634,40.4175 36.3512195,40.2960366 C36.4159756,40.1747561 36.4607927,40.0660976 36.4856707,39.9704268 C36.5103659,39.8747561 36.5251829,39.8109146 36.5292073,39.7789024 C36.5341463,39.7468902 36.54,39.7245732 36.5480488,39.7108537 C36.5557317,39.6982317 36.5689024,39.6868902 36.5864634,39.6788415 C36.6043902,39.6709756 36.6270732,39.665122 36.6545122,39.6618293 C36.6819512,39.6585366 36.7178049,39.6567073 36.7620732,39.6567073 C36.8401829,39.6567073 36.8932317,39.6618293 36.9221341,39.6709756 C36.950122,39.6812195 36.9645732,39.6971341 36.9645732,39.7203659 C36.9645732,39.7437805 36.9563415,39.792622 36.9402439,39.8679878 C36.9243293,39.9431707 36.9021951,40.025122 36.8736585,40.112561 C36.8453049,40.2007317 36.8081707,40.2910976 36.7620732,40.3838415 C36.7161585,40.4769512 36.6621951,40.5687805 36.6,40.6591463 C36.537622,40.7495122 36.4686585,40.8347561 36.392378,40.9143293 C36.5057927,41.022622 36.5998171,41.1010976 36.6729878,41.150122 C36.7467073,41.1989634 36.8105488,41.2236585 36.8656098,41.2236585 C36.9031098,41.2236585 36.9279878,41.2285976 36.9402439,41.2390244 C36.9528659,41.2496341 36.9583537,41.2682927 36.9563415,41.295 C36.9563415,41.307622 36.9543293,41.3259146 36.9510366,41.3507927 C36.947561,41.3756707 36.9420732,41.4016463 36.9345732,41.4296341 C36.9279878,41.4568902 36.919939,41.4823171 36.9109756,41.5059146 C36.9021951,41.5302439 36.8917683,41.5487195 36.8793293,41.5607927 C36.8667073,41.5734146 36.8453049,41.5838415 36.8153049,41.5917073 C36.785122,41.5993902 36.7531098,41.6034146 36.7194512,41.6034146 C36.6859756,41.6034146 36.6484756,41.5964634 36.6062195,41.582378 C36.564878,41.5677439 36.5178659,41.5456098 36.4655488,41.5143293 C36.4135976,41.4834146 36.3543293,41.4420732 36.2888415,41.3904878 C36.2231707,41.3390854 36.1494512,41.2763415 36.0682317,41.2020732 L36.0682317,41.2020732 Z M35.0039634,39.9305488 C34.8993293,39.9857927 34.8062195,40.0430488 34.7248171,40.1034146 C34.6432317,40.1639634 34.5748171,40.2279878 34.520122,40.2960366 C34.465061,40.3644512 34.4229878,40.437622 34.3933537,40.5140854 C34.3642683,40.5912805 34.3496341,40.6743293 34.3496341,40.7626829 C34.3496341,40.8217683 34.3596951,40.8792073 34.3790854,40.9359146 C34.3982927,40.9929878 34.4321341,41.0432927 34.4802439,41.087561 C34.5279878,41.1320122 34.5907317,41.1673171 34.6686585,41.1938415 C34.7467683,41.2203659 34.8440854,41.2337195 34.9615244,41.2337195 C35.0321341,41.2337195 35.1045732,41.2262195 35.1782927,41.2114024 C35.2520122,41.1962195 35.3239024,41.1759146 35.395061,41.150122 C35.4658537,41.1243293 35.5337195,41.0934146 35.5971951,41.0570122 C35.6610366,41.0206098 35.7203049,40.9810976 35.7753659,40.9386585 C35.7007317,40.8568902 35.6304878,40.7767683 35.5642683,40.6977439 C35.4975,40.6189024 35.4329268,40.5385976 35.3696341,40.4571951 C35.3068902,40.3757927 35.2452439,40.2914634 35.1846951,40.2045732 C35.1246951,40.1178659 35.0639634,40.0264024 35.0039634,39.9305488 L35.0039634,39.9305488 Z M35.2194512,39.4280488 C35.4,39.342622 35.5465244,39.2637805 35.6582927,39.1909756 C35.7702439,39.1183537 35.8567683,39.0492073 35.9187805,38.9839024 C35.9811585,38.9184146 36.0230488,38.855122 36.0453659,38.7947561 C36.0675,38.7345732 36.0786585,38.6743902 36.0786585,38.6138415 C36.0786585,38.5854878 36.0720732,38.5542073 36.06,38.5196341 C36.047561,38.484878 36.0254268,38.4523171 35.9935976,38.4223171 C35.9614024,38.3925 35.9185976,38.367622 35.8646341,38.3480488 C35.8104878,38.3282927 35.7402439,38.3187805 35.6529878,38.3187805 C35.5306098,38.3187805 35.4305488,38.3359756 35.352622,38.3703659 C35.2745122,38.405122 35.2117683,38.4488415 35.164939,38.5011585 C35.1179268,38.5531098 35.0851829,38.6090854 35.065061,38.6679878 C35.0456707,38.7279878 35.0359756,38.7825 35.0359756,38.8322561 C35.0359756,38.8660976 35.0387195,38.9021341 35.0442073,38.9409146 C35.0495122,38.9806098 35.0586585,39.0237805 35.0720122,39.072622 C35.0851829,39.1214634 35.1032927,39.1746951 35.1265244,39.2325 C35.1493902,39.289939 35.1803049,39.355061 35.2194512,39.4280488 L35.2194512,39.4280488 Z" id="Fill-14" fill="#000106"></path>
                        <path d="M41.8521951,41.5584146 L41.3890244,41.5584146 L41.1656707,39.5094512 C41.1546951,39.4062805 41.1492073,39.302378 41.1492073,39.2372561 L41.1492073,39.1062805 L41.1385976,39.1062805 C41.1166463,39.1662805 41.0623171,39.3245122 40.975061,39.5094512 L39.9996951,41.5584146 L39.5365244,41.5584146 L39.1878659,38.6215244 L39.6296341,38.6215244 L39.8255488,40.697561 C39.8359756,40.8338415 39.8359756,40.9917073 39.8359756,41.0462195 L39.8359756,41.1442683 L39.8471341,41.1442683 C39.8742073,41.0679878 39.9561585,40.849939 40.0267683,40.697561 L41.007622,38.6215244 L41.4493902,38.6215244 L41.6559146,40.697561 C41.672378,40.8662195 41.6780488,41.0570122 41.6780488,41.1442683 L41.6884756,41.1442683 C41.7053049,41.0897561 41.7759146,40.8717073 41.8575,40.697561 L42.827561,38.6215244 L43.2905488,38.6215244 L41.8521951,41.5584146" id="Fill-15" fill="#000106"></path>
                        <path d="M45.9257927,40.0161585 L43.8665854,40.305 C43.8616463,40.359878 43.8616463,40.4089024 43.8616463,40.457561 C43.8616463,40.9862195 44.1718902,41.2478049 44.6839024,41.2478049 C44.9727439,41.2478049 45.2998171,41.1660366 45.512378,41.0570122 L45.5886585,41.4111585 C45.3598171,41.5309756 45.0056707,41.6184146 44.6132927,41.6184146 C43.8722561,41.6184146 43.4310366,41.1929268 43.4310366,40.452439 C43.4310366,39.5259146 43.9920732,38.5615244 45,38.5615244 C45.6376829,38.5615244 45.9916463,38.9429268 45.9916463,39.5310366 C45.9916463,39.694939 45.970061,39.852622 45.9257927,40.0161585 L45.9257927,40.0161585 Z M44.9454878,38.91 C44.4278049,38.91 44.029939,39.3245122 43.8942073,39.9894512 L45.5337805,39.7602439 C45.5506098,39.6729878 45.5557317,39.5917683 45.5557317,39.515122 C45.5557317,39.1172561 45.332378,38.91 44.9454878,38.91 L44.9454878,38.91 Z" id="Fill-16" fill="#000106"></path>
                        <path d="M47.2494512,41.6184146 C46.9009756,41.6184146 46.557622,41.5256707 46.3505488,41.4111585 L47.1188415,37.2810366 L47.5765244,37.2810366 L47.31,38.7032927 C47.4731707,38.6326829 47.7020122,38.5832927 47.9253659,38.5832927 C48.5683537,38.5832927 48.9660366,39.0195732 48.9660366,39.694939 C48.9660366,40.5010976 48.5683537,41.6184146 47.2494512,41.6184146 L47.2494512,41.6184146 Z M47.8110366,38.937622 C47.6147561,38.937622 47.3912195,38.9862805 47.2441463,39.057439 L46.8523171,41.154878 C46.9445122,41.2039024 47.135122,41.2478049 47.3367073,41.2478049 C48.1920732,41.2478049 48.5138415,40.3706707 48.5138415,39.7328049 C48.5138415,39.2317683 48.2518902,38.937622 47.8110366,38.937622 L47.8110366,38.937622 Z" id="Fill-17" fill="#000106"></path>
                    </g>
                </g>
            </g>
        </g>
    </g>
</svg>