<?xml version="1.0" encoding="UTF-8" standalone="no"?>
<svg width="164px" height="25px" viewBox="0 0 164 25" version="1.1" xmlns="http://www.w3.org/2000/svg" xmlns:xlink="http://www.w3.org/1999/xlink" xmlns:sketch="http://www.bohemiancoding.com/sketch/ns">
    <!-- Generator: Sketch 3.2.2 (9983) - http://www.bohemiancoding.com/sketch -->
    <title>specia</title>
    <desc>Created with Sketch.</desc>
    <defs></defs>
    <g id="Page-1" stroke="none" stroke-width="1" fill="none" fill-rule="evenodd" sketch:type="MSPage">
        <g id="Партнёры" sketch:type="MSArtboardGroup" transform="translate(-1250.000000, -1812.000000)" fill="#FFFFFF">
            <g id="2_block" sketch:type="MSLayerGroup" transform="translate(469.000000, 142.000000)">
                <g id="5" transform="translate(0.000000, 1476.000000)" sketch:type="MSShapeGroup">
                    <g id="specia" transform="translate(781.000000, 194.000000)">
                        <path d="M2.21342923,20.4621212 C3.37969374,20.4621212 4.3260232,21.4037879 4.32564269,22.5647727 C4.3260232,23.7257576 3.37969374,24.6674242 2.21380974,24.6674242 C1.04716473,24.6674242 0.101215777,23.7261364 0.101215777,22.5647727 C0.101215777,21.4037879 1.04678422,20.4621212 2.21342923,20.4621212" id="Fill-1"></path>
                        <path d="M8.08090023,10.3462121 C9.24716473,10.3462121 10.1927332,11.2875 10.1927332,12.4488636 C10.1927332,13.6098485 9.24716473,14.5515152 8.08090023,14.5515152 C6.91463573,14.5515152 5.96830626,13.6098485 5.96830626,12.4488636 C5.96868677,11.2875 6.91463573,10.3462121 8.08090023,10.3462121" id="Fill-2"></path>
                        <path d="M25.6825522,20.4625 C24.5162877,20.4621212 23.5703387,21.4037879 23.5703387,22.5647727 C23.5703387,23.7257576 24.5162877,24.6674242 25.6821717,24.667803 C26.8488167,24.667803 27.7943852,23.7257576 27.7947657,22.5643939 C27.7943852,21.4037879 26.8488167,20.4625 25.6825522,20.4625" id="Fill-3"></path>
                        <path d="M13.9479907,20.4621212 C12.7813457,20.4621212 11.8357773,21.4037879 11.8357773,22.5647727 C11.8357773,23.7257576 12.7817262,24.6674242 13.9476102,24.667803 C15.1142552,24.667803 16.0598237,23.7257576 16.0602042,22.5643939 C16.0602042,21.4037879 15.1142552,20.4621212 13.9479907,20.4621212" id="Fill-4"></path>
                        <path d="M19.8150812,10.3458333 C18.6488167,10.3458333 17.7028677,11.2871212 17.7032483,12.4488636 C17.7028677,13.6098485 18.6488167,14.5511364 19.8154617,14.5515152 C20.9813457,14.5511364 21.9272947,13.6094697 21.9272947,12.4488636 C21.9272947,11.2875 20.9813457,10.3458333 19.8150812,10.3458333" id="Fill-5"></path>
                        <path d="M13.9479907,0.229545455 C12.7817262,0.229545455 11.8357773,1.17121212 11.8357773,2.33257576 C11.8357773,3.49356061 12.7817262,4.43484848 13.9476102,4.43522727 C15.1142552,4.43484848 16.0605847,3.49318182 16.0598237,2.33257576 C16.0602042,1.17121212 15.1142552,0.229545455 13.9479907,0.229545455" id="Fill-6"></path>
                        <path d="M41.6502923,6.35643939 C41.6502923,2.88030303 44.3473503,0.0575757576 48.945819,0.0575757576 C51.7467564,0.0575757576 54.2356752,1.05568182 55.6188306,2.57007576 L54.0286775,4.77310606 C52.7490209,3.49962121 51.2277401,2.81136364 49.1189513,2.81136364 C46.4218933,2.81136364 44.7624872,4.22272727 44.7624872,6.35643939 C44.7624872,12.3109848 56.5872297,10.0738636 56.5872297,18.2996212 C56.5872297,22.2579545 53.0949049,24.8393939 48.7038144,24.8393939 C45.7305058,24.8393939 42.2728074,23.4969697 41.0627842,21.2253788 L42.7571972,19.2291667 C44.1745986,21.0878788 46.6985244,22.0859848 48.7384408,22.0859848 C51.2623666,22.0859848 53.4750348,20.7780303 53.4750348,18.3340909 C53.4750348,12.4484848 41.6502923,14.3412879 41.6502923,6.35643939 L41.6502923,6.35643939 Z M63.3275916,24.4950758 L63.3275916,0.401515152 C64.6761206,0.401515152 68.133819,0.332954545 69.6547193,0.332954545 C76.570116,0.332954545 78.6100325,4.05 78.6100325,7.80227273 C78.6100325,11.7257576 75.8094756,15.3742424 69.8971044,15.3742424 C68.9287053,15.3742424 67.4766775,15.3397727 66.2666543,15.2367424 L66.2666543,24.4950758 L63.3275916,24.4950758 L63.3275916,24.4950758 Z M66.2666543,3.15530303 L66.2666543,12.4484848 C67.442051,12.5518939 68.5832019,12.6204545 69.7932251,12.6204545 C73.3544223,12.6204545 75.4982181,10.7965909 75.4982181,7.76742424 C75.4982181,4.91098485 73.7695592,3.08636364 69.9317309,3.08636364 C68.9633318,3.08636364 67.4074246,3.12083333 66.2666543,3.15530303 L66.2666543,3.15530303 Z M85.3500139,0.401515152 L99.0072947,0.401515152 L99.0072947,3.15530303 L88.2890766,3.15530303 L88.2890766,10.9340909 L97.9700232,10.9340909 L97.9700232,13.6878788 L88.2890766,13.6878788 L88.2890766,21.7416667 L99.3531787,21.7416667 L99.3531787,24.4950758 L85.3500139,24.4950758 L85.3500139,0.401515152 L85.3500139,0.401515152 Z M124.625921,22.1545455 C123.000761,23.8068182 119.992826,24.8393939 116.984891,24.8393939 C109.723991,24.8393939 104.710385,19.9518939 104.710385,12.4484848 C104.710385,5.53030303 109.205355,0.0575757576 116.777132,0.0575757576 C119.889327,0.0575757576 122.413253,0.918181818 124.141912,2.39810606 L122.793383,4.60075758 C121.202849,3.43106061 119.335684,2.81136364 116.812139,2.81136364 C111.556529,2.81136364 107.8222,6.73484848 107.8222,12.4484848 C107.8222,18.1965909 111.660408,22.0859848 117.261522,22.0859848 C119.57807,22.0859848 121.790738,21.2943182 123.450524,19.9518939 L124.625921,22.1545455 L124.625921,22.1545455 Z M131.365903,0.401515152 L134.304965,0.401515152 L134.304965,24.4950758 L131.365903,24.4950758 L131.365903,0.401515152 Z M150.934794,0.264015152 L153.458339,0.264015152 L163.86568,24.4950758 L160.719239,24.4950758 L157.607805,17.1981061 L146.577949,17.1981061 L143.500761,24.4950758 L140.527072,24.4950758 L150.934794,0.264015152 L150.934794,0.264015152 Z M147.753726,14.4450758 L156.466654,14.4450758 L152.11019,4.15378788 L147.753726,14.4450758 L147.753726,14.4450758 Z" id="Fill-7"></path>
                    </g>
                </g>
            </g>
        </g>
    </g>
</svg>