<?xml version="1.0" encoding="UTF-8" standalone="no"?>
<svg width="89px" height="45px" viewBox="0 0 89 45" version="1.1" xmlns="http://www.w3.org/2000/svg" xmlns:xlink="http://www.w3.org/1999/xlink" xmlns:sketch="http://www.bohemiancoding.com/sketch/ns">
    <!-- Generator: Sketch 3.2.2 (9983) - http://www.bohemiancoding.com/sketch -->
    <title>urban</title>
    <desc>Created with Sketch.</desc>
    <defs></defs>
    <g id="Page-1" stroke="none" stroke-width="1" fill="none" fill-rule="evenodd" sketch:type="MSPage">
        <g id="Партнёры" sketch:type="MSArtboardGroup" transform="translate(-1093.000000, -1881.000000)">
            <g id="2_block" sketch:type="MSLayerGroup" transform="translate(242.000000, 192.000000)">
                <g id="5" transform="translate(0.000000, 1476.000000)" sketch:type="MSShapeGroup">
                    <g id="urban" transform="translate(851.000000, 213.000000)">
                        <path d="M6.63083459,21.4041176 L43.2633684,0.488382353 C43.6655414,0.25875 44.1613985,0.25875 44.5642406,0.488382353 L81.1967744,21.4041176 C82.0633534,21.8991176 82.0640226,23.1352941 81.1981128,23.6316176 L44.5655789,44.6135294 C44.1620677,44.8444853 43.6648722,44.8444853 43.2613609,44.6135294 L6.62882707,23.6316176 C5.76291729,23.1352941 5.76425564,21.8991176 6.63083459,21.4041176" id="Fill-1" fill="#FBCD5C"></path>
                        <path d="M8.95219549,6.07963235 C8.99100752,6.07963235 9.01710526,6.06441176 9.05591729,6.03397059 C10.0938045,5.28088235 11.3009925,4.66345588 12.5075113,4.18102941 C11.1972707,7.10404412 9.65281955,10.8701471 9.65281955,12.1658824 C9.65281955,12.6330882 10.0938045,13.2809559 10.3534436,13.2809559 C10.4183534,13.2809559 10.4832632,13.2207353 10.5093609,13.1148529 C11.4180977,9.89073529 13.0395038,6.29007353 14.0519624,4.31669118 C14.0646767,4.28625 14.0646767,4.27169118 14.0646767,4.25647059 C14.0646767,4.07580882 13.6886015,3.92492647 13.3125263,3.87992647 C14.5324286,3.44316176 15.7262331,3.17183824 16.7253083,3.05139706 C16.8678421,3.03617647 16.9200376,2.90051471 16.9200376,2.71985294 C16.9200376,2.28308824 16.5954887,1.58955882 16.2060301,1.58955882 C14.181782,1.58955882 10.3795414,3.75948529 8.74475188,5.17566176 C8.66645865,5.25044118 8.62764662,5.35632353 8.62764662,5.49198529 C8.62764662,5.76330882 8.77018045,6.07963235 8.95219549,6.07963235" id="Fill-2" fill="#FFFFFF"></path>
                        <path d="M13.0267895,12.6178676 C13.0267895,12.8739706 13.2991429,13.1452941 13.5199699,13.1452941 C13.8833308,13.1452941 15.1286617,11.5477941 16.1023083,10.7947059 C15.9724887,11.2016912 15.6218421,11.9852206 15.6218421,12.4219853 C15.6218421,12.8739706 15.8038571,13.0850735 16.1277368,13.0850735 C16.8022632,13.0850735 17.8495188,12.4941176 19.0640677,11.5835294 C19.0834737,12.6582353 19.673015,13.0850735 20.6045038,13.0850735 C21.2536015,13.0850735 22.0713308,12.76875 22.5123158,12.4669853 C22.6943308,12.3465441 22.7197594,12.2413235 22.7197594,12.0454412 C22.7197594,11.8343382 22.6294211,11.7443382 22.5123158,11.7443382 C22.3824962,11.7443382 22.2660602,11.8495588 21.9026992,12.0004412 C21.6691579,12.1056618 21.3961353,12.1658824 21.1498797,12.1658824 C20.8514286,12.1658824 20.5917895,12.0758824 20.4619699,11.8343382 C21.4095188,11.5934559 22.5511278,10.9760294 22.5511278,10.0263971 C22.5511278,9.43941176 22.1623383,9.10786765 21.4871429,9.10786765 C20.7543985,9.10786765 19.8657368,9.65713235 19.3933008,10.42875 C18.7923835,10.9336765 17.9498947,11.5855147 17.1274812,11.9097794 C17.2961128,11.1566912 17.7759098,10.4181618 17.7759098,9.75507353 C17.7759098,9.45397059 17.4908421,9.15286765 17.2439173,9.15286765 C16.7507368,9.15286765 15.544218,10.2825 14.5839549,11.3975735 C14.7913985,10.9455882 15.0898496,10.1322794 15.323391,9.64985294 C16.5305789,7.85713235 18.5414436,3.92492647 18.5414436,3.02095588 C18.5414436,2.70463235 18.3861955,2.25264706 18.1392707,2.25264706 C17.7759098,2.25264706 16.5305789,4.37691176 15.0637519,7.49580882 C14.3765113,8.97220588 13.0267895,12.1208824 13.0267895,12.6178676 L13.0267895,12.6178676 Z M21.2924135,9.86095588 C21.4356165,9.86095588 21.5132406,9.98139706 21.5132406,10.1322794 C21.5132406,10.4486029 21.2020752,10.9151471 20.4231579,11.0958088 C20.5141654,10.3427206 20.8902406,9.86095588 21.2924135,9.86095588 L21.2924135,9.86095588 Z" id="Fill-3" fill="#FFFFFF"></path>
                        <path d="M74.8704135,31.4940441 C74.7773985,31.2068382 74.365188,31.0208824 74.0901579,31.1082353 C73.5380902,31.2822794 72.5370075,32.7858088 71.8069398,34.1880882 C71.842406,33.6547059 72.1000376,33.0670588 71.8959398,32.4350735 C71.8029248,32.1485294 71.3907143,31.9625735 71.115015,32.0499265 C70.5636165,32.2239706 69.5625338,33.7275 68.831797,35.1291176 C68.924812,34.6255147 69.1576842,33.7129412 69.2205865,33.26625 C69.242,33.1325735 69.2326316,33.1041176 69.2232632,33.075 C69.1443008,32.8314706 68.6243534,32.7586765 68.2041128,32.8916912 C67.957188,32.9697794 67.7336842,33.1193382 67.6828271,33.3575735 C67.5844586,33.7632353 67.500812,34.1563235 67.431218,34.5255882 C67.0886015,35.0463971 66.7065038,35.4176471 66.2400902,35.6313971 C66.1437293,35.6750735 66.0466992,35.7194118 65.9570301,35.7438971 C65.9229023,35.5275 65.8814135,35.3302941 65.7917444,35.1390441 C65.5167143,34.5507353 65.0844286,34.4170588 64.6421053,34.6195588 C64.2827594,34.7836765 63.9829699,35.2197794 64.2713835,35.8352206 C64.4306466,36.1766912 64.7096917,36.4142647 65.0335714,36.5320588 C64.9807068,37.1369118 64.7732632,37.6967647 64.2472932,37.9369853 C63.902,38.0951471 63.5741053,37.8972794 63.4268872,37.5822794 C63.1518571,36.9939706 63.4329098,36.2680147 63.7795414,35.8603676 C63.9983609,35.6108824 64.0324887,35.3964706 63.9495113,35.2184559 C63.8598421,35.0272059 63.7179774,34.9755882 63.5660752,35.0457353 C62.9129624,35.3448529 62.2023008,36.2792647 62.0470526,37.2904412 C61.7807218,37.5948529 61.4896316,37.8258088 61.1563835,37.9733824 C61.0593534,38.0170588 60.9616541,38.0600735 60.8726541,38.0832353 C60.8405338,37.8661765 60.8010526,37.6689706 60.713391,37.4763971 C60.4450526,36.8861029 60.0147744,36.7471324 59.5704436,36.9443382 C59.2090902,37.1051471 58.9046165,37.5372794 59.185,38.1560294 C59.3415865,38.4994853 59.6179549,38.7403676 59.9398271,38.8608088 C59.8802707,39.465 59.6661353,40.0228676 59.1381579,40.2571324 C58.7908571,40.4119853 58.4649699,40.2094853 58.3217669,39.8938235 C58.0534286,39.3028676 58.3425113,38.5795588 58.6938271,38.1765441 C58.9153233,37.9290441 58.9514586,37.7146324 58.8704887,37.5359559 C58.7828271,37.3440441 58.6423008,37.2904412 58.4890602,37.3586029 C57.8413008,37.6464706 57.1293008,38.55375 56.9506316,39.5470588 C56.4587895,40.3027941 55.7668647,41.2484559 54.9397669,41.9922794 C54.7758195,41.5700735 55.1726391,40.6601471 54.9812556,40.1677941 C54.9096541,39.9851471 54.7644436,39.8627206 54.4646541,39.8481618 C54.2324511,39.8395588 54.0009173,39.8309559 53.7118346,39.8441912 C53.7051429,39.70125 53.6843985,39.5636029 53.6409023,39.4517647 C53.493015,39.0719118 53.1296541,38.9355882 52.6177368,39.1301471 C52.006782,39.3630882 51.7685564,40.0513235 51.9706466,40.5714706 C52.0529549,40.7825735 52.1867895,40.9579412 52.4143083,41.0810294 C52.4584737,41.1121324 52.5039774,41.1432353 52.5575113,41.1551471 C52.1178647,42.0816176 51.6193308,42.9816176 51.0210902,43.92 C50.9809398,43.9835294 50.9769248,44.0980147 51.0150677,44.1966176 C51.0973759,44.4077206 51.3128496,44.58375 51.5256466,44.5030147 C51.5972481,44.4752206 51.6481053,44.4401471 51.7116767,44.3508088 C52.3888797,43.4475 52.7435414,42.6831618 53.3591805,41.2861765 C53.5231278,41.2881618 53.7245489,41.2597059 53.9560827,41.2689706 C53.9426992,41.6938235 53.6857368,42.5018382 53.8282707,42.8671324 C53.992218,43.2893382 54.2679173,43.4104412 54.6232481,43.2747794 C55.2087744,43.0517647 56.2299323,41.8572794 57.0403008,40.7574265 C57.0590376,40.8103676 57.0757669,40.8633088 57.099188,40.9155882 C57.405,41.5886029 58.1136541,41.9347059 59.0585263,41.5144853 C60.0027293,41.0949265 60.663203,39.9758824 60.837188,38.925 C61.0084962,38.8978676 61.2018872,38.8449265 61.3685113,38.7714706 C61.6435414,38.6490441 61.8864511,38.4915441 62.1046015,38.3161765 C62.1340451,38.4180882 62.1701805,38.5193382 62.2163534,38.6179412 C62.5295263,39.2883088 63.2415263,39.6258088 64.1817143,39.1956618 C65.1219023,38.7655147 65.7696617,37.6391912 65.9316015,36.5856618 C66.1029098,36.5572059 66.2956316,36.5022794 66.4615865,36.4261765 C66.7520075,36.2931618 67.0062932,36.1211029 67.2318045,35.9305147 C67.1956692,36.3745588 67.2023609,36.7186765 67.2632556,36.9072794 C67.342218,37.1514706 67.9337669,37.24875 68.1806917,37.1706618 C68.5868797,37.0416176 69.4875865,35.0801471 70.3441278,34.0180147 C70.3240526,34.4514706 70.1741579,35.3216912 70.3086617,35.7379412 C70.4478496,36.1680882 70.716188,36.3050735 71.0788797,36.1899265 C71.471015,36.0661765 72.4627293,34.1384559 73.3186015,33.0763235 C73.2991955,33.5097794 73.1392632,34.3515441 73.3487143,34.9967647 C73.4879023,35.4275735 73.7328195,35.4930882 73.9355789,35.4282353 C74.4147068,35.2766912 74.903203,34.7585294 74.9058797,34.5202941 C74.8998571,34.2059559 74.6703308,34.0881618 74.8329398,33.0088235 C74.9527218,32.2431618 74.996218,31.8811765 74.8704135,31.4940441" id="Fill-4" fill="#FFFFFF"></path>
                        <path d="M34.2636617,19.3526471 C35.0265188,19.7874265 35.4875789,20.3009559 35.3805113,21.0017647 C35.0693459,23.0327206 31.6980526,26.9722059 31.2965489,30.4160294 C30.9813684,33.1160294 32.7647143,34.5666176 34.5199549,34.7671324 C36.2209925,34.9610294 38.9873534,32.3536765 41.5061203,28.0647794 C42.0073308,29.9898529 43.3503609,31.0857353 45.6429474,31.3471324 C48.7733383,31.7044853 53.2842331,26.9411029 53.9694662,21.0699265 C54.239812,18.7497794 53.4274361,17.4752206 51.4299549,17.2475735 C50.656391,17.1588971 49.8573985,17.3071324 49.2524662,17.5394118 C52.9884586,11.8138235 55.2562857,8.38455882 55.481797,6.07102941 C55.6022481,4.83088235 54.7068947,3.55566176 53.9580902,3.47029412 C49.522812,2.96404412 42.5326316,17.3144118 41.4539248,23.9730882 C39.5949624,26.9735294 37.7982331,29.3280882 37.2267594,29.2632353 C35.9419474,29.1163235 39.0475789,25.0206618 39.639797,21.6847059 C40.1369925,18.8841176 37.6583759,17.6373529 35.1329173,16.7684559 C37.0942632,10.4777206 36.9182707,6.77051471 32.8236015,6.79632353 C29.3780301,6.81882353 26.5253459,9.90992647 26.1017594,13.5443382 C25.7691805,16.3919118 29.1163835,17.4136765 31.8867594,18.3719118 C29.9682406,23.7401471 27.0459624,29.7198529 25.7618195,29.5729412 C24.4127669,29.4194118 25.8401128,25.6923529 26.2275639,24.7102941 C26.6230451,23.7097059 27.1931805,22.8851471 27.1677519,22.5906618 C27.0580075,21.3015441 22.5839173,20.1745588 21.7675263,21.5325 C21.538,21.9156618 21.1947143,22.6773529 20.8367068,23.6183824 C20.8367068,23.6183824 20.8367068,23.6190441 20.8360376,23.6190441 C20.8353684,23.6210294 20.8346992,23.6236765 20.8340301,23.6256618 C20.5717143,24.3165441 20.3027068,25.1027206 20.0624737,25.9120588 C18.4859023,30.2340441 15.4886767,37.0032353 13.942218,36.8272059 C11.643609,36.5651471 17.0699323,26.1946324 17.7143459,20.6748529 C17.8756165,19.2884559 17.6226692,16.2026471 13.0067143,15.6758824 C7.32142105,15.0273529 0.748135338,22.3385294 0.248263158,26.6267647 C0.0160601504,28.6173529 2.72018797,30.5252206 4.43460902,30.8845588 C4.79730075,30.96 5.03753383,30.5775 4.99336842,30.2135294 C4.58115789,26.8014706 9.53972932,18.0741176 12.5135338,18.4136029 C15.1848722,18.7186765 8.06085714,29.3466176 7.16081955,37.0614706 C6.83359398,39.8647059 7.97319549,42.6090441 11.0627669,42.9617647 C14.7525865,43.3826471 17.8234211,38.6311765 19.8991955,33.9386029 C20.4800376,34.9835294 21.4771053,35.6505882 23.0322632,35.8034559 C25.8695564,36.0813971 30.6293835,29.0289706 33.7209624,20.8290441 C33.9110075,20.3247794 34.091015,19.83375 34.2636617,19.3526471 L34.2636617,19.3526471 Z M48.628797,18.6577941 C50.6149023,19.2606618 47.5822105,28.0495588 45.869797,27.8543382 C44.8319098,27.7358824 46.0692105,23.9446324 47.8840075,19.6259559 C47.9000677,19.6047794 47.9181353,19.5882353 47.9328571,19.5657353 C48.1423083,19.2427941 48.3437293,18.9330882 48.5458195,18.6233824 C48.5739248,18.6346324 48.5953383,18.6472059 48.628797,18.6577941 L48.628797,18.6577941 Z M30.3229023,14.2319118 C30.5296767,12.3842647 32.302985,10.0065441 33.2344737,10.1124265 C34.0936917,10.2110294 33.6794737,12.7561765 32.6870902,15.9756618 C31.273797,15.5011765 30.2352406,15.0194118 30.3229023,14.2319118 L30.3229023,14.2319118 Z" id="Fill-5" fill="#FFFFFF"></path>
                        <path d="M80.8340827,23.4582353 C80.5597218,23.4661765 80.2746541,23.4873529 79.9902556,23.5072059 C81.1318647,19.1852206 83.0617594,14.5826471 84.0073008,13.1572059 C84.851797,11.8826471 81.0816767,10.9773529 79.7319549,11.9733088 C78.6739925,12.6066176 76.3365714,14.8407353 74.8095188,17.3825735 C75.0945865,15.7625735 76.6965865,12.43125 76.6490752,12.2055882 C76.3800677,10.9396324 72.3998271,10.3930147 71.7159323,12.0368382 C71.5667068,12.3968382 71.3947293,12.8666912 71.2187368,13.4080147 C69.7304962,16.8743382 68.0943684,19.7596324 67.694203,19.7483824 C66.9453985,19.7265441 68.8652556,16.1589706 68.6725338,15.8393382 C68.2415865,15.1246324 66.9888947,14.7434559 65.9188872,14.9029412 C65.9443158,14.7110294 65.9443158,14.5369853 65.9061729,14.4059559 C65.6304737,13.4569853 63.8123308,12.2717647 62.1059398,12.6264706 C58.6034887,13.35375 54.3502256,21.3253676 55.1940526,25.2966176 C55.5480451,26.9642647 57.281203,28.2494118 58.9380752,27.9052941 C60.5066165,27.5790441 62.0798421,25.4369118 63.372015,22.9930147 C63.7106165,23.8758088 64.4119098,24.4667647 65.6866842,24.4568382 C67.0497895,24.44625 68.6069549,22.4880882 69.9807669,19.9806618 C69.973406,22.1261029 70.6204962,23.7103676 72.6420677,23.2908088 C73.2650677,23.1611029 75.4151203,19.7980147 77.5450977,17.0325 C76.7869248,19.35 76.1967143,21.8064706 75.9022782,24.1193382 C62.9256767,26.9232353 43.7605639,37.6722794 32.8958722,37.9594853 C31.564218,37.9952206 28.4947218,37.5968382 27.7352105,36.4751471 C26.4470526,34.5732353 22.992782,43.4025 34.0582256,43.11 C43.7980376,42.8519118 63.4830977,30.8375735 75.700188,27.2971324 C75.7015263,27.4016912 75.6981805,27.5095588 75.7008571,27.6127941 C75.9604962,37.2044118 83.7222331,32.3364706 80.8755714,32.1955147 C79.0299925,32.1035294 78.8071579,29.6318382 79.3364737,26.4772059 C79.9199925,26.3938235 80.4747368,26.3422059 80.9966917,26.3283088 C84.9300902,26.2244118 85.8401654,29.1441176 83.7436466,31.0533088 C81.6310677,32.9770588 87.5806842,31.9208824 87.467594,27.7372059 C87.3906391,24.8763971 83.8426842,23.3788235 80.8340827,23.4582353 L80.8340827,23.4582353 Z M59.9940301,23.3913971 C59.235188,23.1207353 62.2250526,15.0465441 64.1736842,15.5342647 C63.5567068,18.2084559 61.1409925,23.8003676 59.9940301,23.3913971 L59.9940301,23.3913971 Z" id="Fill-6" fill="#FFFFFF"></path>
                        <path d="M10.1794586,6.07963235 C10.2182707,6.07963235 10.2443684,6.06441176 10.2831805,6.03397059 C11.3210677,5.28088235 12.5282556,4.66345588 13.7347744,4.18102941 C12.4245338,7.10404412 10.8800827,10.8701471 10.8800827,12.1658824 C10.8800827,12.6330882 11.3210677,13.2809559 11.5807068,13.2809559 C11.6456165,13.2809559 11.7105263,13.2207353 11.7366241,13.1148529 C12.6446917,9.89073529 14.2667669,6.29007353 15.2792256,4.31669118 C15.2919398,4.28625 15.2919398,4.27169118 15.2919398,4.25647059 C15.2919398,4.07580882 14.9158647,3.92492647 14.5397895,3.87992647 C15.7590226,3.44316176 16.9528271,3.17183824 17.9525714,3.05139706 C18.0951053,3.03617647 18.1473008,2.90051471 18.1473008,2.71985294 C18.1473008,2.28308824 17.8227519,1.58955882 17.4332932,1.58955882 C15.4090451,1.58955882 11.6068045,3.75948529 9.97134586,5.17566176 C9.8937218,5.25044118 9.85490977,5.35632353 9.85490977,5.49198529 C9.85490977,5.76330882 9.99744361,6.07963235 10.1794586,6.07963235" id="Fill-7" fill="#175154"></path>
                        <path d="M14.2533835,12.6178676 C14.2533835,12.8739706 14.526406,13.1452941 14.7465639,13.1452941 C15.1099248,13.1452941 16.3559248,11.5477941 17.3289023,10.7947059 C17.1997519,11.2016912 16.8491053,11.9852206 16.8491053,12.4219853 C16.8491053,12.8739706 17.0304511,13.0850735 17.355,13.0850735 C18.0295263,13.0850735 19.076782,12.4941176 20.2913308,11.5835294 C20.3100677,12.6582353 20.9002782,13.0850735 21.8317669,13.0850735 C22.4808647,13.0850735 23.298594,12.76875 23.7395789,12.4669853 C23.9209248,12.3465441 23.9470226,12.2413235 23.9470226,12.0454412 C23.9470226,11.8343382 23.856015,11.7443382 23.7395789,11.7443382 C23.6097594,11.7443382 23.4926541,11.8495588 23.1299624,12.0004412 C22.8957519,12.1056618 22.6233985,12.1658824 22.3771429,12.1658824 C22.0786917,12.1658824 21.8190526,12.0758824 21.6892331,11.8343382 C22.636782,11.5934559 23.778391,10.9760294 23.778391,10.0263971 C23.778391,9.43941176 23.3889323,9.10786765 22.714406,9.10786765 C21.9816617,9.10786765 21.0923308,9.65713235 20.6205639,10.42875 C20.0196466,10.9336765 19.1771579,11.5855147 18.3540752,11.9097794 C18.5233759,11.1566912 19.0031729,10.4181618 19.0031729,9.75507353 C19.0031729,9.45397059 18.7174361,9.15286765 18.4711805,9.15286765 C17.978,9.15286765 16.7714812,10.2825 15.811218,11.3975735 C16.0186617,10.9455882 16.3171128,10.1322794 16.5506541,9.64985294 C17.7571729,7.85713235 19.7687068,3.92492647 19.7687068,3.02095588 C19.7687068,2.70463235 19.6127895,2.25264706 19.3665338,2.25264706 C19.0031729,2.25264706 17.7571729,4.37691176 16.291015,7.49580882 C15.6031053,8.97220588 14.2533835,12.1208824 14.2533835,12.6178676 L14.2533835,12.6178676 Z M22.5196767,9.86095588 C22.6622105,9.86095588 22.7405038,9.98139706 22.7405038,10.1322794 C22.7405038,10.4486029 22.4286692,10.9151471 21.6504211,11.0958088 C21.7414286,10.3427206 22.1175038,9.86095588 22.5196767,9.86095588 L22.5196767,9.86095588 Z" id="Fill-8" fill="#175154"></path>
                        <path d="M76.0976767,31.4940441 C76.0046617,31.2068382 75.5924511,31.0208824 75.3167519,31.1082353 C74.7653534,31.2822794 73.7642707,32.7858088 73.034203,34.1880882 C73.0696692,33.6547059 73.3273008,33.0670588 73.1225338,32.4350735 C73.030188,32.1485294 72.6179774,31.9625735 72.3422782,32.0499265 C71.7908797,32.2239706 70.7891278,33.7275 70.0590602,35.1291176 C70.1520752,34.6255147 70.3849474,33.7129412 70.4478496,33.26625 C70.4692632,33.1325735 70.4598947,33.1041176 70.4505263,33.075 C70.3715639,32.8314706 69.8516165,32.7586765 69.4307068,32.8916912 C69.1844511,32.9697794 68.9609474,33.1193382 68.9094211,33.3575735 C68.8117218,33.7632353 68.7280752,34.1563235 68.6584812,34.5255882 C68.3158647,35.0463971 67.9337669,35.4176471 67.4673534,35.6313971 C67.3703233,35.6750735 67.2739624,35.7194118 67.1842932,35.7438971 C67.1501654,35.5275 67.1086767,35.3302941 67.0190075,35.1390441 C66.7439774,34.5507353 66.3116917,34.4170588 65.8693684,34.6195588 C65.5100226,34.7836765 65.2102331,35.2197794 65.4986466,35.8352206 C65.6579098,36.1766912 65.9369549,36.4142647 66.2608346,36.5320588 C66.2079699,37.1369118 66.0005263,37.6967647 65.4745564,37.9369853 C65.1292632,38.0951471 64.8013684,37.8972794 64.6541504,37.5822794 C64.3791203,36.9939706 64.6601729,36.2680147 65.0068045,35.8603676 C65.2256241,35.6108824 65.2597519,35.3964706 65.1761053,35.2184559 C65.0864361,35.0272059 64.9452406,34.9755882 64.7933383,35.0457353 C64.1395564,35.3448529 63.4288947,36.2792647 63.2743158,37.2904412 C63.007985,37.5948529 62.7168947,37.8258088 62.3836466,37.9733824 C62.2859474,38.0170588 62.1889173,38.0600735 62.0992481,38.0832353 C62.067797,37.8661765 62.0283158,37.6689706 61.9406541,37.4763971 C61.6723158,36.8861029 61.2420376,36.7471324 60.7970376,36.9443382 C60.4363534,37.1051471 60.1318797,37.5372794 60.4122632,38.1560294 C60.5688496,38.4994853 60.8445489,38.7403676 61.1670902,38.8608088 C61.1075338,39.465 60.8933985,40.0228676 60.3654211,40.2571324 C60.0181203,40.4119853 59.6922331,40.2094853 59.5490301,39.8938235 C59.2806917,39.3028676 59.5697744,38.5795588 59.9210902,38.1765441 C60.1425865,37.9290441 60.1787218,37.7146324 60.0977519,37.5359559 C60.0100902,37.3440441 59.8695639,37.2904412 59.7163233,37.3586029 C59.0685639,37.6464706 58.3558947,38.55375 58.1778947,39.5470588 C57.6860526,40.3027941 56.9941278,41.2484559 56.1670301,41.9922794 C56.0030827,41.5700735 56.3999023,40.6601471 56.2078496,40.1677941 C56.1369173,39.9851471 55.9917068,39.8627206 55.6919173,39.8481618 C55.4597143,39.8395588 55.2275113,39.8309559 54.9390977,39.8441912 C54.932406,39.70125 54.9116617,39.5636029 54.8681654,39.4517647 C54.7202782,39.0719118 54.3569173,38.9355882 53.845,39.1301471 C53.2340451,39.3630882 52.9951504,40.0513235 53.1979098,40.5714706 C53.280218,40.7825735 53.4133835,40.9579412 53.6409023,41.0810294 C53.6857368,41.1121324 53.7305714,41.1432353 53.7841053,41.1551471 C53.3451278,42.0816176 52.846594,42.9816176 52.2483534,43.92 C52.208203,43.9835294 52.2035188,44.0980147 52.2423308,44.1966176 C52.3239699,44.4077206 52.5394436,44.58375 52.7529098,44.5030147 C52.8238421,44.4752206 52.8753684,44.4401471 52.9389398,44.3508088 C53.6154737,43.4475 53.9708045,42.6831618 54.5864436,41.2861765 C54.750391,41.2881618 54.951812,41.2597059 55.1833459,41.2689706 C55.1692932,41.6938235 54.913,42.5018382 55.0548647,42.8671324 C55.2194812,43.2893382 55.4951805,43.4104412 55.8505113,43.2747794 C56.4360376,43.0517647 57.4571955,41.8572794 58.2675639,40.7574265 C58.2863008,40.8103676 58.3030301,40.8633088 58.3264511,40.9155882 C58.6322632,41.5886029 59.3402481,41.9347059 60.2851203,41.5144853 C61.2299925,41.0949265 61.8904662,39.9758824 62.0644511,38.925 C62.2357594,38.8978676 62.4291504,38.8449265 62.5957744,38.7714706 C62.8708045,38.6490441 63.1130451,38.4915441 63.3318647,38.3161765 C63.3613083,38.4180882 63.3967744,38.5193382 63.4436165,38.6179412 C63.7567895,39.2883088 64.4687895,39.6258088 65.4089774,39.1956618 C66.3491654,38.7655147 66.9969248,37.6391912 67.1588647,36.5856618 C67.3301729,36.5572059 67.5228947,36.5022794 67.6888496,36.4261765 C67.9792707,36.2931618 68.2328872,36.1211029 68.4590677,35.9305147 C68.4229323,36.3745588 68.4296241,36.7186765 68.4905188,36.9072794 C68.5694812,37.1514706 69.1610301,37.24875 69.4079549,37.1706618 C69.8141429,37.0416176 70.7148496,35.0801471 71.571391,34.0180147 C71.5513158,34.4514706 71.4014211,35.3216912 71.5359248,35.7379412 C71.6751128,36.1680882 71.9434511,36.3050735 72.3061429,36.1899265 C72.6982782,36.0661765 73.6899925,34.1384559 74.5458647,33.0763235 C74.5264586,33.5097794 74.3665263,34.3515441 74.5753083,34.9967647 C74.7151654,35.4275735 74.9600827,35.4930882 75.1628421,35.4282353 C75.6419699,35.2766912 76.129797,34.7585294 76.1331429,34.5202941 C76.1271203,34.2059559 75.897594,34.0881618 76.060203,33.0088235 C76.179985,32.2431618 76.222812,31.8811765 76.0976767,31.4940441" id="Fill-9" fill="#175154"></path>
                        <path d="M35.4909248,19.3526471 C36.253782,19.7874265 36.7148421,20.3009559 36.6077744,21.0017647 C36.296609,23.0327206 32.9253158,26.9722059 32.523812,30.4160294 C32.2086316,33.1160294 33.9919774,34.5666176 35.747218,34.7671324 C37.4482556,34.9610294 40.2146165,32.3536765 42.7333835,28.0647794 C43.234594,29.9898529 44.5776241,31.0857353 46.8702105,31.3471324 C50.0006015,31.7044853 54.5114962,26.9411029 55.1960602,21.0699265 C55.4670752,18.7497794 54.6546992,17.4752206 52.6565489,17.2475735 C51.8836541,17.1588971 51.0846617,17.3071324 50.4797293,17.5394118 C54.2157218,11.8138235 56.4835489,8.38455882 56.7090602,6.07102941 C56.8295113,4.83088235 55.9341579,3.55566176 55.1853534,3.47029412 C50.7500752,2.96404412 43.7598947,17.3144118 42.681188,23.9730882 C40.8222256,26.9735294 39.0248271,29.3280882 38.4540226,29.2632353 C37.1692105,29.1163235 40.2748421,25.0206618 40.8670602,21.6847059 C41.3642556,18.8841176 38.8856391,17.6373529 36.3601805,16.7684559 C38.3208571,10.4777206 38.1455338,6.77051471 34.0508647,6.79632353 C30.6052932,6.81882353 27.752609,9.90992647 27.3283534,13.5443382 C26.9964436,16.3919118 30.3436466,17.4136765 33.1133534,18.3719118 C31.1955038,23.7401471 28.2732256,29.7198529 26.9890827,29.5729412 C25.6400301,29.4194118 27.0673759,25.6923529 27.4548271,24.7102941 C27.8503083,23.7097059 28.4204436,22.8851471 28.395015,22.5906618 C28.2852707,21.3015441 23.8105113,20.1745588 22.9947895,21.5325 C22.764594,21.9156618 22.4219774,22.6773529 22.0639699,23.6183824 L22.0633008,23.6190441 C22.0626316,23.6210294 22.0619624,23.6236765 22.0612932,23.6256618 C21.7989774,24.3165441 21.5293008,25.1027206 21.2897368,25.9120588 C19.7131654,30.2340441 16.7159398,37.0032353 15.1694812,36.8272059 C12.8708722,36.5651471 18.2971955,26.1946324 18.941609,20.6748529 C19.1028797,19.2884559 18.8499323,16.2026471 14.2339774,15.6758824 C8.54868421,15.0273529 1.9753985,22.3385294 1.47552632,26.6267647 C1.24265414,28.6173529 3.94678195,30.5252206 5.66187218,30.8845588 C6.02456391,30.96 6.26479699,30.5775 6.22063158,30.2135294 C5.80842105,26.8014706 10.7669925,18.0741176 13.7401278,18.4136029 C16.4121353,18.7186765 9.2881203,29.3466176 8.38808271,37.0614706 C8.06085714,39.8647059 9.20045865,42.6090441 12.2900301,42.9617647 C15.9798496,43.3826471 19.0506842,38.6311765 21.1257895,33.9386029 C21.7073008,34.9835294 22.7043684,35.6505882 24.2595263,35.8034559 C27.0968195,36.0813971 31.8566466,29.0289706 34.9482256,20.8290441 C35.1376015,20.3247794 35.3182782,19.83375 35.4909248,19.3526471 L35.4909248,19.3526471 Z M49.855391,18.6577941 C51.8414962,19.2606618 48.8094737,28.0495588 47.0970602,27.8543382 C46.0591729,27.7358824 47.2958045,23.9446324 49.1112707,19.6259559 C49.1266617,19.6047794 49.1453985,19.5882353 49.1601203,19.5657353 C49.3695714,19.2427941 49.5709925,18.9330882 49.7730827,18.6233824 C49.801188,18.6346324 49.8226015,18.6472059 49.855391,18.6577941 L49.855391,18.6577941 Z M31.5501654,14.2319118 C31.7569398,12.3842647 33.5302481,10.0065441 34.4610677,10.1124265 C35.3209549,10.2110294 34.9067368,12.7561765 33.9143534,15.9756618 C32.5010602,15.5011765 31.4625038,15.0194118 31.5501654,14.2319118 L31.5501654,14.2319118 Z" id="Fill-10" fill="#175154"></path>
                        <path d="M82.0613459,23.4582353 C81.786985,23.4661765 81.5012481,23.4873529 81.2175188,23.5072059 C82.3591278,19.1852206 84.2890226,14.5826471 85.2338947,13.1572059 C86.0790602,11.8826471 82.3082707,10.9773529 80.9585489,11.9733088 C79.9012556,12.6066176 77.5638346,14.8407353 76.036782,17.3825735 C76.3218496,15.7625735 77.9238496,12.43125 77.8756692,12.2055882 C77.6073308,10.9396324 73.6270902,10.3930147 72.9431955,12.0368382 C72.7933008,12.3968382 72.6219925,12.8666912 72.446,13.4080147 C70.9577594,16.8743382 69.3216316,19.7596324 68.9214662,19.7483824 C68.1726617,19.7265441 70.0918496,16.1589706 69.899797,15.8393382 C69.4688496,15.1246324 68.2161579,14.7434559 67.1461504,14.9029412 C67.1715789,14.7110294 67.1715789,14.5369853 67.1334361,14.4059559 C66.8577368,13.4569853 65.039594,12.2717647 63.3325338,12.6264706 C59.8307519,13.35375 55.5774887,21.3253676 56.4213158,25.2966176 C56.7753083,26.9642647 58.507797,28.2494118 60.1653383,27.9052941 C61.7338797,27.5790441 63.3064361,25.4369118 64.5992782,22.9930147 C64.9378797,23.8758088 65.6391729,24.4667647 66.9139474,24.4568382 C68.2770526,24.44625 69.8335489,22.4880882 71.2080301,19.9806618 C71.2006692,22.1261029 71.8477594,23.7103676 73.8693308,23.2908088 C74.4923308,23.1611029 76.6423835,19.7980147 78.7723609,17.0325 C78.014188,19.35 77.4239774,21.8064706 77.1295414,24.1193382 C64.1529398,26.9232353 44.9878271,37.6722794 34.1231353,37.9594853 C32.7914812,37.9952206 29.7213158,37.5968382 28.9624737,36.4751471 C27.6743158,34.5732353 24.2200451,43.4025 35.2854887,43.11 C45.0253008,42.8519118 64.7103609,30.8375735 76.9274511,27.2971324 C76.9281203,27.4016912 76.9254436,27.5095588 76.9281203,27.6127941 C77.1877594,37.2044118 84.9494962,32.3364706 82.1021654,32.1955147 C80.2565865,32.1035294 80.0344211,29.6318382 80.5637368,26.4772059 C81.1472556,26.3938235 81.702,26.3422059 82.2239549,26.3283088 C86.1566842,26.2244118 87.0674286,29.1441176 84.9709098,31.0533088 C82.8583308,32.9770588 88.8079474,31.9208824 88.6948571,27.7372059 C88.6172331,24.8763971 85.0692782,23.3788235 82.0613459,23.4582353 L82.0613459,23.4582353 Z M61.2212932,23.3913971 C60.4624511,23.1207353 63.4516466,15.0465441 65.4009474,15.5342647 C64.7839699,18.2084559 62.3682556,23.8003676 61.2212932,23.3913971 L61.2212932,23.3913971 Z" id="Fill-11" fill="#175154"></path>
                    </g>
                </g>
            </g>
        </g>
    </g>
</svg>