<?xml version="1.0" encoding="UTF-8" standalone="no"?>
<svg width="164px" height="60px" viewBox="0 0 164 60" version="1.1" xmlns="http://www.w3.org/2000/svg" xmlns:xlink="http://www.w3.org/1999/xlink" xmlns:sketch="http://www.bohemiancoding.com/sketch/ns">
    <!-- Generator: Sketch 3.2.2 (9983) - http://www.bohemiancoding.com/sketch -->
    <title>5</title>
    <desc>Created with Sketch.</desc>
    <defs></defs>
    <g id="Page-1" stroke="none" stroke-width="1" fill="none" fill-rule="evenodd" sketch:type="MSPage">
        <g id="Партнёры" sketch:type="MSArtboardGroup" transform="translate(-1051.000000, -623.000000)">
            <g id="2_block" sketch:type="MSLayerGroup" transform="translate(469.000000, 142.000000)">
                <g id="2" transform="translate(0.000000, 361.000000)" sketch:type="MSShapeGroup">
                    <g id="5" transform="translate(582.000000, 120.000000)">
                        <path d="M163.708057,9.72117647 C163.734809,4.65882353 159.694128,0.695294118 154.900908,0.695294118 L124.473674,0.695294118 L124.473674,29.2764706 L131.004596,29.2764706 L131.004596,5.72823529 L140.595688,5.72823529 L140.595688,29.2764706 L147.125447,29.2764706 L147.125447,5.72823529 L152.522326,5.72823529 C155.58017,5.75764706 157.163177,7.75294118 157.163177,10.3882353 L157.163177,29.2764706 L163.722014,29.2764706 C163.722014,29.2764706 163.701078,10.7329412 163.708057,9.72117647" id="Fill-1" fill="#FFFFFF"></path>
                        <path d="M111.97478,0.695294118 C111.856142,0.692941176 98.631461,0.697647059 94.7478014,0.695294118 L94.7478014,5.72823529 L109.11234,5.72823529 C112.39583,5.72823529 113.764823,8.18117647 113.764823,11.7788235 L101.738156,11.7788235 C96.9449362,11.7788235 93.0217305,15.6223529 93.0217305,20.4 C93.0217305,25.1776471 96.8832908,29.2764706 101.68,29.2764706 L120.309702,29.2764706 C120.309702,29.2764706 120.30505,10.64 120.30505,9.62352941 C120.295745,4.50941176 116.740085,0.762352941 111.97478,0.695294118 M103.30139,24.0411765 L103.30139,24.0341176 C101.312454,23.92 99.7306099,22.3729412 99.7306099,20.4752941 C99.7306099,18.6176471 101.247319,17.0964706 103.178099,16.9247059 L113.774128,16.9247059 L113.774128,24.0411765 L103.30139,24.0411765" id="Fill-2" fill="#FFFFFF"></path>
                        <path d="M52.9405957,5.72823529 L63.2958582,5.72823529 L63.2958582,0.695294118 L50.4363972,0.695294118 C45.1348936,0.695294118 39.6438014,4.60117647 39.6438014,14.9705882 C39.6438014,24.2941176 45.1348936,29.2764706 50.2340142,29.2764706 L63.2958582,29.2764706 L63.2958582,24.2211765 L51.8716879,24.2211765 C48.6754326,24.2211765 46.2735887,20.7141176 46.2735887,17.3576471 L63.2958582,17.3576471 L63.2958582,12.3376471 L46.3073191,12.3376471 C46.3073191,8.18117647 48.6754326,5.72823529 52.9405957,5.72823529" id="Fill-3" fill="#FFFFFF"></path>
                        <path d="M79.6714326,5.72823529 L90.0255319,5.72823529 L90.0255319,0.695294118 L77.167234,0.695294118 C71.8657305,0.695294118 66.3746383,4.60117647 66.3746383,14.9705882 C66.3746383,24.2941176 71.8657305,29.2764706 76.9648511,29.2764706 L90.0255319,29.2764706 L90.0255319,24.2211765 L78.6025248,24.2211765 C75.4062695,24.2211765 73.0044255,20.7141176 73.0044255,17.3576471 L90.0255319,17.3576471 L90.0255319,12.3376471 L73.0369929,12.3376471 C73.0369929,8.18117647 75.4062695,5.72823529 79.6714326,5.72823529" id="Fill-4" fill="#FFFFFF"></path>
                        <path d="M9.90280851,0.695294118 L21.8689929,29.2764706 L27.8811631,29.2764706 L40.8580993,0.695294118 L33.649078,0.695294118 L24.8849645,21.0329412 L17.0792624,0.695294118 L9.90280851,0.695294118" id="Fill-5" fill="#FFFFFF"></path>
                        <path d="M0.888624113,19.5411765 C0.888624113,19.5247059 0.894439716,21.2882353 0.894439716,21.2882353 L0.906070922,29.1329412 C0.88164539,33.0176471 2.3471773,36.6611765 5.03165957,39.3941176 C7.73126241,42.1411765 11.3218156,43.6541176 15.1473191,43.6541176 L163.718525,43.6588235 L163.718525,34.7388235 L16.2755461,34.7341176 C13.0967376,34.7341176 10.1110071,33.4764706 7.86734752,31.1952941 C5.64113475,28.9258824 4.42451064,25.8964706 4.44544681,22.6658824 C4.44544681,22.6635294 4.43148936,21.2364706 4.43148936,21.2364706 L4.428,19.5588235 L4.42451064,0.695294118 L0.885134752,0.695294118 L0.888624113,19.5411765 Z" id="Fill-6" fill="#54B948"></path>
                        <path d="M48.7638298,49.1729412 L51.1261277,49.1729412 L51.1261277,59.7635294 L48.7638298,59.7635294 L48.7638298,49.1729412 Z" id="Fill-7" fill="#FFFFFF"></path>
                        <path d="M55.2110071,51.1835294 L52.3846241,51.1835294 L52.3846241,49.1729412 L60.4322553,49.1729412 L60.4322553,51.1835294 L57.573305,51.1835294 L57.573305,59.7635294 L55.2110071,59.7635294 L55.2110071,51.1835294" id="Fill-8" fill="#FFFFFF"></path>
                        <path d="M66.8782695,49.1717647 L69.2394043,49.1717647 L69.2394043,55.8658824 C69.2394043,58.8835294 67.8099291,59.9352941 65.5267234,59.9352941 C64.9672624,59.9352941 64.2531064,59.8411765 63.786695,59.6847059 L64.0507234,57.7517647 C64.3763972,57.8623529 64.7962837,57.94 65.262695,57.94 C66.256,57.94 66.8782695,57.4847059 66.8782695,55.8505882 L66.8782695,49.1717647" id="Fill-9" fill="#FFFFFF"></path>
                        <path d="M73.5731915,49.1717647 L73.5731915,55.2541176 C73.5731915,57.0905882 74.272227,58.0188235 75.469078,58.0188235 C76.7124539,58.0188235 77.3963688,57.1376471 77.3963688,55.2541176 L77.3963688,49.1717647 L79.7575035,49.1717647 L79.7575035,55.1117647 C79.7575035,58.38 78.1256454,59.9352941 75.3911489,59.9352941 C72.7508652,59.9352941 71.2132199,58.4435294 71.2132199,55.08 L71.2132199,49.1717647 L73.5731915,49.1717647" id="Fill-10" fill="#FFFFFF"></path>
                        <path d="M81.8848511,57.2952941 C82.5071206,57.6258824 83.5004255,57.9564706 84.5100142,57.9564706 C85.598695,57.9564706 86.1732766,57.5 86.1732766,56.8094118 C86.1732766,56.1494118 85.6766241,55.7717647 84.4169645,55.3305882 C82.6780993,54.7035294 81.527773,53.7282353 81.527773,52.1882353 C81.527773,50.3823529 83.0351773,49.0141176 85.4893617,49.0141176 C86.6850496,49.0141176 87.5411064,49.2505882 88.1622128,49.5494118 L87.634156,51.4658824 C87.2293901,51.2611765 86.4675461,50.9623529 85.4579574,50.9623529 C84.4332482,50.9623529 83.9354326,51.4505882 83.9354326,51.9847059 C83.9354326,52.6611765 84.5100142,52.9588235 85.877844,53.4776471 C87.7272057,54.1682353 88.5809362,55.1423529 88.5809362,56.6364706 C88.5809362,58.4117647 87.2445106,59.92 84.3704397,59.92 C83.1747518,59.92 81.9941844,59.5894118 81.4033191,59.26 L81.8848511,57.2952941" id="Fill-11" fill="#FFFFFF"></path>
                        <path d="M92.2308085,51.1835294 L89.4032624,51.1835294 L89.4032624,49.1729412 L97.4508936,49.1729412 L97.4508936,51.1835294 L94.5919433,51.1835294 L94.5919433,59.7635294 L92.2308085,59.7635294 L92.2308085,51.1835294" id="Fill-12" fill="#FFFFFF"></path>
                        <path d="M102.965248,59.7635294 L100.480823,49.1717647 L103.011773,49.1717647 L103.805021,53.5247059 C104.037645,54.7976471 104.256312,56.1647059 104.426128,57.2494118 L104.458695,57.2494118 C104.628511,56.0870588 104.877418,54.8129412 105.14261,53.4941176 L106.026582,49.1717647 L108.543574,49.1717647 L109.382184,53.6352941 C109.615972,54.8764706 109.78695,56.0070588 109.941645,57.1858824 L109.97305,57.1858824 C110.128908,56.0070588 110.361532,54.7658824 110.577872,53.4941176 L111.432766,49.1717647 L113.841589,49.1717647 L111.138496,59.7635294 L108.574979,59.7635294 L107.689844,55.2058824 C107.487461,54.1388235 107.316482,53.1470588 107.192028,51.9376471 L107.160624,51.9376471 C106.974525,53.1317647 106.803546,54.1388235 106.554638,55.2223529 L105.56017,59.7635294 L102.965248,59.7635294" id="Fill-13" fill="#FFFFFF"></path>
                        <path d="M119.387348,59.9352941 C116.29461,59.9352941 114.461532,57.5635294 114.461532,54.5458824 C114.461532,51.3717647 116.481872,48.9988235 119.557163,48.9988235 C122.774355,48.9988235 124.529504,51.4352941 124.529504,54.3576471 C124.529504,57.8458824 122.463801,59.9352941 119.402468,59.9352941 L119.387348,59.9352941 L119.387348,59.9352941 Z M119.511801,58.0341176 C121.111092,58.0341176 122.027631,56.5094118 122.027631,54.4364706 C122.027631,52.5352941 121.141333,50.9011765 119.511801,50.9011765 C117.879943,50.9011765 116.963404,52.5035294 116.963404,54.4835294 C116.963404,56.48 117.911348,58.0341176 119.495518,58.0341176 L119.511801,58.0341176 L119.511801,58.0341176 Z" id="Fill-14" fill="#FFFFFF"></path>
                        <path d="M126.08227,49.3294118 C126.844113,49.1882353 127.963035,49.0941176 129.235489,49.0941176 C130.789418,49.0941176 131.876936,49.3294118 132.622496,49.9411765 C133.259887,50.4447059 133.600681,51.1835294 133.600681,52.1576471 C133.600681,53.4941176 132.653901,54.4211765 131.752482,54.7494118 L131.752482,54.7976471 C132.482922,55.0964706 132.886525,55.7870588 133.151716,56.7611765 C133.47739,57.9717647 133.787943,59.3541176 133.989163,59.7635294 L131.566383,59.7635294 C131.410525,59.4482353 131.14766,58.6 130.851064,57.2952941 C130.556794,55.96 130.105504,55.6141176 129.127319,55.5988235 L128.428284,55.5988235 L128.428284,59.7635294 L126.08227,59.7635294 L126.08227,49.3294118 L126.08227,49.3294118 Z M128.428284,53.8705882 L129.361106,53.8705882 C130.540511,53.8705882 131.239546,53.2729412 131.239546,52.3458824 C131.239546,51.3882353 130.587035,50.8847059 129.499518,50.8847059 C128.924936,50.8847059 128.600426,50.9164706 128.428284,50.9635294 L128.428284,53.8705882 L128.428284,53.8705882 Z" id="Fill-15" fill="#FFFFFF"></path>
                        <path d="M135.294184,49.1717647 L137.640199,49.1717647 L137.640199,53.8541176 L137.671603,53.8541176 C137.90539,53.4470588 138.153135,53.0682353 138.402043,52.6917647 L140.763177,49.1717647 L143.683773,49.1717647 L140.22,53.6823529 L143.854752,59.7635294 L141.105135,59.7635294 L138.526496,55.1905882 L137.640199,56.3047059 L137.640199,59.7635294 L135.294184,59.7635294 L135.294184,49.1717647" id="Fill-16" fill="#FFFFFF"></path>
                        <path d="M144.910865,57.2952941 C145.531972,57.6258824 146.527603,57.9564706 147.537191,57.9564706 C148.623546,57.9564706 149.198128,57.5 149.198128,56.8094118 C149.198128,56.1494118 148.702638,55.7717647 147.442979,55.3305882 C145.704113,54.7035294 144.553787,53.7282353 144.553787,52.1882353 C144.553787,50.3823529 146.060028,49.0141176 148.516539,49.0141176 C149.712227,49.0141176 150.565957,49.2505882 151.187064,49.5494118 L150.659007,51.4658824 C150.255404,51.2611765 149.49356,50.9623529 148.483972,50.9623529 C147.458099,50.9623529 146.961447,51.4505882 146.961447,51.9847059 C146.961447,52.6611765 147.537191,52.9588235 148.903858,53.4776471 C150.752057,54.1682353 151.60695,55.1423529 151.60695,56.6364706 C151.60695,58.4117647 150.270525,59.92 147.396454,59.92 C146.199603,59.92 145.019035,59.5894118 144.429333,59.26 L144.910865,57.2952941" id="Fill-17" fill="#FFFFFF"></path>
                        <path d="M154.263518,59.9352941 C153.440028,59.9352941 152.880567,59.3235294 152.880567,58.5058824 C152.880567,57.6576471 153.455149,57.0764706 154.278638,57.0764706 C155.102128,57.0764706 155.645305,57.6576471 155.661589,58.5058824 C155.661589,59.3235294 155.117248,59.9352941 154.278638,59.9352941 L154.263518,59.9352941 L154.263518,59.9352941 Z M153.393504,56.2905882 L153.051546,49.1717647 L155.50573,49.1717647 L155.163773,56.2905882 L153.393504,56.2905882 L153.393504,56.2905882 Z" id="Fill-18" fill="#FFFFFF"></path>
                        <path d="M158.576369,49.5564706 L157.522582,49.5564706 L157.522582,49.1729412 L160.088426,49.1729412 L160.088426,49.5564706 L159.028823,49.5564706 L159.028823,52.6752941 L158.576369,52.6752941 L158.576369,49.5564706" id="Fill-19" fill="#FFFFFF"></path>
                        <path d="M163.197447,51.1376471 C163.171858,50.6541176 163.141617,50.0552941 163.141617,49.6247059 L163.129986,49.6247059 C163.007858,50.0294118 162.868284,50.4764706 162.693816,50.9552941 L162.082014,52.6564706 L161.743546,52.6564706 L161.177106,50.9870588 C161.013106,50.4917647 160.878184,50.04 160.780482,49.6247059 L160.771177,49.6247059 C160.760709,50.0611765 160.735121,50.6482353 160.703716,51.1741176 L160.61183,52.6752941 L160.184965,52.6752941 L160.426894,49.1729412 L160.996823,49.1729412 L161.588851,50.8670588 C161.731915,51.2988235 161.844738,51.6882353 161.937787,52.0529412 L161.947092,52.0529412 C162.040142,51.6988235 162.164596,51.3082353 162.318128,50.8670588 L162.935745,49.1729412 L163.505674,49.1729412 L163.722014,52.6752941 L163.280028,52.6752941 L163.197447,51.1376471" id="Fill-20" fill="#FFFFFF"></path>
                    </g>
                </g>
            </g>
        </g>
    </g>
</svg>