<?xml version="1.0" encoding="UTF-8" standalone="no"?>
<svg width="113px" height="60px" viewBox="0 0 113 60" version="1.1" xmlns="http://www.w3.org/2000/svg" xmlns:xlink="http://www.w3.org/1999/xlink" xmlns:sketch="http://www.bohemiancoding.com/sketch/ns">
    <!-- Generator: Sketch 3.2.2 (9983) - http://www.bohemiancoding.com/sketch -->
    <title>6</title>
    <desc>Created with Sketch.</desc>
    <defs>
        <path id="path-1" d="M0,0.117831325 L112.723618,0.117831325 L112.723618,59.9566265 L0,59.9566265"></path>
    </defs>
    <g id="Page-1" stroke="none" stroke-width="1" fill="none" fill-rule="evenodd" sketch:type="MSPage">
        <g id="Партнёры" sketch:type="MSArtboardGroup" transform="translate(-1337.000000, -1402.000000)">
            <g id="2_block" sketch:type="MSLayerGroup" transform="translate(469.000000, 142.000000)">
                <g id="4" transform="translate(0.000000, 1159.000000)">
                    <g id="6" transform="translate(868.000000, 101.000000)">
                        <path d="M36.990586,17.9884337 C37.0661592,18.0108434 37.1136624,18.06 37.1489299,18.1228916 C37.0971083,18.0795181 37.0445669,18.0339759 36.990586,17.9884337 L36.990586,17.9884337 Z M20.3335223,6.90506024 L20.5875924,9.78072289 L25.794949,14.6081928 L25.648121,12.9180723 C25.6157325,12.5906024 25.8568471,12.3281928 26.1857707,12.3310843 C26.512535,12.3339759 26.8025924,12.5927711 26.8292229,12.9216867 L27.083293,15.800241 L30.4409045,18.913012 L30.2926369,17.2192771 C30.2616879,16.8954217 30.5049618,16.6315663 30.8346051,16.6322892 C31.1606497,16.6322892 31.4435096,16.9004819 31.4744586,17.226506 L31.7292484,20.1014458 L41.8222357,29.4571084 L41.6732484,27.7648193 C41.6458981,27.4359036 41.8898917,27.1749398 42.2123376,27.18 C42.5398217,27.18 42.8277197,27.4496386 42.8586688,27.7778313 L43.1098599,30.6498795 L44.8091783,32.2272289 C45.0596497,32.4542169 45.0920382,32.833012 44.8797134,33.0643373 C44.6702675,33.2906024 44.2974395,33.2884337 44.0455287,33.0585542 L39.6586815,28.993012 L36.7832994,28.9698795 C36.6213567,28.9698795 36.4666115,28.8975904 36.346414,28.7848193 C36.2247771,28.6807229 36.1434459,28.5289157 36.1276115,28.3633735 C36.1009809,28.0351807 36.3406561,27.7749398 36.6674204,27.7778313 L38.3609809,27.7879518 L35.0954968,24.766988 L32.2222739,24.7409639 C31.8955096,24.7409639 31.6083312,24.4742169 31.5788217,24.1431325 C31.5493121,23.8171084 31.7933057,23.5561446 32.1164713,23.5568675 L33.8078726,23.5713253 L28.7286306,18.8653012 L25.8568471,18.8414458 C25.5286433,18.8414458 25.2400255,18.5761446 25.2112357,18.246506 C25.1846051,17.9226506 25.422121,17.6573494 25.7488854,17.6573494 L27.4402866,17.6718072 L16.6203567,7.6453012 C16.3698854,7.41325301 16.3324586,7.03518072 16.5476624,6.80674699 C16.7599873,6.57975904 17.1320955,6.57975904 17.3804076,6.81759036 L19.2992484,8.59084337 L19.1495414,6.89783133 C19.1207516,6.57036145 19.3683439,6.30722892 19.6893503,6.30722892 C20.0161146,6.30722892 20.306172,6.57759036 20.3335223,6.90506024 L20.3335223,6.90506024 Z M23.9048981,20.2828916 C23.8271656,20.2626506 23.7674268,20.2106024 23.7343185,20.1339759 C23.7875796,20.1853012 23.8480382,20.233012 23.9048981,20.2828916 L23.9048981,20.2828916 Z M23.0728726,6.56313253 C22.5452994,6.17277108 22.0789045,5.83879518 21.6844841,5.57710843 C21.6808854,5.57204819 21.6758471,5.57204819 21.6736879,5.57060241 C16.7909363,2.15204819 12.9093503,-0.0274698795 11.8045414,0.125783133 L11.4432293,0.176385542 C5.49957325,2.7946988 19.7548471,17.1824096 29.6391083,26.2706024 C29.6463057,26.273494 29.6527834,26.28 29.6607006,26.2872289 C29.9687516,26.5684337 30.9691975,27.5414458 32.1279873,28.5310843 C35.3330127,31.4060241 37.6980955,33.4106024 38.0853185,33.740241 C39.2210764,34.7168675 46.7906369,39.96 49.2348917,38.2778313 L66.935586,53.0891566 C67.0759363,53.2055422 67.2493949,53.2546988 67.4178153,53.233012 C67.5783185,53.2178313 67.7280255,53.1361446 67.836707,53.0096386 C68.0663057,52.7342169 68.028879,52.3279518 67.760414,52.0995181 L49.9215287,37.1725301 C50.1086624,36.2819277 49.9373631,34.9380723 49.2485669,32.9862651 C48.5648089,31.053253 47.1454713,28.826747 45.2403057,26.4607229 C43.8231274,24.5768675 41.8769363,22.3706024 39.3412739,20.0812048 C39.3376752,20.0754217 39.3319172,20.0754217 39.3261592,20.0739759 C34.3030573,15.1785542 28.2492803,10.2787952 23.0728726,6.56313253 L23.0728726,6.56313253 Z" id="Fill-1" fill="#FFFFFF" sketch:type="MSShapeGroup"></path>
                        <path d="M60.9948089,14.4520482 C62.3695223,14.2922892 63.503121,13.8860241 63.7485541,12.5855422 C62.4681274,12.0585542 61.6497771,13.6677108 60.9948089,14.4520482 L60.9948089,14.4520482 Z M65.8775605,14.106506 C65.2211529,15.579759 62.4566115,18.3115663 60.0332293,17.9089157 C59.4156879,17.8033735 59.0234268,17.3840964 58.9291401,16.7342169 C58.5822229,17.2677108 55.9234841,18.6607229 55.5600127,17.2171084 C55.3750382,16.4920482 56.008414,15.5653012 56.3128662,15.0036145 C56.6936115,14.3146988 57.1916752,13.7580723 57.1420127,12.999759 C56.2207389,12.6224096 55.449172,13.6033735 54.7999618,14.3826506 C54.0852548,15.2450602 52.8321783,16.6322892 53.5627197,17.6306024 C53.1272739,17.8539759 52.1124331,18.1084337 51.8439682,17.5626506 C51.5495924,16.9684337 52.4276815,15.8501205 52.7386115,15.2826506 C53.9628981,13.0149398 55.3858344,10.7118072 56.5928471,8.99204819 C54.1701847,9.78939759 52.2074395,7.4660241 49.6415478,7.81662651 C48.2517197,8.01180723 46.9057962,9.3773494 46.6833949,10.7898795 C46.4681911,12.1387952 47.0382293,13.073494 48.2668344,13.1371084 C48.2049363,12.9607229 47.7788471,12.7033735 47.9904522,12.1691566 C48.2689936,11.4693976 49.5141529,11.6631325 49.6415478,12.4460241 C49.790535,13.3677108 48.9513121,13.9012048 48.397828,13.9655422 C46.6675605,14.1896386 45.7664395,12.5016867 45.9269427,10.8592771 C46.1651783,8.34939759 48.5237834,6.29204819 51.3602994,6.64481928 C53.1625414,6.86385542 54.7243885,8.51710843 56.4546561,8.30385542 C58.1842038,8.08843373 58.1172675,5.58361446 60.2361975,5.81421687 C60.5320127,7.45228916 58.765758,7.85783133 57.895586,8.64939759 C57.285242,9.20168675 56.8843439,10.1385542 56.4546561,10.8592771 C55.9954586,11.6291566 55.5693694,12.3968675 55.0763439,13.1371084 C55.6233503,12.4879518 58.4217197,11.0183133 58.6599554,12.7922892 C58.8816369,14.5243373 56.6936115,15.1893976 57.1420127,16.8744578 C57.8034586,16.9828916 58.7772739,16.2151807 59.0673312,15.6961446 C59.5581975,14.8344578 59.9562166,13.9416867 60.7918408,13.1371084 C61.5900382,12.3657831 62.602,11.5489157 63.6751401,11.7571084 C65.0102675,12.013012 64.0695605,13.733494 63.5376688,14.1759036 C62.8474331,14.7585542 61.8585032,15.0773494 60.7198662,15.0759036 C60.1678217,15.7207229 60.2765032,16.8751807 61.0667834,17.0089157 C63.1749172,17.3609639 64.7338854,14.3146988 65.7451274,13.6922892 C65.8386943,13.733494 65.7552038,13.9561446 65.8775605,13.9655422 L65.8775605,14.106506 L65.8775605,14.106506 Z" id="Fill-3" fill="#FFFFFF" sketch:type="MSShapeGroup"></path>
                        <g id="Group-13">
                            <mask id="mask-2" sketch:name="Clip 5" fill="white">
                                <use xlink:href="#path-1"></use>
                            </mask>
                            <g id="Clip-5"></g>
                            <path d="M46.5480828,18.666506 L46.2731401,18.666506 C44.5788599,18.8703614 44.0009045,16.2484337 45.5087707,15.9744578 C47.0929299,15.6853012 46.7855987,17.8409639 45.4483121,17.420241 C46.1140764,18.4113253 47.8450637,17.4643373 48.3323312,17.0089157 C50.5541847,14.9371084 50.7535541,9.2573494 54.661051,9.40554217 C51.4473885,11.9833735 51.4876943,17.8272289 46.5480828,18.666506" id="Fill-4" fill="#FFFFFF" sketch:type="MSShapeGroup" mask="url(#mask-2)"></path>
                            <path d="M74.5605669,18.1228916 C74.5893567,18.06 74.6454968,18.0108434 74.7095541,17.9884337 C74.6627707,18.0339759 74.6080701,18.0795181 74.5605669,18.1228916 L74.5605669,18.1228916 Z M92.015828,6.30722892 C92.3433121,6.30722892 92.5851465,6.57036145 92.5549172,6.89783133 L92.4066497,8.59084337 L94.3226115,6.81759036 C94.575242,6.57975904 94.950949,6.57975904 95.1618344,6.80674699 C95.3734395,7.03518072 95.3424904,7.41325301 95.0869809,7.6453012 L84.264172,17.6718072 L85.9555732,17.6573494 C86.2859363,17.6573494 86.5234522,17.9226506 86.4968217,18.246506 C86.4644331,18.5761446 86.1786943,18.8414458 85.8497707,18.8414458 L82.978707,18.8653012 L77.896586,23.5713253 L79.591586,23.5568675 C79.9154713,23.5561446 80.1573057,23.8171084 80.1270764,24.1431325 C80.0975669,24.4742169 79.8139873,24.7409639 79.4850637,24.7409639 L76.6104013,24.766988 L73.3463567,27.7879518 L75.0384777,27.7778313 C75.3623631,27.7749398 75.6063567,28.0351807 75.5790064,28.3633735 C75.5610127,28.5289157 75.4825605,28.6807229 75.3566051,28.7848193 C75.2457643,28.8975904 75.0902994,28.9698795 74.9197197,28.9698795 L72.0450573,28.993012 L67.6639682,33.0585542 C67.4084586,33.2884337 67.0334713,33.2906024 66.8269045,33.0643373 C66.6181783,32.833012 66.6448089,32.4542169 66.8981592,32.2272289 L68.6003567,30.6498795 L68.8522675,27.7778313 C68.8803376,27.4496386 69.1682357,27.18 69.495,27.18 C69.8196051,27.1749398 70.0585605,27.4359036 70.0333694,27.7648193 L69.8836624,29.4571084 L79.9759299,20.1014458 L80.2314395,17.226506 C80.2623885,16.9004819 80.5488471,16.6322892 80.8763312,16.6322892 C81.204535,16.6315663 81.4456497,16.8954217 81.4147006,17.2192771 L81.2664331,18.913012 L84.6204459,15.800241 L84.8781146,12.9216867 C84.902586,12.5927711 85.1890446,12.3339759 85.5165287,12.3310843 C85.846172,12.3281928 86.0858471,12.5906024 86.0613758,12.9180723 L85.9087898,14.6081928 L91.1197452,9.78072289 L91.3730955,6.90506024 C91.4011656,6.57759036 91.6897834,6.30722892 92.015828,6.30722892 L92.015828,6.30722892 Z M87.9722994,20.1339759 C87.9391911,20.2106024 87.877293,20.2626506 87.801,20.2828916 C87.8571401,20.233012 87.9183185,20.1853012 87.9722994,20.1339759 L87.9722994,20.1339759 Z M72.3811783,20.0739759 C72.3747006,20.0754217 72.3718217,20.0754217 72.3675032,20.0812048 C69.8268025,22.3706024 67.879172,24.5768675 66.4699108,26.4607229 C64.5647452,28.826747 63.1418089,31.053253 62.4566115,32.9862651 C61.7699745,34.9380723 61.5950764,36.2819277 61.7901274,37.1725301 L43.8857452,52.1660241 C43.6108025,52.3973494 43.5726561,52.8007229 43.7993758,53.0754217 C43.9102166,53.206988 44.0656815,53.2828916 44.219707,53.3031325 C44.3881274,53.3183133 44.564465,53.2756627 44.7012166,53.1563855 L62.4702866,38.2778313 C64.9145414,39.96 72.4869809,34.7168675 73.6220191,33.740241 C74.0056433,33.4106024 76.3728854,31.4060241 79.5771911,28.5310843 C80.7359809,27.5414458 81.7443439,26.5684337 82.0466369,26.2872289 C82.0509554,26.28 82.0617516,26.273494 82.0653503,26.2706024 C91.9517707,17.1824096 106.207764,2.7946988 100.262669,0.176385542 L99.8991975,0.125783133 C98.798707,-0.0274698795 94.9185605,2.15204819 90.0307707,5.57060241 C90.0286115,5.57204819 90.027172,5.57204819 90.0206943,5.57710843 C89.6277134,5.83879518 89.1641975,6.17277108 88.6330255,6.56313253 C83.4537389,10.2787952 77.4057197,15.1785542 72.3811783,20.0739759 L72.3811783,20.0739759 Z" id="Fill-6" fill="#FFFFFF" sketch:type="MSShapeGroup" mask="url(#mask-2)"></path>
                            <path d="M73.8321847,58.9156627 C74.210051,58.9156627 74.5051465,58.6120482 74.5051465,58.2281928 C74.5051465,57.8486747 74.210051,57.553012 73.8321847,57.553012 C73.4413631,57.553012 73.1592229,57.8486747 73.1592229,58.2281928 C73.1592229,58.6120482 73.4413631,58.9156627 73.8321847,58.9156627 L73.8321847,58.9156627 Z M72.0450573,54.1872289 C72.0450573,54.1026506 72.1213503,54.0260241 72.201242,54.0260241 L73.1311529,54.0260241 C73.2146433,54.0260241 73.2902166,54.1026506 73.2902166,54.1872289 L73.2902166,56.6277108 C73.3902611,56.5677108 73.7011911,56.4672289 73.984051,56.4672289 C74.8815732,56.4672289 75.6524204,57.0462651 75.6524204,58.2361446 C75.6524204,59.2012048 74.9420318,60 73.9912484,60 C73.2571083,60 72.8720446,59.4679518 72.8720446,59.4679518 L72.772,59.7484337 C72.7396115,59.8416867 72.6791529,59.9154217 72.5942229,59.9154217 L72.201242,59.9154217 C72.1213503,59.9154217 72.0450573,59.8416867 72.0450573,59.7563855 L72.0450573,54.1872289 L72.0450573,54.1872289 Z" id="Fill-7" fill="#FFFFFF" sketch:type="MSShapeGroup" mask="url(#mask-2)"></path>
                            <path d="M77.7987006,58.9156627 C78.1664904,58.9156627 78.458707,58.6040964 78.458707,58.2281928 C78.458707,57.8587952 78.1664904,57.553012 77.7987006,57.553012 C77.4309108,57.553012 77.1401338,57.8587952 77.1401338,58.2281928 C77.1401338,58.6040964 77.4309108,58.9156627 77.7987006,58.9156627 L77.7987006,58.9156627 Z M77.7987006,56.4672289 C78.7530828,56.4672289 79.5412038,57.2768675 79.5412038,58.2281928 C79.5412038,59.1939759 78.7530828,60 77.7987006,60 C76.842879,60 76.0590764,59.1939759 76.0590764,58.2281928 C76.0590764,57.2768675 76.842879,56.4672289 77.7987006,56.4672289 L77.7987006,56.4672289 Z" id="Fill-8" fill="#FFFFFF" sketch:type="MSShapeGroup" mask="url(#mask-2)"></path>
                            <path d="M81.6730892,58.9156627 C82.040879,58.9156627 82.3309363,58.6040964 82.3309363,58.2281928 C82.3309363,57.8587952 82.040879,57.553012 81.6730892,57.553012 C81.3002611,57.553012 81.0109236,57.8587952 81.0109236,58.2281928 C81.0109236,58.6040964 81.3002611,58.9156627 81.6730892,58.9156627 L81.6730892,58.9156627 Z M81.6730892,56.4672289 C82.6224331,56.4672289 83.4105541,57.2768675 83.4105541,58.2281928 C83.4105541,59.1939759 82.6224331,60 81.6730892,60 C80.7151083,60 79.9291465,59.1939759 79.9291465,58.2281928 C79.9291465,57.2768675 80.7151083,56.4672289 81.6730892,56.4672289 L81.6730892,56.4672289 Z" id="Fill-9" fill="#FFFFFF" sketch:type="MSShapeGroup" mask="url(#mask-2)"></path>
                            <path d="M84.0576051,54.1872289 C84.0576051,54.1026506 84.1367771,54.0260241 84.2195478,54.0260241 L85.1494586,54.0260241 C85.2343885,54.0260241 85.3063631,54.1026506 85.3063631,54.1872289 L85.3063631,57.8327711 L86.3226433,56.6537349 C86.3708662,56.5995181 86.4298854,56.5510843 86.5299299,56.5510843 L87.4684777,56.5510843 C87.611707,56.5510843 87.688,56.6971084 87.5944331,56.8113253 L86.4860255,58.0995181 L87.8276306,59.6609639 C87.9204777,59.7715663 87.8456242,59.9154217 87.7045541,59.9154217 L86.5731146,59.9154217 C86.5385669,59.9154217 86.4716306,59.8807229 86.4471592,59.8510843 L85.3063631,58.3850602 L85.3063631,59.7563855 C85.3063631,59.8416867 85.2343885,59.9154217 85.1494586,59.9154217 L84.2195478,59.9154217 C84.1367771,59.9154217 84.0576051,59.8416867 84.0576051,59.7563855 L84.0576051,54.1872289" id="Fill-10" fill="#FFFFFF" sketch:type="MSShapeGroup" mask="url(#mask-2)"></path>
                            <path d="M88.1623121,59.5438554 L88.4588471,58.9684337 C88.4840382,58.9156627 88.5675287,58.866506 88.6330255,58.9019277 C88.6330255,58.9019277 89.0281656,59.1166265 89.3880382,59.1166265 C89.4715287,59.1166265 89.5485414,59.0689157 89.5485414,58.9684337 C89.5485414,58.8860241 89.4995987,58.7638554 89.0677516,58.6120482 C88.4163822,58.3850602 88.1320828,58.006988 88.1320828,57.4850602 C88.1320828,56.9212048 88.5301019,56.4672289 89.4377006,56.4672289 C89.9667134,56.4672289 90.366172,56.6118072 90.552586,56.7289157 C90.6303185,56.7766265 90.6857389,56.8546988 90.6339172,56.9428916 L90.323707,57.5103614 C90.3028344,57.5595181 90.2121465,57.5848193 90.1488089,57.5595181 C90.1488089,57.5595181 89.7637452,57.3715663 89.4377006,57.3715663 C89.3304586,57.3715663 89.2556051,57.3939759 89.2556051,57.4850602 C89.2556051,57.5689157 89.346293,57.6520482 89.6277134,57.7539759 C90.3114713,57.9860241 90.775707,58.2621687 90.775707,58.933012 C90.775707,59.5228916 90.3114713,60 89.3614076,60 C88.8129618,60 88.3911911,59.8612048 88.2263694,59.7231325 C88.1623121,59.673253 88.1241656,59.6219277 88.1623121,59.5438554" id="Fill-11" fill="#FFFFFF" sketch:type="MSShapeGroup" mask="url(#mask-2)"></path>
                            <path d="M0.0374267516,37.7653012 C-0.0748535032,37.5144578 0.0762929936,37.2693976 0.366350318,37.2693976 L2.89697452,37.2693976 C3.04596178,37.2693976 3.1783949,37.3821687 3.22014013,37.4790361 L6.35966879,44.4592771 L6.47554777,44.4592771 L9.61579618,37.4790361 C9.65250318,37.3821687 9.78421656,37.2693976 9.94112102,37.2693976 L12.4710255,37.2693976 C12.7546051,37.2693976 12.9093503,37.5144578 12.7963503,37.7653012 L6.8181465,50.6356627 C6.76416561,50.7491566 6.64540764,50.8453012 6.49282166,50.8453012 L6.30136943,50.8453012 C6.15310191,50.8453012 6.03722293,50.7491566 5.9810828,50.6356627 L0.0374267516,37.7653012" id="Fill-12" fill="#FFFFFF" sketch:type="MSShapeGroup" mask="url(#mask-2)"></path>
                        </g>
                        <path d="M18.9631274,47.7874699 C21.0597452,47.7874699 22.7705796,46.0640964 22.7705796,43.9785542 C22.7705796,41.8814458 21.0597452,40.1414458 18.9631274,40.1414458 C16.8873822,40.1414458 15.1743885,41.8814458 15.1743885,43.9785542 C15.1743885,46.0640964 16.8873822,47.7874699 18.9631274,47.7874699 L18.9631274,47.7874699 Z M18.9631274,37.0778313 C22.7705796,37.0778313 25.8187006,40.1580723 25.8187006,43.9785542 C25.8187006,47.8091566 22.7705796,50.8453012 18.9631274,50.8453012 C15.1527962,50.8453012 12.1291465,47.8091566 12.1291465,43.9785542 C12.1291465,40.1580723 15.1527962,37.0778313 18.9631274,37.0778313 L18.9631274,37.0778313 Z" id="Fill-14" fill="#FFFFFF" sketch:type="MSShapeGroup"></path>
                        <path d="M33.6027452,47.7874699 C35.6964841,47.7874699 37.4116369,46.0640964 37.4116369,43.9785542 C37.4116369,41.8814458 35.6964841,40.1414458 33.6027452,40.1414458 C31.5284395,40.1414458 29.8125669,41.8814458 29.8125669,43.9785542 C29.8125669,46.0640964 31.5284395,47.7874699 33.6027452,47.7874699 L33.6027452,47.7874699 Z M33.6027452,37.0778313 C37.4116369,37.0778313 40.4554395,40.1580723 40.4554395,43.9785542 C40.4554395,47.8091566 37.4116369,50.8453012 33.6027452,50.8453012 C29.7938535,50.8453012 26.7644459,47.8091566 26.7644459,43.9785542 C26.7644459,40.1580723 29.7938535,37.0778313 33.6027452,37.0778313 L33.6027452,37.0778313 Z" id="Fill-15" fill="#FFFFFF" sketch:type="MSShapeGroup"></path>
                        <path d="M76.5499427,47.8257831 C78.7041401,47.8257831 80.266707,46.1190361 80.266707,43.9431325 C80.266707,41.7831325 78.7041401,40.0814458 76.5499427,40.0814458 L74.7261083,40.0814458 L74.7261083,47.8257831 L76.5499427,47.8257831 L76.5499427,47.8257831 Z M71.755,37.6315663 C71.755,37.4414458 71.9083057,37.2693976 72.099758,37.2693976 L76.7428344,37.2693976 C80.4185732,37.2693976 83.4263885,40.273012 83.4263885,43.9431325 C83.4263885,47.646506 80.4185732,50.6544578 76.7428344,50.6544578 L72.099758,50.6544578 C71.9083057,50.6544578 71.755,50.4780723 71.755,50.2901205 L71.755,37.6315663 L71.755,37.6315663 Z" id="Fill-16" fill="#FFFFFF" sketch:type="MSShapeGroup"></path>
                        <path d="M91.233465,47.7874699 C93.3257643,47.7874699 95.0380382,46.0640964 95.0380382,43.9785542 C95.0380382,41.8814458 93.3257643,40.1414458 91.233465,40.1414458 C89.1584395,40.1414458 87.4454459,41.8814458 87.4454459,43.9785542 C87.4454459,46.0640964 89.1584395,47.7874699 91.233465,47.7874699 L91.233465,47.7874699 Z M91.233465,37.0778313 C95.0380382,37.0778313 98.0825605,40.1580723 98.0825605,43.9785542 C98.0825605,47.8091566 95.0380382,50.8453012 91.233465,50.8453012 C87.4245732,50.8453012 84.3966051,47.8091566 84.3966051,43.9785542 C84.3966051,40.1580723 87.4245732,37.0778313 91.233465,37.0778313 L91.233465,37.0778313 Z" id="Fill-17" fill="#FFFFFF" sketch:type="MSShapeGroup"></path>
                        <path d="M105.870924,47.7874699 C107.964662,47.7874699 109.679815,46.0640964 109.679815,43.9785542 C109.679815,41.8814458 107.964662,40.1414458 105.870924,40.1414458 C103.796618,40.1414458 102.082185,41.8814458 102.082185,43.9785542 C102.082185,46.0640964 103.796618,47.7874699 105.870924,47.7874699 L105.870924,47.7874699 Z M105.870924,37.0778313 C109.679815,37.0778313 112.723618,40.1580723 112.723618,43.9785542 C112.723618,47.8091566 109.679815,50.8453012 105.870924,50.8453012 C102.064911,50.8453012 99.0355032,47.8091566 99.0355032,43.9785542 C99.0355032,40.1580723 102.064911,37.0778313 105.870924,37.0778313 L105.870924,37.0778313 Z" id="Fill-18" fill="#FFFFFF" sketch:type="MSShapeGroup"></path>
                    </g>
                </g>
            </g>
        </g>
    </g>
</svg>