<?xml version="1.0" encoding="UTF-8" standalone="no"?>
<svg width="47px" height="45px" viewBox="0 0 47 45" version="1.1" xmlns="http://www.w3.org/2000/svg" xmlns:xlink="http://www.w3.org/1999/xlink" xmlns:sketch="http://www.bohemiancoding.com/sketch/ns">
    <!-- Generator: Sketch 3.2.2 (9983) - http://www.bohemiancoding.com/sketch -->
    <title>6</title>
    <desc>Created with Sketch.</desc>
    <defs></defs>
    <g id="Page-1" stroke="none" stroke-width="1" fill="none" fill-rule="evenodd" sketch:type="MSPage">
        <g id="Партнёры" sketch:type="MSArtboardGroup" transform="translate(-1089.000000, -1719.000000)" fill="#FFFFFF">
            <g id="2_block" sketch:type="MSLayerGroup" transform="translate(469.000000, 142.000000)">
                <g id="5" transform="translate(0.000000, 1476.000000)" sketch:type="MSShapeGroup">
                    <g id="6" transform="translate(620.000000, 101.000000)">
                        <path d="M35.0231134,12.9944957 L30.2387916,25.6792684 L25.4547016,12.9944957 L20.9500617,12.9944957 C23.4772244,19.6948979 26.0043582,26.3950484 28.531521,33.0952828 L31.946381,33.0952828 L39.5278113,12.9944957 L35.0231134,12.9944957 L35.0231134,12.9944957 Z M11.3329112,33.0952828 L11.3329112,12.9944957 L15.5659538,12.9944957 L15.5659538,29.0103844 L24.9281393,29.0103844 L26.4690555,33.0952828 L11.3329112,33.0952828 L11.3329112,33.0952828 Z M23.9505277,0.0254467245 C36.669852,0.0254467245 46.981455,9.97601083 46.981455,22.2505879 C46.981455,34.5250532 36.669852,44.4761206 23.9505277,44.4761206 C11.2315222,44.4761206 0.920440814,34.5250532 0.920440814,22.2505879 C0.920440814,9.97601083 11.2315222,0.0254467245 23.9505277,0.0254467245 L23.9505277,0.0254467245 Z" id="Fill-1"></path>
                    </g>
                </g>
            </g>
        </g>
    </g>
</svg>