<?xml version="1.0" encoding="UTF-8" standalone="no"?>
<svg width="10px" height="11px" viewBox="0 0 10 11" version="1.1" xmlns="http://www.w3.org/2000/svg" xmlns:xlink="http://www.w3.org/1999/xlink" xmlns:sketch="http://www.bohemiancoding.com/sketch/ns">
    <!-- Generator: Sketch 3.2.2 (9983) - http://www.bohemiancoding.com/sketch -->
    <title>Shape</title>
    <desc>Created with Sketch.</desc>
    <defs></defs>
    <g id="Page-1" stroke="none" stroke-width="1" fill="none" fill-rule="evenodd" sketch:type="MSPage">
        <g id="Зрителям" sketch:type="MSArtboardGroup" transform="translate(-1033.000000, -755.000000)" fill="#000000">
            <g id="2_block" sketch:type="MSLayerGroup" transform="translate(468.000000, 142.000000)">
                <g id="1" transform="translate(2.000000, 100.000000)" sketch:type="MSShapeGroup">
                    <g id="Лекция-завершена-+-Обзор-лекции-на-сайт-+-Shape-+-Видеозапись-с-лекции-+-triangle-right" transform="translate(563.000000, 437.000000)">
                        <g id="Обзор-лекции-на-сайт-+-Shape" transform="translate(0.000000, 66.000000)">
                            <path d="M8.43592274,11.1140986 C7.22788975,10.3158056 6.36810702,10.3331724 6.04154266,10.3812205 C5.94969644,10.394535 5.87252009,10.4425831 5.81830531,10.5103135 L2.87157223,14.2001756 L1.42818328,16.0080574 C1.25150686,16.2291945 1.1494555,16.4920117 1.13350997,16.7646702 L0.944714955,20.0203627 C0.931320714,20.2548142 1.18836258,20.4244298 1.42945892,20.3404904 L4.78184616,19.1769161 C5.06440087,19.0785043 5.30996196,18.9077309 5.4872762,18.6854362 L6.66341815,17.2121543 L9.87548477,13.1894289 C9.93225084,13.1182251 9.95521239,13.0313912 9.93926687,12.9445573 C9.8856899,12.6400598 9.62864804,11.9013927 8.43592274,11.1140986 L8.43592274,11.1140986 Z M4.7920513,18.5262407 L3.48898297,18.982987 C3.43795729,19.0009327 3.38119122,18.9864604 3.34802453,18.9470957 C3.1802776,18.7531666 2.98063963,18.5609742 2.66236694,18.3508362 C2.34409426,18.141277 2.081312,18.0278141 1.82682141,17.9421379 C1.77579573,17.9247712 1.74326686,17.8807753 1.74645597,17.8309905 L1.82427013,16.5655311 L2.17443387,16.1284671 C2.17443387,16.1284671 2.95831589,16.0306343 3.98138079,16.706202 C5.00317006,17.3811909 5.14285286,18.0885978 5.14285286,18.0885978 L4.7920513,18.5262407 L4.7920513,18.5262407 Z" id="Shape"></path>
                        </g>
                    </g>
                </g>
            </g>
        </g>
    </g>
</svg>